G75*
%MOIN*%
%OFA0B0*%
%FSLAX25Y25*%
%IPPOS*%
%LPD*%
%AMOC8*
5,1,8,0,0,1.08239X$1,22.5*
%
%ADD10C,0.01600*%
%ADD11C,0.09474*%
%ADD12C,0.01000*%
%ADD13R,0.00039X0.00472*%
%ADD14C,0.07124*%
%ADD15C,0.06400*%
D10*
X0001800Y0035590D02*
X0200800Y0035590D01*
X0200770Y0038013D01*
X0200682Y0040434D01*
X0200535Y0042853D01*
X0200328Y0045267D01*
X0200063Y0047676D01*
X0199740Y0050077D01*
X0199358Y0052470D01*
X0198918Y0054853D01*
X0198420Y0057224D01*
X0197864Y0059583D01*
X0197251Y0061927D01*
X0196581Y0064256D01*
X0195855Y0066568D01*
X0195073Y0068861D01*
X0194235Y0071134D01*
X0193342Y0073387D01*
X0192394Y0075617D01*
X0191392Y0077823D01*
X0190337Y0080005D01*
X0189229Y0082160D01*
X0188069Y0084287D01*
X0186857Y0086386D01*
X0185595Y0088454D01*
X0184283Y0090491D01*
X0182921Y0092495D01*
X0181511Y0094466D01*
X0180054Y0096402D01*
X0178550Y0098301D01*
X0177000Y0100164D01*
X0175405Y0101988D01*
X0173766Y0103773D01*
X0172084Y0105517D01*
X0170360Y0107220D01*
X0168596Y0108881D01*
X0166791Y0110498D01*
X0164947Y0112070D01*
X0163066Y0113598D01*
X0161148Y0115079D01*
X0159195Y0116512D01*
X0157207Y0117898D01*
X0155186Y0119235D01*
X0153134Y0120523D01*
X0151050Y0121760D01*
X0148937Y0122945D01*
X0146796Y0124080D01*
X0144627Y0125161D01*
X0142433Y0126190D01*
X0140215Y0127164D01*
X0137973Y0128085D01*
X0135710Y0128951D01*
X0133427Y0129761D01*
X0131124Y0130515D01*
X0128804Y0131213D01*
X0126467Y0131855D01*
X0124115Y0132439D01*
X0121750Y0132966D01*
X0119373Y0133435D01*
X0116985Y0133846D01*
X0114588Y0134199D01*
X0112182Y0134493D01*
X0109771Y0134729D01*
X0107354Y0134906D01*
X0104934Y0135024D01*
X0102512Y0135083D01*
X0100088Y0135083D01*
X0097666Y0135024D01*
X0095246Y0134906D01*
X0092829Y0134729D01*
X0090418Y0134493D01*
X0088012Y0134199D01*
X0085615Y0133846D01*
X0083227Y0133435D01*
X0080850Y0132966D01*
X0078485Y0132439D01*
X0076133Y0131855D01*
X0073796Y0131213D01*
X0071476Y0130515D01*
X0069173Y0129761D01*
X0066890Y0128951D01*
X0064627Y0128085D01*
X0062385Y0127164D01*
X0060167Y0126190D01*
X0057973Y0125161D01*
X0055804Y0124080D01*
X0053663Y0122945D01*
X0051550Y0121760D01*
X0049466Y0120523D01*
X0047414Y0119235D01*
X0045393Y0117898D01*
X0043405Y0116512D01*
X0041452Y0115079D01*
X0039534Y0113598D01*
X0037653Y0112070D01*
X0035809Y0110498D01*
X0034004Y0108881D01*
X0032240Y0107220D01*
X0030516Y0105517D01*
X0028834Y0103773D01*
X0027195Y0101988D01*
X0025600Y0100164D01*
X0024050Y0098301D01*
X0022546Y0096402D01*
X0021089Y0094466D01*
X0019679Y0092495D01*
X0018317Y0090491D01*
X0017005Y0088454D01*
X0015743Y0086386D01*
X0014531Y0084287D01*
X0013371Y0082160D01*
X0012263Y0080005D01*
X0011208Y0077823D01*
X0010206Y0075617D01*
X0009258Y0073387D01*
X0008365Y0071134D01*
X0007527Y0068861D01*
X0006745Y0066568D01*
X0006019Y0064256D01*
X0005349Y0061927D01*
X0004736Y0059583D01*
X0004180Y0057224D01*
X0003682Y0054853D01*
X0003242Y0052470D01*
X0002860Y0050077D01*
X0002537Y0047676D01*
X0002272Y0045267D01*
X0002065Y0042853D01*
X0001918Y0040434D01*
X0001830Y0038013D01*
X0001800Y0035590D01*
X0001800Y0035840D02*
X0001800Y0036840D01*
D11*
X0010350Y0053383D02*
X0010352Y0053532D01*
X0010358Y0053681D01*
X0010368Y0053829D01*
X0010382Y0053977D01*
X0010400Y0054125D01*
X0010421Y0054272D01*
X0010447Y0054419D01*
X0010477Y0054565D01*
X0010510Y0054710D01*
X0010548Y0054854D01*
X0010589Y0054997D01*
X0010634Y0055139D01*
X0010683Y0055280D01*
X0010736Y0055419D01*
X0010792Y0055557D01*
X0010852Y0055693D01*
X0010915Y0055828D01*
X0010982Y0055960D01*
X0011053Y0056091D01*
X0011127Y0056221D01*
X0011205Y0056348D01*
X0011286Y0056473D01*
X0011370Y0056595D01*
X0011458Y0056716D01*
X0011548Y0056834D01*
X0011642Y0056949D01*
X0011739Y0057062D01*
X0011839Y0057173D01*
X0011942Y0057280D01*
X0012047Y0057385D01*
X0012156Y0057487D01*
X0012267Y0057587D01*
X0012380Y0057683D01*
X0012497Y0057776D01*
X0012615Y0057866D01*
X0012736Y0057952D01*
X0012859Y0058036D01*
X0012985Y0058116D01*
X0013113Y0058193D01*
X0013242Y0058266D01*
X0013374Y0058336D01*
X0013507Y0058402D01*
X0013642Y0058465D01*
X0013779Y0058524D01*
X0013917Y0058579D01*
X0014056Y0058631D01*
X0014197Y0058678D01*
X0014340Y0058723D01*
X0014483Y0058763D01*
X0014627Y0058799D01*
X0014772Y0058832D01*
X0014919Y0058861D01*
X0015065Y0058885D01*
X0015213Y0058906D01*
X0015361Y0058923D01*
X0015509Y0058936D01*
X0015658Y0058945D01*
X0015806Y0058950D01*
X0015955Y0058951D01*
X0016104Y0058948D01*
X0016253Y0058941D01*
X0016401Y0058930D01*
X0016549Y0058915D01*
X0016697Y0058896D01*
X0016844Y0058873D01*
X0016991Y0058847D01*
X0017136Y0058816D01*
X0017281Y0058782D01*
X0017425Y0058743D01*
X0017568Y0058701D01*
X0017709Y0058655D01*
X0017850Y0058605D01*
X0017988Y0058552D01*
X0018126Y0058495D01*
X0018262Y0058434D01*
X0018396Y0058369D01*
X0018528Y0058301D01*
X0018659Y0058230D01*
X0018788Y0058155D01*
X0018914Y0058076D01*
X0019038Y0057994D01*
X0019161Y0057909D01*
X0019280Y0057821D01*
X0019398Y0057730D01*
X0019513Y0057635D01*
X0019625Y0057537D01*
X0019735Y0057437D01*
X0019842Y0057333D01*
X0019946Y0057227D01*
X0020048Y0057118D01*
X0020146Y0057006D01*
X0020241Y0056892D01*
X0020334Y0056775D01*
X0020423Y0056656D01*
X0020508Y0056534D01*
X0020591Y0056410D01*
X0020670Y0056284D01*
X0020746Y0056156D01*
X0020819Y0056026D01*
X0020888Y0055894D01*
X0020953Y0055760D01*
X0021015Y0055625D01*
X0021073Y0055488D01*
X0021127Y0055349D01*
X0021178Y0055209D01*
X0021225Y0055068D01*
X0021268Y0054926D01*
X0021307Y0054782D01*
X0021343Y0054638D01*
X0021374Y0054492D01*
X0021402Y0054346D01*
X0021426Y0054199D01*
X0021446Y0054051D01*
X0021462Y0053903D01*
X0021474Y0053755D01*
X0021482Y0053606D01*
X0021486Y0053457D01*
X0021486Y0053309D01*
X0021482Y0053160D01*
X0021474Y0053011D01*
X0021462Y0052863D01*
X0021446Y0052715D01*
X0021426Y0052567D01*
X0021402Y0052420D01*
X0021374Y0052274D01*
X0021343Y0052128D01*
X0021307Y0051984D01*
X0021268Y0051840D01*
X0021225Y0051698D01*
X0021178Y0051557D01*
X0021127Y0051417D01*
X0021073Y0051278D01*
X0021015Y0051141D01*
X0020953Y0051006D01*
X0020888Y0050872D01*
X0020819Y0050740D01*
X0020746Y0050610D01*
X0020670Y0050482D01*
X0020591Y0050356D01*
X0020508Y0050232D01*
X0020423Y0050110D01*
X0020334Y0049991D01*
X0020241Y0049874D01*
X0020146Y0049760D01*
X0020048Y0049648D01*
X0019946Y0049539D01*
X0019842Y0049433D01*
X0019735Y0049329D01*
X0019625Y0049229D01*
X0019513Y0049131D01*
X0019398Y0049036D01*
X0019280Y0048945D01*
X0019161Y0048857D01*
X0019038Y0048772D01*
X0018914Y0048690D01*
X0018788Y0048611D01*
X0018659Y0048536D01*
X0018528Y0048465D01*
X0018396Y0048397D01*
X0018262Y0048332D01*
X0018126Y0048271D01*
X0017988Y0048214D01*
X0017850Y0048161D01*
X0017709Y0048111D01*
X0017568Y0048065D01*
X0017425Y0048023D01*
X0017281Y0047984D01*
X0017136Y0047950D01*
X0016991Y0047919D01*
X0016844Y0047893D01*
X0016697Y0047870D01*
X0016549Y0047851D01*
X0016401Y0047836D01*
X0016253Y0047825D01*
X0016104Y0047818D01*
X0015955Y0047815D01*
X0015806Y0047816D01*
X0015658Y0047821D01*
X0015509Y0047830D01*
X0015361Y0047843D01*
X0015213Y0047860D01*
X0015065Y0047881D01*
X0014919Y0047905D01*
X0014772Y0047934D01*
X0014627Y0047967D01*
X0014483Y0048003D01*
X0014340Y0048043D01*
X0014197Y0048088D01*
X0014056Y0048135D01*
X0013917Y0048187D01*
X0013779Y0048242D01*
X0013642Y0048301D01*
X0013507Y0048364D01*
X0013374Y0048430D01*
X0013242Y0048500D01*
X0013113Y0048573D01*
X0012985Y0048650D01*
X0012859Y0048730D01*
X0012736Y0048814D01*
X0012615Y0048900D01*
X0012497Y0048990D01*
X0012380Y0049083D01*
X0012267Y0049179D01*
X0012156Y0049279D01*
X0012047Y0049381D01*
X0011942Y0049486D01*
X0011839Y0049593D01*
X0011739Y0049704D01*
X0011642Y0049817D01*
X0011548Y0049932D01*
X0011458Y0050050D01*
X0011370Y0050171D01*
X0011286Y0050293D01*
X0011205Y0050418D01*
X0011127Y0050545D01*
X0011053Y0050675D01*
X0010982Y0050806D01*
X0010915Y0050938D01*
X0010852Y0051073D01*
X0010792Y0051209D01*
X0010736Y0051347D01*
X0010683Y0051486D01*
X0010634Y0051627D01*
X0010589Y0051769D01*
X0010548Y0051912D01*
X0010510Y0052056D01*
X0010477Y0052201D01*
X0010447Y0052347D01*
X0010421Y0052494D01*
X0010400Y0052641D01*
X0010382Y0052789D01*
X0010368Y0052937D01*
X0010358Y0053085D01*
X0010352Y0053234D01*
X0010350Y0053383D01*
X0028763Y0092403D02*
X0028765Y0092552D01*
X0028771Y0092701D01*
X0028781Y0092849D01*
X0028795Y0092997D01*
X0028813Y0093145D01*
X0028834Y0093292D01*
X0028860Y0093439D01*
X0028890Y0093585D01*
X0028923Y0093730D01*
X0028961Y0093874D01*
X0029002Y0094017D01*
X0029047Y0094159D01*
X0029096Y0094300D01*
X0029149Y0094439D01*
X0029205Y0094577D01*
X0029265Y0094713D01*
X0029328Y0094848D01*
X0029395Y0094980D01*
X0029466Y0095111D01*
X0029540Y0095241D01*
X0029618Y0095368D01*
X0029699Y0095493D01*
X0029783Y0095615D01*
X0029871Y0095736D01*
X0029961Y0095854D01*
X0030055Y0095969D01*
X0030152Y0096082D01*
X0030252Y0096193D01*
X0030355Y0096300D01*
X0030460Y0096405D01*
X0030569Y0096507D01*
X0030680Y0096607D01*
X0030793Y0096703D01*
X0030910Y0096796D01*
X0031028Y0096886D01*
X0031149Y0096972D01*
X0031272Y0097056D01*
X0031398Y0097136D01*
X0031526Y0097213D01*
X0031655Y0097286D01*
X0031787Y0097356D01*
X0031920Y0097422D01*
X0032055Y0097485D01*
X0032192Y0097544D01*
X0032330Y0097599D01*
X0032469Y0097651D01*
X0032610Y0097698D01*
X0032753Y0097743D01*
X0032896Y0097783D01*
X0033040Y0097819D01*
X0033185Y0097852D01*
X0033332Y0097881D01*
X0033478Y0097905D01*
X0033626Y0097926D01*
X0033774Y0097943D01*
X0033922Y0097956D01*
X0034071Y0097965D01*
X0034219Y0097970D01*
X0034368Y0097971D01*
X0034517Y0097968D01*
X0034666Y0097961D01*
X0034814Y0097950D01*
X0034962Y0097935D01*
X0035110Y0097916D01*
X0035257Y0097893D01*
X0035404Y0097867D01*
X0035549Y0097836D01*
X0035694Y0097802D01*
X0035838Y0097763D01*
X0035981Y0097721D01*
X0036122Y0097675D01*
X0036263Y0097625D01*
X0036401Y0097572D01*
X0036539Y0097515D01*
X0036675Y0097454D01*
X0036809Y0097389D01*
X0036941Y0097321D01*
X0037072Y0097250D01*
X0037201Y0097175D01*
X0037327Y0097096D01*
X0037451Y0097014D01*
X0037574Y0096929D01*
X0037693Y0096841D01*
X0037811Y0096750D01*
X0037926Y0096655D01*
X0038038Y0096557D01*
X0038148Y0096457D01*
X0038255Y0096353D01*
X0038359Y0096247D01*
X0038461Y0096138D01*
X0038559Y0096026D01*
X0038654Y0095912D01*
X0038747Y0095795D01*
X0038836Y0095676D01*
X0038921Y0095554D01*
X0039004Y0095430D01*
X0039083Y0095304D01*
X0039159Y0095176D01*
X0039232Y0095046D01*
X0039301Y0094914D01*
X0039366Y0094780D01*
X0039428Y0094645D01*
X0039486Y0094508D01*
X0039540Y0094369D01*
X0039591Y0094229D01*
X0039638Y0094088D01*
X0039681Y0093946D01*
X0039720Y0093802D01*
X0039756Y0093658D01*
X0039787Y0093512D01*
X0039815Y0093366D01*
X0039839Y0093219D01*
X0039859Y0093071D01*
X0039875Y0092923D01*
X0039887Y0092775D01*
X0039895Y0092626D01*
X0039899Y0092477D01*
X0039899Y0092329D01*
X0039895Y0092180D01*
X0039887Y0092031D01*
X0039875Y0091883D01*
X0039859Y0091735D01*
X0039839Y0091587D01*
X0039815Y0091440D01*
X0039787Y0091294D01*
X0039756Y0091148D01*
X0039720Y0091004D01*
X0039681Y0090860D01*
X0039638Y0090718D01*
X0039591Y0090577D01*
X0039540Y0090437D01*
X0039486Y0090298D01*
X0039428Y0090161D01*
X0039366Y0090026D01*
X0039301Y0089892D01*
X0039232Y0089760D01*
X0039159Y0089630D01*
X0039083Y0089502D01*
X0039004Y0089376D01*
X0038921Y0089252D01*
X0038836Y0089130D01*
X0038747Y0089011D01*
X0038654Y0088894D01*
X0038559Y0088780D01*
X0038461Y0088668D01*
X0038359Y0088559D01*
X0038255Y0088453D01*
X0038148Y0088349D01*
X0038038Y0088249D01*
X0037926Y0088151D01*
X0037811Y0088056D01*
X0037693Y0087965D01*
X0037574Y0087877D01*
X0037451Y0087792D01*
X0037327Y0087710D01*
X0037201Y0087631D01*
X0037072Y0087556D01*
X0036941Y0087485D01*
X0036809Y0087417D01*
X0036675Y0087352D01*
X0036539Y0087291D01*
X0036401Y0087234D01*
X0036263Y0087181D01*
X0036122Y0087131D01*
X0035981Y0087085D01*
X0035838Y0087043D01*
X0035694Y0087004D01*
X0035549Y0086970D01*
X0035404Y0086939D01*
X0035257Y0086913D01*
X0035110Y0086890D01*
X0034962Y0086871D01*
X0034814Y0086856D01*
X0034666Y0086845D01*
X0034517Y0086838D01*
X0034368Y0086835D01*
X0034219Y0086836D01*
X0034071Y0086841D01*
X0033922Y0086850D01*
X0033774Y0086863D01*
X0033626Y0086880D01*
X0033478Y0086901D01*
X0033332Y0086925D01*
X0033185Y0086954D01*
X0033040Y0086987D01*
X0032896Y0087023D01*
X0032753Y0087063D01*
X0032610Y0087108D01*
X0032469Y0087155D01*
X0032330Y0087207D01*
X0032192Y0087262D01*
X0032055Y0087321D01*
X0031920Y0087384D01*
X0031787Y0087450D01*
X0031655Y0087520D01*
X0031526Y0087593D01*
X0031398Y0087670D01*
X0031272Y0087750D01*
X0031149Y0087834D01*
X0031028Y0087920D01*
X0030910Y0088010D01*
X0030793Y0088103D01*
X0030680Y0088199D01*
X0030569Y0088299D01*
X0030460Y0088401D01*
X0030355Y0088506D01*
X0030252Y0088613D01*
X0030152Y0088724D01*
X0030055Y0088837D01*
X0029961Y0088952D01*
X0029871Y0089070D01*
X0029783Y0089191D01*
X0029699Y0089313D01*
X0029618Y0089438D01*
X0029540Y0089565D01*
X0029466Y0089695D01*
X0029395Y0089826D01*
X0029328Y0089958D01*
X0029265Y0090093D01*
X0029205Y0090229D01*
X0029149Y0090367D01*
X0029096Y0090506D01*
X0029047Y0090647D01*
X0029002Y0090789D01*
X0028961Y0090932D01*
X0028923Y0091076D01*
X0028890Y0091221D01*
X0028860Y0091367D01*
X0028834Y0091514D01*
X0028813Y0091661D01*
X0028795Y0091809D01*
X0028781Y0091957D01*
X0028771Y0092105D01*
X0028765Y0092254D01*
X0028763Y0092403D01*
X0070196Y0120043D02*
X0070198Y0120192D01*
X0070204Y0120341D01*
X0070214Y0120489D01*
X0070228Y0120637D01*
X0070246Y0120785D01*
X0070267Y0120932D01*
X0070293Y0121079D01*
X0070323Y0121225D01*
X0070356Y0121370D01*
X0070394Y0121514D01*
X0070435Y0121657D01*
X0070480Y0121799D01*
X0070529Y0121940D01*
X0070582Y0122079D01*
X0070638Y0122217D01*
X0070698Y0122353D01*
X0070761Y0122488D01*
X0070828Y0122620D01*
X0070899Y0122751D01*
X0070973Y0122881D01*
X0071051Y0123008D01*
X0071132Y0123133D01*
X0071216Y0123255D01*
X0071304Y0123376D01*
X0071394Y0123494D01*
X0071488Y0123609D01*
X0071585Y0123722D01*
X0071685Y0123833D01*
X0071788Y0123940D01*
X0071893Y0124045D01*
X0072002Y0124147D01*
X0072113Y0124247D01*
X0072226Y0124343D01*
X0072343Y0124436D01*
X0072461Y0124526D01*
X0072582Y0124612D01*
X0072705Y0124696D01*
X0072831Y0124776D01*
X0072959Y0124853D01*
X0073088Y0124926D01*
X0073220Y0124996D01*
X0073353Y0125062D01*
X0073488Y0125125D01*
X0073625Y0125184D01*
X0073763Y0125239D01*
X0073902Y0125291D01*
X0074043Y0125338D01*
X0074186Y0125383D01*
X0074329Y0125423D01*
X0074473Y0125459D01*
X0074618Y0125492D01*
X0074765Y0125521D01*
X0074911Y0125545D01*
X0075059Y0125566D01*
X0075207Y0125583D01*
X0075355Y0125596D01*
X0075504Y0125605D01*
X0075652Y0125610D01*
X0075801Y0125611D01*
X0075950Y0125608D01*
X0076099Y0125601D01*
X0076247Y0125590D01*
X0076395Y0125575D01*
X0076543Y0125556D01*
X0076690Y0125533D01*
X0076837Y0125507D01*
X0076982Y0125476D01*
X0077127Y0125442D01*
X0077271Y0125403D01*
X0077414Y0125361D01*
X0077555Y0125315D01*
X0077696Y0125265D01*
X0077834Y0125212D01*
X0077972Y0125155D01*
X0078108Y0125094D01*
X0078242Y0125029D01*
X0078374Y0124961D01*
X0078505Y0124890D01*
X0078634Y0124815D01*
X0078760Y0124736D01*
X0078884Y0124654D01*
X0079007Y0124569D01*
X0079126Y0124481D01*
X0079244Y0124390D01*
X0079359Y0124295D01*
X0079471Y0124197D01*
X0079581Y0124097D01*
X0079688Y0123993D01*
X0079792Y0123887D01*
X0079894Y0123778D01*
X0079992Y0123666D01*
X0080087Y0123552D01*
X0080180Y0123435D01*
X0080269Y0123316D01*
X0080354Y0123194D01*
X0080437Y0123070D01*
X0080516Y0122944D01*
X0080592Y0122816D01*
X0080665Y0122686D01*
X0080734Y0122554D01*
X0080799Y0122420D01*
X0080861Y0122285D01*
X0080919Y0122148D01*
X0080973Y0122009D01*
X0081024Y0121869D01*
X0081071Y0121728D01*
X0081114Y0121586D01*
X0081153Y0121442D01*
X0081189Y0121298D01*
X0081220Y0121152D01*
X0081248Y0121006D01*
X0081272Y0120859D01*
X0081292Y0120711D01*
X0081308Y0120563D01*
X0081320Y0120415D01*
X0081328Y0120266D01*
X0081332Y0120117D01*
X0081332Y0119969D01*
X0081328Y0119820D01*
X0081320Y0119671D01*
X0081308Y0119523D01*
X0081292Y0119375D01*
X0081272Y0119227D01*
X0081248Y0119080D01*
X0081220Y0118934D01*
X0081189Y0118788D01*
X0081153Y0118644D01*
X0081114Y0118500D01*
X0081071Y0118358D01*
X0081024Y0118217D01*
X0080973Y0118077D01*
X0080919Y0117938D01*
X0080861Y0117801D01*
X0080799Y0117666D01*
X0080734Y0117532D01*
X0080665Y0117400D01*
X0080592Y0117270D01*
X0080516Y0117142D01*
X0080437Y0117016D01*
X0080354Y0116892D01*
X0080269Y0116770D01*
X0080180Y0116651D01*
X0080087Y0116534D01*
X0079992Y0116420D01*
X0079894Y0116308D01*
X0079792Y0116199D01*
X0079688Y0116093D01*
X0079581Y0115989D01*
X0079471Y0115889D01*
X0079359Y0115791D01*
X0079244Y0115696D01*
X0079126Y0115605D01*
X0079007Y0115517D01*
X0078884Y0115432D01*
X0078760Y0115350D01*
X0078634Y0115271D01*
X0078505Y0115196D01*
X0078374Y0115125D01*
X0078242Y0115057D01*
X0078108Y0114992D01*
X0077972Y0114931D01*
X0077834Y0114874D01*
X0077696Y0114821D01*
X0077555Y0114771D01*
X0077414Y0114725D01*
X0077271Y0114683D01*
X0077127Y0114644D01*
X0076982Y0114610D01*
X0076837Y0114579D01*
X0076690Y0114553D01*
X0076543Y0114530D01*
X0076395Y0114511D01*
X0076247Y0114496D01*
X0076099Y0114485D01*
X0075950Y0114478D01*
X0075801Y0114475D01*
X0075652Y0114476D01*
X0075504Y0114481D01*
X0075355Y0114490D01*
X0075207Y0114503D01*
X0075059Y0114520D01*
X0074911Y0114541D01*
X0074765Y0114565D01*
X0074618Y0114594D01*
X0074473Y0114627D01*
X0074329Y0114663D01*
X0074186Y0114703D01*
X0074043Y0114748D01*
X0073902Y0114795D01*
X0073763Y0114847D01*
X0073625Y0114902D01*
X0073488Y0114961D01*
X0073353Y0115024D01*
X0073220Y0115090D01*
X0073088Y0115160D01*
X0072959Y0115233D01*
X0072831Y0115310D01*
X0072705Y0115390D01*
X0072582Y0115474D01*
X0072461Y0115560D01*
X0072343Y0115650D01*
X0072226Y0115743D01*
X0072113Y0115839D01*
X0072002Y0115939D01*
X0071893Y0116041D01*
X0071788Y0116146D01*
X0071685Y0116253D01*
X0071585Y0116364D01*
X0071488Y0116477D01*
X0071394Y0116592D01*
X0071304Y0116710D01*
X0071216Y0116831D01*
X0071132Y0116953D01*
X0071051Y0117078D01*
X0070973Y0117205D01*
X0070899Y0117335D01*
X0070828Y0117466D01*
X0070761Y0117598D01*
X0070698Y0117733D01*
X0070638Y0117869D01*
X0070582Y0118007D01*
X0070529Y0118146D01*
X0070480Y0118287D01*
X0070435Y0118429D01*
X0070394Y0118572D01*
X0070356Y0118716D01*
X0070323Y0118861D01*
X0070293Y0119007D01*
X0070267Y0119154D01*
X0070246Y0119301D01*
X0070228Y0119449D01*
X0070214Y0119597D01*
X0070204Y0119745D01*
X0070198Y0119894D01*
X0070196Y0120043D01*
X0121338Y0120033D02*
X0121340Y0120182D01*
X0121346Y0120331D01*
X0121356Y0120479D01*
X0121370Y0120627D01*
X0121388Y0120775D01*
X0121409Y0120922D01*
X0121435Y0121069D01*
X0121465Y0121215D01*
X0121498Y0121360D01*
X0121536Y0121504D01*
X0121577Y0121647D01*
X0121622Y0121789D01*
X0121671Y0121930D01*
X0121724Y0122069D01*
X0121780Y0122207D01*
X0121840Y0122343D01*
X0121903Y0122478D01*
X0121970Y0122610D01*
X0122041Y0122741D01*
X0122115Y0122871D01*
X0122193Y0122998D01*
X0122274Y0123123D01*
X0122358Y0123245D01*
X0122446Y0123366D01*
X0122536Y0123484D01*
X0122630Y0123599D01*
X0122727Y0123712D01*
X0122827Y0123823D01*
X0122930Y0123930D01*
X0123035Y0124035D01*
X0123144Y0124137D01*
X0123255Y0124237D01*
X0123368Y0124333D01*
X0123485Y0124426D01*
X0123603Y0124516D01*
X0123724Y0124602D01*
X0123847Y0124686D01*
X0123973Y0124766D01*
X0124101Y0124843D01*
X0124230Y0124916D01*
X0124362Y0124986D01*
X0124495Y0125052D01*
X0124630Y0125115D01*
X0124767Y0125174D01*
X0124905Y0125229D01*
X0125044Y0125281D01*
X0125185Y0125328D01*
X0125328Y0125373D01*
X0125471Y0125413D01*
X0125615Y0125449D01*
X0125760Y0125482D01*
X0125907Y0125511D01*
X0126053Y0125535D01*
X0126201Y0125556D01*
X0126349Y0125573D01*
X0126497Y0125586D01*
X0126646Y0125595D01*
X0126794Y0125600D01*
X0126943Y0125601D01*
X0127092Y0125598D01*
X0127241Y0125591D01*
X0127389Y0125580D01*
X0127537Y0125565D01*
X0127685Y0125546D01*
X0127832Y0125523D01*
X0127979Y0125497D01*
X0128124Y0125466D01*
X0128269Y0125432D01*
X0128413Y0125393D01*
X0128556Y0125351D01*
X0128697Y0125305D01*
X0128838Y0125255D01*
X0128976Y0125202D01*
X0129114Y0125145D01*
X0129250Y0125084D01*
X0129384Y0125019D01*
X0129516Y0124951D01*
X0129647Y0124880D01*
X0129776Y0124805D01*
X0129902Y0124726D01*
X0130026Y0124644D01*
X0130149Y0124559D01*
X0130268Y0124471D01*
X0130386Y0124380D01*
X0130501Y0124285D01*
X0130613Y0124187D01*
X0130723Y0124087D01*
X0130830Y0123983D01*
X0130934Y0123877D01*
X0131036Y0123768D01*
X0131134Y0123656D01*
X0131229Y0123542D01*
X0131322Y0123425D01*
X0131411Y0123306D01*
X0131496Y0123184D01*
X0131579Y0123060D01*
X0131658Y0122934D01*
X0131734Y0122806D01*
X0131807Y0122676D01*
X0131876Y0122544D01*
X0131941Y0122410D01*
X0132003Y0122275D01*
X0132061Y0122138D01*
X0132115Y0121999D01*
X0132166Y0121859D01*
X0132213Y0121718D01*
X0132256Y0121576D01*
X0132295Y0121432D01*
X0132331Y0121288D01*
X0132362Y0121142D01*
X0132390Y0120996D01*
X0132414Y0120849D01*
X0132434Y0120701D01*
X0132450Y0120553D01*
X0132462Y0120405D01*
X0132470Y0120256D01*
X0132474Y0120107D01*
X0132474Y0119959D01*
X0132470Y0119810D01*
X0132462Y0119661D01*
X0132450Y0119513D01*
X0132434Y0119365D01*
X0132414Y0119217D01*
X0132390Y0119070D01*
X0132362Y0118924D01*
X0132331Y0118778D01*
X0132295Y0118634D01*
X0132256Y0118490D01*
X0132213Y0118348D01*
X0132166Y0118207D01*
X0132115Y0118067D01*
X0132061Y0117928D01*
X0132003Y0117791D01*
X0131941Y0117656D01*
X0131876Y0117522D01*
X0131807Y0117390D01*
X0131734Y0117260D01*
X0131658Y0117132D01*
X0131579Y0117006D01*
X0131496Y0116882D01*
X0131411Y0116760D01*
X0131322Y0116641D01*
X0131229Y0116524D01*
X0131134Y0116410D01*
X0131036Y0116298D01*
X0130934Y0116189D01*
X0130830Y0116083D01*
X0130723Y0115979D01*
X0130613Y0115879D01*
X0130501Y0115781D01*
X0130386Y0115686D01*
X0130268Y0115595D01*
X0130149Y0115507D01*
X0130026Y0115422D01*
X0129902Y0115340D01*
X0129776Y0115261D01*
X0129647Y0115186D01*
X0129516Y0115115D01*
X0129384Y0115047D01*
X0129250Y0114982D01*
X0129114Y0114921D01*
X0128976Y0114864D01*
X0128838Y0114811D01*
X0128697Y0114761D01*
X0128556Y0114715D01*
X0128413Y0114673D01*
X0128269Y0114634D01*
X0128124Y0114600D01*
X0127979Y0114569D01*
X0127832Y0114543D01*
X0127685Y0114520D01*
X0127537Y0114501D01*
X0127389Y0114486D01*
X0127241Y0114475D01*
X0127092Y0114468D01*
X0126943Y0114465D01*
X0126794Y0114466D01*
X0126646Y0114471D01*
X0126497Y0114480D01*
X0126349Y0114493D01*
X0126201Y0114510D01*
X0126053Y0114531D01*
X0125907Y0114555D01*
X0125760Y0114584D01*
X0125615Y0114617D01*
X0125471Y0114653D01*
X0125328Y0114693D01*
X0125185Y0114738D01*
X0125044Y0114785D01*
X0124905Y0114837D01*
X0124767Y0114892D01*
X0124630Y0114951D01*
X0124495Y0115014D01*
X0124362Y0115080D01*
X0124230Y0115150D01*
X0124101Y0115223D01*
X0123973Y0115300D01*
X0123847Y0115380D01*
X0123724Y0115464D01*
X0123603Y0115550D01*
X0123485Y0115640D01*
X0123368Y0115733D01*
X0123255Y0115829D01*
X0123144Y0115929D01*
X0123035Y0116031D01*
X0122930Y0116136D01*
X0122827Y0116243D01*
X0122727Y0116354D01*
X0122630Y0116467D01*
X0122536Y0116582D01*
X0122446Y0116700D01*
X0122358Y0116821D01*
X0122274Y0116943D01*
X0122193Y0117068D01*
X0122115Y0117195D01*
X0122041Y0117325D01*
X0121970Y0117456D01*
X0121903Y0117588D01*
X0121840Y0117723D01*
X0121780Y0117859D01*
X0121724Y0117997D01*
X0121671Y0118136D01*
X0121622Y0118277D01*
X0121577Y0118419D01*
X0121536Y0118562D01*
X0121498Y0118706D01*
X0121465Y0118851D01*
X0121435Y0118997D01*
X0121409Y0119144D01*
X0121388Y0119291D01*
X0121370Y0119439D01*
X0121356Y0119587D01*
X0121346Y0119735D01*
X0121340Y0119884D01*
X0121338Y0120033D01*
X0162608Y0092420D02*
X0162610Y0092569D01*
X0162616Y0092718D01*
X0162626Y0092866D01*
X0162640Y0093014D01*
X0162658Y0093162D01*
X0162679Y0093309D01*
X0162705Y0093456D01*
X0162735Y0093602D01*
X0162768Y0093747D01*
X0162806Y0093891D01*
X0162847Y0094034D01*
X0162892Y0094176D01*
X0162941Y0094317D01*
X0162994Y0094456D01*
X0163050Y0094594D01*
X0163110Y0094730D01*
X0163173Y0094865D01*
X0163240Y0094997D01*
X0163311Y0095128D01*
X0163385Y0095258D01*
X0163463Y0095385D01*
X0163544Y0095510D01*
X0163628Y0095632D01*
X0163716Y0095753D01*
X0163806Y0095871D01*
X0163900Y0095986D01*
X0163997Y0096099D01*
X0164097Y0096210D01*
X0164200Y0096317D01*
X0164305Y0096422D01*
X0164414Y0096524D01*
X0164525Y0096624D01*
X0164638Y0096720D01*
X0164755Y0096813D01*
X0164873Y0096903D01*
X0164994Y0096989D01*
X0165117Y0097073D01*
X0165243Y0097153D01*
X0165371Y0097230D01*
X0165500Y0097303D01*
X0165632Y0097373D01*
X0165765Y0097439D01*
X0165900Y0097502D01*
X0166037Y0097561D01*
X0166175Y0097616D01*
X0166314Y0097668D01*
X0166455Y0097715D01*
X0166598Y0097760D01*
X0166741Y0097800D01*
X0166885Y0097836D01*
X0167030Y0097869D01*
X0167177Y0097898D01*
X0167323Y0097922D01*
X0167471Y0097943D01*
X0167619Y0097960D01*
X0167767Y0097973D01*
X0167916Y0097982D01*
X0168064Y0097987D01*
X0168213Y0097988D01*
X0168362Y0097985D01*
X0168511Y0097978D01*
X0168659Y0097967D01*
X0168807Y0097952D01*
X0168955Y0097933D01*
X0169102Y0097910D01*
X0169249Y0097884D01*
X0169394Y0097853D01*
X0169539Y0097819D01*
X0169683Y0097780D01*
X0169826Y0097738D01*
X0169967Y0097692D01*
X0170108Y0097642D01*
X0170246Y0097589D01*
X0170384Y0097532D01*
X0170520Y0097471D01*
X0170654Y0097406D01*
X0170786Y0097338D01*
X0170917Y0097267D01*
X0171046Y0097192D01*
X0171172Y0097113D01*
X0171296Y0097031D01*
X0171419Y0096946D01*
X0171538Y0096858D01*
X0171656Y0096767D01*
X0171771Y0096672D01*
X0171883Y0096574D01*
X0171993Y0096474D01*
X0172100Y0096370D01*
X0172204Y0096264D01*
X0172306Y0096155D01*
X0172404Y0096043D01*
X0172499Y0095929D01*
X0172592Y0095812D01*
X0172681Y0095693D01*
X0172766Y0095571D01*
X0172849Y0095447D01*
X0172928Y0095321D01*
X0173004Y0095193D01*
X0173077Y0095063D01*
X0173146Y0094931D01*
X0173211Y0094797D01*
X0173273Y0094662D01*
X0173331Y0094525D01*
X0173385Y0094386D01*
X0173436Y0094246D01*
X0173483Y0094105D01*
X0173526Y0093963D01*
X0173565Y0093819D01*
X0173601Y0093675D01*
X0173632Y0093529D01*
X0173660Y0093383D01*
X0173684Y0093236D01*
X0173704Y0093088D01*
X0173720Y0092940D01*
X0173732Y0092792D01*
X0173740Y0092643D01*
X0173744Y0092494D01*
X0173744Y0092346D01*
X0173740Y0092197D01*
X0173732Y0092048D01*
X0173720Y0091900D01*
X0173704Y0091752D01*
X0173684Y0091604D01*
X0173660Y0091457D01*
X0173632Y0091311D01*
X0173601Y0091165D01*
X0173565Y0091021D01*
X0173526Y0090877D01*
X0173483Y0090735D01*
X0173436Y0090594D01*
X0173385Y0090454D01*
X0173331Y0090315D01*
X0173273Y0090178D01*
X0173211Y0090043D01*
X0173146Y0089909D01*
X0173077Y0089777D01*
X0173004Y0089647D01*
X0172928Y0089519D01*
X0172849Y0089393D01*
X0172766Y0089269D01*
X0172681Y0089147D01*
X0172592Y0089028D01*
X0172499Y0088911D01*
X0172404Y0088797D01*
X0172306Y0088685D01*
X0172204Y0088576D01*
X0172100Y0088470D01*
X0171993Y0088366D01*
X0171883Y0088266D01*
X0171771Y0088168D01*
X0171656Y0088073D01*
X0171538Y0087982D01*
X0171419Y0087894D01*
X0171296Y0087809D01*
X0171172Y0087727D01*
X0171046Y0087648D01*
X0170917Y0087573D01*
X0170786Y0087502D01*
X0170654Y0087434D01*
X0170520Y0087369D01*
X0170384Y0087308D01*
X0170246Y0087251D01*
X0170108Y0087198D01*
X0169967Y0087148D01*
X0169826Y0087102D01*
X0169683Y0087060D01*
X0169539Y0087021D01*
X0169394Y0086987D01*
X0169249Y0086956D01*
X0169102Y0086930D01*
X0168955Y0086907D01*
X0168807Y0086888D01*
X0168659Y0086873D01*
X0168511Y0086862D01*
X0168362Y0086855D01*
X0168213Y0086852D01*
X0168064Y0086853D01*
X0167916Y0086858D01*
X0167767Y0086867D01*
X0167619Y0086880D01*
X0167471Y0086897D01*
X0167323Y0086918D01*
X0167177Y0086942D01*
X0167030Y0086971D01*
X0166885Y0087004D01*
X0166741Y0087040D01*
X0166598Y0087080D01*
X0166455Y0087125D01*
X0166314Y0087172D01*
X0166175Y0087224D01*
X0166037Y0087279D01*
X0165900Y0087338D01*
X0165765Y0087401D01*
X0165632Y0087467D01*
X0165500Y0087537D01*
X0165371Y0087610D01*
X0165243Y0087687D01*
X0165117Y0087767D01*
X0164994Y0087851D01*
X0164873Y0087937D01*
X0164755Y0088027D01*
X0164638Y0088120D01*
X0164525Y0088216D01*
X0164414Y0088316D01*
X0164305Y0088418D01*
X0164200Y0088523D01*
X0164097Y0088630D01*
X0163997Y0088741D01*
X0163900Y0088854D01*
X0163806Y0088969D01*
X0163716Y0089087D01*
X0163628Y0089208D01*
X0163544Y0089330D01*
X0163463Y0089455D01*
X0163385Y0089582D01*
X0163311Y0089712D01*
X0163240Y0089843D01*
X0163173Y0089975D01*
X0163110Y0090110D01*
X0163050Y0090246D01*
X0162994Y0090384D01*
X0162941Y0090523D01*
X0162892Y0090664D01*
X0162847Y0090806D01*
X0162806Y0090949D01*
X0162768Y0091093D01*
X0162735Y0091238D01*
X0162705Y0091384D01*
X0162679Y0091531D01*
X0162658Y0091678D01*
X0162640Y0091826D01*
X0162626Y0091974D01*
X0162616Y0092122D01*
X0162610Y0092271D01*
X0162608Y0092420D01*
X0181108Y0053354D02*
X0181110Y0053503D01*
X0181116Y0053652D01*
X0181126Y0053800D01*
X0181140Y0053948D01*
X0181158Y0054096D01*
X0181179Y0054243D01*
X0181205Y0054390D01*
X0181235Y0054536D01*
X0181268Y0054681D01*
X0181306Y0054825D01*
X0181347Y0054968D01*
X0181392Y0055110D01*
X0181441Y0055251D01*
X0181494Y0055390D01*
X0181550Y0055528D01*
X0181610Y0055664D01*
X0181673Y0055799D01*
X0181740Y0055931D01*
X0181811Y0056062D01*
X0181885Y0056192D01*
X0181963Y0056319D01*
X0182044Y0056444D01*
X0182128Y0056566D01*
X0182216Y0056687D01*
X0182306Y0056805D01*
X0182400Y0056920D01*
X0182497Y0057033D01*
X0182597Y0057144D01*
X0182700Y0057251D01*
X0182805Y0057356D01*
X0182914Y0057458D01*
X0183025Y0057558D01*
X0183138Y0057654D01*
X0183255Y0057747D01*
X0183373Y0057837D01*
X0183494Y0057923D01*
X0183617Y0058007D01*
X0183743Y0058087D01*
X0183871Y0058164D01*
X0184000Y0058237D01*
X0184132Y0058307D01*
X0184265Y0058373D01*
X0184400Y0058436D01*
X0184537Y0058495D01*
X0184675Y0058550D01*
X0184814Y0058602D01*
X0184955Y0058649D01*
X0185098Y0058694D01*
X0185241Y0058734D01*
X0185385Y0058770D01*
X0185530Y0058803D01*
X0185677Y0058832D01*
X0185823Y0058856D01*
X0185971Y0058877D01*
X0186119Y0058894D01*
X0186267Y0058907D01*
X0186416Y0058916D01*
X0186564Y0058921D01*
X0186713Y0058922D01*
X0186862Y0058919D01*
X0187011Y0058912D01*
X0187159Y0058901D01*
X0187307Y0058886D01*
X0187455Y0058867D01*
X0187602Y0058844D01*
X0187749Y0058818D01*
X0187894Y0058787D01*
X0188039Y0058753D01*
X0188183Y0058714D01*
X0188326Y0058672D01*
X0188467Y0058626D01*
X0188608Y0058576D01*
X0188746Y0058523D01*
X0188884Y0058466D01*
X0189020Y0058405D01*
X0189154Y0058340D01*
X0189286Y0058272D01*
X0189417Y0058201D01*
X0189546Y0058126D01*
X0189672Y0058047D01*
X0189796Y0057965D01*
X0189919Y0057880D01*
X0190038Y0057792D01*
X0190156Y0057701D01*
X0190271Y0057606D01*
X0190383Y0057508D01*
X0190493Y0057408D01*
X0190600Y0057304D01*
X0190704Y0057198D01*
X0190806Y0057089D01*
X0190904Y0056977D01*
X0190999Y0056863D01*
X0191092Y0056746D01*
X0191181Y0056627D01*
X0191266Y0056505D01*
X0191349Y0056381D01*
X0191428Y0056255D01*
X0191504Y0056127D01*
X0191577Y0055997D01*
X0191646Y0055865D01*
X0191711Y0055731D01*
X0191773Y0055596D01*
X0191831Y0055459D01*
X0191885Y0055320D01*
X0191936Y0055180D01*
X0191983Y0055039D01*
X0192026Y0054897D01*
X0192065Y0054753D01*
X0192101Y0054609D01*
X0192132Y0054463D01*
X0192160Y0054317D01*
X0192184Y0054170D01*
X0192204Y0054022D01*
X0192220Y0053874D01*
X0192232Y0053726D01*
X0192240Y0053577D01*
X0192244Y0053428D01*
X0192244Y0053280D01*
X0192240Y0053131D01*
X0192232Y0052982D01*
X0192220Y0052834D01*
X0192204Y0052686D01*
X0192184Y0052538D01*
X0192160Y0052391D01*
X0192132Y0052245D01*
X0192101Y0052099D01*
X0192065Y0051955D01*
X0192026Y0051811D01*
X0191983Y0051669D01*
X0191936Y0051528D01*
X0191885Y0051388D01*
X0191831Y0051249D01*
X0191773Y0051112D01*
X0191711Y0050977D01*
X0191646Y0050843D01*
X0191577Y0050711D01*
X0191504Y0050581D01*
X0191428Y0050453D01*
X0191349Y0050327D01*
X0191266Y0050203D01*
X0191181Y0050081D01*
X0191092Y0049962D01*
X0190999Y0049845D01*
X0190904Y0049731D01*
X0190806Y0049619D01*
X0190704Y0049510D01*
X0190600Y0049404D01*
X0190493Y0049300D01*
X0190383Y0049200D01*
X0190271Y0049102D01*
X0190156Y0049007D01*
X0190038Y0048916D01*
X0189919Y0048828D01*
X0189796Y0048743D01*
X0189672Y0048661D01*
X0189546Y0048582D01*
X0189417Y0048507D01*
X0189286Y0048436D01*
X0189154Y0048368D01*
X0189020Y0048303D01*
X0188884Y0048242D01*
X0188746Y0048185D01*
X0188608Y0048132D01*
X0188467Y0048082D01*
X0188326Y0048036D01*
X0188183Y0047994D01*
X0188039Y0047955D01*
X0187894Y0047921D01*
X0187749Y0047890D01*
X0187602Y0047864D01*
X0187455Y0047841D01*
X0187307Y0047822D01*
X0187159Y0047807D01*
X0187011Y0047796D01*
X0186862Y0047789D01*
X0186713Y0047786D01*
X0186564Y0047787D01*
X0186416Y0047792D01*
X0186267Y0047801D01*
X0186119Y0047814D01*
X0185971Y0047831D01*
X0185823Y0047852D01*
X0185677Y0047876D01*
X0185530Y0047905D01*
X0185385Y0047938D01*
X0185241Y0047974D01*
X0185098Y0048014D01*
X0184955Y0048059D01*
X0184814Y0048106D01*
X0184675Y0048158D01*
X0184537Y0048213D01*
X0184400Y0048272D01*
X0184265Y0048335D01*
X0184132Y0048401D01*
X0184000Y0048471D01*
X0183871Y0048544D01*
X0183743Y0048621D01*
X0183617Y0048701D01*
X0183494Y0048785D01*
X0183373Y0048871D01*
X0183255Y0048961D01*
X0183138Y0049054D01*
X0183025Y0049150D01*
X0182914Y0049250D01*
X0182805Y0049352D01*
X0182700Y0049457D01*
X0182597Y0049564D01*
X0182497Y0049675D01*
X0182400Y0049788D01*
X0182306Y0049903D01*
X0182216Y0050021D01*
X0182128Y0050142D01*
X0182044Y0050264D01*
X0181963Y0050389D01*
X0181885Y0050516D01*
X0181811Y0050646D01*
X0181740Y0050777D01*
X0181673Y0050909D01*
X0181610Y0051044D01*
X0181550Y0051180D01*
X0181494Y0051318D01*
X0181441Y0051457D01*
X0181392Y0051598D01*
X0181347Y0051740D01*
X0181306Y0051883D01*
X0181268Y0052027D01*
X0181235Y0052172D01*
X0181205Y0052318D01*
X0181179Y0052465D01*
X0181158Y0052612D01*
X0181140Y0052760D01*
X0181126Y0052908D01*
X0181116Y0053056D01*
X0181110Y0053205D01*
X0181108Y0053354D01*
D12*
X0181841Y0053581D02*
X0187437Y0053581D01*
X0187531Y0054579D02*
X0182767Y0054579D01*
X0183693Y0055578D02*
X0187625Y0055578D01*
X0187719Y0056577D02*
X0184619Y0056577D01*
X0185545Y0057575D02*
X0187813Y0057575D01*
X0187907Y0058574D02*
X0186472Y0058574D01*
X0187398Y0059572D02*
X0188001Y0059572D01*
X0188069Y0060295D02*
X0186495Y0043569D01*
X0171800Y0043692D01*
X0173101Y0044981D01*
X0173290Y0045037D01*
X0174034Y0046407D01*
X0174223Y0046463D01*
X0174781Y0047490D01*
X0174691Y0047792D01*
X0175329Y0048966D01*
X0174714Y0051307D01*
X0174822Y0051649D01*
X0176634Y0052186D01*
X0177270Y0051841D01*
X0177985Y0049425D01*
X0188069Y0060295D01*
X0184206Y0062108D02*
X0169730Y0058485D01*
X0183741Y0062709D01*
X0183864Y0062294D01*
X0184206Y0062108D01*
X0183783Y0062568D02*
X0183272Y0062568D01*
X0182054Y0061569D02*
X0179960Y0061569D01*
X0179462Y0059963D02*
X0176434Y0054385D01*
X0176881Y0052875D01*
X0174692Y0052227D01*
X0174745Y0052325D01*
X0173940Y0055043D01*
X0173206Y0055441D01*
X0172792Y0056838D01*
X0171618Y0057475D01*
X0171239Y0058061D01*
X0171348Y0057970D01*
X0179462Y0059963D01*
X0179250Y0059572D02*
X0177869Y0059572D01*
X0178063Y0060571D02*
X0176647Y0060571D01*
X0174073Y0059572D02*
X0173335Y0059572D01*
X0173804Y0058574D02*
X0178708Y0058574D01*
X0178166Y0057575D02*
X0171553Y0057575D01*
X0172869Y0056577D02*
X0177623Y0056577D01*
X0177081Y0055578D02*
X0173165Y0055578D01*
X0174077Y0054579D02*
X0176539Y0054579D01*
X0176672Y0053581D02*
X0174373Y0053581D01*
X0174668Y0052582D02*
X0175892Y0052582D01*
X0174801Y0051584D02*
X0177346Y0051584D01*
X0177641Y0050585D02*
X0174904Y0050585D01*
X0175166Y0049587D02*
X0177937Y0049587D01*
X0178136Y0049587D02*
X0187061Y0049587D01*
X0187155Y0050585D02*
X0179062Y0050585D01*
X0179988Y0051584D02*
X0187249Y0051584D01*
X0187343Y0052582D02*
X0180914Y0052582D01*
X0175124Y0048588D02*
X0186967Y0048588D01*
X0186873Y0047590D02*
X0174751Y0047590D01*
X0174293Y0046591D02*
X0186779Y0046591D01*
X0186685Y0045593D02*
X0173592Y0045593D01*
X0172711Y0044594D02*
X0186591Y0044594D01*
X0186497Y0043596D02*
X0183284Y0043596D01*
X0171837Y0043703D02*
X0171997Y0043853D01*
X0172153Y0044007D01*
X0172306Y0044165D01*
X0172455Y0044327D01*
X0172599Y0044492D01*
X0172740Y0044660D01*
X0172877Y0044832D01*
X0173009Y0045007D01*
X0173137Y0045186D01*
X0173261Y0045367D01*
X0173380Y0045551D01*
X0173495Y0045738D01*
X0173605Y0045928D01*
X0173710Y0046121D01*
X0173811Y0046316D01*
X0173907Y0046513D01*
X0173999Y0046713D01*
X0174085Y0046915D01*
X0174166Y0047119D01*
X0174243Y0047324D01*
X0174314Y0047532D01*
X0174381Y0047741D01*
X0174442Y0047952D01*
X0174498Y0048164D01*
X0174549Y0048378D01*
X0174595Y0048592D01*
X0174636Y0048808D01*
X0174671Y0049025D01*
X0174701Y0049242D01*
X0174726Y0049460D01*
X0174745Y0049679D01*
X0174760Y0049898D01*
X0174768Y0050117D01*
X0174772Y0050337D01*
X0174770Y0050556D01*
X0174763Y0050776D01*
X0174751Y0050995D01*
X0174733Y0051214D01*
X0174710Y0051432D01*
X0174681Y0051650D01*
X0174648Y0051867D01*
X0174609Y0052083D01*
X0174565Y0052298D01*
X0174516Y0052512D01*
X0174461Y0052724D01*
X0174401Y0052936D01*
X0174337Y0053145D01*
X0174267Y0053354D01*
X0174192Y0053560D01*
X0174112Y0053764D01*
X0174028Y0053967D01*
X0173938Y0054167D01*
X0173843Y0054365D01*
X0173744Y0054561D01*
X0173640Y0054755D01*
X0173532Y0054945D01*
X0173418Y0055133D01*
X0173301Y0055319D01*
X0173178Y0055501D01*
X0173052Y0055680D01*
X0172921Y0055857D01*
X0172786Y0056030D01*
X0172646Y0056199D01*
X0172503Y0056365D01*
X0172355Y0056528D01*
X0172204Y0056687D01*
X0172049Y0056842D01*
X0171890Y0056994D01*
X0171728Y0057142D01*
X0171562Y0057285D01*
X0171392Y0057425D01*
X0171220Y0057560D01*
X0171044Y0057692D01*
X0170864Y0057818D01*
X0170682Y0057941D01*
X0170497Y0058059D01*
X0170309Y0058173D01*
X0170119Y0058281D01*
X0169926Y0058386D01*
X0169730Y0058485D01*
X0170023Y0058574D02*
X0170082Y0058574D01*
X0160962Y0076214D02*
X0173354Y0084115D01*
X0165564Y0099000D01*
X0163028Y0084391D01*
X0161112Y0086028D01*
X0160390Y0085971D01*
X0159163Y0084534D01*
X0159259Y0084188D01*
X0161049Y0082560D01*
X0161154Y0081228D01*
X0161394Y0081024D01*
X0161486Y0079858D01*
X0161358Y0079708D01*
X0161480Y0078154D01*
X0161352Y0078004D01*
X0160962Y0076214D01*
X0161035Y0076547D02*
X0161484Y0076547D01*
X0161252Y0077545D02*
X0163050Y0077545D01*
X0164616Y0078544D02*
X0161449Y0078544D01*
X0161371Y0079542D02*
X0166182Y0079542D01*
X0167748Y0080541D02*
X0161432Y0080541D01*
X0161130Y0081539D02*
X0169314Y0081539D01*
X0170880Y0082538D02*
X0161051Y0082538D01*
X0159976Y0083536D02*
X0172446Y0083536D01*
X0173134Y0084535D02*
X0163053Y0084535D01*
X0162860Y0084535D02*
X0159163Y0084535D01*
X0158739Y0084948D02*
X0160222Y0086684D01*
X0159025Y0087707D01*
X0158527Y0094034D01*
X0152807Y0087943D01*
X0152666Y0087960D01*
X0153303Y0087675D01*
X0154635Y0087780D01*
X0155742Y0086834D01*
X0156575Y0086900D01*
X0158731Y0085059D01*
X0158739Y0084948D01*
X0159240Y0085533D02*
X0158175Y0085533D01*
X0157006Y0086532D02*
X0160092Y0086532D01*
X0160016Y0085533D02*
X0161691Y0085533D01*
X0163226Y0085533D02*
X0172612Y0085533D01*
X0172089Y0086532D02*
X0163399Y0086532D01*
X0163573Y0087530D02*
X0171566Y0087530D01*
X0171044Y0088529D02*
X0163746Y0088529D01*
X0163919Y0089527D02*
X0170521Y0089527D01*
X0169999Y0090526D02*
X0164093Y0090526D01*
X0164266Y0091524D02*
X0169476Y0091524D01*
X0168954Y0092523D02*
X0164439Y0092523D01*
X0164613Y0093521D02*
X0168431Y0093521D01*
X0167909Y0094520D02*
X0164786Y0094520D01*
X0164959Y0095518D02*
X0167386Y0095518D01*
X0166864Y0096517D02*
X0165133Y0096517D01*
X0165306Y0097515D02*
X0166341Y0097515D01*
X0165819Y0098514D02*
X0165480Y0098514D01*
X0161337Y0098416D02*
X0151170Y0087494D01*
X0160620Y0098667D01*
X0160949Y0098386D01*
X0161337Y0098416D01*
X0160799Y0098514D02*
X0160490Y0098514D01*
X0160499Y0097515D02*
X0159646Y0097515D01*
X0159569Y0096517D02*
X0158801Y0096517D01*
X0158640Y0095518D02*
X0157957Y0095518D01*
X0157710Y0094520D02*
X0157112Y0094520D01*
X0156781Y0093521D02*
X0156267Y0093521D01*
X0155851Y0092523D02*
X0155423Y0092523D01*
X0154921Y0091524D02*
X0154578Y0091524D01*
X0153992Y0090526D02*
X0153734Y0090526D01*
X0154294Y0089527D02*
X0158882Y0089527D01*
X0158960Y0088529D02*
X0153357Y0088529D01*
X0153062Y0089527D02*
X0152889Y0089527D01*
X0152133Y0088529D02*
X0152045Y0088529D01*
X0151203Y0087530D02*
X0151200Y0087530D01*
X0154927Y0087530D02*
X0159231Y0087530D01*
X0158803Y0090526D02*
X0155232Y0090526D01*
X0156170Y0091524D02*
X0158724Y0091524D01*
X0158646Y0092523D02*
X0157107Y0092523D01*
X0158045Y0093521D02*
X0158567Y0093521D01*
X0151170Y0087495D02*
X0151388Y0087518D01*
X0151607Y0087536D01*
X0151826Y0087548D01*
X0152045Y0087555D01*
X0152265Y0087557D01*
X0152484Y0087553D01*
X0152704Y0087545D01*
X0152923Y0087530D01*
X0153141Y0087511D01*
X0153359Y0087486D01*
X0153577Y0087456D01*
X0153794Y0087421D01*
X0154009Y0087380D01*
X0154224Y0087334D01*
X0154437Y0087283D01*
X0154650Y0087227D01*
X0154860Y0087166D01*
X0155070Y0087099D01*
X0155277Y0087028D01*
X0155483Y0086952D01*
X0155687Y0086870D01*
X0155889Y0086784D01*
X0156088Y0086692D01*
X0156286Y0086596D01*
X0156481Y0086496D01*
X0156673Y0086390D01*
X0156863Y0086280D01*
X0157050Y0086165D01*
X0157235Y0086046D01*
X0157416Y0085922D01*
X0157594Y0085794D01*
X0157770Y0085662D01*
X0157941Y0085525D01*
X0158110Y0085385D01*
X0158275Y0085240D01*
X0158437Y0085091D01*
X0158594Y0084939D01*
X0158749Y0084782D01*
X0158899Y0084622D01*
X0159045Y0084459D01*
X0159187Y0084292D01*
X0159326Y0084121D01*
X0159460Y0083947D01*
X0159590Y0083770D01*
X0159715Y0083590D01*
X0159836Y0083407D01*
X0159953Y0083221D01*
X0160065Y0083032D01*
X0160172Y0082841D01*
X0160275Y0082647D01*
X0160373Y0082450D01*
X0160466Y0082252D01*
X0160554Y0082051D01*
X0160638Y0081848D01*
X0160716Y0081643D01*
X0160790Y0081436D01*
X0160858Y0081227D01*
X0160922Y0081017D01*
X0160980Y0080805D01*
X0161033Y0080592D01*
X0161081Y0080378D01*
X0161124Y0080163D01*
X0161161Y0079946D01*
X0161193Y0079729D01*
X0161220Y0079511D01*
X0161242Y0079293D01*
X0161258Y0079074D01*
X0161269Y0078855D01*
X0161275Y0078635D01*
X0161276Y0078416D01*
X0161271Y0078196D01*
X0161260Y0077977D01*
X0161245Y0077758D01*
X0161224Y0077540D01*
X0161198Y0077322D01*
X0161166Y0077104D01*
X0161129Y0076888D01*
X0161087Y0076672D01*
X0161040Y0076458D01*
X0160988Y0076245D01*
X0129530Y0102490D02*
X0135735Y0115811D01*
X0121168Y0124180D01*
X0126878Y0110496D01*
X0133260Y0110496D01*
X0133725Y0111495D02*
X0126461Y0111495D01*
X0126875Y0110496D02*
X0123918Y0110496D01*
X0123805Y0110411D02*
X0123542Y0108539D01*
X0123809Y0108300D01*
X0126193Y0107888D01*
X0126998Y0106821D01*
X0127310Y0106777D01*
X0128013Y0105844D01*
X0127986Y0105649D01*
X0128924Y0104404D01*
X0128897Y0104209D01*
X0129530Y0102490D01*
X0129523Y0102508D02*
X0129538Y0102508D01*
X0129155Y0103507D02*
X0130003Y0103507D01*
X0130469Y0104505D02*
X0128848Y0104505D01*
X0128095Y0105504D02*
X0130934Y0105504D01*
X0131399Y0106502D02*
X0127517Y0106502D01*
X0126486Y0107501D02*
X0131864Y0107501D01*
X0132329Y0108499D02*
X0123587Y0108499D01*
X0122962Y0108661D02*
X0123280Y0110922D01*
X0121721Y0111141D01*
X0117901Y0116210D01*
X0116349Y0108000D01*
X0116221Y0107938D01*
X0116912Y0108040D01*
X0117979Y0108844D01*
X0119421Y0108641D01*
X0120088Y0109144D01*
X0122895Y0108750D01*
X0122962Y0108661D01*
X0123080Y0109498D02*
X0116632Y0109498D01*
X0115718Y0109498D02*
X0115584Y0109498D01*
X0115534Y0108499D02*
X0115448Y0108499D01*
X0116444Y0108499D02*
X0117521Y0108499D01*
X0116821Y0110496D02*
X0123220Y0110496D01*
X0123805Y0110411D02*
X0124383Y0110846D01*
X0126878Y0110496D01*
X0123676Y0109498D02*
X0132794Y0109498D01*
X0134190Y0112493D02*
X0126044Y0112493D01*
X0125628Y0113492D02*
X0134655Y0113492D01*
X0135120Y0114490D02*
X0125211Y0114490D01*
X0124794Y0115489D02*
X0135585Y0115489D01*
X0134558Y0116487D02*
X0124378Y0116487D01*
X0123961Y0117486D02*
X0132820Y0117486D01*
X0131082Y0118484D02*
X0123544Y0118484D01*
X0123128Y0119483D02*
X0129344Y0119483D01*
X0127605Y0120481D02*
X0122711Y0120481D01*
X0122294Y0121480D02*
X0125867Y0121480D01*
X0124129Y0122478D02*
X0121878Y0122478D01*
X0121461Y0123477D02*
X0122391Y0123477D01*
X0117917Y0121416D02*
X0115210Y0106741D01*
X0117177Y0121242D01*
X0117606Y0121182D01*
X0117917Y0121416D01*
X0117744Y0120481D02*
X0117074Y0120481D01*
X0116938Y0119483D02*
X0117560Y0119483D01*
X0117376Y0118484D02*
X0116803Y0118484D01*
X0116667Y0117486D02*
X0117192Y0117486D01*
X0117008Y0116487D02*
X0116532Y0116487D01*
X0116396Y0115489D02*
X0116823Y0115489D01*
X0117765Y0115489D02*
X0118445Y0115489D01*
X0119197Y0114490D02*
X0117576Y0114490D01*
X0116639Y0114490D02*
X0116261Y0114490D01*
X0116126Y0113492D02*
X0116455Y0113492D01*
X0117387Y0113492D02*
X0119949Y0113492D01*
X0120702Y0112493D02*
X0117198Y0112493D01*
X0116271Y0112493D02*
X0115990Y0112493D01*
X0116087Y0111495D02*
X0115855Y0111495D01*
X0115902Y0110496D02*
X0115719Y0110496D01*
X0117010Y0111495D02*
X0121454Y0111495D01*
X0115350Y0107501D02*
X0115313Y0107501D01*
X0115210Y0106584D02*
X0115381Y0106720D01*
X0115556Y0106851D01*
X0115734Y0106978D01*
X0115915Y0107100D01*
X0116099Y0107219D01*
X0116285Y0107332D01*
X0116475Y0107442D01*
X0116667Y0107546D01*
X0116861Y0107646D01*
X0117058Y0107741D01*
X0117257Y0107831D01*
X0117458Y0107917D01*
X0117662Y0107997D01*
X0117867Y0108073D01*
X0118074Y0108143D01*
X0118282Y0108209D01*
X0118492Y0108269D01*
X0118704Y0108325D01*
X0118916Y0108375D01*
X0119130Y0108420D01*
X0119345Y0108460D01*
X0119561Y0108494D01*
X0119778Y0108524D01*
X0119995Y0108548D01*
X0120213Y0108566D01*
X0120431Y0108580D01*
X0120649Y0108588D01*
X0120868Y0108591D01*
X0121086Y0108589D01*
X0121305Y0108581D01*
X0121523Y0108568D01*
X0121741Y0108550D01*
X0121958Y0108526D01*
X0122175Y0108497D01*
X0122391Y0108463D01*
X0122606Y0108424D01*
X0122820Y0108379D01*
X0123032Y0108330D01*
X0123244Y0108275D01*
X0123454Y0108215D01*
X0123663Y0108150D01*
X0123870Y0108080D01*
X0124075Y0108005D01*
X0124279Y0107924D01*
X0124480Y0107839D01*
X0124679Y0107750D01*
X0124876Y0107655D01*
X0125071Y0107556D01*
X0125263Y0107452D01*
X0125453Y0107343D01*
X0125640Y0107230D01*
X0125824Y0107112D01*
X0126005Y0106990D01*
X0126183Y0106863D01*
X0126358Y0106732D01*
X0126530Y0106597D01*
X0126699Y0106458D01*
X0126864Y0106315D01*
X0127025Y0106167D01*
X0127183Y0106016D01*
X0127338Y0105861D01*
X0127488Y0105703D01*
X0127635Y0105541D01*
X0127777Y0105375D01*
X0127916Y0105206D01*
X0128050Y0105033D01*
X0128180Y0104858D01*
X0128306Y0104679D01*
X0128427Y0104497D01*
X0128544Y0104313D01*
X0128657Y0104125D01*
X0128765Y0103935D01*
X0128868Y0103743D01*
X0128967Y0103548D01*
X0129060Y0103350D01*
X0129149Y0103150D01*
X0129234Y0102949D01*
X0129313Y0102745D01*
X0129387Y0102539D01*
X0129456Y0102332D01*
X0087402Y0106656D02*
X0085479Y0121225D01*
X0068696Y0120456D01*
X0080864Y0111984D01*
X0078571Y0110939D01*
X0078318Y0110261D01*
X0079102Y0108541D01*
X0079456Y0108483D01*
X0081688Y0109417D01*
X0082939Y0108949D01*
X0083226Y0109080D01*
X0084321Y0108670D01*
X0084403Y0108491D01*
X0085863Y0107945D01*
X0085945Y0107766D01*
X0087402Y0106656D01*
X0087291Y0107501D02*
X0086293Y0107501D01*
X0087159Y0108499D02*
X0084399Y0108499D01*
X0087027Y0109498D02*
X0078666Y0109498D01*
X0078017Y0109498D02*
X0071215Y0109498D01*
X0070226Y0109498D02*
X0069833Y0109498D01*
X0069822Y0110496D02*
X0069372Y0110496D01*
X0069417Y0111495D02*
X0068911Y0111495D01*
X0069013Y0112493D02*
X0068450Y0112493D01*
X0068608Y0113492D02*
X0067990Y0113492D01*
X0068204Y0114490D02*
X0067529Y0114490D01*
X0067800Y0115489D02*
X0067068Y0115489D01*
X0066908Y0115834D02*
X0073041Y0102548D01*
X0067439Y0116379D01*
X0067302Y0116014D01*
X0066908Y0115834D01*
X0071528Y0118484D02*
X0085841Y0118484D01*
X0085972Y0117486D02*
X0072962Y0117486D01*
X0074396Y0116487D02*
X0086104Y0116487D01*
X0086236Y0115489D02*
X0075830Y0115489D01*
X0077264Y0114490D02*
X0086368Y0114490D01*
X0086500Y0113492D02*
X0078698Y0113492D01*
X0080132Y0112493D02*
X0086632Y0112493D01*
X0086763Y0111495D02*
X0079791Y0111495D01*
X0078406Y0110496D02*
X0086895Y0110496D01*
X0079495Y0108499D02*
X0079356Y0108499D01*
X0078548Y0108332D02*
X0077601Y0110410D01*
X0076168Y0109757D01*
X0070223Y0111980D01*
X0073326Y0104222D01*
X0073251Y0104101D01*
X0073778Y0104558D01*
X0074246Y0105809D01*
X0075572Y0106413D01*
X0075864Y0107196D01*
X0078444Y0108371D01*
X0078548Y0108332D01*
X0078472Y0108499D02*
X0071615Y0108499D01*
X0070630Y0108499D02*
X0070294Y0108499D01*
X0070755Y0107501D02*
X0071035Y0107501D01*
X0072014Y0107501D02*
X0076533Y0107501D01*
X0075605Y0106502D02*
X0072413Y0106502D01*
X0071439Y0106502D02*
X0071216Y0106502D01*
X0071676Y0105504D02*
X0071844Y0105504D01*
X0072813Y0105504D02*
X0074132Y0105504D01*
X0073717Y0104505D02*
X0073212Y0104505D01*
X0072248Y0104505D02*
X0072137Y0104505D01*
X0072598Y0103507D02*
X0072652Y0103507D01*
X0074191Y0110496D02*
X0070816Y0110496D01*
X0070417Y0111495D02*
X0071520Y0111495D01*
X0070094Y0119483D02*
X0085709Y0119483D01*
X0085577Y0120481D02*
X0069238Y0120481D01*
X0073040Y0102548D02*
X0073112Y0102755D01*
X0073188Y0102961D01*
X0073269Y0103165D01*
X0073356Y0103367D01*
X0073447Y0103567D01*
X0073543Y0103764D01*
X0073643Y0103959D01*
X0073749Y0104152D01*
X0073859Y0104342D01*
X0073974Y0104529D01*
X0074093Y0104713D01*
X0074216Y0104895D01*
X0074344Y0105073D01*
X0074477Y0105248D01*
X0074613Y0105420D01*
X0074754Y0105589D01*
X0074898Y0105754D01*
X0075047Y0105916D01*
X0075199Y0106074D01*
X0075356Y0106228D01*
X0075516Y0106378D01*
X0075679Y0106524D01*
X0075846Y0106667D01*
X0076017Y0106805D01*
X0076190Y0106939D01*
X0076367Y0107069D01*
X0076548Y0107195D01*
X0076731Y0107316D01*
X0076917Y0107433D01*
X0077105Y0107545D01*
X0077297Y0107652D01*
X0077491Y0107755D01*
X0077687Y0107853D01*
X0077886Y0107946D01*
X0078087Y0108035D01*
X0078290Y0108118D01*
X0078495Y0108197D01*
X0078701Y0108271D01*
X0078910Y0108339D01*
X0079120Y0108403D01*
X0079332Y0108461D01*
X0079545Y0108514D01*
X0079759Y0108562D01*
X0079974Y0108605D01*
X0080191Y0108643D01*
X0080408Y0108675D01*
X0080626Y0108702D01*
X0080844Y0108724D01*
X0081063Y0108740D01*
X0081282Y0108751D01*
X0081502Y0108757D01*
X0081721Y0108758D01*
X0081941Y0108753D01*
X0082160Y0108743D01*
X0082379Y0108727D01*
X0082597Y0108706D01*
X0082815Y0108680D01*
X0083033Y0108649D01*
X0083249Y0108612D01*
X0083465Y0108570D01*
X0083679Y0108523D01*
X0083892Y0108471D01*
X0084104Y0108413D01*
X0084314Y0108351D01*
X0084523Y0108283D01*
X0084730Y0108210D01*
X0084936Y0108133D01*
X0085139Y0108050D01*
X0085340Y0107963D01*
X0085540Y0107870D01*
X0085736Y0107773D01*
X0085931Y0107671D01*
X0086123Y0107564D01*
X0086312Y0107453D01*
X0086498Y0107337D01*
X0086682Y0107217D01*
X0086863Y0107092D01*
X0087040Y0106963D01*
X0087214Y0106830D01*
X0087386Y0106692D01*
X0051383Y0087515D02*
X0041835Y0098686D01*
X0028178Y0088901D01*
X0042998Y0088422D01*
X0041644Y0086297D01*
X0041801Y0085590D01*
X0043395Y0084575D01*
X0043723Y0084719D01*
X0045087Y0086718D01*
X0046391Y0087007D01*
X0046560Y0087273D01*
X0047702Y0087526D01*
X0047868Y0087420D01*
X0049390Y0087758D01*
X0049556Y0087652D01*
X0051383Y0087515D01*
X0051370Y0087530D02*
X0051178Y0087530D01*
X0050516Y0088529D02*
X0039691Y0088529D01*
X0041794Y0086532D02*
X0044960Y0086532D01*
X0044279Y0085533D02*
X0041890Y0085533D01*
X0041118Y0085325D02*
X0043044Y0084098D01*
X0042935Y0084074D01*
X0041412Y0081683D01*
X0041593Y0080868D01*
X0040810Y0079639D01*
X0041100Y0078335D01*
X0040906Y0077664D01*
X0040903Y0077806D01*
X0034075Y0082623D01*
X0040272Y0083997D01*
X0041118Y0085325D01*
X0040615Y0084535D02*
X0042359Y0084535D01*
X0042593Y0083536D02*
X0038195Y0083536D01*
X0035612Y0081539D02*
X0041444Y0081539D01*
X0041385Y0080541D02*
X0037027Y0080541D01*
X0036862Y0079542D02*
X0036349Y0079542D01*
X0035433Y0080541D02*
X0034765Y0080541D01*
X0034005Y0081539D02*
X0033181Y0081539D01*
X0032576Y0082538D02*
X0031597Y0082538D01*
X0031148Y0083536D02*
X0030012Y0083536D01*
X0029196Y0084051D02*
X0041576Y0076248D01*
X0029345Y0084796D01*
X0029429Y0084416D01*
X0029196Y0084051D01*
X0029403Y0084535D02*
X0029719Y0084535D01*
X0034196Y0082538D02*
X0041957Y0082538D01*
X0040832Y0079542D02*
X0038442Y0079542D01*
X0038291Y0078544D02*
X0037933Y0078544D01*
X0039517Y0077545D02*
X0039719Y0077545D01*
X0039858Y0078544D02*
X0041053Y0078544D01*
X0041101Y0076547D02*
X0041148Y0076547D01*
X0041575Y0076247D02*
X0041522Y0076460D01*
X0041474Y0076675D01*
X0041431Y0076890D01*
X0041393Y0077106D01*
X0041361Y0077323D01*
X0041334Y0077541D01*
X0041312Y0077760D01*
X0041296Y0077978D01*
X0041285Y0078198D01*
X0041279Y0078417D01*
X0041278Y0078637D01*
X0041283Y0078856D01*
X0041293Y0079075D01*
X0041309Y0079294D01*
X0041330Y0079513D01*
X0041356Y0079731D01*
X0041387Y0079948D01*
X0041424Y0080165D01*
X0041466Y0080380D01*
X0041513Y0080595D01*
X0041565Y0080808D01*
X0041622Y0081020D01*
X0041685Y0081230D01*
X0041753Y0081439D01*
X0041825Y0081646D01*
X0041903Y0081851D01*
X0041986Y0082055D01*
X0042073Y0082256D01*
X0042166Y0082455D01*
X0042263Y0082652D01*
X0042365Y0082846D01*
X0042472Y0083038D01*
X0042583Y0083227D01*
X0042699Y0083414D01*
X0042819Y0083598D01*
X0042944Y0083778D01*
X0043073Y0083956D01*
X0043206Y0084130D01*
X0043344Y0084301D01*
X0043485Y0084469D01*
X0043631Y0084633D01*
X0043781Y0084794D01*
X0043934Y0084951D01*
X0044092Y0085104D01*
X0044252Y0085253D01*
X0044417Y0085399D01*
X0044585Y0085540D01*
X0044756Y0085677D01*
X0044931Y0085810D01*
X0045109Y0085939D01*
X0045290Y0086063D01*
X0045473Y0086183D01*
X0045660Y0086299D01*
X0045850Y0086410D01*
X0046042Y0086516D01*
X0046236Y0086617D01*
X0046433Y0086714D01*
X0046633Y0086806D01*
X0046834Y0086893D01*
X0047038Y0086976D01*
X0047243Y0087053D01*
X0047450Y0087125D01*
X0047659Y0087192D01*
X0047870Y0087255D01*
X0048082Y0087312D01*
X0048295Y0087363D01*
X0048510Y0087410D01*
X0048725Y0087451D01*
X0048942Y0087488D01*
X0049159Y0087519D01*
X0049377Y0087544D01*
X0049596Y0087565D01*
X0049815Y0087580D01*
X0050034Y0087589D01*
X0050254Y0087594D01*
X0050473Y0087593D01*
X0050693Y0087587D01*
X0050912Y0087575D01*
X0051131Y0087558D01*
X0051349Y0087536D01*
X0049663Y0089527D02*
X0029053Y0089527D01*
X0030446Y0090526D02*
X0048809Y0090526D01*
X0047956Y0091524D02*
X0031840Y0091524D01*
X0033233Y0092523D02*
X0047102Y0092523D01*
X0046249Y0093521D02*
X0034627Y0093521D01*
X0036020Y0094520D02*
X0045396Y0094520D01*
X0044542Y0095518D02*
X0037414Y0095518D01*
X0038807Y0096517D02*
X0043689Y0096517D01*
X0042835Y0097515D02*
X0040201Y0097515D01*
X0041594Y0098514D02*
X0041982Y0098514D01*
X0042430Y0087530D02*
X0048365Y0087530D01*
X0032926Y0058423D02*
X0018871Y0062714D01*
X0012611Y0047123D01*
X0025367Y0054683D01*
X0025367Y0052163D01*
X0025879Y0051651D01*
X0027769Y0051651D01*
X0028044Y0051927D01*
X0028044Y0054368D01*
X0028989Y0055312D01*
X0028989Y0055627D01*
X0029816Y0056454D01*
X0030013Y0056454D01*
X0031115Y0057557D01*
X0031312Y0057557D01*
X0032926Y0058423D01*
X0032432Y0058574D02*
X0017208Y0058574D01*
X0017609Y0059572D02*
X0029162Y0059572D01*
X0031346Y0057575D02*
X0016807Y0057575D01*
X0016407Y0056577D02*
X0030135Y0056577D01*
X0028989Y0055578D02*
X0016006Y0055578D01*
X0015605Y0054579D02*
X0025193Y0054579D01*
X0025367Y0054579D02*
X0028256Y0054579D01*
X0028044Y0053581D02*
X0025367Y0053581D01*
X0025367Y0052582D02*
X0028044Y0052582D01*
X0027729Y0051060D02*
X0025446Y0051060D01*
X0025446Y0049486D01*
X0020957Y0044997D01*
X0029304Y0044604D01*
X0029383Y0044486D01*
X0029186Y0045155D01*
X0028241Y0046100D01*
X0028241Y0047557D01*
X0027650Y0048147D01*
X0027650Y0050982D01*
X0027729Y0051060D01*
X0027650Y0050585D02*
X0025446Y0050585D01*
X0025446Y0049587D02*
X0027650Y0049587D01*
X0027650Y0048588D02*
X0024548Y0048588D01*
X0023550Y0047590D02*
X0028208Y0047590D01*
X0028241Y0046591D02*
X0022551Y0046591D01*
X0021553Y0045593D02*
X0028748Y0045593D01*
X0029310Y0044594D02*
X0029351Y0044594D01*
X0030957Y0043659D02*
X0015800Y0044289D01*
X0016076Y0044013D01*
X0016076Y0043580D01*
X0030957Y0043659D01*
X0030796Y0043807D01*
X0030638Y0043959D01*
X0030485Y0044115D01*
X0030334Y0044274D01*
X0030188Y0044437D01*
X0030046Y0044603D01*
X0029908Y0044773D01*
X0029774Y0044946D01*
X0029644Y0045123D01*
X0029519Y0045302D01*
X0029398Y0045484D01*
X0029281Y0045670D01*
X0029169Y0045858D01*
X0029062Y0046048D01*
X0028959Y0046242D01*
X0028861Y0046437D01*
X0028767Y0046635D01*
X0028679Y0046836D01*
X0028595Y0047038D01*
X0028517Y0047242D01*
X0028443Y0047448D01*
X0028374Y0047656D01*
X0028311Y0047866D01*
X0028252Y0048077D01*
X0028199Y0048289D01*
X0028151Y0048502D01*
X0028108Y0048717D01*
X0028070Y0048933D01*
X0028038Y0049149D01*
X0028010Y0049366D01*
X0027988Y0049584D01*
X0027972Y0049802D01*
X0027960Y0050021D01*
X0027954Y0050240D01*
X0027953Y0050459D01*
X0027958Y0050677D01*
X0027968Y0050896D01*
X0027983Y0051114D01*
X0028003Y0051332D01*
X0028029Y0051550D01*
X0028060Y0051766D01*
X0028096Y0051982D01*
X0028138Y0052197D01*
X0028184Y0052411D01*
X0028236Y0052624D01*
X0028293Y0052835D01*
X0028355Y0053045D01*
X0028423Y0053253D01*
X0028495Y0053460D01*
X0028572Y0053665D01*
X0028654Y0053868D01*
X0028741Y0054069D01*
X0028833Y0054267D01*
X0028930Y0054464D01*
X0029031Y0054658D01*
X0029137Y0054849D01*
X0029248Y0055038D01*
X0029363Y0055224D01*
X0029483Y0055407D01*
X0029607Y0055588D01*
X0029736Y0055765D01*
X0029868Y0055939D01*
X0030005Y0056110D01*
X0030146Y0056277D01*
X0030291Y0056441D01*
X0030440Y0056601D01*
X0030593Y0056758D01*
X0030750Y0056911D01*
X0030910Y0057060D01*
X0031074Y0057205D01*
X0031241Y0057346D01*
X0031412Y0057483D01*
X0031586Y0057616D01*
X0031763Y0057745D01*
X0031943Y0057869D01*
X0032126Y0057989D01*
X0032312Y0058104D01*
X0032501Y0058215D01*
X0032693Y0058321D01*
X0032887Y0058423D01*
X0025891Y0060571D02*
X0018010Y0060571D01*
X0018411Y0061569D02*
X0022621Y0061569D01*
X0019351Y0062568D02*
X0018812Y0062568D01*
X0015204Y0053581D02*
X0023508Y0053581D01*
X0021823Y0052582D02*
X0014803Y0052582D01*
X0014402Y0051584D02*
X0020138Y0051584D01*
X0018453Y0050585D02*
X0014001Y0050585D01*
X0013600Y0049587D02*
X0016768Y0049587D01*
X0015083Y0048588D02*
X0013199Y0048588D01*
X0013398Y0047590D02*
X0012798Y0047590D01*
X0016076Y0043596D02*
X0019043Y0043596D01*
D13*
X0029481Y0057871D03*
G36*
X0048060Y0088698D02*
X0048029Y0088720D01*
X0048302Y0089104D01*
X0048333Y0089082D01*
X0048060Y0088698D01*
G37*
G36*
X0085266Y0109447D02*
X0085250Y0109482D01*
X0085678Y0109677D01*
X0085694Y0109642D01*
X0085266Y0109447D01*
G37*
G36*
X0129227Y0105992D02*
X0129232Y0106029D01*
X0129699Y0105964D01*
X0129694Y0105927D01*
X0129227Y0105992D01*
G37*
G36*
X0162590Y0079330D02*
X0162614Y0079359D01*
X0162972Y0079054D01*
X0162948Y0079025D01*
X0162590Y0079330D01*
G37*
G36*
X0174861Y0045419D02*
X0174898Y0045430D01*
X0175031Y0044979D01*
X0174994Y0044968D01*
X0174861Y0045419D01*
G37*
D14*
X0184683Y0053073D03*
X0166711Y0091013D03*
X0126267Y0117977D03*
X0076333Y0117977D03*
X0035889Y0091013D03*
X0017917Y0053073D03*
D15*
X0076200Y0048200D02*
X0076200Y0041800D01*
X0086200Y0041800D02*
X0086200Y0048200D01*
X0096200Y0048200D02*
X0096200Y0041800D01*
X0106200Y0041800D02*
X0106200Y0048200D01*
X0116200Y0048200D02*
X0116200Y0041800D01*
X0126200Y0041800D02*
X0126200Y0048200D01*
M02*
