G75*
%MOIN*%
%OFA0B0*%
%FSLAX25Y25*%
%IPPOS*%
%LPD*%
%AMOC8*
5,1,8,0,0,1.08239X$1,22.5*
%
%ADD10C,0.11824*%
%ADD11R,0.05800X0.13280*%
%ADD12C,0.02900*%
%ADD13R,0.07300X0.07300*%
%ADD14C,0.07300*%
%ADD15C,0.03400*%
%ADD16R,0.06800X0.12800*%
D10*
X0014629Y0065000D03*
X0155967Y0065008D03*
D11*
X0029800Y0088593D03*
D12*
X0041250Y0093783D02*
X0041250Y0083403D01*
X0038350Y0083403D01*
X0038350Y0093783D01*
X0041250Y0093783D01*
X0041250Y0086302D02*
X0038350Y0086302D01*
X0038350Y0089201D02*
X0041250Y0089201D01*
X0041250Y0092100D02*
X0038350Y0092100D01*
X0051250Y0093783D02*
X0051250Y0083403D01*
X0048350Y0083403D01*
X0048350Y0093783D01*
X0051250Y0093783D01*
X0051250Y0086302D02*
X0048350Y0086302D01*
X0048350Y0089201D02*
X0051250Y0089201D01*
X0051250Y0092100D02*
X0048350Y0092100D01*
X0061250Y0093783D02*
X0061250Y0083403D01*
X0058350Y0083403D01*
X0058350Y0093783D01*
X0061250Y0093783D01*
X0061250Y0086302D02*
X0058350Y0086302D01*
X0058350Y0089201D02*
X0061250Y0089201D01*
X0061250Y0092100D02*
X0058350Y0092100D01*
X0071250Y0093783D02*
X0071250Y0083403D01*
X0068350Y0083403D01*
X0068350Y0093783D01*
X0071250Y0093783D01*
X0071250Y0086302D02*
X0068350Y0086302D01*
X0068350Y0089201D02*
X0071250Y0089201D01*
X0071250Y0092100D02*
X0068350Y0092100D01*
X0081250Y0093783D02*
X0081250Y0083403D01*
X0078350Y0083403D01*
X0078350Y0093783D01*
X0081250Y0093783D01*
X0081250Y0086302D02*
X0078350Y0086302D01*
X0078350Y0089201D02*
X0081250Y0089201D01*
X0081250Y0092100D02*
X0078350Y0092100D01*
D13*
X0029800Y0041093D03*
X0089800Y0041093D03*
D14*
X0079800Y0041093D03*
X0069800Y0041093D03*
X0059800Y0041093D03*
X0049800Y0041093D03*
X0039800Y0041093D03*
X0099800Y0041093D03*
X0109800Y0041093D03*
X0119800Y0041093D03*
X0129800Y0041093D03*
X0139800Y0041093D03*
D15*
X0141500Y0055308D02*
X0141500Y0064708D01*
X0141500Y0055308D02*
X0138100Y0055308D01*
X0138100Y0064708D01*
X0141500Y0064708D01*
X0141500Y0058707D02*
X0138100Y0058707D01*
X0138100Y0062106D02*
X0141500Y0062106D01*
X0131500Y0065308D02*
X0131500Y0074708D01*
X0131500Y0065308D02*
X0128100Y0065308D01*
X0128100Y0074708D01*
X0131500Y0074708D01*
X0131500Y0068707D02*
X0128100Y0068707D01*
X0128100Y0072106D02*
X0131500Y0072106D01*
X0121500Y0064708D02*
X0121500Y0055308D01*
X0118100Y0055308D01*
X0118100Y0064708D01*
X0121500Y0064708D01*
X0121500Y0058707D02*
X0118100Y0058707D01*
X0118100Y0062106D02*
X0121500Y0062106D01*
X0111500Y0065308D02*
X0111500Y0074708D01*
X0111500Y0065308D02*
X0108100Y0065308D01*
X0108100Y0074708D01*
X0111500Y0074708D01*
X0111500Y0068707D02*
X0108100Y0068707D01*
X0108100Y0072106D02*
X0111500Y0072106D01*
X0101500Y0064708D02*
X0101500Y0055308D01*
X0098100Y0055308D01*
X0098100Y0064708D01*
X0101500Y0064708D01*
X0101500Y0058707D02*
X0098100Y0058707D01*
X0098100Y0062106D02*
X0101500Y0062106D01*
D16*
X0089800Y0070008D03*
M02*
