G04 #@! TF.FileFunction,Copper,L1,Top,Signal*
%FSLAX46Y46*%
G04 Gerber Fmt 4.6, Leading zero omitted, Abs format (unit mm)*
G04 Created by KiCad (PCBNEW 4.0.0-rc1-stable) date 09/11/2017 17:01:20*
%MOMM*%
G01*
G04 APERTURE LIST*
%ADD10C,0.100000*%
%ADD11C,0.001000*%
%ADD12R,1.500000X1.250000*%
%ADD13R,0.850000X0.850000*%
%ADD14O,0.850000X0.850000*%
%ADD15R,0.522000X0.600000*%
%ADD16R,0.100000X0.100000*%
%ADD17R,1.500000X1.300000*%
%ADD18R,1.300000X1.500000*%
%ADD19C,1.200000*%
%ADD20C,0.304800*%
%ADD21C,0.200000*%
G04 APERTURE END LIST*
D10*
D11*
G36*
X145292500Y-104140000D02*
X145592500Y-104140000D01*
X143967500Y-104161271D01*
X143969727Y-104203765D01*
X143974174Y-104246084D01*
X143980831Y-104288112D01*
X143989678Y-104329735D01*
X144000691Y-104370837D01*
X144013840Y-104411306D01*
X144029089Y-104451032D01*
X144046396Y-104489906D01*
X144065714Y-104527820D01*
X144086990Y-104564671D01*
X144110165Y-104600359D01*
X144135177Y-104634784D01*
X144161955Y-104667854D01*
X144190428Y-104699476D01*
X144220517Y-104729565D01*
X144252139Y-104758038D01*
X144285208Y-104784817D01*
X144319633Y-104809829D01*
X144355320Y-104833005D01*
X144392171Y-104854281D01*
X144430085Y-104873600D01*
X144468959Y-104890907D01*
X144508684Y-104906157D01*
X144549154Y-104919307D01*
X144590256Y-104930320D01*
X144631878Y-104939167D01*
X144673906Y-104945824D01*
X144716225Y-104950272D01*
X144758719Y-104952500D01*
X144780000Y-104952500D01*
X144780000Y-104652500D01*
X144766583Y-104652500D01*
X144739779Y-104651095D01*
X144713085Y-104648290D01*
X144686575Y-104644091D01*
X144660321Y-104638511D01*
X144634395Y-104631564D01*
X144608868Y-104623270D01*
X144583810Y-104613652D01*
X144559290Y-104602735D01*
X144535375Y-104590550D01*
X144512130Y-104577129D01*
X144489620Y-104562511D01*
X144467905Y-104546735D01*
X144447046Y-104529844D01*
X144427100Y-104511884D01*
X144408120Y-104492905D01*
X144390160Y-104472958D01*
X144373269Y-104452100D01*
X144357492Y-104430385D01*
X144342874Y-104407875D01*
X144329453Y-104384630D01*
X144317268Y-104360715D01*
X144306351Y-104336195D01*
X144296732Y-104311138D01*
X144288437Y-104285611D01*
X144281490Y-104259685D01*
X144275910Y-104233431D01*
X144271711Y-104206921D01*
X144268905Y-104180227D01*
X144267500Y-104153423D01*
X145292500Y-104140000D01*
G37*
X145292500Y-104140000D02*
X145592500Y-104140000D01*
X143967500Y-104161271D01*
X143969727Y-104203765D01*
X143974174Y-104246084D01*
X143980831Y-104288112D01*
X143989678Y-104329735D01*
X144000691Y-104370837D01*
X144013840Y-104411306D01*
X144029089Y-104451032D01*
X144046396Y-104489906D01*
X144065714Y-104527820D01*
X144086990Y-104564671D01*
X144110165Y-104600359D01*
X144135177Y-104634784D01*
X144161955Y-104667854D01*
X144190428Y-104699476D01*
X144220517Y-104729565D01*
X144252139Y-104758038D01*
X144285208Y-104784817D01*
X144319633Y-104809829D01*
X144355320Y-104833005D01*
X144392171Y-104854281D01*
X144430085Y-104873600D01*
X144468959Y-104890907D01*
X144508684Y-104906157D01*
X144549154Y-104919307D01*
X144590256Y-104930320D01*
X144631878Y-104939167D01*
X144673906Y-104945824D01*
X144716225Y-104950272D01*
X144758719Y-104952500D01*
X144780000Y-104952500D01*
X144780000Y-104652500D01*
X144766583Y-104652500D01*
X144739779Y-104651095D01*
X144713085Y-104648290D01*
X144686575Y-104644091D01*
X144660321Y-104638511D01*
X144634395Y-104631564D01*
X144608868Y-104623270D01*
X144583810Y-104613652D01*
X144559290Y-104602735D01*
X144535375Y-104590550D01*
X144512130Y-104577129D01*
X144489620Y-104562511D01*
X144467905Y-104546735D01*
X144447046Y-104529844D01*
X144427100Y-104511884D01*
X144408120Y-104492905D01*
X144390160Y-104472958D01*
X144373269Y-104452100D01*
X144357492Y-104430385D01*
X144342874Y-104407875D01*
X144329453Y-104384630D01*
X144317268Y-104360715D01*
X144306351Y-104336195D01*
X144296732Y-104311138D01*
X144288437Y-104285611D01*
X144281490Y-104259685D01*
X144275910Y-104233431D01*
X144271711Y-104206921D01*
X144268905Y-104180227D01*
X144267500Y-104153423D01*
X145292500Y-104140000D01*
G36*
X144780000Y-103627500D02*
X144780000Y-103327500D01*
X144758729Y-103327500D01*
X144716235Y-103329727D01*
X144673916Y-103334174D01*
X144631888Y-103340831D01*
X144590265Y-103349678D01*
X144549163Y-103360691D01*
X144508694Y-103373840D01*
X144468968Y-103389089D01*
X144430094Y-103406396D01*
X144392180Y-103425714D01*
X144355329Y-103446990D01*
X144319641Y-103470165D01*
X144285216Y-103495177D01*
X144252146Y-103521955D01*
X144220524Y-103550428D01*
X144190435Y-103580517D01*
X144161962Y-103612139D01*
X144135183Y-103645208D01*
X144110171Y-103679633D01*
X144086995Y-103715320D01*
X144065719Y-103752171D01*
X144046400Y-103790085D01*
X144029093Y-103828959D01*
X144013843Y-103868684D01*
X144000693Y-103909154D01*
X143989680Y-103950256D01*
X143980833Y-103991878D01*
X143974176Y-104033906D01*
X143969728Y-104076225D01*
X143967500Y-104118719D01*
X143967500Y-104140000D01*
X145292500Y-104140000D01*
X144267500Y-104126583D01*
X144268905Y-104099779D01*
X144271710Y-104073085D01*
X144275909Y-104046575D01*
X144281489Y-104020321D01*
X144288436Y-103994395D01*
X144296730Y-103968868D01*
X144306348Y-103943810D01*
X144317265Y-103919290D01*
X144329450Y-103895375D01*
X144342871Y-103872130D01*
X144357489Y-103849620D01*
X144373265Y-103827905D01*
X144390156Y-103807046D01*
X144408116Y-103787100D01*
X144427095Y-103768120D01*
X144447042Y-103750160D01*
X144467900Y-103733269D01*
X144489615Y-103717492D01*
X144512125Y-103702874D01*
X144535370Y-103689453D01*
X144559285Y-103677268D01*
X144583805Y-103666351D01*
X144608862Y-103656732D01*
X144634389Y-103648437D01*
X144660315Y-103641490D01*
X144686569Y-103635910D01*
X144713079Y-103631711D01*
X144739773Y-103628905D01*
X144766577Y-103627500D01*
X144780000Y-103627500D01*
G37*
X144780000Y-103627500D02*
X144780000Y-103327500D01*
X144758729Y-103327500D01*
X144716235Y-103329727D01*
X144673916Y-103334174D01*
X144631888Y-103340831D01*
X144590265Y-103349678D01*
X144549163Y-103360691D01*
X144508694Y-103373840D01*
X144468968Y-103389089D01*
X144430094Y-103406396D01*
X144392180Y-103425714D01*
X144355329Y-103446990D01*
X144319641Y-103470165D01*
X144285216Y-103495177D01*
X144252146Y-103521955D01*
X144220524Y-103550428D01*
X144190435Y-103580517D01*
X144161962Y-103612139D01*
X144135183Y-103645208D01*
X144110171Y-103679633D01*
X144086995Y-103715320D01*
X144065719Y-103752171D01*
X144046400Y-103790085D01*
X144029093Y-103828959D01*
X144013843Y-103868684D01*
X144000693Y-103909154D01*
X143989680Y-103950256D01*
X143980833Y-103991878D01*
X143974176Y-104033906D01*
X143969728Y-104076225D01*
X143967500Y-104118719D01*
X143967500Y-104140000D01*
X145292500Y-104140000D01*
X144267500Y-104126583D01*
X144268905Y-104099779D01*
X144271710Y-104073085D01*
X144275909Y-104046575D01*
X144281489Y-104020321D01*
X144288436Y-103994395D01*
X144296730Y-103968868D01*
X144306348Y-103943810D01*
X144317265Y-103919290D01*
X144329450Y-103895375D01*
X144342871Y-103872130D01*
X144357489Y-103849620D01*
X144373265Y-103827905D01*
X144390156Y-103807046D01*
X144408116Y-103787100D01*
X144427095Y-103768120D01*
X144447042Y-103750160D01*
X144467900Y-103733269D01*
X144489615Y-103717492D01*
X144512125Y-103702874D01*
X144535370Y-103689453D01*
X144559285Y-103677268D01*
X144583805Y-103666351D01*
X144608862Y-103656732D01*
X144634389Y-103648437D01*
X144660315Y-103641490D01*
X144686569Y-103635910D01*
X144713079Y-103631711D01*
X144739773Y-103628905D01*
X144766577Y-103627500D01*
X144780000Y-103627500D01*
G36*
X144267500Y-104140000D02*
X143967500Y-104140000D01*
X145592500Y-104118729D01*
X145590273Y-104076235D01*
X145585826Y-104033916D01*
X145579169Y-103991888D01*
X145570322Y-103950265D01*
X145559309Y-103909163D01*
X145546160Y-103868694D01*
X145530911Y-103828968D01*
X145513604Y-103790094D01*
X145494286Y-103752180D01*
X145473010Y-103715329D01*
X145449835Y-103679641D01*
X145424823Y-103645216D01*
X145398045Y-103612146D01*
X145369572Y-103580524D01*
X145339483Y-103550435D01*
X145307861Y-103521962D01*
X145274792Y-103495183D01*
X145240367Y-103470171D01*
X145204680Y-103446995D01*
X145167829Y-103425719D01*
X145129915Y-103406400D01*
X145091041Y-103389093D01*
X145051316Y-103373843D01*
X145010846Y-103360693D01*
X144969744Y-103349680D01*
X144928122Y-103340833D01*
X144886094Y-103334176D01*
X144843775Y-103329728D01*
X144801281Y-103327500D01*
X144780000Y-103327500D01*
X144780000Y-103627500D01*
X144793417Y-103627500D01*
X144820221Y-103628905D01*
X144846915Y-103631710D01*
X144873425Y-103635909D01*
X144899679Y-103641489D01*
X144925605Y-103648436D01*
X144951132Y-103656730D01*
X144976190Y-103666348D01*
X145000710Y-103677265D01*
X145024625Y-103689450D01*
X145047870Y-103702871D01*
X145070380Y-103717489D01*
X145092095Y-103733265D01*
X145112954Y-103750156D01*
X145132900Y-103768116D01*
X145151880Y-103787095D01*
X145169840Y-103807042D01*
X145186731Y-103827900D01*
X145202508Y-103849615D01*
X145217126Y-103872125D01*
X145230547Y-103895370D01*
X145242732Y-103919285D01*
X145253649Y-103943805D01*
X145263268Y-103968862D01*
X145271563Y-103994389D01*
X145278510Y-104020315D01*
X145284090Y-104046569D01*
X145288289Y-104073079D01*
X145291095Y-104099773D01*
X145292500Y-104126577D01*
X144267500Y-104140000D01*
G37*
X144267500Y-104140000D02*
X143967500Y-104140000D01*
X145592500Y-104118729D01*
X145590273Y-104076235D01*
X145585826Y-104033916D01*
X145579169Y-103991888D01*
X145570322Y-103950265D01*
X145559309Y-103909163D01*
X145546160Y-103868694D01*
X145530911Y-103828968D01*
X145513604Y-103790094D01*
X145494286Y-103752180D01*
X145473010Y-103715329D01*
X145449835Y-103679641D01*
X145424823Y-103645216D01*
X145398045Y-103612146D01*
X145369572Y-103580524D01*
X145339483Y-103550435D01*
X145307861Y-103521962D01*
X145274792Y-103495183D01*
X145240367Y-103470171D01*
X145204680Y-103446995D01*
X145167829Y-103425719D01*
X145129915Y-103406400D01*
X145091041Y-103389093D01*
X145051316Y-103373843D01*
X145010846Y-103360693D01*
X144969744Y-103349680D01*
X144928122Y-103340833D01*
X144886094Y-103334176D01*
X144843775Y-103329728D01*
X144801281Y-103327500D01*
X144780000Y-103327500D01*
X144780000Y-103627500D01*
X144793417Y-103627500D01*
X144820221Y-103628905D01*
X144846915Y-103631710D01*
X144873425Y-103635909D01*
X144899679Y-103641489D01*
X144925605Y-103648436D01*
X144951132Y-103656730D01*
X144976190Y-103666348D01*
X145000710Y-103677265D01*
X145024625Y-103689450D01*
X145047870Y-103702871D01*
X145070380Y-103717489D01*
X145092095Y-103733265D01*
X145112954Y-103750156D01*
X145132900Y-103768116D01*
X145151880Y-103787095D01*
X145169840Y-103807042D01*
X145186731Y-103827900D01*
X145202508Y-103849615D01*
X145217126Y-103872125D01*
X145230547Y-103895370D01*
X145242732Y-103919285D01*
X145253649Y-103943805D01*
X145263268Y-103968862D01*
X145271563Y-103994389D01*
X145278510Y-104020315D01*
X145284090Y-104046569D01*
X145288289Y-104073079D01*
X145291095Y-104099773D01*
X145292500Y-104126577D01*
X144267500Y-104140000D01*
G36*
X144780000Y-104652500D02*
X144780000Y-104952500D01*
X144801271Y-104952500D01*
X144843765Y-104950273D01*
X144886084Y-104945826D01*
X144928112Y-104939169D01*
X144969735Y-104930322D01*
X145010837Y-104919309D01*
X145051306Y-104906160D01*
X145091032Y-104890911D01*
X145129906Y-104873604D01*
X145167820Y-104854286D01*
X145204671Y-104833010D01*
X145240359Y-104809835D01*
X145274784Y-104784823D01*
X145307854Y-104758045D01*
X145339476Y-104729572D01*
X145369565Y-104699483D01*
X145398038Y-104667861D01*
X145424817Y-104634792D01*
X145449829Y-104600367D01*
X145473005Y-104564680D01*
X145494281Y-104527829D01*
X145513600Y-104489915D01*
X145530907Y-104451041D01*
X145546157Y-104411316D01*
X145559307Y-104370846D01*
X145570320Y-104329744D01*
X145579167Y-104288122D01*
X145585824Y-104246094D01*
X145590272Y-104203775D01*
X145592500Y-104161281D01*
X145592500Y-104140000D01*
X144267500Y-104140000D01*
X145292500Y-104153417D01*
X145291095Y-104180221D01*
X145288290Y-104206915D01*
X145284091Y-104233425D01*
X145278511Y-104259679D01*
X145271564Y-104285605D01*
X145263270Y-104311132D01*
X145253652Y-104336190D01*
X145242735Y-104360710D01*
X145230550Y-104384625D01*
X145217129Y-104407870D01*
X145202511Y-104430380D01*
X145186735Y-104452095D01*
X145169844Y-104472954D01*
X145151884Y-104492900D01*
X145132905Y-104511880D01*
X145112958Y-104529840D01*
X145092100Y-104546731D01*
X145070385Y-104562508D01*
X145047875Y-104577126D01*
X145024630Y-104590547D01*
X145000715Y-104602732D01*
X144976195Y-104613649D01*
X144951138Y-104623268D01*
X144925611Y-104631563D01*
X144899685Y-104638510D01*
X144873431Y-104644090D01*
X144846921Y-104648289D01*
X144820227Y-104651095D01*
X144793423Y-104652500D01*
X144780000Y-104652500D01*
G37*
X144780000Y-104652500D02*
X144780000Y-104952500D01*
X144801271Y-104952500D01*
X144843765Y-104950273D01*
X144886084Y-104945826D01*
X144928112Y-104939169D01*
X144969735Y-104930322D01*
X145010837Y-104919309D01*
X145051306Y-104906160D01*
X145091032Y-104890911D01*
X145129906Y-104873604D01*
X145167820Y-104854286D01*
X145204671Y-104833010D01*
X145240359Y-104809835D01*
X145274784Y-104784823D01*
X145307854Y-104758045D01*
X145339476Y-104729572D01*
X145369565Y-104699483D01*
X145398038Y-104667861D01*
X145424817Y-104634792D01*
X145449829Y-104600367D01*
X145473005Y-104564680D01*
X145494281Y-104527829D01*
X145513600Y-104489915D01*
X145530907Y-104451041D01*
X145546157Y-104411316D01*
X145559307Y-104370846D01*
X145570320Y-104329744D01*
X145579167Y-104288122D01*
X145585824Y-104246094D01*
X145590272Y-104203775D01*
X145592500Y-104161281D01*
X145592500Y-104140000D01*
X144267500Y-104140000D01*
X145292500Y-104153417D01*
X145291095Y-104180221D01*
X145288290Y-104206915D01*
X145284091Y-104233425D01*
X145278511Y-104259679D01*
X145271564Y-104285605D01*
X145263270Y-104311132D01*
X145253652Y-104336190D01*
X145242735Y-104360710D01*
X145230550Y-104384625D01*
X145217129Y-104407870D01*
X145202511Y-104430380D01*
X145186735Y-104452095D01*
X145169844Y-104472954D01*
X145151884Y-104492900D01*
X145132905Y-104511880D01*
X145112958Y-104529840D01*
X145092100Y-104546731D01*
X145070385Y-104562508D01*
X145047875Y-104577126D01*
X145024630Y-104590547D01*
X145000715Y-104602732D01*
X144976195Y-104613649D01*
X144951138Y-104623268D01*
X144925611Y-104631563D01*
X144899685Y-104638510D01*
X144873431Y-104644090D01*
X144846921Y-104648289D01*
X144820227Y-104651095D01*
X144793423Y-104652500D01*
X144780000Y-104652500D01*
G36*
X184907500Y-104140000D02*
X184607500Y-104140000D01*
X186232500Y-104118729D01*
X186230273Y-104076235D01*
X186225826Y-104033916D01*
X186219169Y-103991888D01*
X186210322Y-103950265D01*
X186199309Y-103909163D01*
X186186160Y-103868694D01*
X186170911Y-103828968D01*
X186153604Y-103790094D01*
X186134286Y-103752180D01*
X186113010Y-103715329D01*
X186089835Y-103679641D01*
X186064823Y-103645216D01*
X186038045Y-103612146D01*
X186009572Y-103580524D01*
X185979483Y-103550435D01*
X185947861Y-103521962D01*
X185914792Y-103495183D01*
X185880367Y-103470171D01*
X185844680Y-103446995D01*
X185807829Y-103425719D01*
X185769915Y-103406400D01*
X185731041Y-103389093D01*
X185691316Y-103373843D01*
X185650846Y-103360693D01*
X185609744Y-103349680D01*
X185568122Y-103340833D01*
X185526094Y-103334176D01*
X185483775Y-103329728D01*
X185441281Y-103327500D01*
X185420000Y-103327500D01*
X185420000Y-103627500D01*
X185433417Y-103627500D01*
X185460221Y-103628905D01*
X185486915Y-103631710D01*
X185513425Y-103635909D01*
X185539679Y-103641489D01*
X185565605Y-103648436D01*
X185591132Y-103656730D01*
X185616190Y-103666348D01*
X185640710Y-103677265D01*
X185664625Y-103689450D01*
X185687870Y-103702871D01*
X185710380Y-103717489D01*
X185732095Y-103733265D01*
X185752954Y-103750156D01*
X185772900Y-103768116D01*
X185791880Y-103787095D01*
X185809840Y-103807042D01*
X185826731Y-103827900D01*
X185842508Y-103849615D01*
X185857126Y-103872125D01*
X185870547Y-103895370D01*
X185882732Y-103919285D01*
X185893649Y-103943805D01*
X185903268Y-103968862D01*
X185911563Y-103994389D01*
X185918510Y-104020315D01*
X185924090Y-104046569D01*
X185928289Y-104073079D01*
X185931095Y-104099773D01*
X185932500Y-104126577D01*
X184907500Y-104140000D01*
G37*
X184907500Y-104140000D02*
X184607500Y-104140000D01*
X186232500Y-104118729D01*
X186230273Y-104076235D01*
X186225826Y-104033916D01*
X186219169Y-103991888D01*
X186210322Y-103950265D01*
X186199309Y-103909163D01*
X186186160Y-103868694D01*
X186170911Y-103828968D01*
X186153604Y-103790094D01*
X186134286Y-103752180D01*
X186113010Y-103715329D01*
X186089835Y-103679641D01*
X186064823Y-103645216D01*
X186038045Y-103612146D01*
X186009572Y-103580524D01*
X185979483Y-103550435D01*
X185947861Y-103521962D01*
X185914792Y-103495183D01*
X185880367Y-103470171D01*
X185844680Y-103446995D01*
X185807829Y-103425719D01*
X185769915Y-103406400D01*
X185731041Y-103389093D01*
X185691316Y-103373843D01*
X185650846Y-103360693D01*
X185609744Y-103349680D01*
X185568122Y-103340833D01*
X185526094Y-103334176D01*
X185483775Y-103329728D01*
X185441281Y-103327500D01*
X185420000Y-103327500D01*
X185420000Y-103627500D01*
X185433417Y-103627500D01*
X185460221Y-103628905D01*
X185486915Y-103631710D01*
X185513425Y-103635909D01*
X185539679Y-103641489D01*
X185565605Y-103648436D01*
X185591132Y-103656730D01*
X185616190Y-103666348D01*
X185640710Y-103677265D01*
X185664625Y-103689450D01*
X185687870Y-103702871D01*
X185710380Y-103717489D01*
X185732095Y-103733265D01*
X185752954Y-103750156D01*
X185772900Y-103768116D01*
X185791880Y-103787095D01*
X185809840Y-103807042D01*
X185826731Y-103827900D01*
X185842508Y-103849615D01*
X185857126Y-103872125D01*
X185870547Y-103895370D01*
X185882732Y-103919285D01*
X185893649Y-103943805D01*
X185903268Y-103968862D01*
X185911563Y-103994389D01*
X185918510Y-104020315D01*
X185924090Y-104046569D01*
X185928289Y-104073079D01*
X185931095Y-104099773D01*
X185932500Y-104126577D01*
X184907500Y-104140000D01*
G36*
X185420000Y-104652500D02*
X185420000Y-104952500D01*
X185441271Y-104952500D01*
X185483765Y-104950273D01*
X185526084Y-104945826D01*
X185568112Y-104939169D01*
X185609735Y-104930322D01*
X185650837Y-104919309D01*
X185691306Y-104906160D01*
X185731032Y-104890911D01*
X185769906Y-104873604D01*
X185807820Y-104854286D01*
X185844671Y-104833010D01*
X185880359Y-104809835D01*
X185914784Y-104784823D01*
X185947854Y-104758045D01*
X185979476Y-104729572D01*
X186009565Y-104699483D01*
X186038038Y-104667861D01*
X186064817Y-104634792D01*
X186089829Y-104600367D01*
X186113005Y-104564680D01*
X186134281Y-104527829D01*
X186153600Y-104489915D01*
X186170907Y-104451041D01*
X186186157Y-104411316D01*
X186199307Y-104370846D01*
X186210320Y-104329744D01*
X186219167Y-104288122D01*
X186225824Y-104246094D01*
X186230272Y-104203775D01*
X186232500Y-104161281D01*
X186232500Y-104140000D01*
X184907500Y-104140000D01*
X185932500Y-104153417D01*
X185931095Y-104180221D01*
X185928290Y-104206915D01*
X185924091Y-104233425D01*
X185918511Y-104259679D01*
X185911564Y-104285605D01*
X185903270Y-104311132D01*
X185893652Y-104336190D01*
X185882735Y-104360710D01*
X185870550Y-104384625D01*
X185857129Y-104407870D01*
X185842511Y-104430380D01*
X185826735Y-104452095D01*
X185809844Y-104472954D01*
X185791884Y-104492900D01*
X185772905Y-104511880D01*
X185752958Y-104529840D01*
X185732100Y-104546731D01*
X185710385Y-104562508D01*
X185687875Y-104577126D01*
X185664630Y-104590547D01*
X185640715Y-104602732D01*
X185616195Y-104613649D01*
X185591138Y-104623268D01*
X185565611Y-104631563D01*
X185539685Y-104638510D01*
X185513431Y-104644090D01*
X185486921Y-104648289D01*
X185460227Y-104651095D01*
X185433423Y-104652500D01*
X185420000Y-104652500D01*
G37*
X185420000Y-104652500D02*
X185420000Y-104952500D01*
X185441271Y-104952500D01*
X185483765Y-104950273D01*
X185526084Y-104945826D01*
X185568112Y-104939169D01*
X185609735Y-104930322D01*
X185650837Y-104919309D01*
X185691306Y-104906160D01*
X185731032Y-104890911D01*
X185769906Y-104873604D01*
X185807820Y-104854286D01*
X185844671Y-104833010D01*
X185880359Y-104809835D01*
X185914784Y-104784823D01*
X185947854Y-104758045D01*
X185979476Y-104729572D01*
X186009565Y-104699483D01*
X186038038Y-104667861D01*
X186064817Y-104634792D01*
X186089829Y-104600367D01*
X186113005Y-104564680D01*
X186134281Y-104527829D01*
X186153600Y-104489915D01*
X186170907Y-104451041D01*
X186186157Y-104411316D01*
X186199307Y-104370846D01*
X186210320Y-104329744D01*
X186219167Y-104288122D01*
X186225824Y-104246094D01*
X186230272Y-104203775D01*
X186232500Y-104161281D01*
X186232500Y-104140000D01*
X184907500Y-104140000D01*
X185932500Y-104153417D01*
X185931095Y-104180221D01*
X185928290Y-104206915D01*
X185924091Y-104233425D01*
X185918511Y-104259679D01*
X185911564Y-104285605D01*
X185903270Y-104311132D01*
X185893652Y-104336190D01*
X185882735Y-104360710D01*
X185870550Y-104384625D01*
X185857129Y-104407870D01*
X185842511Y-104430380D01*
X185826735Y-104452095D01*
X185809844Y-104472954D01*
X185791884Y-104492900D01*
X185772905Y-104511880D01*
X185752958Y-104529840D01*
X185732100Y-104546731D01*
X185710385Y-104562508D01*
X185687875Y-104577126D01*
X185664630Y-104590547D01*
X185640715Y-104602732D01*
X185616195Y-104613649D01*
X185591138Y-104623268D01*
X185565611Y-104631563D01*
X185539685Y-104638510D01*
X185513431Y-104644090D01*
X185486921Y-104648289D01*
X185460227Y-104651095D01*
X185433423Y-104652500D01*
X185420000Y-104652500D01*
G36*
X185932500Y-104140000D02*
X186232500Y-104140000D01*
X184607500Y-104161271D01*
X184609727Y-104203765D01*
X184614174Y-104246084D01*
X184620831Y-104288112D01*
X184629678Y-104329735D01*
X184640691Y-104370837D01*
X184653840Y-104411306D01*
X184669089Y-104451032D01*
X184686396Y-104489906D01*
X184705714Y-104527820D01*
X184726990Y-104564671D01*
X184750165Y-104600359D01*
X184775177Y-104634784D01*
X184801955Y-104667854D01*
X184830428Y-104699476D01*
X184860517Y-104729565D01*
X184892139Y-104758038D01*
X184925208Y-104784817D01*
X184959633Y-104809829D01*
X184995320Y-104833005D01*
X185032171Y-104854281D01*
X185070085Y-104873600D01*
X185108959Y-104890907D01*
X185148684Y-104906157D01*
X185189154Y-104919307D01*
X185230256Y-104930320D01*
X185271878Y-104939167D01*
X185313906Y-104945824D01*
X185356225Y-104950272D01*
X185398719Y-104952500D01*
X185420000Y-104952500D01*
X185420000Y-104652500D01*
X185406583Y-104652500D01*
X185379779Y-104651095D01*
X185353085Y-104648290D01*
X185326575Y-104644091D01*
X185300321Y-104638511D01*
X185274395Y-104631564D01*
X185248868Y-104623270D01*
X185223810Y-104613652D01*
X185199290Y-104602735D01*
X185175375Y-104590550D01*
X185152130Y-104577129D01*
X185129620Y-104562511D01*
X185107905Y-104546735D01*
X185087046Y-104529844D01*
X185067100Y-104511884D01*
X185048120Y-104492905D01*
X185030160Y-104472958D01*
X185013269Y-104452100D01*
X184997492Y-104430385D01*
X184982874Y-104407875D01*
X184969453Y-104384630D01*
X184957268Y-104360715D01*
X184946351Y-104336195D01*
X184936732Y-104311138D01*
X184928437Y-104285611D01*
X184921490Y-104259685D01*
X184915910Y-104233431D01*
X184911711Y-104206921D01*
X184908905Y-104180227D01*
X184907500Y-104153423D01*
X185932500Y-104140000D01*
G37*
X185932500Y-104140000D02*
X186232500Y-104140000D01*
X184607500Y-104161271D01*
X184609727Y-104203765D01*
X184614174Y-104246084D01*
X184620831Y-104288112D01*
X184629678Y-104329735D01*
X184640691Y-104370837D01*
X184653840Y-104411306D01*
X184669089Y-104451032D01*
X184686396Y-104489906D01*
X184705714Y-104527820D01*
X184726990Y-104564671D01*
X184750165Y-104600359D01*
X184775177Y-104634784D01*
X184801955Y-104667854D01*
X184830428Y-104699476D01*
X184860517Y-104729565D01*
X184892139Y-104758038D01*
X184925208Y-104784817D01*
X184959633Y-104809829D01*
X184995320Y-104833005D01*
X185032171Y-104854281D01*
X185070085Y-104873600D01*
X185108959Y-104890907D01*
X185148684Y-104906157D01*
X185189154Y-104919307D01*
X185230256Y-104930320D01*
X185271878Y-104939167D01*
X185313906Y-104945824D01*
X185356225Y-104950272D01*
X185398719Y-104952500D01*
X185420000Y-104952500D01*
X185420000Y-104652500D01*
X185406583Y-104652500D01*
X185379779Y-104651095D01*
X185353085Y-104648290D01*
X185326575Y-104644091D01*
X185300321Y-104638511D01*
X185274395Y-104631564D01*
X185248868Y-104623270D01*
X185223810Y-104613652D01*
X185199290Y-104602735D01*
X185175375Y-104590550D01*
X185152130Y-104577129D01*
X185129620Y-104562511D01*
X185107905Y-104546735D01*
X185087046Y-104529844D01*
X185067100Y-104511884D01*
X185048120Y-104492905D01*
X185030160Y-104472958D01*
X185013269Y-104452100D01*
X184997492Y-104430385D01*
X184982874Y-104407875D01*
X184969453Y-104384630D01*
X184957268Y-104360715D01*
X184946351Y-104336195D01*
X184936732Y-104311138D01*
X184928437Y-104285611D01*
X184921490Y-104259685D01*
X184915910Y-104233431D01*
X184911711Y-104206921D01*
X184908905Y-104180227D01*
X184907500Y-104153423D01*
X185932500Y-104140000D01*
G36*
X185420000Y-103627500D02*
X185420000Y-103327500D01*
X185398729Y-103327500D01*
X185356235Y-103329727D01*
X185313916Y-103334174D01*
X185271888Y-103340831D01*
X185230265Y-103349678D01*
X185189163Y-103360691D01*
X185148694Y-103373840D01*
X185108968Y-103389089D01*
X185070094Y-103406396D01*
X185032180Y-103425714D01*
X184995329Y-103446990D01*
X184959641Y-103470165D01*
X184925216Y-103495177D01*
X184892146Y-103521955D01*
X184860524Y-103550428D01*
X184830435Y-103580517D01*
X184801962Y-103612139D01*
X184775183Y-103645208D01*
X184750171Y-103679633D01*
X184726995Y-103715320D01*
X184705719Y-103752171D01*
X184686400Y-103790085D01*
X184669093Y-103828959D01*
X184653843Y-103868684D01*
X184640693Y-103909154D01*
X184629680Y-103950256D01*
X184620833Y-103991878D01*
X184614176Y-104033906D01*
X184609728Y-104076225D01*
X184607500Y-104118719D01*
X184607500Y-104140000D01*
X185932500Y-104140000D01*
X184907500Y-104126583D01*
X184908905Y-104099779D01*
X184911710Y-104073085D01*
X184915909Y-104046575D01*
X184921489Y-104020321D01*
X184928436Y-103994395D01*
X184936730Y-103968868D01*
X184946348Y-103943810D01*
X184957265Y-103919290D01*
X184969450Y-103895375D01*
X184982871Y-103872130D01*
X184997489Y-103849620D01*
X185013265Y-103827905D01*
X185030156Y-103807046D01*
X185048116Y-103787100D01*
X185067095Y-103768120D01*
X185087042Y-103750160D01*
X185107900Y-103733269D01*
X185129615Y-103717492D01*
X185152125Y-103702874D01*
X185175370Y-103689453D01*
X185199285Y-103677268D01*
X185223805Y-103666351D01*
X185248862Y-103656732D01*
X185274389Y-103648437D01*
X185300315Y-103641490D01*
X185326569Y-103635910D01*
X185353079Y-103631711D01*
X185379773Y-103628905D01*
X185406577Y-103627500D01*
X185420000Y-103627500D01*
G37*
X185420000Y-103627500D02*
X185420000Y-103327500D01*
X185398729Y-103327500D01*
X185356235Y-103329727D01*
X185313916Y-103334174D01*
X185271888Y-103340831D01*
X185230265Y-103349678D01*
X185189163Y-103360691D01*
X185148694Y-103373840D01*
X185108968Y-103389089D01*
X185070094Y-103406396D01*
X185032180Y-103425714D01*
X184995329Y-103446990D01*
X184959641Y-103470165D01*
X184925216Y-103495177D01*
X184892146Y-103521955D01*
X184860524Y-103550428D01*
X184830435Y-103580517D01*
X184801962Y-103612139D01*
X184775183Y-103645208D01*
X184750171Y-103679633D01*
X184726995Y-103715320D01*
X184705719Y-103752171D01*
X184686400Y-103790085D01*
X184669093Y-103828959D01*
X184653843Y-103868684D01*
X184640693Y-103909154D01*
X184629680Y-103950256D01*
X184620833Y-103991878D01*
X184614176Y-104033906D01*
X184609728Y-104076225D01*
X184607500Y-104118719D01*
X184607500Y-104140000D01*
X185932500Y-104140000D01*
X184907500Y-104126583D01*
X184908905Y-104099779D01*
X184911710Y-104073085D01*
X184915909Y-104046575D01*
X184921489Y-104020321D01*
X184928436Y-103994395D01*
X184936730Y-103968868D01*
X184946348Y-103943810D01*
X184957265Y-103919290D01*
X184969450Y-103895375D01*
X184982871Y-103872130D01*
X184997489Y-103849620D01*
X185013265Y-103827905D01*
X185030156Y-103807046D01*
X185048116Y-103787100D01*
X185067095Y-103768120D01*
X185087042Y-103750160D01*
X185107900Y-103733269D01*
X185129615Y-103717492D01*
X185152125Y-103702874D01*
X185175370Y-103689453D01*
X185199285Y-103677268D01*
X185223805Y-103666351D01*
X185248862Y-103656732D01*
X185274389Y-103648437D01*
X185300315Y-103641490D01*
X185326569Y-103635910D01*
X185353079Y-103631711D01*
X185379773Y-103628905D01*
X185406577Y-103627500D01*
X185420000Y-103627500D01*
D12*
X152420000Y-109220000D03*
X154920000Y-109220000D03*
X175280000Y-101600000D03*
X177780000Y-101600000D03*
X152420000Y-106680000D03*
X154920000Y-106680000D03*
X175280000Y-99060000D03*
X177780000Y-99060000D03*
D13*
X163068000Y-99060000D03*
D14*
X164068000Y-99060000D03*
X165068000Y-99060000D03*
X166068000Y-99060000D03*
X167068000Y-99060000D03*
D15*
X146032000Y-103240000D03*
X146854000Y-103240000D03*
X146854000Y-104140000D03*
X146854000Y-105040000D03*
X146032000Y-105040000D03*
D16*
X144800000Y-104790000D03*
D15*
X184168000Y-105040000D03*
X183346000Y-105040000D03*
X183346000Y-104140000D03*
X183346000Y-103240000D03*
X184168000Y-103240000D03*
D16*
X185400000Y-103490000D03*
D17*
X152320000Y-104140000D03*
X155020000Y-104140000D03*
X175180000Y-104140000D03*
X177880000Y-104140000D03*
D18*
X163830000Y-105490000D03*
X163830000Y-102790000D03*
X166370000Y-105490000D03*
X166370000Y-102790000D03*
D19*
X148717000Y-107696000D03*
X171450000Y-100330000D03*
X154940000Y-99060000D03*
X172466000Y-97282000D03*
X143510000Y-97282000D03*
X156845000Y-107950000D03*
X146050000Y-109982000D03*
X144780000Y-106807000D03*
X160401000Y-107950000D03*
X174117000Y-107442000D03*
X179959000Y-107442000D03*
X185547000Y-107442000D03*
X179832000Y-100076000D03*
X160401000Y-107950000D03*
X169418000Y-102616000D03*
X150114000Y-101600000D03*
X158496000Y-101600000D03*
D20*
X148220000Y-105040000D02*
X149860000Y-106680000D01*
X152420000Y-106680000D02*
X149733000Y-106680000D01*
X149733000Y-106680000D02*
X148717000Y-107696000D01*
X175280000Y-101600000D02*
X175280000Y-102529800D01*
X175280000Y-102529800D02*
X175620200Y-102870000D01*
X175620200Y-102870000D02*
X182410200Y-102870000D01*
X182410200Y-102870000D02*
X182780200Y-103240000D01*
X182780200Y-103240000D02*
X183346000Y-103240000D01*
X175280000Y-101600000D02*
X175280000Y-99060000D01*
X172720000Y-100330000D02*
X173990000Y-99060000D01*
X173990000Y-99060000D02*
X175280000Y-99060000D01*
X171450000Y-100330000D02*
X172720000Y-100330000D01*
X152420000Y-109220000D02*
X152420000Y-106680000D01*
X146854000Y-105040000D02*
X148220000Y-105040000D01*
X149860000Y-106680000D02*
X152420000Y-106680000D01*
X146032000Y-103240000D02*
X146032000Y-100348000D01*
X147320000Y-99060000D02*
X154940000Y-99060000D01*
X146032000Y-100348000D02*
X147320000Y-99060000D01*
X167068000Y-99060000D02*
X167068000Y-98362000D01*
X167068000Y-98362000D02*
X168148000Y-97282000D01*
X168148000Y-97282000D02*
X172466000Y-97282000D01*
X156845000Y-107950000D02*
X157693528Y-107950000D01*
X157693528Y-107950000D02*
X160401000Y-107950000D01*
X144800000Y-104790000D02*
X144800000Y-106787000D01*
X144800000Y-106787000D02*
X144780000Y-106807000D01*
X145262999Y-105257999D02*
X145262999Y-105746401D01*
X145262999Y-105746401D02*
X145371590Y-105854992D01*
X144800000Y-104795000D02*
X145262999Y-105257999D01*
X144800000Y-104790000D02*
X144800000Y-104795000D01*
X145262999Y-103479999D02*
X145262999Y-102006001D01*
X145161000Y-103251000D02*
X145161000Y-103378000D01*
X145161000Y-103378000D02*
X145262999Y-103479999D01*
X144907000Y-103251000D02*
X145161000Y-103251000D01*
X144526000Y-103251000D02*
X144907000Y-103251000D01*
X144653000Y-103378000D02*
X144526000Y-103251000D01*
X144272000Y-103378000D02*
X144653000Y-103378000D01*
X144018000Y-103632000D02*
X144272000Y-103378000D01*
X143891000Y-103632000D02*
X144018000Y-103632000D01*
X143891000Y-104013000D02*
X143891000Y-103632000D01*
X143891000Y-104394000D02*
X143891000Y-104013000D01*
X144145000Y-104648000D02*
X143891000Y-104394000D01*
X144661800Y-105164800D02*
X144145000Y-104648000D01*
X144780000Y-105164800D02*
X144661800Y-105164800D01*
X144800000Y-104790000D02*
X144800000Y-105144800D01*
X144800000Y-105144800D02*
X144780000Y-105164800D01*
X185547000Y-107442000D02*
X185547000Y-105283000D01*
X185801000Y-105029000D02*
X185547000Y-105283000D01*
X179959000Y-107442000D02*
X174117000Y-107442000D01*
X185558000Y-105040000D02*
X185547000Y-105051000D01*
X185547000Y-105051000D02*
X185547000Y-107442000D01*
X184168000Y-105040000D02*
X185558000Y-105040000D01*
X185039000Y-105029000D02*
X185028000Y-105040000D01*
X185028000Y-105040000D02*
X184168000Y-105040000D01*
X185801000Y-105029000D02*
X185039000Y-105029000D01*
X186309000Y-104521000D02*
X185801000Y-105029000D01*
X186309000Y-103759000D02*
X186309000Y-104521000D01*
X185547000Y-102997000D02*
X186309000Y-103759000D01*
X185547000Y-102988200D02*
X185547000Y-102997000D01*
X185400000Y-103490000D02*
X185400000Y-103135200D01*
X185400000Y-103135200D02*
X185547000Y-102988200D01*
X167068000Y-98362000D02*
X168148000Y-97282000D01*
X154920000Y-109220000D02*
X154920000Y-106680000D01*
X178816000Y-99060000D02*
X179832000Y-100076000D01*
X178816000Y-99060000D02*
X177780000Y-99060000D01*
X154920000Y-109220000D02*
X158369000Y-109220000D01*
X158369000Y-109220000D02*
X160401000Y-107950000D01*
X176784000Y-97282000D02*
X177780000Y-98278000D01*
X168148000Y-97282000D02*
X176784000Y-97282000D01*
X177780000Y-98278000D02*
X177780000Y-99060000D01*
X177780000Y-101600000D02*
X177780000Y-99060000D01*
X183346000Y-105040000D02*
X181980000Y-105040000D01*
X172720000Y-105918000D02*
X169418000Y-102616000D01*
X181102000Y-105918000D02*
X172720000Y-105918000D01*
X181980000Y-105040000D02*
X181102000Y-105918000D01*
X163830000Y-105490000D02*
X162132000Y-105490000D01*
X148474000Y-103240000D02*
X146854000Y-103240000D01*
X150114000Y-101600000D02*
X148474000Y-103240000D01*
X158496000Y-101854000D02*
X158496000Y-101600000D01*
X162132000Y-105490000D02*
X158496000Y-101854000D01*
X184168000Y-103240000D02*
X184168000Y-102344000D01*
X184168000Y-102344000D02*
X184912000Y-101600000D01*
X184912000Y-101600000D02*
X186690000Y-101600000D01*
X186690000Y-101600000D02*
X187452000Y-102362000D01*
X186436000Y-109093000D02*
X166370000Y-109093000D01*
X187452000Y-102362000D02*
X187452000Y-108077000D01*
X187452000Y-108077000D02*
X186436000Y-109093000D01*
X166370000Y-105490000D02*
X166370000Y-109347000D01*
X166370000Y-109347000D02*
X165100000Y-110617000D01*
X165100000Y-110617000D02*
X148717000Y-110617000D01*
X148717000Y-110617000D02*
X146032000Y-107932000D01*
X146032000Y-107932000D02*
X146032000Y-105040000D01*
X155020000Y-104140000D02*
X155020000Y-102028000D01*
X155020000Y-102028000D02*
X159385000Y-97663000D01*
X159385000Y-97663000D02*
X165735000Y-97663000D01*
X166068000Y-97996000D02*
X166068000Y-99060000D01*
X165735000Y-97663000D02*
X166068000Y-97996000D01*
X175180000Y-104140000D02*
X173228000Y-104140000D01*
X166068000Y-100536000D02*
X166068000Y-99060000D01*
X166624000Y-101092000D02*
X166068000Y-100536000D01*
X170180000Y-101092000D02*
X166624000Y-101092000D01*
X173228000Y-104140000D02*
X170180000Y-101092000D01*
X146854000Y-104140000D02*
X152320000Y-104140000D01*
X183346000Y-104140000D02*
X177880000Y-104140000D01*
X164068000Y-99060000D02*
X164068000Y-102552000D01*
X164068000Y-102552000D02*
X163830000Y-102790000D01*
X165068000Y-99060000D02*
X165068000Y-101488000D01*
X165068000Y-101488000D02*
X166370000Y-102790000D01*
D21*
G36*
X150776000Y-105664000D02*
X150783879Y-105702906D01*
X150806273Y-105735681D01*
X150839654Y-105757161D01*
X150876000Y-105764000D01*
X153316000Y-105764000D01*
X153316000Y-110009000D01*
X148968842Y-110009000D01*
X146640000Y-107680158D01*
X146640000Y-105891000D01*
X147447000Y-105891000D01*
X147485906Y-105883121D01*
X147518681Y-105860727D01*
X147540161Y-105827346D01*
X147547000Y-105791000D01*
X147547000Y-104875000D01*
X150776000Y-104875000D01*
X150776000Y-105664000D01*
X150776000Y-105664000D01*
G37*
X150776000Y-105664000D02*
X150783879Y-105702906D01*
X150806273Y-105735681D01*
X150839654Y-105757161D01*
X150876000Y-105764000D01*
X153316000Y-105764000D01*
X153316000Y-110009000D01*
X148968842Y-110009000D01*
X146640000Y-107680158D01*
X146640000Y-105891000D01*
X147447000Y-105891000D01*
X147485906Y-105883121D01*
X147518681Y-105860727D01*
X147540161Y-105827346D01*
X147547000Y-105791000D01*
X147547000Y-104875000D01*
X150776000Y-104875000D01*
X150776000Y-105664000D01*
G36*
X171867270Y-98176372D02*
X172255107Y-98337416D01*
X172675051Y-98337782D01*
X173063168Y-98177416D01*
X173351086Y-97890000D01*
X176176000Y-97890000D01*
X176176000Y-102897000D01*
X172844842Y-102897000D01*
X170609921Y-100662079D01*
X170579908Y-100642025D01*
X170412672Y-100530281D01*
X170390241Y-100525819D01*
X170377711Y-100513289D01*
X170344629Y-100491350D01*
X170307000Y-100484000D01*
X168375000Y-100484000D01*
X168375000Y-97914842D01*
X168399842Y-97890000D01*
X171581397Y-97890000D01*
X171867270Y-98176372D01*
X171867270Y-98176372D01*
G37*
X171867270Y-98176372D02*
X172255107Y-98337416D01*
X172675051Y-98337782D01*
X173063168Y-98177416D01*
X173351086Y-97890000D01*
X176176000Y-97890000D01*
X176176000Y-102897000D01*
X172844842Y-102897000D01*
X170609921Y-100662079D01*
X170579908Y-100642025D01*
X170412672Y-100530281D01*
X170390241Y-100525819D01*
X170377711Y-100513289D01*
X170344629Y-100491350D01*
X170307000Y-100484000D01*
X168375000Y-100484000D01*
X168375000Y-97914842D01*
X168399842Y-97890000D01*
X171581397Y-97890000D01*
X171867270Y-98176372D01*
G36*
X188601000Y-111385000D02*
X142615000Y-111385000D01*
X142615000Y-104118719D01*
X143667000Y-104118719D01*
X143667000Y-104140000D01*
X143667391Y-104141965D01*
X143667026Y-104143933D01*
X143669132Y-104153841D01*
X143667026Y-104165204D01*
X143668272Y-104171066D01*
X143667412Y-104176998D01*
X143669639Y-104219492D01*
X143671603Y-104227225D01*
X143670873Y-104235169D01*
X143675320Y-104277488D01*
X143677688Y-104285113D01*
X143677374Y-104293095D01*
X143684031Y-104335123D01*
X143686793Y-104342608D01*
X143686897Y-104350588D01*
X143695744Y-104392211D01*
X143698895Y-104399546D01*
X143699417Y-104407508D01*
X143710430Y-104448611D01*
X143713960Y-104455769D01*
X143714898Y-104463695D01*
X143728047Y-104504165D01*
X143731947Y-104511128D01*
X143733298Y-104518993D01*
X143748547Y-104558719D01*
X143752805Y-104565467D01*
X143754566Y-104573252D01*
X143771874Y-104612126D01*
X143776481Y-104618645D01*
X143778648Y-104626329D01*
X143797966Y-104664243D01*
X143802909Y-104670513D01*
X143805474Y-104678070D01*
X143826750Y-104714921D01*
X143832009Y-104720918D01*
X143834966Y-104728330D01*
X143858141Y-104764017D01*
X143863714Y-104769738D01*
X143867058Y-104776992D01*
X143892070Y-104811417D01*
X143897926Y-104816830D01*
X143901639Y-104823888D01*
X143928417Y-104856958D01*
X143934557Y-104862065D01*
X143938641Y-104868929D01*
X143967115Y-104900551D01*
X143973506Y-104905324D01*
X143977942Y-104911962D01*
X144008031Y-104942050D01*
X144014666Y-104946484D01*
X144019442Y-104952879D01*
X144051064Y-104981352D01*
X144057924Y-104985433D01*
X144063027Y-104991569D01*
X144096096Y-105018348D01*
X144103158Y-105022063D01*
X144108575Y-105027924D01*
X144143000Y-105052936D01*
X144150248Y-105056277D01*
X144155966Y-105061848D01*
X144191653Y-105085023D01*
X144199068Y-105087981D01*
X144205070Y-105093245D01*
X144241921Y-105114521D01*
X144249475Y-105117085D01*
X144255742Y-105122026D01*
X144293656Y-105141345D01*
X144301341Y-105143513D01*
X144307865Y-105148123D01*
X144346740Y-105165430D01*
X144354518Y-105167190D01*
X144361263Y-105171446D01*
X144400989Y-105186696D01*
X144408858Y-105188048D01*
X144415821Y-105191948D01*
X144456291Y-105205098D01*
X144464220Y-105206037D01*
X144471381Y-105209568D01*
X144512483Y-105220581D01*
X144520447Y-105221103D01*
X144527779Y-105224253D01*
X144569401Y-105233100D01*
X144577379Y-105233204D01*
X144584867Y-105235967D01*
X144626895Y-105242624D01*
X144634871Y-105242311D01*
X144642495Y-105244678D01*
X144684813Y-105249126D01*
X144692758Y-105248396D01*
X144700491Y-105250360D01*
X144742985Y-105252588D01*
X144750888Y-105251442D01*
X144758719Y-105253000D01*
X144801271Y-105253000D01*
X144809100Y-105251443D01*
X144816998Y-105252588D01*
X144859492Y-105250361D01*
X144867225Y-105248397D01*
X144875169Y-105249127D01*
X144917488Y-105244680D01*
X144925113Y-105242312D01*
X144933095Y-105242626D01*
X144975123Y-105235969D01*
X144982608Y-105233207D01*
X144990588Y-105233103D01*
X145032211Y-105224256D01*
X145039546Y-105221105D01*
X145047508Y-105220583D01*
X145088611Y-105209570D01*
X145095769Y-105206040D01*
X145103695Y-105205102D01*
X145144165Y-105191953D01*
X145151128Y-105188053D01*
X145158993Y-105186702D01*
X145198719Y-105171453D01*
X145205467Y-105167195D01*
X145213252Y-105165434D01*
X145252126Y-105148126D01*
X145258645Y-105143519D01*
X145266329Y-105141352D01*
X145304243Y-105122034D01*
X145306475Y-105120274D01*
X145306475Y-105340000D01*
X145338243Y-105508835D01*
X145424000Y-105642105D01*
X145424000Y-107932000D01*
X145470281Y-108164672D01*
X145541394Y-108271100D01*
X145602079Y-108361921D01*
X148287079Y-111046921D01*
X148484328Y-111178719D01*
X148717000Y-111225000D01*
X165100000Y-111225000D01*
X165332672Y-111178719D01*
X165529921Y-111046921D01*
X166799921Y-109776921D01*
X166850650Y-109701000D01*
X186436000Y-109701000D01*
X186668672Y-109654719D01*
X186865921Y-109522921D01*
X187881921Y-108506921D01*
X187896568Y-108485000D01*
X188013719Y-108309672D01*
X188060000Y-108077000D01*
X188060000Y-102362000D01*
X188013719Y-102129328D01*
X187881921Y-101932079D01*
X187119921Y-101170079D01*
X187080891Y-101144000D01*
X186922672Y-101038281D01*
X186690000Y-100992000D01*
X184912000Y-100992000D01*
X184679328Y-101038281D01*
X184521109Y-101144000D01*
X184482079Y-101170079D01*
X183738079Y-101914079D01*
X183606281Y-102111328D01*
X183601572Y-102135000D01*
X182499000Y-102135000D01*
X182462654Y-102141839D01*
X182429273Y-102163319D01*
X182406879Y-102196094D01*
X182399000Y-102235000D01*
X182399000Y-102262000D01*
X177138000Y-102262000D01*
X177138000Y-97917000D01*
X177131161Y-97880654D01*
X177109681Y-97847273D01*
X177076906Y-97824879D01*
X177038000Y-97817000D01*
X176403000Y-97817000D01*
X176366654Y-97823839D01*
X176333273Y-97845319D01*
X176310879Y-97878094D01*
X176303000Y-97917000D01*
X176303000Y-98070121D01*
X176210726Y-98007073D01*
X176030000Y-97970475D01*
X174530000Y-97970475D01*
X174361165Y-98002243D01*
X174206100Y-98102025D01*
X174102073Y-98254274D01*
X174065475Y-98435000D01*
X174065475Y-98452000D01*
X173990000Y-98452000D01*
X173757328Y-98498281D01*
X173560079Y-98630079D01*
X172468158Y-99722000D01*
X172334603Y-99722000D01*
X172048730Y-99435628D01*
X171660893Y-99274584D01*
X171240949Y-99274218D01*
X170852832Y-99434584D01*
X170555628Y-99731270D01*
X170394584Y-100119107D01*
X170394229Y-100526612D01*
X170180000Y-100484000D01*
X166875842Y-100484000D01*
X166676000Y-100284158D01*
X166676000Y-99709738D01*
X166690678Y-99699930D01*
X166881568Y-99414243D01*
X166948600Y-99077252D01*
X166948600Y-99042748D01*
X166881568Y-98705757D01*
X166690678Y-98420070D01*
X166676000Y-98410262D01*
X166676000Y-97996000D01*
X166629719Y-97763328D01*
X166497921Y-97566079D01*
X166164921Y-97233079D01*
X165967672Y-97101281D01*
X165735000Y-97055000D01*
X159385000Y-97055000D01*
X159152328Y-97101281D01*
X158955079Y-97233079D01*
X154590079Y-101598079D01*
X154458281Y-101795328D01*
X154412000Y-102028000D01*
X154412000Y-103024000D01*
X151003000Y-103024000D01*
X150966654Y-103030839D01*
X150933273Y-103052319D01*
X150910879Y-103085094D01*
X150903000Y-103124000D01*
X150903000Y-103532000D01*
X149041842Y-103532000D01*
X149918413Y-102655429D01*
X150323051Y-102655782D01*
X150711168Y-102495416D01*
X151008372Y-102198730D01*
X151169416Y-101810893D01*
X151169782Y-101390949D01*
X151009416Y-101002832D01*
X150712730Y-100705628D01*
X150324893Y-100544584D01*
X149904949Y-100544218D01*
X149516832Y-100704584D01*
X149219628Y-101001270D01*
X149058584Y-101389107D01*
X149058229Y-101795929D01*
X148222158Y-102632000D01*
X147458206Y-102632000D01*
X147447975Y-102616100D01*
X147295726Y-102512073D01*
X147115000Y-102475475D01*
X146640000Y-102475475D01*
X146640000Y-100599842D01*
X147571842Y-99668000D01*
X154055397Y-99668000D01*
X154341270Y-99954372D01*
X154729107Y-100115416D01*
X155149051Y-100115782D01*
X155537168Y-99955416D01*
X155834372Y-99658730D01*
X155995416Y-99270893D01*
X155995782Y-98850949D01*
X155835416Y-98462832D01*
X155538730Y-98165628D01*
X155150893Y-98004584D01*
X154730949Y-98004218D01*
X154342832Y-98164584D01*
X154054914Y-98452000D01*
X147320000Y-98452000D01*
X147087328Y-98498281D01*
X146929109Y-98604000D01*
X146890079Y-98630079D01*
X145602079Y-99918079D01*
X145470281Y-100115328D01*
X145424000Y-100348000D01*
X145424000Y-102640833D01*
X145343073Y-102759274D01*
X145306475Y-102940000D01*
X145306475Y-103159722D01*
X145304258Y-103157974D01*
X145266344Y-103138655D01*
X145258657Y-103136487D01*
X145252135Y-103131878D01*
X145213261Y-103114570D01*
X145205480Y-103112809D01*
X145198737Y-103108555D01*
X145159012Y-103093304D01*
X145151142Y-103091952D01*
X145144179Y-103088052D01*
X145103709Y-103074902D01*
X145095781Y-103073964D01*
X145088620Y-103070432D01*
X145047517Y-103059419D01*
X145039553Y-103058897D01*
X145032221Y-103055747D01*
X144990599Y-103046900D01*
X144982621Y-103046796D01*
X144975133Y-103044033D01*
X144933105Y-103037376D01*
X144925129Y-103037689D01*
X144917505Y-103035322D01*
X144875186Y-103030874D01*
X144867241Y-103031604D01*
X144859509Y-103029640D01*
X144817015Y-103027412D01*
X144809112Y-103028558D01*
X144801281Y-103027000D01*
X144758729Y-103027000D01*
X144750900Y-103028557D01*
X144743002Y-103027412D01*
X144700508Y-103029639D01*
X144692775Y-103031603D01*
X144684831Y-103030873D01*
X144642512Y-103035320D01*
X144634887Y-103037688D01*
X144626905Y-103037374D01*
X144584877Y-103044031D01*
X144577392Y-103046793D01*
X144569412Y-103046897D01*
X144527789Y-103055744D01*
X144520454Y-103058895D01*
X144512492Y-103059417D01*
X144471390Y-103070430D01*
X144464232Y-103073960D01*
X144456305Y-103074898D01*
X144415836Y-103088047D01*
X144408873Y-103091946D01*
X144401007Y-103093298D01*
X144361281Y-103108547D01*
X144354532Y-103112805D01*
X144346749Y-103114566D01*
X144307874Y-103131873D01*
X144301353Y-103136481D01*
X144293671Y-103138648D01*
X144255757Y-103157966D01*
X144249487Y-103162909D01*
X144241930Y-103165474D01*
X144205079Y-103186750D01*
X144199082Y-103192009D01*
X144191670Y-103194966D01*
X144155982Y-103218141D01*
X144150260Y-103223714D01*
X144143008Y-103227058D01*
X144108583Y-103252070D01*
X144103170Y-103257926D01*
X144096112Y-103261639D01*
X144063042Y-103288417D01*
X144057935Y-103294557D01*
X144051071Y-103298641D01*
X144019449Y-103327114D01*
X144014673Y-103333509D01*
X144008038Y-103337943D01*
X143977949Y-103368031D01*
X143973513Y-103374669D01*
X143967122Y-103379442D01*
X143938648Y-103411064D01*
X143934567Y-103417924D01*
X143928431Y-103423027D01*
X143901652Y-103456096D01*
X143897937Y-103463158D01*
X143892076Y-103468575D01*
X143867064Y-103503000D01*
X143863723Y-103510248D01*
X143858152Y-103515966D01*
X143834976Y-103551653D01*
X143832017Y-103559070D01*
X143826755Y-103565070D01*
X143805479Y-103601921D01*
X143802915Y-103609475D01*
X143797974Y-103615742D01*
X143778655Y-103653656D01*
X143776487Y-103661343D01*
X143771878Y-103667865D01*
X143754570Y-103706739D01*
X143752809Y-103714520D01*
X143748555Y-103721263D01*
X143733304Y-103760988D01*
X143731952Y-103768858D01*
X143728052Y-103775821D01*
X143714902Y-103816291D01*
X143713964Y-103824219D01*
X143710432Y-103831380D01*
X143699419Y-103872483D01*
X143698897Y-103880447D01*
X143695747Y-103887779D01*
X143686900Y-103929401D01*
X143686796Y-103937379D01*
X143684033Y-103944867D01*
X143677376Y-103986895D01*
X143677689Y-103994871D01*
X143675322Y-104002495D01*
X143670874Y-104044814D01*
X143671604Y-104052759D01*
X143669640Y-104060491D01*
X143667412Y-104102985D01*
X143668558Y-104110888D01*
X143667000Y-104118719D01*
X142615000Y-104118719D01*
X142615000Y-96768000D01*
X188601000Y-96768000D01*
X188601000Y-111385000D01*
X188601000Y-111385000D01*
G37*
X188601000Y-111385000D02*
X142615000Y-111385000D01*
X142615000Y-104118719D01*
X143667000Y-104118719D01*
X143667000Y-104140000D01*
X143667391Y-104141965D01*
X143667026Y-104143933D01*
X143669132Y-104153841D01*
X143667026Y-104165204D01*
X143668272Y-104171066D01*
X143667412Y-104176998D01*
X143669639Y-104219492D01*
X143671603Y-104227225D01*
X143670873Y-104235169D01*
X143675320Y-104277488D01*
X143677688Y-104285113D01*
X143677374Y-104293095D01*
X143684031Y-104335123D01*
X143686793Y-104342608D01*
X143686897Y-104350588D01*
X143695744Y-104392211D01*
X143698895Y-104399546D01*
X143699417Y-104407508D01*
X143710430Y-104448611D01*
X143713960Y-104455769D01*
X143714898Y-104463695D01*
X143728047Y-104504165D01*
X143731947Y-104511128D01*
X143733298Y-104518993D01*
X143748547Y-104558719D01*
X143752805Y-104565467D01*
X143754566Y-104573252D01*
X143771874Y-104612126D01*
X143776481Y-104618645D01*
X143778648Y-104626329D01*
X143797966Y-104664243D01*
X143802909Y-104670513D01*
X143805474Y-104678070D01*
X143826750Y-104714921D01*
X143832009Y-104720918D01*
X143834966Y-104728330D01*
X143858141Y-104764017D01*
X143863714Y-104769738D01*
X143867058Y-104776992D01*
X143892070Y-104811417D01*
X143897926Y-104816830D01*
X143901639Y-104823888D01*
X143928417Y-104856958D01*
X143934557Y-104862065D01*
X143938641Y-104868929D01*
X143967115Y-104900551D01*
X143973506Y-104905324D01*
X143977942Y-104911962D01*
X144008031Y-104942050D01*
X144014666Y-104946484D01*
X144019442Y-104952879D01*
X144051064Y-104981352D01*
X144057924Y-104985433D01*
X144063027Y-104991569D01*
X144096096Y-105018348D01*
X144103158Y-105022063D01*
X144108575Y-105027924D01*
X144143000Y-105052936D01*
X144150248Y-105056277D01*
X144155966Y-105061848D01*
X144191653Y-105085023D01*
X144199068Y-105087981D01*
X144205070Y-105093245D01*
X144241921Y-105114521D01*
X144249475Y-105117085D01*
X144255742Y-105122026D01*
X144293656Y-105141345D01*
X144301341Y-105143513D01*
X144307865Y-105148123D01*
X144346740Y-105165430D01*
X144354518Y-105167190D01*
X144361263Y-105171446D01*
X144400989Y-105186696D01*
X144408858Y-105188048D01*
X144415821Y-105191948D01*
X144456291Y-105205098D01*
X144464220Y-105206037D01*
X144471381Y-105209568D01*
X144512483Y-105220581D01*
X144520447Y-105221103D01*
X144527779Y-105224253D01*
X144569401Y-105233100D01*
X144577379Y-105233204D01*
X144584867Y-105235967D01*
X144626895Y-105242624D01*
X144634871Y-105242311D01*
X144642495Y-105244678D01*
X144684813Y-105249126D01*
X144692758Y-105248396D01*
X144700491Y-105250360D01*
X144742985Y-105252588D01*
X144750888Y-105251442D01*
X144758719Y-105253000D01*
X144801271Y-105253000D01*
X144809100Y-105251443D01*
X144816998Y-105252588D01*
X144859492Y-105250361D01*
X144867225Y-105248397D01*
X144875169Y-105249127D01*
X144917488Y-105244680D01*
X144925113Y-105242312D01*
X144933095Y-105242626D01*
X144975123Y-105235969D01*
X144982608Y-105233207D01*
X144990588Y-105233103D01*
X145032211Y-105224256D01*
X145039546Y-105221105D01*
X145047508Y-105220583D01*
X145088611Y-105209570D01*
X145095769Y-105206040D01*
X145103695Y-105205102D01*
X145144165Y-105191953D01*
X145151128Y-105188053D01*
X145158993Y-105186702D01*
X145198719Y-105171453D01*
X145205467Y-105167195D01*
X145213252Y-105165434D01*
X145252126Y-105148126D01*
X145258645Y-105143519D01*
X145266329Y-105141352D01*
X145304243Y-105122034D01*
X145306475Y-105120274D01*
X145306475Y-105340000D01*
X145338243Y-105508835D01*
X145424000Y-105642105D01*
X145424000Y-107932000D01*
X145470281Y-108164672D01*
X145541394Y-108271100D01*
X145602079Y-108361921D01*
X148287079Y-111046921D01*
X148484328Y-111178719D01*
X148717000Y-111225000D01*
X165100000Y-111225000D01*
X165332672Y-111178719D01*
X165529921Y-111046921D01*
X166799921Y-109776921D01*
X166850650Y-109701000D01*
X186436000Y-109701000D01*
X186668672Y-109654719D01*
X186865921Y-109522921D01*
X187881921Y-108506921D01*
X187896568Y-108485000D01*
X188013719Y-108309672D01*
X188060000Y-108077000D01*
X188060000Y-102362000D01*
X188013719Y-102129328D01*
X187881921Y-101932079D01*
X187119921Y-101170079D01*
X187080891Y-101144000D01*
X186922672Y-101038281D01*
X186690000Y-100992000D01*
X184912000Y-100992000D01*
X184679328Y-101038281D01*
X184521109Y-101144000D01*
X184482079Y-101170079D01*
X183738079Y-101914079D01*
X183606281Y-102111328D01*
X183601572Y-102135000D01*
X182499000Y-102135000D01*
X182462654Y-102141839D01*
X182429273Y-102163319D01*
X182406879Y-102196094D01*
X182399000Y-102235000D01*
X182399000Y-102262000D01*
X177138000Y-102262000D01*
X177138000Y-97917000D01*
X177131161Y-97880654D01*
X177109681Y-97847273D01*
X177076906Y-97824879D01*
X177038000Y-97817000D01*
X176403000Y-97817000D01*
X176366654Y-97823839D01*
X176333273Y-97845319D01*
X176310879Y-97878094D01*
X176303000Y-97917000D01*
X176303000Y-98070121D01*
X176210726Y-98007073D01*
X176030000Y-97970475D01*
X174530000Y-97970475D01*
X174361165Y-98002243D01*
X174206100Y-98102025D01*
X174102073Y-98254274D01*
X174065475Y-98435000D01*
X174065475Y-98452000D01*
X173990000Y-98452000D01*
X173757328Y-98498281D01*
X173560079Y-98630079D01*
X172468158Y-99722000D01*
X172334603Y-99722000D01*
X172048730Y-99435628D01*
X171660893Y-99274584D01*
X171240949Y-99274218D01*
X170852832Y-99434584D01*
X170555628Y-99731270D01*
X170394584Y-100119107D01*
X170394229Y-100526612D01*
X170180000Y-100484000D01*
X166875842Y-100484000D01*
X166676000Y-100284158D01*
X166676000Y-99709738D01*
X166690678Y-99699930D01*
X166881568Y-99414243D01*
X166948600Y-99077252D01*
X166948600Y-99042748D01*
X166881568Y-98705757D01*
X166690678Y-98420070D01*
X166676000Y-98410262D01*
X166676000Y-97996000D01*
X166629719Y-97763328D01*
X166497921Y-97566079D01*
X166164921Y-97233079D01*
X165967672Y-97101281D01*
X165735000Y-97055000D01*
X159385000Y-97055000D01*
X159152328Y-97101281D01*
X158955079Y-97233079D01*
X154590079Y-101598079D01*
X154458281Y-101795328D01*
X154412000Y-102028000D01*
X154412000Y-103024000D01*
X151003000Y-103024000D01*
X150966654Y-103030839D01*
X150933273Y-103052319D01*
X150910879Y-103085094D01*
X150903000Y-103124000D01*
X150903000Y-103532000D01*
X149041842Y-103532000D01*
X149918413Y-102655429D01*
X150323051Y-102655782D01*
X150711168Y-102495416D01*
X151008372Y-102198730D01*
X151169416Y-101810893D01*
X151169782Y-101390949D01*
X151009416Y-101002832D01*
X150712730Y-100705628D01*
X150324893Y-100544584D01*
X149904949Y-100544218D01*
X149516832Y-100704584D01*
X149219628Y-101001270D01*
X149058584Y-101389107D01*
X149058229Y-101795929D01*
X148222158Y-102632000D01*
X147458206Y-102632000D01*
X147447975Y-102616100D01*
X147295726Y-102512073D01*
X147115000Y-102475475D01*
X146640000Y-102475475D01*
X146640000Y-100599842D01*
X147571842Y-99668000D01*
X154055397Y-99668000D01*
X154341270Y-99954372D01*
X154729107Y-100115416D01*
X155149051Y-100115782D01*
X155537168Y-99955416D01*
X155834372Y-99658730D01*
X155995416Y-99270893D01*
X155995782Y-98850949D01*
X155835416Y-98462832D01*
X155538730Y-98165628D01*
X155150893Y-98004584D01*
X154730949Y-98004218D01*
X154342832Y-98164584D01*
X154054914Y-98452000D01*
X147320000Y-98452000D01*
X147087328Y-98498281D01*
X146929109Y-98604000D01*
X146890079Y-98630079D01*
X145602079Y-99918079D01*
X145470281Y-100115328D01*
X145424000Y-100348000D01*
X145424000Y-102640833D01*
X145343073Y-102759274D01*
X145306475Y-102940000D01*
X145306475Y-103159722D01*
X145304258Y-103157974D01*
X145266344Y-103138655D01*
X145258657Y-103136487D01*
X145252135Y-103131878D01*
X145213261Y-103114570D01*
X145205480Y-103112809D01*
X145198737Y-103108555D01*
X145159012Y-103093304D01*
X145151142Y-103091952D01*
X145144179Y-103088052D01*
X145103709Y-103074902D01*
X145095781Y-103073964D01*
X145088620Y-103070432D01*
X145047517Y-103059419D01*
X145039553Y-103058897D01*
X145032221Y-103055747D01*
X144990599Y-103046900D01*
X144982621Y-103046796D01*
X144975133Y-103044033D01*
X144933105Y-103037376D01*
X144925129Y-103037689D01*
X144917505Y-103035322D01*
X144875186Y-103030874D01*
X144867241Y-103031604D01*
X144859509Y-103029640D01*
X144817015Y-103027412D01*
X144809112Y-103028558D01*
X144801281Y-103027000D01*
X144758729Y-103027000D01*
X144750900Y-103028557D01*
X144743002Y-103027412D01*
X144700508Y-103029639D01*
X144692775Y-103031603D01*
X144684831Y-103030873D01*
X144642512Y-103035320D01*
X144634887Y-103037688D01*
X144626905Y-103037374D01*
X144584877Y-103044031D01*
X144577392Y-103046793D01*
X144569412Y-103046897D01*
X144527789Y-103055744D01*
X144520454Y-103058895D01*
X144512492Y-103059417D01*
X144471390Y-103070430D01*
X144464232Y-103073960D01*
X144456305Y-103074898D01*
X144415836Y-103088047D01*
X144408873Y-103091946D01*
X144401007Y-103093298D01*
X144361281Y-103108547D01*
X144354532Y-103112805D01*
X144346749Y-103114566D01*
X144307874Y-103131873D01*
X144301353Y-103136481D01*
X144293671Y-103138648D01*
X144255757Y-103157966D01*
X144249487Y-103162909D01*
X144241930Y-103165474D01*
X144205079Y-103186750D01*
X144199082Y-103192009D01*
X144191670Y-103194966D01*
X144155982Y-103218141D01*
X144150260Y-103223714D01*
X144143008Y-103227058D01*
X144108583Y-103252070D01*
X144103170Y-103257926D01*
X144096112Y-103261639D01*
X144063042Y-103288417D01*
X144057935Y-103294557D01*
X144051071Y-103298641D01*
X144019449Y-103327114D01*
X144014673Y-103333509D01*
X144008038Y-103337943D01*
X143977949Y-103368031D01*
X143973513Y-103374669D01*
X143967122Y-103379442D01*
X143938648Y-103411064D01*
X143934567Y-103417924D01*
X143928431Y-103423027D01*
X143901652Y-103456096D01*
X143897937Y-103463158D01*
X143892076Y-103468575D01*
X143867064Y-103503000D01*
X143863723Y-103510248D01*
X143858152Y-103515966D01*
X143834976Y-103551653D01*
X143832017Y-103559070D01*
X143826755Y-103565070D01*
X143805479Y-103601921D01*
X143802915Y-103609475D01*
X143797974Y-103615742D01*
X143778655Y-103653656D01*
X143776487Y-103661343D01*
X143771878Y-103667865D01*
X143754570Y-103706739D01*
X143752809Y-103714520D01*
X143748555Y-103721263D01*
X143733304Y-103760988D01*
X143731952Y-103768858D01*
X143728052Y-103775821D01*
X143714902Y-103816291D01*
X143713964Y-103824219D01*
X143710432Y-103831380D01*
X143699419Y-103872483D01*
X143698897Y-103880447D01*
X143695747Y-103887779D01*
X143686900Y-103929401D01*
X143686796Y-103937379D01*
X143684033Y-103944867D01*
X143677376Y-103986895D01*
X143677689Y-103994871D01*
X143675322Y-104002495D01*
X143670874Y-104044814D01*
X143671604Y-104052759D01*
X143669640Y-104060491D01*
X143667412Y-104102985D01*
X143668558Y-104110888D01*
X143667000Y-104118719D01*
X142615000Y-104118719D01*
X142615000Y-96768000D01*
X188601000Y-96768000D01*
X188601000Y-111385000D01*
G36*
X162206000Y-98499078D02*
X162178475Y-98635000D01*
X162178475Y-99485000D01*
X162206000Y-99631285D01*
X162206000Y-104704158D01*
X159481386Y-101979544D01*
X159551416Y-101810893D01*
X159551782Y-101390949D01*
X159391416Y-101002832D01*
X159094730Y-100705628D01*
X158706893Y-100544584D01*
X158286949Y-100544218D01*
X157898832Y-100704584D01*
X157601628Y-101001270D01*
X157440584Y-101389107D01*
X157440218Y-101809051D01*
X157600584Y-102197168D01*
X157897270Y-102494372D01*
X158285107Y-102655416D01*
X158437707Y-102655549D01*
X161702079Y-105919921D01*
X161899329Y-106051720D01*
X162132000Y-106098000D01*
X162206000Y-106098000D01*
X162206000Y-106934000D01*
X162212839Y-106970346D01*
X162234319Y-107003727D01*
X162267094Y-107026121D01*
X162306000Y-107034000D01*
X165762000Y-107034000D01*
X165762000Y-109095158D01*
X164848158Y-110009000D01*
X153897000Y-110009000D01*
X153897000Y-105637000D01*
X156210000Y-105637000D01*
X156246346Y-105630161D01*
X156279727Y-105608681D01*
X156302121Y-105575906D01*
X156310000Y-105537000D01*
X156310000Y-103124000D01*
X156303161Y-103087654D01*
X156281681Y-103054273D01*
X156248906Y-103031879D01*
X156210000Y-103024000D01*
X155628000Y-103024000D01*
X155628000Y-102279842D01*
X159636842Y-98271000D01*
X162206000Y-98271000D01*
X162206000Y-98499078D01*
X162206000Y-98499078D01*
G37*
X162206000Y-98499078D02*
X162178475Y-98635000D01*
X162178475Y-99485000D01*
X162206000Y-99631285D01*
X162206000Y-104704158D01*
X159481386Y-101979544D01*
X159551416Y-101810893D01*
X159551782Y-101390949D01*
X159391416Y-101002832D01*
X159094730Y-100705628D01*
X158706893Y-100544584D01*
X158286949Y-100544218D01*
X157898832Y-100704584D01*
X157601628Y-101001270D01*
X157440584Y-101389107D01*
X157440218Y-101809051D01*
X157600584Y-102197168D01*
X157897270Y-102494372D01*
X158285107Y-102655416D01*
X158437707Y-102655549D01*
X161702079Y-105919921D01*
X161899329Y-106051720D01*
X162132000Y-106098000D01*
X162206000Y-106098000D01*
X162206000Y-106934000D01*
X162212839Y-106970346D01*
X162234319Y-107003727D01*
X162267094Y-107026121D01*
X162306000Y-107034000D01*
X165762000Y-107034000D01*
X165762000Y-109095158D01*
X164848158Y-110009000D01*
X153897000Y-110009000D01*
X153897000Y-105637000D01*
X156210000Y-105637000D01*
X156246346Y-105630161D01*
X156279727Y-105608681D01*
X156302121Y-105575906D01*
X156310000Y-105537000D01*
X156310000Y-103124000D01*
X156303161Y-103087654D01*
X156281681Y-103054273D01*
X156248906Y-103031879D01*
X156210000Y-103024000D01*
X155628000Y-103024000D01*
X155628000Y-102279842D01*
X159636842Y-98271000D01*
X162206000Y-98271000D01*
X162206000Y-98499078D01*
G36*
X168820832Y-101720584D02*
X168523628Y-102017270D01*
X168362584Y-102405107D01*
X168362218Y-102825051D01*
X168522584Y-103213168D01*
X168819270Y-103510372D01*
X169207107Y-103671416D01*
X169613929Y-103671771D01*
X172290079Y-106347921D01*
X172487328Y-106479719D01*
X172720000Y-106526000D01*
X181102000Y-106526000D01*
X181334672Y-106479719D01*
X181531921Y-106347921D01*
X182231842Y-105648000D01*
X182399000Y-105648000D01*
X182399000Y-106045000D01*
X182405839Y-106081346D01*
X182427319Y-106114727D01*
X182460094Y-106137121D01*
X182499000Y-106145000D01*
X183896000Y-106145000D01*
X183932346Y-106138161D01*
X183965727Y-106116681D01*
X183988121Y-106083906D01*
X183996000Y-106045000D01*
X183996000Y-105577698D01*
X184034927Y-105520726D01*
X184071525Y-105340000D01*
X184071525Y-104875000D01*
X184584108Y-104875000D01*
X184607115Y-104900551D01*
X184613506Y-104905324D01*
X184617942Y-104911962D01*
X184648031Y-104942050D01*
X184654666Y-104946484D01*
X184659442Y-104952879D01*
X184691064Y-104981352D01*
X184697924Y-104985433D01*
X184703027Y-104991569D01*
X184736096Y-105018348D01*
X184743158Y-105022063D01*
X184748575Y-105027924D01*
X184783000Y-105052936D01*
X184790248Y-105056277D01*
X184795966Y-105061848D01*
X184831653Y-105085023D01*
X184839068Y-105087981D01*
X184845070Y-105093245D01*
X184881921Y-105114521D01*
X184889475Y-105117085D01*
X184895742Y-105122026D01*
X184933656Y-105141345D01*
X184941341Y-105143513D01*
X184947865Y-105148123D01*
X184986740Y-105165430D01*
X184994518Y-105167190D01*
X185001263Y-105171446D01*
X185040989Y-105186696D01*
X185048858Y-105188048D01*
X185055821Y-105191948D01*
X185096291Y-105205098D01*
X185104220Y-105206037D01*
X185111381Y-105209568D01*
X185152483Y-105220581D01*
X185160447Y-105221103D01*
X185167779Y-105224253D01*
X185209401Y-105233100D01*
X185217379Y-105233204D01*
X185224867Y-105235967D01*
X185266895Y-105242624D01*
X185274871Y-105242311D01*
X185282495Y-105244678D01*
X185324813Y-105249126D01*
X185332758Y-105248396D01*
X185340491Y-105250360D01*
X185382985Y-105252588D01*
X185390888Y-105251442D01*
X185398719Y-105253000D01*
X185441271Y-105253000D01*
X185449100Y-105251443D01*
X185456998Y-105252588D01*
X185499492Y-105250361D01*
X185507225Y-105248397D01*
X185515169Y-105249127D01*
X185557488Y-105244680D01*
X185565113Y-105242312D01*
X185573095Y-105242626D01*
X185615123Y-105235969D01*
X185622608Y-105233207D01*
X185630588Y-105233103D01*
X185672211Y-105224256D01*
X185679546Y-105221105D01*
X185687508Y-105220583D01*
X185728611Y-105209570D01*
X185735769Y-105206040D01*
X185743695Y-105205102D01*
X185784165Y-105191953D01*
X185791128Y-105188053D01*
X185798993Y-105186702D01*
X185838719Y-105171453D01*
X185845467Y-105167195D01*
X185853252Y-105165434D01*
X185892126Y-105148126D01*
X185898645Y-105143519D01*
X185906329Y-105141352D01*
X185944243Y-105122034D01*
X185950513Y-105117091D01*
X185958070Y-105114526D01*
X185994921Y-105093250D01*
X186000918Y-105087991D01*
X186008330Y-105085034D01*
X186044017Y-105061859D01*
X186049738Y-105056286D01*
X186056992Y-105052942D01*
X186091417Y-105027930D01*
X186096830Y-105022074D01*
X186103888Y-105018361D01*
X186136958Y-104991583D01*
X186142065Y-104985443D01*
X186148929Y-104981359D01*
X186180551Y-104952885D01*
X186185324Y-104946494D01*
X186191962Y-104942058D01*
X186222050Y-104911969D01*
X186226484Y-104905334D01*
X186232879Y-104900558D01*
X186261352Y-104868936D01*
X186265433Y-104862076D01*
X186271569Y-104856973D01*
X186298348Y-104823904D01*
X186302063Y-104816842D01*
X186307924Y-104811425D01*
X186332936Y-104777000D01*
X186336277Y-104769752D01*
X186341848Y-104764034D01*
X186365023Y-104728347D01*
X186367981Y-104720932D01*
X186373245Y-104714930D01*
X186394521Y-104678079D01*
X186397085Y-104670525D01*
X186402026Y-104664258D01*
X186421345Y-104626344D01*
X186423513Y-104618659D01*
X186428123Y-104612135D01*
X186445430Y-104573260D01*
X186447190Y-104565482D01*
X186451446Y-104558737D01*
X186466696Y-104519011D01*
X186468048Y-104511142D01*
X186471948Y-104504179D01*
X186485098Y-104463709D01*
X186486037Y-104455780D01*
X186489568Y-104448619D01*
X186500581Y-104407517D01*
X186501103Y-104399553D01*
X186504253Y-104392221D01*
X186513100Y-104350599D01*
X186513204Y-104342621D01*
X186515967Y-104335133D01*
X186522624Y-104293105D01*
X186522311Y-104285129D01*
X186524678Y-104277505D01*
X186529126Y-104235187D01*
X186528396Y-104227242D01*
X186530360Y-104219509D01*
X186532588Y-104177015D01*
X186531442Y-104169112D01*
X186533000Y-104161281D01*
X186533000Y-104140000D01*
X186532609Y-104138035D01*
X186532974Y-104136067D01*
X186530868Y-104126159D01*
X186532974Y-104114796D01*
X186531728Y-104108934D01*
X186532588Y-104103002D01*
X186530361Y-104060508D01*
X186528397Y-104052775D01*
X186529127Y-104044831D01*
X186524680Y-104002512D01*
X186522312Y-103994887D01*
X186522626Y-103986905D01*
X186515969Y-103944877D01*
X186513207Y-103937392D01*
X186513103Y-103929412D01*
X186504256Y-103887789D01*
X186501105Y-103880454D01*
X186500583Y-103872492D01*
X186489570Y-103831390D01*
X186486040Y-103824232D01*
X186485102Y-103816305D01*
X186471953Y-103775836D01*
X186468054Y-103768873D01*
X186466702Y-103761007D01*
X186451453Y-103721281D01*
X186447195Y-103714532D01*
X186445434Y-103706749D01*
X186428127Y-103667874D01*
X186423519Y-103661353D01*
X186421352Y-103653671D01*
X186402034Y-103615757D01*
X186397091Y-103609487D01*
X186394526Y-103601930D01*
X186373250Y-103565079D01*
X186367991Y-103559082D01*
X186365034Y-103551670D01*
X186341859Y-103515982D01*
X186336286Y-103510260D01*
X186332942Y-103503008D01*
X186307930Y-103468583D01*
X186302074Y-103463170D01*
X186298361Y-103456112D01*
X186271583Y-103423042D01*
X186265443Y-103417935D01*
X186261359Y-103411071D01*
X186232886Y-103379449D01*
X186226491Y-103374673D01*
X186222057Y-103368038D01*
X186191969Y-103337949D01*
X186185331Y-103333513D01*
X186180558Y-103327122D01*
X186148936Y-103298648D01*
X186142076Y-103294567D01*
X186136973Y-103288431D01*
X186103904Y-103261652D01*
X186096842Y-103257937D01*
X186091425Y-103252076D01*
X186057000Y-103227064D01*
X186049752Y-103223723D01*
X186044034Y-103218152D01*
X186008347Y-103194976D01*
X186000930Y-103192017D01*
X185994930Y-103186755D01*
X185958079Y-103165479D01*
X185950525Y-103162915D01*
X185944258Y-103157974D01*
X185906344Y-103138655D01*
X185898657Y-103136487D01*
X185892135Y-103131878D01*
X185853261Y-103114570D01*
X185845480Y-103112809D01*
X185838737Y-103108555D01*
X185799012Y-103093304D01*
X185791142Y-103091952D01*
X185784179Y-103088052D01*
X185743709Y-103074902D01*
X185735781Y-103073964D01*
X185728620Y-103070432D01*
X185687517Y-103059419D01*
X185679553Y-103058897D01*
X185672221Y-103055747D01*
X185630599Y-103046900D01*
X185622621Y-103046796D01*
X185615133Y-103044033D01*
X185573105Y-103037376D01*
X185565129Y-103037689D01*
X185557505Y-103035322D01*
X185515186Y-103030874D01*
X185507241Y-103031604D01*
X185499509Y-103029640D01*
X185457015Y-103027412D01*
X185449112Y-103028558D01*
X185441281Y-103027000D01*
X185398729Y-103027000D01*
X185390900Y-103028557D01*
X185383002Y-103027412D01*
X185340508Y-103029639D01*
X185332775Y-103031603D01*
X185324831Y-103030873D01*
X185282512Y-103035320D01*
X185274887Y-103037688D01*
X185266905Y-103037374D01*
X185224877Y-103044031D01*
X185217392Y-103046793D01*
X185209412Y-103046897D01*
X185167789Y-103055744D01*
X185160454Y-103058895D01*
X185152492Y-103059417D01*
X185139000Y-103063032D01*
X185139000Y-102235000D01*
X185138658Y-102233184D01*
X185163842Y-102208000D01*
X186438158Y-102208000D01*
X186844000Y-102613842D01*
X186844000Y-107825158D01*
X186184158Y-108485000D01*
X166978000Y-108485000D01*
X166978000Y-107034000D01*
X167640000Y-107034000D01*
X167676346Y-107027161D01*
X167709727Y-107005681D01*
X167732121Y-106972906D01*
X167740000Y-106934000D01*
X167740000Y-101700000D01*
X168870649Y-101700000D01*
X168820832Y-101720584D01*
X168820832Y-101720584D01*
G37*
X168820832Y-101720584D02*
X168523628Y-102017270D01*
X168362584Y-102405107D01*
X168362218Y-102825051D01*
X168522584Y-103213168D01*
X168819270Y-103510372D01*
X169207107Y-103671416D01*
X169613929Y-103671771D01*
X172290079Y-106347921D01*
X172487328Y-106479719D01*
X172720000Y-106526000D01*
X181102000Y-106526000D01*
X181334672Y-106479719D01*
X181531921Y-106347921D01*
X182231842Y-105648000D01*
X182399000Y-105648000D01*
X182399000Y-106045000D01*
X182405839Y-106081346D01*
X182427319Y-106114727D01*
X182460094Y-106137121D01*
X182499000Y-106145000D01*
X183896000Y-106145000D01*
X183932346Y-106138161D01*
X183965727Y-106116681D01*
X183988121Y-106083906D01*
X183996000Y-106045000D01*
X183996000Y-105577698D01*
X184034927Y-105520726D01*
X184071525Y-105340000D01*
X184071525Y-104875000D01*
X184584108Y-104875000D01*
X184607115Y-104900551D01*
X184613506Y-104905324D01*
X184617942Y-104911962D01*
X184648031Y-104942050D01*
X184654666Y-104946484D01*
X184659442Y-104952879D01*
X184691064Y-104981352D01*
X184697924Y-104985433D01*
X184703027Y-104991569D01*
X184736096Y-105018348D01*
X184743158Y-105022063D01*
X184748575Y-105027924D01*
X184783000Y-105052936D01*
X184790248Y-105056277D01*
X184795966Y-105061848D01*
X184831653Y-105085023D01*
X184839068Y-105087981D01*
X184845070Y-105093245D01*
X184881921Y-105114521D01*
X184889475Y-105117085D01*
X184895742Y-105122026D01*
X184933656Y-105141345D01*
X184941341Y-105143513D01*
X184947865Y-105148123D01*
X184986740Y-105165430D01*
X184994518Y-105167190D01*
X185001263Y-105171446D01*
X185040989Y-105186696D01*
X185048858Y-105188048D01*
X185055821Y-105191948D01*
X185096291Y-105205098D01*
X185104220Y-105206037D01*
X185111381Y-105209568D01*
X185152483Y-105220581D01*
X185160447Y-105221103D01*
X185167779Y-105224253D01*
X185209401Y-105233100D01*
X185217379Y-105233204D01*
X185224867Y-105235967D01*
X185266895Y-105242624D01*
X185274871Y-105242311D01*
X185282495Y-105244678D01*
X185324813Y-105249126D01*
X185332758Y-105248396D01*
X185340491Y-105250360D01*
X185382985Y-105252588D01*
X185390888Y-105251442D01*
X185398719Y-105253000D01*
X185441271Y-105253000D01*
X185449100Y-105251443D01*
X185456998Y-105252588D01*
X185499492Y-105250361D01*
X185507225Y-105248397D01*
X185515169Y-105249127D01*
X185557488Y-105244680D01*
X185565113Y-105242312D01*
X185573095Y-105242626D01*
X185615123Y-105235969D01*
X185622608Y-105233207D01*
X185630588Y-105233103D01*
X185672211Y-105224256D01*
X185679546Y-105221105D01*
X185687508Y-105220583D01*
X185728611Y-105209570D01*
X185735769Y-105206040D01*
X185743695Y-105205102D01*
X185784165Y-105191953D01*
X185791128Y-105188053D01*
X185798993Y-105186702D01*
X185838719Y-105171453D01*
X185845467Y-105167195D01*
X185853252Y-105165434D01*
X185892126Y-105148126D01*
X185898645Y-105143519D01*
X185906329Y-105141352D01*
X185944243Y-105122034D01*
X185950513Y-105117091D01*
X185958070Y-105114526D01*
X185994921Y-105093250D01*
X186000918Y-105087991D01*
X186008330Y-105085034D01*
X186044017Y-105061859D01*
X186049738Y-105056286D01*
X186056992Y-105052942D01*
X186091417Y-105027930D01*
X186096830Y-105022074D01*
X186103888Y-105018361D01*
X186136958Y-104991583D01*
X186142065Y-104985443D01*
X186148929Y-104981359D01*
X186180551Y-104952885D01*
X186185324Y-104946494D01*
X186191962Y-104942058D01*
X186222050Y-104911969D01*
X186226484Y-104905334D01*
X186232879Y-104900558D01*
X186261352Y-104868936D01*
X186265433Y-104862076D01*
X186271569Y-104856973D01*
X186298348Y-104823904D01*
X186302063Y-104816842D01*
X186307924Y-104811425D01*
X186332936Y-104777000D01*
X186336277Y-104769752D01*
X186341848Y-104764034D01*
X186365023Y-104728347D01*
X186367981Y-104720932D01*
X186373245Y-104714930D01*
X186394521Y-104678079D01*
X186397085Y-104670525D01*
X186402026Y-104664258D01*
X186421345Y-104626344D01*
X186423513Y-104618659D01*
X186428123Y-104612135D01*
X186445430Y-104573260D01*
X186447190Y-104565482D01*
X186451446Y-104558737D01*
X186466696Y-104519011D01*
X186468048Y-104511142D01*
X186471948Y-104504179D01*
X186485098Y-104463709D01*
X186486037Y-104455780D01*
X186489568Y-104448619D01*
X186500581Y-104407517D01*
X186501103Y-104399553D01*
X186504253Y-104392221D01*
X186513100Y-104350599D01*
X186513204Y-104342621D01*
X186515967Y-104335133D01*
X186522624Y-104293105D01*
X186522311Y-104285129D01*
X186524678Y-104277505D01*
X186529126Y-104235187D01*
X186528396Y-104227242D01*
X186530360Y-104219509D01*
X186532588Y-104177015D01*
X186531442Y-104169112D01*
X186533000Y-104161281D01*
X186533000Y-104140000D01*
X186532609Y-104138035D01*
X186532974Y-104136067D01*
X186530868Y-104126159D01*
X186532974Y-104114796D01*
X186531728Y-104108934D01*
X186532588Y-104103002D01*
X186530361Y-104060508D01*
X186528397Y-104052775D01*
X186529127Y-104044831D01*
X186524680Y-104002512D01*
X186522312Y-103994887D01*
X186522626Y-103986905D01*
X186515969Y-103944877D01*
X186513207Y-103937392D01*
X186513103Y-103929412D01*
X186504256Y-103887789D01*
X186501105Y-103880454D01*
X186500583Y-103872492D01*
X186489570Y-103831390D01*
X186486040Y-103824232D01*
X186485102Y-103816305D01*
X186471953Y-103775836D01*
X186468054Y-103768873D01*
X186466702Y-103761007D01*
X186451453Y-103721281D01*
X186447195Y-103714532D01*
X186445434Y-103706749D01*
X186428127Y-103667874D01*
X186423519Y-103661353D01*
X186421352Y-103653671D01*
X186402034Y-103615757D01*
X186397091Y-103609487D01*
X186394526Y-103601930D01*
X186373250Y-103565079D01*
X186367991Y-103559082D01*
X186365034Y-103551670D01*
X186341859Y-103515982D01*
X186336286Y-103510260D01*
X186332942Y-103503008D01*
X186307930Y-103468583D01*
X186302074Y-103463170D01*
X186298361Y-103456112D01*
X186271583Y-103423042D01*
X186265443Y-103417935D01*
X186261359Y-103411071D01*
X186232886Y-103379449D01*
X186226491Y-103374673D01*
X186222057Y-103368038D01*
X186191969Y-103337949D01*
X186185331Y-103333513D01*
X186180558Y-103327122D01*
X186148936Y-103298648D01*
X186142076Y-103294567D01*
X186136973Y-103288431D01*
X186103904Y-103261652D01*
X186096842Y-103257937D01*
X186091425Y-103252076D01*
X186057000Y-103227064D01*
X186049752Y-103223723D01*
X186044034Y-103218152D01*
X186008347Y-103194976D01*
X186000930Y-103192017D01*
X185994930Y-103186755D01*
X185958079Y-103165479D01*
X185950525Y-103162915D01*
X185944258Y-103157974D01*
X185906344Y-103138655D01*
X185898657Y-103136487D01*
X185892135Y-103131878D01*
X185853261Y-103114570D01*
X185845480Y-103112809D01*
X185838737Y-103108555D01*
X185799012Y-103093304D01*
X185791142Y-103091952D01*
X185784179Y-103088052D01*
X185743709Y-103074902D01*
X185735781Y-103073964D01*
X185728620Y-103070432D01*
X185687517Y-103059419D01*
X185679553Y-103058897D01*
X185672221Y-103055747D01*
X185630599Y-103046900D01*
X185622621Y-103046796D01*
X185615133Y-103044033D01*
X185573105Y-103037376D01*
X185565129Y-103037689D01*
X185557505Y-103035322D01*
X185515186Y-103030874D01*
X185507241Y-103031604D01*
X185499509Y-103029640D01*
X185457015Y-103027412D01*
X185449112Y-103028558D01*
X185441281Y-103027000D01*
X185398729Y-103027000D01*
X185390900Y-103028557D01*
X185383002Y-103027412D01*
X185340508Y-103029639D01*
X185332775Y-103031603D01*
X185324831Y-103030873D01*
X185282512Y-103035320D01*
X185274887Y-103037688D01*
X185266905Y-103037374D01*
X185224877Y-103044031D01*
X185217392Y-103046793D01*
X185209412Y-103046897D01*
X185167789Y-103055744D01*
X185160454Y-103058895D01*
X185152492Y-103059417D01*
X185139000Y-103063032D01*
X185139000Y-102235000D01*
X185138658Y-102233184D01*
X185163842Y-102208000D01*
X186438158Y-102208000D01*
X186844000Y-102613842D01*
X186844000Y-107825158D01*
X186184158Y-108485000D01*
X166978000Y-108485000D01*
X166978000Y-107034000D01*
X167640000Y-107034000D01*
X167676346Y-107027161D01*
X167709727Y-107005681D01*
X167732121Y-106972906D01*
X167740000Y-106934000D01*
X167740000Y-101700000D01*
X168870649Y-101700000D01*
X168820832Y-101720584D01*
G36*
X188601000Y-111385000D02*
X188155657Y-111385000D01*
X183034070Y-109701000D01*
X186436000Y-109701000D01*
X186668672Y-109654719D01*
X186865921Y-109522921D01*
X187881921Y-108506921D01*
X187896568Y-108485000D01*
X188013719Y-108309672D01*
X188060000Y-108077000D01*
X188060000Y-102362000D01*
X188013719Y-102129328D01*
X187881921Y-101932079D01*
X187119921Y-101170079D01*
X187080891Y-101144000D01*
X186922672Y-101038281D01*
X186690000Y-100992000D01*
X184912000Y-100992000D01*
X184679328Y-101038281D01*
X184521109Y-101144000D01*
X184482079Y-101170079D01*
X183738079Y-101914079D01*
X183606281Y-102111328D01*
X183601572Y-102135000D01*
X182499000Y-102135000D01*
X182462654Y-102141839D01*
X182429273Y-102163319D01*
X182406879Y-102196094D01*
X182399000Y-102235000D01*
X182399000Y-102262000D01*
X177138000Y-102262000D01*
X177138000Y-97917000D01*
X177131161Y-97880654D01*
X177109681Y-97847273D01*
X177076906Y-97824879D01*
X177038000Y-97817000D01*
X176403000Y-97817000D01*
X176366654Y-97823839D01*
X176333273Y-97845319D01*
X176310879Y-97878094D01*
X176303000Y-97917000D01*
X176303000Y-98070121D01*
X176210726Y-98007073D01*
X176030000Y-97970475D01*
X174530000Y-97970475D01*
X174361165Y-98002243D01*
X174206100Y-98102025D01*
X174102073Y-98254274D01*
X174065475Y-98435000D01*
X174065475Y-98452000D01*
X173990000Y-98452000D01*
X173757328Y-98498281D01*
X173560079Y-98630079D01*
X172468158Y-99722000D01*
X172334603Y-99722000D01*
X172048730Y-99435628D01*
X171660893Y-99274584D01*
X171240949Y-99274218D01*
X170852832Y-99434584D01*
X170555628Y-99731270D01*
X170394584Y-100119107D01*
X170394229Y-100526612D01*
X170180000Y-100484000D01*
X166875842Y-100484000D01*
X166676000Y-100284158D01*
X166676000Y-99709738D01*
X166690678Y-99699930D01*
X166881568Y-99414243D01*
X166948600Y-99077252D01*
X166948600Y-99042748D01*
X166881568Y-98705757D01*
X166690678Y-98420070D01*
X166676000Y-98410262D01*
X166676000Y-97996000D01*
X166629719Y-97763328D01*
X166497921Y-97566079D01*
X166164921Y-97233079D01*
X165967672Y-97101281D01*
X165735000Y-97055000D01*
X159385000Y-97055000D01*
X159152328Y-97101281D01*
X158955079Y-97233079D01*
X155530463Y-100657695D01*
X152520483Y-99668000D01*
X154055397Y-99668000D01*
X154341270Y-99954372D01*
X154729107Y-100115416D01*
X155149051Y-100115782D01*
X155537168Y-99955416D01*
X155834372Y-99658730D01*
X155995416Y-99270893D01*
X155995782Y-98850949D01*
X155835416Y-98462832D01*
X155538730Y-98165628D01*
X155150893Y-98004584D01*
X154730949Y-98004218D01*
X154342832Y-98164584D01*
X154054914Y-98452000D01*
X148822235Y-98452000D01*
X143700648Y-96768000D01*
X188601000Y-96768000D01*
X188601000Y-111385000D01*
X188601000Y-111385000D01*
G37*
X188601000Y-111385000D02*
X188155657Y-111385000D01*
X183034070Y-109701000D01*
X186436000Y-109701000D01*
X186668672Y-109654719D01*
X186865921Y-109522921D01*
X187881921Y-108506921D01*
X187896568Y-108485000D01*
X188013719Y-108309672D01*
X188060000Y-108077000D01*
X188060000Y-102362000D01*
X188013719Y-102129328D01*
X187881921Y-101932079D01*
X187119921Y-101170079D01*
X187080891Y-101144000D01*
X186922672Y-101038281D01*
X186690000Y-100992000D01*
X184912000Y-100992000D01*
X184679328Y-101038281D01*
X184521109Y-101144000D01*
X184482079Y-101170079D01*
X183738079Y-101914079D01*
X183606281Y-102111328D01*
X183601572Y-102135000D01*
X182499000Y-102135000D01*
X182462654Y-102141839D01*
X182429273Y-102163319D01*
X182406879Y-102196094D01*
X182399000Y-102235000D01*
X182399000Y-102262000D01*
X177138000Y-102262000D01*
X177138000Y-97917000D01*
X177131161Y-97880654D01*
X177109681Y-97847273D01*
X177076906Y-97824879D01*
X177038000Y-97817000D01*
X176403000Y-97817000D01*
X176366654Y-97823839D01*
X176333273Y-97845319D01*
X176310879Y-97878094D01*
X176303000Y-97917000D01*
X176303000Y-98070121D01*
X176210726Y-98007073D01*
X176030000Y-97970475D01*
X174530000Y-97970475D01*
X174361165Y-98002243D01*
X174206100Y-98102025D01*
X174102073Y-98254274D01*
X174065475Y-98435000D01*
X174065475Y-98452000D01*
X173990000Y-98452000D01*
X173757328Y-98498281D01*
X173560079Y-98630079D01*
X172468158Y-99722000D01*
X172334603Y-99722000D01*
X172048730Y-99435628D01*
X171660893Y-99274584D01*
X171240949Y-99274218D01*
X170852832Y-99434584D01*
X170555628Y-99731270D01*
X170394584Y-100119107D01*
X170394229Y-100526612D01*
X170180000Y-100484000D01*
X166875842Y-100484000D01*
X166676000Y-100284158D01*
X166676000Y-99709738D01*
X166690678Y-99699930D01*
X166881568Y-99414243D01*
X166948600Y-99077252D01*
X166948600Y-99042748D01*
X166881568Y-98705757D01*
X166690678Y-98420070D01*
X166676000Y-98410262D01*
X166676000Y-97996000D01*
X166629719Y-97763328D01*
X166497921Y-97566079D01*
X166164921Y-97233079D01*
X165967672Y-97101281D01*
X165735000Y-97055000D01*
X159385000Y-97055000D01*
X159152328Y-97101281D01*
X158955079Y-97233079D01*
X155530463Y-100657695D01*
X152520483Y-99668000D01*
X154055397Y-99668000D01*
X154341270Y-99954372D01*
X154729107Y-100115416D01*
X155149051Y-100115782D01*
X155537168Y-99955416D01*
X155834372Y-99658730D01*
X155995416Y-99270893D01*
X155995782Y-98850949D01*
X155835416Y-98462832D01*
X155538730Y-98165628D01*
X155150893Y-98004584D01*
X154730949Y-98004218D01*
X154342832Y-98164584D01*
X154054914Y-98452000D01*
X148822235Y-98452000D01*
X143700648Y-96768000D01*
X188601000Y-96768000D01*
X188601000Y-111385000D01*
G36*
X186844000Y-102613842D02*
X186844000Y-107825158D01*
X186184158Y-108485000D01*
X179335822Y-108485000D01*
X173377871Y-106526000D01*
X181102000Y-106526000D01*
X181334672Y-106479719D01*
X181531921Y-106347921D01*
X182231842Y-105648000D01*
X182399000Y-105648000D01*
X182399000Y-106045000D01*
X182405839Y-106081346D01*
X182427319Y-106114727D01*
X182460094Y-106137121D01*
X182499000Y-106145000D01*
X183896000Y-106145000D01*
X183932346Y-106138161D01*
X183965727Y-106116681D01*
X183988121Y-106083906D01*
X183996000Y-106045000D01*
X183996000Y-105577698D01*
X184034927Y-105520726D01*
X184071525Y-105340000D01*
X184071525Y-104875000D01*
X184584108Y-104875000D01*
X184607115Y-104900551D01*
X184613506Y-104905324D01*
X184617942Y-104911962D01*
X184648031Y-104942050D01*
X184654666Y-104946484D01*
X184659442Y-104952879D01*
X184691064Y-104981352D01*
X184697924Y-104985433D01*
X184703027Y-104991569D01*
X184736096Y-105018348D01*
X184743158Y-105022063D01*
X184748575Y-105027924D01*
X184783000Y-105052936D01*
X184790248Y-105056277D01*
X184795966Y-105061848D01*
X184831653Y-105085023D01*
X184839068Y-105087981D01*
X184845070Y-105093245D01*
X184881921Y-105114521D01*
X184889475Y-105117085D01*
X184895742Y-105122026D01*
X184933656Y-105141345D01*
X184941341Y-105143513D01*
X184947865Y-105148123D01*
X184986740Y-105165430D01*
X184994518Y-105167190D01*
X185001263Y-105171446D01*
X185040989Y-105186696D01*
X185048858Y-105188048D01*
X185055821Y-105191948D01*
X185096291Y-105205098D01*
X185104220Y-105206037D01*
X185111381Y-105209568D01*
X185152483Y-105220581D01*
X185160447Y-105221103D01*
X185167779Y-105224253D01*
X185209401Y-105233100D01*
X185217379Y-105233204D01*
X185224867Y-105235967D01*
X185266895Y-105242624D01*
X185274871Y-105242311D01*
X185282495Y-105244678D01*
X185324813Y-105249126D01*
X185332758Y-105248396D01*
X185340491Y-105250360D01*
X185382985Y-105252588D01*
X185390888Y-105251442D01*
X185398719Y-105253000D01*
X185441271Y-105253000D01*
X185449100Y-105251443D01*
X185456998Y-105252588D01*
X185499492Y-105250361D01*
X185507225Y-105248397D01*
X185515169Y-105249127D01*
X185557488Y-105244680D01*
X185565113Y-105242312D01*
X185573095Y-105242626D01*
X185615123Y-105235969D01*
X185622608Y-105233207D01*
X185630588Y-105233103D01*
X185672211Y-105224256D01*
X185679546Y-105221105D01*
X185687508Y-105220583D01*
X185728611Y-105209570D01*
X185735769Y-105206040D01*
X185743695Y-105205102D01*
X185784165Y-105191953D01*
X185791128Y-105188053D01*
X185798993Y-105186702D01*
X185838719Y-105171453D01*
X185845467Y-105167195D01*
X185853252Y-105165434D01*
X185892126Y-105148126D01*
X185898645Y-105143519D01*
X185906329Y-105141352D01*
X185944243Y-105122034D01*
X185950513Y-105117091D01*
X185958070Y-105114526D01*
X185994921Y-105093250D01*
X186000918Y-105087991D01*
X186008330Y-105085034D01*
X186044017Y-105061859D01*
X186049738Y-105056286D01*
X186056992Y-105052942D01*
X186091417Y-105027930D01*
X186096830Y-105022074D01*
X186103888Y-105018361D01*
X186136958Y-104991583D01*
X186142065Y-104985443D01*
X186148929Y-104981359D01*
X186180551Y-104952885D01*
X186185324Y-104946494D01*
X186191962Y-104942058D01*
X186222050Y-104911969D01*
X186226484Y-104905334D01*
X186232879Y-104900558D01*
X186261352Y-104868936D01*
X186265433Y-104862076D01*
X186271569Y-104856973D01*
X186298348Y-104823904D01*
X186302063Y-104816842D01*
X186307924Y-104811425D01*
X186332936Y-104777000D01*
X186336277Y-104769752D01*
X186341848Y-104764034D01*
X186365023Y-104728347D01*
X186367981Y-104720932D01*
X186373245Y-104714930D01*
X186394521Y-104678079D01*
X186397085Y-104670525D01*
X186402026Y-104664258D01*
X186421345Y-104626344D01*
X186423513Y-104618659D01*
X186428123Y-104612135D01*
X186445430Y-104573260D01*
X186447190Y-104565482D01*
X186451446Y-104558737D01*
X186466696Y-104519011D01*
X186468048Y-104511142D01*
X186471948Y-104504179D01*
X186485098Y-104463709D01*
X186486037Y-104455780D01*
X186489568Y-104448619D01*
X186500581Y-104407517D01*
X186501103Y-104399553D01*
X186504253Y-104392221D01*
X186513100Y-104350599D01*
X186513204Y-104342621D01*
X186515967Y-104335133D01*
X186522624Y-104293105D01*
X186522311Y-104285129D01*
X186524678Y-104277505D01*
X186529126Y-104235187D01*
X186528396Y-104227242D01*
X186530360Y-104219509D01*
X186532588Y-104177015D01*
X186531442Y-104169112D01*
X186533000Y-104161281D01*
X186533000Y-104140000D01*
X186532609Y-104138035D01*
X186532974Y-104136067D01*
X186530868Y-104126159D01*
X186532974Y-104114796D01*
X186531728Y-104108934D01*
X186532588Y-104103002D01*
X186530361Y-104060508D01*
X186528397Y-104052775D01*
X186529127Y-104044831D01*
X186524680Y-104002512D01*
X186522312Y-103994887D01*
X186522626Y-103986905D01*
X186515969Y-103944877D01*
X186513207Y-103937392D01*
X186513103Y-103929412D01*
X186504256Y-103887789D01*
X186501105Y-103880454D01*
X186500583Y-103872492D01*
X186489570Y-103831390D01*
X186486040Y-103824232D01*
X186485102Y-103816305D01*
X186471953Y-103775836D01*
X186468054Y-103768873D01*
X186466702Y-103761007D01*
X186451453Y-103721281D01*
X186447195Y-103714532D01*
X186445434Y-103706749D01*
X186428127Y-103667874D01*
X186423519Y-103661353D01*
X186421352Y-103653671D01*
X186402034Y-103615757D01*
X186397091Y-103609487D01*
X186394526Y-103601930D01*
X186373250Y-103565079D01*
X186367991Y-103559082D01*
X186365034Y-103551670D01*
X186341859Y-103515982D01*
X186336286Y-103510260D01*
X186332942Y-103503008D01*
X186307930Y-103468583D01*
X186302074Y-103463170D01*
X186298361Y-103456112D01*
X186271583Y-103423042D01*
X186265443Y-103417935D01*
X186261359Y-103411071D01*
X186232886Y-103379449D01*
X186226491Y-103374673D01*
X186222057Y-103368038D01*
X186191969Y-103337949D01*
X186185331Y-103333513D01*
X186180558Y-103327122D01*
X186148936Y-103298648D01*
X186142076Y-103294567D01*
X186136973Y-103288431D01*
X186103904Y-103261652D01*
X186096842Y-103257937D01*
X186091425Y-103252076D01*
X186057000Y-103227064D01*
X186049752Y-103223723D01*
X186044034Y-103218152D01*
X186008347Y-103194976D01*
X186000930Y-103192017D01*
X185994930Y-103186755D01*
X185958079Y-103165479D01*
X185950525Y-103162915D01*
X185944258Y-103157974D01*
X185906344Y-103138655D01*
X185898657Y-103136487D01*
X185892135Y-103131878D01*
X185853261Y-103114570D01*
X185845480Y-103112809D01*
X185838737Y-103108555D01*
X185799012Y-103093304D01*
X185791142Y-103091952D01*
X185784179Y-103088052D01*
X185743709Y-103074902D01*
X185735781Y-103073964D01*
X185728620Y-103070432D01*
X185687517Y-103059419D01*
X185679553Y-103058897D01*
X185672221Y-103055747D01*
X185630599Y-103046900D01*
X185622621Y-103046796D01*
X185615133Y-103044033D01*
X185573105Y-103037376D01*
X185565129Y-103037689D01*
X185557505Y-103035322D01*
X185515186Y-103030874D01*
X185507241Y-103031604D01*
X185499509Y-103029640D01*
X185457015Y-103027412D01*
X185449112Y-103028558D01*
X185441281Y-103027000D01*
X185398729Y-103027000D01*
X185390900Y-103028557D01*
X185383002Y-103027412D01*
X185340508Y-103029639D01*
X185332775Y-103031603D01*
X185324831Y-103030873D01*
X185282512Y-103035320D01*
X185274887Y-103037688D01*
X185266905Y-103037374D01*
X185224877Y-103044031D01*
X185217392Y-103046793D01*
X185209412Y-103046897D01*
X185167789Y-103055744D01*
X185160454Y-103058895D01*
X185152492Y-103059417D01*
X185139000Y-103063032D01*
X185139000Y-102235000D01*
X185138658Y-102233184D01*
X185163842Y-102208000D01*
X186438158Y-102208000D01*
X186844000Y-102613842D01*
X186844000Y-102613842D01*
G37*
X186844000Y-102613842D02*
X186844000Y-107825158D01*
X186184158Y-108485000D01*
X179335822Y-108485000D01*
X173377871Y-106526000D01*
X181102000Y-106526000D01*
X181334672Y-106479719D01*
X181531921Y-106347921D01*
X182231842Y-105648000D01*
X182399000Y-105648000D01*
X182399000Y-106045000D01*
X182405839Y-106081346D01*
X182427319Y-106114727D01*
X182460094Y-106137121D01*
X182499000Y-106145000D01*
X183896000Y-106145000D01*
X183932346Y-106138161D01*
X183965727Y-106116681D01*
X183988121Y-106083906D01*
X183996000Y-106045000D01*
X183996000Y-105577698D01*
X184034927Y-105520726D01*
X184071525Y-105340000D01*
X184071525Y-104875000D01*
X184584108Y-104875000D01*
X184607115Y-104900551D01*
X184613506Y-104905324D01*
X184617942Y-104911962D01*
X184648031Y-104942050D01*
X184654666Y-104946484D01*
X184659442Y-104952879D01*
X184691064Y-104981352D01*
X184697924Y-104985433D01*
X184703027Y-104991569D01*
X184736096Y-105018348D01*
X184743158Y-105022063D01*
X184748575Y-105027924D01*
X184783000Y-105052936D01*
X184790248Y-105056277D01*
X184795966Y-105061848D01*
X184831653Y-105085023D01*
X184839068Y-105087981D01*
X184845070Y-105093245D01*
X184881921Y-105114521D01*
X184889475Y-105117085D01*
X184895742Y-105122026D01*
X184933656Y-105141345D01*
X184941341Y-105143513D01*
X184947865Y-105148123D01*
X184986740Y-105165430D01*
X184994518Y-105167190D01*
X185001263Y-105171446D01*
X185040989Y-105186696D01*
X185048858Y-105188048D01*
X185055821Y-105191948D01*
X185096291Y-105205098D01*
X185104220Y-105206037D01*
X185111381Y-105209568D01*
X185152483Y-105220581D01*
X185160447Y-105221103D01*
X185167779Y-105224253D01*
X185209401Y-105233100D01*
X185217379Y-105233204D01*
X185224867Y-105235967D01*
X185266895Y-105242624D01*
X185274871Y-105242311D01*
X185282495Y-105244678D01*
X185324813Y-105249126D01*
X185332758Y-105248396D01*
X185340491Y-105250360D01*
X185382985Y-105252588D01*
X185390888Y-105251442D01*
X185398719Y-105253000D01*
X185441271Y-105253000D01*
X185449100Y-105251443D01*
X185456998Y-105252588D01*
X185499492Y-105250361D01*
X185507225Y-105248397D01*
X185515169Y-105249127D01*
X185557488Y-105244680D01*
X185565113Y-105242312D01*
X185573095Y-105242626D01*
X185615123Y-105235969D01*
X185622608Y-105233207D01*
X185630588Y-105233103D01*
X185672211Y-105224256D01*
X185679546Y-105221105D01*
X185687508Y-105220583D01*
X185728611Y-105209570D01*
X185735769Y-105206040D01*
X185743695Y-105205102D01*
X185784165Y-105191953D01*
X185791128Y-105188053D01*
X185798993Y-105186702D01*
X185838719Y-105171453D01*
X185845467Y-105167195D01*
X185853252Y-105165434D01*
X185892126Y-105148126D01*
X185898645Y-105143519D01*
X185906329Y-105141352D01*
X185944243Y-105122034D01*
X185950513Y-105117091D01*
X185958070Y-105114526D01*
X185994921Y-105093250D01*
X186000918Y-105087991D01*
X186008330Y-105085034D01*
X186044017Y-105061859D01*
X186049738Y-105056286D01*
X186056992Y-105052942D01*
X186091417Y-105027930D01*
X186096830Y-105022074D01*
X186103888Y-105018361D01*
X186136958Y-104991583D01*
X186142065Y-104985443D01*
X186148929Y-104981359D01*
X186180551Y-104952885D01*
X186185324Y-104946494D01*
X186191962Y-104942058D01*
X186222050Y-104911969D01*
X186226484Y-104905334D01*
X186232879Y-104900558D01*
X186261352Y-104868936D01*
X186265433Y-104862076D01*
X186271569Y-104856973D01*
X186298348Y-104823904D01*
X186302063Y-104816842D01*
X186307924Y-104811425D01*
X186332936Y-104777000D01*
X186336277Y-104769752D01*
X186341848Y-104764034D01*
X186365023Y-104728347D01*
X186367981Y-104720932D01*
X186373245Y-104714930D01*
X186394521Y-104678079D01*
X186397085Y-104670525D01*
X186402026Y-104664258D01*
X186421345Y-104626344D01*
X186423513Y-104618659D01*
X186428123Y-104612135D01*
X186445430Y-104573260D01*
X186447190Y-104565482D01*
X186451446Y-104558737D01*
X186466696Y-104519011D01*
X186468048Y-104511142D01*
X186471948Y-104504179D01*
X186485098Y-104463709D01*
X186486037Y-104455780D01*
X186489568Y-104448619D01*
X186500581Y-104407517D01*
X186501103Y-104399553D01*
X186504253Y-104392221D01*
X186513100Y-104350599D01*
X186513204Y-104342621D01*
X186515967Y-104335133D01*
X186522624Y-104293105D01*
X186522311Y-104285129D01*
X186524678Y-104277505D01*
X186529126Y-104235187D01*
X186528396Y-104227242D01*
X186530360Y-104219509D01*
X186532588Y-104177015D01*
X186531442Y-104169112D01*
X186533000Y-104161281D01*
X186533000Y-104140000D01*
X186532609Y-104138035D01*
X186532974Y-104136067D01*
X186530868Y-104126159D01*
X186532974Y-104114796D01*
X186531728Y-104108934D01*
X186532588Y-104103002D01*
X186530361Y-104060508D01*
X186528397Y-104052775D01*
X186529127Y-104044831D01*
X186524680Y-104002512D01*
X186522312Y-103994887D01*
X186522626Y-103986905D01*
X186515969Y-103944877D01*
X186513207Y-103937392D01*
X186513103Y-103929412D01*
X186504256Y-103887789D01*
X186501105Y-103880454D01*
X186500583Y-103872492D01*
X186489570Y-103831390D01*
X186486040Y-103824232D01*
X186485102Y-103816305D01*
X186471953Y-103775836D01*
X186468054Y-103768873D01*
X186466702Y-103761007D01*
X186451453Y-103721281D01*
X186447195Y-103714532D01*
X186445434Y-103706749D01*
X186428127Y-103667874D01*
X186423519Y-103661353D01*
X186421352Y-103653671D01*
X186402034Y-103615757D01*
X186397091Y-103609487D01*
X186394526Y-103601930D01*
X186373250Y-103565079D01*
X186367991Y-103559082D01*
X186365034Y-103551670D01*
X186341859Y-103515982D01*
X186336286Y-103510260D01*
X186332942Y-103503008D01*
X186307930Y-103468583D01*
X186302074Y-103463170D01*
X186298361Y-103456112D01*
X186271583Y-103423042D01*
X186265443Y-103417935D01*
X186261359Y-103411071D01*
X186232886Y-103379449D01*
X186226491Y-103374673D01*
X186222057Y-103368038D01*
X186191969Y-103337949D01*
X186185331Y-103333513D01*
X186180558Y-103327122D01*
X186148936Y-103298648D01*
X186142076Y-103294567D01*
X186136973Y-103288431D01*
X186103904Y-103261652D01*
X186096842Y-103257937D01*
X186091425Y-103252076D01*
X186057000Y-103227064D01*
X186049752Y-103223723D01*
X186044034Y-103218152D01*
X186008347Y-103194976D01*
X186000930Y-103192017D01*
X185994930Y-103186755D01*
X185958079Y-103165479D01*
X185950525Y-103162915D01*
X185944258Y-103157974D01*
X185906344Y-103138655D01*
X185898657Y-103136487D01*
X185892135Y-103131878D01*
X185853261Y-103114570D01*
X185845480Y-103112809D01*
X185838737Y-103108555D01*
X185799012Y-103093304D01*
X185791142Y-103091952D01*
X185784179Y-103088052D01*
X185743709Y-103074902D01*
X185735781Y-103073964D01*
X185728620Y-103070432D01*
X185687517Y-103059419D01*
X185679553Y-103058897D01*
X185672221Y-103055747D01*
X185630599Y-103046900D01*
X185622621Y-103046796D01*
X185615133Y-103044033D01*
X185573105Y-103037376D01*
X185565129Y-103037689D01*
X185557505Y-103035322D01*
X185515186Y-103030874D01*
X185507241Y-103031604D01*
X185499509Y-103029640D01*
X185457015Y-103027412D01*
X185449112Y-103028558D01*
X185441281Y-103027000D01*
X185398729Y-103027000D01*
X185390900Y-103028557D01*
X185383002Y-103027412D01*
X185340508Y-103029639D01*
X185332775Y-103031603D01*
X185324831Y-103030873D01*
X185282512Y-103035320D01*
X185274887Y-103037688D01*
X185266905Y-103037374D01*
X185224877Y-103044031D01*
X185217392Y-103046793D01*
X185209412Y-103046897D01*
X185167789Y-103055744D01*
X185160454Y-103058895D01*
X185152492Y-103059417D01*
X185139000Y-103063032D01*
X185139000Y-102235000D01*
X185138658Y-102233184D01*
X185163842Y-102208000D01*
X186438158Y-102208000D01*
X186844000Y-102613842D01*
M02*
