G04 #@! TF.FileFunction,Copper,L2,Bot,Signal*
%FSLAX46Y46*%
G04 Gerber Fmt 4.6, Leading zero omitted, Abs format (unit mm)*
G04 Created by KiCad (PCBNEW 4.0.0-rc1-stable) date 09/11/2017 17:01:20*
%MOMM*%
G01*
G04 APERTURE LIST*
%ADD10C,0.100000*%
%ADD11R,0.850000X0.850000*%
%ADD12O,0.850000X0.850000*%
%ADD13C,1.200000*%
%ADD14C,0.304800*%
%ADD15C,0.200000*%
G04 APERTURE END LIST*
D10*
D11*
X163068000Y-99060000D03*
D12*
X164068000Y-99060000D03*
X165068000Y-99060000D03*
X166068000Y-99060000D03*
X167068000Y-99060000D03*
D13*
X148717000Y-107696000D03*
X171450000Y-100330000D03*
X154940000Y-99060000D03*
X172466000Y-97282000D03*
X143510000Y-97282000D03*
X156845000Y-107950000D03*
X146050000Y-109982000D03*
X144780000Y-106807000D03*
X160401000Y-107950000D03*
X174117000Y-107442000D03*
X179959000Y-107442000D03*
X185547000Y-107442000D03*
X179832000Y-100076000D03*
X160401000Y-107950000D03*
X169418000Y-102616000D03*
X150114000Y-101600000D03*
X158496000Y-101600000D03*
D14*
X171450000Y-100330000D02*
X164794637Y-100330000D01*
X163068000Y-99060000D02*
X163068000Y-99440842D01*
X163068000Y-99440842D02*
X163957158Y-100330000D01*
X163957158Y-100330000D02*
X164794637Y-100330000D01*
X163068000Y-99060000D02*
X162338200Y-99060000D01*
X162338200Y-99060000D02*
X160020000Y-99060000D01*
X149479000Y-99060000D02*
X154940000Y-99060000D01*
X148117001Y-100421999D02*
X149479000Y-99060000D01*
X148717000Y-107696000D02*
X148117001Y-107096001D01*
X148117001Y-107096001D02*
X148117001Y-100421999D01*
X154940000Y-99060000D02*
X160020000Y-99060000D01*
X172466000Y-97282000D02*
X143510000Y-97282000D01*
X167068000Y-99060000D02*
X178816000Y-99060000D01*
X178816000Y-99060000D02*
X179832000Y-100076000D01*
X146050000Y-109982000D02*
X154813000Y-109982000D01*
X154813000Y-109982000D02*
X156845000Y-107950000D01*
X144780000Y-109093000D02*
X145669000Y-109982000D01*
X145669000Y-109982000D02*
X146050000Y-109982000D01*
X144780000Y-106807000D02*
X144780000Y-109093000D01*
X174117000Y-107442000D02*
X160909000Y-107442000D01*
X160909000Y-107442000D02*
X160401000Y-107950000D01*
X185547000Y-107442000D02*
X179959000Y-107442000D01*
X160401000Y-107950000D02*
X160401000Y-107950000D01*
X168402000Y-101600000D02*
X158496000Y-101600000D01*
X169418000Y-102616000D02*
X168402000Y-101600000D01*
X150622000Y-101600000D02*
X150114000Y-101600000D01*
X158496000Y-101600000D02*
X150622000Y-101600000D01*
D15*
G36*
X188601000Y-111385000D02*
X142615000Y-111385000D01*
X142615000Y-104279737D01*
X144074277Y-104279737D01*
X144181472Y-104539168D01*
X144379788Y-104737830D01*
X144639032Y-104845478D01*
X144919737Y-104845723D01*
X145179168Y-104738528D01*
X145377830Y-104540212D01*
X145485478Y-104280968D01*
X145485723Y-104000263D01*
X145378528Y-103740832D01*
X145180212Y-103542170D01*
X144920968Y-103434522D01*
X144640263Y-103434277D01*
X144380832Y-103541472D01*
X144182170Y-103739788D01*
X144074522Y-103999032D01*
X144074277Y-104279737D01*
X142615000Y-104279737D01*
X142615000Y-100421999D01*
X147509001Y-100421999D01*
X147509001Y-107096001D01*
X147555282Y-107328673D01*
X147645257Y-107463329D01*
X147661582Y-107487761D01*
X147661218Y-107905051D01*
X147821584Y-108293168D01*
X148118270Y-108590372D01*
X148506107Y-108751416D01*
X148926051Y-108751782D01*
X149314168Y-108591416D01*
X149611372Y-108294730D01*
X149772416Y-107906893D01*
X149772782Y-107486949D01*
X149612416Y-107098832D01*
X149315730Y-106801628D01*
X148927893Y-106640584D01*
X148725001Y-106640407D01*
X148725001Y-104279737D01*
X184714277Y-104279737D01*
X184821472Y-104539168D01*
X185019788Y-104737830D01*
X185279032Y-104845478D01*
X185559737Y-104845723D01*
X185819168Y-104738528D01*
X186017830Y-104540212D01*
X186125478Y-104280968D01*
X186125723Y-104000263D01*
X186018528Y-103740832D01*
X185820212Y-103542170D01*
X185560968Y-103434522D01*
X185280263Y-103434277D01*
X185020832Y-103541472D01*
X184822170Y-103739788D01*
X184714522Y-103999032D01*
X184714277Y-104279737D01*
X148725001Y-104279737D01*
X148725001Y-101809051D01*
X149058218Y-101809051D01*
X149218584Y-102197168D01*
X149515270Y-102494372D01*
X149903107Y-102655416D01*
X150323051Y-102655782D01*
X150711168Y-102495416D01*
X150999086Y-102208000D01*
X157611397Y-102208000D01*
X157897270Y-102494372D01*
X158285107Y-102655416D01*
X158705051Y-102655782D01*
X159093168Y-102495416D01*
X159381086Y-102208000D01*
X168150158Y-102208000D01*
X168362571Y-102420413D01*
X168362218Y-102825051D01*
X168522584Y-103213168D01*
X168819270Y-103510372D01*
X169207107Y-103671416D01*
X169627051Y-103671782D01*
X170015168Y-103511416D01*
X170312372Y-103214730D01*
X170473416Y-102826893D01*
X170473782Y-102406949D01*
X170313416Y-102018832D01*
X170016730Y-101721628D01*
X169628893Y-101560584D01*
X169222071Y-101560229D01*
X168831921Y-101170079D01*
X168634672Y-101038281D01*
X168402000Y-100992000D01*
X159380603Y-100992000D01*
X159094730Y-100705628D01*
X158706893Y-100544584D01*
X158286949Y-100544218D01*
X157898832Y-100704584D01*
X157610914Y-100992000D01*
X150998603Y-100992000D01*
X150712730Y-100705628D01*
X150324893Y-100544584D01*
X149904949Y-100544218D01*
X149516832Y-100704584D01*
X149219628Y-101001270D01*
X149058584Y-101389107D01*
X149058218Y-101809051D01*
X148725001Y-101809051D01*
X148725001Y-100673841D01*
X149730842Y-99668000D01*
X154055397Y-99668000D01*
X154341270Y-99954372D01*
X154729107Y-100115416D01*
X155149051Y-100115782D01*
X155537168Y-99955416D01*
X155825086Y-99668000D01*
X162219358Y-99668000D01*
X162310025Y-99808900D01*
X162462274Y-99912927D01*
X162643000Y-99949525D01*
X162716841Y-99949525D01*
X163527237Y-100759921D01*
X163724486Y-100891719D01*
X163957158Y-100938000D01*
X170565397Y-100938000D01*
X170851270Y-101224372D01*
X171239107Y-101385416D01*
X171659051Y-101385782D01*
X172047168Y-101225416D01*
X172344372Y-100928730D01*
X172505416Y-100540893D01*
X172505782Y-100120949D01*
X172345416Y-99732832D01*
X172048730Y-99435628D01*
X171660893Y-99274584D01*
X171240949Y-99274218D01*
X170852832Y-99434584D01*
X170564914Y-99722000D01*
X166657648Y-99722000D01*
X166690678Y-99699930D01*
X166881568Y-99414243D01*
X166948600Y-99077252D01*
X166948600Y-99042748D01*
X166881568Y-98705757D01*
X166690678Y-98420070D01*
X166404991Y-98229180D01*
X166068000Y-98162148D01*
X165731009Y-98229180D01*
X165568000Y-98338099D01*
X165404991Y-98229180D01*
X165068000Y-98162148D01*
X164731009Y-98229180D01*
X164568000Y-98338099D01*
X164404991Y-98229180D01*
X164068000Y-98162148D01*
X163731009Y-98229180D01*
X163718406Y-98237601D01*
X163673726Y-98207073D01*
X163493000Y-98170475D01*
X162643000Y-98170475D01*
X162474165Y-98202243D01*
X162319100Y-98302025D01*
X162216627Y-98452000D01*
X155824603Y-98452000D01*
X155538730Y-98165628D01*
X155150893Y-98004584D01*
X154730949Y-98004218D01*
X154342832Y-98164584D01*
X154054914Y-98452000D01*
X149479000Y-98452000D01*
X149246328Y-98498281D01*
X149049079Y-98630079D01*
X147687080Y-99992078D01*
X147555282Y-100189327D01*
X147509001Y-100421999D01*
X142615000Y-100421999D01*
X142615000Y-96768000D01*
X188601000Y-96768000D01*
X188601000Y-111385000D01*
X188601000Y-111385000D01*
G37*
X188601000Y-111385000D02*
X142615000Y-111385000D01*
X142615000Y-104279737D01*
X144074277Y-104279737D01*
X144181472Y-104539168D01*
X144379788Y-104737830D01*
X144639032Y-104845478D01*
X144919737Y-104845723D01*
X145179168Y-104738528D01*
X145377830Y-104540212D01*
X145485478Y-104280968D01*
X145485723Y-104000263D01*
X145378528Y-103740832D01*
X145180212Y-103542170D01*
X144920968Y-103434522D01*
X144640263Y-103434277D01*
X144380832Y-103541472D01*
X144182170Y-103739788D01*
X144074522Y-103999032D01*
X144074277Y-104279737D01*
X142615000Y-104279737D01*
X142615000Y-100421999D01*
X147509001Y-100421999D01*
X147509001Y-107096001D01*
X147555282Y-107328673D01*
X147645257Y-107463329D01*
X147661582Y-107487761D01*
X147661218Y-107905051D01*
X147821584Y-108293168D01*
X148118270Y-108590372D01*
X148506107Y-108751416D01*
X148926051Y-108751782D01*
X149314168Y-108591416D01*
X149611372Y-108294730D01*
X149772416Y-107906893D01*
X149772782Y-107486949D01*
X149612416Y-107098832D01*
X149315730Y-106801628D01*
X148927893Y-106640584D01*
X148725001Y-106640407D01*
X148725001Y-104279737D01*
X184714277Y-104279737D01*
X184821472Y-104539168D01*
X185019788Y-104737830D01*
X185279032Y-104845478D01*
X185559737Y-104845723D01*
X185819168Y-104738528D01*
X186017830Y-104540212D01*
X186125478Y-104280968D01*
X186125723Y-104000263D01*
X186018528Y-103740832D01*
X185820212Y-103542170D01*
X185560968Y-103434522D01*
X185280263Y-103434277D01*
X185020832Y-103541472D01*
X184822170Y-103739788D01*
X184714522Y-103999032D01*
X184714277Y-104279737D01*
X148725001Y-104279737D01*
X148725001Y-101809051D01*
X149058218Y-101809051D01*
X149218584Y-102197168D01*
X149515270Y-102494372D01*
X149903107Y-102655416D01*
X150323051Y-102655782D01*
X150711168Y-102495416D01*
X150999086Y-102208000D01*
X157611397Y-102208000D01*
X157897270Y-102494372D01*
X158285107Y-102655416D01*
X158705051Y-102655782D01*
X159093168Y-102495416D01*
X159381086Y-102208000D01*
X168150158Y-102208000D01*
X168362571Y-102420413D01*
X168362218Y-102825051D01*
X168522584Y-103213168D01*
X168819270Y-103510372D01*
X169207107Y-103671416D01*
X169627051Y-103671782D01*
X170015168Y-103511416D01*
X170312372Y-103214730D01*
X170473416Y-102826893D01*
X170473782Y-102406949D01*
X170313416Y-102018832D01*
X170016730Y-101721628D01*
X169628893Y-101560584D01*
X169222071Y-101560229D01*
X168831921Y-101170079D01*
X168634672Y-101038281D01*
X168402000Y-100992000D01*
X159380603Y-100992000D01*
X159094730Y-100705628D01*
X158706893Y-100544584D01*
X158286949Y-100544218D01*
X157898832Y-100704584D01*
X157610914Y-100992000D01*
X150998603Y-100992000D01*
X150712730Y-100705628D01*
X150324893Y-100544584D01*
X149904949Y-100544218D01*
X149516832Y-100704584D01*
X149219628Y-101001270D01*
X149058584Y-101389107D01*
X149058218Y-101809051D01*
X148725001Y-101809051D01*
X148725001Y-100673841D01*
X149730842Y-99668000D01*
X154055397Y-99668000D01*
X154341270Y-99954372D01*
X154729107Y-100115416D01*
X155149051Y-100115782D01*
X155537168Y-99955416D01*
X155825086Y-99668000D01*
X162219358Y-99668000D01*
X162310025Y-99808900D01*
X162462274Y-99912927D01*
X162643000Y-99949525D01*
X162716841Y-99949525D01*
X163527237Y-100759921D01*
X163724486Y-100891719D01*
X163957158Y-100938000D01*
X170565397Y-100938000D01*
X170851270Y-101224372D01*
X171239107Y-101385416D01*
X171659051Y-101385782D01*
X172047168Y-101225416D01*
X172344372Y-100928730D01*
X172505416Y-100540893D01*
X172505782Y-100120949D01*
X172345416Y-99732832D01*
X172048730Y-99435628D01*
X171660893Y-99274584D01*
X171240949Y-99274218D01*
X170852832Y-99434584D01*
X170564914Y-99722000D01*
X166657648Y-99722000D01*
X166690678Y-99699930D01*
X166881568Y-99414243D01*
X166948600Y-99077252D01*
X166948600Y-99042748D01*
X166881568Y-98705757D01*
X166690678Y-98420070D01*
X166404991Y-98229180D01*
X166068000Y-98162148D01*
X165731009Y-98229180D01*
X165568000Y-98338099D01*
X165404991Y-98229180D01*
X165068000Y-98162148D01*
X164731009Y-98229180D01*
X164568000Y-98338099D01*
X164404991Y-98229180D01*
X164068000Y-98162148D01*
X163731009Y-98229180D01*
X163718406Y-98237601D01*
X163673726Y-98207073D01*
X163493000Y-98170475D01*
X162643000Y-98170475D01*
X162474165Y-98202243D01*
X162319100Y-98302025D01*
X162216627Y-98452000D01*
X155824603Y-98452000D01*
X155538730Y-98165628D01*
X155150893Y-98004584D01*
X154730949Y-98004218D01*
X154342832Y-98164584D01*
X154054914Y-98452000D01*
X149479000Y-98452000D01*
X149246328Y-98498281D01*
X149049079Y-98630079D01*
X147687080Y-99992078D01*
X147555282Y-100189327D01*
X147509001Y-100421999D01*
X142615000Y-100421999D01*
X142615000Y-96768000D01*
X188601000Y-96768000D01*
X188601000Y-111385000D01*
M02*
