G75*
%MOIN*%
%OFA0B0*%
%FSLAX25Y25*%
%IPPOS*%
%LPD*%
%AMOC8*
5,1,8,0,0,1.08239X$1,22.5*
%
%ADD10C,0.01600*%
%ADD11C,0.07124*%
%ADD12C,0.06400*%
D10*
X0001800Y0035590D02*
X0200800Y0035590D01*
X0200770Y0038013D01*
X0200682Y0040434D01*
X0200535Y0042853D01*
X0200328Y0045267D01*
X0200063Y0047676D01*
X0199740Y0050077D01*
X0199358Y0052470D01*
X0198918Y0054853D01*
X0198420Y0057224D01*
X0197864Y0059583D01*
X0197251Y0061927D01*
X0196581Y0064256D01*
X0195855Y0066568D01*
X0195073Y0068861D01*
X0194235Y0071134D01*
X0193342Y0073387D01*
X0192394Y0075617D01*
X0191392Y0077823D01*
X0190337Y0080005D01*
X0189229Y0082160D01*
X0188069Y0084287D01*
X0186857Y0086386D01*
X0185595Y0088454D01*
X0184283Y0090491D01*
X0182921Y0092495D01*
X0181511Y0094466D01*
X0180054Y0096402D01*
X0178550Y0098301D01*
X0177000Y0100164D01*
X0175405Y0101988D01*
X0173766Y0103773D01*
X0172084Y0105517D01*
X0170360Y0107220D01*
X0168596Y0108881D01*
X0166791Y0110498D01*
X0164947Y0112070D01*
X0163066Y0113598D01*
X0161148Y0115079D01*
X0159195Y0116512D01*
X0157207Y0117898D01*
X0155186Y0119235D01*
X0153134Y0120523D01*
X0151050Y0121760D01*
X0148937Y0122945D01*
X0146796Y0124080D01*
X0144627Y0125161D01*
X0142433Y0126190D01*
X0140215Y0127164D01*
X0137973Y0128085D01*
X0135710Y0128951D01*
X0133427Y0129761D01*
X0131124Y0130515D01*
X0128804Y0131213D01*
X0126467Y0131855D01*
X0124115Y0132439D01*
X0121750Y0132966D01*
X0119373Y0133435D01*
X0116985Y0133846D01*
X0114588Y0134199D01*
X0112182Y0134493D01*
X0109771Y0134729D01*
X0107354Y0134906D01*
X0104934Y0135024D01*
X0102512Y0135083D01*
X0100088Y0135083D01*
X0097666Y0135024D01*
X0095246Y0134906D01*
X0092829Y0134729D01*
X0090418Y0134493D01*
X0088012Y0134199D01*
X0085615Y0133846D01*
X0083227Y0133435D01*
X0080850Y0132966D01*
X0078485Y0132439D01*
X0076133Y0131855D01*
X0073796Y0131213D01*
X0071476Y0130515D01*
X0069173Y0129761D01*
X0066890Y0128951D01*
X0064627Y0128085D01*
X0062385Y0127164D01*
X0060167Y0126190D01*
X0057973Y0125161D01*
X0055804Y0124080D01*
X0053663Y0122945D01*
X0051550Y0121760D01*
X0049466Y0120523D01*
X0047414Y0119235D01*
X0045393Y0117898D01*
X0043405Y0116512D01*
X0041452Y0115079D01*
X0039534Y0113598D01*
X0037653Y0112070D01*
X0035809Y0110498D01*
X0034004Y0108881D01*
X0032240Y0107220D01*
X0030516Y0105517D01*
X0028834Y0103773D01*
X0027195Y0101988D01*
X0025600Y0100164D01*
X0024050Y0098301D01*
X0022546Y0096402D01*
X0021089Y0094466D01*
X0019679Y0092495D01*
X0018317Y0090491D01*
X0017005Y0088454D01*
X0015743Y0086386D01*
X0014531Y0084287D01*
X0013371Y0082160D01*
X0012263Y0080005D01*
X0011208Y0077823D01*
X0010206Y0075617D01*
X0009258Y0073387D01*
X0008365Y0071134D01*
X0007527Y0068861D01*
X0006745Y0066568D01*
X0006019Y0064256D01*
X0005349Y0061927D01*
X0004736Y0059583D01*
X0004180Y0057224D01*
X0003682Y0054853D01*
X0003242Y0052470D01*
X0002860Y0050077D01*
X0002537Y0047676D01*
X0002272Y0045267D01*
X0002065Y0042853D01*
X0001918Y0040434D01*
X0001830Y0038013D01*
X0001800Y0035590D01*
X0001800Y0035840D02*
X0001800Y0036840D01*
D11*
X0017917Y0053073D03*
X0035889Y0091013D03*
X0076333Y0117977D03*
X0126267Y0117977D03*
X0166711Y0091013D03*
X0184683Y0053073D03*
D12*
X0126200Y0048200D02*
X0126200Y0041800D01*
X0116200Y0041800D02*
X0116200Y0048200D01*
X0106200Y0048200D02*
X0106200Y0041800D01*
X0096200Y0041800D02*
X0096200Y0048200D01*
X0086200Y0048200D02*
X0086200Y0041800D01*
X0076200Y0041800D02*
X0076200Y0048200D01*
M02*
