G75*
%MOIN*%
%OFA0B0*%
%FSLAX25Y25*%
%IPPOS*%
%LPD*%
%AMOC8*
5,1,8,0,0,1.08239X$1,22.5*
%
%ADD10C,0.01600*%
%ADD11C,0.07124*%
%ADD12C,0.00800*%
%ADD13C,0.06400*%
%ADD14C,0.05600*%
D10*
X0001800Y0035590D02*
X0097300Y0035590D01*
X0001800Y0035590D02*
X0001830Y0038013D01*
X0001918Y0040434D01*
X0002065Y0042853D01*
X0002272Y0045267D01*
X0002537Y0047676D01*
X0002860Y0050077D01*
X0003242Y0052470D01*
X0003682Y0054853D01*
X0004180Y0057224D01*
X0004736Y0059583D01*
X0005349Y0061927D01*
X0006019Y0064256D01*
X0006745Y0066568D01*
X0007527Y0068861D01*
X0008365Y0071134D01*
X0009258Y0073387D01*
X0010206Y0075617D01*
X0011208Y0077823D01*
X0012263Y0080005D01*
X0013371Y0082160D01*
X0014531Y0084287D01*
X0015743Y0086386D01*
X0017005Y0088454D01*
X0018317Y0090491D01*
X0019679Y0092495D01*
X0021089Y0094466D01*
X0022546Y0096402D01*
X0024050Y0098301D01*
X0025600Y0100164D01*
X0027195Y0101988D01*
X0028834Y0103773D01*
X0030516Y0105517D01*
X0032240Y0107220D01*
X0034004Y0108881D01*
X0035809Y0110498D01*
X0037653Y0112070D01*
X0039534Y0113598D01*
X0041452Y0115079D01*
X0043405Y0116512D01*
X0045393Y0117898D01*
X0047414Y0119235D01*
X0049466Y0120523D01*
X0051550Y0121760D01*
X0053663Y0122945D01*
X0055804Y0124080D01*
X0057973Y0125161D01*
X0060167Y0126190D01*
X0062385Y0127164D01*
X0064627Y0128085D01*
X0066890Y0128951D01*
X0069173Y0129761D01*
X0071476Y0130515D01*
X0073796Y0131213D01*
X0076133Y0131855D01*
X0078485Y0132439D01*
X0080850Y0132966D01*
X0083227Y0133435D01*
X0085615Y0133846D01*
X0088012Y0134199D01*
X0090418Y0134493D01*
X0092829Y0134729D01*
X0095246Y0134906D01*
X0097666Y0135024D01*
X0100088Y0135083D01*
X0102512Y0135083D01*
X0104934Y0135024D01*
X0107354Y0134906D01*
X0109771Y0134729D01*
X0112182Y0134493D01*
X0114588Y0134199D01*
X0116985Y0133846D01*
X0119373Y0133435D01*
X0121750Y0132966D01*
X0124115Y0132439D01*
X0126467Y0131855D01*
X0128804Y0131213D01*
X0131124Y0130515D01*
X0133427Y0129761D01*
X0135710Y0128951D01*
X0137973Y0128085D01*
X0140215Y0127164D01*
X0142433Y0126190D01*
X0144627Y0125161D01*
X0146796Y0124080D01*
X0148937Y0122945D01*
X0151050Y0121760D01*
X0153134Y0120523D01*
X0155186Y0119235D01*
X0157207Y0117898D01*
X0159195Y0116512D01*
X0161148Y0115079D01*
X0163066Y0113598D01*
X0164947Y0112070D01*
X0166791Y0110498D01*
X0168596Y0108881D01*
X0170360Y0107220D01*
X0172084Y0105517D01*
X0173766Y0103773D01*
X0175405Y0101988D01*
X0177000Y0100164D01*
X0178550Y0098301D01*
X0180054Y0096402D01*
X0181511Y0094466D01*
X0182921Y0092495D01*
X0184283Y0090491D01*
X0185595Y0088454D01*
X0186857Y0086386D01*
X0188069Y0084287D01*
X0189229Y0082160D01*
X0190337Y0080005D01*
X0191392Y0077823D01*
X0192394Y0075617D01*
X0193342Y0073387D01*
X0194235Y0071134D01*
X0195073Y0068861D01*
X0195855Y0066568D01*
X0196581Y0064256D01*
X0197251Y0061927D01*
X0197864Y0059583D01*
X0198420Y0057224D01*
X0198918Y0054853D01*
X0199358Y0052470D01*
X0199740Y0050077D01*
X0200063Y0047676D01*
X0200328Y0045267D01*
X0200535Y0042853D01*
X0200682Y0040434D01*
X0200770Y0038013D01*
X0200800Y0035590D01*
X0105550Y0035590D01*
X0001800Y0035840D02*
X0001800Y0036840D01*
D11*
X0017917Y0053073D03*
X0035889Y0091013D03*
X0076333Y0117977D03*
X0126267Y0117977D03*
X0166711Y0091013D03*
X0184683Y0053073D03*
D12*
X0193383Y0046203D02*
X0194446Y0047366D01*
X0195314Y0048681D01*
X0195966Y0050116D01*
X0196385Y0051635D01*
X0196561Y0053201D01*
X0196490Y0054775D01*
X0196114Y0056305D01*
X0195502Y0057757D01*
X0194672Y0059096D01*
X0193641Y0060288D01*
X0192438Y0061304D01*
X0191090Y0062120D01*
X0189630Y0062715D01*
X0188096Y0063074D01*
X0186525Y0063189D01*
X0184955Y0063056D01*
X0169705Y0058472D01*
X0170952Y0057713D01*
X0172061Y0056765D01*
X0173006Y0055651D01*
X0173760Y0054402D01*
X0174306Y0053048D01*
X0174630Y0051624D01*
X0174722Y0050167D01*
X0174580Y0048715D01*
X0174209Y0047303D01*
X0173617Y0045968D01*
X0172820Y0044745D01*
X0171839Y0043665D01*
X0187763Y0043573D01*
X0189306Y0043889D01*
X0190781Y0044443D01*
X0192152Y0045221D01*
X0193383Y0046203D01*
X0193041Y0045930D02*
X0173592Y0045930D01*
X0173954Y0046729D02*
X0193864Y0046729D01*
X0194553Y0047527D02*
X0174268Y0047527D01*
X0174478Y0048326D02*
X0195080Y0048326D01*
X0195515Y0049124D02*
X0174620Y0049124D01*
X0174698Y0049923D02*
X0195878Y0049923D01*
X0196133Y0050721D02*
X0174687Y0050721D01*
X0174636Y0051520D02*
X0196353Y0051520D01*
X0196462Y0052318D02*
X0174472Y0052318D01*
X0174279Y0053117D02*
X0196552Y0053117D01*
X0196529Y0053915D02*
X0173957Y0053915D01*
X0173572Y0054714D02*
X0196493Y0054714D01*
X0196309Y0055512D02*
X0173090Y0055512D01*
X0172446Y0056311D02*
X0196111Y0056311D01*
X0195775Y0057110D02*
X0171658Y0057110D01*
X0170631Y0057908D02*
X0195409Y0057908D01*
X0194913Y0058707D02*
X0170484Y0058707D01*
X0173140Y0059505D02*
X0194318Y0059505D01*
X0193623Y0060304D02*
X0175797Y0060304D01*
X0178453Y0061102D02*
X0192677Y0061102D01*
X0191452Y0061901D02*
X0181110Y0061901D01*
X0183766Y0062699D02*
X0189669Y0062699D01*
X0164950Y0078669D02*
X0161234Y0078669D01*
X0161237Y0079055D02*
X0161227Y0077596D01*
X0160985Y0076156D01*
X0174435Y0084682D01*
X0175563Y0085782D01*
X0176505Y0087045D01*
X0177238Y0088439D01*
X0177744Y0089932D01*
X0178010Y0091485D01*
X0178030Y0093060D01*
X0177803Y0094619D01*
X0177335Y0096124D01*
X0176637Y0097537D01*
X0175727Y0098823D01*
X0174584Y0099907D01*
X0173285Y0100799D01*
X0171863Y0101477D01*
X0170352Y0101924D01*
X0168789Y0102129D01*
X0167214Y0102087D01*
X0165665Y0101799D01*
X0164180Y0101273D01*
X0162796Y0100520D01*
X0161546Y0099561D01*
X0151189Y0087464D01*
X0152649Y0087499D01*
X0154095Y0087300D01*
X0155491Y0086874D01*
X0156801Y0086230D01*
X0157992Y0085386D01*
X0159033Y0084362D01*
X0159898Y0083186D01*
X0160564Y0081887D01*
X0161014Y0080498D01*
X0161237Y0079055D01*
X0161173Y0079468D02*
X0166209Y0079468D01*
X0167469Y0080266D02*
X0161050Y0080266D01*
X0160830Y0081065D02*
X0168729Y0081065D01*
X0169989Y0081863D02*
X0160571Y0081863D01*
X0160166Y0082662D02*
X0171248Y0082662D01*
X0172508Y0083460D02*
X0159696Y0083460D01*
X0159109Y0084259D02*
X0173768Y0084259D01*
X0174820Y0085057D02*
X0158326Y0085057D01*
X0157329Y0085856D02*
X0175618Y0085856D01*
X0176214Y0086654D02*
X0155937Y0086654D01*
X0152983Y0087453D02*
X0176719Y0087453D01*
X0177139Y0088251D02*
X0151863Y0088251D01*
X0152547Y0089050D02*
X0177445Y0089050D01*
X0177715Y0089848D02*
X0153231Y0089848D01*
X0153914Y0090647D02*
X0177866Y0090647D01*
X0178003Y0091445D02*
X0154598Y0091445D01*
X0155282Y0092244D02*
X0178019Y0092244D01*
X0178029Y0093043D02*
X0155965Y0093043D01*
X0156649Y0093841D02*
X0177916Y0093841D01*
X0177796Y0094640D02*
X0157333Y0094640D01*
X0158016Y0095438D02*
X0177548Y0095438D01*
X0177279Y0096237D02*
X0158700Y0096237D01*
X0159384Y0097035D02*
X0176885Y0097035D01*
X0176427Y0097834D02*
X0160067Y0097834D01*
X0160751Y0098632D02*
X0175863Y0098632D01*
X0175087Y0099431D02*
X0161435Y0099431D01*
X0162417Y0100229D02*
X0174115Y0100229D01*
X0172805Y0101028D02*
X0163730Y0101028D01*
X0165811Y0101826D02*
X0170681Y0101826D01*
X0136189Y0116839D02*
X0136541Y0118375D01*
X0136649Y0119947D01*
X0136510Y0121516D01*
X0136126Y0123045D01*
X0135509Y0124494D01*
X0134672Y0125829D01*
X0133637Y0127017D01*
X0132428Y0128028D01*
X0131077Y0128838D01*
X0129615Y0129426D01*
X0128067Y0129718D01*
X0126492Y0129764D01*
X0124929Y0129563D01*
X0123417Y0129120D01*
X0121993Y0128446D01*
X0120691Y0127558D01*
X0119545Y0126477D01*
X0118582Y0125230D01*
X0117826Y0123848D01*
X0117295Y0122364D01*
X0115142Y0106586D01*
X0116350Y0107406D01*
X0117674Y0108022D01*
X0119078Y0108420D01*
X0120528Y0108588D01*
X0121987Y0108524D01*
X0123416Y0108227D01*
X0124780Y0107707D01*
X0126043Y0106976D01*
X0127174Y0106052D01*
X0128143Y0104961D01*
X0128926Y0103728D01*
X0129502Y0102387D01*
X0136189Y0116839D01*
X0136225Y0116998D02*
X0116563Y0116998D01*
X0116672Y0117796D02*
X0136409Y0117796D01*
X0136556Y0118595D02*
X0116781Y0118595D01*
X0116890Y0119393D02*
X0136611Y0119393D01*
X0136627Y0120192D02*
X0116999Y0120192D01*
X0117108Y0120990D02*
X0136556Y0120990D01*
X0136441Y0121789D02*
X0117217Y0121789D01*
X0117375Y0122587D02*
X0136241Y0122587D01*
X0135981Y0123386D02*
X0117661Y0123386D01*
X0118010Y0124184D02*
X0135641Y0124184D01*
X0135202Y0124983D02*
X0118447Y0124983D01*
X0119008Y0125781D02*
X0134702Y0125781D01*
X0134018Y0126580D02*
X0119654Y0126580D01*
X0120501Y0127379D02*
X0133205Y0127379D01*
X0132180Y0128177D02*
X0121598Y0128177D01*
X0123111Y0128976D02*
X0130735Y0128976D01*
X0135893Y0116199D02*
X0116454Y0116199D01*
X0116345Y0115401D02*
X0135523Y0115401D01*
X0135154Y0114602D02*
X0116236Y0114602D01*
X0116127Y0113804D02*
X0134784Y0113804D01*
X0134415Y0113005D02*
X0116018Y0113005D01*
X0115909Y0112207D02*
X0134045Y0112207D01*
X0133676Y0111408D02*
X0115800Y0111408D01*
X0115691Y0110610D02*
X0133307Y0110610D01*
X0132937Y0109811D02*
X0115582Y0109811D01*
X0115474Y0109013D02*
X0132568Y0109013D01*
X0132198Y0108214D02*
X0123451Y0108214D01*
X0125283Y0107416D02*
X0131829Y0107416D01*
X0131459Y0106617D02*
X0126482Y0106617D01*
X0127381Y0105819D02*
X0131090Y0105819D01*
X0130720Y0105020D02*
X0128090Y0105020D01*
X0128612Y0104222D02*
X0130351Y0104222D01*
X0129981Y0103423D02*
X0129057Y0103423D01*
X0129400Y0102625D02*
X0129612Y0102625D01*
X0118352Y0108214D02*
X0115365Y0108214D01*
X0115256Y0107416D02*
X0116372Y0107416D01*
X0115188Y0106617D02*
X0115147Y0106617D01*
X0087458Y0106586D02*
X0085305Y0122364D01*
X0084774Y0123848D01*
X0084018Y0125230D01*
X0083055Y0126477D01*
X0081909Y0127558D01*
X0080608Y0128447D01*
X0079183Y0129120D01*
X0077671Y0129563D01*
X0076108Y0129764D01*
X0074533Y0129718D01*
X0072985Y0129426D01*
X0071523Y0128838D01*
X0070172Y0128028D01*
X0068963Y0127017D01*
X0067928Y0125829D01*
X0067091Y0124494D01*
X0066474Y0123044D01*
X0066091Y0121516D01*
X0065951Y0119947D01*
X0066059Y0118375D01*
X0066411Y0116839D01*
X0073098Y0102387D01*
X0073674Y0103728D01*
X0074457Y0104961D01*
X0075426Y0106052D01*
X0076557Y0106976D01*
X0077820Y0107707D01*
X0079184Y0108227D01*
X0080613Y0108524D01*
X0082072Y0108588D01*
X0083522Y0108420D01*
X0084926Y0108022D01*
X0086250Y0107406D01*
X0087458Y0106586D01*
X0087453Y0106617D02*
X0087411Y0106617D01*
X0087344Y0107416D02*
X0086228Y0107416D01*
X0087235Y0108214D02*
X0084248Y0108214D01*
X0087018Y0109811D02*
X0069663Y0109811D01*
X0070032Y0109013D02*
X0087126Y0109013D01*
X0086909Y0110610D02*
X0069293Y0110610D01*
X0068924Y0111408D02*
X0086800Y0111408D01*
X0086691Y0112207D02*
X0068555Y0112207D01*
X0068185Y0113005D02*
X0086582Y0113005D01*
X0086473Y0113804D02*
X0067816Y0113804D01*
X0067446Y0114602D02*
X0086364Y0114602D01*
X0086255Y0115401D02*
X0067077Y0115401D01*
X0066707Y0116199D02*
X0086146Y0116199D01*
X0086037Y0116998D02*
X0066375Y0116998D01*
X0066191Y0117796D02*
X0085928Y0117796D01*
X0085819Y0118595D02*
X0066044Y0118595D01*
X0065989Y0119393D02*
X0085710Y0119393D01*
X0085601Y0120192D02*
X0065973Y0120192D01*
X0066044Y0120990D02*
X0085492Y0120990D01*
X0085383Y0121789D02*
X0066159Y0121789D01*
X0066359Y0122587D02*
X0085225Y0122587D01*
X0084939Y0123386D02*
X0066619Y0123386D01*
X0066960Y0124184D02*
X0084590Y0124184D01*
X0084153Y0124983D02*
X0067398Y0124983D01*
X0067898Y0125781D02*
X0083592Y0125781D01*
X0082946Y0126580D02*
X0068583Y0126580D01*
X0069396Y0127379D02*
X0082099Y0127379D01*
X0081002Y0128177D02*
X0070420Y0128177D01*
X0071865Y0128976D02*
X0079490Y0128976D01*
X0079149Y0108214D02*
X0070402Y0108214D01*
X0070771Y0107416D02*
X0077317Y0107416D01*
X0076118Y0106617D02*
X0071141Y0106617D01*
X0071510Y0105819D02*
X0075219Y0105819D01*
X0074510Y0105020D02*
X0071880Y0105020D01*
X0072249Y0104222D02*
X0073988Y0104222D01*
X0073543Y0103423D02*
X0072619Y0103423D01*
X0072988Y0102625D02*
X0073200Y0102625D01*
X0051411Y0087464D02*
X0041054Y0099561D01*
X0039804Y0100520D01*
X0038420Y0101273D01*
X0036935Y0101799D01*
X0035386Y0102087D01*
X0033811Y0102129D01*
X0032248Y0101924D01*
X0030737Y0101477D01*
X0029315Y0100799D01*
X0028016Y0099907D01*
X0026873Y0098823D01*
X0025963Y0097537D01*
X0025265Y0096124D01*
X0024797Y0094619D01*
X0024571Y0093060D01*
X0024590Y0091485D01*
X0024857Y0089932D01*
X0025362Y0088439D01*
X0026095Y0087045D01*
X0027037Y0085782D01*
X0028165Y0084682D01*
X0041615Y0076156D01*
X0041373Y0077596D01*
X0041363Y0079055D01*
X0041586Y0080498D01*
X0042036Y0081887D01*
X0042702Y0083186D01*
X0043567Y0084362D01*
X0044608Y0085386D01*
X0045799Y0086230D01*
X0047109Y0086874D01*
X0048505Y0087300D01*
X0049951Y0087499D01*
X0051411Y0087464D01*
X0050737Y0088251D02*
X0025461Y0088251D01*
X0025155Y0089050D02*
X0050053Y0089050D01*
X0049369Y0089848D02*
X0024885Y0089848D01*
X0024734Y0090647D02*
X0048686Y0090647D01*
X0048002Y0091445D02*
X0024597Y0091445D01*
X0024581Y0092244D02*
X0047318Y0092244D01*
X0046635Y0093043D02*
X0024571Y0093043D01*
X0024684Y0093841D02*
X0045951Y0093841D01*
X0045267Y0094640D02*
X0024804Y0094640D01*
X0025052Y0095438D02*
X0044584Y0095438D01*
X0043900Y0096237D02*
X0025321Y0096237D01*
X0025715Y0097035D02*
X0043216Y0097035D01*
X0042533Y0097834D02*
X0026173Y0097834D01*
X0026737Y0098632D02*
X0041849Y0098632D01*
X0041165Y0099431D02*
X0027513Y0099431D01*
X0028485Y0100229D02*
X0040183Y0100229D01*
X0038871Y0101028D02*
X0029794Y0101028D01*
X0031918Y0101826D02*
X0036789Y0101826D01*
X0025881Y0087453D02*
X0049617Y0087453D01*
X0046663Y0086654D02*
X0026386Y0086654D01*
X0026982Y0085856D02*
X0045271Y0085856D01*
X0044274Y0085057D02*
X0027780Y0085057D01*
X0028832Y0084259D02*
X0043491Y0084259D01*
X0042904Y0083460D02*
X0030092Y0083460D01*
X0031352Y0082662D02*
X0042434Y0082662D01*
X0042029Y0081863D02*
X0032611Y0081863D01*
X0033871Y0081065D02*
X0041770Y0081065D01*
X0041550Y0080266D02*
X0035131Y0080266D01*
X0036391Y0079468D02*
X0041427Y0079468D01*
X0041366Y0078669D02*
X0037650Y0078669D01*
X0038910Y0077871D02*
X0041371Y0077871D01*
X0041461Y0077072D02*
X0040170Y0077072D01*
X0041430Y0076274D02*
X0041595Y0076274D01*
X0021490Y0061901D02*
X0011147Y0061901D01*
X0011510Y0062120D02*
X0010162Y0061304D01*
X0008958Y0060288D01*
X0007928Y0059096D01*
X0007097Y0057757D01*
X0006486Y0056305D01*
X0006110Y0054775D01*
X0006039Y0053201D01*
X0006215Y0051635D01*
X0006634Y0050116D01*
X0007286Y0048681D01*
X0008154Y0047366D01*
X0009217Y0046203D01*
X0010449Y0045221D01*
X0011819Y0044443D01*
X0013294Y0043889D01*
X0014837Y0043573D01*
X0030761Y0043665D01*
X0029780Y0044745D01*
X0028983Y0045968D01*
X0028391Y0047303D01*
X0028020Y0048715D01*
X0027878Y0050167D01*
X0027970Y0051624D01*
X0028294Y0053048D01*
X0028840Y0054402D01*
X0029594Y0055651D01*
X0030539Y0056765D01*
X0031648Y0057713D01*
X0032895Y0058472D01*
X0017645Y0063056D01*
X0016075Y0063189D01*
X0014504Y0063074D01*
X0012969Y0062715D01*
X0011510Y0062120D01*
X0012931Y0062699D02*
X0018834Y0062699D01*
X0024147Y0061102D02*
X0009923Y0061102D01*
X0008977Y0060304D02*
X0026803Y0060304D01*
X0029460Y0059505D02*
X0008282Y0059505D01*
X0007687Y0058707D02*
X0032116Y0058707D01*
X0031969Y0057908D02*
X0007191Y0057908D01*
X0006825Y0057110D02*
X0030942Y0057110D01*
X0030154Y0056311D02*
X0006489Y0056311D01*
X0006291Y0055512D02*
X0029510Y0055512D01*
X0029028Y0054714D02*
X0006107Y0054714D01*
X0006071Y0053915D02*
X0028643Y0053915D01*
X0028321Y0053117D02*
X0006048Y0053117D01*
X0006138Y0052318D02*
X0028128Y0052318D01*
X0027964Y0051520D02*
X0006247Y0051520D01*
X0006467Y0050721D02*
X0027913Y0050721D01*
X0027902Y0049923D02*
X0006722Y0049923D01*
X0007085Y0049124D02*
X0027980Y0049124D01*
X0028122Y0048326D02*
X0007521Y0048326D01*
X0008048Y0047527D02*
X0028332Y0047527D01*
X0028646Y0046729D02*
X0008736Y0046729D01*
X0009559Y0045930D02*
X0029008Y0045930D01*
X0029528Y0045132D02*
X0010605Y0045132D01*
X0012111Y0044333D02*
X0030154Y0044333D01*
X0161005Y0076274D02*
X0161170Y0076274D01*
X0161139Y0077072D02*
X0162430Y0077072D01*
X0161229Y0077871D02*
X0163690Y0077871D01*
X0173072Y0045132D02*
X0191995Y0045132D01*
X0190490Y0044333D02*
X0172446Y0044333D01*
D13*
X0126200Y0041800D02*
X0126200Y0048200D01*
X0116200Y0048200D02*
X0116200Y0041800D01*
X0106200Y0041800D02*
X0106200Y0048200D01*
X0096200Y0048200D02*
X0096200Y0041800D01*
X0086200Y0041800D02*
X0086200Y0048200D01*
X0076200Y0048200D02*
X0076200Y0041800D01*
D14*
X0076200Y0045000D02*
X0053640Y0045000D01*
X0045800Y0052840D01*
X0018150Y0052840D01*
X0017917Y0053073D01*
X0054062Y0072840D02*
X0035889Y0091013D01*
X0054062Y0072840D02*
X0071800Y0072840D01*
X0086200Y0058440D01*
X0086200Y0045000D01*
X0096200Y0045000D02*
X0096200Y0073640D01*
X0079400Y0090440D01*
X0079400Y0114910D01*
X0076333Y0117977D01*
X0123600Y0115310D02*
X0123600Y0090740D01*
X0106200Y0073340D01*
X0106200Y0045000D01*
X0116200Y0045000D02*
X0116200Y0059240D01*
X0129800Y0072840D01*
X0148538Y0072840D01*
X0166711Y0091013D01*
X0126267Y0117977D02*
X0123600Y0115310D01*
X0156800Y0052840D02*
X0184450Y0052840D01*
X0184683Y0053073D01*
X0156800Y0052840D02*
X0148960Y0045000D01*
X0126200Y0045000D01*
M02*
