G04 #@! TF.FileFunction,Other,ECO2*
%FSLAX46Y46*%
G04 Gerber Fmt 4.6, Leading zero omitted, Abs format (unit mm)*
G04 Created by KiCad (PCBNEW 4.0.0-rc1-stable) date 02/05/2017 19:54:53*
%MOMM*%
G01*
G04 APERTURE LIST*
%ADD10C,0.100000*%
%ADD11C,0.250000*%
G04 APERTURE END LIST*
D10*
D11*
X139572905Y-105698400D02*
X139477667Y-105650781D01*
X139334810Y-105650781D01*
X139191952Y-105698400D01*
X139096714Y-105793638D01*
X139049095Y-105888876D01*
X139001476Y-106079352D01*
X139001476Y-106222210D01*
X139049095Y-106412686D01*
X139096714Y-106507924D01*
X139191952Y-106603162D01*
X139334810Y-106650781D01*
X139430048Y-106650781D01*
X139572905Y-106603162D01*
X139620524Y-106555543D01*
X139620524Y-106222210D01*
X139430048Y-106222210D01*
X140620524Y-106650781D02*
X140287190Y-106174590D01*
X140049095Y-106650781D02*
X140049095Y-105650781D01*
X140430048Y-105650781D01*
X140525286Y-105698400D01*
X140572905Y-105746019D01*
X140620524Y-105841257D01*
X140620524Y-105984114D01*
X140572905Y-106079352D01*
X140525286Y-106126971D01*
X140430048Y-106174590D01*
X140049095Y-106174590D01*
X141049095Y-106650781D02*
X141049095Y-105650781D01*
X141525285Y-106650781D02*
X141525285Y-105650781D01*
X141763380Y-105650781D01*
X141906238Y-105698400D01*
X142001476Y-105793638D01*
X142049095Y-105888876D01*
X142096714Y-106079352D01*
X142096714Y-106222210D01*
X142049095Y-106412686D01*
X142001476Y-106507924D01*
X141906238Y-106603162D01*
X141763380Y-106650781D01*
X141525285Y-106650781D01*
X139620524Y-108205543D02*
X139572905Y-108253162D01*
X139430048Y-108300781D01*
X139334810Y-108300781D01*
X139191952Y-108253162D01*
X139096714Y-108157924D01*
X139049095Y-108062686D01*
X139001476Y-107872210D01*
X139001476Y-107729352D01*
X139049095Y-107538876D01*
X139096714Y-107443638D01*
X139191952Y-107348400D01*
X139334810Y-107300781D01*
X139430048Y-107300781D01*
X139572905Y-107348400D01*
X139620524Y-107396019D01*
X140191952Y-108300781D02*
X140096714Y-108253162D01*
X140049095Y-108205543D01*
X140001476Y-108110305D01*
X140001476Y-107824590D01*
X140049095Y-107729352D01*
X140096714Y-107681733D01*
X140191952Y-107634114D01*
X140334810Y-107634114D01*
X140430048Y-107681733D01*
X140477667Y-107729352D01*
X140525286Y-107824590D01*
X140525286Y-108110305D01*
X140477667Y-108205543D01*
X140430048Y-108253162D01*
X140334810Y-108300781D01*
X140191952Y-108300781D01*
X140953857Y-108300781D02*
X140953857Y-107634114D01*
X140953857Y-107729352D02*
X141001476Y-107681733D01*
X141096714Y-107634114D01*
X141239572Y-107634114D01*
X141334810Y-107681733D01*
X141382429Y-107776971D01*
X141382429Y-108300781D01*
X141382429Y-107776971D02*
X141430048Y-107681733D01*
X141525286Y-107634114D01*
X141668143Y-107634114D01*
X141763381Y-107681733D01*
X141811000Y-107776971D01*
X141811000Y-108300781D01*
X142287190Y-107634114D02*
X142287190Y-108634114D01*
X142287190Y-107681733D02*
X142382428Y-107634114D01*
X142572905Y-107634114D01*
X142668143Y-107681733D01*
X142715762Y-107729352D01*
X142763381Y-107824590D01*
X142763381Y-108110305D01*
X142715762Y-108205543D01*
X142668143Y-108253162D01*
X142572905Y-108300781D01*
X142382428Y-108300781D01*
X142287190Y-108253162D01*
X143334809Y-108300781D02*
X143239571Y-108253162D01*
X143191952Y-108205543D01*
X143144333Y-108110305D01*
X143144333Y-107824590D01*
X143191952Y-107729352D01*
X143239571Y-107681733D01*
X143334809Y-107634114D01*
X143477667Y-107634114D01*
X143572905Y-107681733D01*
X143620524Y-107729352D01*
X143668143Y-107824590D01*
X143668143Y-108110305D01*
X143620524Y-108205543D01*
X143572905Y-108253162D01*
X143477667Y-108300781D01*
X143334809Y-108300781D01*
X144096714Y-107634114D02*
X144096714Y-108300781D01*
X144096714Y-107729352D02*
X144144333Y-107681733D01*
X144239571Y-107634114D01*
X144382429Y-107634114D01*
X144477667Y-107681733D01*
X144525286Y-107776971D01*
X144525286Y-108300781D01*
X145382429Y-108253162D02*
X145287191Y-108300781D01*
X145096714Y-108300781D01*
X145001476Y-108253162D01*
X144953857Y-108157924D01*
X144953857Y-107776971D01*
X145001476Y-107681733D01*
X145096714Y-107634114D01*
X145287191Y-107634114D01*
X145382429Y-107681733D01*
X145430048Y-107776971D01*
X145430048Y-107872210D01*
X144953857Y-107967448D01*
X145858619Y-107634114D02*
X145858619Y-108300781D01*
X145858619Y-107729352D02*
X145906238Y-107681733D01*
X146001476Y-107634114D01*
X146144334Y-107634114D01*
X146239572Y-107681733D01*
X146287191Y-107776971D01*
X146287191Y-108300781D01*
X146620524Y-107634114D02*
X147001476Y-107634114D01*
X146763381Y-107300781D02*
X146763381Y-108157924D01*
X146811000Y-108253162D01*
X146906238Y-108300781D01*
X147001476Y-108300781D01*
X147287191Y-108253162D02*
X147382429Y-108300781D01*
X147572905Y-108300781D01*
X147668144Y-108253162D01*
X147715763Y-108157924D01*
X147715763Y-108110305D01*
X147668144Y-108015067D01*
X147572905Y-107967448D01*
X147430048Y-107967448D01*
X147334810Y-107919829D01*
X147287191Y-107824590D01*
X147287191Y-107776971D01*
X147334810Y-107681733D01*
X147430048Y-107634114D01*
X147572905Y-107634114D01*
X147668144Y-107681733D01*
X148906239Y-108205543D02*
X148953858Y-108253162D01*
X148906239Y-108300781D01*
X148858620Y-108253162D01*
X148906239Y-108205543D01*
X148906239Y-108300781D01*
X149382429Y-108205543D02*
X149430048Y-108253162D01*
X149382429Y-108300781D01*
X149334810Y-108253162D01*
X149382429Y-108205543D01*
X149382429Y-108300781D01*
X149858619Y-108205543D02*
X149906238Y-108253162D01*
X149858619Y-108300781D01*
X149811000Y-108253162D01*
X149858619Y-108205543D01*
X149858619Y-108300781D01*
X151572905Y-107300781D02*
X151096714Y-107300781D01*
X151049095Y-107776971D01*
X151096714Y-107729352D01*
X151191952Y-107681733D01*
X151430048Y-107681733D01*
X151525286Y-107729352D01*
X151572905Y-107776971D01*
X151620524Y-107872210D01*
X151620524Y-108110305D01*
X151572905Y-108205543D01*
X151525286Y-108253162D01*
X151430048Y-108300781D01*
X151191952Y-108300781D01*
X151096714Y-108253162D01*
X151049095Y-108205543D01*
X152239571Y-107300781D02*
X152334810Y-107300781D01*
X152430048Y-107348400D01*
X152477667Y-107396019D01*
X152525286Y-107491257D01*
X152572905Y-107681733D01*
X152572905Y-107919829D01*
X152525286Y-108110305D01*
X152477667Y-108205543D01*
X152430048Y-108253162D01*
X152334810Y-108300781D01*
X152239571Y-108300781D01*
X152144333Y-108253162D01*
X152096714Y-108205543D01*
X152049095Y-108110305D01*
X152001476Y-107919829D01*
X152001476Y-107681733D01*
X152049095Y-107491257D01*
X152096714Y-107396019D01*
X152144333Y-107348400D01*
X152239571Y-107300781D01*
X153763381Y-108300781D02*
X153763381Y-107634114D01*
X153763381Y-107729352D02*
X153811000Y-107681733D01*
X153906238Y-107634114D01*
X154049096Y-107634114D01*
X154144334Y-107681733D01*
X154191953Y-107776971D01*
X154191953Y-108300781D01*
X154191953Y-107776971D02*
X154239572Y-107681733D01*
X154334810Y-107634114D01*
X154477667Y-107634114D01*
X154572905Y-107681733D01*
X154620524Y-107776971D01*
X154620524Y-108300781D01*
X155096714Y-108300781D02*
X155096714Y-107634114D01*
X155096714Y-107300781D02*
X155049095Y-107348400D01*
X155096714Y-107396019D01*
X155144333Y-107348400D01*
X155096714Y-107300781D01*
X155096714Y-107396019D01*
X155715761Y-108300781D02*
X155620523Y-108253162D01*
X155572904Y-108157924D01*
X155572904Y-107300781D01*
X156049095Y-108253162D02*
X156144333Y-108300781D01*
X156334809Y-108300781D01*
X156430048Y-108253162D01*
X156477667Y-108157924D01*
X156477667Y-108110305D01*
X156430048Y-108015067D01*
X156334809Y-107967448D01*
X156191952Y-107967448D01*
X156096714Y-107919829D01*
X156049095Y-107824590D01*
X156049095Y-107776971D01*
X156096714Y-107681733D01*
X156191952Y-107634114D01*
X156334809Y-107634114D01*
X156430048Y-107681733D01*
X138906238Y-108950781D02*
X139477667Y-108950781D01*
X139191952Y-109950781D02*
X139191952Y-108950781D01*
X139811000Y-109950781D02*
X139811000Y-109284114D01*
X139811000Y-109474590D02*
X139858619Y-109379352D01*
X139906238Y-109331733D01*
X140001476Y-109284114D01*
X140096715Y-109284114D01*
X140858620Y-109950781D02*
X140858620Y-109426971D01*
X140811001Y-109331733D01*
X140715763Y-109284114D01*
X140525286Y-109284114D01*
X140430048Y-109331733D01*
X140858620Y-109903162D02*
X140763382Y-109950781D01*
X140525286Y-109950781D01*
X140430048Y-109903162D01*
X140382429Y-109807924D01*
X140382429Y-109712686D01*
X140430048Y-109617448D01*
X140525286Y-109569829D01*
X140763382Y-109569829D01*
X140858620Y-109522210D01*
X141763382Y-109903162D02*
X141668144Y-109950781D01*
X141477667Y-109950781D01*
X141382429Y-109903162D01*
X141334810Y-109855543D01*
X141287191Y-109760305D01*
X141287191Y-109474590D01*
X141334810Y-109379352D01*
X141382429Y-109331733D01*
X141477667Y-109284114D01*
X141668144Y-109284114D01*
X141763382Y-109331733D01*
X142191953Y-109950781D02*
X142191953Y-108950781D01*
X142287191Y-109569829D02*
X142572906Y-109950781D01*
X142572906Y-109284114D02*
X142191953Y-109665067D01*
X143715763Y-108903162D02*
X142858620Y-110188876D01*
X143906239Y-108950781D02*
X144477668Y-108950781D01*
X144191953Y-109950781D02*
X144191953Y-108950781D01*
X145191954Y-109903162D02*
X145096716Y-109950781D01*
X144906239Y-109950781D01*
X144811001Y-109903162D01*
X144763382Y-109807924D01*
X144763382Y-109426971D01*
X144811001Y-109331733D01*
X144906239Y-109284114D01*
X145096716Y-109284114D01*
X145191954Y-109331733D01*
X145239573Y-109426971D01*
X145239573Y-109522210D01*
X144763382Y-109617448D01*
X145572906Y-109950781D02*
X146096716Y-109284114D01*
X145572906Y-109284114D02*
X146096716Y-109950781D01*
X146334811Y-109284114D02*
X146715763Y-109284114D01*
X146477668Y-108950781D02*
X146477668Y-109807924D01*
X146525287Y-109903162D01*
X146620525Y-109950781D01*
X146715763Y-109950781D01*
X147811002Y-109855543D02*
X147858621Y-109903162D01*
X147811002Y-109950781D01*
X147763383Y-109903162D01*
X147811002Y-109855543D01*
X147811002Y-109950781D01*
X148287192Y-109855543D02*
X148334811Y-109903162D01*
X148287192Y-109950781D01*
X148239573Y-109903162D01*
X148287192Y-109855543D01*
X148287192Y-109950781D01*
X148763382Y-109855543D02*
X148811001Y-109903162D01*
X148763382Y-109950781D01*
X148715763Y-109903162D01*
X148763382Y-109855543D01*
X148763382Y-109950781D01*
X149239572Y-109855543D02*
X149287191Y-109903162D01*
X149239572Y-109950781D01*
X149191953Y-109903162D01*
X149239572Y-109855543D01*
X149239572Y-109950781D01*
X149715762Y-109855543D02*
X149763381Y-109903162D01*
X149715762Y-109950781D01*
X149668143Y-109903162D01*
X149715762Y-109855543D01*
X149715762Y-109950781D01*
X150906238Y-109046019D02*
X150953857Y-108998400D01*
X151049095Y-108950781D01*
X151287191Y-108950781D01*
X151382429Y-108998400D01*
X151430048Y-109046019D01*
X151477667Y-109141257D01*
X151477667Y-109236495D01*
X151430048Y-109379352D01*
X150858619Y-109950781D01*
X151477667Y-109950781D01*
X152382429Y-108950781D02*
X151906238Y-108950781D01*
X151858619Y-109426971D01*
X151906238Y-109379352D01*
X152001476Y-109331733D01*
X152239572Y-109331733D01*
X152334810Y-109379352D01*
X152382429Y-109426971D01*
X152430048Y-109522210D01*
X152430048Y-109760305D01*
X152382429Y-109855543D01*
X152334810Y-109903162D01*
X152239572Y-109950781D01*
X152001476Y-109950781D01*
X151906238Y-109903162D01*
X151858619Y-109855543D01*
X153620524Y-109950781D02*
X153620524Y-109284114D01*
X153620524Y-109379352D02*
X153668143Y-109331733D01*
X153763381Y-109284114D01*
X153906239Y-109284114D01*
X154001477Y-109331733D01*
X154049096Y-109426971D01*
X154049096Y-109950781D01*
X154049096Y-109426971D02*
X154096715Y-109331733D01*
X154191953Y-109284114D01*
X154334810Y-109284114D01*
X154430048Y-109331733D01*
X154477667Y-109426971D01*
X154477667Y-109950781D01*
X154953857Y-109950781D02*
X154953857Y-109284114D01*
X154953857Y-108950781D02*
X154906238Y-108998400D01*
X154953857Y-109046019D01*
X155001476Y-108998400D01*
X154953857Y-108950781D01*
X154953857Y-109046019D01*
X155572904Y-109950781D02*
X155477666Y-109903162D01*
X155430047Y-109807924D01*
X155430047Y-108950781D01*
X155906238Y-109903162D02*
X156001476Y-109950781D01*
X156191952Y-109950781D01*
X156287191Y-109903162D01*
X156334810Y-109807924D01*
X156334810Y-109760305D01*
X156287191Y-109665067D01*
X156191952Y-109617448D01*
X156049095Y-109617448D01*
X155953857Y-109569829D01*
X155906238Y-109474590D01*
X155906238Y-109426971D01*
X155953857Y-109331733D01*
X156049095Y-109284114D01*
X156191952Y-109284114D01*
X156287191Y-109331733D01*
M02*
