G04 #@! TF.FileFunction,Legend,Top*
%FSLAX46Y46*%
G04 Gerber Fmt 4.6, Leading zero omitted, Abs format (unit mm)*
G04 Created by KiCad (PCBNEW 4.0.6-e0-6349~53~ubuntu14.04.1) date Fri Apr 21 18:11:11 2017*
%MOMM*%
%LPD*%
G01*
G04 APERTURE LIST*
%ADD10C,0.100000*%
%ADD11C,0.125000*%
%ADD12C,0.300000*%
%ADD13C,0.150000*%
%ADD14C,0.120000*%
G04 APERTURE END LIST*
D10*
X150876000Y-73558400D02*
X150876000Y-77368400D01*
X121666000Y-73558400D02*
X150876000Y-73558400D01*
X121666000Y-76733400D02*
X121666000Y-73558400D01*
X121666000Y-86258400D02*
X121666000Y-83083400D01*
X137541000Y-86258400D02*
X121666000Y-86258400D01*
X150876000Y-86258400D02*
X137541000Y-86258400D01*
X150876000Y-83718400D02*
X150876000Y-86258400D01*
X102616000Y-119278400D02*
X102616000Y-112928400D01*
X115951000Y-119278400D02*
X102616000Y-119278400D01*
X115951000Y-101498400D02*
X115951000Y-119278400D01*
X102616000Y-101498400D02*
X115951000Y-101498400D01*
X102616000Y-107213400D02*
X102616000Y-101498400D01*
X114046000Y-115468400D02*
X105791000Y-115468400D01*
X107061000Y-104038400D02*
X107061000Y-109118400D01*
X109601000Y-109118400D02*
X109601000Y-104038400D01*
X112141000Y-109118400D02*
X112141000Y-104038400D01*
X114681000Y-109118400D02*
X114681000Y-104038400D01*
X121666000Y-119278400D02*
X122301000Y-119278400D01*
X121666000Y-112928400D02*
X121666000Y-119278400D01*
X121666000Y-108483400D02*
X121666000Y-101498400D01*
X121666000Y-101498400D02*
X122301000Y-101498400D01*
X129286000Y-100228400D02*
X129286000Y-87528400D01*
X121666000Y-100228400D02*
X129286000Y-100228400D01*
X121666000Y-97053400D02*
X121666000Y-100228400D01*
X121666000Y-87528400D02*
X121666000Y-90703400D01*
X129286000Y-87528400D02*
X121666000Y-87528400D01*
X150876000Y-100228400D02*
X150876000Y-96418400D01*
X130556000Y-100228400D02*
X150876000Y-100228400D01*
X130556000Y-99593400D02*
X130556000Y-100228400D01*
X130556000Y-87528400D02*
X130556000Y-99593400D01*
X150876000Y-87528400D02*
X130556000Y-87528400D01*
X150876000Y-91338400D02*
X150876000Y-87528400D01*
X102616000Y-73558400D02*
X102616000Y-82448400D01*
X115951000Y-73558400D02*
X102616000Y-73558400D01*
X115951000Y-98958400D02*
X115951000Y-73558400D01*
X102616000Y-98958400D02*
X115951000Y-98958400D01*
X102616000Y-91338400D02*
X102616000Y-98958400D01*
X114046000Y-83718400D02*
X114681000Y-83083400D01*
X112141000Y-83718400D02*
X114046000Y-83718400D01*
X105156000Y-83718400D02*
X104521000Y-83083400D01*
X107061000Y-83718400D02*
X105156000Y-83718400D01*
X114046000Y-90068400D02*
X114681000Y-90703400D01*
X112141000Y-90068400D02*
X114046000Y-90068400D01*
X105156000Y-90068400D02*
X104521000Y-90703400D01*
X107061000Y-90068400D02*
X105156000Y-90068400D01*
X105156000Y-97688400D02*
X104521000Y-97053400D01*
X107061000Y-97688400D02*
X105156000Y-97688400D01*
X114046000Y-97688400D02*
X114681000Y-97053400D01*
X112141000Y-97688400D02*
X114046000Y-97688400D01*
X135001000Y-101498400D02*
X122301000Y-101498400D01*
X135001000Y-119278400D02*
X122301000Y-119278400D01*
X135001000Y-118008400D02*
X135001000Y-119278400D01*
X135001000Y-101498400D02*
X135001000Y-118008400D01*
X114046000Y-76098400D02*
X114681000Y-76733400D01*
X111506000Y-76098400D02*
X114046000Y-76098400D01*
X105156000Y-76098400D02*
X104521000Y-76733400D01*
X107696000Y-76098400D02*
X105156000Y-76098400D01*
D11*
X97299429Y-102188001D02*
X97013714Y-102388001D01*
X97299429Y-102530858D02*
X96699429Y-102530858D01*
X96699429Y-102302286D01*
X96728000Y-102245144D01*
X96756571Y-102216572D01*
X96813714Y-102188001D01*
X96899429Y-102188001D01*
X96956571Y-102216572D01*
X96985143Y-102245144D01*
X97013714Y-102302286D01*
X97013714Y-102530858D01*
X97299429Y-101930858D02*
X96699429Y-101930858D01*
X96699429Y-101702286D01*
X96728000Y-101645144D01*
X96756571Y-101616572D01*
X96813714Y-101588001D01*
X96899429Y-101588001D01*
X96956571Y-101616572D01*
X96985143Y-101645144D01*
X97013714Y-101702286D01*
X97013714Y-101930858D01*
X97299429Y-101330858D02*
X96899429Y-101330858D01*
X96699429Y-101330858D02*
X96728000Y-101359429D01*
X96756571Y-101330858D01*
X96728000Y-101302286D01*
X96699429Y-101330858D01*
X96756571Y-101330858D01*
X97299429Y-101045144D02*
X96699429Y-101045144D01*
X96985143Y-101045144D02*
X96985143Y-100702287D01*
X97299429Y-100702287D02*
X96699429Y-100702287D01*
X97299429Y-100159430D02*
X96985143Y-100159430D01*
X96928000Y-100188001D01*
X96899429Y-100245144D01*
X96899429Y-100359430D01*
X96928000Y-100416573D01*
X97270857Y-100159430D02*
X97299429Y-100216573D01*
X97299429Y-100359430D01*
X97270857Y-100416573D01*
X97213714Y-100445144D01*
X97156571Y-100445144D01*
X97099429Y-100416573D01*
X97070857Y-100359430D01*
X97070857Y-100216573D01*
X97042286Y-100159430D01*
X96899429Y-99959430D02*
X96899429Y-99730859D01*
X96699429Y-99873716D02*
X97213714Y-99873716D01*
X97270857Y-99845144D01*
X97299429Y-99788002D01*
X97299429Y-99730859D01*
X97270857Y-98816573D02*
X97299429Y-98873716D01*
X97299429Y-98988002D01*
X97270857Y-99045144D01*
X97242286Y-99073716D01*
X97185143Y-99102287D01*
X97013714Y-99102287D01*
X96956571Y-99073716D01*
X96928000Y-99045144D01*
X96899429Y-98988002D01*
X96899429Y-98873716D01*
X96928000Y-98816573D01*
X97299429Y-98473716D02*
X97270857Y-98530858D01*
X97242286Y-98559430D01*
X97185143Y-98588001D01*
X97013714Y-98588001D01*
X96956571Y-98559430D01*
X96928000Y-98530858D01*
X96899429Y-98473716D01*
X96899429Y-98388001D01*
X96928000Y-98330858D01*
X96956571Y-98302287D01*
X97013714Y-98273716D01*
X97185143Y-98273716D01*
X97242286Y-98302287D01*
X97270857Y-98330858D01*
X97299429Y-98388001D01*
X97299429Y-98473716D01*
X96899429Y-98016573D02*
X97299429Y-98016573D01*
X96956571Y-98016573D02*
X96928000Y-97988001D01*
X96899429Y-97930859D01*
X96899429Y-97845144D01*
X96928000Y-97788001D01*
X96985143Y-97759430D01*
X97299429Y-97759430D01*
X96899429Y-97473716D02*
X97299429Y-97473716D01*
X96956571Y-97473716D02*
X96928000Y-97445144D01*
X96899429Y-97388002D01*
X96899429Y-97302287D01*
X96928000Y-97245144D01*
X96985143Y-97216573D01*
X97299429Y-97216573D01*
X97270857Y-96702287D02*
X97299429Y-96759430D01*
X97299429Y-96873716D01*
X97270857Y-96930859D01*
X97213714Y-96959430D01*
X96985143Y-96959430D01*
X96928000Y-96930859D01*
X96899429Y-96873716D01*
X96899429Y-96759430D01*
X96928000Y-96702287D01*
X96985143Y-96673716D01*
X97042286Y-96673716D01*
X97099429Y-96959430D01*
X97270857Y-96159430D02*
X97299429Y-96216573D01*
X97299429Y-96330859D01*
X97270857Y-96388001D01*
X97242286Y-96416573D01*
X97185143Y-96445144D01*
X97013714Y-96445144D01*
X96956571Y-96416573D01*
X96928000Y-96388001D01*
X96899429Y-96330859D01*
X96899429Y-96216573D01*
X96928000Y-96159430D01*
X96899429Y-95988001D02*
X96899429Y-95759430D01*
X96699429Y-95902287D02*
X97213714Y-95902287D01*
X97270857Y-95873715D01*
X97299429Y-95816573D01*
X97299429Y-95759430D01*
X97299429Y-95473716D02*
X97270857Y-95530858D01*
X97242286Y-95559430D01*
X97185143Y-95588001D01*
X97013714Y-95588001D01*
X96956571Y-95559430D01*
X96928000Y-95530858D01*
X96899429Y-95473716D01*
X96899429Y-95388001D01*
X96928000Y-95330858D01*
X96956571Y-95302287D01*
X97013714Y-95273716D01*
X97185143Y-95273716D01*
X97242286Y-95302287D01*
X97270857Y-95330858D01*
X97299429Y-95388001D01*
X97299429Y-95473716D01*
X97299429Y-95016573D02*
X96899429Y-95016573D01*
X97013714Y-95016573D02*
X96956571Y-94988001D01*
X96928000Y-94959430D01*
X96899429Y-94902287D01*
X96899429Y-94845144D01*
X96699429Y-94273715D02*
X97299429Y-94073715D01*
X96699429Y-93873715D01*
X96756571Y-93702286D02*
X96728000Y-93673715D01*
X96699429Y-93616572D01*
X96699429Y-93473715D01*
X96728000Y-93416572D01*
X96756571Y-93388001D01*
X96813714Y-93359429D01*
X96870857Y-93359429D01*
X96956571Y-93388001D01*
X97299429Y-93730858D01*
X97299429Y-93359429D01*
X97242286Y-93102286D02*
X97270857Y-93073714D01*
X97299429Y-93102286D01*
X97270857Y-93130857D01*
X97242286Y-93102286D01*
X97299429Y-93102286D01*
X96699429Y-92702286D02*
X96699429Y-92645143D01*
X96728000Y-92588000D01*
X96756571Y-92559429D01*
X96813714Y-92530858D01*
X96928000Y-92502286D01*
X97070857Y-92502286D01*
X97185143Y-92530858D01*
X97242286Y-92559429D01*
X97270857Y-92588000D01*
X97299429Y-92645143D01*
X97299429Y-92702286D01*
X97270857Y-92759429D01*
X97242286Y-92788000D01*
X97185143Y-92816572D01*
X97070857Y-92845143D01*
X96928000Y-92845143D01*
X96813714Y-92816572D01*
X96756571Y-92788000D01*
X96728000Y-92759429D01*
X96699429Y-92702286D01*
X97013714Y-91416571D02*
X96985143Y-91445143D01*
X96956571Y-91502286D01*
X96956571Y-91559428D01*
X96985143Y-91616571D01*
X97013714Y-91645143D01*
X97070857Y-91673714D01*
X97128000Y-91673714D01*
X97185143Y-91645143D01*
X97213714Y-91616571D01*
X97242286Y-91559428D01*
X97242286Y-91502286D01*
X97213714Y-91445143D01*
X97185143Y-91416571D01*
X96956571Y-91416571D02*
X97185143Y-91416571D01*
X97213714Y-91388000D01*
X97213714Y-91359428D01*
X97185143Y-91302286D01*
X97128000Y-91273714D01*
X96985143Y-91273714D01*
X96899429Y-91330857D01*
X96842286Y-91416571D01*
X96813714Y-91530857D01*
X96842286Y-91645143D01*
X96899429Y-91730857D01*
X96985143Y-91788000D01*
X97099429Y-91816571D01*
X97213714Y-91788000D01*
X97299429Y-91730857D01*
X97356571Y-91645143D01*
X97385143Y-91530857D01*
X97356571Y-91416571D01*
X97299429Y-91330857D01*
X96899429Y-91102285D02*
X96899429Y-90873714D01*
X97299429Y-91016571D02*
X96785143Y-91016571D01*
X96728000Y-90987999D01*
X96699429Y-90930857D01*
X96699429Y-90873714D01*
X97299429Y-90416571D02*
X96985143Y-90416571D01*
X96928000Y-90445142D01*
X96899429Y-90502285D01*
X96899429Y-90616571D01*
X96928000Y-90673714D01*
X97270857Y-90416571D02*
X97299429Y-90473714D01*
X97299429Y-90616571D01*
X97270857Y-90673714D01*
X97213714Y-90702285D01*
X97156571Y-90702285D01*
X97099429Y-90673714D01*
X97070857Y-90616571D01*
X97070857Y-90473714D01*
X97042286Y-90416571D01*
X97299429Y-90130857D02*
X96699429Y-90130857D01*
X96928000Y-90130857D02*
X96899429Y-90073714D01*
X96899429Y-89959428D01*
X96928000Y-89902285D01*
X96956571Y-89873714D01*
X97013714Y-89845143D01*
X97185143Y-89845143D01*
X97242286Y-89873714D01*
X97270857Y-89902285D01*
X97299429Y-89959428D01*
X97299429Y-90073714D01*
X97270857Y-90130857D01*
X97270857Y-89359428D02*
X97299429Y-89416571D01*
X97299429Y-89530857D01*
X97270857Y-89588000D01*
X97213714Y-89616571D01*
X96985143Y-89616571D01*
X96928000Y-89588000D01*
X96899429Y-89530857D01*
X96899429Y-89416571D01*
X96928000Y-89359428D01*
X96985143Y-89330857D01*
X97042286Y-89330857D01*
X97099429Y-89616571D01*
X97299429Y-88988000D02*
X97270857Y-89045142D01*
X97213714Y-89073714D01*
X96699429Y-89073714D01*
X96899429Y-88845142D02*
X96899429Y-88616571D01*
X96699429Y-88759428D02*
X97213714Y-88759428D01*
X97270857Y-88730856D01*
X97299429Y-88673714D01*
X97299429Y-88616571D01*
X97299429Y-88416571D02*
X96899429Y-88416571D01*
X97013714Y-88416571D02*
X96956571Y-88387999D01*
X96928000Y-88359428D01*
X96899429Y-88302285D01*
X96899429Y-88245142D01*
X97299429Y-87787999D02*
X96985143Y-87787999D01*
X96928000Y-87816570D01*
X96899429Y-87873713D01*
X96899429Y-87987999D01*
X96928000Y-88045142D01*
X97270857Y-87787999D02*
X97299429Y-87845142D01*
X97299429Y-87987999D01*
X97270857Y-88045142D01*
X97213714Y-88073713D01*
X97156571Y-88073713D01*
X97099429Y-88045142D01*
X97070857Y-87987999D01*
X97070857Y-87845142D01*
X97042286Y-87787999D01*
X96899429Y-87502285D02*
X97299429Y-87502285D01*
X96956571Y-87502285D02*
X96928000Y-87473713D01*
X96899429Y-87416571D01*
X96899429Y-87330856D01*
X96928000Y-87273713D01*
X96985143Y-87245142D01*
X97299429Y-87245142D01*
X97299429Y-86959428D02*
X96899429Y-86959428D01*
X96956571Y-86959428D02*
X96928000Y-86930856D01*
X96899429Y-86873714D01*
X96899429Y-86787999D01*
X96928000Y-86730856D01*
X96985143Y-86702285D01*
X97299429Y-86702285D01*
X96985143Y-86702285D02*
X96928000Y-86673714D01*
X96899429Y-86616571D01*
X96899429Y-86530856D01*
X96928000Y-86473714D01*
X96985143Y-86445142D01*
X97299429Y-86445142D01*
D12*
X101794571Y-112781257D02*
X101794571Y-111924114D01*
X103294571Y-112352685D02*
X101794571Y-112352685D01*
X102508857Y-111424114D02*
X102508857Y-110924114D01*
X103294571Y-110709828D02*
X103294571Y-111424114D01*
X101794571Y-111424114D01*
X101794571Y-110709828D01*
X103223143Y-110138400D02*
X103294571Y-109924114D01*
X103294571Y-109566971D01*
X103223143Y-109424114D01*
X103151714Y-109352685D01*
X103008857Y-109281257D01*
X102866000Y-109281257D01*
X102723143Y-109352685D01*
X102651714Y-109424114D01*
X102580286Y-109566971D01*
X102508857Y-109852685D01*
X102437429Y-109995543D01*
X102366000Y-110066971D01*
X102223143Y-110138400D01*
X102080286Y-110138400D01*
X101937429Y-110066971D01*
X101866000Y-109995543D01*
X101794571Y-109852685D01*
X101794571Y-109495543D01*
X101866000Y-109281257D01*
X101794571Y-108852686D02*
X101794571Y-107995543D01*
X103294571Y-108424114D02*
X101794571Y-108424114D01*
X103294571Y-90357686D02*
X101794571Y-90357686D01*
X101794571Y-89786258D01*
X101866000Y-89643400D01*
X101937429Y-89571972D01*
X102080286Y-89500543D01*
X102294571Y-89500543D01*
X102437429Y-89571972D01*
X102508857Y-89643400D01*
X102580286Y-89786258D01*
X102580286Y-90357686D01*
X101794571Y-88571972D02*
X101794571Y-88286258D01*
X101866000Y-88143400D01*
X102008857Y-88000543D01*
X102294571Y-87929115D01*
X102794571Y-87929115D01*
X103080286Y-88000543D01*
X103223143Y-88143400D01*
X103294571Y-88286258D01*
X103294571Y-88571972D01*
X103223143Y-88714829D01*
X103080286Y-88857686D01*
X102794571Y-88929115D01*
X102294571Y-88929115D01*
X102008857Y-88857686D01*
X101866000Y-88714829D01*
X101794571Y-88571972D01*
X101794571Y-87429114D02*
X103294571Y-87071971D01*
X102223143Y-86786257D01*
X103294571Y-86500543D01*
X101794571Y-86143400D01*
X102508857Y-85571971D02*
X102508857Y-85071971D01*
X103294571Y-84857685D02*
X103294571Y-85571971D01*
X101794571Y-85571971D01*
X101794571Y-84857685D01*
X103294571Y-83357685D02*
X102580286Y-83857685D01*
X103294571Y-84214828D02*
X101794571Y-84214828D01*
X101794571Y-83643400D01*
X101866000Y-83500542D01*
X101937429Y-83429114D01*
X102080286Y-83357685D01*
X102294571Y-83357685D01*
X102437429Y-83429114D01*
X102508857Y-83500542D01*
X102580286Y-83643400D01*
X102580286Y-84214828D01*
X120916000Y-81408400D02*
X120844571Y-81551257D01*
X120844571Y-81765543D01*
X120916000Y-81979828D01*
X121058857Y-82122686D01*
X121201714Y-82194114D01*
X121487429Y-82265543D01*
X121701714Y-82265543D01*
X121987429Y-82194114D01*
X122130286Y-82122686D01*
X122273143Y-81979828D01*
X122344571Y-81765543D01*
X122344571Y-81622686D01*
X122273143Y-81408400D01*
X122201714Y-81336971D01*
X121701714Y-81336971D01*
X121701714Y-81622686D01*
X122344571Y-80694114D02*
X120844571Y-80694114D01*
X120844571Y-80122686D01*
X120916000Y-79979828D01*
X120987429Y-79908400D01*
X121130286Y-79836971D01*
X121344571Y-79836971D01*
X121487429Y-79908400D01*
X121558857Y-79979828D01*
X121630286Y-80122686D01*
X121630286Y-80694114D01*
X122344571Y-79194114D02*
X120844571Y-79194114D01*
X120844571Y-78194114D02*
X120844571Y-77908400D01*
X120916000Y-77765542D01*
X121058857Y-77622685D01*
X121344571Y-77551257D01*
X121844571Y-77551257D01*
X122130286Y-77622685D01*
X122273143Y-77765542D01*
X122344571Y-77908400D01*
X122344571Y-78194114D01*
X122273143Y-78336971D01*
X122130286Y-78479828D01*
X121844571Y-78551257D01*
X121344571Y-78551257D01*
X121058857Y-78479828D01*
X120916000Y-78336971D01*
X120844571Y-78194114D01*
D13*
X127247667Y-90430305D02*
X126981000Y-90049352D01*
X126790524Y-90430305D02*
X126790524Y-89630305D01*
X127095286Y-89630305D01*
X127171477Y-89668400D01*
X127209572Y-89706495D01*
X127247667Y-89782686D01*
X127247667Y-89896971D01*
X127209572Y-89973162D01*
X127171477Y-90011257D01*
X127095286Y-90049352D01*
X126790524Y-90049352D01*
X127514334Y-89630305D02*
X128047667Y-90430305D01*
X128047667Y-89630305D02*
X127514334Y-90430305D01*
X126771476Y-92170305D02*
X127228619Y-92170305D01*
X127000048Y-92970305D02*
X127000048Y-92170305D01*
X127419096Y-92170305D02*
X127952429Y-92970305D01*
X127952429Y-92170305D02*
X127419096Y-92970305D01*
X126352429Y-95205543D02*
X126961953Y-95205543D01*
X126657191Y-95510305D02*
X126657191Y-94900781D01*
X127723858Y-94710305D02*
X127342905Y-94710305D01*
X127304810Y-95091257D01*
X127342905Y-95053162D01*
X127419096Y-95015067D01*
X127609572Y-95015067D01*
X127685762Y-95053162D01*
X127723858Y-95091257D01*
X127761953Y-95167448D01*
X127761953Y-95357924D01*
X127723858Y-95434114D01*
X127685762Y-95472210D01*
X127609572Y-95510305D01*
X127419096Y-95510305D01*
X127342905Y-95472210D01*
X127304810Y-95434114D01*
X127990524Y-94710305D02*
X128257191Y-95510305D01*
X128523858Y-94710305D01*
X126771477Y-97288400D02*
X126695286Y-97250305D01*
X126581001Y-97250305D01*
X126466715Y-97288400D01*
X126390524Y-97364590D01*
X126352429Y-97440781D01*
X126314334Y-97593162D01*
X126314334Y-97707448D01*
X126352429Y-97859829D01*
X126390524Y-97936019D01*
X126466715Y-98012210D01*
X126581001Y-98050305D01*
X126657191Y-98050305D01*
X126771477Y-98012210D01*
X126809572Y-97974114D01*
X126809572Y-97707448D01*
X126657191Y-97707448D01*
X127152429Y-98050305D02*
X127152429Y-97250305D01*
X127609572Y-98050305D01*
X127609572Y-97250305D01*
X127990524Y-98050305D02*
X127990524Y-97250305D01*
X128181000Y-97250305D01*
X128295286Y-97288400D01*
X128371477Y-97364590D01*
X128409572Y-97440781D01*
X128447667Y-97593162D01*
X128447667Y-97707448D01*
X128409572Y-97859829D01*
X128371477Y-97936019D01*
X128295286Y-98012210D01*
X128181000Y-98050305D01*
X127990524Y-98050305D01*
X126631953Y-116795543D02*
X127241477Y-116795543D01*
X128041477Y-116338400D02*
X127965286Y-116300305D01*
X127851001Y-116300305D01*
X127736715Y-116338400D01*
X127660524Y-116414590D01*
X127622429Y-116490781D01*
X127584334Y-116643162D01*
X127584334Y-116757448D01*
X127622429Y-116909829D01*
X127660524Y-116986019D01*
X127736715Y-117062210D01*
X127851001Y-117100305D01*
X127927191Y-117100305D01*
X128041477Y-117062210D01*
X128079572Y-117024114D01*
X128079572Y-116757448D01*
X127927191Y-116757448D01*
X128422429Y-117100305D02*
X128422429Y-116300305D01*
X128879572Y-117100305D01*
X128879572Y-116300305D01*
X129260524Y-117100305D02*
X129260524Y-116300305D01*
X129451000Y-116300305D01*
X129565286Y-116338400D01*
X129641477Y-116414590D01*
X129679572Y-116490781D01*
X129717667Y-116643162D01*
X129717667Y-116757448D01*
X129679572Y-116909829D01*
X129641477Y-116986019D01*
X129565286Y-117062210D01*
X129451000Y-117100305D01*
X129260524Y-117100305D01*
X130060524Y-116795543D02*
X130670048Y-116795543D01*
X126631953Y-114255543D02*
X127241477Y-114255543D01*
X127622429Y-114255543D02*
X128231953Y-114255543D01*
X127927191Y-114560305D02*
X127927191Y-113950781D01*
X128993858Y-113760305D02*
X128612905Y-113760305D01*
X128574810Y-114141257D01*
X128612905Y-114103162D01*
X128689096Y-114065067D01*
X128879572Y-114065067D01*
X128955762Y-114103162D01*
X128993858Y-114141257D01*
X129031953Y-114217448D01*
X129031953Y-114407924D01*
X128993858Y-114484114D01*
X128955762Y-114522210D01*
X128879572Y-114560305D01*
X128689096Y-114560305D01*
X128612905Y-114522210D01*
X128574810Y-114484114D01*
X129260524Y-113760305D02*
X129527191Y-114560305D01*
X129793858Y-113760305D01*
X130060524Y-114255543D02*
X130670048Y-114255543D01*
X126951001Y-111908400D02*
X126917667Y-111941733D01*
X126817667Y-111975067D01*
X126751001Y-111975067D01*
X126651001Y-111941733D01*
X126584334Y-111875067D01*
X126551001Y-111808400D01*
X126517667Y-111675067D01*
X126517667Y-111575067D01*
X126551001Y-111441733D01*
X126584334Y-111375067D01*
X126651001Y-111308400D01*
X126751001Y-111275067D01*
X126817667Y-111275067D01*
X126917667Y-111308400D01*
X126951001Y-111341733D01*
X127251001Y-111608400D02*
X127484334Y-111608400D01*
X127584334Y-111975067D02*
X127251001Y-111975067D01*
X127251001Y-111275067D01*
X127584334Y-111275067D01*
X128017667Y-111275067D02*
X128084334Y-111275067D01*
X128151000Y-111308400D01*
X128184334Y-111341733D01*
X128217667Y-111408400D01*
X128251000Y-111541733D01*
X128251000Y-111708400D01*
X128217667Y-111841733D01*
X128184334Y-111908400D01*
X128151000Y-111941733D01*
X128084334Y-111975067D01*
X128017667Y-111975067D01*
X127951000Y-111941733D01*
X127917667Y-111908400D01*
X127884334Y-111841733D01*
X127851000Y-111708400D01*
X127851000Y-111541733D01*
X127884334Y-111408400D01*
X127917667Y-111341733D01*
X127951000Y-111308400D01*
X128017667Y-111275067D01*
X129484334Y-111908400D02*
X129451000Y-111941733D01*
X129351000Y-111975067D01*
X129284334Y-111975067D01*
X129184334Y-111941733D01*
X129117667Y-111875067D01*
X129084334Y-111808400D01*
X129051000Y-111675067D01*
X129051000Y-111575067D01*
X129084334Y-111441733D01*
X129117667Y-111375067D01*
X129184334Y-111308400D01*
X129284334Y-111275067D01*
X129351000Y-111275067D01*
X129451000Y-111308400D01*
X129484334Y-111341733D01*
X129784334Y-111608400D02*
X130017667Y-111608400D01*
X130117667Y-111975067D02*
X129784334Y-111975067D01*
X129784334Y-111275067D01*
X130117667Y-111275067D01*
X130784333Y-111975067D02*
X130384333Y-111975067D01*
X130584333Y-111975067D02*
X130584333Y-111275067D01*
X130517667Y-111375067D01*
X130451000Y-111441733D01*
X130384333Y-111475067D01*
X126346238Y-109175543D02*
X126955762Y-109175543D01*
X127298619Y-109442210D02*
X127412905Y-109480305D01*
X127603381Y-109480305D01*
X127679571Y-109442210D01*
X127717667Y-109404114D01*
X127755762Y-109327924D01*
X127755762Y-109251733D01*
X127717667Y-109175543D01*
X127679571Y-109137448D01*
X127603381Y-109099352D01*
X127451000Y-109061257D01*
X127374809Y-109023162D01*
X127336714Y-108985067D01*
X127298619Y-108908876D01*
X127298619Y-108832686D01*
X127336714Y-108756495D01*
X127374809Y-108718400D01*
X127451000Y-108680305D01*
X127641476Y-108680305D01*
X127755762Y-108718400D01*
X128555762Y-109404114D02*
X128517667Y-109442210D01*
X128403381Y-109480305D01*
X128327191Y-109480305D01*
X128212905Y-109442210D01*
X128136714Y-109366019D01*
X128098619Y-109289829D01*
X128060524Y-109137448D01*
X128060524Y-109023162D01*
X128098619Y-108870781D01*
X128136714Y-108794590D01*
X128212905Y-108718400D01*
X128327191Y-108680305D01*
X128403381Y-108680305D01*
X128517667Y-108718400D01*
X128555762Y-108756495D01*
X129279572Y-109480305D02*
X128898619Y-109480305D01*
X128898619Y-108680305D01*
X129546238Y-109480305D02*
X129546238Y-108680305D01*
X130003381Y-109480305D02*
X129660524Y-109023162D01*
X130003381Y-108680305D02*
X129546238Y-109137448D01*
X130346238Y-109175543D02*
X130955762Y-109175543D01*
X126403381Y-106635543D02*
X127012905Y-106635543D01*
X127393857Y-106940305D02*
X127393857Y-106140305D01*
X127660524Y-106711733D01*
X127927191Y-106140305D01*
X127927191Y-106940305D01*
X128308143Y-106940305D02*
X128308143Y-106140305D01*
X128651000Y-106902210D02*
X128765286Y-106940305D01*
X128955762Y-106940305D01*
X129031952Y-106902210D01*
X129070048Y-106864114D01*
X129108143Y-106787924D01*
X129108143Y-106711733D01*
X129070048Y-106635543D01*
X129031952Y-106597448D01*
X128955762Y-106559352D01*
X128803381Y-106521257D01*
X128727190Y-106483162D01*
X128689095Y-106445067D01*
X128651000Y-106368876D01*
X128651000Y-106292686D01*
X128689095Y-106216495D01*
X128727190Y-106178400D01*
X128803381Y-106140305D01*
X128993857Y-106140305D01*
X129108143Y-106178400D01*
X129603381Y-106140305D02*
X129755762Y-106140305D01*
X129831953Y-106178400D01*
X129908143Y-106254590D01*
X129946238Y-106406971D01*
X129946238Y-106673638D01*
X129908143Y-106826019D01*
X129831953Y-106902210D01*
X129755762Y-106940305D01*
X129603381Y-106940305D01*
X129527191Y-106902210D01*
X129451000Y-106826019D01*
X129412905Y-106673638D01*
X129412905Y-106406971D01*
X129451000Y-106254590D01*
X129527191Y-106178400D01*
X129603381Y-106140305D01*
X130289095Y-106635543D02*
X130898619Y-106635543D01*
X126403381Y-104095543D02*
X127012905Y-104095543D01*
X127393857Y-104400305D02*
X127393857Y-103600305D01*
X127660524Y-104171733D01*
X127927191Y-103600305D01*
X127927191Y-104400305D01*
X128460524Y-103600305D02*
X128612905Y-103600305D01*
X128689096Y-103638400D01*
X128765286Y-103714590D01*
X128803381Y-103866971D01*
X128803381Y-104133638D01*
X128765286Y-104286019D01*
X128689096Y-104362210D01*
X128612905Y-104400305D01*
X128460524Y-104400305D01*
X128384334Y-104362210D01*
X128308143Y-104286019D01*
X128270048Y-104133638D01*
X128270048Y-103866971D01*
X128308143Y-103714590D01*
X128384334Y-103638400D01*
X128460524Y-103600305D01*
X129108143Y-104362210D02*
X129222429Y-104400305D01*
X129412905Y-104400305D01*
X129489095Y-104362210D01*
X129527191Y-104324114D01*
X129565286Y-104247924D01*
X129565286Y-104171733D01*
X129527191Y-104095543D01*
X129489095Y-104057448D01*
X129412905Y-104019352D01*
X129260524Y-103981257D01*
X129184333Y-103943162D01*
X129146238Y-103905067D01*
X129108143Y-103828876D01*
X129108143Y-103752686D01*
X129146238Y-103676495D01*
X129184333Y-103638400D01*
X129260524Y-103600305D01*
X129451000Y-103600305D01*
X129565286Y-103638400D01*
X129908143Y-104400305D02*
X129908143Y-103600305D01*
X130289095Y-104095543D02*
X130898619Y-104095543D01*
X135026477Y-97288400D02*
X134950286Y-97250305D01*
X134836001Y-97250305D01*
X134721715Y-97288400D01*
X134645524Y-97364590D01*
X134607429Y-97440781D01*
X134569334Y-97593162D01*
X134569334Y-97707448D01*
X134607429Y-97859829D01*
X134645524Y-97936019D01*
X134721715Y-98012210D01*
X134836001Y-98050305D01*
X134912191Y-98050305D01*
X135026477Y-98012210D01*
X135064572Y-97974114D01*
X135064572Y-97707448D01*
X134912191Y-97707448D01*
X135407429Y-98050305D02*
X135407429Y-97250305D01*
X135864572Y-98050305D01*
X135864572Y-97250305D01*
X136245524Y-98050305D02*
X136245524Y-97250305D01*
X136436000Y-97250305D01*
X136550286Y-97288400D01*
X136626477Y-97364590D01*
X136664572Y-97440781D01*
X136702667Y-97593162D01*
X136702667Y-97707448D01*
X136664572Y-97859829D01*
X136626477Y-97936019D01*
X136550286Y-98012210D01*
X136436000Y-98050305D01*
X136245524Y-98050305D01*
X134607429Y-95205543D02*
X135216953Y-95205543D01*
X134912191Y-95510305D02*
X134912191Y-94900781D01*
X135978858Y-94710305D02*
X135597905Y-94710305D01*
X135559810Y-95091257D01*
X135597905Y-95053162D01*
X135674096Y-95015067D01*
X135864572Y-95015067D01*
X135940762Y-95053162D01*
X135978858Y-95091257D01*
X136016953Y-95167448D01*
X136016953Y-95357924D01*
X135978858Y-95434114D01*
X135940762Y-95472210D01*
X135864572Y-95510305D01*
X135674096Y-95510305D01*
X135597905Y-95472210D01*
X135559810Y-95434114D01*
X136245524Y-94710305D02*
X136512191Y-95510305D01*
X136778858Y-94710305D01*
X134283619Y-92932210D02*
X134397905Y-92970305D01*
X134588381Y-92970305D01*
X134664571Y-92932210D01*
X134702667Y-92894114D01*
X134740762Y-92817924D01*
X134740762Y-92741733D01*
X134702667Y-92665543D01*
X134664571Y-92627448D01*
X134588381Y-92589352D01*
X134436000Y-92551257D01*
X134359809Y-92513162D01*
X134321714Y-92475067D01*
X134283619Y-92398876D01*
X134283619Y-92322686D01*
X134321714Y-92246495D01*
X134359809Y-92208400D01*
X134436000Y-92170305D01*
X134626476Y-92170305D01*
X134740762Y-92208400D01*
X135083619Y-92970305D02*
X135083619Y-92170305D01*
X135274095Y-92170305D01*
X135388381Y-92208400D01*
X135464572Y-92284590D01*
X135502667Y-92360781D01*
X135540762Y-92513162D01*
X135540762Y-92627448D01*
X135502667Y-92779829D01*
X135464572Y-92856019D01*
X135388381Y-92932210D01*
X135274095Y-92970305D01*
X135083619Y-92970305D01*
X135845524Y-92741733D02*
X136226476Y-92741733D01*
X135769333Y-92970305D02*
X136036000Y-92170305D01*
X136302667Y-92970305D01*
X136531238Y-92246495D02*
X136569333Y-92208400D01*
X136645524Y-92170305D01*
X136836000Y-92170305D01*
X136912190Y-92208400D01*
X136950286Y-92246495D01*
X136988381Y-92322686D01*
X136988381Y-92398876D01*
X136950286Y-92513162D01*
X136493143Y-92970305D01*
X136988381Y-92970305D01*
X134302667Y-90392210D02*
X134416953Y-90430305D01*
X134607429Y-90430305D01*
X134683619Y-90392210D01*
X134721715Y-90354114D01*
X134759810Y-90277924D01*
X134759810Y-90201733D01*
X134721715Y-90125543D01*
X134683619Y-90087448D01*
X134607429Y-90049352D01*
X134455048Y-90011257D01*
X134378857Y-89973162D01*
X134340762Y-89935067D01*
X134302667Y-89858876D01*
X134302667Y-89782686D01*
X134340762Y-89706495D01*
X134378857Y-89668400D01*
X134455048Y-89630305D01*
X134645524Y-89630305D01*
X134759810Y-89668400D01*
X135559810Y-90354114D02*
X135521715Y-90392210D01*
X135407429Y-90430305D01*
X135331239Y-90430305D01*
X135216953Y-90392210D01*
X135140762Y-90316019D01*
X135102667Y-90239829D01*
X135064572Y-90087448D01*
X135064572Y-89973162D01*
X135102667Y-89820781D01*
X135140762Y-89744590D01*
X135216953Y-89668400D01*
X135331239Y-89630305D01*
X135407429Y-89630305D01*
X135521715Y-89668400D01*
X135559810Y-89706495D01*
X136283620Y-90430305D02*
X135902667Y-90430305D01*
X135902667Y-89630305D01*
X136512191Y-89706495D02*
X136550286Y-89668400D01*
X136626477Y-89630305D01*
X136816953Y-89630305D01*
X136893143Y-89668400D01*
X136931239Y-89706495D01*
X136969334Y-89782686D01*
X136969334Y-89858876D01*
X136931239Y-89973162D01*
X136474096Y-90430305D01*
X136969334Y-90430305D01*
D12*
X120844571Y-96271257D02*
X122058857Y-96271257D01*
X122201714Y-96199829D01*
X122273143Y-96128400D01*
X122344571Y-95985543D01*
X122344571Y-95699829D01*
X122273143Y-95556971D01*
X122201714Y-95485543D01*
X122058857Y-95414114D01*
X120844571Y-95414114D01*
X121916000Y-94771257D02*
X121916000Y-94056971D01*
X122344571Y-94914114D02*
X120844571Y-94414114D01*
X122344571Y-93914114D01*
X122344571Y-92556971D02*
X121630286Y-93056971D01*
X122344571Y-93414114D02*
X120844571Y-93414114D01*
X120844571Y-92842686D01*
X120916000Y-92699828D01*
X120987429Y-92628400D01*
X121130286Y-92556971D01*
X121344571Y-92556971D01*
X121487429Y-92628400D01*
X121558857Y-92699828D01*
X121630286Y-92842686D01*
X121630286Y-93414114D01*
X120844571Y-92128400D02*
X120844571Y-91271257D01*
X122344571Y-91699828D02*
X120844571Y-91699828D01*
D13*
X140138143Y-95897447D02*
X140138143Y-95287923D01*
X139681000Y-94487923D02*
X139642905Y-94564114D01*
X139642905Y-94678399D01*
X139681000Y-94792685D01*
X139757190Y-94868876D01*
X139833381Y-94906971D01*
X139985762Y-94945066D01*
X140100048Y-94945066D01*
X140252429Y-94906971D01*
X140328619Y-94868876D01*
X140404810Y-94792685D01*
X140442905Y-94678399D01*
X140442905Y-94602209D01*
X140404810Y-94487923D01*
X140366714Y-94449828D01*
X140100048Y-94449828D01*
X140100048Y-94602209D01*
X140442905Y-94106971D02*
X139642905Y-94106971D01*
X140442905Y-93649828D01*
X139642905Y-93649828D01*
X140442905Y-93268876D02*
X139642905Y-93268876D01*
X139642905Y-93078400D01*
X139681000Y-92964114D01*
X139757190Y-92887923D01*
X139833381Y-92849828D01*
X139985762Y-92811733D01*
X140100048Y-92811733D01*
X140252429Y-92849828D01*
X140328619Y-92887923D01*
X140404810Y-92964114D01*
X140442905Y-93078400D01*
X140442905Y-93268876D01*
X140138143Y-92468876D02*
X140138143Y-91859352D01*
X142678143Y-95897447D02*
X142678143Y-95287923D01*
X142678143Y-94906971D02*
X142678143Y-94297447D01*
X142982905Y-94602209D02*
X142373381Y-94602209D01*
X142182905Y-93535542D02*
X142182905Y-93916495D01*
X142563857Y-93954590D01*
X142525762Y-93916495D01*
X142487667Y-93840304D01*
X142487667Y-93649828D01*
X142525762Y-93573638D01*
X142563857Y-93535542D01*
X142640048Y-93497447D01*
X142830524Y-93497447D01*
X142906714Y-93535542D01*
X142944810Y-93573638D01*
X142982905Y-93649828D01*
X142982905Y-93840304D01*
X142944810Y-93916495D01*
X142906714Y-93954590D01*
X142182905Y-93268876D02*
X142982905Y-93002209D01*
X142182905Y-92735542D01*
X142678143Y-92468876D02*
X142678143Y-91859352D01*
X145218143Y-95802209D02*
X145218143Y-95192685D01*
X145484810Y-94849828D02*
X145522905Y-94735542D01*
X145522905Y-94545066D01*
X145484810Y-94468876D01*
X145446714Y-94430780D01*
X145370524Y-94392685D01*
X145294333Y-94392685D01*
X145218143Y-94430780D01*
X145180048Y-94468876D01*
X145141952Y-94545066D01*
X145103857Y-94697447D01*
X145065762Y-94773638D01*
X145027667Y-94811733D01*
X144951476Y-94849828D01*
X144875286Y-94849828D01*
X144799095Y-94811733D01*
X144761000Y-94773638D01*
X144722905Y-94697447D01*
X144722905Y-94506971D01*
X144761000Y-94392685D01*
X145522905Y-94049828D02*
X144722905Y-94049828D01*
X144722905Y-93859352D01*
X144761000Y-93745066D01*
X144837190Y-93668875D01*
X144913381Y-93630780D01*
X145065762Y-93592685D01*
X145180048Y-93592685D01*
X145332429Y-93630780D01*
X145408619Y-93668875D01*
X145484810Y-93745066D01*
X145522905Y-93859352D01*
X145522905Y-94049828D01*
X145294333Y-93287923D02*
X145294333Y-92906971D01*
X145522905Y-93364114D02*
X144722905Y-93097447D01*
X145522905Y-92830780D01*
X145218143Y-92564114D02*
X145218143Y-91954590D01*
X147758143Y-95783162D02*
X147758143Y-95173638D01*
X148024810Y-94830781D02*
X148062905Y-94716495D01*
X148062905Y-94526019D01*
X148024810Y-94449829D01*
X147986714Y-94411733D01*
X147910524Y-94373638D01*
X147834333Y-94373638D01*
X147758143Y-94411733D01*
X147720048Y-94449829D01*
X147681952Y-94526019D01*
X147643857Y-94678400D01*
X147605762Y-94754591D01*
X147567667Y-94792686D01*
X147491476Y-94830781D01*
X147415286Y-94830781D01*
X147339095Y-94792686D01*
X147301000Y-94754591D01*
X147262905Y-94678400D01*
X147262905Y-94487924D01*
X147301000Y-94373638D01*
X147986714Y-93573638D02*
X148024810Y-93611733D01*
X148062905Y-93726019D01*
X148062905Y-93802209D01*
X148024810Y-93916495D01*
X147948619Y-93992686D01*
X147872429Y-94030781D01*
X147720048Y-94068876D01*
X147605762Y-94068876D01*
X147453381Y-94030781D01*
X147377190Y-93992686D01*
X147301000Y-93916495D01*
X147262905Y-93802209D01*
X147262905Y-93726019D01*
X147301000Y-93611733D01*
X147339095Y-93573638D01*
X148062905Y-92849828D02*
X148062905Y-93230781D01*
X147262905Y-93230781D01*
X147758143Y-92583162D02*
X147758143Y-91973638D01*
X147339095Y-81787924D02*
X147301000Y-81749829D01*
X147262905Y-81673638D01*
X147262905Y-81483162D01*
X147301000Y-81406972D01*
X147339095Y-81368876D01*
X147415286Y-81330781D01*
X147491476Y-81330781D01*
X147605762Y-81368876D01*
X148062905Y-81826019D01*
X148062905Y-81330781D01*
X147262905Y-80645067D02*
X147262905Y-80797448D01*
X147301000Y-80873638D01*
X147339095Y-80911733D01*
X147453381Y-80987924D01*
X147605762Y-81026019D01*
X147910524Y-81026019D01*
X147986714Y-80987924D01*
X148024810Y-80949829D01*
X148062905Y-80873638D01*
X148062905Y-80721257D01*
X148024810Y-80645067D01*
X147986714Y-80606971D01*
X147910524Y-80568876D01*
X147720048Y-80568876D01*
X147643857Y-80606971D01*
X147605762Y-80645067D01*
X147567667Y-80721257D01*
X147567667Y-80873638D01*
X147605762Y-80949829D01*
X147643857Y-80987924D01*
X147720048Y-81026019D01*
X144799095Y-81787924D02*
X144761000Y-81749829D01*
X144722905Y-81673638D01*
X144722905Y-81483162D01*
X144761000Y-81406972D01*
X144799095Y-81368876D01*
X144875286Y-81330781D01*
X144951476Y-81330781D01*
X145065762Y-81368876D01*
X145522905Y-81826019D01*
X145522905Y-81330781D01*
X144722905Y-80606971D02*
X144722905Y-80987924D01*
X145103857Y-81026019D01*
X145065762Y-80987924D01*
X145027667Y-80911733D01*
X145027667Y-80721257D01*
X145065762Y-80645067D01*
X145103857Y-80606971D01*
X145180048Y-80568876D01*
X145370524Y-80568876D01*
X145446714Y-80606971D01*
X145484810Y-80645067D01*
X145522905Y-80721257D01*
X145522905Y-80911733D01*
X145484810Y-80987924D01*
X145446714Y-81026019D01*
X142259095Y-81787924D02*
X142221000Y-81749829D01*
X142182905Y-81673638D01*
X142182905Y-81483162D01*
X142221000Y-81406972D01*
X142259095Y-81368876D01*
X142335286Y-81330781D01*
X142411476Y-81330781D01*
X142525762Y-81368876D01*
X142982905Y-81826019D01*
X142982905Y-81330781D01*
X142449571Y-80645067D02*
X142982905Y-80645067D01*
X142144810Y-80835543D02*
X142716238Y-81026019D01*
X142716238Y-80530781D01*
X139719095Y-81787924D02*
X139681000Y-81749829D01*
X139642905Y-81673638D01*
X139642905Y-81483162D01*
X139681000Y-81406972D01*
X139719095Y-81368876D01*
X139795286Y-81330781D01*
X139871476Y-81330781D01*
X139985762Y-81368876D01*
X140442905Y-81826019D01*
X140442905Y-81330781D01*
X139642905Y-81064114D02*
X139642905Y-80568876D01*
X139947667Y-80835543D01*
X139947667Y-80721257D01*
X139985762Y-80645067D01*
X140023857Y-80606971D01*
X140100048Y-80568876D01*
X140290524Y-80568876D01*
X140366714Y-80606971D01*
X140404810Y-80645067D01*
X140442905Y-80721257D01*
X140442905Y-80949829D01*
X140404810Y-81026019D01*
X140366714Y-81064114D01*
X132099095Y-81787924D02*
X132061000Y-81749829D01*
X132022905Y-81673638D01*
X132022905Y-81483162D01*
X132061000Y-81406972D01*
X132099095Y-81368876D01*
X132175286Y-81330781D01*
X132251476Y-81330781D01*
X132365762Y-81368876D01*
X132822905Y-81826019D01*
X132822905Y-81330781D01*
X132099095Y-81026019D02*
X132061000Y-80987924D01*
X132022905Y-80911733D01*
X132022905Y-80721257D01*
X132061000Y-80645067D01*
X132099095Y-80606971D01*
X132175286Y-80568876D01*
X132251476Y-80568876D01*
X132365762Y-80606971D01*
X132822905Y-81064114D01*
X132822905Y-80568876D01*
X129559095Y-81787924D02*
X129521000Y-81749829D01*
X129482905Y-81673638D01*
X129482905Y-81483162D01*
X129521000Y-81406972D01*
X129559095Y-81368876D01*
X129635286Y-81330781D01*
X129711476Y-81330781D01*
X129825762Y-81368876D01*
X130282905Y-81826019D01*
X130282905Y-81330781D01*
X130282905Y-80568876D02*
X130282905Y-81026019D01*
X130282905Y-80797448D02*
X129482905Y-80797448D01*
X129597190Y-80873638D01*
X129673381Y-80949829D01*
X129711476Y-81026019D01*
X127019095Y-81787924D02*
X126981000Y-81749829D01*
X126942905Y-81673638D01*
X126942905Y-81483162D01*
X126981000Y-81406972D01*
X127019095Y-81368876D01*
X127095286Y-81330781D01*
X127171476Y-81330781D01*
X127285762Y-81368876D01*
X127742905Y-81826019D01*
X127742905Y-81330781D01*
X126942905Y-80835543D02*
X126942905Y-80759352D01*
X126981000Y-80683162D01*
X127019095Y-80645067D01*
X127095286Y-80606971D01*
X127247667Y-80568876D01*
X127438143Y-80568876D01*
X127590524Y-80606971D01*
X127666714Y-80645067D01*
X127704810Y-80683162D01*
X127742905Y-80759352D01*
X127742905Y-80835543D01*
X127704810Y-80911733D01*
X127666714Y-80949829D01*
X127590524Y-80987924D01*
X127438143Y-81026019D01*
X127247667Y-81026019D01*
X127095286Y-80987924D01*
X127019095Y-80949829D01*
X126981000Y-80911733D01*
X126942905Y-80835543D01*
X125202905Y-81330781D02*
X125202905Y-81787924D01*
X125202905Y-81559353D02*
X124402905Y-81559353D01*
X124517190Y-81635543D01*
X124593381Y-81711734D01*
X124631476Y-81787924D01*
X125202905Y-80949829D02*
X125202905Y-80797448D01*
X125164810Y-80721257D01*
X125126714Y-80683162D01*
X125012429Y-80606971D01*
X124860048Y-80568876D01*
X124555286Y-80568876D01*
X124479095Y-80606971D01*
X124441000Y-80645067D01*
X124402905Y-80721257D01*
X124402905Y-80873638D01*
X124441000Y-80949829D01*
X124479095Y-80987924D01*
X124555286Y-81026019D01*
X124745762Y-81026019D01*
X124821952Y-80987924D01*
X124860048Y-80949829D01*
X124898143Y-80873638D01*
X124898143Y-80721257D01*
X124860048Y-80645067D01*
X124821952Y-80606971D01*
X124745762Y-80568876D01*
X148062905Y-74980781D02*
X148062905Y-75437924D01*
X148062905Y-75209353D02*
X147262905Y-75209353D01*
X147377190Y-75285543D01*
X147453381Y-75361734D01*
X147491476Y-75437924D01*
X147605762Y-74523638D02*
X147567667Y-74599829D01*
X147529571Y-74637924D01*
X147453381Y-74676019D01*
X147415286Y-74676019D01*
X147339095Y-74637924D01*
X147301000Y-74599829D01*
X147262905Y-74523638D01*
X147262905Y-74371257D01*
X147301000Y-74295067D01*
X147339095Y-74256971D01*
X147415286Y-74218876D01*
X147453381Y-74218876D01*
X147529571Y-74256971D01*
X147567667Y-74295067D01*
X147605762Y-74371257D01*
X147605762Y-74523638D01*
X147643857Y-74599829D01*
X147681952Y-74637924D01*
X147758143Y-74676019D01*
X147910524Y-74676019D01*
X147986714Y-74637924D01*
X148024810Y-74599829D01*
X148062905Y-74523638D01*
X148062905Y-74371257D01*
X148024810Y-74295067D01*
X147986714Y-74256971D01*
X147910524Y-74218876D01*
X147758143Y-74218876D01*
X147681952Y-74256971D01*
X147643857Y-74295067D01*
X147605762Y-74371257D01*
X145522905Y-74980781D02*
X145522905Y-75437924D01*
X145522905Y-75209353D02*
X144722905Y-75209353D01*
X144837190Y-75285543D01*
X144913381Y-75361734D01*
X144951476Y-75437924D01*
X144722905Y-74714114D02*
X144722905Y-74180781D01*
X145522905Y-74523638D01*
X142982905Y-74980781D02*
X142982905Y-75437924D01*
X142982905Y-75209353D02*
X142182905Y-75209353D01*
X142297190Y-75285543D01*
X142373381Y-75361734D01*
X142411476Y-75437924D01*
X142182905Y-74295067D02*
X142182905Y-74447448D01*
X142221000Y-74523638D01*
X142259095Y-74561733D01*
X142373381Y-74637924D01*
X142525762Y-74676019D01*
X142830524Y-74676019D01*
X142906714Y-74637924D01*
X142944810Y-74599829D01*
X142982905Y-74523638D01*
X142982905Y-74371257D01*
X142944810Y-74295067D01*
X142906714Y-74256971D01*
X142830524Y-74218876D01*
X142640048Y-74218876D01*
X142563857Y-74256971D01*
X142525762Y-74295067D01*
X142487667Y-74371257D01*
X142487667Y-74523638D01*
X142525762Y-74599829D01*
X142563857Y-74637924D01*
X142640048Y-74676019D01*
X140442905Y-74980781D02*
X140442905Y-75437924D01*
X140442905Y-75209353D02*
X139642905Y-75209353D01*
X139757190Y-75285543D01*
X139833381Y-75361734D01*
X139871476Y-75437924D01*
X139642905Y-74714114D02*
X139642905Y-74218876D01*
X139947667Y-74485543D01*
X139947667Y-74371257D01*
X139985762Y-74295067D01*
X140023857Y-74256971D01*
X140100048Y-74218876D01*
X140290524Y-74218876D01*
X140366714Y-74256971D01*
X140404810Y-74295067D01*
X140442905Y-74371257D01*
X140442905Y-74599829D01*
X140404810Y-74676019D01*
X140366714Y-74714114D01*
X132822905Y-74980781D02*
X132822905Y-75437924D01*
X132822905Y-75209353D02*
X132022905Y-75209353D01*
X132137190Y-75285543D01*
X132213381Y-75361734D01*
X132251476Y-75437924D01*
X132099095Y-74676019D02*
X132061000Y-74637924D01*
X132022905Y-74561733D01*
X132022905Y-74371257D01*
X132061000Y-74295067D01*
X132099095Y-74256971D01*
X132175286Y-74218876D01*
X132251476Y-74218876D01*
X132365762Y-74256971D01*
X132822905Y-74714114D01*
X132822905Y-74218876D01*
X129482905Y-75247448D02*
X129482905Y-75171257D01*
X129521000Y-75095067D01*
X129559095Y-75056972D01*
X129635286Y-75018876D01*
X129787667Y-74980781D01*
X129978143Y-74980781D01*
X130130524Y-75018876D01*
X130206714Y-75056972D01*
X130244810Y-75095067D01*
X130282905Y-75171257D01*
X130282905Y-75247448D01*
X130244810Y-75323638D01*
X130206714Y-75361734D01*
X130130524Y-75399829D01*
X129978143Y-75437924D01*
X129787667Y-75437924D01*
X129635286Y-75399829D01*
X129559095Y-75361734D01*
X129521000Y-75323638D01*
X129482905Y-75247448D01*
X129482905Y-74295067D02*
X129482905Y-74447448D01*
X129521000Y-74523638D01*
X129559095Y-74561733D01*
X129673381Y-74637924D01*
X129825762Y-74676019D01*
X130130524Y-74676019D01*
X130206714Y-74637924D01*
X130244810Y-74599829D01*
X130282905Y-74523638D01*
X130282905Y-74371257D01*
X130244810Y-74295067D01*
X130206714Y-74256971D01*
X130130524Y-74218876D01*
X129940048Y-74218876D01*
X129863857Y-74256971D01*
X129825762Y-74295067D01*
X129787667Y-74371257D01*
X129787667Y-74523638D01*
X129825762Y-74599829D01*
X129863857Y-74637924D01*
X129940048Y-74676019D01*
X126942905Y-75247448D02*
X126942905Y-75171257D01*
X126981000Y-75095067D01*
X127019095Y-75056972D01*
X127095286Y-75018876D01*
X127247667Y-74980781D01*
X127438143Y-74980781D01*
X127590524Y-75018876D01*
X127666714Y-75056972D01*
X127704810Y-75095067D01*
X127742905Y-75171257D01*
X127742905Y-75247448D01*
X127704810Y-75323638D01*
X127666714Y-75361734D01*
X127590524Y-75399829D01*
X127438143Y-75437924D01*
X127247667Y-75437924D01*
X127095286Y-75399829D01*
X127019095Y-75361734D01*
X126981000Y-75323638D01*
X126942905Y-75247448D01*
X126942905Y-74256971D02*
X126942905Y-74637924D01*
X127323857Y-74676019D01*
X127285762Y-74637924D01*
X127247667Y-74561733D01*
X127247667Y-74371257D01*
X127285762Y-74295067D01*
X127323857Y-74256971D01*
X127400048Y-74218876D01*
X127590524Y-74218876D01*
X127666714Y-74256971D01*
X127704810Y-74295067D01*
X127742905Y-74371257D01*
X127742905Y-74561733D01*
X127704810Y-74637924D01*
X127666714Y-74676019D01*
X124402905Y-75247448D02*
X124402905Y-75171257D01*
X124441000Y-75095067D01*
X124479095Y-75056972D01*
X124555286Y-75018876D01*
X124707667Y-74980781D01*
X124898143Y-74980781D01*
X125050524Y-75018876D01*
X125126714Y-75056972D01*
X125164810Y-75095067D01*
X125202905Y-75171257D01*
X125202905Y-75247448D01*
X125164810Y-75323638D01*
X125126714Y-75361734D01*
X125050524Y-75399829D01*
X124898143Y-75437924D01*
X124707667Y-75437924D01*
X124555286Y-75399829D01*
X124479095Y-75361734D01*
X124441000Y-75323638D01*
X124402905Y-75247448D01*
X124669571Y-74295067D02*
X125202905Y-74295067D01*
X124364810Y-74485543D02*
X124936238Y-74676019D01*
X124936238Y-74180781D01*
D12*
X108458143Y-96938400D02*
X108315286Y-96866971D01*
X108101000Y-96866971D01*
X107886715Y-96938400D01*
X107743857Y-97081257D01*
X107672429Y-97224114D01*
X107601000Y-97509829D01*
X107601000Y-97724114D01*
X107672429Y-98009829D01*
X107743857Y-98152686D01*
X107886715Y-98295543D01*
X108101000Y-98366971D01*
X108243857Y-98366971D01*
X108458143Y-98295543D01*
X108529572Y-98224114D01*
X108529572Y-97724114D01*
X108243857Y-97724114D01*
X109172429Y-98366971D02*
X109172429Y-96866971D01*
X110029572Y-98366971D01*
X110029572Y-96866971D01*
X110743858Y-98366971D02*
X110743858Y-96866971D01*
X111101001Y-96866971D01*
X111315286Y-96938400D01*
X111458144Y-97081257D01*
X111529572Y-97224114D01*
X111601001Y-97509829D01*
X111601001Y-97724114D01*
X111529572Y-98009829D01*
X111458144Y-98152686D01*
X111315286Y-98295543D01*
X111101001Y-98366971D01*
X110743858Y-98366971D01*
X107386715Y-89246971D02*
X108315286Y-89246971D01*
X107815286Y-89818400D01*
X108029572Y-89818400D01*
X108172429Y-89889829D01*
X108243858Y-89961257D01*
X108315286Y-90104114D01*
X108315286Y-90461257D01*
X108243858Y-90604114D01*
X108172429Y-90675543D01*
X108029572Y-90746971D01*
X107601000Y-90746971D01*
X107458143Y-90675543D01*
X107386715Y-90604114D01*
X108958143Y-90604114D02*
X109029571Y-90675543D01*
X108958143Y-90746971D01*
X108886714Y-90675543D01*
X108958143Y-90604114D01*
X108958143Y-90746971D01*
X109529572Y-89246971D02*
X110458143Y-89246971D01*
X109958143Y-89818400D01*
X110172429Y-89818400D01*
X110315286Y-89889829D01*
X110386715Y-89961257D01*
X110458143Y-90104114D01*
X110458143Y-90461257D01*
X110386715Y-90604114D01*
X110315286Y-90675543D01*
X110172429Y-90746971D01*
X109743857Y-90746971D01*
X109601000Y-90675543D01*
X109529572Y-90604114D01*
X110886714Y-89246971D02*
X111386714Y-90746971D01*
X111886714Y-89246971D01*
X108458143Y-82968400D02*
X108315286Y-82896971D01*
X108101000Y-82896971D01*
X107886715Y-82968400D01*
X107743857Y-83111257D01*
X107672429Y-83254114D01*
X107601000Y-83539829D01*
X107601000Y-83754114D01*
X107672429Y-84039829D01*
X107743857Y-84182686D01*
X107886715Y-84325543D01*
X108101000Y-84396971D01*
X108243857Y-84396971D01*
X108458143Y-84325543D01*
X108529572Y-84254114D01*
X108529572Y-83754114D01*
X108243857Y-83754114D01*
X109172429Y-84396971D02*
X109172429Y-82896971D01*
X110029572Y-84396971D01*
X110029572Y-82896971D01*
X110743858Y-84396971D02*
X110743858Y-82896971D01*
X111101001Y-82896971D01*
X111315286Y-82968400D01*
X111458144Y-83111257D01*
X111529572Y-83254114D01*
X111601001Y-83539829D01*
X111601001Y-83754114D01*
X111529572Y-84039829D01*
X111458144Y-84182686D01*
X111315286Y-84325543D01*
X111101001Y-84396971D01*
X110743858Y-84396971D01*
X109315287Y-75276971D02*
X108601001Y-75276971D01*
X108529572Y-75991257D01*
X108601001Y-75919829D01*
X108743858Y-75848400D01*
X109101001Y-75848400D01*
X109243858Y-75919829D01*
X109315287Y-75991257D01*
X109386715Y-76134114D01*
X109386715Y-76491257D01*
X109315287Y-76634114D01*
X109243858Y-76705543D01*
X109101001Y-76776971D01*
X108743858Y-76776971D01*
X108601001Y-76705543D01*
X108529572Y-76634114D01*
X109815286Y-75276971D02*
X110315286Y-76776971D01*
X110815286Y-75276971D01*
X122273143Y-111924114D02*
X122344571Y-111709828D01*
X122344571Y-111352685D01*
X122273143Y-111209828D01*
X122201714Y-111138399D01*
X122058857Y-111066971D01*
X121916000Y-111066971D01*
X121773143Y-111138399D01*
X121701714Y-111209828D01*
X121630286Y-111352685D01*
X121558857Y-111638399D01*
X121487429Y-111781257D01*
X121416000Y-111852685D01*
X121273143Y-111924114D01*
X121130286Y-111924114D01*
X120987429Y-111852685D01*
X120916000Y-111781257D01*
X120844571Y-111638399D01*
X120844571Y-111281257D01*
X120916000Y-111066971D01*
X122344571Y-110424114D02*
X120844571Y-110424114D01*
X120844571Y-109852686D01*
X120916000Y-109709828D01*
X120987429Y-109638400D01*
X121130286Y-109566971D01*
X121344571Y-109566971D01*
X121487429Y-109638400D01*
X121558857Y-109709828D01*
X121630286Y-109852686D01*
X121630286Y-110424114D01*
X122344571Y-108924114D02*
X120844571Y-108924114D01*
X151554571Y-95342685D02*
X150054571Y-95342685D01*
X150197429Y-94699828D02*
X150126000Y-94628399D01*
X150054571Y-94485542D01*
X150054571Y-94128399D01*
X150126000Y-93985542D01*
X150197429Y-93914113D01*
X150340286Y-93842685D01*
X150483143Y-93842685D01*
X150697429Y-93914113D01*
X151554571Y-94771256D01*
X151554571Y-93842685D01*
X151411714Y-92342685D02*
X151483143Y-92414114D01*
X151554571Y-92628400D01*
X151554571Y-92771257D01*
X151483143Y-92985542D01*
X151340286Y-93128400D01*
X151197429Y-93199828D01*
X150911714Y-93271257D01*
X150697429Y-93271257D01*
X150411714Y-93199828D01*
X150268857Y-93128400D01*
X150126000Y-92985542D01*
X150054571Y-92771257D01*
X150054571Y-92628400D01*
X150126000Y-92414114D01*
X150197429Y-92342685D01*
X150126000Y-82043400D02*
X150054571Y-82186257D01*
X150054571Y-82400543D01*
X150126000Y-82614828D01*
X150268857Y-82757686D01*
X150411714Y-82829114D01*
X150697429Y-82900543D01*
X150911714Y-82900543D01*
X151197429Y-82829114D01*
X151340286Y-82757686D01*
X151483143Y-82614828D01*
X151554571Y-82400543D01*
X151554571Y-82257686D01*
X151483143Y-82043400D01*
X151411714Y-81971971D01*
X150911714Y-81971971D01*
X150911714Y-82257686D01*
X151554571Y-81329114D02*
X150054571Y-81329114D01*
X150054571Y-80757686D01*
X150126000Y-80614828D01*
X150197429Y-80543400D01*
X150340286Y-80471971D01*
X150554571Y-80471971D01*
X150697429Y-80543400D01*
X150768857Y-80614828D01*
X150840286Y-80757686D01*
X150840286Y-81329114D01*
X151554571Y-79829114D02*
X150054571Y-79829114D01*
X150054571Y-78829114D02*
X150054571Y-78543400D01*
X150126000Y-78400542D01*
X150268857Y-78257685D01*
X150554571Y-78186257D01*
X151054571Y-78186257D01*
X151340286Y-78257685D01*
X151483143Y-78400542D01*
X151554571Y-78543400D01*
X151554571Y-78829114D01*
X151483143Y-78971971D01*
X151340286Y-79114828D01*
X151054571Y-79186257D01*
X150554571Y-79186257D01*
X150268857Y-79114828D01*
X150126000Y-78971971D01*
X150054571Y-78829114D01*
D13*
X114681000Y-79908400D02*
X114681000Y-82448400D01*
X114681000Y-82448400D02*
X104521000Y-82448400D01*
X104521000Y-82448400D02*
X104521000Y-79908400D01*
X104521000Y-79908400D02*
X114681000Y-79908400D01*
D14*
X123451000Y-105308400D02*
X123451000Y-118128400D01*
X123451000Y-118128400D02*
X126231000Y-118128400D01*
X126231000Y-118128400D02*
X126231000Y-105308400D01*
X126231000Y-105308400D02*
X123451000Y-105308400D01*
X123451000Y-104038400D02*
X123451000Y-102648400D01*
X123451000Y-102648400D02*
X124841000Y-102648400D01*
X131071000Y-105308400D02*
X131071000Y-118128400D01*
X131071000Y-118128400D02*
X133851000Y-118128400D01*
X133851000Y-118128400D02*
X133851000Y-105308400D01*
X133851000Y-105308400D02*
X131071000Y-105308400D01*
X131071000Y-104038400D02*
X131071000Y-102648400D01*
X131071000Y-102648400D02*
X132461000Y-102648400D01*
D13*
X114681000Y-77368400D02*
X114681000Y-79908400D01*
X114681000Y-79908400D02*
X104521000Y-79908400D01*
X104521000Y-79908400D02*
X104521000Y-77368400D01*
X104521000Y-77368400D02*
X114681000Y-77368400D01*
X114681000Y-91338400D02*
X114681000Y-93878400D01*
X114681000Y-93878400D02*
X104521000Y-93878400D01*
X104521000Y-93878400D02*
X104521000Y-91338400D01*
X104521000Y-91338400D02*
X114681000Y-91338400D01*
X114681000Y-93878400D02*
X114681000Y-96418400D01*
X114681000Y-96418400D02*
X104521000Y-96418400D01*
X104521000Y-96418400D02*
X104521000Y-93878400D01*
X104521000Y-93878400D02*
X114681000Y-93878400D01*
X123571000Y-88798400D02*
X126111000Y-88798400D01*
X126111000Y-88798400D02*
X126111000Y-98958400D01*
X126111000Y-98958400D02*
X123571000Y-98958400D01*
X123571000Y-98958400D02*
X123571000Y-88798400D01*
X133731000Y-76098400D02*
X133731000Y-78638400D01*
X133731000Y-78638400D02*
X123571000Y-78638400D01*
X123571000Y-78638400D02*
X123571000Y-76098400D01*
X123571000Y-76098400D02*
X133731000Y-76098400D01*
X133731000Y-82448400D02*
X133731000Y-84988400D01*
X133731000Y-84988400D02*
X123571000Y-84988400D01*
X123571000Y-84988400D02*
X123571000Y-82448400D01*
X123571000Y-82448400D02*
X133731000Y-82448400D01*
X148971000Y-76098400D02*
X148971000Y-78638400D01*
X148971000Y-78638400D02*
X138811000Y-78638400D01*
X138811000Y-78638400D02*
X138811000Y-76098400D01*
X138811000Y-76098400D02*
X148971000Y-76098400D01*
X148971000Y-82448400D02*
X148971000Y-84988400D01*
X148971000Y-84988400D02*
X138811000Y-84988400D01*
X138811000Y-84988400D02*
X138811000Y-82448400D01*
X138811000Y-82448400D02*
X148971000Y-82448400D01*
X131191000Y-88798400D02*
X133731000Y-88798400D01*
X133731000Y-88798400D02*
X133731000Y-98958400D01*
X133731000Y-98958400D02*
X131191000Y-98958400D01*
X131191000Y-98958400D02*
X131191000Y-88798400D01*
X148971000Y-96418400D02*
X148971000Y-98958400D01*
X148971000Y-98958400D02*
X138811000Y-98958400D01*
X138811000Y-98958400D02*
X138811000Y-96418400D01*
X138811000Y-96418400D02*
X148971000Y-96418400D01*
X148971000Y-88798400D02*
X148971000Y-91338400D01*
X148971000Y-91338400D02*
X138811000Y-91338400D01*
X138811000Y-91338400D02*
X138811000Y-88798400D01*
X138811000Y-88798400D02*
X148971000Y-88798400D01*
M02*
