<?xml version="1.0" standalone="no"?>
 <!DOCTYPE svg PUBLIC "-//W3C//DTD SVG 1.1//EN" 
 "http://www.w3.org/Graphics/SVG/1.1/DTD/svg11.dtd"> 
<svg xmlns="http://www.w3.org/2000/svg" version="1.1" 
    width="6.50748cm" height="5.87248cm" viewBox="0 0 25620 23120 ">
<title>SVG Picture created as RPi_Hat_k3-B.SilkS.svg date 2017/03/23 13:00:33 </title>
  <desc>Picture generated by PCBNEW </desc>
<g style="fill:#000000; fill-opacity:1;stroke:#000000; stroke-opacity:1;
stroke-linecap:round; stroke-linejoin:round; "
 transform="translate(0 0) scale(1 1)">
</g>
<g style="fill:#C2C200; fill-opacity:0.0; 
stroke:#C2C200; stroke-width:-0.000393701; stroke-opacity:1; 
stroke-linecap:round; stroke-linejoin:round;">
</g>
<g style="fill:#C2C200; fill-opacity:0.0; 
stroke:#C2C200; stroke-width:39.3701; stroke-opacity:1; 
stroke-linecap:round; stroke-linejoin:round;">
<path d="M17342.5 21090.9 A393.701 393.701 0.0 0 0 18129.9 21090.9 " />
<path d="M18129.9 15185.4 A393.701 393.701 0.0 0 0 17342.5 15185.4 " />
<path d="M18129 15185
L18129 21090
" />
<path d="M17342 15185
L17342 21090
" />
<path d="M413.386 14988.6 A393.701 393.701 0.0 0 0 19.6854 15382.3 " />
<path d="M1594.49 14988.6 A393.701 393.701 0.0 0 0 1988.19 14594.9 " />
<path d="M1988.19 8689.34 A393.701 393.701 0.0 0 0 1594.49 8295.64 " />
<path d="M19.6854 7901.94 A393.701 393.701 0.0 0 0 413.386 8295.64 " />
<path d="M24429.1 22665.7 A1181.1 1181.1 0.0 0 0 25610.2 21484.6 " />
<path d="M19.6854 21484.6 A1181.1 1181.1 0.0 0 0 1200.79 22665.7 " />
<path d="M1200.79 421.628 A1181.1 1181.1 0.0 0 0 19.6854 1602.73 " />
<path d="M25610.2 1602.73 A1181.1 1181.1 0.0 0 0 24429.1 421.628 " />
<path d="M19 15382
L19 21484
" />
<path d="M19 1602
L19 7901
" />
<path d="M413 14988
L1594 14988
" />
<path d="M413 8295
L1594 8295
" />
<path d="M1988 8689
L1988 14594
" />
<path d="M1200 22665
L24429 22665
" />
<path d="M25610 1602
L25610 21484
" />
<path d="M1200 421
L24429 421
" />
</g>
<g style="fill:#840000; fill-opacity:0.0; 
stroke:#840000; stroke-width:39.3701; stroke-opacity:1; 
stroke-linecap:round; stroke-linejoin:round;">
</g>
<g style="fill:#840000; fill-opacity:0.0; 
stroke:#840000; stroke-width:59.0551; stroke-opacity:1; 
stroke-linecap:round; stroke-linejoin:round;">
<path d="M2580 1691
L2186 1691
L2186 1841
L2205 1878
L2224 1897
L2261 1916
L2317 1916
L2355 1897
L2374 1878
L2392 1841
L2392 1691
" />
<path d="M2580 2290
L2580 2065
" />
<path d="M2580 2178
L2186 2178
L2243 2140
L2280 2103
L2299 2065
" />
</g>
<g style="fill:#840084; fill-opacity:0.0; 
stroke:#840084; stroke-width:59.0551; stroke-opacity:1; 
stroke-linecap:round; stroke-linejoin:round;">
</g>
<g style="fill:#840084; fill-opacity:0.0; 
stroke:#840084; stroke-width:47.2441; stroke-opacity:1; 
stroke-linecap:round; stroke-linejoin:round;">
<path d="M3819 958
L22843 958
" />
<path d="M22843 958
L22843 3005
" />
<path d="M22843 3005
L2796 3005
" />
<path d="M2796 3005
L2796 1981
" />
<path d="M2796 1981
L3819 1981
" />
<path d="M3819 1981
L3819 958
" />
<path d="M3319 958
L2796 958
" />
<path d="M2796 958
L2796 1481
" />
</g> 
</svg>
