G04 #@! TF.FileFunction,Copper,L1,Top,Signal*
%FSLAX46Y46*%
G04 Gerber Fmt 4.6, Leading zero omitted, Abs format (unit mm)*
G04 Created by KiCad (PCBNEW 4.0.0-rc1-stable) date 02/05/2017 19:54:53*
%MOMM*%
G01*
G04 APERTURE LIST*
%ADD10C,0.100000*%
%ADD11C,1.700000*%
%ADD12O,1.700000X1.700000*%
%ADD13R,1.700000X1.700000*%
%ADD14C,0.250000*%
%ADD15C,1.000000*%
G04 APERTURE END LIST*
D10*
D11*
X113411000Y-81178400D03*
D12*
X110871000Y-81178400D03*
X108331000Y-81178400D03*
X105791000Y-81178400D03*
D13*
X99441000Y-68478400D03*
D12*
X99441000Y-71018400D03*
X101981000Y-68478400D03*
X101981000Y-71018400D03*
X104521000Y-68478400D03*
X104521000Y-71018400D03*
X107061000Y-68478400D03*
X107061000Y-71018400D03*
X109601000Y-68478400D03*
X109601000Y-71018400D03*
X112141000Y-68478400D03*
X112141000Y-71018400D03*
X114681000Y-68478400D03*
X114681000Y-71018400D03*
X117221000Y-68478400D03*
X117221000Y-71018400D03*
X119761000Y-68478400D03*
X119761000Y-71018400D03*
X122301000Y-68478400D03*
X122301000Y-71018400D03*
X124841000Y-68478400D03*
X124841000Y-71018400D03*
X127381000Y-68478400D03*
X127381000Y-71018400D03*
X129921000Y-68478400D03*
X129921000Y-71018400D03*
X132461000Y-68478400D03*
X132461000Y-71018400D03*
X135001000Y-68478400D03*
X135001000Y-71018400D03*
X137541000Y-68478400D03*
X137541000Y-71018400D03*
X140081000Y-68478400D03*
X140081000Y-71018400D03*
X142621000Y-68478400D03*
X142621000Y-71018400D03*
X145161000Y-68478400D03*
X145161000Y-71018400D03*
X147701000Y-68478400D03*
X147701000Y-71018400D03*
D13*
X124841000Y-104038400D03*
D12*
X124841000Y-106578400D03*
X124841000Y-109118400D03*
X124841000Y-111658400D03*
X124841000Y-114198400D03*
X124841000Y-116738400D03*
D13*
X132461000Y-104038400D03*
D12*
X132461000Y-106578400D03*
X132461000Y-109118400D03*
X132461000Y-111658400D03*
X132461000Y-114198400D03*
X132461000Y-116738400D03*
D11*
X105791000Y-104038400D03*
D12*
X108331000Y-104038400D03*
X110871000Y-104038400D03*
X113411000Y-104038400D03*
D11*
X105791000Y-106578400D03*
D12*
X108331000Y-106578400D03*
X110871000Y-106578400D03*
X113411000Y-106578400D03*
D11*
X105791000Y-109118400D03*
D12*
X108331000Y-109118400D03*
X110871000Y-109118400D03*
X113411000Y-109118400D03*
D11*
X105791000Y-114198400D03*
D12*
X108331000Y-114198400D03*
X110871000Y-114198400D03*
X113411000Y-114198400D03*
D11*
X113411000Y-116738400D03*
D12*
X110871000Y-116738400D03*
X108331000Y-116738400D03*
X105791000Y-116738400D03*
D11*
X113411000Y-78638400D03*
D12*
X110871000Y-78638400D03*
X108331000Y-78638400D03*
X105791000Y-78638400D03*
D11*
X113411000Y-92608400D03*
D12*
X110871000Y-92608400D03*
X108331000Y-92608400D03*
X105791000Y-92608400D03*
D11*
X113411000Y-95148400D03*
D12*
X110871000Y-95148400D03*
X108331000Y-95148400D03*
X105791000Y-95148400D03*
D11*
X124841000Y-90068400D03*
D12*
X124841000Y-92608400D03*
X124841000Y-95148400D03*
X124841000Y-97688400D03*
D11*
X132461000Y-77368400D03*
D12*
X129921000Y-77368400D03*
X127381000Y-77368400D03*
X124841000Y-77368400D03*
D11*
X132461000Y-83718400D03*
D12*
X129921000Y-83718400D03*
X127381000Y-83718400D03*
X124841000Y-83718400D03*
D11*
X147701000Y-77368400D03*
D12*
X145161000Y-77368400D03*
X142621000Y-77368400D03*
X140081000Y-77368400D03*
D11*
X147701000Y-83718400D03*
D12*
X145161000Y-83718400D03*
X142621000Y-83718400D03*
X140081000Y-83718400D03*
D11*
X132461000Y-90068400D03*
D12*
X132461000Y-92608400D03*
X132461000Y-95148400D03*
X132461000Y-97688400D03*
D11*
X147701000Y-97688400D03*
D12*
X145161000Y-97688400D03*
X142621000Y-97688400D03*
X140081000Y-97688400D03*
D11*
X147701000Y-90068400D03*
D12*
X145161000Y-90068400D03*
X142621000Y-90068400D03*
X140081000Y-90068400D03*
D13*
X100711000Y-78638400D03*
D12*
X100711000Y-81178400D03*
D14*
X108331000Y-81178400D02*
X105791000Y-81178400D01*
X110871000Y-81178400D02*
X108331000Y-81178400D01*
X113411000Y-81178400D02*
X110871000Y-81178400D01*
X110871000Y-95148400D02*
X113411000Y-95148400D01*
X108331000Y-95148400D02*
X110871000Y-95148400D01*
X105791000Y-95148400D02*
X108331000Y-95148400D01*
X140081000Y-68478400D02*
X140081000Y-68199000D01*
X140081000Y-68199000D02*
X138557000Y-66675000D01*
X136804400Y-66675000D02*
X135001000Y-68478400D01*
X138557000Y-66675000D02*
X136804400Y-66675000D01*
X135001000Y-68478400D02*
X135001000Y-68072000D01*
X129921000Y-70358000D02*
X129921000Y-71018400D01*
X109601000Y-71018400D02*
X109601000Y-70485000D01*
X142621000Y-68478400D02*
X141351000Y-69748400D01*
X142621000Y-76098400D02*
X142621000Y-77368400D01*
X141351000Y-74828400D02*
X142621000Y-76098400D01*
X141351000Y-69748400D02*
X141351000Y-74828400D01*
X142621000Y-68478400D02*
X142621000Y-68580000D01*
X124841000Y-111658400D02*
X128016000Y-111658400D01*
X128651000Y-69748400D02*
X127381000Y-68478400D01*
X128651000Y-72923400D02*
X128651000Y-69748400D01*
X127381000Y-74193400D02*
X128651000Y-72923400D01*
X124206000Y-74193400D02*
X127381000Y-74193400D01*
X121666000Y-76733400D02*
X124206000Y-74193400D01*
X121666000Y-84353400D02*
X121666000Y-76733400D01*
X123571000Y-86258400D02*
X121666000Y-84353400D01*
X127381000Y-86258400D02*
X123571000Y-86258400D01*
X128651000Y-87528400D02*
X127381000Y-86258400D01*
X128651000Y-111023400D02*
X128651000Y-87528400D01*
X128016000Y-111658400D02*
X128651000Y-111023400D01*
X127381000Y-68478400D02*
X127381000Y-68834000D01*
X132461000Y-90068400D02*
X132461000Y-88163400D01*
X132461000Y-88163400D02*
X135001000Y-85623400D01*
X132461000Y-68478400D02*
X133731000Y-69748400D01*
X135001000Y-75463400D02*
X135001000Y-85623400D01*
X133731000Y-74193400D02*
X135001000Y-75463400D01*
X133731000Y-69748400D02*
X133731000Y-74193400D01*
X132461000Y-90170000D02*
X132207000Y-90170000D01*
X129921000Y-68478400D02*
X131191000Y-69748400D01*
X131191000Y-111658400D02*
X132461000Y-111658400D01*
X129286000Y-109753400D02*
X131191000Y-111658400D01*
X129286000Y-86893400D02*
X129286000Y-109753400D01*
X128016000Y-85623400D02*
X129286000Y-86893400D01*
X124206000Y-85623400D02*
X128016000Y-85623400D01*
X122301000Y-83718400D02*
X124206000Y-85623400D01*
X122301000Y-77368400D02*
X122301000Y-83718400D01*
X124841000Y-74828400D02*
X122301000Y-77368400D01*
X129286000Y-74828400D02*
X124841000Y-74828400D01*
X131191000Y-72923400D02*
X129286000Y-74828400D01*
X131191000Y-69748400D02*
X131191000Y-72923400D01*
X129921000Y-68478400D02*
X129946400Y-68478400D01*
X109601000Y-68478400D02*
X110871000Y-69748400D01*
X112776000Y-74828400D02*
X113411000Y-74828400D01*
X110871000Y-72923400D02*
X112776000Y-74828400D01*
X110871000Y-69748400D02*
X110871000Y-72923400D01*
X124841000Y-90068400D02*
X122301000Y-90068400D01*
X119126000Y-86893400D02*
X119126000Y-78003400D01*
X122301000Y-90068400D02*
X119126000Y-86893400D01*
X115951000Y-74828400D02*
X119126000Y-78003400D01*
X113411000Y-74828400D02*
X115951000Y-74828400D01*
X109601000Y-68478400D02*
X109575600Y-68478400D01*
X107061000Y-68478400D02*
X108331000Y-69748400D01*
X110871000Y-75463400D02*
X112776000Y-75463400D01*
X108331000Y-72923400D02*
X110871000Y-75463400D01*
X108331000Y-69748400D02*
X108331000Y-72923400D01*
X124841000Y-92608400D02*
X122936000Y-92608400D01*
X122936000Y-92608400D02*
X118491000Y-88163400D01*
X118491000Y-88163400D02*
X118491000Y-78638400D01*
X118491000Y-78638400D02*
X115316000Y-75463400D01*
X115316000Y-75463400D02*
X112776000Y-75463400D01*
X124841000Y-92710000D02*
X124206000Y-92710000D01*
X105791000Y-78638400D02*
X113411000Y-78638400D01*
X145161000Y-71018400D02*
X145161000Y-73558400D01*
X147701000Y-81813400D02*
X147701000Y-83718400D01*
X149860000Y-79654400D02*
X147701000Y-81813400D01*
X149860000Y-76352400D02*
X149860000Y-79654400D01*
X147701000Y-74193400D02*
X149860000Y-76352400D01*
X145796000Y-74193400D02*
X147701000Y-74193400D01*
X145161000Y-73558400D02*
X145796000Y-74193400D01*
X145161000Y-71018400D02*
X145161000Y-71501000D01*
X140081000Y-71018400D02*
X140081000Y-77368400D01*
X134366000Y-84988400D02*
X131826000Y-87528400D01*
X131191000Y-91973400D02*
X131826000Y-92608400D01*
X131191000Y-88163400D02*
X131191000Y-91973400D01*
X131191000Y-88163400D02*
X131191000Y-88163400D01*
X131826000Y-87528400D02*
X131191000Y-88163400D01*
X131826000Y-92608400D02*
X132461000Y-92608400D01*
X134366000Y-84353400D02*
X134366000Y-84988400D01*
X132461000Y-71018400D02*
X132461000Y-74193400D01*
X134366000Y-76098400D02*
X134366000Y-84353400D01*
X132461000Y-74193400D02*
X134366000Y-76098400D01*
X132461000Y-71018400D02*
X132461000Y-71120000D01*
X124841000Y-73558400D02*
X123571000Y-73558400D01*
X123571000Y-73558400D02*
X121031000Y-76098400D01*
X121031000Y-84988400D02*
X122301000Y-86258400D01*
X121031000Y-76098400D02*
X121031000Y-84988400D01*
X127381000Y-71018400D02*
X127381000Y-72923400D01*
X126746000Y-73558400D02*
X124841000Y-73558400D01*
X127381000Y-72923400D02*
X126746000Y-73558400D01*
X127381000Y-109118400D02*
X124841000Y-109118400D01*
X128016000Y-108483400D02*
X127381000Y-109118400D01*
X128016000Y-88163400D02*
X128016000Y-108483400D01*
X126746000Y-86893400D02*
X128016000Y-88163400D01*
X122936000Y-86893400D02*
X126746000Y-86893400D01*
X122301000Y-86258400D02*
X122936000Y-86893400D01*
X127381000Y-71018400D02*
X127406400Y-71018400D01*
X124841000Y-71018400D02*
X124841000Y-71018400D01*
X126746000Y-106578400D02*
X124841000Y-106578400D01*
X127381000Y-105943400D02*
X126746000Y-106578400D01*
X127381000Y-88798400D02*
X127381000Y-105943400D01*
X126111000Y-87528400D02*
X127381000Y-88798400D01*
X122301000Y-87528400D02*
X126111000Y-87528400D01*
X120396000Y-85623400D02*
X122301000Y-87528400D01*
X120396000Y-75463400D02*
X120396000Y-85623400D01*
X124841000Y-71018400D02*
X120396000Y-75463400D01*
X124841000Y-104038400D02*
X125476000Y-104038400D01*
X125476000Y-104038400D02*
X126746000Y-102768400D01*
X126746000Y-102768400D02*
X126746000Y-89433400D01*
X122301000Y-71018400D02*
X122301000Y-72288400D01*
X121666000Y-88163400D02*
X124841000Y-88163400D01*
X119761000Y-86258400D02*
X121666000Y-88163400D01*
X119761000Y-74828400D02*
X119761000Y-86258400D01*
X122301000Y-72288400D02*
X119761000Y-74828400D01*
X125476000Y-88163400D02*
X126746000Y-89433400D01*
X124841000Y-88163400D02*
X125476000Y-88163400D01*
X122301000Y-71018400D02*
X122453400Y-71018400D01*
X122936000Y-98323400D02*
X122936000Y-93878400D01*
X110236000Y-76098400D02*
X107061000Y-72923400D01*
X114681000Y-76098400D02*
X110236000Y-76098400D01*
X117856000Y-79273400D02*
X114681000Y-76098400D01*
X117856000Y-88798400D02*
X117856000Y-79273400D01*
X122936000Y-93878400D02*
X117856000Y-88798400D01*
X107061000Y-72923400D02*
X107061000Y-71018400D01*
X124841000Y-77368400D02*
X124841000Y-79273400D01*
X107061000Y-72923400D02*
X107061000Y-71018400D01*
X122936000Y-117373400D02*
X122936000Y-98323400D01*
X124841000Y-119278400D02*
X122936000Y-117373400D01*
X132461000Y-119278400D02*
X124841000Y-119278400D01*
X134366000Y-117373400D02*
X132461000Y-119278400D01*
X134366000Y-103403400D02*
X134366000Y-117373400D01*
X132461000Y-101498400D02*
X134366000Y-103403400D01*
X131826000Y-101498400D02*
X132461000Y-101498400D01*
X129921000Y-99593400D02*
X131826000Y-101498400D01*
X129921000Y-86893400D02*
X129921000Y-99593400D01*
X131191000Y-85623400D02*
X129921000Y-86893400D01*
X131191000Y-82448400D02*
X131191000Y-85623400D01*
X129286000Y-80543400D02*
X131191000Y-82448400D01*
X126111000Y-80543400D02*
X129286000Y-80543400D01*
X124841000Y-79273400D02*
X126111000Y-80543400D01*
X107061000Y-71018400D02*
X107061000Y-71018400D01*
D15*
X108331000Y-114198400D02*
X105791000Y-114198400D01*
X113411000Y-114198400D02*
X110871000Y-114198400D01*
X110871000Y-114198400D02*
X108331000Y-114198400D01*
X110871000Y-116738400D02*
X108331000Y-116738400D01*
X108331000Y-116738400D02*
X105791000Y-116738400D01*
X108331000Y-104038400D02*
X108331000Y-109118400D01*
X110871000Y-104038400D02*
X110871000Y-109118400D01*
X113411000Y-104038400D02*
X113411000Y-109118400D01*
M02*
