G04 #@! TF.FileFunction,Legend,Top*
%FSLAX46Y46*%
G04 Gerber Fmt 4.6, Leading zero omitted, Abs format (unit mm)*
G04 Created by KiCad (PCBNEW 4.0.6-e0-6349~53~ubuntu14.04.1) date Thu May  4 07:53:51 2017*
%MOMM*%
%LPD*%
G01*
G04 APERTURE LIST*
%ADD10C,0.100000*%
%ADD11C,0.150000*%
%ADD12C,0.300000*%
%ADD13C,0.120000*%
%ADD14C,0.010000*%
G04 APERTURE END LIST*
D10*
X101981000Y-104673400D02*
X94996000Y-104673400D01*
X150876000Y-73558400D02*
X150876000Y-77368400D01*
X121666000Y-73558400D02*
X150876000Y-73558400D01*
X121666000Y-76733400D02*
X121666000Y-73558400D01*
X121666000Y-86258400D02*
X121666000Y-83083400D01*
X137541000Y-86258400D02*
X121666000Y-86258400D01*
X150876000Y-86258400D02*
X137541000Y-86258400D01*
X150876000Y-83718400D02*
X150876000Y-86258400D01*
X115951000Y-119278400D02*
X115951000Y-112928400D01*
X115951000Y-119278400D02*
X102616000Y-119278400D01*
X102616000Y-101498400D02*
X102616000Y-119278400D01*
X102616000Y-101498400D02*
X115951000Y-101498400D01*
X115951000Y-107213400D02*
X115951000Y-101498400D01*
X114046000Y-115468400D02*
X105791000Y-115468400D01*
X107061000Y-104038400D02*
X107061000Y-109118400D01*
X109601000Y-109118400D02*
X109601000Y-104038400D01*
X112141000Y-109118400D02*
X112141000Y-104038400D01*
X114681000Y-109118400D02*
X114681000Y-104038400D01*
X121666000Y-119278400D02*
X122301000Y-119278400D01*
X121666000Y-112928400D02*
X121666000Y-119278400D01*
X121666000Y-108483400D02*
X121666000Y-101498400D01*
X121666000Y-101498400D02*
X122301000Y-101498400D01*
X129286000Y-100228400D02*
X129286000Y-87528400D01*
X121666000Y-100228400D02*
X129286000Y-100228400D01*
X121666000Y-97053400D02*
X121666000Y-100228400D01*
X121666000Y-87528400D02*
X121666000Y-90703400D01*
X129286000Y-87528400D02*
X121666000Y-87528400D01*
X150876000Y-100228400D02*
X150876000Y-96418400D01*
X130556000Y-100228400D02*
X150876000Y-100228400D01*
X130556000Y-99593400D02*
X130556000Y-100228400D01*
X130556000Y-87528400D02*
X130556000Y-99593400D01*
X150876000Y-87528400D02*
X130556000Y-87528400D01*
X150876000Y-91338400D02*
X150876000Y-87528400D01*
X115951000Y-73558400D02*
X115951000Y-82448400D01*
X115951000Y-73558400D02*
X102616000Y-73558400D01*
X102616000Y-98958400D02*
X102616000Y-73558400D01*
X102616000Y-98958400D02*
X115951000Y-98958400D01*
X115951000Y-91338400D02*
X115951000Y-98958400D01*
X114046000Y-83718400D02*
X114681000Y-83083400D01*
X112141000Y-83718400D02*
X114046000Y-83718400D01*
X105156000Y-83718400D02*
X104521000Y-83083400D01*
X107061000Y-83718400D02*
X105156000Y-83718400D01*
X114046000Y-90068400D02*
X114681000Y-90703400D01*
X112141000Y-90068400D02*
X114046000Y-90068400D01*
X105156000Y-90068400D02*
X104521000Y-90703400D01*
X107061000Y-90068400D02*
X105156000Y-90068400D01*
X105156000Y-97688400D02*
X104521000Y-97053400D01*
X107061000Y-97688400D02*
X105156000Y-97688400D01*
X114046000Y-97688400D02*
X114681000Y-97053400D01*
X112141000Y-97688400D02*
X114046000Y-97688400D01*
X135001000Y-101498400D02*
X122301000Y-101498400D01*
X135001000Y-119278400D02*
X122301000Y-119278400D01*
X135001000Y-118008400D02*
X135001000Y-119278400D01*
X135001000Y-101498400D02*
X135001000Y-118008400D01*
X114046000Y-76098400D02*
X114681000Y-76733400D01*
X111506000Y-76098400D02*
X114046000Y-76098400D01*
X105156000Y-76098400D02*
X104521000Y-76733400D01*
X107696000Y-76098400D02*
X105156000Y-76098400D01*
D11*
X92777905Y-82889115D02*
X92396952Y-83089115D01*
X92777905Y-83231972D02*
X91977905Y-83231972D01*
X91977905Y-83003400D01*
X92016000Y-82946258D01*
X92054095Y-82917686D01*
X92130286Y-82889115D01*
X92244571Y-82889115D01*
X92320762Y-82917686D01*
X92358857Y-82946258D01*
X92396952Y-83003400D01*
X92396952Y-83231972D01*
X92777905Y-82631972D02*
X91977905Y-82631972D01*
X91977905Y-82403400D01*
X92016000Y-82346258D01*
X92054095Y-82317686D01*
X92130286Y-82289115D01*
X92244571Y-82289115D01*
X92320762Y-82317686D01*
X92358857Y-82346258D01*
X92396952Y-82403400D01*
X92396952Y-82631972D01*
X92777905Y-82031972D02*
X92244571Y-82031972D01*
X91977905Y-82031972D02*
X92016000Y-82060543D01*
X92054095Y-82031972D01*
X92016000Y-82003400D01*
X91977905Y-82031972D01*
X92054095Y-82031972D01*
X92777905Y-81746258D02*
X91977905Y-81746258D01*
X92358857Y-81746258D02*
X92358857Y-81403401D01*
X92777905Y-81403401D02*
X91977905Y-81403401D01*
X92777905Y-80860544D02*
X92358857Y-80860544D01*
X92282667Y-80889115D01*
X92244571Y-80946258D01*
X92244571Y-81060544D01*
X92282667Y-81117687D01*
X92739810Y-80860544D02*
X92777905Y-80917687D01*
X92777905Y-81060544D01*
X92739810Y-81117687D01*
X92663619Y-81146258D01*
X92587429Y-81146258D01*
X92511238Y-81117687D01*
X92473143Y-81060544D01*
X92473143Y-80917687D01*
X92435048Y-80860544D01*
X92244571Y-80660544D02*
X92244571Y-80431973D01*
X91977905Y-80574830D02*
X92663619Y-80574830D01*
X92739810Y-80546258D01*
X92777905Y-80489116D01*
X92777905Y-80431973D01*
X92739810Y-79517687D02*
X92777905Y-79574830D01*
X92777905Y-79689116D01*
X92739810Y-79746258D01*
X92701714Y-79774830D01*
X92625524Y-79803401D01*
X92396952Y-79803401D01*
X92320762Y-79774830D01*
X92282667Y-79746258D01*
X92244571Y-79689116D01*
X92244571Y-79574830D01*
X92282667Y-79517687D01*
X92777905Y-79174830D02*
X92739810Y-79231972D01*
X92701714Y-79260544D01*
X92625524Y-79289115D01*
X92396952Y-79289115D01*
X92320762Y-79260544D01*
X92282667Y-79231972D01*
X92244571Y-79174830D01*
X92244571Y-79089115D01*
X92282667Y-79031972D01*
X92320762Y-79003401D01*
X92396952Y-78974830D01*
X92625524Y-78974830D01*
X92701714Y-79003401D01*
X92739810Y-79031972D01*
X92777905Y-79089115D01*
X92777905Y-79174830D01*
X92244571Y-78717687D02*
X92777905Y-78717687D01*
X92320762Y-78717687D02*
X92282667Y-78689115D01*
X92244571Y-78631973D01*
X92244571Y-78546258D01*
X92282667Y-78489115D01*
X92358857Y-78460544D01*
X92777905Y-78460544D01*
X92244571Y-78174830D02*
X92777905Y-78174830D01*
X92320762Y-78174830D02*
X92282667Y-78146258D01*
X92244571Y-78089116D01*
X92244571Y-78003401D01*
X92282667Y-77946258D01*
X92358857Y-77917687D01*
X92777905Y-77917687D01*
X92739810Y-77403401D02*
X92777905Y-77460544D01*
X92777905Y-77574830D01*
X92739810Y-77631973D01*
X92663619Y-77660544D01*
X92358857Y-77660544D01*
X92282667Y-77631973D01*
X92244571Y-77574830D01*
X92244571Y-77460544D01*
X92282667Y-77403401D01*
X92358857Y-77374830D01*
X92435048Y-77374830D01*
X92511238Y-77660544D01*
X92739810Y-76860544D02*
X92777905Y-76917687D01*
X92777905Y-77031973D01*
X92739810Y-77089115D01*
X92701714Y-77117687D01*
X92625524Y-77146258D01*
X92396952Y-77146258D01*
X92320762Y-77117687D01*
X92282667Y-77089115D01*
X92244571Y-77031973D01*
X92244571Y-76917687D01*
X92282667Y-76860544D01*
X92244571Y-76689115D02*
X92244571Y-76460544D01*
X91977905Y-76603401D02*
X92663619Y-76603401D01*
X92739810Y-76574829D01*
X92777905Y-76517687D01*
X92777905Y-76460544D01*
X92777905Y-76174830D02*
X92739810Y-76231972D01*
X92701714Y-76260544D01*
X92625524Y-76289115D01*
X92396952Y-76289115D01*
X92320762Y-76260544D01*
X92282667Y-76231972D01*
X92244571Y-76174830D01*
X92244571Y-76089115D01*
X92282667Y-76031972D01*
X92320762Y-76003401D01*
X92396952Y-75974830D01*
X92625524Y-75974830D01*
X92701714Y-76003401D01*
X92739810Y-76031972D01*
X92777905Y-76089115D01*
X92777905Y-76174830D01*
X92777905Y-75717687D02*
X92244571Y-75717687D01*
X92396952Y-75717687D02*
X92320762Y-75689115D01*
X92282667Y-75660544D01*
X92244571Y-75603401D01*
X92244571Y-75546258D01*
X91977905Y-74974829D02*
X92777905Y-74774829D01*
X91977905Y-74574829D01*
X92054095Y-74403400D02*
X92016000Y-74374829D01*
X91977905Y-74317686D01*
X91977905Y-74174829D01*
X92016000Y-74117686D01*
X92054095Y-74089115D01*
X92130286Y-74060543D01*
X92206476Y-74060543D01*
X92320762Y-74089115D01*
X92777905Y-74431972D01*
X92777905Y-74060543D01*
X92701714Y-73803400D02*
X92739810Y-73774828D01*
X92777905Y-73803400D01*
X92739810Y-73831971D01*
X92701714Y-73803400D01*
X92777905Y-73803400D01*
X91977905Y-73403400D02*
X91977905Y-73346257D01*
X92016000Y-73289114D01*
X92054095Y-73260543D01*
X92130286Y-73231972D01*
X92282667Y-73203400D01*
X92473143Y-73203400D01*
X92625524Y-73231972D01*
X92701714Y-73260543D01*
X92739810Y-73289114D01*
X92777905Y-73346257D01*
X92777905Y-73403400D01*
X92739810Y-73460543D01*
X92701714Y-73489114D01*
X92625524Y-73517686D01*
X92473143Y-73546257D01*
X92282667Y-73546257D01*
X92130286Y-73517686D01*
X92054095Y-73489114D01*
X92016000Y-73460543D01*
X91977905Y-73403400D01*
X93746952Y-80303400D02*
X93708857Y-80331972D01*
X93670762Y-80389115D01*
X93670762Y-80446257D01*
X93708857Y-80503400D01*
X93746952Y-80531972D01*
X93823143Y-80560543D01*
X93899333Y-80560543D01*
X93975524Y-80531972D01*
X94013619Y-80503400D01*
X94051714Y-80446257D01*
X94051714Y-80389115D01*
X94013619Y-80331972D01*
X93975524Y-80303400D01*
X93670762Y-80303400D02*
X93975524Y-80303400D01*
X94013619Y-80274829D01*
X94013619Y-80246257D01*
X93975524Y-80189115D01*
X93899333Y-80160543D01*
X93708857Y-80160543D01*
X93594571Y-80217686D01*
X93518381Y-80303400D01*
X93480286Y-80417686D01*
X93518381Y-80531972D01*
X93594571Y-80617686D01*
X93708857Y-80674829D01*
X93861238Y-80703400D01*
X94013619Y-80674829D01*
X94127905Y-80617686D01*
X94204095Y-80531972D01*
X94242190Y-80417686D01*
X94204095Y-80303400D01*
X94127905Y-80217686D01*
X93594571Y-79989114D02*
X93594571Y-79760543D01*
X94127905Y-79903400D02*
X93442190Y-79903400D01*
X93366000Y-79874828D01*
X93327905Y-79817686D01*
X93327905Y-79760543D01*
X94127905Y-79303400D02*
X93708857Y-79303400D01*
X93632667Y-79331971D01*
X93594571Y-79389114D01*
X93594571Y-79503400D01*
X93632667Y-79560543D01*
X94089810Y-79303400D02*
X94127905Y-79360543D01*
X94127905Y-79503400D01*
X94089810Y-79560543D01*
X94013619Y-79589114D01*
X93937429Y-79589114D01*
X93861238Y-79560543D01*
X93823143Y-79503400D01*
X93823143Y-79360543D01*
X93785048Y-79303400D01*
X94127905Y-79017686D02*
X93327905Y-79017686D01*
X93632667Y-79017686D02*
X93594571Y-78960543D01*
X93594571Y-78846257D01*
X93632667Y-78789114D01*
X93670762Y-78760543D01*
X93746952Y-78731972D01*
X93975524Y-78731972D01*
X94051714Y-78760543D01*
X94089810Y-78789114D01*
X94127905Y-78846257D01*
X94127905Y-78960543D01*
X94089810Y-79017686D01*
X94089810Y-78246257D02*
X94127905Y-78303400D01*
X94127905Y-78417686D01*
X94089810Y-78474829D01*
X94013619Y-78503400D01*
X93708857Y-78503400D01*
X93632667Y-78474829D01*
X93594571Y-78417686D01*
X93594571Y-78303400D01*
X93632667Y-78246257D01*
X93708857Y-78217686D01*
X93785048Y-78217686D01*
X93861238Y-78503400D01*
X94127905Y-77874829D02*
X94089810Y-77931971D01*
X94013619Y-77960543D01*
X93327905Y-77960543D01*
X93594571Y-77731971D02*
X93594571Y-77503400D01*
X93327905Y-77646257D02*
X94013619Y-77646257D01*
X94089810Y-77617685D01*
X94127905Y-77560543D01*
X94127905Y-77503400D01*
X94127905Y-77303400D02*
X93594571Y-77303400D01*
X93746952Y-77303400D02*
X93670762Y-77274828D01*
X93632667Y-77246257D01*
X93594571Y-77189114D01*
X93594571Y-77131971D01*
X94127905Y-76674828D02*
X93708857Y-76674828D01*
X93632667Y-76703399D01*
X93594571Y-76760542D01*
X93594571Y-76874828D01*
X93632667Y-76931971D01*
X94089810Y-76674828D02*
X94127905Y-76731971D01*
X94127905Y-76874828D01*
X94089810Y-76931971D01*
X94013619Y-76960542D01*
X93937429Y-76960542D01*
X93861238Y-76931971D01*
X93823143Y-76874828D01*
X93823143Y-76731971D01*
X93785048Y-76674828D01*
X93594571Y-76389114D02*
X94127905Y-76389114D01*
X93670762Y-76389114D02*
X93632667Y-76360542D01*
X93594571Y-76303400D01*
X93594571Y-76217685D01*
X93632667Y-76160542D01*
X93708857Y-76131971D01*
X94127905Y-76131971D01*
X94127905Y-75846257D02*
X93594571Y-75846257D01*
X93670762Y-75846257D02*
X93632667Y-75817685D01*
X93594571Y-75760543D01*
X93594571Y-75674828D01*
X93632667Y-75617685D01*
X93708857Y-75589114D01*
X94127905Y-75589114D01*
X93708857Y-75589114D02*
X93632667Y-75560543D01*
X93594571Y-75503400D01*
X93594571Y-75417685D01*
X93632667Y-75360543D01*
X93708857Y-75331971D01*
X94127905Y-75331971D01*
D12*
X115129571Y-112781257D02*
X115129571Y-111924114D01*
X116629571Y-112352685D02*
X115129571Y-112352685D01*
X115843857Y-111424114D02*
X115843857Y-110924114D01*
X116629571Y-110709828D02*
X116629571Y-111424114D01*
X115129571Y-111424114D01*
X115129571Y-110709828D01*
X116558143Y-110138400D02*
X116629571Y-109924114D01*
X116629571Y-109566971D01*
X116558143Y-109424114D01*
X116486714Y-109352685D01*
X116343857Y-109281257D01*
X116201000Y-109281257D01*
X116058143Y-109352685D01*
X115986714Y-109424114D01*
X115915286Y-109566971D01*
X115843857Y-109852685D01*
X115772429Y-109995543D01*
X115701000Y-110066971D01*
X115558143Y-110138400D01*
X115415286Y-110138400D01*
X115272429Y-110066971D01*
X115201000Y-109995543D01*
X115129571Y-109852685D01*
X115129571Y-109495543D01*
X115201000Y-109281257D01*
X115129571Y-108852686D02*
X115129571Y-107995543D01*
X116629571Y-108424114D02*
X115129571Y-108424114D01*
X116629571Y-90357686D02*
X115129571Y-90357686D01*
X115129571Y-89786258D01*
X115201000Y-89643400D01*
X115272429Y-89571972D01*
X115415286Y-89500543D01*
X115629571Y-89500543D01*
X115772429Y-89571972D01*
X115843857Y-89643400D01*
X115915286Y-89786258D01*
X115915286Y-90357686D01*
X115129571Y-88571972D02*
X115129571Y-88286258D01*
X115201000Y-88143400D01*
X115343857Y-88000543D01*
X115629571Y-87929115D01*
X116129571Y-87929115D01*
X116415286Y-88000543D01*
X116558143Y-88143400D01*
X116629571Y-88286258D01*
X116629571Y-88571972D01*
X116558143Y-88714829D01*
X116415286Y-88857686D01*
X116129571Y-88929115D01*
X115629571Y-88929115D01*
X115343857Y-88857686D01*
X115201000Y-88714829D01*
X115129571Y-88571972D01*
X115129571Y-87429114D02*
X116629571Y-87071971D01*
X115558143Y-86786257D01*
X116629571Y-86500543D01*
X115129571Y-86143400D01*
X115843857Y-85571971D02*
X115843857Y-85071971D01*
X116629571Y-84857685D02*
X116629571Y-85571971D01*
X115129571Y-85571971D01*
X115129571Y-84857685D01*
X116629571Y-83357685D02*
X115915286Y-83857685D01*
X116629571Y-84214828D02*
X115129571Y-84214828D01*
X115129571Y-83643400D01*
X115201000Y-83500542D01*
X115272429Y-83429114D01*
X115415286Y-83357685D01*
X115629571Y-83357685D01*
X115772429Y-83429114D01*
X115843857Y-83500542D01*
X115915286Y-83643400D01*
X115915286Y-84214828D01*
X120916000Y-81408400D02*
X120844571Y-81551257D01*
X120844571Y-81765543D01*
X120916000Y-81979828D01*
X121058857Y-82122686D01*
X121201714Y-82194114D01*
X121487429Y-82265543D01*
X121701714Y-82265543D01*
X121987429Y-82194114D01*
X122130286Y-82122686D01*
X122273143Y-81979828D01*
X122344571Y-81765543D01*
X122344571Y-81622686D01*
X122273143Y-81408400D01*
X122201714Y-81336971D01*
X121701714Y-81336971D01*
X121701714Y-81622686D01*
X122344571Y-80694114D02*
X120844571Y-80694114D01*
X120844571Y-80122686D01*
X120916000Y-79979828D01*
X120987429Y-79908400D01*
X121130286Y-79836971D01*
X121344571Y-79836971D01*
X121487429Y-79908400D01*
X121558857Y-79979828D01*
X121630286Y-80122686D01*
X121630286Y-80694114D01*
X122344571Y-79194114D02*
X120844571Y-79194114D01*
X120844571Y-78194114D02*
X120844571Y-77908400D01*
X120916000Y-77765542D01*
X121058857Y-77622685D01*
X121344571Y-77551257D01*
X121844571Y-77551257D01*
X122130286Y-77622685D01*
X122273143Y-77765542D01*
X122344571Y-77908400D01*
X122344571Y-78194114D01*
X122273143Y-78336971D01*
X122130286Y-78479828D01*
X121844571Y-78551257D01*
X121344571Y-78551257D01*
X121058857Y-78479828D01*
X120916000Y-78336971D01*
X120844571Y-78194114D01*
D11*
X127247667Y-90430305D02*
X126981000Y-90049352D01*
X126790524Y-90430305D02*
X126790524Y-89630305D01*
X127095286Y-89630305D01*
X127171477Y-89668400D01*
X127209572Y-89706495D01*
X127247667Y-89782686D01*
X127247667Y-89896971D01*
X127209572Y-89973162D01*
X127171477Y-90011257D01*
X127095286Y-90049352D01*
X126790524Y-90049352D01*
X127514334Y-89630305D02*
X128047667Y-90430305D01*
X128047667Y-89630305D02*
X127514334Y-90430305D01*
X126771476Y-92170305D02*
X127228619Y-92170305D01*
X127000048Y-92970305D02*
X127000048Y-92170305D01*
X127419096Y-92170305D02*
X127952429Y-92970305D01*
X127952429Y-92170305D02*
X127419096Y-92970305D01*
X126352429Y-95205543D02*
X126961953Y-95205543D01*
X126657191Y-95510305D02*
X126657191Y-94900781D01*
X127723858Y-94710305D02*
X127342905Y-94710305D01*
X127304810Y-95091257D01*
X127342905Y-95053162D01*
X127419096Y-95015067D01*
X127609572Y-95015067D01*
X127685762Y-95053162D01*
X127723858Y-95091257D01*
X127761953Y-95167448D01*
X127761953Y-95357924D01*
X127723858Y-95434114D01*
X127685762Y-95472210D01*
X127609572Y-95510305D01*
X127419096Y-95510305D01*
X127342905Y-95472210D01*
X127304810Y-95434114D01*
X127990524Y-94710305D02*
X128257191Y-95510305D01*
X128523858Y-94710305D01*
X126771477Y-97288400D02*
X126695286Y-97250305D01*
X126581001Y-97250305D01*
X126466715Y-97288400D01*
X126390524Y-97364590D01*
X126352429Y-97440781D01*
X126314334Y-97593162D01*
X126314334Y-97707448D01*
X126352429Y-97859829D01*
X126390524Y-97936019D01*
X126466715Y-98012210D01*
X126581001Y-98050305D01*
X126657191Y-98050305D01*
X126771477Y-98012210D01*
X126809572Y-97974114D01*
X126809572Y-97707448D01*
X126657191Y-97707448D01*
X127152429Y-98050305D02*
X127152429Y-97250305D01*
X127609572Y-98050305D01*
X127609572Y-97250305D01*
X127990524Y-98050305D02*
X127990524Y-97250305D01*
X128181000Y-97250305D01*
X128295286Y-97288400D01*
X128371477Y-97364590D01*
X128409572Y-97440781D01*
X128447667Y-97593162D01*
X128447667Y-97707448D01*
X128409572Y-97859829D01*
X128371477Y-97936019D01*
X128295286Y-98012210D01*
X128181000Y-98050305D01*
X127990524Y-98050305D01*
X126631953Y-116795543D02*
X127241477Y-116795543D01*
X128041477Y-116338400D02*
X127965286Y-116300305D01*
X127851001Y-116300305D01*
X127736715Y-116338400D01*
X127660524Y-116414590D01*
X127622429Y-116490781D01*
X127584334Y-116643162D01*
X127584334Y-116757448D01*
X127622429Y-116909829D01*
X127660524Y-116986019D01*
X127736715Y-117062210D01*
X127851001Y-117100305D01*
X127927191Y-117100305D01*
X128041477Y-117062210D01*
X128079572Y-117024114D01*
X128079572Y-116757448D01*
X127927191Y-116757448D01*
X128422429Y-117100305D02*
X128422429Y-116300305D01*
X128879572Y-117100305D01*
X128879572Y-116300305D01*
X129260524Y-117100305D02*
X129260524Y-116300305D01*
X129451000Y-116300305D01*
X129565286Y-116338400D01*
X129641477Y-116414590D01*
X129679572Y-116490781D01*
X129717667Y-116643162D01*
X129717667Y-116757448D01*
X129679572Y-116909829D01*
X129641477Y-116986019D01*
X129565286Y-117062210D01*
X129451000Y-117100305D01*
X129260524Y-117100305D01*
X130060524Y-116795543D02*
X130670048Y-116795543D01*
X126631953Y-114255543D02*
X127241477Y-114255543D01*
X127622429Y-114255543D02*
X128231953Y-114255543D01*
X127927191Y-114560305D02*
X127927191Y-113950781D01*
X128993858Y-113760305D02*
X128612905Y-113760305D01*
X128574810Y-114141257D01*
X128612905Y-114103162D01*
X128689096Y-114065067D01*
X128879572Y-114065067D01*
X128955762Y-114103162D01*
X128993858Y-114141257D01*
X129031953Y-114217448D01*
X129031953Y-114407924D01*
X128993858Y-114484114D01*
X128955762Y-114522210D01*
X128879572Y-114560305D01*
X128689096Y-114560305D01*
X128612905Y-114522210D01*
X128574810Y-114484114D01*
X129260524Y-113760305D02*
X129527191Y-114560305D01*
X129793858Y-113760305D01*
X130060524Y-114255543D02*
X130670048Y-114255543D01*
X126951001Y-111908400D02*
X126917667Y-111941733D01*
X126817667Y-111975067D01*
X126751001Y-111975067D01*
X126651001Y-111941733D01*
X126584334Y-111875067D01*
X126551001Y-111808400D01*
X126517667Y-111675067D01*
X126517667Y-111575067D01*
X126551001Y-111441733D01*
X126584334Y-111375067D01*
X126651001Y-111308400D01*
X126751001Y-111275067D01*
X126817667Y-111275067D01*
X126917667Y-111308400D01*
X126951001Y-111341733D01*
X127251001Y-111608400D02*
X127484334Y-111608400D01*
X127584334Y-111975067D02*
X127251001Y-111975067D01*
X127251001Y-111275067D01*
X127584334Y-111275067D01*
X128017667Y-111275067D02*
X128084334Y-111275067D01*
X128151000Y-111308400D01*
X128184334Y-111341733D01*
X128217667Y-111408400D01*
X128251000Y-111541733D01*
X128251000Y-111708400D01*
X128217667Y-111841733D01*
X128184334Y-111908400D01*
X128151000Y-111941733D01*
X128084334Y-111975067D01*
X128017667Y-111975067D01*
X127951000Y-111941733D01*
X127917667Y-111908400D01*
X127884334Y-111841733D01*
X127851000Y-111708400D01*
X127851000Y-111541733D01*
X127884334Y-111408400D01*
X127917667Y-111341733D01*
X127951000Y-111308400D01*
X128017667Y-111275067D01*
X129484334Y-111908400D02*
X129451000Y-111941733D01*
X129351000Y-111975067D01*
X129284334Y-111975067D01*
X129184334Y-111941733D01*
X129117667Y-111875067D01*
X129084334Y-111808400D01*
X129051000Y-111675067D01*
X129051000Y-111575067D01*
X129084334Y-111441733D01*
X129117667Y-111375067D01*
X129184334Y-111308400D01*
X129284334Y-111275067D01*
X129351000Y-111275067D01*
X129451000Y-111308400D01*
X129484334Y-111341733D01*
X129784334Y-111608400D02*
X130017667Y-111608400D01*
X130117667Y-111975067D02*
X129784334Y-111975067D01*
X129784334Y-111275067D01*
X130117667Y-111275067D01*
X130784333Y-111975067D02*
X130384333Y-111975067D01*
X130584333Y-111975067D02*
X130584333Y-111275067D01*
X130517667Y-111375067D01*
X130451000Y-111441733D01*
X130384333Y-111475067D01*
X126346238Y-109175543D02*
X126955762Y-109175543D01*
X127298619Y-109442210D02*
X127412905Y-109480305D01*
X127603381Y-109480305D01*
X127679571Y-109442210D01*
X127717667Y-109404114D01*
X127755762Y-109327924D01*
X127755762Y-109251733D01*
X127717667Y-109175543D01*
X127679571Y-109137448D01*
X127603381Y-109099352D01*
X127451000Y-109061257D01*
X127374809Y-109023162D01*
X127336714Y-108985067D01*
X127298619Y-108908876D01*
X127298619Y-108832686D01*
X127336714Y-108756495D01*
X127374809Y-108718400D01*
X127451000Y-108680305D01*
X127641476Y-108680305D01*
X127755762Y-108718400D01*
X128555762Y-109404114D02*
X128517667Y-109442210D01*
X128403381Y-109480305D01*
X128327191Y-109480305D01*
X128212905Y-109442210D01*
X128136714Y-109366019D01*
X128098619Y-109289829D01*
X128060524Y-109137448D01*
X128060524Y-109023162D01*
X128098619Y-108870781D01*
X128136714Y-108794590D01*
X128212905Y-108718400D01*
X128327191Y-108680305D01*
X128403381Y-108680305D01*
X128517667Y-108718400D01*
X128555762Y-108756495D01*
X129279572Y-109480305D02*
X128898619Y-109480305D01*
X128898619Y-108680305D01*
X129546238Y-109480305D02*
X129546238Y-108680305D01*
X130003381Y-109480305D02*
X129660524Y-109023162D01*
X130003381Y-108680305D02*
X129546238Y-109137448D01*
X130346238Y-109175543D02*
X130955762Y-109175543D01*
X126403381Y-106635543D02*
X127012905Y-106635543D01*
X127393857Y-106940305D02*
X127393857Y-106140305D01*
X127660524Y-106711733D01*
X127927191Y-106140305D01*
X127927191Y-106940305D01*
X128308143Y-106940305D02*
X128308143Y-106140305D01*
X128651000Y-106902210D02*
X128765286Y-106940305D01*
X128955762Y-106940305D01*
X129031952Y-106902210D01*
X129070048Y-106864114D01*
X129108143Y-106787924D01*
X129108143Y-106711733D01*
X129070048Y-106635543D01*
X129031952Y-106597448D01*
X128955762Y-106559352D01*
X128803381Y-106521257D01*
X128727190Y-106483162D01*
X128689095Y-106445067D01*
X128651000Y-106368876D01*
X128651000Y-106292686D01*
X128689095Y-106216495D01*
X128727190Y-106178400D01*
X128803381Y-106140305D01*
X128993857Y-106140305D01*
X129108143Y-106178400D01*
X129603381Y-106140305D02*
X129755762Y-106140305D01*
X129831953Y-106178400D01*
X129908143Y-106254590D01*
X129946238Y-106406971D01*
X129946238Y-106673638D01*
X129908143Y-106826019D01*
X129831953Y-106902210D01*
X129755762Y-106940305D01*
X129603381Y-106940305D01*
X129527191Y-106902210D01*
X129451000Y-106826019D01*
X129412905Y-106673638D01*
X129412905Y-106406971D01*
X129451000Y-106254590D01*
X129527191Y-106178400D01*
X129603381Y-106140305D01*
X130289095Y-106635543D02*
X130898619Y-106635543D01*
X126403381Y-104095543D02*
X127012905Y-104095543D01*
X127393857Y-104400305D02*
X127393857Y-103600305D01*
X127660524Y-104171733D01*
X127927191Y-103600305D01*
X127927191Y-104400305D01*
X128460524Y-103600305D02*
X128612905Y-103600305D01*
X128689096Y-103638400D01*
X128765286Y-103714590D01*
X128803381Y-103866971D01*
X128803381Y-104133638D01*
X128765286Y-104286019D01*
X128689096Y-104362210D01*
X128612905Y-104400305D01*
X128460524Y-104400305D01*
X128384334Y-104362210D01*
X128308143Y-104286019D01*
X128270048Y-104133638D01*
X128270048Y-103866971D01*
X128308143Y-103714590D01*
X128384334Y-103638400D01*
X128460524Y-103600305D01*
X129108143Y-104362210D02*
X129222429Y-104400305D01*
X129412905Y-104400305D01*
X129489095Y-104362210D01*
X129527191Y-104324114D01*
X129565286Y-104247924D01*
X129565286Y-104171733D01*
X129527191Y-104095543D01*
X129489095Y-104057448D01*
X129412905Y-104019352D01*
X129260524Y-103981257D01*
X129184333Y-103943162D01*
X129146238Y-103905067D01*
X129108143Y-103828876D01*
X129108143Y-103752686D01*
X129146238Y-103676495D01*
X129184333Y-103638400D01*
X129260524Y-103600305D01*
X129451000Y-103600305D01*
X129565286Y-103638400D01*
X129908143Y-104400305D02*
X129908143Y-103600305D01*
X130289095Y-104095543D02*
X130898619Y-104095543D01*
X135026477Y-97288400D02*
X134950286Y-97250305D01*
X134836001Y-97250305D01*
X134721715Y-97288400D01*
X134645524Y-97364590D01*
X134607429Y-97440781D01*
X134569334Y-97593162D01*
X134569334Y-97707448D01*
X134607429Y-97859829D01*
X134645524Y-97936019D01*
X134721715Y-98012210D01*
X134836001Y-98050305D01*
X134912191Y-98050305D01*
X135026477Y-98012210D01*
X135064572Y-97974114D01*
X135064572Y-97707448D01*
X134912191Y-97707448D01*
X135407429Y-98050305D02*
X135407429Y-97250305D01*
X135864572Y-98050305D01*
X135864572Y-97250305D01*
X136245524Y-98050305D02*
X136245524Y-97250305D01*
X136436000Y-97250305D01*
X136550286Y-97288400D01*
X136626477Y-97364590D01*
X136664572Y-97440781D01*
X136702667Y-97593162D01*
X136702667Y-97707448D01*
X136664572Y-97859829D01*
X136626477Y-97936019D01*
X136550286Y-98012210D01*
X136436000Y-98050305D01*
X136245524Y-98050305D01*
X134607429Y-95205543D02*
X135216953Y-95205543D01*
X134912191Y-95510305D02*
X134912191Y-94900781D01*
X135978858Y-94710305D02*
X135597905Y-94710305D01*
X135559810Y-95091257D01*
X135597905Y-95053162D01*
X135674096Y-95015067D01*
X135864572Y-95015067D01*
X135940762Y-95053162D01*
X135978858Y-95091257D01*
X136016953Y-95167448D01*
X136016953Y-95357924D01*
X135978858Y-95434114D01*
X135940762Y-95472210D01*
X135864572Y-95510305D01*
X135674096Y-95510305D01*
X135597905Y-95472210D01*
X135559810Y-95434114D01*
X136245524Y-94710305D02*
X136512191Y-95510305D01*
X136778858Y-94710305D01*
X134283619Y-92932210D02*
X134397905Y-92970305D01*
X134588381Y-92970305D01*
X134664571Y-92932210D01*
X134702667Y-92894114D01*
X134740762Y-92817924D01*
X134740762Y-92741733D01*
X134702667Y-92665543D01*
X134664571Y-92627448D01*
X134588381Y-92589352D01*
X134436000Y-92551257D01*
X134359809Y-92513162D01*
X134321714Y-92475067D01*
X134283619Y-92398876D01*
X134283619Y-92322686D01*
X134321714Y-92246495D01*
X134359809Y-92208400D01*
X134436000Y-92170305D01*
X134626476Y-92170305D01*
X134740762Y-92208400D01*
X135083619Y-92970305D02*
X135083619Y-92170305D01*
X135274095Y-92170305D01*
X135388381Y-92208400D01*
X135464572Y-92284590D01*
X135502667Y-92360781D01*
X135540762Y-92513162D01*
X135540762Y-92627448D01*
X135502667Y-92779829D01*
X135464572Y-92856019D01*
X135388381Y-92932210D01*
X135274095Y-92970305D01*
X135083619Y-92970305D01*
X135845524Y-92741733D02*
X136226476Y-92741733D01*
X135769333Y-92970305D02*
X136036000Y-92170305D01*
X136302667Y-92970305D01*
X136531238Y-92246495D02*
X136569333Y-92208400D01*
X136645524Y-92170305D01*
X136836000Y-92170305D01*
X136912190Y-92208400D01*
X136950286Y-92246495D01*
X136988381Y-92322686D01*
X136988381Y-92398876D01*
X136950286Y-92513162D01*
X136493143Y-92970305D01*
X136988381Y-92970305D01*
X134302667Y-90392210D02*
X134416953Y-90430305D01*
X134607429Y-90430305D01*
X134683619Y-90392210D01*
X134721715Y-90354114D01*
X134759810Y-90277924D01*
X134759810Y-90201733D01*
X134721715Y-90125543D01*
X134683619Y-90087448D01*
X134607429Y-90049352D01*
X134455048Y-90011257D01*
X134378857Y-89973162D01*
X134340762Y-89935067D01*
X134302667Y-89858876D01*
X134302667Y-89782686D01*
X134340762Y-89706495D01*
X134378857Y-89668400D01*
X134455048Y-89630305D01*
X134645524Y-89630305D01*
X134759810Y-89668400D01*
X135559810Y-90354114D02*
X135521715Y-90392210D01*
X135407429Y-90430305D01*
X135331239Y-90430305D01*
X135216953Y-90392210D01*
X135140762Y-90316019D01*
X135102667Y-90239829D01*
X135064572Y-90087448D01*
X135064572Y-89973162D01*
X135102667Y-89820781D01*
X135140762Y-89744590D01*
X135216953Y-89668400D01*
X135331239Y-89630305D01*
X135407429Y-89630305D01*
X135521715Y-89668400D01*
X135559810Y-89706495D01*
X136283620Y-90430305D02*
X135902667Y-90430305D01*
X135902667Y-89630305D01*
X136512191Y-89706495D02*
X136550286Y-89668400D01*
X136626477Y-89630305D01*
X136816953Y-89630305D01*
X136893143Y-89668400D01*
X136931239Y-89706495D01*
X136969334Y-89782686D01*
X136969334Y-89858876D01*
X136931239Y-89973162D01*
X136474096Y-90430305D01*
X136969334Y-90430305D01*
D12*
X120844571Y-96271257D02*
X122058857Y-96271257D01*
X122201714Y-96199829D01*
X122273143Y-96128400D01*
X122344571Y-95985543D01*
X122344571Y-95699829D01*
X122273143Y-95556971D01*
X122201714Y-95485543D01*
X122058857Y-95414114D01*
X120844571Y-95414114D01*
X121916000Y-94771257D02*
X121916000Y-94056971D01*
X122344571Y-94914114D02*
X120844571Y-94414114D01*
X122344571Y-93914114D01*
X122344571Y-92556971D02*
X121630286Y-93056971D01*
X122344571Y-93414114D02*
X120844571Y-93414114D01*
X120844571Y-92842686D01*
X120916000Y-92699828D01*
X120987429Y-92628400D01*
X121130286Y-92556971D01*
X121344571Y-92556971D01*
X121487429Y-92628400D01*
X121558857Y-92699828D01*
X121630286Y-92842686D01*
X121630286Y-93414114D01*
X120844571Y-92128400D02*
X120844571Y-91271257D01*
X122344571Y-91699828D02*
X120844571Y-91699828D01*
D11*
X140138143Y-95897447D02*
X140138143Y-95287923D01*
X139681000Y-94487923D02*
X139642905Y-94564114D01*
X139642905Y-94678399D01*
X139681000Y-94792685D01*
X139757190Y-94868876D01*
X139833381Y-94906971D01*
X139985762Y-94945066D01*
X140100048Y-94945066D01*
X140252429Y-94906971D01*
X140328619Y-94868876D01*
X140404810Y-94792685D01*
X140442905Y-94678399D01*
X140442905Y-94602209D01*
X140404810Y-94487923D01*
X140366714Y-94449828D01*
X140100048Y-94449828D01*
X140100048Y-94602209D01*
X140442905Y-94106971D02*
X139642905Y-94106971D01*
X140442905Y-93649828D01*
X139642905Y-93649828D01*
X140442905Y-93268876D02*
X139642905Y-93268876D01*
X139642905Y-93078400D01*
X139681000Y-92964114D01*
X139757190Y-92887923D01*
X139833381Y-92849828D01*
X139985762Y-92811733D01*
X140100048Y-92811733D01*
X140252429Y-92849828D01*
X140328619Y-92887923D01*
X140404810Y-92964114D01*
X140442905Y-93078400D01*
X140442905Y-93268876D01*
X140138143Y-92468876D02*
X140138143Y-91859352D01*
X142678143Y-95897447D02*
X142678143Y-95287923D01*
X142678143Y-94906971D02*
X142678143Y-94297447D01*
X142982905Y-94602209D02*
X142373381Y-94602209D01*
X142182905Y-93535542D02*
X142182905Y-93916495D01*
X142563857Y-93954590D01*
X142525762Y-93916495D01*
X142487667Y-93840304D01*
X142487667Y-93649828D01*
X142525762Y-93573638D01*
X142563857Y-93535542D01*
X142640048Y-93497447D01*
X142830524Y-93497447D01*
X142906714Y-93535542D01*
X142944810Y-93573638D01*
X142982905Y-93649828D01*
X142982905Y-93840304D01*
X142944810Y-93916495D01*
X142906714Y-93954590D01*
X142182905Y-93268876D02*
X142982905Y-93002209D01*
X142182905Y-92735542D01*
X142678143Y-92468876D02*
X142678143Y-91859352D01*
X145218143Y-95802209D02*
X145218143Y-95192685D01*
X145484810Y-94849828D02*
X145522905Y-94735542D01*
X145522905Y-94545066D01*
X145484810Y-94468876D01*
X145446714Y-94430780D01*
X145370524Y-94392685D01*
X145294333Y-94392685D01*
X145218143Y-94430780D01*
X145180048Y-94468876D01*
X145141952Y-94545066D01*
X145103857Y-94697447D01*
X145065762Y-94773638D01*
X145027667Y-94811733D01*
X144951476Y-94849828D01*
X144875286Y-94849828D01*
X144799095Y-94811733D01*
X144761000Y-94773638D01*
X144722905Y-94697447D01*
X144722905Y-94506971D01*
X144761000Y-94392685D01*
X145522905Y-94049828D02*
X144722905Y-94049828D01*
X144722905Y-93859352D01*
X144761000Y-93745066D01*
X144837190Y-93668875D01*
X144913381Y-93630780D01*
X145065762Y-93592685D01*
X145180048Y-93592685D01*
X145332429Y-93630780D01*
X145408619Y-93668875D01*
X145484810Y-93745066D01*
X145522905Y-93859352D01*
X145522905Y-94049828D01*
X145294333Y-93287923D02*
X145294333Y-92906971D01*
X145522905Y-93364114D02*
X144722905Y-93097447D01*
X145522905Y-92830780D01*
X145218143Y-92564114D02*
X145218143Y-91954590D01*
X147758143Y-95783162D02*
X147758143Y-95173638D01*
X148024810Y-94830781D02*
X148062905Y-94716495D01*
X148062905Y-94526019D01*
X148024810Y-94449829D01*
X147986714Y-94411733D01*
X147910524Y-94373638D01*
X147834333Y-94373638D01*
X147758143Y-94411733D01*
X147720048Y-94449829D01*
X147681952Y-94526019D01*
X147643857Y-94678400D01*
X147605762Y-94754591D01*
X147567667Y-94792686D01*
X147491476Y-94830781D01*
X147415286Y-94830781D01*
X147339095Y-94792686D01*
X147301000Y-94754591D01*
X147262905Y-94678400D01*
X147262905Y-94487924D01*
X147301000Y-94373638D01*
X147986714Y-93573638D02*
X148024810Y-93611733D01*
X148062905Y-93726019D01*
X148062905Y-93802209D01*
X148024810Y-93916495D01*
X147948619Y-93992686D01*
X147872429Y-94030781D01*
X147720048Y-94068876D01*
X147605762Y-94068876D01*
X147453381Y-94030781D01*
X147377190Y-93992686D01*
X147301000Y-93916495D01*
X147262905Y-93802209D01*
X147262905Y-93726019D01*
X147301000Y-93611733D01*
X147339095Y-93573638D01*
X148062905Y-92849828D02*
X148062905Y-93230781D01*
X147262905Y-93230781D01*
X147758143Y-92583162D02*
X147758143Y-91973638D01*
X147339095Y-81787924D02*
X147301000Y-81749829D01*
X147262905Y-81673638D01*
X147262905Y-81483162D01*
X147301000Y-81406972D01*
X147339095Y-81368876D01*
X147415286Y-81330781D01*
X147491476Y-81330781D01*
X147605762Y-81368876D01*
X148062905Y-81826019D01*
X148062905Y-81330781D01*
X147262905Y-80645067D02*
X147262905Y-80797448D01*
X147301000Y-80873638D01*
X147339095Y-80911733D01*
X147453381Y-80987924D01*
X147605762Y-81026019D01*
X147910524Y-81026019D01*
X147986714Y-80987924D01*
X148024810Y-80949829D01*
X148062905Y-80873638D01*
X148062905Y-80721257D01*
X148024810Y-80645067D01*
X147986714Y-80606971D01*
X147910524Y-80568876D01*
X147720048Y-80568876D01*
X147643857Y-80606971D01*
X147605762Y-80645067D01*
X147567667Y-80721257D01*
X147567667Y-80873638D01*
X147605762Y-80949829D01*
X147643857Y-80987924D01*
X147720048Y-81026019D01*
X144799095Y-81787924D02*
X144761000Y-81749829D01*
X144722905Y-81673638D01*
X144722905Y-81483162D01*
X144761000Y-81406972D01*
X144799095Y-81368876D01*
X144875286Y-81330781D01*
X144951476Y-81330781D01*
X145065762Y-81368876D01*
X145522905Y-81826019D01*
X145522905Y-81330781D01*
X144722905Y-80606971D02*
X144722905Y-80987924D01*
X145103857Y-81026019D01*
X145065762Y-80987924D01*
X145027667Y-80911733D01*
X145027667Y-80721257D01*
X145065762Y-80645067D01*
X145103857Y-80606971D01*
X145180048Y-80568876D01*
X145370524Y-80568876D01*
X145446714Y-80606971D01*
X145484810Y-80645067D01*
X145522905Y-80721257D01*
X145522905Y-80911733D01*
X145484810Y-80987924D01*
X145446714Y-81026019D01*
X142259095Y-81787924D02*
X142221000Y-81749829D01*
X142182905Y-81673638D01*
X142182905Y-81483162D01*
X142221000Y-81406972D01*
X142259095Y-81368876D01*
X142335286Y-81330781D01*
X142411476Y-81330781D01*
X142525762Y-81368876D01*
X142982905Y-81826019D01*
X142982905Y-81330781D01*
X142449571Y-80645067D02*
X142982905Y-80645067D01*
X142144810Y-80835543D02*
X142716238Y-81026019D01*
X142716238Y-80530781D01*
X139719095Y-81787924D02*
X139681000Y-81749829D01*
X139642905Y-81673638D01*
X139642905Y-81483162D01*
X139681000Y-81406972D01*
X139719095Y-81368876D01*
X139795286Y-81330781D01*
X139871476Y-81330781D01*
X139985762Y-81368876D01*
X140442905Y-81826019D01*
X140442905Y-81330781D01*
X139642905Y-81064114D02*
X139642905Y-80568876D01*
X139947667Y-80835543D01*
X139947667Y-80721257D01*
X139985762Y-80645067D01*
X140023857Y-80606971D01*
X140100048Y-80568876D01*
X140290524Y-80568876D01*
X140366714Y-80606971D01*
X140404810Y-80645067D01*
X140442905Y-80721257D01*
X140442905Y-80949829D01*
X140404810Y-81026019D01*
X140366714Y-81064114D01*
X132099095Y-81787924D02*
X132061000Y-81749829D01*
X132022905Y-81673638D01*
X132022905Y-81483162D01*
X132061000Y-81406972D01*
X132099095Y-81368876D01*
X132175286Y-81330781D01*
X132251476Y-81330781D01*
X132365762Y-81368876D01*
X132822905Y-81826019D01*
X132822905Y-81330781D01*
X132099095Y-81026019D02*
X132061000Y-80987924D01*
X132022905Y-80911733D01*
X132022905Y-80721257D01*
X132061000Y-80645067D01*
X132099095Y-80606971D01*
X132175286Y-80568876D01*
X132251476Y-80568876D01*
X132365762Y-80606971D01*
X132822905Y-81064114D01*
X132822905Y-80568876D01*
X129559095Y-81787924D02*
X129521000Y-81749829D01*
X129482905Y-81673638D01*
X129482905Y-81483162D01*
X129521000Y-81406972D01*
X129559095Y-81368876D01*
X129635286Y-81330781D01*
X129711476Y-81330781D01*
X129825762Y-81368876D01*
X130282905Y-81826019D01*
X130282905Y-81330781D01*
X130282905Y-80568876D02*
X130282905Y-81026019D01*
X130282905Y-80797448D02*
X129482905Y-80797448D01*
X129597190Y-80873638D01*
X129673381Y-80949829D01*
X129711476Y-81026019D01*
X127019095Y-81787924D02*
X126981000Y-81749829D01*
X126942905Y-81673638D01*
X126942905Y-81483162D01*
X126981000Y-81406972D01*
X127019095Y-81368876D01*
X127095286Y-81330781D01*
X127171476Y-81330781D01*
X127285762Y-81368876D01*
X127742905Y-81826019D01*
X127742905Y-81330781D01*
X126942905Y-80835543D02*
X126942905Y-80759352D01*
X126981000Y-80683162D01*
X127019095Y-80645067D01*
X127095286Y-80606971D01*
X127247667Y-80568876D01*
X127438143Y-80568876D01*
X127590524Y-80606971D01*
X127666714Y-80645067D01*
X127704810Y-80683162D01*
X127742905Y-80759352D01*
X127742905Y-80835543D01*
X127704810Y-80911733D01*
X127666714Y-80949829D01*
X127590524Y-80987924D01*
X127438143Y-81026019D01*
X127247667Y-81026019D01*
X127095286Y-80987924D01*
X127019095Y-80949829D01*
X126981000Y-80911733D01*
X126942905Y-80835543D01*
X125202905Y-81330781D02*
X125202905Y-81787924D01*
X125202905Y-81559353D02*
X124402905Y-81559353D01*
X124517190Y-81635543D01*
X124593381Y-81711734D01*
X124631476Y-81787924D01*
X125202905Y-80949829D02*
X125202905Y-80797448D01*
X125164810Y-80721257D01*
X125126714Y-80683162D01*
X125012429Y-80606971D01*
X124860048Y-80568876D01*
X124555286Y-80568876D01*
X124479095Y-80606971D01*
X124441000Y-80645067D01*
X124402905Y-80721257D01*
X124402905Y-80873638D01*
X124441000Y-80949829D01*
X124479095Y-80987924D01*
X124555286Y-81026019D01*
X124745762Y-81026019D01*
X124821952Y-80987924D01*
X124860048Y-80949829D01*
X124898143Y-80873638D01*
X124898143Y-80721257D01*
X124860048Y-80645067D01*
X124821952Y-80606971D01*
X124745762Y-80568876D01*
X148062905Y-74980781D02*
X148062905Y-75437924D01*
X148062905Y-75209353D02*
X147262905Y-75209353D01*
X147377190Y-75285543D01*
X147453381Y-75361734D01*
X147491476Y-75437924D01*
X147605762Y-74523638D02*
X147567667Y-74599829D01*
X147529571Y-74637924D01*
X147453381Y-74676019D01*
X147415286Y-74676019D01*
X147339095Y-74637924D01*
X147301000Y-74599829D01*
X147262905Y-74523638D01*
X147262905Y-74371257D01*
X147301000Y-74295067D01*
X147339095Y-74256971D01*
X147415286Y-74218876D01*
X147453381Y-74218876D01*
X147529571Y-74256971D01*
X147567667Y-74295067D01*
X147605762Y-74371257D01*
X147605762Y-74523638D01*
X147643857Y-74599829D01*
X147681952Y-74637924D01*
X147758143Y-74676019D01*
X147910524Y-74676019D01*
X147986714Y-74637924D01*
X148024810Y-74599829D01*
X148062905Y-74523638D01*
X148062905Y-74371257D01*
X148024810Y-74295067D01*
X147986714Y-74256971D01*
X147910524Y-74218876D01*
X147758143Y-74218876D01*
X147681952Y-74256971D01*
X147643857Y-74295067D01*
X147605762Y-74371257D01*
X145522905Y-74980781D02*
X145522905Y-75437924D01*
X145522905Y-75209353D02*
X144722905Y-75209353D01*
X144837190Y-75285543D01*
X144913381Y-75361734D01*
X144951476Y-75437924D01*
X144722905Y-74714114D02*
X144722905Y-74180781D01*
X145522905Y-74523638D01*
X142982905Y-74980781D02*
X142982905Y-75437924D01*
X142982905Y-75209353D02*
X142182905Y-75209353D01*
X142297190Y-75285543D01*
X142373381Y-75361734D01*
X142411476Y-75437924D01*
X142182905Y-74295067D02*
X142182905Y-74447448D01*
X142221000Y-74523638D01*
X142259095Y-74561733D01*
X142373381Y-74637924D01*
X142525762Y-74676019D01*
X142830524Y-74676019D01*
X142906714Y-74637924D01*
X142944810Y-74599829D01*
X142982905Y-74523638D01*
X142982905Y-74371257D01*
X142944810Y-74295067D01*
X142906714Y-74256971D01*
X142830524Y-74218876D01*
X142640048Y-74218876D01*
X142563857Y-74256971D01*
X142525762Y-74295067D01*
X142487667Y-74371257D01*
X142487667Y-74523638D01*
X142525762Y-74599829D01*
X142563857Y-74637924D01*
X142640048Y-74676019D01*
X140442905Y-74980781D02*
X140442905Y-75437924D01*
X140442905Y-75209353D02*
X139642905Y-75209353D01*
X139757190Y-75285543D01*
X139833381Y-75361734D01*
X139871476Y-75437924D01*
X139642905Y-74714114D02*
X139642905Y-74218876D01*
X139947667Y-74485543D01*
X139947667Y-74371257D01*
X139985762Y-74295067D01*
X140023857Y-74256971D01*
X140100048Y-74218876D01*
X140290524Y-74218876D01*
X140366714Y-74256971D01*
X140404810Y-74295067D01*
X140442905Y-74371257D01*
X140442905Y-74599829D01*
X140404810Y-74676019D01*
X140366714Y-74714114D01*
X132822905Y-74980781D02*
X132822905Y-75437924D01*
X132822905Y-75209353D02*
X132022905Y-75209353D01*
X132137190Y-75285543D01*
X132213381Y-75361734D01*
X132251476Y-75437924D01*
X132099095Y-74676019D02*
X132061000Y-74637924D01*
X132022905Y-74561733D01*
X132022905Y-74371257D01*
X132061000Y-74295067D01*
X132099095Y-74256971D01*
X132175286Y-74218876D01*
X132251476Y-74218876D01*
X132365762Y-74256971D01*
X132822905Y-74714114D01*
X132822905Y-74218876D01*
X129482905Y-75247448D02*
X129482905Y-75171257D01*
X129521000Y-75095067D01*
X129559095Y-75056972D01*
X129635286Y-75018876D01*
X129787667Y-74980781D01*
X129978143Y-74980781D01*
X130130524Y-75018876D01*
X130206714Y-75056972D01*
X130244810Y-75095067D01*
X130282905Y-75171257D01*
X130282905Y-75247448D01*
X130244810Y-75323638D01*
X130206714Y-75361734D01*
X130130524Y-75399829D01*
X129978143Y-75437924D01*
X129787667Y-75437924D01*
X129635286Y-75399829D01*
X129559095Y-75361734D01*
X129521000Y-75323638D01*
X129482905Y-75247448D01*
X129482905Y-74295067D02*
X129482905Y-74447448D01*
X129521000Y-74523638D01*
X129559095Y-74561733D01*
X129673381Y-74637924D01*
X129825762Y-74676019D01*
X130130524Y-74676019D01*
X130206714Y-74637924D01*
X130244810Y-74599829D01*
X130282905Y-74523638D01*
X130282905Y-74371257D01*
X130244810Y-74295067D01*
X130206714Y-74256971D01*
X130130524Y-74218876D01*
X129940048Y-74218876D01*
X129863857Y-74256971D01*
X129825762Y-74295067D01*
X129787667Y-74371257D01*
X129787667Y-74523638D01*
X129825762Y-74599829D01*
X129863857Y-74637924D01*
X129940048Y-74676019D01*
X126942905Y-75247448D02*
X126942905Y-75171257D01*
X126981000Y-75095067D01*
X127019095Y-75056972D01*
X127095286Y-75018876D01*
X127247667Y-74980781D01*
X127438143Y-74980781D01*
X127590524Y-75018876D01*
X127666714Y-75056972D01*
X127704810Y-75095067D01*
X127742905Y-75171257D01*
X127742905Y-75247448D01*
X127704810Y-75323638D01*
X127666714Y-75361734D01*
X127590524Y-75399829D01*
X127438143Y-75437924D01*
X127247667Y-75437924D01*
X127095286Y-75399829D01*
X127019095Y-75361734D01*
X126981000Y-75323638D01*
X126942905Y-75247448D01*
X126942905Y-74256971D02*
X126942905Y-74637924D01*
X127323857Y-74676019D01*
X127285762Y-74637924D01*
X127247667Y-74561733D01*
X127247667Y-74371257D01*
X127285762Y-74295067D01*
X127323857Y-74256971D01*
X127400048Y-74218876D01*
X127590524Y-74218876D01*
X127666714Y-74256971D01*
X127704810Y-74295067D01*
X127742905Y-74371257D01*
X127742905Y-74561733D01*
X127704810Y-74637924D01*
X127666714Y-74676019D01*
X124402905Y-75247448D02*
X124402905Y-75171257D01*
X124441000Y-75095067D01*
X124479095Y-75056972D01*
X124555286Y-75018876D01*
X124707667Y-74980781D01*
X124898143Y-74980781D01*
X125050524Y-75018876D01*
X125126714Y-75056972D01*
X125164810Y-75095067D01*
X125202905Y-75171257D01*
X125202905Y-75247448D01*
X125164810Y-75323638D01*
X125126714Y-75361734D01*
X125050524Y-75399829D01*
X124898143Y-75437924D01*
X124707667Y-75437924D01*
X124555286Y-75399829D01*
X124479095Y-75361734D01*
X124441000Y-75323638D01*
X124402905Y-75247448D01*
X124669571Y-74295067D02*
X125202905Y-74295067D01*
X124364810Y-74485543D02*
X124936238Y-74676019D01*
X124936238Y-74180781D01*
D12*
X108458143Y-96938400D02*
X108315286Y-96866971D01*
X108101000Y-96866971D01*
X107886715Y-96938400D01*
X107743857Y-97081257D01*
X107672429Y-97224114D01*
X107601000Y-97509829D01*
X107601000Y-97724114D01*
X107672429Y-98009829D01*
X107743857Y-98152686D01*
X107886715Y-98295543D01*
X108101000Y-98366971D01*
X108243857Y-98366971D01*
X108458143Y-98295543D01*
X108529572Y-98224114D01*
X108529572Y-97724114D01*
X108243857Y-97724114D01*
X109172429Y-98366971D02*
X109172429Y-96866971D01*
X110029572Y-98366971D01*
X110029572Y-96866971D01*
X110743858Y-98366971D02*
X110743858Y-96866971D01*
X111101001Y-96866971D01*
X111315286Y-96938400D01*
X111458144Y-97081257D01*
X111529572Y-97224114D01*
X111601001Y-97509829D01*
X111601001Y-97724114D01*
X111529572Y-98009829D01*
X111458144Y-98152686D01*
X111315286Y-98295543D01*
X111101001Y-98366971D01*
X110743858Y-98366971D01*
X107386715Y-89246971D02*
X108315286Y-89246971D01*
X107815286Y-89818400D01*
X108029572Y-89818400D01*
X108172429Y-89889829D01*
X108243858Y-89961257D01*
X108315286Y-90104114D01*
X108315286Y-90461257D01*
X108243858Y-90604114D01*
X108172429Y-90675543D01*
X108029572Y-90746971D01*
X107601000Y-90746971D01*
X107458143Y-90675543D01*
X107386715Y-90604114D01*
X108958143Y-90604114D02*
X109029571Y-90675543D01*
X108958143Y-90746971D01*
X108886714Y-90675543D01*
X108958143Y-90604114D01*
X108958143Y-90746971D01*
X109529572Y-89246971D02*
X110458143Y-89246971D01*
X109958143Y-89818400D01*
X110172429Y-89818400D01*
X110315286Y-89889829D01*
X110386715Y-89961257D01*
X110458143Y-90104114D01*
X110458143Y-90461257D01*
X110386715Y-90604114D01*
X110315286Y-90675543D01*
X110172429Y-90746971D01*
X109743857Y-90746971D01*
X109601000Y-90675543D01*
X109529572Y-90604114D01*
X110886714Y-89246971D02*
X111386714Y-90746971D01*
X111886714Y-89246971D01*
X108458143Y-82968400D02*
X108315286Y-82896971D01*
X108101000Y-82896971D01*
X107886715Y-82968400D01*
X107743857Y-83111257D01*
X107672429Y-83254114D01*
X107601000Y-83539829D01*
X107601000Y-83754114D01*
X107672429Y-84039829D01*
X107743857Y-84182686D01*
X107886715Y-84325543D01*
X108101000Y-84396971D01*
X108243857Y-84396971D01*
X108458143Y-84325543D01*
X108529572Y-84254114D01*
X108529572Y-83754114D01*
X108243857Y-83754114D01*
X109172429Y-84396971D02*
X109172429Y-82896971D01*
X110029572Y-84396971D01*
X110029572Y-82896971D01*
X110743858Y-84396971D02*
X110743858Y-82896971D01*
X111101001Y-82896971D01*
X111315286Y-82968400D01*
X111458144Y-83111257D01*
X111529572Y-83254114D01*
X111601001Y-83539829D01*
X111601001Y-83754114D01*
X111529572Y-84039829D01*
X111458144Y-84182686D01*
X111315286Y-84325543D01*
X111101001Y-84396971D01*
X110743858Y-84396971D01*
X109315287Y-75276971D02*
X108601001Y-75276971D01*
X108529572Y-75991257D01*
X108601001Y-75919829D01*
X108743858Y-75848400D01*
X109101001Y-75848400D01*
X109243858Y-75919829D01*
X109315287Y-75991257D01*
X109386715Y-76134114D01*
X109386715Y-76491257D01*
X109315287Y-76634114D01*
X109243858Y-76705543D01*
X109101001Y-76776971D01*
X108743858Y-76776971D01*
X108601001Y-76705543D01*
X108529572Y-76634114D01*
X109815286Y-75276971D02*
X110315286Y-76776971D01*
X110815286Y-75276971D01*
X122273143Y-111924114D02*
X122344571Y-111709828D01*
X122344571Y-111352685D01*
X122273143Y-111209828D01*
X122201714Y-111138399D01*
X122058857Y-111066971D01*
X121916000Y-111066971D01*
X121773143Y-111138399D01*
X121701714Y-111209828D01*
X121630286Y-111352685D01*
X121558857Y-111638399D01*
X121487429Y-111781257D01*
X121416000Y-111852685D01*
X121273143Y-111924114D01*
X121130286Y-111924114D01*
X120987429Y-111852685D01*
X120916000Y-111781257D01*
X120844571Y-111638399D01*
X120844571Y-111281257D01*
X120916000Y-111066971D01*
X122344571Y-110424114D02*
X120844571Y-110424114D01*
X120844571Y-109852686D01*
X120916000Y-109709828D01*
X120987429Y-109638400D01*
X121130286Y-109566971D01*
X121344571Y-109566971D01*
X121487429Y-109638400D01*
X121558857Y-109709828D01*
X121630286Y-109852686D01*
X121630286Y-110424114D01*
X122344571Y-108924114D02*
X120844571Y-108924114D01*
X151554571Y-95342685D02*
X150054571Y-95342685D01*
X150197429Y-94699828D02*
X150126000Y-94628399D01*
X150054571Y-94485542D01*
X150054571Y-94128399D01*
X150126000Y-93985542D01*
X150197429Y-93914113D01*
X150340286Y-93842685D01*
X150483143Y-93842685D01*
X150697429Y-93914113D01*
X151554571Y-94771256D01*
X151554571Y-93842685D01*
X151411714Y-92342685D02*
X151483143Y-92414114D01*
X151554571Y-92628400D01*
X151554571Y-92771257D01*
X151483143Y-92985542D01*
X151340286Y-93128400D01*
X151197429Y-93199828D01*
X150911714Y-93271257D01*
X150697429Y-93271257D01*
X150411714Y-93199828D01*
X150268857Y-93128400D01*
X150126000Y-92985542D01*
X150054571Y-92771257D01*
X150054571Y-92628400D01*
X150126000Y-92414114D01*
X150197429Y-92342685D01*
X150126000Y-82043400D02*
X150054571Y-82186257D01*
X150054571Y-82400543D01*
X150126000Y-82614828D01*
X150268857Y-82757686D01*
X150411714Y-82829114D01*
X150697429Y-82900543D01*
X150911714Y-82900543D01*
X151197429Y-82829114D01*
X151340286Y-82757686D01*
X151483143Y-82614828D01*
X151554571Y-82400543D01*
X151554571Y-82257686D01*
X151483143Y-82043400D01*
X151411714Y-81971971D01*
X150911714Y-81971971D01*
X150911714Y-82257686D01*
X151554571Y-81329114D02*
X150054571Y-81329114D01*
X150054571Y-80757686D01*
X150126000Y-80614828D01*
X150197429Y-80543400D01*
X150340286Y-80471971D01*
X150554571Y-80471971D01*
X150697429Y-80543400D01*
X150768857Y-80614828D01*
X150840286Y-80757686D01*
X150840286Y-81329114D01*
X151554571Y-79829114D02*
X150054571Y-79829114D01*
X150054571Y-78829114D02*
X150054571Y-78543400D01*
X150126000Y-78400542D01*
X150268857Y-78257685D01*
X150554571Y-78186257D01*
X151054571Y-78186257D01*
X151340286Y-78257685D01*
X151483143Y-78400542D01*
X151554571Y-78543400D01*
X151554571Y-78829114D01*
X151483143Y-78971971D01*
X151340286Y-79114828D01*
X151054571Y-79186257D01*
X150554571Y-79186257D01*
X150268857Y-79114828D01*
X150126000Y-78971971D01*
X150054571Y-78829114D01*
D11*
X114681000Y-79908400D02*
X114681000Y-82448400D01*
X114681000Y-82448400D02*
X104521000Y-82448400D01*
X104521000Y-82448400D02*
X104521000Y-79908400D01*
X104521000Y-79908400D02*
X114681000Y-79908400D01*
D13*
X123451000Y-105308400D02*
X123451000Y-118128400D01*
X123451000Y-118128400D02*
X126231000Y-118128400D01*
X126231000Y-118128400D02*
X126231000Y-105308400D01*
X126231000Y-105308400D02*
X123451000Y-105308400D01*
X123451000Y-104038400D02*
X123451000Y-102648400D01*
X123451000Y-102648400D02*
X124841000Y-102648400D01*
X131071000Y-105308400D02*
X131071000Y-118128400D01*
X131071000Y-118128400D02*
X133851000Y-118128400D01*
X133851000Y-118128400D02*
X133851000Y-105308400D01*
X133851000Y-105308400D02*
X131071000Y-105308400D01*
X131071000Y-104038400D02*
X131071000Y-102648400D01*
X131071000Y-102648400D02*
X132461000Y-102648400D01*
D11*
X114681000Y-77368400D02*
X114681000Y-79908400D01*
X114681000Y-79908400D02*
X104521000Y-79908400D01*
X104521000Y-79908400D02*
X104521000Y-77368400D01*
X104521000Y-77368400D02*
X114681000Y-77368400D01*
X114681000Y-91338400D02*
X114681000Y-93878400D01*
X114681000Y-93878400D02*
X104521000Y-93878400D01*
X104521000Y-93878400D02*
X104521000Y-91338400D01*
X104521000Y-91338400D02*
X114681000Y-91338400D01*
X114681000Y-93878400D02*
X114681000Y-96418400D01*
X114681000Y-96418400D02*
X104521000Y-96418400D01*
X104521000Y-96418400D02*
X104521000Y-93878400D01*
X104521000Y-93878400D02*
X114681000Y-93878400D01*
X123571000Y-88798400D02*
X126111000Y-88798400D01*
X126111000Y-88798400D02*
X126111000Y-98958400D01*
X126111000Y-98958400D02*
X123571000Y-98958400D01*
X123571000Y-98958400D02*
X123571000Y-88798400D01*
X133731000Y-76098400D02*
X133731000Y-78638400D01*
X133731000Y-78638400D02*
X123571000Y-78638400D01*
X123571000Y-78638400D02*
X123571000Y-76098400D01*
X123571000Y-76098400D02*
X133731000Y-76098400D01*
X133731000Y-82448400D02*
X133731000Y-84988400D01*
X133731000Y-84988400D02*
X123571000Y-84988400D01*
X123571000Y-84988400D02*
X123571000Y-82448400D01*
X123571000Y-82448400D02*
X133731000Y-82448400D01*
X148971000Y-76098400D02*
X148971000Y-78638400D01*
X148971000Y-78638400D02*
X138811000Y-78638400D01*
X138811000Y-78638400D02*
X138811000Y-76098400D01*
X138811000Y-76098400D02*
X148971000Y-76098400D01*
X148971000Y-82448400D02*
X148971000Y-84988400D01*
X148971000Y-84988400D02*
X138811000Y-84988400D01*
X138811000Y-84988400D02*
X138811000Y-82448400D01*
X138811000Y-82448400D02*
X148971000Y-82448400D01*
X131191000Y-88798400D02*
X133731000Y-88798400D01*
X133731000Y-88798400D02*
X133731000Y-98958400D01*
X133731000Y-98958400D02*
X131191000Y-98958400D01*
X131191000Y-98958400D02*
X131191000Y-88798400D01*
X148971000Y-96418400D02*
X148971000Y-98958400D01*
X148971000Y-98958400D02*
X138811000Y-98958400D01*
X138811000Y-98958400D02*
X138811000Y-96418400D01*
X138811000Y-96418400D02*
X148971000Y-96418400D01*
X148971000Y-88798400D02*
X148971000Y-91338400D01*
X148971000Y-91338400D02*
X138811000Y-91338400D01*
X138811000Y-91338400D02*
X138811000Y-88798400D01*
X138811000Y-88798400D02*
X148971000Y-88798400D01*
D14*
G36*
X151231645Y-86781966D02*
X151231956Y-86706607D01*
X151232800Y-86650555D01*
X151234438Y-86610762D01*
X151237138Y-86584183D01*
X151241162Y-86567770D01*
X151246776Y-86558476D01*
X151254244Y-86553255D01*
X151260175Y-86550621D01*
X151280608Y-86544924D01*
X151322063Y-86535613D01*
X151380551Y-86523503D01*
X151452082Y-86509410D01*
X151532666Y-86494147D01*
X151573982Y-86486537D01*
X151656769Y-86471137D01*
X151731735Y-86456637D01*
X151795068Y-86443817D01*
X151842956Y-86433462D01*
X151871587Y-86426353D01*
X151877541Y-86424232D01*
X151887010Y-86410302D01*
X151903841Y-86377306D01*
X151926087Y-86329811D01*
X151951796Y-86272382D01*
X151979021Y-86209586D01*
X152005813Y-86145989D01*
X152030222Y-86086156D01*
X152050299Y-86034655D01*
X152064096Y-85996050D01*
X152069663Y-85974908D01*
X152069694Y-85974065D01*
X152062754Y-85960085D01*
X152043297Y-85928241D01*
X152013280Y-85881545D01*
X151974659Y-85823004D01*
X151929393Y-85755629D01*
X151891894Y-85700580D01*
X151842906Y-85628538D01*
X151799089Y-85563071D01*
X151762398Y-85507183D01*
X151734787Y-85463881D01*
X151718213Y-85436170D01*
X151714200Y-85427394D01*
X151722956Y-85413796D01*
X151747200Y-85385824D01*
X151783889Y-85346479D01*
X151829982Y-85298763D01*
X151882439Y-85245677D01*
X151938219Y-85190223D01*
X151994280Y-85135401D01*
X152047583Y-85084214D01*
X152095085Y-85039661D01*
X152133746Y-85004745D01*
X152160526Y-84982468D01*
X152171858Y-84975700D01*
X152187985Y-84981526D01*
X152219928Y-84999373D01*
X152268543Y-85029799D01*
X152334685Y-85073362D01*
X152419210Y-85130619D01*
X152522974Y-85202126D01*
X152573734Y-85237404D01*
X152622351Y-85270145D01*
X152664643Y-85296568D01*
X152695585Y-85313659D01*
X152709125Y-85318600D01*
X152725290Y-85313797D01*
X152760162Y-85300663D01*
X152809203Y-85281114D01*
X152867877Y-85257064D01*
X152931649Y-85230428D01*
X152995981Y-85203121D01*
X153056338Y-85177059D01*
X153108184Y-85154155D01*
X153146982Y-85136324D01*
X153168196Y-85125483D01*
X153170487Y-85123847D01*
X153174589Y-85110010D01*
X153182540Y-85074738D01*
X153193611Y-85021580D01*
X153207074Y-84954086D01*
X153222202Y-84875803D01*
X153232195Y-84822894D01*
X153248066Y-84738881D01*
X153262730Y-84662697D01*
X153275447Y-84598066D01*
X153285478Y-84548715D01*
X153292084Y-84518370D01*
X153294102Y-84510821D01*
X153300295Y-84505243D01*
X153315865Y-84500921D01*
X153343498Y-84497710D01*
X153385879Y-84495467D01*
X153445695Y-84494047D01*
X153525632Y-84493306D01*
X153624295Y-84493101D01*
X153723636Y-84493219D01*
X153800513Y-84493705D01*
X153857858Y-84494757D01*
X153898607Y-84496573D01*
X153925695Y-84499349D01*
X153942055Y-84503285D01*
X153950622Y-84508576D01*
X153954302Y-84515325D01*
X153959413Y-84537337D01*
X153967457Y-84577300D01*
X153977034Y-84628142D01*
X153981321Y-84651850D01*
X154003681Y-84775599D01*
X154022531Y-84876327D01*
X154038335Y-84956102D01*
X154051557Y-85016991D01*
X154062661Y-85061061D01*
X154072110Y-85090380D01*
X154080369Y-85107015D01*
X154084416Y-85111391D01*
X154101233Y-85120101D01*
X154136782Y-85136038D01*
X154186589Y-85157378D01*
X154246178Y-85182302D01*
X154311074Y-85208989D01*
X154376802Y-85235618D01*
X154438887Y-85260366D01*
X154492853Y-85281415D01*
X154534224Y-85296942D01*
X154558527Y-85305126D01*
X154562526Y-85305936D01*
X154575384Y-85299024D01*
X154606038Y-85279662D01*
X154651412Y-85249880D01*
X154708432Y-85211710D01*
X154774026Y-85167181D01*
X154812520Y-85140800D01*
X154882370Y-85093455D01*
X154946297Y-85051412D01*
X155001018Y-85016728D01*
X155043248Y-84991458D01*
X155069704Y-84977660D01*
X155076169Y-84975700D01*
X155091936Y-84984534D01*
X155122928Y-85009630D01*
X155166828Y-85048885D01*
X155221319Y-85100190D01*
X155284083Y-85161443D01*
X155319408Y-85196714D01*
X155387797Y-85265710D01*
X155440081Y-85319185D01*
X155478192Y-85359500D01*
X155504064Y-85389016D01*
X155519629Y-85410095D01*
X155526821Y-85425097D01*
X155527572Y-85436384D01*
X155523817Y-85446316D01*
X155523792Y-85446362D01*
X155512148Y-85465207D01*
X155488462Y-85501332D01*
X155455149Y-85551136D01*
X155414622Y-85611014D01*
X155369298Y-85677362D01*
X155357583Y-85694417D01*
X155312504Y-85760707D01*
X155272798Y-85820502D01*
X155240603Y-85870463D01*
X155218060Y-85907254D01*
X155207307Y-85927535D01*
X155206700Y-85929858D01*
X155212249Y-85947399D01*
X155227191Y-85981695D01*
X155248967Y-86027090D01*
X155265109Y-86058971D01*
X155289833Y-86109936D01*
X155306544Y-86150761D01*
X155313470Y-86176788D01*
X155312392Y-86183188D01*
X155298253Y-86190673D01*
X155263593Y-86206501D01*
X155211395Y-86229385D01*
X155144639Y-86258037D01*
X155066309Y-86291171D01*
X154979387Y-86327499D01*
X154946007Y-86341342D01*
X154847870Y-86381983D01*
X154749258Y-86422865D01*
X154654881Y-86462034D01*
X154569449Y-86497534D01*
X154497672Y-86527408D01*
X154444257Y-86549702D01*
X154440713Y-86551185D01*
X154382660Y-86574954D01*
X154332240Y-86594599D01*
X154294498Y-86608226D01*
X154274478Y-86613937D01*
X154273553Y-86614000D01*
X154258435Y-86604294D01*
X154234030Y-86578616D01*
X154205138Y-86542128D01*
X154199699Y-86534625D01*
X154108135Y-86423837D01*
X154008688Y-86337036D01*
X153900707Y-86273862D01*
X153783542Y-86233954D01*
X153656541Y-86216950D01*
X153625550Y-86216240D01*
X153498535Y-86226822D01*
X153381836Y-86259992D01*
X153273388Y-86316574D01*
X153171131Y-86397390D01*
X153170453Y-86398023D01*
X153086505Y-86492975D01*
X153023843Y-86598858D01*
X152982597Y-86712549D01*
X152962895Y-86830925D01*
X152964866Y-86950864D01*
X152988638Y-87069243D01*
X153034340Y-87182940D01*
X153102101Y-87288831D01*
X153132260Y-87324820D01*
X153227468Y-87413204D01*
X153333542Y-87478645D01*
X153450071Y-87520961D01*
X153576645Y-87539969D01*
X153617869Y-87541100D01*
X153744752Y-87532045D01*
X153858511Y-87503941D01*
X153961790Y-87455383D01*
X154057228Y-87384962D01*
X154147470Y-87291274D01*
X154190913Y-87236012D01*
X154222539Y-87195971D01*
X154250426Y-87165346D01*
X154270061Y-87148923D01*
X154274490Y-87147400D01*
X154290088Y-87152108D01*
X154326288Y-87165483D01*
X154380256Y-87186401D01*
X154449155Y-87213741D01*
X154530151Y-87246379D01*
X154620408Y-87283193D01*
X154695563Y-87314146D01*
X154795483Y-87355442D01*
X154892158Y-87395343D01*
X154981996Y-87432371D01*
X155061405Y-87465048D01*
X155126794Y-87491894D01*
X155174569Y-87511432D01*
X155194000Y-87519319D01*
X155252664Y-87543340D01*
X155290105Y-87562429D01*
X155308385Y-87581803D01*
X155309565Y-87606679D01*
X155295706Y-87642273D01*
X155268871Y-87693804D01*
X155265473Y-87700186D01*
X155240337Y-87749027D01*
X155220567Y-87790468D01*
X155208809Y-87818797D01*
X155206700Y-87827124D01*
X155213590Y-87841927D01*
X155232912Y-87874444D01*
X155262641Y-87921501D01*
X155300752Y-87979928D01*
X155345219Y-88046551D01*
X155371800Y-88085755D01*
X155418808Y-88155082D01*
X155460608Y-88217443D01*
X155495190Y-88269781D01*
X155520542Y-88309035D01*
X155534655Y-88332148D01*
X155536900Y-88336917D01*
X155528312Y-88348046D01*
X155504178Y-88374549D01*
X155466940Y-88413868D01*
X155419041Y-88463446D01*
X155362923Y-88520725D01*
X155318299Y-88565803D01*
X155256672Y-88626918D01*
X155199955Y-88681504D01*
X155150866Y-88727078D01*
X155112120Y-88761160D01*
X155086434Y-88781268D01*
X155077619Y-88785701D01*
X155061174Y-88778730D01*
X155027231Y-88759196D01*
X154979057Y-88729160D01*
X154919919Y-88690686D01*
X154853084Y-88645838D01*
X154816794Y-88620973D01*
X154747671Y-88573722D01*
X154685019Y-88531732D01*
X154632007Y-88497059D01*
X154591804Y-88471759D01*
X154567579Y-88457888D01*
X154562326Y-88455873D01*
X154544281Y-88460409D01*
X154507444Y-88473129D01*
X154456364Y-88492196D01*
X154395590Y-88515771D01*
X154329668Y-88542017D01*
X154263147Y-88569095D01*
X154200575Y-88595168D01*
X154146500Y-88618398D01*
X154105470Y-88636947D01*
X154082033Y-88648976D01*
X154078891Y-88651243D01*
X154071928Y-88667949D01*
X154061538Y-88705907D01*
X154048580Y-88761332D01*
X154033916Y-88830439D01*
X154018405Y-88909445D01*
X154010518Y-88951937D01*
X153995082Y-89034470D01*
X153980363Y-89109008D01*
X153967170Y-89171773D01*
X153956312Y-89218988D01*
X153948598Y-89246875D01*
X153946146Y-89252425D01*
X153929562Y-89257953D01*
X153892184Y-89262420D01*
X153838192Y-89265837D01*
X153771765Y-89268215D01*
X153697085Y-89269564D01*
X153618331Y-89269895D01*
X153539682Y-89269218D01*
X153465319Y-89267544D01*
X153399422Y-89264882D01*
X153346170Y-89261244D01*
X153309744Y-89256640D01*
X153294323Y-89251080D01*
X153294184Y-89250794D01*
X153290033Y-89233772D01*
X153282021Y-89195490D01*
X153270884Y-89139665D01*
X153257357Y-89070020D01*
X153242176Y-88990273D01*
X153232458Y-88938479D01*
X153216498Y-88854907D01*
X153201429Y-88779670D01*
X153188033Y-88716374D01*
X153177087Y-88668626D01*
X153169372Y-88640032D01*
X153166550Y-88633501D01*
X153149903Y-88623890D01*
X153114441Y-88606976D01*
X153064818Y-88584708D01*
X153005688Y-88559038D01*
X152941704Y-88531916D01*
X152877521Y-88505293D01*
X152817791Y-88481119D01*
X152767168Y-88461346D01*
X152730306Y-88447925D01*
X152711858Y-88442805D01*
X152711631Y-88442800D01*
X152695140Y-88449746D01*
X152661089Y-88469223D01*
X152612722Y-88499194D01*
X152553283Y-88537619D01*
X152486018Y-88582459D01*
X152446224Y-88609556D01*
X152375831Y-88657446D01*
X152311393Y-88700528D01*
X152256186Y-88736671D01*
X152213487Y-88763746D01*
X152186571Y-88779624D01*
X152179689Y-88782810D01*
X152166868Y-88780022D01*
X152144905Y-88765823D01*
X152112154Y-88738771D01*
X152066969Y-88697423D01*
X152007706Y-88640337D01*
X151935214Y-88568566D01*
X151874098Y-88506907D01*
X151819463Y-88450600D01*
X151773763Y-88402273D01*
X151739453Y-88364553D01*
X151718987Y-88340068D01*
X151714200Y-88332016D01*
X151721150Y-88317523D01*
X151740668Y-88285301D01*
X151770754Y-88238428D01*
X151809410Y-88179984D01*
X151854636Y-88113045D01*
X151887479Y-88065180D01*
X151936287Y-87994001D01*
X151980212Y-87929045D01*
X152017182Y-87873449D01*
X152045124Y-87830353D01*
X152061965Y-87802895D01*
X152065985Y-87794891D01*
X152063004Y-87777622D01*
X152051822Y-87741682D01*
X152034276Y-87691737D01*
X152012202Y-87632450D01*
X151987434Y-87568484D01*
X151961808Y-87504502D01*
X151937162Y-87445168D01*
X151915329Y-87395146D01*
X151898147Y-87359100D01*
X151887667Y-87341907D01*
X151871535Y-87335493D01*
X151833980Y-87325429D01*
X151778590Y-87312523D01*
X151708948Y-87297583D01*
X151628640Y-87281414D01*
X151564044Y-87269057D01*
X151478363Y-87252825D01*
X151400858Y-87237766D01*
X151335063Y-87224596D01*
X151284515Y-87214034D01*
X151252751Y-87206797D01*
X151243369Y-87203976D01*
X151239977Y-87189589D01*
X151237010Y-87152911D01*
X151234582Y-87097048D01*
X151232806Y-87025106D01*
X151231794Y-86940192D01*
X151231600Y-86879679D01*
X151231645Y-86781966D01*
X151231645Y-86781966D01*
G37*
X151231645Y-86781966D02*
X151231956Y-86706607D01*
X151232800Y-86650555D01*
X151234438Y-86610762D01*
X151237138Y-86584183D01*
X151241162Y-86567770D01*
X151246776Y-86558476D01*
X151254244Y-86553255D01*
X151260175Y-86550621D01*
X151280608Y-86544924D01*
X151322063Y-86535613D01*
X151380551Y-86523503D01*
X151452082Y-86509410D01*
X151532666Y-86494147D01*
X151573982Y-86486537D01*
X151656769Y-86471137D01*
X151731735Y-86456637D01*
X151795068Y-86443817D01*
X151842956Y-86433462D01*
X151871587Y-86426353D01*
X151877541Y-86424232D01*
X151887010Y-86410302D01*
X151903841Y-86377306D01*
X151926087Y-86329811D01*
X151951796Y-86272382D01*
X151979021Y-86209586D01*
X152005813Y-86145989D01*
X152030222Y-86086156D01*
X152050299Y-86034655D01*
X152064096Y-85996050D01*
X152069663Y-85974908D01*
X152069694Y-85974065D01*
X152062754Y-85960085D01*
X152043297Y-85928241D01*
X152013280Y-85881545D01*
X151974659Y-85823004D01*
X151929393Y-85755629D01*
X151891894Y-85700580D01*
X151842906Y-85628538D01*
X151799089Y-85563071D01*
X151762398Y-85507183D01*
X151734787Y-85463881D01*
X151718213Y-85436170D01*
X151714200Y-85427394D01*
X151722956Y-85413796D01*
X151747200Y-85385824D01*
X151783889Y-85346479D01*
X151829982Y-85298763D01*
X151882439Y-85245677D01*
X151938219Y-85190223D01*
X151994280Y-85135401D01*
X152047583Y-85084214D01*
X152095085Y-85039661D01*
X152133746Y-85004745D01*
X152160526Y-84982468D01*
X152171858Y-84975700D01*
X152187985Y-84981526D01*
X152219928Y-84999373D01*
X152268543Y-85029799D01*
X152334685Y-85073362D01*
X152419210Y-85130619D01*
X152522974Y-85202126D01*
X152573734Y-85237404D01*
X152622351Y-85270145D01*
X152664643Y-85296568D01*
X152695585Y-85313659D01*
X152709125Y-85318600D01*
X152725290Y-85313797D01*
X152760162Y-85300663D01*
X152809203Y-85281114D01*
X152867877Y-85257064D01*
X152931649Y-85230428D01*
X152995981Y-85203121D01*
X153056338Y-85177059D01*
X153108184Y-85154155D01*
X153146982Y-85136324D01*
X153168196Y-85125483D01*
X153170487Y-85123847D01*
X153174589Y-85110010D01*
X153182540Y-85074738D01*
X153193611Y-85021580D01*
X153207074Y-84954086D01*
X153222202Y-84875803D01*
X153232195Y-84822894D01*
X153248066Y-84738881D01*
X153262730Y-84662697D01*
X153275447Y-84598066D01*
X153285478Y-84548715D01*
X153292084Y-84518370D01*
X153294102Y-84510821D01*
X153300295Y-84505243D01*
X153315865Y-84500921D01*
X153343498Y-84497710D01*
X153385879Y-84495467D01*
X153445695Y-84494047D01*
X153525632Y-84493306D01*
X153624295Y-84493101D01*
X153723636Y-84493219D01*
X153800513Y-84493705D01*
X153857858Y-84494757D01*
X153898607Y-84496573D01*
X153925695Y-84499349D01*
X153942055Y-84503285D01*
X153950622Y-84508576D01*
X153954302Y-84515325D01*
X153959413Y-84537337D01*
X153967457Y-84577300D01*
X153977034Y-84628142D01*
X153981321Y-84651850D01*
X154003681Y-84775599D01*
X154022531Y-84876327D01*
X154038335Y-84956102D01*
X154051557Y-85016991D01*
X154062661Y-85061061D01*
X154072110Y-85090380D01*
X154080369Y-85107015D01*
X154084416Y-85111391D01*
X154101233Y-85120101D01*
X154136782Y-85136038D01*
X154186589Y-85157378D01*
X154246178Y-85182302D01*
X154311074Y-85208989D01*
X154376802Y-85235618D01*
X154438887Y-85260366D01*
X154492853Y-85281415D01*
X154534224Y-85296942D01*
X154558527Y-85305126D01*
X154562526Y-85305936D01*
X154575384Y-85299024D01*
X154606038Y-85279662D01*
X154651412Y-85249880D01*
X154708432Y-85211710D01*
X154774026Y-85167181D01*
X154812520Y-85140800D01*
X154882370Y-85093455D01*
X154946297Y-85051412D01*
X155001018Y-85016728D01*
X155043248Y-84991458D01*
X155069704Y-84977660D01*
X155076169Y-84975700D01*
X155091936Y-84984534D01*
X155122928Y-85009630D01*
X155166828Y-85048885D01*
X155221319Y-85100190D01*
X155284083Y-85161443D01*
X155319408Y-85196714D01*
X155387797Y-85265710D01*
X155440081Y-85319185D01*
X155478192Y-85359500D01*
X155504064Y-85389016D01*
X155519629Y-85410095D01*
X155526821Y-85425097D01*
X155527572Y-85436384D01*
X155523817Y-85446316D01*
X155523792Y-85446362D01*
X155512148Y-85465207D01*
X155488462Y-85501332D01*
X155455149Y-85551136D01*
X155414622Y-85611014D01*
X155369298Y-85677362D01*
X155357583Y-85694417D01*
X155312504Y-85760707D01*
X155272798Y-85820502D01*
X155240603Y-85870463D01*
X155218060Y-85907254D01*
X155207307Y-85927535D01*
X155206700Y-85929858D01*
X155212249Y-85947399D01*
X155227191Y-85981695D01*
X155248967Y-86027090D01*
X155265109Y-86058971D01*
X155289833Y-86109936D01*
X155306544Y-86150761D01*
X155313470Y-86176788D01*
X155312392Y-86183188D01*
X155298253Y-86190673D01*
X155263593Y-86206501D01*
X155211395Y-86229385D01*
X155144639Y-86258037D01*
X155066309Y-86291171D01*
X154979387Y-86327499D01*
X154946007Y-86341342D01*
X154847870Y-86381983D01*
X154749258Y-86422865D01*
X154654881Y-86462034D01*
X154569449Y-86497534D01*
X154497672Y-86527408D01*
X154444257Y-86549702D01*
X154440713Y-86551185D01*
X154382660Y-86574954D01*
X154332240Y-86594599D01*
X154294498Y-86608226D01*
X154274478Y-86613937D01*
X154273553Y-86614000D01*
X154258435Y-86604294D01*
X154234030Y-86578616D01*
X154205138Y-86542128D01*
X154199699Y-86534625D01*
X154108135Y-86423837D01*
X154008688Y-86337036D01*
X153900707Y-86273862D01*
X153783542Y-86233954D01*
X153656541Y-86216950D01*
X153625550Y-86216240D01*
X153498535Y-86226822D01*
X153381836Y-86259992D01*
X153273388Y-86316574D01*
X153171131Y-86397390D01*
X153170453Y-86398023D01*
X153086505Y-86492975D01*
X153023843Y-86598858D01*
X152982597Y-86712549D01*
X152962895Y-86830925D01*
X152964866Y-86950864D01*
X152988638Y-87069243D01*
X153034340Y-87182940D01*
X153102101Y-87288831D01*
X153132260Y-87324820D01*
X153227468Y-87413204D01*
X153333542Y-87478645D01*
X153450071Y-87520961D01*
X153576645Y-87539969D01*
X153617869Y-87541100D01*
X153744752Y-87532045D01*
X153858511Y-87503941D01*
X153961790Y-87455383D01*
X154057228Y-87384962D01*
X154147470Y-87291274D01*
X154190913Y-87236012D01*
X154222539Y-87195971D01*
X154250426Y-87165346D01*
X154270061Y-87148923D01*
X154274490Y-87147400D01*
X154290088Y-87152108D01*
X154326288Y-87165483D01*
X154380256Y-87186401D01*
X154449155Y-87213741D01*
X154530151Y-87246379D01*
X154620408Y-87283193D01*
X154695563Y-87314146D01*
X154795483Y-87355442D01*
X154892158Y-87395343D01*
X154981996Y-87432371D01*
X155061405Y-87465048D01*
X155126794Y-87491894D01*
X155174569Y-87511432D01*
X155194000Y-87519319D01*
X155252664Y-87543340D01*
X155290105Y-87562429D01*
X155308385Y-87581803D01*
X155309565Y-87606679D01*
X155295706Y-87642273D01*
X155268871Y-87693804D01*
X155265473Y-87700186D01*
X155240337Y-87749027D01*
X155220567Y-87790468D01*
X155208809Y-87818797D01*
X155206700Y-87827124D01*
X155213590Y-87841927D01*
X155232912Y-87874444D01*
X155262641Y-87921501D01*
X155300752Y-87979928D01*
X155345219Y-88046551D01*
X155371800Y-88085755D01*
X155418808Y-88155082D01*
X155460608Y-88217443D01*
X155495190Y-88269781D01*
X155520542Y-88309035D01*
X155534655Y-88332148D01*
X155536900Y-88336917D01*
X155528312Y-88348046D01*
X155504178Y-88374549D01*
X155466940Y-88413868D01*
X155419041Y-88463446D01*
X155362923Y-88520725D01*
X155318299Y-88565803D01*
X155256672Y-88626918D01*
X155199955Y-88681504D01*
X155150866Y-88727078D01*
X155112120Y-88761160D01*
X155086434Y-88781268D01*
X155077619Y-88785701D01*
X155061174Y-88778730D01*
X155027231Y-88759196D01*
X154979057Y-88729160D01*
X154919919Y-88690686D01*
X154853084Y-88645838D01*
X154816794Y-88620973D01*
X154747671Y-88573722D01*
X154685019Y-88531732D01*
X154632007Y-88497059D01*
X154591804Y-88471759D01*
X154567579Y-88457888D01*
X154562326Y-88455873D01*
X154544281Y-88460409D01*
X154507444Y-88473129D01*
X154456364Y-88492196D01*
X154395590Y-88515771D01*
X154329668Y-88542017D01*
X154263147Y-88569095D01*
X154200575Y-88595168D01*
X154146500Y-88618398D01*
X154105470Y-88636947D01*
X154082033Y-88648976D01*
X154078891Y-88651243D01*
X154071928Y-88667949D01*
X154061538Y-88705907D01*
X154048580Y-88761332D01*
X154033916Y-88830439D01*
X154018405Y-88909445D01*
X154010518Y-88951937D01*
X153995082Y-89034470D01*
X153980363Y-89109008D01*
X153967170Y-89171773D01*
X153956312Y-89218988D01*
X153948598Y-89246875D01*
X153946146Y-89252425D01*
X153929562Y-89257953D01*
X153892184Y-89262420D01*
X153838192Y-89265837D01*
X153771765Y-89268215D01*
X153697085Y-89269564D01*
X153618331Y-89269895D01*
X153539682Y-89269218D01*
X153465319Y-89267544D01*
X153399422Y-89264882D01*
X153346170Y-89261244D01*
X153309744Y-89256640D01*
X153294323Y-89251080D01*
X153294184Y-89250794D01*
X153290033Y-89233772D01*
X153282021Y-89195490D01*
X153270884Y-89139665D01*
X153257357Y-89070020D01*
X153242176Y-88990273D01*
X153232458Y-88938479D01*
X153216498Y-88854907D01*
X153201429Y-88779670D01*
X153188033Y-88716374D01*
X153177087Y-88668626D01*
X153169372Y-88640032D01*
X153166550Y-88633501D01*
X153149903Y-88623890D01*
X153114441Y-88606976D01*
X153064818Y-88584708D01*
X153005688Y-88559038D01*
X152941704Y-88531916D01*
X152877521Y-88505293D01*
X152817791Y-88481119D01*
X152767168Y-88461346D01*
X152730306Y-88447925D01*
X152711858Y-88442805D01*
X152711631Y-88442800D01*
X152695140Y-88449746D01*
X152661089Y-88469223D01*
X152612722Y-88499194D01*
X152553283Y-88537619D01*
X152486018Y-88582459D01*
X152446224Y-88609556D01*
X152375831Y-88657446D01*
X152311393Y-88700528D01*
X152256186Y-88736671D01*
X152213487Y-88763746D01*
X152186571Y-88779624D01*
X152179689Y-88782810D01*
X152166868Y-88780022D01*
X152144905Y-88765823D01*
X152112154Y-88738771D01*
X152066969Y-88697423D01*
X152007706Y-88640337D01*
X151935214Y-88568566D01*
X151874098Y-88506907D01*
X151819463Y-88450600D01*
X151773763Y-88402273D01*
X151739453Y-88364553D01*
X151718987Y-88340068D01*
X151714200Y-88332016D01*
X151721150Y-88317523D01*
X151740668Y-88285301D01*
X151770754Y-88238428D01*
X151809410Y-88179984D01*
X151854636Y-88113045D01*
X151887479Y-88065180D01*
X151936287Y-87994001D01*
X151980212Y-87929045D01*
X152017182Y-87873449D01*
X152045124Y-87830353D01*
X152061965Y-87802895D01*
X152065985Y-87794891D01*
X152063004Y-87777622D01*
X152051822Y-87741682D01*
X152034276Y-87691737D01*
X152012202Y-87632450D01*
X151987434Y-87568484D01*
X151961808Y-87504502D01*
X151937162Y-87445168D01*
X151915329Y-87395146D01*
X151898147Y-87359100D01*
X151887667Y-87341907D01*
X151871535Y-87335493D01*
X151833980Y-87325429D01*
X151778590Y-87312523D01*
X151708948Y-87297583D01*
X151628640Y-87281414D01*
X151564044Y-87269057D01*
X151478363Y-87252825D01*
X151400858Y-87237766D01*
X151335063Y-87224596D01*
X151284515Y-87214034D01*
X151252751Y-87206797D01*
X151243369Y-87203976D01*
X151239977Y-87189589D01*
X151237010Y-87152911D01*
X151234582Y-87097048D01*
X151232806Y-87025106D01*
X151231794Y-86940192D01*
X151231600Y-86879679D01*
X151231645Y-86781966D01*
G36*
X99945928Y-102318191D02*
X99973627Y-102278840D01*
X99994800Y-102232812D01*
X100010319Y-102168943D01*
X100021057Y-102076068D01*
X100027888Y-101943025D01*
X100031685Y-101758649D01*
X100033320Y-101511777D01*
X100033667Y-101196357D01*
X100033667Y-100186066D01*
X102235000Y-100186066D01*
X102233713Y-101170316D01*
X102231148Y-101528800D01*
X102224607Y-101819833D01*
X102214289Y-102038946D01*
X102200394Y-102181671D01*
X102186116Y-102239233D01*
X102152546Y-102295874D01*
X102114364Y-102340009D01*
X102061315Y-102373197D01*
X101983141Y-102396996D01*
X101869585Y-102412966D01*
X101710389Y-102422665D01*
X101495298Y-102427653D01*
X101214054Y-102429488D01*
X101061485Y-102429620D01*
X101061485Y-101913756D01*
X101276811Y-101902431D01*
X101480866Y-101842800D01*
X101654195Y-101735871D01*
X101776785Y-101583727D01*
X101822961Y-101446558D01*
X101849027Y-101269979D01*
X101853459Y-101087040D01*
X101834729Y-100930793D01*
X101810177Y-100860617D01*
X101736307Y-100795464D01*
X101667884Y-100778733D01*
X101608575Y-100784256D01*
X101587083Y-100815677D01*
X101596627Y-100895278D01*
X101611675Y-100963420D01*
X101634517Y-101197551D01*
X101591501Y-101396860D01*
X101490108Y-101544546D01*
X101409756Y-101604956D01*
X101314262Y-101635979D01*
X101172966Y-101646237D01*
X101127258Y-101646566D01*
X100978859Y-101642099D01*
X100885020Y-101621853D01*
X100815812Y-101575563D01*
X100766577Y-101522839D01*
X100711186Y-101449967D01*
X100681022Y-101376150D01*
X100670563Y-101274994D01*
X100674289Y-101120104D01*
X100675815Y-101088922D01*
X100682363Y-100929717D01*
X100678925Y-100837055D01*
X100660943Y-100792986D01*
X100623857Y-100779563D01*
X100597038Y-100778733D01*
X100517178Y-100816366D01*
X100461460Y-100916815D01*
X100431058Y-101061401D01*
X100427145Y-101231450D01*
X100450895Y-101408284D01*
X100503482Y-101573227D01*
X100542423Y-101647790D01*
X100674837Y-101787445D01*
X100854342Y-101875763D01*
X101061485Y-101913756D01*
X101061485Y-102429620D01*
X100932670Y-102429733D01*
X99858188Y-102429733D01*
X99945928Y-102318191D01*
X99945928Y-102318191D01*
G37*
X99945928Y-102318191D02*
X99973627Y-102278840D01*
X99994800Y-102232812D01*
X100010319Y-102168943D01*
X100021057Y-102076068D01*
X100027888Y-101943025D01*
X100031685Y-101758649D01*
X100033320Y-101511777D01*
X100033667Y-101196357D01*
X100033667Y-100186066D01*
X102235000Y-100186066D01*
X102233713Y-101170316D01*
X102231148Y-101528800D01*
X102224607Y-101819833D01*
X102214289Y-102038946D01*
X102200394Y-102181671D01*
X102186116Y-102239233D01*
X102152546Y-102295874D01*
X102114364Y-102340009D01*
X102061315Y-102373197D01*
X101983141Y-102396996D01*
X101869585Y-102412966D01*
X101710389Y-102422665D01*
X101495298Y-102427653D01*
X101214054Y-102429488D01*
X101061485Y-102429620D01*
X101061485Y-101913756D01*
X101276811Y-101902431D01*
X101480866Y-101842800D01*
X101654195Y-101735871D01*
X101776785Y-101583727D01*
X101822961Y-101446558D01*
X101849027Y-101269979D01*
X101853459Y-101087040D01*
X101834729Y-100930793D01*
X101810177Y-100860617D01*
X101736307Y-100795464D01*
X101667884Y-100778733D01*
X101608575Y-100784256D01*
X101587083Y-100815677D01*
X101596627Y-100895278D01*
X101611675Y-100963420D01*
X101634517Y-101197551D01*
X101591501Y-101396860D01*
X101490108Y-101544546D01*
X101409756Y-101604956D01*
X101314262Y-101635979D01*
X101172966Y-101646237D01*
X101127258Y-101646566D01*
X100978859Y-101642099D01*
X100885020Y-101621853D01*
X100815812Y-101575563D01*
X100766577Y-101522839D01*
X100711186Y-101449967D01*
X100681022Y-101376150D01*
X100670563Y-101274994D01*
X100674289Y-101120104D01*
X100675815Y-101088922D01*
X100682363Y-100929717D01*
X100678925Y-100837055D01*
X100660943Y-100792986D01*
X100623857Y-100779563D01*
X100597038Y-100778733D01*
X100517178Y-100816366D01*
X100461460Y-100916815D01*
X100431058Y-101061401D01*
X100427145Y-101231450D01*
X100450895Y-101408284D01*
X100503482Y-101573227D01*
X100542423Y-101647790D01*
X100674837Y-101787445D01*
X100854342Y-101875763D01*
X101061485Y-101913756D01*
X101061485Y-102429620D01*
X100932670Y-102429733D01*
X99858188Y-102429733D01*
X99945928Y-102318191D01*
G36*
X102235000Y-97646066D02*
X102235000Y-99720400D01*
X101854000Y-99720400D01*
X101854000Y-98875780D01*
X101854000Y-98619733D01*
X100409043Y-98619733D01*
X100422438Y-98736150D01*
X100435834Y-98852566D01*
X101854000Y-98875780D01*
X101854000Y-99720400D01*
X100033667Y-99720400D01*
X100033667Y-97646066D01*
X102235000Y-97646066D01*
X102235000Y-97646066D01*
G37*
X102235000Y-97646066D02*
X102235000Y-99720400D01*
X101854000Y-99720400D01*
X101854000Y-98875780D01*
X101854000Y-98619733D01*
X100409043Y-98619733D01*
X100422438Y-98736150D01*
X100435834Y-98852566D01*
X101854000Y-98875780D01*
X101854000Y-99720400D01*
X100033667Y-99720400D01*
X100033667Y-97646066D01*
X102235000Y-97646066D01*
G36*
X98022126Y-91346772D02*
X98048669Y-91120550D01*
X98087911Y-90935532D01*
X98138725Y-90809786D01*
X98160374Y-90781759D01*
X98214077Y-90775385D01*
X98324837Y-90786980D01*
X98468224Y-90811531D01*
X98619810Y-90844020D01*
X98755164Y-90879435D01*
X98849856Y-90912759D01*
X98876052Y-90928674D01*
X98876230Y-90977065D01*
X98855184Y-91080253D01*
X98830047Y-91172575D01*
X98765003Y-91513887D01*
X98772532Y-91841815D01*
X98850010Y-92144817D01*
X98994813Y-92411352D01*
X99151151Y-92585024D01*
X99369746Y-92745296D01*
X99612019Y-92847122D01*
X99897243Y-92897016D01*
X100097167Y-92904733D01*
X100463221Y-92873262D01*
X100772946Y-92778724D01*
X101026705Y-92620934D01*
X101224865Y-92399707D01*
X101283139Y-92303627D01*
X101348681Y-92168493D01*
X101388747Y-92038226D01*
X101410921Y-91880590D01*
X101420614Y-91719400D01*
X101419341Y-91449742D01*
X101393655Y-91217171D01*
X101375948Y-91137316D01*
X101344726Y-91015096D01*
X101327377Y-90934372D01*
X101326358Y-90915066D01*
X101369673Y-90907741D01*
X101476139Y-90888222D01*
X101625745Y-90860198D01*
X101684550Y-90849070D01*
X101845794Y-90821073D01*
X101972460Y-90803946D01*
X102043914Y-90800295D01*
X102052005Y-90802627D01*
X102087393Y-90876141D01*
X102122875Y-91014485D01*
X102155936Y-91197861D01*
X102184057Y-91406473D01*
X102204720Y-91620524D01*
X102215410Y-91820216D01*
X102213607Y-91985754D01*
X102208959Y-92036900D01*
X102120238Y-92478674D01*
X101972650Y-92860417D01*
X101766717Y-93181478D01*
X101502960Y-93441209D01*
X101181901Y-93638961D01*
X100815353Y-93771173D01*
X100587393Y-93811279D01*
X100309993Y-93831417D01*
X100015958Y-93831586D01*
X99738091Y-93811783D01*
X99509197Y-93772006D01*
X99506259Y-93771246D01*
X99117047Y-93628716D01*
X98776625Y-93419535D01*
X98490818Y-93149643D01*
X98265452Y-92824978D01*
X98106350Y-92451478D01*
X98065490Y-92302294D01*
X98029963Y-92091958D01*
X98011645Y-91850545D01*
X98009408Y-91596127D01*
X98022126Y-91346772D01*
X98022126Y-91346772D01*
G37*
X98022126Y-91346772D02*
X98048669Y-91120550D01*
X98087911Y-90935532D01*
X98138725Y-90809786D01*
X98160374Y-90781759D01*
X98214077Y-90775385D01*
X98324837Y-90786980D01*
X98468224Y-90811531D01*
X98619810Y-90844020D01*
X98755164Y-90879435D01*
X98849856Y-90912759D01*
X98876052Y-90928674D01*
X98876230Y-90977065D01*
X98855184Y-91080253D01*
X98830047Y-91172575D01*
X98765003Y-91513887D01*
X98772532Y-91841815D01*
X98850010Y-92144817D01*
X98994813Y-92411352D01*
X99151151Y-92585024D01*
X99369746Y-92745296D01*
X99612019Y-92847122D01*
X99897243Y-92897016D01*
X100097167Y-92904733D01*
X100463221Y-92873262D01*
X100772946Y-92778724D01*
X101026705Y-92620934D01*
X101224865Y-92399707D01*
X101283139Y-92303627D01*
X101348681Y-92168493D01*
X101388747Y-92038226D01*
X101410921Y-91880590D01*
X101420614Y-91719400D01*
X101419341Y-91449742D01*
X101393655Y-91217171D01*
X101375948Y-91137316D01*
X101344726Y-91015096D01*
X101327377Y-90934372D01*
X101326358Y-90915066D01*
X101369673Y-90907741D01*
X101476139Y-90888222D01*
X101625745Y-90860198D01*
X101684550Y-90849070D01*
X101845794Y-90821073D01*
X101972460Y-90803946D01*
X102043914Y-90800295D01*
X102052005Y-90802627D01*
X102087393Y-90876141D01*
X102122875Y-91014485D01*
X102155936Y-91197861D01*
X102184057Y-91406473D01*
X102204720Y-91620524D01*
X102215410Y-91820216D01*
X102213607Y-91985754D01*
X102208959Y-92036900D01*
X102120238Y-92478674D01*
X101972650Y-92860417D01*
X101766717Y-93181478D01*
X101502960Y-93441209D01*
X101181901Y-93638961D01*
X100815353Y-93771173D01*
X100587393Y-93811279D01*
X100309993Y-93831417D01*
X100015958Y-93831586D01*
X99738091Y-93811783D01*
X99509197Y-93772006D01*
X99506259Y-93771246D01*
X99117047Y-93628716D01*
X98776625Y-93419535D01*
X98490818Y-93149643D01*
X98265452Y-92824978D01*
X98106350Y-92451478D01*
X98065490Y-92302294D01*
X98029963Y-92091958D01*
X98011645Y-91850545D01*
X98009408Y-91596127D01*
X98022126Y-91346772D01*
G36*
X98010462Y-88225646D02*
X98028577Y-87983471D01*
X98059066Y-87767982D01*
X98100478Y-87597404D01*
X98151361Y-87489963D01*
X98160374Y-87479759D01*
X98214077Y-87473385D01*
X98324837Y-87484980D01*
X98468224Y-87509531D01*
X98619810Y-87542020D01*
X98755164Y-87577435D01*
X98849856Y-87610759D01*
X98876052Y-87626674D01*
X98876230Y-87675065D01*
X98855184Y-87778253D01*
X98830047Y-87870575D01*
X98765406Y-88211686D01*
X98773511Y-88540739D01*
X98851709Y-88845714D01*
X98997344Y-89114588D01*
X99140786Y-89277506D01*
X99344812Y-89432792D01*
X99575474Y-89534821D01*
X99850272Y-89589373D01*
X100125563Y-89602733D01*
X100482164Y-89572011D01*
X100782400Y-89479049D01*
X101028571Y-89322659D01*
X101222978Y-89101651D01*
X101281535Y-89004574D01*
X101347754Y-88868583D01*
X101388212Y-88738751D01*
X101410587Y-88582665D01*
X101420614Y-88417400D01*
X101419341Y-88147742D01*
X101393655Y-87915171D01*
X101375948Y-87835316D01*
X101343725Y-87713004D01*
X101323853Y-87632255D01*
X101320451Y-87613009D01*
X101361039Y-87606188D01*
X101465617Y-87588030D01*
X101614797Y-87561909D01*
X101681767Y-87550136D01*
X101844937Y-87523522D01*
X101973095Y-87506574D01*
X102046040Y-87501803D01*
X102055129Y-87503751D01*
X102073686Y-87550653D01*
X102104099Y-87654069D01*
X102128343Y-87746540D01*
X102182354Y-88048179D01*
X102208391Y-88388977D01*
X102204329Y-88727472D01*
X102187634Y-88904233D01*
X102121094Y-89198893D01*
X102005508Y-89501837D01*
X101856521Y-89775405D01*
X101782736Y-89878909D01*
X101620678Y-90042222D01*
X101402583Y-90202579D01*
X101155820Y-90342447D01*
X100907755Y-90444296D01*
X100892805Y-90449007D01*
X100671059Y-90496945D01*
X100397337Y-90525755D01*
X100102270Y-90534862D01*
X99816490Y-90523689D01*
X99570631Y-90491661D01*
X99498929Y-90475218D01*
X99127569Y-90334704D01*
X98794018Y-90125991D01*
X98507689Y-89859080D01*
X98277992Y-89543972D01*
X98114338Y-89190667D01*
X98044877Y-88930022D01*
X98017160Y-88717147D01*
X98006173Y-88476279D01*
X98010462Y-88225646D01*
X98010462Y-88225646D01*
G37*
X98010462Y-88225646D02*
X98028577Y-87983471D01*
X98059066Y-87767982D01*
X98100478Y-87597404D01*
X98151361Y-87489963D01*
X98160374Y-87479759D01*
X98214077Y-87473385D01*
X98324837Y-87484980D01*
X98468224Y-87509531D01*
X98619810Y-87542020D01*
X98755164Y-87577435D01*
X98849856Y-87610759D01*
X98876052Y-87626674D01*
X98876230Y-87675065D01*
X98855184Y-87778253D01*
X98830047Y-87870575D01*
X98765406Y-88211686D01*
X98773511Y-88540739D01*
X98851709Y-88845714D01*
X98997344Y-89114588D01*
X99140786Y-89277506D01*
X99344812Y-89432792D01*
X99575474Y-89534821D01*
X99850272Y-89589373D01*
X100125563Y-89602733D01*
X100482164Y-89572011D01*
X100782400Y-89479049D01*
X101028571Y-89322659D01*
X101222978Y-89101651D01*
X101281535Y-89004574D01*
X101347754Y-88868583D01*
X101388212Y-88738751D01*
X101410587Y-88582665D01*
X101420614Y-88417400D01*
X101419341Y-88147742D01*
X101393655Y-87915171D01*
X101375948Y-87835316D01*
X101343725Y-87713004D01*
X101323853Y-87632255D01*
X101320451Y-87613009D01*
X101361039Y-87606188D01*
X101465617Y-87588030D01*
X101614797Y-87561909D01*
X101681767Y-87550136D01*
X101844937Y-87523522D01*
X101973095Y-87506574D01*
X102046040Y-87501803D01*
X102055129Y-87503751D01*
X102073686Y-87550653D01*
X102104099Y-87654069D01*
X102128343Y-87746540D01*
X102182354Y-88048179D01*
X102208391Y-88388977D01*
X102204329Y-88727472D01*
X102187634Y-88904233D01*
X102121094Y-89198893D01*
X102005508Y-89501837D01*
X101856521Y-89775405D01*
X101782736Y-89878909D01*
X101620678Y-90042222D01*
X101402583Y-90202579D01*
X101155820Y-90342447D01*
X100907755Y-90444296D01*
X100892805Y-90449007D01*
X100671059Y-90496945D01*
X100397337Y-90525755D01*
X100102270Y-90534862D01*
X99816490Y-90523689D01*
X99570631Y-90491661D01*
X99498929Y-90475218D01*
X99127569Y-90334704D01*
X98794018Y-90125991D01*
X98507689Y-89859080D01*
X98277992Y-89543972D01*
X98114338Y-89190667D01*
X98044877Y-88930022D01*
X98017160Y-88717147D01*
X98006173Y-88476279D01*
X98010462Y-88225646D01*
G36*
X98804090Y-94344066D02*
X98815629Y-95116650D01*
X98827167Y-95889233D01*
X99239917Y-95901349D01*
X99652667Y-95913466D01*
X99652667Y-94428733D01*
X100412668Y-94428733D01*
X100435834Y-95889233D01*
X101388334Y-95913173D01*
X101388334Y-94259400D01*
X102150334Y-94259400D01*
X102150334Y-96799400D01*
X98044000Y-96799400D01*
X98044000Y-94344066D01*
X98804090Y-94344066D01*
X98804090Y-94344066D01*
G37*
X98804090Y-94344066D02*
X98815629Y-95116650D01*
X98827167Y-95889233D01*
X99239917Y-95901349D01*
X99652667Y-95913466D01*
X99652667Y-94428733D01*
X100412668Y-94428733D01*
X100435834Y-95889233D01*
X101388334Y-95913173D01*
X101388334Y-94259400D01*
X102150334Y-94259400D01*
X102150334Y-96799400D01*
X98044000Y-96799400D01*
X98044000Y-94344066D01*
X98804090Y-94344066D01*
G36*
X102150334Y-86004400D02*
X102150334Y-86893400D01*
X98044000Y-86893400D01*
X98044000Y-86004400D01*
X102150334Y-86004400D01*
X102150334Y-86004400D01*
G37*
X102150334Y-86004400D02*
X102150334Y-86893400D01*
X98044000Y-86893400D01*
X98044000Y-86004400D01*
X102150334Y-86004400D01*
G36*
X97250439Y-102377121D02*
X97250836Y-102376817D01*
X97299596Y-102329228D01*
X97337448Y-102262633D01*
X97365697Y-102166786D01*
X97385648Y-102031441D01*
X97398608Y-101846356D01*
X97405882Y-101601285D01*
X97408777Y-101285983D01*
X97409000Y-101135811D01*
X97409000Y-100186066D01*
X99568000Y-100186066D01*
X99568000Y-101196357D01*
X99567641Y-101515767D01*
X99565981Y-101761675D01*
X99562148Y-101945244D01*
X99555268Y-102077640D01*
X99544468Y-102170025D01*
X99528875Y-102233563D01*
X99507615Y-102279419D01*
X99480261Y-102318191D01*
X99392522Y-102429733D01*
X99271667Y-102429733D01*
X99271667Y-101794733D01*
X99271667Y-100905733D01*
X99165834Y-100905733D01*
X99112002Y-100909690D01*
X99080448Y-100933450D01*
X99065225Y-100994847D01*
X99060389Y-101111716D01*
X99060000Y-101223233D01*
X99060000Y-101540733D01*
X98679000Y-101540733D01*
X98679000Y-100948066D01*
X98425000Y-100948066D01*
X98425000Y-101540733D01*
X98090043Y-101540733D01*
X98077605Y-101233816D01*
X98069584Y-101075585D01*
X98056882Y-100983885D01*
X98032521Y-100940612D01*
X97989524Y-100927662D01*
X97959334Y-100926900D01*
X97911710Y-100929691D01*
X97880570Y-100948237D01*
X97861767Y-100997798D01*
X97851156Y-101093633D01*
X97844589Y-101251002D01*
X97841436Y-101360816D01*
X97829372Y-101794733D01*
X99271667Y-101794733D01*
X99271667Y-102429733D01*
X98286836Y-102429733D01*
X97945879Y-102429049D01*
X97681945Y-102426738D01*
X97487400Y-102422409D01*
X97354611Y-102415673D01*
X97275944Y-102406140D01*
X97243765Y-102393419D01*
X97250439Y-102377121D01*
X97250439Y-102377121D01*
G37*
X97250439Y-102377121D02*
X97250836Y-102376817D01*
X97299596Y-102329228D01*
X97337448Y-102262633D01*
X97365697Y-102166786D01*
X97385648Y-102031441D01*
X97398608Y-101846356D01*
X97405882Y-101601285D01*
X97408777Y-101285983D01*
X97409000Y-101135811D01*
X97409000Y-100186066D01*
X99568000Y-100186066D01*
X99568000Y-101196357D01*
X99567641Y-101515767D01*
X99565981Y-101761675D01*
X99562148Y-101945244D01*
X99555268Y-102077640D01*
X99544468Y-102170025D01*
X99528875Y-102233563D01*
X99507615Y-102279419D01*
X99480261Y-102318191D01*
X99392522Y-102429733D01*
X99271667Y-102429733D01*
X99271667Y-101794733D01*
X99271667Y-100905733D01*
X99165834Y-100905733D01*
X99112002Y-100909690D01*
X99080448Y-100933450D01*
X99065225Y-100994847D01*
X99060389Y-101111716D01*
X99060000Y-101223233D01*
X99060000Y-101540733D01*
X98679000Y-101540733D01*
X98679000Y-100948066D01*
X98425000Y-100948066D01*
X98425000Y-101540733D01*
X98090043Y-101540733D01*
X98077605Y-101233816D01*
X98069584Y-101075585D01*
X98056882Y-100983885D01*
X98032521Y-100940612D01*
X97989524Y-100927662D01*
X97959334Y-100926900D01*
X97911710Y-100929691D01*
X97880570Y-100948237D01*
X97861767Y-100997798D01*
X97851156Y-101093633D01*
X97844589Y-101251002D01*
X97841436Y-101360816D01*
X97829372Y-101794733D01*
X99271667Y-101794733D01*
X99271667Y-102429733D01*
X98286836Y-102429733D01*
X97945879Y-102429049D01*
X97681945Y-102426738D01*
X97487400Y-102422409D01*
X97354611Y-102415673D01*
X97275944Y-102406140D01*
X97243765Y-102393419D01*
X97250439Y-102377121D01*
G36*
X99568000Y-97646066D02*
X99568000Y-99720400D01*
X98542777Y-99720400D01*
X98542777Y-99297001D01*
X98798979Y-99266196D01*
X99006478Y-99177109D01*
X99157052Y-99034974D01*
X99240647Y-98852566D01*
X99261120Y-98710016D01*
X99265472Y-98537732D01*
X99254372Y-98374194D01*
X99230381Y-98262656D01*
X99169485Y-98183051D01*
X99084294Y-98150141D01*
X99009649Y-98176196D01*
X99005039Y-98227035D01*
X99018900Y-98330093D01*
X99030705Y-98387046D01*
X99051998Y-98617280D01*
X99004880Y-98804477D01*
X98894166Y-98941985D01*
X98724669Y-99023150D01*
X98556094Y-99043066D01*
X98342153Y-99014803D01*
X98190072Y-98930503D01*
X98125258Y-98846198D01*
X98091244Y-98731080D01*
X98075357Y-98569591D01*
X98078808Y-98398320D01*
X98102810Y-98253857D01*
X98105359Y-98245478D01*
X98113622Y-98177507D01*
X98063724Y-98155194D01*
X98028969Y-98154066D01*
X97938160Y-98192662D01*
X97874088Y-98299256D01*
X97841604Y-98460056D01*
X97845561Y-98661272D01*
X97846783Y-98671980D01*
X97907546Y-98922599D01*
X98023262Y-99108844D01*
X98194625Y-99231341D01*
X98422328Y-99290712D01*
X98542777Y-99297001D01*
X98542777Y-99720400D01*
X97409000Y-99720400D01*
X97409000Y-97646066D01*
X99568000Y-97646066D01*
X99568000Y-97646066D01*
G37*
X99568000Y-97646066D02*
X99568000Y-99720400D01*
X98542777Y-99720400D01*
X98542777Y-99297001D01*
X98798979Y-99266196D01*
X99006478Y-99177109D01*
X99157052Y-99034974D01*
X99240647Y-98852566D01*
X99261120Y-98710016D01*
X99265472Y-98537732D01*
X99254372Y-98374194D01*
X99230381Y-98262656D01*
X99169485Y-98183051D01*
X99084294Y-98150141D01*
X99009649Y-98176196D01*
X99005039Y-98227035D01*
X99018900Y-98330093D01*
X99030705Y-98387046D01*
X99051998Y-98617280D01*
X99004880Y-98804477D01*
X98894166Y-98941985D01*
X98724669Y-99023150D01*
X98556094Y-99043066D01*
X98342153Y-99014803D01*
X98190072Y-98930503D01*
X98125258Y-98846198D01*
X98091244Y-98731080D01*
X98075357Y-98569591D01*
X98078808Y-98398320D01*
X98102810Y-98253857D01*
X98105359Y-98245478D01*
X98113622Y-98177507D01*
X98063724Y-98155194D01*
X98028969Y-98154066D01*
X97938160Y-98192662D01*
X97874088Y-98299256D01*
X97841604Y-98460056D01*
X97845561Y-98661272D01*
X97846783Y-98671980D01*
X97907546Y-98922599D01*
X98023262Y-99108844D01*
X98194625Y-99231341D01*
X98422328Y-99290712D01*
X98542777Y-99297001D01*
X98542777Y-99720400D01*
X97409000Y-99720400D01*
X97409000Y-97646066D01*
X99568000Y-97646066D01*
G36*
X97214090Y-101679198D02*
X97233331Y-101691824D01*
X97236325Y-101734761D01*
X97225986Y-101779932D01*
X97210748Y-101760337D01*
X97205702Y-101694175D01*
X97214090Y-101679198D01*
X97214090Y-101679198D01*
G37*
X97214090Y-101679198D02*
X97233331Y-101691824D01*
X97236325Y-101734761D01*
X97225986Y-101779932D01*
X97210748Y-101760337D01*
X97205702Y-101694175D01*
X97214090Y-101679198D01*
G36*
X96323353Y-96111993D02*
X96378123Y-96092649D01*
X96487210Y-96082725D01*
X96665180Y-96079746D01*
X96681954Y-96079733D01*
X96865815Y-96081923D01*
X96986069Y-96091441D01*
X97063723Y-96112706D01*
X97119789Y-96150138D01*
X97147621Y-96177712D01*
X97226591Y-96314040D01*
X97239762Y-96465582D01*
X97188233Y-96604586D01*
X97128124Y-96669327D01*
X97055924Y-96714576D01*
X96966154Y-96741391D01*
X96835832Y-96754104D01*
X96662458Y-96757066D01*
X96489158Y-96755443D01*
X96383823Y-96747912D01*
X96329773Y-96730487D01*
X96310329Y-96699179D01*
X96308334Y-96672400D01*
X96315117Y-96630991D01*
X96346580Y-96605810D01*
X96419389Y-96592878D01*
X96550215Y-96588216D01*
X96662983Y-96587733D01*
X96875106Y-96580235D01*
X97013655Y-96554753D01*
X97088640Y-96506806D01*
X97110070Y-96431913D01*
X97105204Y-96389747D01*
X97045882Y-96300290D01*
X96910224Y-96240086D01*
X96701806Y-96210410D01*
X96594084Y-96207357D01*
X96436297Y-96203014D01*
X96347268Y-96188505D01*
X96311348Y-96160318D01*
X96308334Y-96143233D01*
X96323353Y-96111993D01*
X96323353Y-96111993D01*
G37*
X96323353Y-96111993D02*
X96378123Y-96092649D01*
X96487210Y-96082725D01*
X96665180Y-96079746D01*
X96681954Y-96079733D01*
X96865815Y-96081923D01*
X96986069Y-96091441D01*
X97063723Y-96112706D01*
X97119789Y-96150138D01*
X97147621Y-96177712D01*
X97226591Y-96314040D01*
X97239762Y-96465582D01*
X97188233Y-96604586D01*
X97128124Y-96669327D01*
X97055924Y-96714576D01*
X96966154Y-96741391D01*
X96835832Y-96754104D01*
X96662458Y-96757066D01*
X96489158Y-96755443D01*
X96383823Y-96747912D01*
X96329773Y-96730487D01*
X96310329Y-96699179D01*
X96308334Y-96672400D01*
X96315117Y-96630991D01*
X96346580Y-96605810D01*
X96419389Y-96592878D01*
X96550215Y-96588216D01*
X96662983Y-96587733D01*
X96875106Y-96580235D01*
X97013655Y-96554753D01*
X97088640Y-96506806D01*
X97110070Y-96431913D01*
X97105204Y-96389747D01*
X97045882Y-96300290D01*
X96910224Y-96240086D01*
X96701806Y-96210410D01*
X96594084Y-96207357D01*
X96436297Y-96203014D01*
X96347268Y-96188505D01*
X96311348Y-96160318D01*
X96308334Y-96143233D01*
X96323353Y-96111993D01*
G36*
X96321635Y-94929476D02*
X96370485Y-94910761D01*
X96468303Y-94899924D01*
X96628509Y-94895136D01*
X96774000Y-94894400D01*
X96979016Y-94895708D01*
X97113722Y-94901153D01*
X97192456Y-94913017D01*
X97229555Y-94933583D01*
X97239356Y-94965133D01*
X97239390Y-94968483D01*
X97200415Y-95030949D01*
X97086249Y-95121554D01*
X96900497Y-95237462D01*
X96890140Y-95243443D01*
X96541167Y-95444319D01*
X96890417Y-95444526D01*
X97067291Y-95447481D01*
X97174516Y-95457899D01*
X97226976Y-95478494D01*
X97239667Y-95508233D01*
X97226366Y-95536657D01*
X97177515Y-95555372D01*
X97079697Y-95566209D01*
X96919491Y-95570997D01*
X96774000Y-95571733D01*
X96570133Y-95570730D01*
X96436305Y-95565971D01*
X96357896Y-95554830D01*
X96320286Y-95534681D01*
X96308855Y-95502899D01*
X96308334Y-95488101D01*
X96336188Y-95426692D01*
X96424892Y-95347703D01*
X96582156Y-95244649D01*
X96635532Y-95212934D01*
X96962730Y-95021400D01*
X96635532Y-95021400D01*
X96465154Y-95018235D01*
X96364089Y-95006776D01*
X96317151Y-94984076D01*
X96308334Y-94957900D01*
X96321635Y-94929476D01*
X96321635Y-94929476D01*
G37*
X96321635Y-94929476D02*
X96370485Y-94910761D01*
X96468303Y-94899924D01*
X96628509Y-94895136D01*
X96774000Y-94894400D01*
X96979016Y-94895708D01*
X97113722Y-94901153D01*
X97192456Y-94913017D01*
X97229555Y-94933583D01*
X97239356Y-94965133D01*
X97239390Y-94968483D01*
X97200415Y-95030949D01*
X97086249Y-95121554D01*
X96900497Y-95237462D01*
X96890140Y-95243443D01*
X96541167Y-95444319D01*
X96890417Y-95444526D01*
X97067291Y-95447481D01*
X97174516Y-95457899D01*
X97226976Y-95478494D01*
X97239667Y-95508233D01*
X97226366Y-95536657D01*
X97177515Y-95555372D01*
X97079697Y-95566209D01*
X96919491Y-95570997D01*
X96774000Y-95571733D01*
X96570133Y-95570730D01*
X96436305Y-95565971D01*
X96357896Y-95554830D01*
X96320286Y-95534681D01*
X96308855Y-95502899D01*
X96308334Y-95488101D01*
X96336188Y-95426692D01*
X96424892Y-95347703D01*
X96582156Y-95244649D01*
X96635532Y-95212934D01*
X96962730Y-95021400D01*
X96635532Y-95021400D01*
X96465154Y-95018235D01*
X96364089Y-95006776D01*
X96317151Y-94984076D01*
X96308334Y-94957900D01*
X96321635Y-94929476D01*
G36*
X96321635Y-94294476D02*
X96370485Y-94275761D01*
X96468303Y-94264924D01*
X96628509Y-94260136D01*
X96774000Y-94259400D01*
X96982439Y-94261214D01*
X97119684Y-94267875D01*
X97199154Y-94281214D01*
X97234270Y-94303060D01*
X97239667Y-94322900D01*
X97226366Y-94351323D01*
X97177515Y-94370038D01*
X97079697Y-94380875D01*
X96919491Y-94385664D01*
X96774000Y-94386400D01*
X96565562Y-94384586D01*
X96428317Y-94377925D01*
X96348846Y-94364586D01*
X96313730Y-94342740D01*
X96308334Y-94322900D01*
X96321635Y-94294476D01*
X96321635Y-94294476D01*
G37*
X96321635Y-94294476D02*
X96370485Y-94275761D01*
X96468303Y-94264924D01*
X96628509Y-94260136D01*
X96774000Y-94259400D01*
X96982439Y-94261214D01*
X97119684Y-94267875D01*
X97199154Y-94281214D01*
X97234270Y-94303060D01*
X97239667Y-94322900D01*
X97226366Y-94351323D01*
X97177515Y-94370038D01*
X97079697Y-94380875D01*
X96919491Y-94385664D01*
X96774000Y-94386400D01*
X96565562Y-94384586D01*
X96428317Y-94377925D01*
X96348846Y-94364586D01*
X96313730Y-94342740D01*
X96308334Y-94322900D01*
X96321635Y-94294476D01*
G36*
X96328350Y-93131275D02*
X96361250Y-93126821D01*
X96421945Y-93147744D01*
X96543249Y-93188572D01*
X96705374Y-93242668D01*
X96826917Y-93283008D01*
X97015514Y-93347659D01*
X97136929Y-93396602D01*
X97205279Y-93437766D01*
X97234681Y-93479082D01*
X97239667Y-93514877D01*
X97231061Y-93559828D01*
X97195974Y-93598196D01*
X97120502Y-93637220D01*
X96990742Y-93684143D01*
X96799312Y-93744219D01*
X96618258Y-93798719D01*
X96468400Y-93842572D01*
X96367431Y-93870678D01*
X96333645Y-93878400D01*
X96312805Y-93842944D01*
X96308334Y-93796737D01*
X96318062Y-93757109D01*
X96355231Y-93721504D01*
X96431818Y-93684926D01*
X96559800Y-93642381D01*
X96751153Y-93588871D01*
X96901000Y-93549519D01*
X96967775Y-93530604D01*
X96992495Y-93513567D01*
X96965928Y-93492074D01*
X96878840Y-93459791D01*
X96721998Y-93410383D01*
X96678750Y-93397059D01*
X96499591Y-93338965D01*
X96387982Y-93293498D01*
X96329347Y-93252713D01*
X96309107Y-93208666D01*
X96308334Y-93195177D01*
X96328350Y-93131275D01*
X96328350Y-93131275D01*
G37*
X96328350Y-93131275D02*
X96361250Y-93126821D01*
X96421945Y-93147744D01*
X96543249Y-93188572D01*
X96705374Y-93242668D01*
X96826917Y-93283008D01*
X97015514Y-93347659D01*
X97136929Y-93396602D01*
X97205279Y-93437766D01*
X97234681Y-93479082D01*
X97239667Y-93514877D01*
X97231061Y-93559828D01*
X97195974Y-93598196D01*
X97120502Y-93637220D01*
X96990742Y-93684143D01*
X96799312Y-93744219D01*
X96618258Y-93798719D01*
X96468400Y-93842572D01*
X96367431Y-93870678D01*
X96333645Y-93878400D01*
X96312805Y-93842944D01*
X96308334Y-93796737D01*
X96318062Y-93757109D01*
X96355231Y-93721504D01*
X96431818Y-93684926D01*
X96559800Y-93642381D01*
X96751153Y-93588871D01*
X96901000Y-93549519D01*
X96967775Y-93530604D01*
X96992495Y-93513567D01*
X96965928Y-93492074D01*
X96878840Y-93459791D01*
X96721998Y-93410383D01*
X96678750Y-93397059D01*
X96499591Y-93338965D01*
X96387982Y-93293498D01*
X96329347Y-93252713D01*
X96309107Y-93208666D01*
X96308334Y-93195177D01*
X96328350Y-93131275D01*
G36*
X96313210Y-92333914D02*
X96330498Y-92254729D01*
X96364182Y-92227901D01*
X96371834Y-92227400D01*
X96415987Y-92255361D01*
X96434181Y-92348051D01*
X96435334Y-92396733D01*
X96440349Y-92505311D01*
X96467526Y-92553578D01*
X96535063Y-92565799D01*
X96562334Y-92566066D01*
X96643767Y-92559380D01*
X96679967Y-92523143D01*
X96689133Y-92433094D01*
X96689334Y-92396733D01*
X96699819Y-92278991D01*
X96734578Y-92230473D01*
X96752834Y-92227400D01*
X96796987Y-92255361D01*
X96815181Y-92348051D01*
X96816334Y-92396733D01*
X96820819Y-92505151D01*
X96848515Y-92553333D01*
X96920780Y-92565688D01*
X96964500Y-92566066D01*
X97055540Y-92562000D01*
X97098651Y-92534438D01*
X97111753Y-92460340D01*
X97112667Y-92375566D01*
X97120977Y-92250005D01*
X97149234Y-92192812D01*
X97176167Y-92185066D01*
X97211785Y-92203437D01*
X97231582Y-92269078D01*
X97239202Y-92397784D01*
X97239667Y-92460233D01*
X97239667Y-92735400D01*
X96308334Y-92735400D01*
X96308334Y-92481400D01*
X96313210Y-92333914D01*
X96313210Y-92333914D01*
G37*
X96313210Y-92333914D02*
X96330498Y-92254729D01*
X96364182Y-92227901D01*
X96371834Y-92227400D01*
X96415987Y-92255361D01*
X96434181Y-92348051D01*
X96435334Y-92396733D01*
X96440349Y-92505311D01*
X96467526Y-92553578D01*
X96535063Y-92565799D01*
X96562334Y-92566066D01*
X96643767Y-92559380D01*
X96679967Y-92523143D01*
X96689133Y-92433094D01*
X96689334Y-92396733D01*
X96699819Y-92278991D01*
X96734578Y-92230473D01*
X96752834Y-92227400D01*
X96796987Y-92255361D01*
X96815181Y-92348051D01*
X96816334Y-92396733D01*
X96820819Y-92505151D01*
X96848515Y-92553333D01*
X96920780Y-92565688D01*
X96964500Y-92566066D01*
X97055540Y-92562000D01*
X97098651Y-92534438D01*
X97111753Y-92460340D01*
X97112667Y-92375566D01*
X97120977Y-92250005D01*
X97149234Y-92192812D01*
X97176167Y-92185066D01*
X97211785Y-92203437D01*
X97231582Y-92269078D01*
X97239202Y-92397784D01*
X97239667Y-92460233D01*
X97239667Y-92735400D01*
X96308334Y-92735400D01*
X96308334Y-92481400D01*
X96313210Y-92333914D01*
G36*
X96320275Y-91360122D02*
X96360972Y-91242802D01*
X96437734Y-91183260D01*
X96537473Y-91169066D01*
X96649560Y-91185796D01*
X96726348Y-91226271D01*
X96728245Y-91228443D01*
X96778180Y-91264999D01*
X96849116Y-91252408D01*
X96892178Y-91233359D01*
X97021604Y-91182055D01*
X97123250Y-91152009D01*
X97207649Y-91142657D01*
X97237623Y-91177183D01*
X97239667Y-91206576D01*
X97210643Y-91271832D01*
X97114874Y-91325799D01*
X97059750Y-91344966D01*
X96933916Y-91398519D01*
X96875113Y-91463848D01*
X96866306Y-91497150D01*
X96866208Y-91555510D01*
X96901609Y-91583479D01*
X96993162Y-91591992D01*
X97046223Y-91592400D01*
X97166391Y-91597766D01*
X97223678Y-91620120D01*
X97239531Y-91668849D01*
X97239667Y-91677066D01*
X97234308Y-91714120D01*
X97208475Y-91738442D01*
X97147530Y-91752693D01*
X97036839Y-91759535D01*
X96861763Y-91761629D01*
X96774000Y-91761733D01*
X96678159Y-91761733D01*
X96678159Y-91586246D01*
X96723332Y-91561353D01*
X96731667Y-91513312D01*
X96702805Y-91415146D01*
X96665143Y-91362590D01*
X96569095Y-91305789D01*
X96487133Y-91326999D01*
X96434461Y-91419570D01*
X96425798Y-91467250D01*
X96428356Y-91536577D01*
X96471779Y-91569843D01*
X96572917Y-91584372D01*
X96678159Y-91586246D01*
X96678159Y-91761733D01*
X96308334Y-91761733D01*
X96308334Y-91547283D01*
X96320275Y-91360122D01*
X96320275Y-91360122D01*
G37*
X96320275Y-91360122D02*
X96360972Y-91242802D01*
X96437734Y-91183260D01*
X96537473Y-91169066D01*
X96649560Y-91185796D01*
X96726348Y-91226271D01*
X96728245Y-91228443D01*
X96778180Y-91264999D01*
X96849116Y-91252408D01*
X96892178Y-91233359D01*
X97021604Y-91182055D01*
X97123250Y-91152009D01*
X97207649Y-91142657D01*
X97237623Y-91177183D01*
X97239667Y-91206576D01*
X97210643Y-91271832D01*
X97114874Y-91325799D01*
X97059750Y-91344966D01*
X96933916Y-91398519D01*
X96875113Y-91463848D01*
X96866306Y-91497150D01*
X96866208Y-91555510D01*
X96901609Y-91583479D01*
X96993162Y-91591992D01*
X97046223Y-91592400D01*
X97166391Y-91597766D01*
X97223678Y-91620120D01*
X97239531Y-91668849D01*
X97239667Y-91677066D01*
X97234308Y-91714120D01*
X97208475Y-91738442D01*
X97147530Y-91752693D01*
X97036839Y-91759535D01*
X96861763Y-91761629D01*
X96774000Y-91761733D01*
X96678159Y-91761733D01*
X96678159Y-91586246D01*
X96723332Y-91561353D01*
X96731667Y-91513312D01*
X96702805Y-91415146D01*
X96665143Y-91362590D01*
X96569095Y-91305789D01*
X96487133Y-91326999D01*
X96434461Y-91419570D01*
X96425798Y-91467250D01*
X96428356Y-91536577D01*
X96471779Y-91569843D01*
X96572917Y-91584372D01*
X96678159Y-91586246D01*
X96678159Y-91761733D01*
X96308334Y-91761733D01*
X96308334Y-91547283D01*
X96320275Y-91360122D01*
G36*
X96318299Y-90279060D02*
X96341193Y-90222465D01*
X96342105Y-90221858D01*
X96402155Y-90220214D01*
X96442860Y-90289826D01*
X96456500Y-90406487D01*
X96475105Y-90526367D01*
X96524054Y-90571903D01*
X96593050Y-90543027D01*
X96671794Y-90439668D01*
X96688832Y-90408049D01*
X96795378Y-90249938D01*
X96910671Y-90175100D01*
X97033673Y-90183997D01*
X97103307Y-90224057D01*
X97182493Y-90303852D01*
X97220956Y-90410576D01*
X97231246Y-90502741D01*
X97229942Y-90624000D01*
X97211884Y-90706858D01*
X97199496Y-90723230D01*
X97131845Y-90734909D01*
X97096175Y-90676423D01*
X97098428Y-90563077D01*
X97094289Y-90430493D01*
X97043337Y-90354666D01*
X96965392Y-90340124D01*
X96880277Y-90391394D01*
X96813715Y-90498054D01*
X96724525Y-90639260D01*
X96608632Y-90713342D01*
X96479845Y-90711925D01*
X96467988Y-90707767D01*
X96377999Y-90652393D01*
X96335274Y-90597347D01*
X96314708Y-90501192D01*
X96309261Y-90383533D01*
X96318299Y-90279060D01*
X96318299Y-90279060D01*
G37*
X96318299Y-90279060D02*
X96341193Y-90222465D01*
X96342105Y-90221858D01*
X96402155Y-90220214D01*
X96442860Y-90289826D01*
X96456500Y-90406487D01*
X96475105Y-90526367D01*
X96524054Y-90571903D01*
X96593050Y-90543027D01*
X96671794Y-90439668D01*
X96688832Y-90408049D01*
X96795378Y-90249938D01*
X96910671Y-90175100D01*
X97033673Y-90183997D01*
X97103307Y-90224057D01*
X97182493Y-90303852D01*
X97220956Y-90410576D01*
X97231246Y-90502741D01*
X97229942Y-90624000D01*
X97211884Y-90706858D01*
X97199496Y-90723230D01*
X97131845Y-90734909D01*
X97096175Y-90676423D01*
X97098428Y-90563077D01*
X97094289Y-90430493D01*
X97043337Y-90354666D01*
X96965392Y-90340124D01*
X96880277Y-90391394D01*
X96813715Y-90498054D01*
X96724525Y-90639260D01*
X96608632Y-90713342D01*
X96479845Y-90711925D01*
X96467988Y-90707767D01*
X96377999Y-90652393D01*
X96335274Y-90597347D01*
X96314708Y-90501192D01*
X96309261Y-90383533D01*
X96318299Y-90279060D01*
G36*
X96313692Y-89608013D02*
X96339526Y-89583691D01*
X96400470Y-89569440D01*
X96511162Y-89562598D01*
X96686237Y-89560504D01*
X96774000Y-89560400D01*
X96977794Y-89561374D01*
X97111564Y-89566071D01*
X97189947Y-89577152D01*
X97227578Y-89597278D01*
X97239094Y-89629110D01*
X97239667Y-89645066D01*
X97234308Y-89682120D01*
X97208475Y-89706442D01*
X97147530Y-89720693D01*
X97036839Y-89727535D01*
X96861763Y-89729629D01*
X96774000Y-89729733D01*
X96570206Y-89728759D01*
X96436436Y-89724062D01*
X96358054Y-89712981D01*
X96320422Y-89692855D01*
X96308907Y-89661023D01*
X96308334Y-89645066D01*
X96313692Y-89608013D01*
X96313692Y-89608013D01*
G37*
X96313692Y-89608013D02*
X96339526Y-89583691D01*
X96400470Y-89569440D01*
X96511162Y-89562598D01*
X96686237Y-89560504D01*
X96774000Y-89560400D01*
X96977794Y-89561374D01*
X97111564Y-89566071D01*
X97189947Y-89577152D01*
X97227578Y-89597278D01*
X97239094Y-89629110D01*
X97239667Y-89645066D01*
X97234308Y-89682120D01*
X97208475Y-89706442D01*
X97147530Y-89720693D01*
X97036839Y-89727535D01*
X96861763Y-89729629D01*
X96774000Y-89729733D01*
X96570206Y-89728759D01*
X96436436Y-89724062D01*
X96358054Y-89712981D01*
X96320422Y-89692855D01*
X96308907Y-89661023D01*
X96308334Y-89645066D01*
X96313692Y-89608013D01*
G36*
X96315651Y-88682701D02*
X96343559Y-88573784D01*
X96400990Y-88483957D01*
X96410501Y-88472677D01*
X96482455Y-88402351D01*
X96562266Y-88366741D01*
X96681758Y-88354655D01*
X96748206Y-88353900D01*
X96897205Y-88360775D01*
X96995938Y-88388772D01*
X97078202Y-88448949D01*
X97098284Y-88468442D01*
X97168543Y-88555877D01*
X97208509Y-88660831D01*
X97229497Y-88814810D01*
X97231335Y-88838858D01*
X97249843Y-89094733D01*
X97112667Y-89094733D01*
X97112667Y-88928824D01*
X97112667Y-88806673D01*
X97079090Y-88678860D01*
X97023556Y-88603878D01*
X96915597Y-88548157D01*
X96772017Y-88523756D01*
X96627916Y-88531831D01*
X96518393Y-88573536D01*
X96503014Y-88586733D01*
X96452898Y-88674526D01*
X96427419Y-88777233D01*
X96414167Y-88904233D01*
X96763417Y-88916529D01*
X97112667Y-88928824D01*
X97112667Y-89094733D01*
X96308334Y-89094733D01*
X96308334Y-88843094D01*
X96315651Y-88682701D01*
X96315651Y-88682701D01*
G37*
X96315651Y-88682701D02*
X96343559Y-88573784D01*
X96400990Y-88483957D01*
X96410501Y-88472677D01*
X96482455Y-88402351D01*
X96562266Y-88366741D01*
X96681758Y-88354655D01*
X96748206Y-88353900D01*
X96897205Y-88360775D01*
X96995938Y-88388772D01*
X97078202Y-88448949D01*
X97098284Y-88468442D01*
X97168543Y-88555877D01*
X97208509Y-88660831D01*
X97229497Y-88814810D01*
X97231335Y-88838858D01*
X97249843Y-89094733D01*
X97112667Y-89094733D01*
X97112667Y-88928824D01*
X97112667Y-88806673D01*
X97079090Y-88678860D01*
X97023556Y-88603878D01*
X96915597Y-88548157D01*
X96772017Y-88523756D01*
X96627916Y-88531831D01*
X96518393Y-88573536D01*
X96503014Y-88586733D01*
X96452898Y-88674526D01*
X96427419Y-88777233D01*
X96414167Y-88904233D01*
X96763417Y-88916529D01*
X97112667Y-88928824D01*
X97112667Y-89094733D01*
X96308334Y-89094733D01*
X96308334Y-88843094D01*
X96315651Y-88682701D01*
G36*
X96314811Y-87523123D02*
X96342128Y-87483001D01*
X96405431Y-87445916D01*
X96519400Y-87403545D01*
X96698715Y-87347571D01*
X96721548Y-87340681D01*
X96900569Y-87286560D01*
X97051695Y-87240532D01*
X97154864Y-87208727D01*
X97186750Y-87198568D01*
X97229780Y-87217572D01*
X97239667Y-87265729D01*
X97199358Y-87348454D01*
X97112667Y-87395056D01*
X97024477Y-87439524D01*
X96990054Y-87510363D01*
X96985667Y-87586334D01*
X96995518Y-87689072D01*
X97040098Y-87739065D01*
X97112667Y-87761233D01*
X97212720Y-87805490D01*
X97239667Y-87870430D01*
X97226526Y-87937445D01*
X97209495Y-87951733D01*
X97158933Y-87939994D01*
X97045584Y-87908228D01*
X96887485Y-87861617D01*
X96848084Y-87849659D01*
X96848084Y-87697091D01*
X96856046Y-87661268D01*
X96858667Y-87591900D01*
X96847786Y-87512388D01*
X96826917Y-87486303D01*
X96769345Y-87497017D01*
X96664239Y-87523487D01*
X96625834Y-87534045D01*
X96456500Y-87581551D01*
X96647000Y-87638999D01*
X96761194Y-87672945D01*
X96834837Y-87693905D01*
X96848084Y-87697091D01*
X96848084Y-87849659D01*
X96743828Y-87818016D01*
X96551006Y-87757419D01*
X96425333Y-87712264D01*
X96352591Y-87674594D01*
X96318559Y-87636453D01*
X96309019Y-87589885D01*
X96308798Y-87574599D01*
X96314811Y-87523123D01*
X96314811Y-87523123D01*
G37*
X96314811Y-87523123D02*
X96342128Y-87483001D01*
X96405431Y-87445916D01*
X96519400Y-87403545D01*
X96698715Y-87347571D01*
X96721548Y-87340681D01*
X96900569Y-87286560D01*
X97051695Y-87240532D01*
X97154864Y-87208727D01*
X97186750Y-87198568D01*
X97229780Y-87217572D01*
X97239667Y-87265729D01*
X97199358Y-87348454D01*
X97112667Y-87395056D01*
X97024477Y-87439524D01*
X96990054Y-87510363D01*
X96985667Y-87586334D01*
X96995518Y-87689072D01*
X97040098Y-87739065D01*
X97112667Y-87761233D01*
X97212720Y-87805490D01*
X97239667Y-87870430D01*
X97226526Y-87937445D01*
X97209495Y-87951733D01*
X97158933Y-87939994D01*
X97045584Y-87908228D01*
X96887485Y-87861617D01*
X96848084Y-87849659D01*
X96848084Y-87697091D01*
X96856046Y-87661268D01*
X96858667Y-87591900D01*
X96847786Y-87512388D01*
X96826917Y-87486303D01*
X96769345Y-87497017D01*
X96664239Y-87523487D01*
X96625834Y-87534045D01*
X96456500Y-87581551D01*
X96647000Y-87638999D01*
X96761194Y-87672945D01*
X96834837Y-87693905D01*
X96848084Y-87697091D01*
X96848084Y-87849659D01*
X96743828Y-87818016D01*
X96551006Y-87757419D01*
X96425333Y-87712264D01*
X96352591Y-87674594D01*
X96318559Y-87636453D01*
X96309019Y-87589885D01*
X96308798Y-87574599D01*
X96314811Y-87523123D01*
G36*
X96315651Y-86354368D02*
X96343559Y-86245451D01*
X96400990Y-86155624D01*
X96410501Y-86144344D01*
X96482455Y-86074017D01*
X96562266Y-86038407D01*
X96681758Y-86026321D01*
X96748206Y-86025566D01*
X96897205Y-86032441D01*
X96995938Y-86060438D01*
X97078202Y-86120616D01*
X97098284Y-86140108D01*
X97168543Y-86227544D01*
X97208509Y-86332498D01*
X97229497Y-86486477D01*
X97231335Y-86510525D01*
X97249843Y-86766400D01*
X97112667Y-86766400D01*
X97112667Y-86600491D01*
X97112667Y-86478340D01*
X97079090Y-86350527D01*
X97023556Y-86275544D01*
X96915597Y-86219824D01*
X96772017Y-86195423D01*
X96627916Y-86203497D01*
X96518393Y-86245203D01*
X96503014Y-86258400D01*
X96452898Y-86346192D01*
X96427419Y-86448900D01*
X96414167Y-86575900D01*
X96763417Y-86588195D01*
X97112667Y-86600491D01*
X97112667Y-86766400D01*
X96308334Y-86766400D01*
X96308334Y-86514760D01*
X96315651Y-86354368D01*
X96315651Y-86354368D01*
G37*
X96315651Y-86354368D02*
X96343559Y-86245451D01*
X96400990Y-86155624D01*
X96410501Y-86144344D01*
X96482455Y-86074017D01*
X96562266Y-86038407D01*
X96681758Y-86026321D01*
X96748206Y-86025566D01*
X96897205Y-86032441D01*
X96995938Y-86060438D01*
X97078202Y-86120616D01*
X97098284Y-86140108D01*
X97168543Y-86227544D01*
X97208509Y-86332498D01*
X97229497Y-86486477D01*
X97231335Y-86510525D01*
X97249843Y-86766400D01*
X97112667Y-86766400D01*
X97112667Y-86600491D01*
X97112667Y-86478340D01*
X97079090Y-86350527D01*
X97023556Y-86275544D01*
X96915597Y-86219824D01*
X96772017Y-86195423D01*
X96627916Y-86203497D01*
X96518393Y-86245203D01*
X96503014Y-86258400D01*
X96452898Y-86346192D01*
X96427419Y-86448900D01*
X96414167Y-86575900D01*
X96763417Y-86588195D01*
X97112667Y-86600491D01*
X97112667Y-86766400D01*
X96308334Y-86766400D01*
X96308334Y-86514760D01*
X96315651Y-86354368D01*
G36*
X96753411Y-97752829D02*
X96829047Y-97732300D01*
X96879834Y-97730733D01*
X96978333Y-97733402D01*
X97028161Y-97739961D01*
X97029582Y-97741316D01*
X97034122Y-97800780D01*
X97041723Y-97933778D01*
X97051887Y-98129256D01*
X97064114Y-98376156D01*
X97077904Y-98663423D01*
X97092756Y-98980000D01*
X97108172Y-99314831D01*
X97123651Y-99656860D01*
X97138694Y-99995029D01*
X97152801Y-100318284D01*
X97165471Y-100615568D01*
X97176206Y-100875824D01*
X97184505Y-101087997D01*
X97189869Y-101241029D01*
X97191798Y-101323864D01*
X97191768Y-101329066D01*
X97186198Y-101337486D01*
X97171635Y-101268959D01*
X97149096Y-101130610D01*
X97119598Y-100929565D01*
X97084159Y-100672948D01*
X97043796Y-100367886D01*
X96999527Y-100021505D01*
X96962100Y-99720400D01*
X96914649Y-99332831D01*
X96870482Y-98969651D01*
X96830667Y-98639815D01*
X96796272Y-98352283D01*
X96768365Y-98116011D01*
X96748012Y-97939956D01*
X96736283Y-97833078D01*
X96733784Y-97804816D01*
X96753411Y-97752829D01*
X96753411Y-97752829D01*
G37*
X96753411Y-97752829D02*
X96829047Y-97732300D01*
X96879834Y-97730733D01*
X96978333Y-97733402D01*
X97028161Y-97739961D01*
X97029582Y-97741316D01*
X97034122Y-97800780D01*
X97041723Y-97933778D01*
X97051887Y-98129256D01*
X97064114Y-98376156D01*
X97077904Y-98663423D01*
X97092756Y-98980000D01*
X97108172Y-99314831D01*
X97123651Y-99656860D01*
X97138694Y-99995029D01*
X97152801Y-100318284D01*
X97165471Y-100615568D01*
X97176206Y-100875824D01*
X97184505Y-101087997D01*
X97189869Y-101241029D01*
X97191798Y-101323864D01*
X97191768Y-101329066D01*
X97186198Y-101337486D01*
X97171635Y-101268959D01*
X97149096Y-101130610D01*
X97119598Y-100929565D01*
X97084159Y-100672948D01*
X97043796Y-100367886D01*
X96999527Y-100021505D01*
X96962100Y-99720400D01*
X96914649Y-99332831D01*
X96870482Y-98969651D01*
X96830667Y-98639815D01*
X96796272Y-98352283D01*
X96768365Y-98116011D01*
X96748012Y-97939956D01*
X96736283Y-97833078D01*
X96733784Y-97804816D01*
X96753411Y-97752829D01*
G36*
X97129424Y-101806198D02*
X97148665Y-101818824D01*
X97151658Y-101861761D01*
X97141319Y-101906932D01*
X97126082Y-101887337D01*
X97121035Y-101821175D01*
X97129424Y-101806198D01*
X97129424Y-101806198D01*
G37*
X97129424Y-101806198D02*
X97148665Y-101818824D01*
X97151658Y-101861761D01*
X97141319Y-101906932D01*
X97126082Y-101887337D01*
X97121035Y-101821175D01*
X97129424Y-101806198D01*
G36*
X96387914Y-98460798D02*
X96479492Y-98450662D01*
X96498834Y-98450400D01*
X96606031Y-98464404D01*
X96646963Y-98502569D01*
X96647000Y-98504035D01*
X96653127Y-98556868D01*
X96670569Y-98683748D01*
X96697919Y-98875016D01*
X96733768Y-99121015D01*
X96776710Y-99412087D01*
X96825335Y-99738572D01*
X96878237Y-100090813D01*
X96879834Y-100101400D01*
X96946444Y-100545208D01*
X97000502Y-100910636D01*
X97042684Y-101202933D01*
X97073668Y-101427346D01*
X97094131Y-101589123D01*
X97104749Y-101693510D01*
X97106200Y-101745756D01*
X97099160Y-101751108D01*
X97090091Y-101731233D01*
X97076919Y-101680411D01*
X97047814Y-101558551D01*
X97005263Y-101376580D01*
X96951751Y-101145424D01*
X96889765Y-100876010D01*
X96821790Y-100579265D01*
X96750312Y-100266116D01*
X96677817Y-99947490D01*
X96606791Y-99634314D01*
X96539719Y-99337514D01*
X96479089Y-99068017D01*
X96427385Y-98836751D01*
X96387094Y-98654641D01*
X96360701Y-98532615D01*
X96350693Y-98481600D01*
X96350667Y-98481092D01*
X96387914Y-98460798D01*
X96387914Y-98460798D01*
G37*
X96387914Y-98460798D02*
X96479492Y-98450662D01*
X96498834Y-98450400D01*
X96606031Y-98464404D01*
X96646963Y-98502569D01*
X96647000Y-98504035D01*
X96653127Y-98556868D01*
X96670569Y-98683748D01*
X96697919Y-98875016D01*
X96733768Y-99121015D01*
X96776710Y-99412087D01*
X96825335Y-99738572D01*
X96878237Y-100090813D01*
X96879834Y-100101400D01*
X96946444Y-100545208D01*
X97000502Y-100910636D01*
X97042684Y-101202933D01*
X97073668Y-101427346D01*
X97094131Y-101589123D01*
X97104749Y-101693510D01*
X97106200Y-101745756D01*
X97099160Y-101751108D01*
X97090091Y-101731233D01*
X97076919Y-101680411D01*
X97047814Y-101558551D01*
X97005263Y-101376580D01*
X96951751Y-101145424D01*
X96889765Y-100876010D01*
X96821790Y-100579265D01*
X96750312Y-100266116D01*
X96677817Y-99947490D01*
X96606791Y-99634314D01*
X96539719Y-99337514D01*
X96479089Y-99068017D01*
X96427385Y-98836751D01*
X96387094Y-98654641D01*
X96360701Y-98532615D01*
X96350693Y-98481600D01*
X96350667Y-98481092D01*
X96387914Y-98460798D01*
G36*
X97042111Y-101978178D02*
X97067278Y-101983989D01*
X97070334Y-102006400D01*
X97054844Y-102041245D01*
X97042111Y-102034622D01*
X97037045Y-101984382D01*
X97042111Y-101978178D01*
X97042111Y-101978178D01*
G37*
X97042111Y-101978178D02*
X97067278Y-101983989D01*
X97070334Y-102006400D01*
X97054844Y-102041245D01*
X97042111Y-102034622D01*
X97037045Y-101984382D01*
X97042111Y-101978178D01*
G36*
X96234435Y-99219997D02*
X96330396Y-99217124D01*
X96381326Y-99228948D01*
X96396488Y-99274208D01*
X96427968Y-99389901D01*
X96472865Y-99564001D01*
X96528279Y-99784487D01*
X96591309Y-100039332D01*
X96659054Y-100316513D01*
X96728613Y-100604006D01*
X96797087Y-100889786D01*
X96861574Y-101161830D01*
X96919173Y-101408114D01*
X96966984Y-101616612D01*
X97002106Y-101775302D01*
X97021639Y-101872159D01*
X97024660Y-101895736D01*
X97010980Y-101868534D01*
X96973636Y-101769840D01*
X96915728Y-101608488D01*
X96840357Y-101393312D01*
X96750623Y-101133143D01*
X96649628Y-100836816D01*
X96565691Y-100588233D01*
X96110064Y-99233566D01*
X96234435Y-99219997D01*
X96234435Y-99219997D01*
G37*
X96234435Y-99219997D02*
X96330396Y-99217124D01*
X96381326Y-99228948D01*
X96396488Y-99274208D01*
X96427968Y-99389901D01*
X96472865Y-99564001D01*
X96528279Y-99784487D01*
X96591309Y-100039332D01*
X96659054Y-100316513D01*
X96728613Y-100604006D01*
X96797087Y-100889786D01*
X96861574Y-101161830D01*
X96919173Y-101408114D01*
X96966984Y-101616612D01*
X97002106Y-101775302D01*
X97021639Y-101872159D01*
X97024660Y-101895736D01*
X97010980Y-101868534D01*
X96973636Y-101769840D01*
X96915728Y-101608488D01*
X96840357Y-101393312D01*
X96750623Y-101133143D01*
X96649628Y-100836816D01*
X96565691Y-100588233D01*
X96110064Y-99233566D01*
X96234435Y-99219997D01*
G36*
X96957445Y-102105178D02*
X96982612Y-102110989D01*
X96985667Y-102133400D01*
X96970178Y-102168245D01*
X96957445Y-102161622D01*
X96952378Y-102111382D01*
X96957445Y-102105178D01*
X96957445Y-102105178D01*
G37*
X96957445Y-102105178D02*
X96982612Y-102110989D01*
X96985667Y-102133400D01*
X96970178Y-102168245D01*
X96957445Y-102161622D01*
X96952378Y-102111382D01*
X96957445Y-102105178D01*
G36*
X96003647Y-99941102D02*
X96083971Y-99938328D01*
X96099500Y-99939643D01*
X96238046Y-99953233D01*
X96588454Y-100969233D01*
X96707279Y-101315189D01*
X96799402Y-101587025D01*
X96866537Y-101790376D01*
X96910398Y-101930879D01*
X96932698Y-102014168D01*
X96935150Y-102045880D01*
X96919469Y-102031650D01*
X96903804Y-102006400D01*
X96877018Y-101951429D01*
X96821139Y-101830258D01*
X96741254Y-101654147D01*
X96642451Y-101434354D01*
X96529816Y-101182141D01*
X96435223Y-100969233D01*
X96316303Y-100701483D01*
X96208231Y-100459129D01*
X96115872Y-100253005D01*
X96044095Y-100093949D01*
X95997766Y-99992794D01*
X95982275Y-99960809D01*
X96003647Y-99941102D01*
X96003647Y-99941102D01*
G37*
X96003647Y-99941102D02*
X96083971Y-99938328D01*
X96099500Y-99939643D01*
X96238046Y-99953233D01*
X96588454Y-100969233D01*
X96707279Y-101315189D01*
X96799402Y-101587025D01*
X96866537Y-101790376D01*
X96910398Y-101930879D01*
X96932698Y-102014168D01*
X96935150Y-102045880D01*
X96919469Y-102031650D01*
X96903804Y-102006400D01*
X96877018Y-101951429D01*
X96821139Y-101830258D01*
X96741254Y-101654147D01*
X96642451Y-101434354D01*
X96529816Y-101182141D01*
X96435223Y-100969233D01*
X96316303Y-100701483D01*
X96208231Y-100459129D01*
X96115872Y-100253005D01*
X96044095Y-100093949D01*
X95997766Y-99992794D01*
X95982275Y-99960809D01*
X96003647Y-99941102D01*
G36*
X101615434Y-108379115D02*
X101626114Y-108369426D01*
X101661379Y-108381893D01*
X101742662Y-108415390D01*
X101856663Y-108464062D01*
X101990081Y-108522052D01*
X102129616Y-108583505D01*
X102261966Y-108642565D01*
X102373831Y-108693376D01*
X102451909Y-108730082D01*
X102482635Y-108746516D01*
X102463716Y-108765621D01*
X102400842Y-108800003D01*
X102352378Y-108822446D01*
X102257516Y-108864147D01*
X102125565Y-108922160D01*
X101979057Y-108986578D01*
X101915872Y-109014361D01*
X101790906Y-109066038D01*
X101690078Y-109101555D01*
X101626576Y-109116617D01*
X101611582Y-109113461D01*
X101608781Y-109068234D01*
X101641634Y-109023764D01*
X101718132Y-108973771D01*
X101846267Y-108911974D01*
X101895377Y-108890452D01*
X102011810Y-108836885D01*
X102099882Y-108790071D01*
X102146528Y-108757252D01*
X102150529Y-108748996D01*
X102118624Y-108724600D01*
X102040663Y-108682564D01*
X101930736Y-108630225D01*
X101874147Y-108605072D01*
X101733758Y-108539627D01*
X101648243Y-108488220D01*
X101610160Y-108445958D01*
X101606513Y-108429028D01*
X101615434Y-108379115D01*
X101615434Y-108379115D01*
G37*
X101615434Y-108379115D02*
X101626114Y-108369426D01*
X101661379Y-108381893D01*
X101742662Y-108415390D01*
X101856663Y-108464062D01*
X101990081Y-108522052D01*
X102129616Y-108583505D01*
X102261966Y-108642565D01*
X102373831Y-108693376D01*
X102451909Y-108730082D01*
X102482635Y-108746516D01*
X102463716Y-108765621D01*
X102400842Y-108800003D01*
X102352378Y-108822446D01*
X102257516Y-108864147D01*
X102125565Y-108922160D01*
X101979057Y-108986578D01*
X101915872Y-109014361D01*
X101790906Y-109066038D01*
X101690078Y-109101555D01*
X101626576Y-109116617D01*
X101611582Y-109113461D01*
X101608781Y-109068234D01*
X101641634Y-109023764D01*
X101718132Y-108973771D01*
X101846267Y-108911974D01*
X101895377Y-108890452D01*
X102011810Y-108836885D01*
X102099882Y-108790071D01*
X102146528Y-108757252D01*
X102150529Y-108748996D01*
X102118624Y-108724600D01*
X102040663Y-108682564D01*
X101930736Y-108630225D01*
X101874147Y-108605072D01*
X101733758Y-108539627D01*
X101648243Y-108488220D01*
X101610160Y-108445958D01*
X101606513Y-108429028D01*
X101615434Y-108379115D01*
G36*
X101242836Y-114043685D02*
X101272962Y-113915993D01*
X101318823Y-113809317D01*
X101375610Y-113739491D01*
X101424605Y-113720794D01*
X101466961Y-113732669D01*
X101470256Y-113775427D01*
X101435016Y-113859767D01*
X101431762Y-113866236D01*
X101374333Y-114038242D01*
X101369527Y-114210107D01*
X101414365Y-114367976D01*
X101505871Y-114497990D01*
X101579874Y-114555615D01*
X101726407Y-114612145D01*
X101886044Y-114620780D01*
X102041504Y-114585581D01*
X102175505Y-114510612D01*
X102270766Y-114399934D01*
X102274866Y-114392258D01*
X102312488Y-114266390D01*
X102320138Y-114111471D01*
X102297863Y-113956248D01*
X102274077Y-113884019D01*
X102236697Y-113785751D01*
X102229186Y-113732680D01*
X102251660Y-113712063D01*
X102275669Y-113709939D01*
X102332975Y-113739811D01*
X102381378Y-113819237D01*
X102418124Y-113932936D01*
X102440457Y-114065624D01*
X102445622Y-114202019D01*
X102430863Y-114326838D01*
X102401878Y-114409995D01*
X102312123Y-114547578D01*
X102198591Y-114645803D01*
X102120694Y-114690327D01*
X101967312Y-114738841D01*
X101792364Y-114748921D01*
X101627629Y-114719497D01*
X101596817Y-114707995D01*
X101474476Y-114629463D01*
X101361006Y-114509707D01*
X101275971Y-114371744D01*
X101249032Y-114298785D01*
X101233257Y-114176560D01*
X101242836Y-114043685D01*
X101242836Y-114043685D01*
G37*
X101242836Y-114043685D02*
X101272962Y-113915993D01*
X101318823Y-113809317D01*
X101375610Y-113739491D01*
X101424605Y-113720794D01*
X101466961Y-113732669D01*
X101470256Y-113775427D01*
X101435016Y-113859767D01*
X101431762Y-113866236D01*
X101374333Y-114038242D01*
X101369527Y-114210107D01*
X101414365Y-114367976D01*
X101505871Y-114497990D01*
X101579874Y-114555615D01*
X101726407Y-114612145D01*
X101886044Y-114620780D01*
X102041504Y-114585581D01*
X102175505Y-114510612D01*
X102270766Y-114399934D01*
X102274866Y-114392258D01*
X102312488Y-114266390D01*
X102320138Y-114111471D01*
X102297863Y-113956248D01*
X102274077Y-113884019D01*
X102236697Y-113785751D01*
X102229186Y-113732680D01*
X102251660Y-113712063D01*
X102275669Y-113709939D01*
X102332975Y-113739811D01*
X102381378Y-113819237D01*
X102418124Y-113932936D01*
X102440457Y-114065624D01*
X102445622Y-114202019D01*
X102430863Y-114326838D01*
X102401878Y-114409995D01*
X102312123Y-114547578D01*
X102198591Y-114645803D01*
X102120694Y-114690327D01*
X101967312Y-114738841D01*
X101792364Y-114748921D01*
X101627629Y-114719497D01*
X101596817Y-114707995D01*
X101474476Y-114629463D01*
X101361006Y-114509707D01*
X101275971Y-114371744D01*
X101249032Y-114298785D01*
X101233257Y-114176560D01*
X101242836Y-114043685D01*
G36*
X101617258Y-112952259D02*
X101641552Y-112865087D01*
X101685095Y-112834864D01*
X101715429Y-112840543D01*
X101749224Y-112875588D01*
X101750655Y-112951627D01*
X101748095Y-112968914D01*
X101743639Y-113044819D01*
X101765287Y-113097364D01*
X101822172Y-113131206D01*
X101923426Y-113151006D01*
X102078179Y-113161419D01*
X102128929Y-113163184D01*
X102274873Y-113169282D01*
X102367778Y-113178404D01*
X102419729Y-113193075D01*
X102442813Y-113215818D01*
X102447054Y-113229618D01*
X102446291Y-113252970D01*
X102426840Y-113268937D01*
X102378740Y-113278900D01*
X102292029Y-113284238D01*
X102156746Y-113286331D01*
X102035734Y-113286606D01*
X101613513Y-113286606D01*
X101611013Y-113099362D01*
X101617258Y-112952259D01*
X101617258Y-112952259D01*
G37*
X101617258Y-112952259D02*
X101641552Y-112865087D01*
X101685095Y-112834864D01*
X101715429Y-112840543D01*
X101749224Y-112875588D01*
X101750655Y-112951627D01*
X101748095Y-112968914D01*
X101743639Y-113044819D01*
X101765287Y-113097364D01*
X101822172Y-113131206D01*
X101923426Y-113151006D01*
X102078179Y-113161419D01*
X102128929Y-113163184D01*
X102274873Y-113169282D01*
X102367778Y-113178404D01*
X102419729Y-113193075D01*
X102442813Y-113215818D01*
X102447054Y-113229618D01*
X102446291Y-113252970D01*
X102426840Y-113268937D01*
X102378740Y-113278900D01*
X102292029Y-113284238D01*
X102156746Y-113286331D01*
X102035734Y-113286606D01*
X101613513Y-113286606D01*
X101611013Y-113099362D01*
X101617258Y-112952259D01*
G36*
X101610999Y-112012905D02*
X101655561Y-111875598D01*
X101690016Y-111824672D01*
X101782055Y-111748763D01*
X101904078Y-111688293D01*
X102022609Y-111659242D01*
X102037987Y-111658582D01*
X102047773Y-111688883D01*
X102055691Y-111771210D01*
X102060852Y-111892471D01*
X102062410Y-112018800D01*
X102062831Y-112175617D01*
X102065624Y-112277935D01*
X102073087Y-112336381D01*
X102087515Y-112361586D01*
X102111206Y-112364177D01*
X102135679Y-112357893D01*
X102239652Y-112298074D01*
X102303325Y-112201469D01*
X102323027Y-112085147D01*
X102295083Y-111966178D01*
X102237955Y-111882636D01*
X102184360Y-111807084D01*
X102179741Y-111750668D01*
X102224113Y-111724258D01*
X102237758Y-111723529D01*
X102286570Y-111745514D01*
X102349819Y-111799013D01*
X102355252Y-111804688D01*
X102412819Y-111905275D01*
X102443111Y-112039515D01*
X102443595Y-112180815D01*
X102411739Y-112302584D01*
X102404074Y-112317414D01*
X102312683Y-112419655D01*
X102187124Y-112482282D01*
X102043882Y-112505444D01*
X101899445Y-112489285D01*
X101888354Y-112484534D01*
X101888354Y-112342247D01*
X101911487Y-112324974D01*
X101925319Y-112266761D01*
X101931462Y-112158017D01*
X101932154Y-112081734D01*
X101928345Y-111952721D01*
X101917947Y-111862062D01*
X101902503Y-111822089D01*
X101899589Y-111821221D01*
X101854665Y-111842240D01*
X101801897Y-111886349D01*
X101753168Y-111969017D01*
X101736379Y-112073102D01*
X101748059Y-112180300D01*
X101784738Y-112272307D01*
X101842944Y-112330819D01*
X101888354Y-112342247D01*
X101888354Y-112484534D01*
X101770299Y-112433954D01*
X101672931Y-112339597D01*
X101655910Y-112310748D01*
X101610562Y-112165833D01*
X101610999Y-112012905D01*
X101610999Y-112012905D01*
G37*
X101610999Y-112012905D02*
X101655561Y-111875598D01*
X101690016Y-111824672D01*
X101782055Y-111748763D01*
X101904078Y-111688293D01*
X102022609Y-111659242D01*
X102037987Y-111658582D01*
X102047773Y-111688883D01*
X102055691Y-111771210D01*
X102060852Y-111892471D01*
X102062410Y-112018800D01*
X102062831Y-112175617D01*
X102065624Y-112277935D01*
X102073087Y-112336381D01*
X102087515Y-112361586D01*
X102111206Y-112364177D01*
X102135679Y-112357893D01*
X102239652Y-112298074D01*
X102303325Y-112201469D01*
X102323027Y-112085147D01*
X102295083Y-111966178D01*
X102237955Y-111882636D01*
X102184360Y-111807084D01*
X102179741Y-111750668D01*
X102224113Y-111724258D01*
X102237758Y-111723529D01*
X102286570Y-111745514D01*
X102349819Y-111799013D01*
X102355252Y-111804688D01*
X102412819Y-111905275D01*
X102443111Y-112039515D01*
X102443595Y-112180815D01*
X102411739Y-112302584D01*
X102404074Y-112317414D01*
X102312683Y-112419655D01*
X102187124Y-112482282D01*
X102043882Y-112505444D01*
X101899445Y-112489285D01*
X101888354Y-112484534D01*
X101888354Y-112342247D01*
X101911487Y-112324974D01*
X101925319Y-112266761D01*
X101931462Y-112158017D01*
X101932154Y-112081734D01*
X101928345Y-111952721D01*
X101917947Y-111862062D01*
X101902503Y-111822089D01*
X101899589Y-111821221D01*
X101854665Y-111842240D01*
X101801897Y-111886349D01*
X101753168Y-111969017D01*
X101736379Y-112073102D01*
X101748059Y-112180300D01*
X101784738Y-112272307D01*
X101842944Y-112330819D01*
X101888354Y-112342247D01*
X101888354Y-112484534D01*
X101770299Y-112433954D01*
X101672931Y-112339597D01*
X101655910Y-112310748D01*
X101610562Y-112165833D01*
X101610999Y-112012905D01*
G36*
X101617898Y-110512826D02*
X101658191Y-110499517D01*
X101736598Y-110491295D01*
X101862328Y-110487156D01*
X102029846Y-110486093D01*
X102208479Y-110487383D01*
X102331067Y-110491902D01*
X102406653Y-110500616D01*
X102444282Y-110514497D01*
X102453179Y-110531455D01*
X102426830Y-110581275D01*
X102402313Y-110596336D01*
X102369581Y-110616477D01*
X102377714Y-110651151D01*
X102402313Y-110688476D01*
X102434787Y-110769063D01*
X102452055Y-110881449D01*
X102453179Y-110917150D01*
X102445352Y-111024650D01*
X102413016Y-111105753D01*
X102342888Y-111193550D01*
X102341707Y-111194840D01*
X102275093Y-111262482D01*
X102217292Y-111298893D01*
X102143653Y-111313686D01*
X102047006Y-111316056D01*
X102047006Y-111197543D01*
X102173987Y-111161901D01*
X102256893Y-111098276D01*
X102312725Y-110995169D01*
X102324445Y-110871018D01*
X102292913Y-110751846D01*
X102243157Y-110683023D01*
X102131558Y-110618430D01*
X102002334Y-110603409D01*
X101878626Y-110638147D01*
X101820160Y-110679616D01*
X101757220Y-110776833D01*
X101733313Y-110897592D01*
X101749564Y-111016891D01*
X101801069Y-111103982D01*
X101916588Y-111178313D01*
X102047006Y-111197543D01*
X102047006Y-111316056D01*
X102029846Y-111316477D01*
X101915837Y-111313670D01*
X101842262Y-111298839D01*
X101784468Y-111262369D01*
X101717985Y-111194840D01*
X101646304Y-111104682D01*
X101613595Y-111021624D01*
X101606513Y-110927719D01*
X101615742Y-110815093D01*
X101638710Y-110714556D01*
X101646835Y-110693737D01*
X101670393Y-110627379D01*
X101658524Y-110597064D01*
X101646835Y-110591798D01*
X101609948Y-110551951D01*
X101606513Y-110532225D01*
X101617898Y-110512826D01*
X101617898Y-110512826D01*
G37*
X101617898Y-110512826D02*
X101658191Y-110499517D01*
X101736598Y-110491295D01*
X101862328Y-110487156D01*
X102029846Y-110486093D01*
X102208479Y-110487383D01*
X102331067Y-110491902D01*
X102406653Y-110500616D01*
X102444282Y-110514497D01*
X102453179Y-110531455D01*
X102426830Y-110581275D01*
X102402313Y-110596336D01*
X102369581Y-110616477D01*
X102377714Y-110651151D01*
X102402313Y-110688476D01*
X102434787Y-110769063D01*
X102452055Y-110881449D01*
X102453179Y-110917150D01*
X102445352Y-111024650D01*
X102413016Y-111105753D01*
X102342888Y-111193550D01*
X102341707Y-111194840D01*
X102275093Y-111262482D01*
X102217292Y-111298893D01*
X102143653Y-111313686D01*
X102047006Y-111316056D01*
X102047006Y-111197543D01*
X102173987Y-111161901D01*
X102256893Y-111098276D01*
X102312725Y-110995169D01*
X102324445Y-110871018D01*
X102292913Y-110751846D01*
X102243157Y-110683023D01*
X102131558Y-110618430D01*
X102002334Y-110603409D01*
X101878626Y-110638147D01*
X101820160Y-110679616D01*
X101757220Y-110776833D01*
X101733313Y-110897592D01*
X101749564Y-111016891D01*
X101801069Y-111103982D01*
X101916588Y-111178313D01*
X102047006Y-111197543D01*
X102047006Y-111316056D01*
X102029846Y-111316477D01*
X101915837Y-111313670D01*
X101842262Y-111298839D01*
X101784468Y-111262369D01*
X101717985Y-111194840D01*
X101646304Y-111104682D01*
X101613595Y-111021624D01*
X101606513Y-110927719D01*
X101615742Y-110815093D01*
X101638710Y-110714556D01*
X101646835Y-110693737D01*
X101670393Y-110627379D01*
X101658524Y-110597064D01*
X101646835Y-110591798D01*
X101609948Y-110551951D01*
X101606513Y-110532225D01*
X101617898Y-110512826D01*
G36*
X101256081Y-109862301D02*
X101289693Y-109842694D01*
X101364576Y-109835505D01*
X101427410Y-109834811D01*
X101529986Y-109832697D01*
X101583396Y-109821528D01*
X101603578Y-109794058D01*
X101606513Y-109753400D01*
X101621777Y-109689562D01*
X101671641Y-109671990D01*
X101723391Y-109691876D01*
X101736769Y-109750387D01*
X101742397Y-109795055D01*
X101769598Y-109820455D01*
X101833848Y-109834150D01*
X101924013Y-109841878D01*
X102097020Y-109836014D01*
X102223504Y-109793332D01*
X102299815Y-109717116D01*
X102322304Y-109610650D01*
X102298630Y-109504675D01*
X102280849Y-109428785D01*
X102302919Y-109382242D01*
X102307913Y-109377858D01*
X102345018Y-109365822D01*
X102382082Y-109404006D01*
X102402305Y-109440120D01*
X102447959Y-109574128D01*
X102434508Y-109699315D01*
X102389672Y-109792027D01*
X102325901Y-109877682D01*
X102250769Y-109930260D01*
X102147221Y-109956969D01*
X101998201Y-109965012D01*
X101980092Y-109965067D01*
X101862065Y-109967453D01*
X101793699Y-109977468D01*
X101759612Y-109999394D01*
X101746204Y-110030195D01*
X101706389Y-110083408D01*
X101667843Y-110095324D01*
X101616205Y-110070523D01*
X101606513Y-110030195D01*
X101598739Y-109992558D01*
X101565127Y-109972951D01*
X101490244Y-109965762D01*
X101427410Y-109965067D01*
X101323907Y-109962240D01*
X101269988Y-109950018D01*
X101250218Y-109922788D01*
X101248307Y-109899939D01*
X101256081Y-109862301D01*
X101256081Y-109862301D01*
G37*
X101256081Y-109862301D02*
X101289693Y-109842694D01*
X101364576Y-109835505D01*
X101427410Y-109834811D01*
X101529986Y-109832697D01*
X101583396Y-109821528D01*
X101603578Y-109794058D01*
X101606513Y-109753400D01*
X101621777Y-109689562D01*
X101671641Y-109671990D01*
X101723391Y-109691876D01*
X101736769Y-109750387D01*
X101742397Y-109795055D01*
X101769598Y-109820455D01*
X101833848Y-109834150D01*
X101924013Y-109841878D01*
X102097020Y-109836014D01*
X102223504Y-109793332D01*
X102299815Y-109717116D01*
X102322304Y-109610650D01*
X102298630Y-109504675D01*
X102280849Y-109428785D01*
X102302919Y-109382242D01*
X102307913Y-109377858D01*
X102345018Y-109365822D01*
X102382082Y-109404006D01*
X102402305Y-109440120D01*
X102447959Y-109574128D01*
X102434508Y-109699315D01*
X102389672Y-109792027D01*
X102325901Y-109877682D01*
X102250769Y-109930260D01*
X102147221Y-109956969D01*
X101998201Y-109965012D01*
X101980092Y-109965067D01*
X101862065Y-109967453D01*
X101793699Y-109977468D01*
X101759612Y-109999394D01*
X101746204Y-110030195D01*
X101706389Y-110083408D01*
X101667843Y-110095324D01*
X101616205Y-110070523D01*
X101606513Y-110030195D01*
X101598739Y-109992558D01*
X101565127Y-109972951D01*
X101490244Y-109965762D01*
X101427410Y-109965067D01*
X101323907Y-109962240D01*
X101269988Y-109950018D01*
X101250218Y-109922788D01*
X101248307Y-109899939D01*
X101256081Y-109862301D01*
G36*
X101617761Y-107556884D02*
X101639835Y-107459573D01*
X101674492Y-107412812D01*
X101717209Y-107422346D01*
X101743088Y-107478546D01*
X101743762Y-107555004D01*
X101739518Y-107635911D01*
X101760792Y-107691311D01*
X101816683Y-107725795D01*
X101916287Y-107743954D01*
X102068703Y-107750380D01*
X102131525Y-107750708D01*
X102278662Y-107751623D01*
X102372537Y-107755967D01*
X102425008Y-107766142D01*
X102447932Y-107784549D01*
X102453169Y-107813589D01*
X102453179Y-107815836D01*
X102449565Y-107842514D01*
X102431777Y-107860707D01*
X102389394Y-107872033D01*
X102311998Y-107878107D01*
X102189169Y-107880544D01*
X102033214Y-107880965D01*
X101613248Y-107880965D01*
X101611057Y-107697522D01*
X101617761Y-107556884D01*
X101617761Y-107556884D01*
G37*
X101617761Y-107556884D02*
X101639835Y-107459573D01*
X101674492Y-107412812D01*
X101717209Y-107422346D01*
X101743088Y-107478546D01*
X101743762Y-107555004D01*
X101739518Y-107635911D01*
X101760792Y-107691311D01*
X101816683Y-107725795D01*
X101916287Y-107743954D01*
X102068703Y-107750380D01*
X102131525Y-107750708D01*
X102278662Y-107751623D01*
X102372537Y-107755967D01*
X102425008Y-107766142D01*
X102447932Y-107784549D01*
X102453169Y-107813589D01*
X102453179Y-107815836D01*
X102449565Y-107842514D01*
X102431777Y-107860707D01*
X102389394Y-107872033D01*
X102311998Y-107878107D01*
X102189169Y-107880544D01*
X102033214Y-107880965D01*
X101613248Y-107880965D01*
X101611057Y-107697522D01*
X101617761Y-107556884D01*
G36*
X101627347Y-106446561D02*
X101646835Y-106395275D01*
X101670393Y-106328918D01*
X101658524Y-106298602D01*
X101646835Y-106293337D01*
X101613301Y-106253863D01*
X101606513Y-106216509D01*
X101610227Y-106190493D01*
X101628352Y-106173141D01*
X101671360Y-106163083D01*
X101749723Y-106158948D01*
X101873913Y-106159367D01*
X102021305Y-106162235D01*
X102194127Y-106166974D01*
X102312330Y-106173331D01*
X102386421Y-106182938D01*
X102426911Y-106197425D01*
X102444307Y-106218425D01*
X102447027Y-106228336D01*
X102434529Y-106276808D01*
X102406721Y-106285324D01*
X102362672Y-106298375D01*
X102368738Y-106341868D01*
X102405369Y-106397381D01*
X102437275Y-106478335D01*
X102449913Y-106593398D01*
X102442142Y-106714123D01*
X102421264Y-106793710D01*
X102343357Y-106907859D01*
X102227348Y-106983196D01*
X102088532Y-107018194D01*
X102063099Y-107017001D01*
X102063099Y-106886619D01*
X102187267Y-106846960D01*
X102239677Y-106808074D01*
X102305417Y-106707584D01*
X102326770Y-106586692D01*
X102303173Y-106468965D01*
X102249654Y-106391106D01*
X102126067Y-106315114D01*
X101992103Y-106299167D01*
X101861963Y-106343024D01*
X101790668Y-106398897D01*
X101744147Y-106486443D01*
X101734725Y-106600763D01*
X101760577Y-106716412D01*
X101819878Y-106807945D01*
X101820015Y-106808074D01*
X101933357Y-106873657D01*
X102063099Y-106886619D01*
X102063099Y-107017001D01*
X101942207Y-107011326D01*
X101803670Y-106961065D01*
X101688988Y-106866805D01*
X101626083Y-106746290D01*
X101604815Y-106598149D01*
X101627347Y-106446561D01*
X101627347Y-106446561D01*
G37*
X101627347Y-106446561D02*
X101646835Y-106395275D01*
X101670393Y-106328918D01*
X101658524Y-106298602D01*
X101646835Y-106293337D01*
X101613301Y-106253863D01*
X101606513Y-106216509D01*
X101610227Y-106190493D01*
X101628352Y-106173141D01*
X101671360Y-106163083D01*
X101749723Y-106158948D01*
X101873913Y-106159367D01*
X102021305Y-106162235D01*
X102194127Y-106166974D01*
X102312330Y-106173331D01*
X102386421Y-106182938D01*
X102426911Y-106197425D01*
X102444307Y-106218425D01*
X102447027Y-106228336D01*
X102434529Y-106276808D01*
X102406721Y-106285324D01*
X102362672Y-106298375D01*
X102368738Y-106341868D01*
X102405369Y-106397381D01*
X102437275Y-106478335D01*
X102449913Y-106593398D01*
X102442142Y-106714123D01*
X102421264Y-106793710D01*
X102343357Y-106907859D01*
X102227348Y-106983196D01*
X102088532Y-107018194D01*
X102063099Y-107017001D01*
X102063099Y-106886619D01*
X102187267Y-106846960D01*
X102239677Y-106808074D01*
X102305417Y-106707584D01*
X102326770Y-106586692D01*
X102303173Y-106468965D01*
X102249654Y-106391106D01*
X102126067Y-106315114D01*
X101992103Y-106299167D01*
X101861963Y-106343024D01*
X101790668Y-106398897D01*
X101744147Y-106486443D01*
X101734725Y-106600763D01*
X101760577Y-106716412D01*
X101819878Y-106807945D01*
X101820015Y-106808074D01*
X101933357Y-106873657D01*
X102063099Y-106886619D01*
X102063099Y-107017001D01*
X101942207Y-107011326D01*
X101803670Y-106961065D01*
X101688988Y-106866805D01*
X101626083Y-106746290D01*
X101604815Y-106598149D01*
X101627347Y-106446561D01*
G36*
X95119421Y-110651277D02*
X95134397Y-110649311D01*
X95179780Y-110635681D01*
X95268035Y-110598762D01*
X95384124Y-110545064D01*
X95454036Y-110510914D01*
X95732969Y-110372118D01*
X95772033Y-110066332D01*
X95811861Y-109829788D01*
X95865405Y-109649010D01*
X95936187Y-109515440D01*
X96027728Y-109420519D01*
X96042087Y-109410046D01*
X96124315Y-109348824D01*
X96171535Y-109294987D01*
X96193495Y-109227343D01*
X96199944Y-109124699D01*
X96200373Y-109065958D01*
X96204328Y-108926387D01*
X96213911Y-108785672D01*
X96221580Y-108715894D01*
X96239982Y-108620941D01*
X96266765Y-108575722D01*
X96307397Y-108564811D01*
X96373414Y-108542039D01*
X96444701Y-108486827D01*
X96448505Y-108482807D01*
X96539906Y-108417685D01*
X96631341Y-108405431D01*
X96786028Y-108425092D01*
X96898880Y-108466466D01*
X96960117Y-108525541D01*
X96966289Y-108542918D01*
X97015296Y-108763563D01*
X97061636Y-108989601D01*
X97103090Y-109208501D01*
X97137439Y-109407731D01*
X97162466Y-109574759D01*
X97175951Y-109697056D01*
X97177673Y-109736902D01*
X97158522Y-109911233D01*
X97112545Y-110022841D01*
X97065008Y-110112319D01*
X97050748Y-110164655D01*
X97068658Y-110173287D01*
X97117633Y-110131656D01*
X97128806Y-110119292D01*
X97190655Y-110040667D01*
X97232886Y-109960998D01*
X97256120Y-109869623D01*
X97260974Y-109755879D01*
X97248067Y-109609102D01*
X97218017Y-109418630D01*
X97180887Y-109221683D01*
X97144526Y-109037437D01*
X97111433Y-108872020D01*
X97084067Y-108737543D01*
X97064886Y-108646118D01*
X97057499Y-108613657D01*
X97049442Y-108569351D01*
X97069954Y-108577478D01*
X97095332Y-108600980D01*
X97136392Y-108664768D01*
X97173099Y-108761176D01*
X97182218Y-108796365D01*
X97231863Y-108952966D01*
X97310545Y-109131762D01*
X97404824Y-109305579D01*
X97501260Y-109447243D01*
X97508616Y-109456312D01*
X97662371Y-109596312D01*
X97843057Y-109680407D01*
X98015913Y-109704554D01*
X98105771Y-109699851D01*
X98243147Y-109686953D01*
X98411205Y-109667682D01*
X98593111Y-109643858D01*
X98644069Y-109636642D01*
X98997288Y-109595817D01*
X99302171Y-109584025D01*
X99569335Y-109602620D01*
X99809397Y-109652955D01*
X100032976Y-109736384D01*
X100224270Y-109838100D01*
X100426635Y-109987196D01*
X100629476Y-110186109D01*
X100821270Y-110420642D01*
X100990492Y-110676599D01*
X101125620Y-110939785D01*
X101133572Y-110958272D01*
X101187372Y-111087698D01*
X101212909Y-111161056D01*
X101208321Y-111181818D01*
X101171746Y-111153454D01*
X101101323Y-111079433D01*
X101080663Y-111056886D01*
X100968272Y-110942271D01*
X100857062Y-110850561D01*
X100737647Y-110778828D01*
X100600638Y-110724144D01*
X100566649Y-110715737D01*
X100566649Y-110446771D01*
X100555693Y-110401509D01*
X100509565Y-110307552D01*
X100506109Y-110301096D01*
X100440123Y-110211049D01*
X100337336Y-110125159D01*
X100188726Y-110037140D01*
X99994589Y-109944814D01*
X99873901Y-109895308D01*
X99769127Y-109864358D01*
X99656055Y-109847209D01*
X99510472Y-109839107D01*
X99448329Y-109837549D01*
X99304115Y-109836712D01*
X99179214Y-109839912D01*
X99091568Y-109846502D01*
X99065701Y-109851350D01*
X99007597Y-109877244D01*
X99011288Y-109898729D01*
X99077569Y-109916005D01*
X99207234Y-109929270D01*
X99401080Y-109938725D01*
X99416577Y-109939234D01*
X99598516Y-109946558D01*
X99731853Y-109956807D01*
X99833113Y-109972696D01*
X99918822Y-109996943D01*
X100005505Y-110032266D01*
X100018580Y-110038213D01*
X100143649Y-110109406D01*
X100277616Y-110206697D01*
X100370195Y-110288725D01*
X100475729Y-110390545D01*
X100540604Y-110443172D01*
X100566649Y-110446771D01*
X100566649Y-110715737D01*
X100436650Y-110683578D01*
X100236294Y-110654205D01*
X99990185Y-110633094D01*
X99688934Y-110617317D01*
X99668948Y-110616478D01*
X99355685Y-110600110D01*
X99097956Y-110577850D01*
X98886248Y-110547076D01*
X98711051Y-110505170D01*
X98562852Y-110449512D01*
X98432138Y-110377482D01*
X98309399Y-110286460D01*
X98235748Y-110221753D01*
X98158330Y-110157695D01*
X98099939Y-110122830D01*
X98076573Y-110122603D01*
X98087259Y-110162248D01*
X98140868Y-110226293D01*
X98225324Y-110304264D01*
X98328548Y-110385684D01*
X98438462Y-110460077D01*
X98516487Y-110504181D01*
X98734655Y-110587437D01*
X99008837Y-110644157D01*
X99340457Y-110674579D01*
X99577041Y-110680341D01*
X99920758Y-110689480D01*
X100209005Y-110715958D01*
X100449561Y-110761585D01*
X100650203Y-110828172D01*
X100818713Y-110917527D01*
X100919373Y-110992605D01*
X100992368Y-111062823D01*
X101071549Y-111151678D01*
X101143867Y-111242767D01*
X101196274Y-111319683D01*
X101215743Y-111365230D01*
X101189684Y-111364804D01*
X101122508Y-111339804D01*
X101058338Y-111310030D01*
X100869289Y-111242408D01*
X100633348Y-111199027D01*
X100364105Y-111179968D01*
X100075151Y-111185314D01*
X99780075Y-111215149D01*
X99492468Y-111269556D01*
X99377042Y-111299790D01*
X99088224Y-111399981D01*
X98830911Y-111523981D01*
X98610998Y-111666829D01*
X98434377Y-111823564D01*
X98306940Y-111989225D01*
X98234582Y-112158851D01*
X98219846Y-112274012D01*
X98219846Y-112380600D01*
X98114013Y-112291360D01*
X98018825Y-112220459D01*
X97915842Y-112166762D01*
X97789258Y-112124519D01*
X97623266Y-112087981D01*
X97493420Y-112065638D01*
X97395208Y-112048416D01*
X97395208Y-111427019D01*
X97637392Y-111394268D01*
X97896764Y-111298800D01*
X98173242Y-111140620D01*
X98260551Y-111080190D01*
X98343646Y-111016626D01*
X98399793Y-110966334D01*
X98415230Y-110944672D01*
X98385134Y-110934102D01*
X98304666Y-110926501D01*
X98188555Y-110922988D01*
X98130295Y-110923022D01*
X97972213Y-110920846D01*
X97858651Y-110908698D01*
X97769362Y-110883443D01*
X97715102Y-110858693D01*
X97589179Y-110762219D01*
X97498292Y-110629648D01*
X97452905Y-110480245D01*
X97453611Y-110377257D01*
X97460680Y-110294788D01*
X97446560Y-110264534D01*
X97431031Y-110265814D01*
X97395401Y-110308558D01*
X97380135Y-110393628D01*
X97385006Y-110501560D01*
X97409788Y-110612893D01*
X97435804Y-110676570D01*
X97523752Y-110808712D01*
X97638624Y-110902502D01*
X97791762Y-110964235D01*
X97994509Y-111000207D01*
X98024461Y-111003258D01*
X98236128Y-111023400D01*
X98073307Y-111123655D01*
X97826334Y-111253482D01*
X97595646Y-111326897D01*
X97389461Y-111347393D01*
X97228917Y-111333705D01*
X97090217Y-111288903D01*
X97071066Y-111276940D01*
X97071066Y-110355836D01*
X97131628Y-110330169D01*
X97194731Y-110269958D01*
X97236952Y-110200388D01*
X97242923Y-110171057D01*
X97236041Y-110140066D01*
X97206842Y-110152517D01*
X97167555Y-110187339D01*
X97096321Y-110237776D01*
X97033674Y-110258144D01*
X96996132Y-110248006D01*
X96987579Y-110205954D01*
X96996544Y-110144170D01*
X97003037Y-110059377D01*
X96980746Y-110031846D01*
X96930656Y-110062592D01*
X96923795Y-110069272D01*
X96889278Y-110142861D01*
X96901947Y-110227348D01*
X96951589Y-110302859D01*
X97027990Y-110349521D01*
X97071066Y-110355836D01*
X97071066Y-111276940D01*
X96954997Y-111204431D01*
X96811448Y-111078110D01*
X96721617Y-111000907D01*
X96668800Y-110973785D01*
X96655992Y-110991286D01*
X96686190Y-111047954D01*
X96762387Y-111138331D01*
X96772576Y-111148935D01*
X96962720Y-111304356D01*
X97170291Y-111397049D01*
X97395208Y-111427019D01*
X97395208Y-112048416D01*
X97290526Y-112030059D01*
X97138271Y-111995282D01*
X97022382Y-111956779D01*
X96928587Y-111910023D01*
X96862297Y-111865440D01*
X96790498Y-111824148D01*
X96744444Y-111817436D01*
X96735784Y-111841212D01*
X96776164Y-111891381D01*
X96779652Y-111894485D01*
X96915992Y-111983750D01*
X97104751Y-112056252D01*
X97350902Y-112113758D01*
X97438307Y-112128607D01*
X97597851Y-112158108D01*
X97749018Y-112193632D01*
X97870210Y-112229753D01*
X97919820Y-112249583D01*
X98009704Y-112308122D01*
X98099553Y-112390702D01*
X98173457Y-112479699D01*
X98215507Y-112557487D01*
X98219846Y-112581950D01*
X98191194Y-112599883D01*
X98112087Y-112597164D01*
X97992797Y-112576672D01*
X97843599Y-112541286D01*
X97674764Y-112493885D01*
X97496568Y-112437348D01*
X97319281Y-112374556D01*
X97153179Y-112308386D01*
X97011845Y-112243388D01*
X96762966Y-112104131D01*
X96529394Y-111946662D01*
X96321383Y-111779614D01*
X96149184Y-111611624D01*
X96023050Y-111451328D01*
X95978741Y-111373197D01*
X95948011Y-111297589D01*
X95951693Y-111244790D01*
X95992560Y-111180685D01*
X95994603Y-111177945D01*
X96058890Y-111113405D01*
X96157032Y-111037817D01*
X96242728Y-110982701D01*
X96352770Y-110910302D01*
X96445581Y-110834632D01*
X96511618Y-110765554D01*
X96541337Y-110712932D01*
X96528329Y-110687510D01*
X96485774Y-110701722D01*
X96423057Y-110751627D01*
X96403063Y-110771883D01*
X96314277Y-110849384D01*
X96205780Y-110921967D01*
X96178784Y-110936645D01*
X96069906Y-111008218D01*
X95967334Y-111100336D01*
X95946664Y-111123739D01*
X95848977Y-111242250D01*
X95728583Y-111178081D01*
X95728583Y-110844298D01*
X95833629Y-110837103D01*
X95952918Y-110818334D01*
X96069175Y-110792213D01*
X96165123Y-110762964D01*
X96223486Y-110734809D01*
X96233314Y-110720921D01*
X96205799Y-110696490D01*
X96135494Y-110659195D01*
X96078750Y-110634227D01*
X96024438Y-110607141D01*
X96024438Y-110416727D01*
X96089111Y-110408331D01*
X96090218Y-110407914D01*
X96122687Y-110379774D01*
X96130499Y-110318892D01*
X96123630Y-110249723D01*
X96094137Y-110011473D01*
X96079434Y-109835191D01*
X96079461Y-109719434D01*
X96094159Y-109662758D01*
X96099121Y-109658216D01*
X96122934Y-109667936D01*
X96134376Y-109736802D01*
X96135743Y-109793812D01*
X96146094Y-109910100D01*
X96172392Y-109989750D01*
X96207503Y-110026325D01*
X96244297Y-110013390D01*
X96275638Y-109944509D01*
X96280432Y-109924362D01*
X96303005Y-109818529D01*
X96353602Y-109891798D01*
X96400376Y-109945946D01*
X96432792Y-109965067D01*
X96454345Y-109961612D01*
X96457196Y-109940956D01*
X96438890Y-109887666D01*
X96408908Y-109814862D01*
X96370199Y-109639634D01*
X96373617Y-109542231D01*
X96380614Y-109416784D01*
X96372877Y-109309994D01*
X96352691Y-109237962D01*
X96327332Y-109216093D01*
X96305438Y-109243901D01*
X96298564Y-109294847D01*
X96271037Y-109372297D01*
X96188421Y-109441674D01*
X96079509Y-109542951D01*
X96016830Y-109684810D01*
X95999926Y-109869371D01*
X96028340Y-110098750D01*
X96037372Y-110141139D01*
X96056756Y-110260935D01*
X96047112Y-110327391D01*
X96006533Y-110346379D01*
X95972923Y-110339554D01*
X95914229Y-110338513D01*
X95892921Y-110353557D01*
X95902896Y-110382880D01*
X95954551Y-110406090D01*
X96024438Y-110416727D01*
X96024438Y-110607141D01*
X95969777Y-110579880D01*
X95873858Y-110516382D01*
X95844252Y-110490639D01*
X95764195Y-110410582D01*
X95648751Y-110481558D01*
X95543487Y-110543027D01*
X95424630Y-110608022D01*
X95394910Y-110623494D01*
X95313876Y-110669430D01*
X95264057Y-110706123D01*
X95256513Y-110717469D01*
X95285883Y-110745688D01*
X95362200Y-110777139D01*
X95467774Y-110807069D01*
X95584915Y-110830727D01*
X95695933Y-110843359D01*
X95728583Y-110844298D01*
X95728583Y-111178081D01*
X95653945Y-111138299D01*
X95551096Y-111076299D01*
X95435606Y-110995587D01*
X95319963Y-110906402D01*
X95216653Y-110818985D01*
X95138163Y-110743576D01*
X95096981Y-110690413D01*
X95093692Y-110678873D01*
X95119421Y-110651277D01*
X95119421Y-110651277D01*
G37*
X95119421Y-110651277D02*
X95134397Y-110649311D01*
X95179780Y-110635681D01*
X95268035Y-110598762D01*
X95384124Y-110545064D01*
X95454036Y-110510914D01*
X95732969Y-110372118D01*
X95772033Y-110066332D01*
X95811861Y-109829788D01*
X95865405Y-109649010D01*
X95936187Y-109515440D01*
X96027728Y-109420519D01*
X96042087Y-109410046D01*
X96124315Y-109348824D01*
X96171535Y-109294987D01*
X96193495Y-109227343D01*
X96199944Y-109124699D01*
X96200373Y-109065958D01*
X96204328Y-108926387D01*
X96213911Y-108785672D01*
X96221580Y-108715894D01*
X96239982Y-108620941D01*
X96266765Y-108575722D01*
X96307397Y-108564811D01*
X96373414Y-108542039D01*
X96444701Y-108486827D01*
X96448505Y-108482807D01*
X96539906Y-108417685D01*
X96631341Y-108405431D01*
X96786028Y-108425092D01*
X96898880Y-108466466D01*
X96960117Y-108525541D01*
X96966289Y-108542918D01*
X97015296Y-108763563D01*
X97061636Y-108989601D01*
X97103090Y-109208501D01*
X97137439Y-109407731D01*
X97162466Y-109574759D01*
X97175951Y-109697056D01*
X97177673Y-109736902D01*
X97158522Y-109911233D01*
X97112545Y-110022841D01*
X97065008Y-110112319D01*
X97050748Y-110164655D01*
X97068658Y-110173287D01*
X97117633Y-110131656D01*
X97128806Y-110119292D01*
X97190655Y-110040667D01*
X97232886Y-109960998D01*
X97256120Y-109869623D01*
X97260974Y-109755879D01*
X97248067Y-109609102D01*
X97218017Y-109418630D01*
X97180887Y-109221683D01*
X97144526Y-109037437D01*
X97111433Y-108872020D01*
X97084067Y-108737543D01*
X97064886Y-108646118D01*
X97057499Y-108613657D01*
X97049442Y-108569351D01*
X97069954Y-108577478D01*
X97095332Y-108600980D01*
X97136392Y-108664768D01*
X97173099Y-108761176D01*
X97182218Y-108796365D01*
X97231863Y-108952966D01*
X97310545Y-109131762D01*
X97404824Y-109305579D01*
X97501260Y-109447243D01*
X97508616Y-109456312D01*
X97662371Y-109596312D01*
X97843057Y-109680407D01*
X98015913Y-109704554D01*
X98105771Y-109699851D01*
X98243147Y-109686953D01*
X98411205Y-109667682D01*
X98593111Y-109643858D01*
X98644069Y-109636642D01*
X98997288Y-109595817D01*
X99302171Y-109584025D01*
X99569335Y-109602620D01*
X99809397Y-109652955D01*
X100032976Y-109736384D01*
X100224270Y-109838100D01*
X100426635Y-109987196D01*
X100629476Y-110186109D01*
X100821270Y-110420642D01*
X100990492Y-110676599D01*
X101125620Y-110939785D01*
X101133572Y-110958272D01*
X101187372Y-111087698D01*
X101212909Y-111161056D01*
X101208321Y-111181818D01*
X101171746Y-111153454D01*
X101101323Y-111079433D01*
X101080663Y-111056886D01*
X100968272Y-110942271D01*
X100857062Y-110850561D01*
X100737647Y-110778828D01*
X100600638Y-110724144D01*
X100566649Y-110715737D01*
X100566649Y-110446771D01*
X100555693Y-110401509D01*
X100509565Y-110307552D01*
X100506109Y-110301096D01*
X100440123Y-110211049D01*
X100337336Y-110125159D01*
X100188726Y-110037140D01*
X99994589Y-109944814D01*
X99873901Y-109895308D01*
X99769127Y-109864358D01*
X99656055Y-109847209D01*
X99510472Y-109839107D01*
X99448329Y-109837549D01*
X99304115Y-109836712D01*
X99179214Y-109839912D01*
X99091568Y-109846502D01*
X99065701Y-109851350D01*
X99007597Y-109877244D01*
X99011288Y-109898729D01*
X99077569Y-109916005D01*
X99207234Y-109929270D01*
X99401080Y-109938725D01*
X99416577Y-109939234D01*
X99598516Y-109946558D01*
X99731853Y-109956807D01*
X99833113Y-109972696D01*
X99918822Y-109996943D01*
X100005505Y-110032266D01*
X100018580Y-110038213D01*
X100143649Y-110109406D01*
X100277616Y-110206697D01*
X100370195Y-110288725D01*
X100475729Y-110390545D01*
X100540604Y-110443172D01*
X100566649Y-110446771D01*
X100566649Y-110715737D01*
X100436650Y-110683578D01*
X100236294Y-110654205D01*
X99990185Y-110633094D01*
X99688934Y-110617317D01*
X99668948Y-110616478D01*
X99355685Y-110600110D01*
X99097956Y-110577850D01*
X98886248Y-110547076D01*
X98711051Y-110505170D01*
X98562852Y-110449512D01*
X98432138Y-110377482D01*
X98309399Y-110286460D01*
X98235748Y-110221753D01*
X98158330Y-110157695D01*
X98099939Y-110122830D01*
X98076573Y-110122603D01*
X98087259Y-110162248D01*
X98140868Y-110226293D01*
X98225324Y-110304264D01*
X98328548Y-110385684D01*
X98438462Y-110460077D01*
X98516487Y-110504181D01*
X98734655Y-110587437D01*
X99008837Y-110644157D01*
X99340457Y-110674579D01*
X99577041Y-110680341D01*
X99920758Y-110689480D01*
X100209005Y-110715958D01*
X100449561Y-110761585D01*
X100650203Y-110828172D01*
X100818713Y-110917527D01*
X100919373Y-110992605D01*
X100992368Y-111062823D01*
X101071549Y-111151678D01*
X101143867Y-111242767D01*
X101196274Y-111319683D01*
X101215743Y-111365230D01*
X101189684Y-111364804D01*
X101122508Y-111339804D01*
X101058338Y-111310030D01*
X100869289Y-111242408D01*
X100633348Y-111199027D01*
X100364105Y-111179968D01*
X100075151Y-111185314D01*
X99780075Y-111215149D01*
X99492468Y-111269556D01*
X99377042Y-111299790D01*
X99088224Y-111399981D01*
X98830911Y-111523981D01*
X98610998Y-111666829D01*
X98434377Y-111823564D01*
X98306940Y-111989225D01*
X98234582Y-112158851D01*
X98219846Y-112274012D01*
X98219846Y-112380600D01*
X98114013Y-112291360D01*
X98018825Y-112220459D01*
X97915842Y-112166762D01*
X97789258Y-112124519D01*
X97623266Y-112087981D01*
X97493420Y-112065638D01*
X97395208Y-112048416D01*
X97395208Y-111427019D01*
X97637392Y-111394268D01*
X97896764Y-111298800D01*
X98173242Y-111140620D01*
X98260551Y-111080190D01*
X98343646Y-111016626D01*
X98399793Y-110966334D01*
X98415230Y-110944672D01*
X98385134Y-110934102D01*
X98304666Y-110926501D01*
X98188555Y-110922988D01*
X98130295Y-110923022D01*
X97972213Y-110920846D01*
X97858651Y-110908698D01*
X97769362Y-110883443D01*
X97715102Y-110858693D01*
X97589179Y-110762219D01*
X97498292Y-110629648D01*
X97452905Y-110480245D01*
X97453611Y-110377257D01*
X97460680Y-110294788D01*
X97446560Y-110264534D01*
X97431031Y-110265814D01*
X97395401Y-110308558D01*
X97380135Y-110393628D01*
X97385006Y-110501560D01*
X97409788Y-110612893D01*
X97435804Y-110676570D01*
X97523752Y-110808712D01*
X97638624Y-110902502D01*
X97791762Y-110964235D01*
X97994509Y-111000207D01*
X98024461Y-111003258D01*
X98236128Y-111023400D01*
X98073307Y-111123655D01*
X97826334Y-111253482D01*
X97595646Y-111326897D01*
X97389461Y-111347393D01*
X97228917Y-111333705D01*
X97090217Y-111288903D01*
X97071066Y-111276940D01*
X97071066Y-110355836D01*
X97131628Y-110330169D01*
X97194731Y-110269958D01*
X97236952Y-110200388D01*
X97242923Y-110171057D01*
X97236041Y-110140066D01*
X97206842Y-110152517D01*
X97167555Y-110187339D01*
X97096321Y-110237776D01*
X97033674Y-110258144D01*
X96996132Y-110248006D01*
X96987579Y-110205954D01*
X96996544Y-110144170D01*
X97003037Y-110059377D01*
X96980746Y-110031846D01*
X96930656Y-110062592D01*
X96923795Y-110069272D01*
X96889278Y-110142861D01*
X96901947Y-110227348D01*
X96951589Y-110302859D01*
X97027990Y-110349521D01*
X97071066Y-110355836D01*
X97071066Y-111276940D01*
X96954997Y-111204431D01*
X96811448Y-111078110D01*
X96721617Y-111000907D01*
X96668800Y-110973785D01*
X96655992Y-110991286D01*
X96686190Y-111047954D01*
X96762387Y-111138331D01*
X96772576Y-111148935D01*
X96962720Y-111304356D01*
X97170291Y-111397049D01*
X97395208Y-111427019D01*
X97395208Y-112048416D01*
X97290526Y-112030059D01*
X97138271Y-111995282D01*
X97022382Y-111956779D01*
X96928587Y-111910023D01*
X96862297Y-111865440D01*
X96790498Y-111824148D01*
X96744444Y-111817436D01*
X96735784Y-111841212D01*
X96776164Y-111891381D01*
X96779652Y-111894485D01*
X96915992Y-111983750D01*
X97104751Y-112056252D01*
X97350902Y-112113758D01*
X97438307Y-112128607D01*
X97597851Y-112158108D01*
X97749018Y-112193632D01*
X97870210Y-112229753D01*
X97919820Y-112249583D01*
X98009704Y-112308122D01*
X98099553Y-112390702D01*
X98173457Y-112479699D01*
X98215507Y-112557487D01*
X98219846Y-112581950D01*
X98191194Y-112599883D01*
X98112087Y-112597164D01*
X97992797Y-112576672D01*
X97843599Y-112541286D01*
X97674764Y-112493885D01*
X97496568Y-112437348D01*
X97319281Y-112374556D01*
X97153179Y-112308386D01*
X97011845Y-112243388D01*
X96762966Y-112104131D01*
X96529394Y-111946662D01*
X96321383Y-111779614D01*
X96149184Y-111611624D01*
X96023050Y-111451328D01*
X95978741Y-111373197D01*
X95948011Y-111297589D01*
X95951693Y-111244790D01*
X95992560Y-111180685D01*
X95994603Y-111177945D01*
X96058890Y-111113405D01*
X96157032Y-111037817D01*
X96242728Y-110982701D01*
X96352770Y-110910302D01*
X96445581Y-110834632D01*
X96511618Y-110765554D01*
X96541337Y-110712932D01*
X96528329Y-110687510D01*
X96485774Y-110701722D01*
X96423057Y-110751627D01*
X96403063Y-110771883D01*
X96314277Y-110849384D01*
X96205780Y-110921967D01*
X96178784Y-110936645D01*
X96069906Y-111008218D01*
X95967334Y-111100336D01*
X95946664Y-111123739D01*
X95848977Y-111242250D01*
X95728583Y-111178081D01*
X95728583Y-110844298D01*
X95833629Y-110837103D01*
X95952918Y-110818334D01*
X96069175Y-110792213D01*
X96165123Y-110762964D01*
X96223486Y-110734809D01*
X96233314Y-110720921D01*
X96205799Y-110696490D01*
X96135494Y-110659195D01*
X96078750Y-110634227D01*
X96024438Y-110607141D01*
X96024438Y-110416727D01*
X96089111Y-110408331D01*
X96090218Y-110407914D01*
X96122687Y-110379774D01*
X96130499Y-110318892D01*
X96123630Y-110249723D01*
X96094137Y-110011473D01*
X96079434Y-109835191D01*
X96079461Y-109719434D01*
X96094159Y-109662758D01*
X96099121Y-109658216D01*
X96122934Y-109667936D01*
X96134376Y-109736802D01*
X96135743Y-109793812D01*
X96146094Y-109910100D01*
X96172392Y-109989750D01*
X96207503Y-110026325D01*
X96244297Y-110013390D01*
X96275638Y-109944509D01*
X96280432Y-109924362D01*
X96303005Y-109818529D01*
X96353602Y-109891798D01*
X96400376Y-109945946D01*
X96432792Y-109965067D01*
X96454345Y-109961612D01*
X96457196Y-109940956D01*
X96438890Y-109887666D01*
X96408908Y-109814862D01*
X96370199Y-109639634D01*
X96373617Y-109542231D01*
X96380614Y-109416784D01*
X96372877Y-109309994D01*
X96352691Y-109237962D01*
X96327332Y-109216093D01*
X96305438Y-109243901D01*
X96298564Y-109294847D01*
X96271037Y-109372297D01*
X96188421Y-109441674D01*
X96079509Y-109542951D01*
X96016830Y-109684810D01*
X95999926Y-109869371D01*
X96028340Y-110098750D01*
X96037372Y-110141139D01*
X96056756Y-110260935D01*
X96047112Y-110327391D01*
X96006533Y-110346379D01*
X95972923Y-110339554D01*
X95914229Y-110338513D01*
X95892921Y-110353557D01*
X95902896Y-110382880D01*
X95954551Y-110406090D01*
X96024438Y-110416727D01*
X96024438Y-110607141D01*
X95969777Y-110579880D01*
X95873858Y-110516382D01*
X95844252Y-110490639D01*
X95764195Y-110410582D01*
X95648751Y-110481558D01*
X95543487Y-110543027D01*
X95424630Y-110608022D01*
X95394910Y-110623494D01*
X95313876Y-110669430D01*
X95264057Y-110706123D01*
X95256513Y-110717469D01*
X95285883Y-110745688D01*
X95362200Y-110777139D01*
X95467774Y-110807069D01*
X95584915Y-110830727D01*
X95695933Y-110843359D01*
X95728583Y-110844298D01*
X95728583Y-111178081D01*
X95653945Y-111138299D01*
X95551096Y-111076299D01*
X95435606Y-110995587D01*
X95319963Y-110906402D01*
X95216653Y-110818985D01*
X95138163Y-110743576D01*
X95096981Y-110690413D01*
X95093692Y-110678873D01*
X95119421Y-110651277D01*
G36*
X96242689Y-108308391D02*
X96278847Y-108274130D01*
X96354504Y-108276638D01*
X96420679Y-108292258D01*
X96475933Y-108313725D01*
X96482547Y-108344240D01*
X96439305Y-108396625D01*
X96407951Y-108426413D01*
X96322859Y-108489160D01*
X96266100Y-108493338D01*
X96237384Y-108438879D01*
X96233436Y-108385708D01*
X96242689Y-108308391D01*
X96242689Y-108308391D01*
G37*
X96242689Y-108308391D02*
X96278847Y-108274130D01*
X96354504Y-108276638D01*
X96420679Y-108292258D01*
X96475933Y-108313725D01*
X96482547Y-108344240D01*
X96439305Y-108396625D01*
X96407951Y-108426413D01*
X96322859Y-108489160D01*
X96266100Y-108493338D01*
X96237384Y-108438879D01*
X96233436Y-108385708D01*
X96242689Y-108308391D01*
M02*
