  0
SECTION
  2
HEADER
  9
$ANGBASE
  50
0.0
  9
$ANGDIR
  70
  1
  9
$MEASUREMENT
  70
0
  0
ENDSEC
  0
SECTION
  2
TABLES
  0
TABLE
  2
LTYPE
  70
1
  0
LTYPE
  2
CONTINUOUS
  70
0
  3
Solid line
  72
65
  73
0
  40
0.0
  0
ENDTAB
  0
TABLE
  2
STYLE
  70
4
  0
STYLE
  2
KICAD
  70
0
  40
0
  41
1
  42
1
  50
0
  71
0
  3
isocp.shx
  0
STYLE
  2
KICADB
  70
0
  40
0
  41
1
  42
1
  50
0
  71
0
  3
isocp.shx
  0
STYLE
  2
KICADI
  70
0
  40
0
  41
1
  42
1
  50
15
  71
0
  3
isocp.shx
  0
STYLE
  2
KICADBI
  70
0
  40
0
  41
1
  42
1
  50
15
  71
0
  3
isocp.shx
  0
ENDTAB
  0
TABLE
  2
LAYER
  70
30
  0
LAYER
  2
BLACK
  70
0
  62
7
  6
CONTINUOUS
  0
LAYER
  2
GRAY1
  70
0
  62
251
  6
CONTINUOUS
  0
LAYER
  2
GRAY2
  70
0
  62
8
  6
CONTINUOUS
  0
LAYER
  2
GRAY3
  70
0
  62
9
  6
CONTINUOUS
  0
LAYER
  2
WHITE
  70
0
  62
7
  6
CONTINUOUS
  0
LAYER
  2
LYELLOW
  70
0
  62
51
  6
CONTINUOUS
  0
LAYER
  2
BLUE1
  70
0
  62
178
  6
CONTINUOUS
  0
LAYER
  2
GREEN1
  70
0
  62
98
  6
CONTINUOUS
  0
LAYER
  2
CYAN1
  70
0
  62
138
  6
CONTINUOUS
  0
LAYER
  2
RED1
  70
0
  62
18
  6
CONTINUOUS
  0
LAYER
  2
MAGENTA1
  70
0
  62
228
  6
CONTINUOUS
  0
LAYER
  2
BROWN1
  70
0
  62
58
  6
CONTINUOUS
  0
LAYER
  2
BLUE2
  70
0
  62
5
  6
CONTINUOUS
  0
LAYER
  2
GREEN2
  70
0
  62
3
  6
CONTINUOUS
  0
LAYER
  2
CYAN2
  70
0
  62
4
  6
CONTINUOUS
  0
LAYER
  2
RED2
  70
0
  62
1
  6
CONTINUOUS
  0
LAYER
  2
MAGENTA2
  70
0
  62
6
  6
CONTINUOUS
  0
LAYER
  2
BROWN2
  70
0
  62
54
  6
CONTINUOUS
  0
LAYER
  2
BLUE3
  70
0
  62
171
  6
CONTINUOUS
  0
LAYER
  2
GREEN3
  70
0
  62
91
  6
CONTINUOUS
  0
LAYER
  2
CYAN3
  70
0
  62
131
  6
CONTINUOUS
  0
LAYER
  2
RED3
  70
0
  62
11
  6
CONTINUOUS
  0
LAYER
  2
MAGENTA3
  70
0
  62
221
  6
CONTINUOUS
  0
LAYER
  2
YELLOW3
  70
0
  62
2
  6
CONTINUOUS
  0
LAYER
  2
BLUE4
  70
0
  62
5
  6
CONTINUOUS
  0
LAYER
  2
GREEN4
  70
0
  62
3
  6
CONTINUOUS
  0
LAYER
  2
CYAN4
  70
0
  62
4
  6
CONTINUOUS
  0
LAYER
  2
RED4
  70
0
  62
1
  6
CONTINUOUS
  0
LAYER
  2
MAGENTA4
  70
0
  62
6
  6
CONTINUOUS
  0
LAYER
  2
YELLOW4
  70
0
  62
2
  6
CONTINUOUS
  0
ENDTAB
  0
ENDSEC
  0
SECTION
  2
ENTITIES
0
LINE
8
Black
10
149.036
20
-67.0893
11
149.041
21
-67.0893
0
LINE
8
Black
10
149.041
20
-67.0893
11
149.046
21
-67.0911
0
LINE
8
Black
10
149.046
20
-67.0911
11
149.052
21
-67.092
0
LINE
8
Black
10
149.052
20
-67.092
11
149.056
21
-67.0946
0
LINE
8
Black
10
149.056
20
-67.0946
11
149.061
21
-67.0964
0
LINE
8
Black
10
149.061
20
-67.0964
11
149.065
21
-67.0998
0
LINE
8
Black
10
149.065
20
-67.0998
11
149.07
21
-67.1024
0
LINE
8
Black
10
149.07
20
-67.1024
11
149.073
21
-67.1065
0
LINE
8
Black
10
149.073
20
-67.1065
11
149.077
21
-67.1098
0
LINE
8
Black
10
149.077
20
-67.1098
11
149.08
21
-67.1144
0
LINE
8
Black
10
149.08
20
-67.1144
11
149.083
21
-67.1184
0
LINE
8
Black
10
149.083
20
-67.1184
11
149.085
21
-67.1233
0
LINE
8
Black
10
149.085
20
-67.1233
11
149.087
21
-67.1279
0
LINE
8
Black
10
149.087
20
-67.1279
11
149.088
21
-67.1331
0
LINE
8
Black
10
149.088
20
-67.1331
11
149.09
21
-67.138
0
LINE
8
Black
10
149.09
20
-67.138
11
149.09
21
-67.1432
0
LINE
8
Black
10
149.09
20
-67.1432
11
149.091
21
-67.1484
0
LINE
8
Black
10
149.091
20
-67.1484
11
149.091
21
-72.3484
0
LINE
8
Black
10
149.091
20
-72.3484
11
149.09
21
-72.3536
0
LINE
8
Black
10
149.09
20
-72.3536
11
149.09
21
-72.3588
0
LINE
8
Black
10
149.09
20
-72.3588
11
149.088
21
-72.3637
0
LINE
8
Black
10
149.088
20
-72.3637
11
149.087
21
-72.3689
0
LINE
8
Black
10
149.087
20
-72.3689
11
149.085
21
-72.3735
0
LINE
8
Black
10
149.085
20
-72.3735
11
149.083
21
-72.3784
0
LINE
8
Black
10
149.083
20
-72.3784
11
149.08
21
-72.3824
0
LINE
8
Black
10
149.08
20
-72.3824
11
149.077
21
-72.387
0
LINE
8
Black
10
149.077
20
-72.387
11
149.073
21
-72.3903
0
LINE
8
Black
10
149.073
20
-72.3903
11
149.07
21
-72.3944
0
LINE
8
Black
10
149.07
20
-72.3944
11
149.065
21
-72.397
0
LINE
8
Black
10
149.065
20
-72.397
11
149.061
21
-72.4004
0
LINE
8
Black
10
149.061
20
-72.4004
11
149.056
21
-72.4022
0
LINE
8
Black
10
149.056
20
-72.4022
11
149.052
21
-72.4048
0
LINE
8
Black
10
149.052
20
-72.4048
11
149.046
21
-72.4057
0
LINE
8
Black
10
149.046
20
-72.4057
11
149.041
21
-72.4075
0
LINE
8
Black
10
149.041
20
-72.4075
11
149.036
21
-72.4075
0
LINE
8
Black
10
149.036
20
-72.4075
11
149.031
21
-72.4084
0
LINE
8
Black
10
149.031
20
-72.4084
11
98.111
21
-72.4084
0
LINE
8
Black
10
98.111
20
-72.4084
11
98.1058
21
-72.4075
0
LINE
8
Black
10
98.1058
20
-72.4075
11
98.1006
21
-72.4075
0
LINE
8
Black
10
98.1006
20
-72.4075
11
98.0957
21
-72.4057
0
LINE
8
Black
10
98.0957
20
-72.4057
11
98.0905
21
-72.4048
0
LINE
8
Black
10
98.0905
20
-72.4048
11
98.0859
21
-72.4022
0
LINE
8
Black
10
98.0859
20
-72.4022
11
98.081
21
-72.4004
0
LINE
8
Black
10
98.081
20
-72.4004
11
98.077
21
-72.397
0
LINE
8
Black
10
98.077
20
-72.397
11
98.0724
21
-72.3944
0
LINE
8
Black
10
98.0724
20
-72.3944
11
98.0691
21
-72.3903
0
LINE
8
Black
10
98.0691
20
-72.3903
11
98.065
21
-72.387
0
LINE
8
Black
10
98.065
20
-72.387
11
98.0624
21
-72.3824
0
LINE
8
Black
10
98.0624
20
-72.3824
11
98.059
21
-72.3784
0
LINE
8
Black
10
98.059
20
-72.3784
11
98.0572
21
-72.3735
0
LINE
8
Black
10
98.0572
20
-72.3735
11
98.0546
21
-72.3689
0
LINE
8
Black
10
98.0546
20
-72.3689
11
98.0537
21
-72.3637
0
LINE
8
Black
10
98.0537
20
-72.3637
11
98.0519
21
-72.3588
0
LINE
8
Black
10
98.0519
20
-72.3588
11
98.0519
21
-72.3536
0
LINE
8
Black
10
98.0519
20
-72.3536
11
98.051
21
-72.3484
0
LINE
8
Black
10
98.051
20
-72.3484
11
98.051
21
-69.7484
0
LINE
8
Black
10
98.051
20
-69.7484
11
98.0519
21
-69.7432
0
LINE
8
Black
10
98.0519
20
-69.7432
11
98.0519
21
-69.738
0
LINE
8
Black
10
98.0519
20
-69.738
11
98.0537
21
-69.7331
0
LINE
8
Black
10
98.0537
20
-69.7331
11
98.0546
21
-69.7279
0
LINE
8
Black
10
98.0546
20
-69.7279
11
98.0572
21
-69.7233
0
LINE
8
Black
10
98.0572
20
-69.7233
11
98.059
21
-69.7184
0
LINE
8
Black
10
98.059
20
-69.7184
11
98.0624
21
-69.7144
0
LINE
8
Black
10
98.0624
20
-69.7144
11
98.065
21
-69.7098
0
LINE
8
Black
10
98.065
20
-69.7098
11
98.0691
21
-69.7065
0
LINE
8
Black
10
98.0691
20
-69.7065
11
98.0724
21
-69.7024
0
LINE
8
Black
10
98.0724
20
-69.7024
11
98.077
21
-69.6998
0
LINE
8
Black
10
98.077
20
-69.6998
11
98.081
21
-69.6964
0
LINE
8
Black
10
98.081
20
-69.6964
11
98.0859
21
-69.6946
0
LINE
8
Black
10
98.0859
20
-69.6946
11
98.0905
21
-69.692
0
LINE
8
Black
10
98.0905
20
-69.692
11
98.0957
21
-69.6911
0
LINE
8
Black
10
98.0957
20
-69.6911
11
98.1006
21
-69.6893
0
LINE
8
Black
10
98.1006
20
-69.6893
11
98.1058
21
-69.6893
0
LINE
8
Black
10
98.1058
20
-69.6893
11
98.111
21
-69.6884
0
LINE
8
Black
10
98.111
20
-69.6884
11
100.651
21
-69.6884
0
LINE
8
Black
10
100.651
20
-69.6884
11
100.651
21
-67.1484
0
LINE
8
Black
10
100.651
20
-67.1484
11
100.652
21
-67.1432
0
LINE
8
Black
10
100.652
20
-67.1432
11
100.652
21
-67.138
0
LINE
8
Black
10
100.652
20
-67.138
11
100.654
21
-67.1331
0
LINE
8
Black
10
100.654
20
-67.1331
11
100.655
21
-67.1279
0
LINE
8
Black
10
100.655
20
-67.1279
11
100.657
21
-67.1233
0
LINE
8
Black
10
100.657
20
-67.1233
11
100.659
21
-67.1184
0
LINE
8
Black
10
100.659
20
-67.1184
11
100.662
21
-67.1144
0
LINE
8
Black
10
100.662
20
-67.1144
11
100.665
21
-67.1098
0
LINE
8
Black
10
100.665
20
-67.1098
11
100.669
21
-67.1065
0
LINE
8
Black
10
100.669
20
-67.1065
11
100.672
21
-67.1024
0
LINE
8
Black
10
100.672
20
-67.1024
11
100.677
21
-67.0998
0
LINE
8
Black
10
100.677
20
-67.0998
11
100.681
21
-67.0964
0
LINE
8
Black
10
100.681
20
-67.0964
11
100.686
21
-67.0946
0
LINE
8
Black
10
100.686
20
-67.0946
11
100.69
21
-67.092
0
LINE
8
Black
10
100.69
20
-67.092
11
100.696
21
-67.0911
0
LINE
8
Black
10
100.696
20
-67.0911
11
100.701
21
-67.0893
0
LINE
8
Black
10
100.701
20
-67.0893
11
100.706
21
-67.0893
0
LINE
8
Black
10
100.706
20
-67.0893
11
100.711
21
-67.0884
0
LINE
8
Black
10
100.711
20
-67.0884
11
149.031
21
-67.0884
0
LINE
8
Black
10
149.031
20
-67.0884
11
149.036
21
-67.0893
0
LINE
8
Black
10
100.771
20
-67.2084
11
100.771
21
-69.7484
0
LINE
8
Black
10
100.771
20
-69.7484
11
100.77
21
-69.7536
0
LINE
8
Black
10
100.77
20
-69.7536
11
100.77
21
-69.7588
0
LINE
8
Black
10
100.77
20
-69.7588
11
100.768
21
-69.7637
0
LINE
8
Black
10
100.768
20
-69.7637
11
100.767
21
-69.7689
0
LINE
8
Black
10
100.767
20
-69.7689
11
100.765
21
-69.7735
0
LINE
8
Black
10
100.765
20
-69.7735
11
100.763
21
-69.7784
0
LINE
8
Black
10
100.763
20
-69.7784
11
100.76
21
-69.7824
0
LINE
8
Black
10
100.76
20
-69.7824
11
100.757
21
-69.787
0
LINE
8
Black
10
100.757
20
-69.787
11
100.753
21
-69.7903
0
LINE
8
Black
10
100.753
20
-69.7903
11
100.75
21
-69.7944
0
LINE
8
Black
10
100.75
20
-69.7944
11
100.745
21
-69.797
0
LINE
8
Black
10
100.745
20
-69.797
11
100.741
21
-69.8004
0
LINE
8
Black
10
100.741
20
-69.8004
11
100.736
21
-69.8022
0
LINE
8
Black
10
100.736
20
-69.8022
11
100.732
21
-69.8048
0
LINE
8
Black
10
100.732
20
-69.8048
11
100.726
21
-69.8057
0
LINE
8
Black
10
100.726
20
-69.8057
11
100.721
21
-69.8075
0
LINE
8
Black
10
100.721
20
-69.8075
11
100.716
21
-69.8075
0
LINE
8
Black
10
100.716
20
-69.8075
11
100.711
21
-69.8084
0
LINE
8
Black
10
100.711
20
-69.8084
11
98.171
21
-69.8084
0
LINE
8
Black
10
98.171
20
-69.8084
11
98.171
21
-72.2884
0
LINE
8
Black
10
98.171
20
-72.2884
11
148.971
21
-72.2884
0
LINE
8
Black
10
148.971
20
-72.2884
11
148.971
21
-67.2084
0
LINE
8
Black
10
148.971
20
-67.2084
11
100.771
21
-67.2084
0
LINE
8
Black
10
96.8705
20
-69.8908
11
96.8938
21
-69.9024
0
LINE
8
Black
10
96.8938
20
-69.9024
11
96.9117
21
-69.9214
0
LINE
8
Black
10
96.9117
20
-69.9214
11
96.922
21
-69.9453
0
LINE
8
Black
10
96.922
20
-69.9453
11
96.9236
21
-69.9713
0
LINE
8
Black
10
96.9236
20
-69.9713
11
96.9162
21
-69.9962
0
LINE
8
Black
10
96.9162
20
-69.9962
11
96.8686
21
-70.0915
0
LINE
8
Black
10
96.8686
20
-70.0915
11
96.8614
21
-70.1011
0
LINE
8
Black
10
96.8614
20
-70.1011
11
96.8545
21
-70.111
0
LINE
8
Black
10
96.8545
20
-70.111
11
96.7921
21
-70.1734
0
LINE
8
Black
10
96.7921
20
-70.1734
11
97.4884
21
-70.1734
0
LINE
8
Black
10
97.4884
20
-70.1734
11
97.4884
21
-69.9627
0
LINE
8
Black
10
97.4884
20
-69.9627
11
97.4929
21
-69.937
0
LINE
8
Black
10
97.4929
20
-69.937
11
97.5059
21
-69.9145
0
LINE
8
Black
10
97.5059
20
-69.9145
11
97.5259
21
-69.8977
0
LINE
8
Black
10
97.5259
20
-69.8977
11
97.5504
21
-69.8888
0
LINE
8
Black
10
97.5504
20
-69.8888
11
97.5764
21
-69.8888
0
LINE
8
Black
10
97.5764
20
-69.8888
11
97.6009
21
-69.8977
0
LINE
8
Black
10
97.6009
20
-69.8977
11
97.6208
21
-69.9145
0
LINE
8
Black
10
97.6208
20
-69.9145
11
97.6339
21
-69.937
0
LINE
8
Black
10
97.6339
20
-69.937
11
97.6384
21
-69.9627
0
LINE
8
Black
10
97.6384
20
-69.9627
11
97.6384
21
-70.5341
0
LINE
8
Black
10
97.6384
20
-70.5341
11
97.6339
21
-70.5598
0
LINE
8
Black
10
97.6339
20
-70.5598
11
97.6208
21
-70.5823
0
LINE
8
Black
10
97.6208
20
-70.5823
11
97.6009
21
-70.5991
0
LINE
8
Black
10
97.6009
20
-70.5991
11
97.5764
21
-70.608
0
LINE
8
Black
10
97.5764
20
-70.608
11
97.5504
21
-70.608
0
LINE
8
Black
10
97.5504
20
-70.608
11
97.5259
21
-70.5991
0
LINE
8
Black
10
97.5259
20
-70.5991
11
97.5059
21
-70.5823
0
LINE
8
Black
10
97.5059
20
-70.5823
11
97.4929
21
-70.5598
0
LINE
8
Black
10
97.4929
20
-70.5598
11
97.4884
21
-70.5341
0
LINE
8
Black
10
97.4884
20
-70.5341
11
97.4884
21
-70.3234
0
LINE
8
Black
10
97.4884
20
-70.3234
11
96.5634
21
-70.3234
0
LINE
8
Black
10
96.5634
20
-70.3234
11
96.5593
21
-70.3227
0
LINE
8
Black
10
96.5593
20
-70.3227
11
96.5551
21
-70.3229
0
LINE
8
Black
10
96.5551
20
-70.3229
11
96.5465
21
-70.3204
0
LINE
8
Black
10
96.5465
20
-70.3204
11
96.5377
21
-70.3189
0
LINE
8
Black
10
96.5377
20
-70.3189
11
96.5341
21
-70.3168
0
LINE
8
Black
10
96.5341
20
-70.3168
11
96.5301
21
-70.3156
0
LINE
8
Black
10
96.5301
20
-70.3156
11
96.5229
21
-70.3103
0
LINE
8
Black
10
96.5229
20
-70.3103
11
96.5152
21
-70.3059
0
LINE
8
Black
10
96.5152
20
-70.3059
11
96.5125
21
-70.3027
0
LINE
8
Black
10
96.5125
20
-70.3027
11
96.5091
21
-70.3002
0
LINE
8
Black
10
96.5091
20
-70.3002
11
96.5042
21
-70.2928
0
LINE
8
Black
10
96.5042
20
-70.2928
11
96.4984
21
-70.2859
0
LINE
8
Black
10
96.4984
20
-70.2859
11
96.497
21
-70.282
0
LINE
8
Black
10
96.497
20
-70.282
11
96.4947
21
-70.2785
0
LINE
8
Black
10
96.4947
20
-70.2785
11
96.4926
21
-70.2698
0
LINE
8
Black
10
96.4926
20
-70.2698
11
96.4895
21
-70.2614
0
LINE
8
Black
10
96.4895
20
-70.2614
11
96.4895
21
-70.2573
0
LINE
8
Black
10
96.4895
20
-70.2573
11
96.4885
21
-70.2532
0
LINE
8
Black
10
96.4885
20
-70.2532
11
96.4895
21
-70.2443
0
LINE
8
Black
10
96.4895
20
-70.2443
11
96.4895
21
-70.2354
0
LINE
8
Black
10
96.4895
20
-70.2354
11
96.4909
21
-70.2315
0
LINE
8
Black
10
96.4909
20
-70.2315
11
96.4914
21
-70.2273
0
LINE
8
Black
10
96.4914
20
-70.2273
11
96.4954
21
-70.2193
0
LINE
8
Black
10
96.4954
20
-70.2193
11
96.4984
21
-70.2109
0
LINE
8
Black
10
96.4984
20
-70.2109
11
96.5011
21
-70.2077
0
LINE
8
Black
10
96.5011
20
-70.2077
11
96.5029
21
-70.204
0
LINE
8
Black
10
96.5029
20
-70.204
11
96.5094
21
-70.1978
0
LINE
8
Black
10
96.5094
20
-70.1978
11
96.5152
21
-70.1909
0
LINE
8
Black
10
96.5152
20
-70.1909
11
96.5188
21
-70.1889
0
LINE
8
Black
10
96.5188
20
-70.1889
11
96.5218
21
-70.186
0
LINE
8
Black
10
96.5218
20
-70.186
11
96.6585
21
-70.0949
0
LINE
8
Black
10
96.6585
20
-70.0949
11
96.7398
21
-70.0135
0
LINE
8
Black
10
96.7398
20
-70.0135
11
96.782
21
-69.9291
0
LINE
8
Black
10
96.782
20
-69.9291
11
96.7975
21
-69.9082
0
LINE
8
Black
10
96.7975
20
-69.9082
11
96.8193
21
-69.8939
0
LINE
8
Black
10
96.8193
20
-69.8939
11
96.8446
21
-69.8878
0
LINE
8
Black
10
96.8446
20
-69.8878
11
96.8705
21
-69.8908
0
LINE
8
Black
10
97.589
20
-68.9398
11
97.6116
21
-68.9529
0
LINE
8
Black
10
97.6116
20
-68.9529
11
97.6283
21
-68.9728
0
LINE
8
Black
10
97.6283
20
-68.9728
11
97.6372
21
-68.9973
0
LINE
8
Black
10
97.6372
20
-68.9973
11
97.6372
21
-69.0233
0
LINE
8
Black
10
97.6372
20
-69.0233
11
97.6283
21
-69.0478
0
LINE
8
Black
10
97.6283
20
-69.0478
11
97.6116
21
-69.0678
0
LINE
8
Black
10
97.6116
20
-69.0678
11
97.589
21
-69.0808
0
LINE
8
Black
10
97.589
20
-69.0808
11
97.5634
21
-69.0853
0
LINE
8
Black
10
97.5634
20
-69.0853
11
97.1622
21
-69.0853
0
LINE
8
Black
10
97.1622
20
-69.0853
11
97.1622
21
-69.3913
0
LINE
8
Black
10
97.1622
20
-69.3913
11
97.1614
21
-69.3955
0
LINE
8
Black
10
97.1614
20
-69.3955
11
97.1617
21
-69.3998
0
LINE
8
Black
10
97.1617
20
-69.3998
11
97.1592
21
-69.4083
0
LINE
8
Black
10
97.1592
20
-69.4083
11
97.1577
21
-69.4169
0
LINE
8
Black
10
97.1577
20
-69.4169
11
97.1555
21
-69.4207
0
LINE
8
Black
10
97.1555
20
-69.4207
11
97.1543
21
-69.4248
0
LINE
8
Black
10
97.1543
20
-69.4248
11
97.1067
21
-69.52
0
LINE
8
Black
10
97.1067
20
-69.52
11
97.0995
21
-69.5297
0
LINE
8
Black
10
97.0995
20
-69.5297
11
97.0926
21
-69.5395
0
LINE
8
Black
10
97.0926
20
-69.5395
11
97.045
21
-69.5871
0
LINE
8
Black
10
97.045
20
-69.5871
11
97.0352
21
-69.594
0
LINE
8
Black
10
97.0352
20
-69.594
11
97.0255
21
-69.6012
0
LINE
8
Black
10
97.0255
20
-69.6012
11
96.9303
21
-69.6488
0
LINE
8
Black
10
96.9303
20
-69.6488
11
96.9261
21
-69.65
0
LINE
8
Black
10
96.9261
20
-69.65
11
96.9224
21
-69.6522
0
LINE
8
Black
10
96.9224
20
-69.6522
11
96.9137
21
-69.6537
0
LINE
8
Black
10
96.9137
20
-69.6537
11
96.9053
21
-69.6562
0
LINE
8
Black
10
96.9053
20
-69.6562
11
96.901
21
-69.656
0
LINE
8
Black
10
96.901
20
-69.656
11
96.8967
21
-69.6567
0
LINE
8
Black
10
96.8967
20
-69.6567
11
96.7539
21
-69.6567
0
LINE
8
Black
10
96.7539
20
-69.6567
11
96.7496
21
-69.656
0
LINE
8
Black
10
96.7496
20
-69.656
11
96.7453
21
-69.6562
0
LINE
8
Black
10
96.7453
20
-69.6562
11
96.7369
21
-69.6537
0
LINE
8
Black
10
96.7369
20
-69.6537
11
96.7282
21
-69.6522
0
LINE
8
Black
10
96.7282
20
-69.6522
11
96.7245
21
-69.65
0
LINE
8
Black
10
96.7245
20
-69.65
11
96.7203
21
-69.6488
0
LINE
8
Black
10
96.7203
20
-69.6488
11
96.6251
21
-69.6012
0
LINE
8
Black
10
96.6251
20
-69.6012
11
96.6154
21
-69.594
0
LINE
8
Black
10
96.6154
20
-69.594
11
96.6056
21
-69.5871
0
LINE
8
Black
10
96.6056
20
-69.5871
11
96.558
21
-69.5395
0
LINE
8
Black
10
96.558
20
-69.5395
11
96.5511
21
-69.5297
0
LINE
8
Black
10
96.5511
20
-69.5297
11
96.5439
21
-69.52
0
LINE
8
Black
10
96.5439
20
-69.52
11
96.4963
21
-69.4248
0
LINE
8
Black
10
96.4963
20
-69.4248
11
96.4951
21
-69.4207
0
LINE
8
Black
10
96.4951
20
-69.4207
11
96.4929
21
-69.4169
0
LINE
8
Black
10
96.4929
20
-69.4169
11
96.4914
21
-69.4083
0
LINE
8
Black
10
96.4914
20
-69.4083
11
96.4889
21
-69.3998
0
LINE
8
Black
10
96.4889
20
-69.3998
11
96.4891
21
-69.3955
0
LINE
8
Black
10
96.4891
20
-69.3955
11
96.4884
21
-69.3913
0
LINE
8
Black
10
96.4884
20
-69.3913
11
96.4884
21
-69.0103
0
LINE
8
Black
10
96.4884
20
-69.0103
11
96.4895
21
-69.0038
0
LINE
8
Black
10
96.4895
20
-69.0038
11
96.4895
21
-68.9973
0
LINE
8
Black
10
96.4895
20
-68.9973
11
96.4918
21
-68.9911
0
LINE
8
Black
10
96.4918
20
-68.9911
11
96.4929
21
-68.9847
0
LINE
8
Black
10
96.4929
20
-68.9847
11
96.4962
21
-68.979
0
LINE
8
Black
10
96.4962
20
-68.979
11
96.4984
21
-68.9728
0
LINE
8
Black
10
96.4984
20
-68.9728
11
96.5026
21
-68.9678
0
LINE
8
Black
10
96.5026
20
-68.9678
11
96.5059
21
-68.9621
0
LINE
8
Black
10
96.5059
20
-68.9621
11
96.511
21
-68.9579
0
LINE
8
Black
10
96.511
20
-68.9579
11
96.5152
21
-68.9529
0
LINE
8
Black
10
96.5152
20
-68.9529
11
96.5209
21
-68.9496
0
LINE
8
Black
10
96.5209
20
-68.9496
11
96.5259
21
-68.9454
0
LINE
8
Black
10
96.5259
20
-68.9454
11
96.532
21
-68.9431
0
LINE
8
Black
10
96.532
20
-68.9431
11
96.5377
21
-68.9398
0
LINE
8
Black
10
96.5377
20
-68.9398
11
96.5442
21
-68.9387
0
LINE
8
Black
10
96.5442
20
-68.9387
11
96.5504
21
-68.9364
0
LINE
8
Black
10
96.5504
20
-68.9364
11
96.5569
21
-68.9364
0
LINE
8
Black
10
96.5569
20
-68.9364
11
96.5634
21
-68.9353
0
LINE
8
Black
10
96.5634
20
-68.9353
11
97.5634
21
-68.9353
0
LINE
8
Black
10
97.5634
20
-68.9353
11
97.589
21
-68.9398
0
LINE
8
Black
10
96.6384
20
-69.0853
11
96.6384
21
-69.3736
0
LINE
8
Black
10
96.6384
20
-69.3736
11
96.6726
21
-69.4421
0
LINE
8
Black
10
96.6726
20
-69.4421
11
96.703
21
-69.4725
0
LINE
8
Black
10
96.703
20
-69.4725
11
96.7716
21
-69.5067
0
LINE
8
Black
10
96.7716
20
-69.5067
11
96.879
21
-69.5067
0
LINE
8
Black
10
96.879
20
-69.5067
11
96.9475
21
-69.4725
0
LINE
8
Black
10
96.9475
20
-69.4725
11
96.9779
21
-69.4421
0
LINE
8
Black
10
96.9779
20
-69.4421
11
97.0122
21
-69.3736
0
LINE
8
Black
10
97.0122
20
-69.3736
11
97.0122
21
-69.0853
0
LINE
8
Black
10
97.0122
20
-69.0853
11
96.6384
21
-69.0853
0
LINE
8
Black
10
99.4615
20
-67.092
11
99.4796
21
-67.1024
0
LINE
8
Black
10
99.4796
20
-67.1024
11
99.493
21
-67.1184
0
LINE
8
Black
10
99.493
20
-67.1184
11
99.5001
21
-67.138
0
LINE
8
Black
10
99.5001
20
-67.138
11
99.5001
21
-67.1588
0
LINE
8
Black
10
99.5001
20
-67.1588
11
99.493
21
-67.1784
0
LINE
8
Black
10
99.493
20
-67.1784
11
99.4796
21
-67.1944
0
LINE
8
Black
10
99.4796
20
-67.1944
11
99.4615
21
-67.2048
0
LINE
8
Black
10
99.4615
20
-67.2048
11
99.441
21
-67.2084
0
LINE
8
Black
10
99.441
20
-67.2084
11
98.171
21
-67.2084
0
LINE
8
Black
10
98.171
20
-67.2084
11
98.171
21
-68.4784
0
LINE
8
Black
10
98.171
20
-68.4784
11
98.1674
21
-68.4989
0
LINE
8
Black
10
98.1674
20
-68.4989
11
98.157
21
-68.517
0
LINE
8
Black
10
98.157
20
-68.517
11
98.141
21
-68.5304
0
LINE
8
Black
10
98.141
20
-68.5304
11
98.1214
21
-68.5375
0
LINE
8
Black
10
98.1214
20
-68.5375
11
98.1006
21
-68.5375
0
LINE
8
Black
10
98.1006
20
-68.5375
11
98.081
21
-68.5304
0
LINE
8
Black
10
98.081
20
-68.5304
11
98.065
21
-68.517
0
LINE
8
Black
10
98.065
20
-68.517
11
98.0546
21
-68.4989
0
LINE
8
Black
10
98.0546
20
-68.4989
11
98.051
21
-68.4784
0
LINE
8
Black
10
98.051
20
-68.4784
11
98.051
21
-67.1484
0
LINE
8
Black
10
98.051
20
-67.1484
11
98.0519
21
-67.1432
0
LINE
8
Black
10
98.0519
20
-67.1432
11
98.0519
21
-67.138
0
LINE
8
Black
10
98.0519
20
-67.138
11
98.0537
21
-67.1331
0
LINE
8
Black
10
98.0537
20
-67.1331
11
98.0546
21
-67.1279
0
LINE
8
Black
10
98.0546
20
-67.1279
11
98.0572
21
-67.1233
0
LINE
8
Black
10
98.0572
20
-67.1233
11
98.059
21
-67.1184
0
LINE
8
Black
10
98.059
20
-67.1184
11
98.0624
21
-67.1144
0
LINE
8
Black
10
98.0624
20
-67.1144
11
98.065
21
-67.1098
0
LINE
8
Black
10
98.065
20
-67.1098
11
98.0691
21
-67.1065
0
LINE
8
Black
10
98.0691
20
-67.1065
11
98.0724
21
-67.1024
0
LINE
8
Black
10
98.0724
20
-67.1024
11
98.077
21
-67.0998
0
LINE
8
Black
10
98.077
20
-67.0998
11
98.081
21
-67.0964
0
LINE
8
Black
10
98.081
20
-67.0964
11
98.0859
21
-67.0946
0
LINE
8
Black
10
98.0859
20
-67.0946
11
98.0905
21
-67.092
0
LINE
8
Black
10
98.0905
20
-67.092
11
98.0957
21
-67.0911
0
LINE
8
Black
10
98.0957
20
-67.0911
11
98.1006
21
-67.0893
0
LINE
8
Black
10
98.1006
20
-67.0893
11
98.1058
21
-67.0893
0
LINE
8
Black
10
98.1058
20
-67.0893
11
98.111
21
-67.0884
0
LINE
8
Black
10
98.111
20
-67.0884
11
99.441
21
-67.0884
0
LINE
8
Black
10
99.441
20
-67.0884
11
99.4615
21
-67.092
  0
ENDSEC
  0
EOF
