<?xml version="1.0" standalone="no"?>
 <!DOCTYPE svg PUBLIC "-//W3C//DTD SVG 1.1//EN" 
 "http://www.w3.org/Graphics/SVG/1.1/DTD/svg11.dtd"> 
<svg xmlns="http://www.w3.org/2000/svg" version="1.1" 
    width="6.50748cm" height="5.87248cm" viewBox="0 0 25620 23120 ">
<title>SVG Picture created as RPi_Hat_k3-F.SilkS.svg date 2017/03/23 13:01:17 </title>
  <desc>Picture generated by PCBNEW </desc>
<g style="fill:#000000; fill-opacity:1;stroke:#000000; stroke-opacity:1;
stroke-linecap:round; stroke-linejoin:round; "
 transform="translate(0 0) scale(1 1)">
</g>
<g style="fill:#008484; fill-opacity:0.0; 
stroke:#008484; stroke-width:-0.000393701; stroke-opacity:1; 
stroke-linecap:round; stroke-linejoin:round;">
</g>
<g style="fill:#008484; fill-opacity:0.0; 
stroke:#008484; stroke-width:49.2126; stroke-opacity:1; 
stroke-linecap:round; stroke-linejoin:round;">
<path d="M2476 14753
L2364 14831
" />
<path d="M2476 14888
L2240 14888
L2240 14798
L2251 14775
L2262 14764
L2285 14753
L2319 14753
L2341 14764
L2352 14775
L2364 14798
L2364 14888
" />
<path d="M2476 14651
L2240 14651
L2240 14561
L2251 14539
L2262 14528
L2285 14516
L2319 14516
L2341 14528
L2352 14539
L2364 14561
L2364 14651
" />
<path d="M2476 14415
L2319 14415
" />
<path d="M2240 14415
L2251 14426
L2262 14415
L2251 14404
L2240 14415
L2262 14415
" />
<path d="M2476 14303
L2240 14303
" />
<path d="M2352 14303
L2352 14168
" />
<path d="M2476 14168
L2240 14168
" />
<path d="M2476 13954
L2352 13954
L2330 13965
L2319 13988
L2319 14033
L2330 14055
" />
<path d="M2465 13954
L2476 13976
L2476 14033
L2465 14055
L2442 14066
L2420 14066
L2397 14055
L2386 14033
L2386 13976
L2375 13954
" />
<path d="M2319 13875
L2319 13785
" />
<path d="M2240 13841
L2442 13841
L2465 13830
L2476 13808
L2476 13785
" />
<path d="M2465 13425
L2476 13448
L2476 13493
L2465 13515
L2454 13527
L2431 13538
L2364 13538
L2341 13527
L2330 13515
L2319 13493
L2319 13448
L2330 13425
" />
<path d="M2476 13290
L2465 13313
L2454 13324
L2431 13335
L2364 13335
L2341 13324
L2330 13313
L2319 13290
L2319 13257
L2330 13234
L2341 13223
L2364 13212
L2431 13212
L2454 13223
L2465 13234
L2476 13257
L2476 13290
" />
<path d="M2319 13110
L2476 13110
" />
<path d="M2341 13110
L2330 13099
L2319 13077
L2319 13043
L2330 13020
L2352 13009
L2476 13009
" />
<path d="M2319 12897
L2476 12897
" />
<path d="M2341 12897
L2330 12885
L2319 12863
L2319 12829
L2330 12807
L2352 12795
L2476 12795
" />
<path d="M2465 12593
L2476 12615
L2476 12660
L2465 12683
L2442 12694
L2352 12694
L2330 12683
L2319 12660
L2319 12615
L2330 12593
L2352 12582
L2375 12582
L2397 12694
" />
<path d="M2465 12379
L2476 12402
L2476 12447
L2465 12469
L2454 12480
L2431 12492
L2364 12492
L2341 12480
L2330 12469
L2319 12447
L2319 12402
L2330 12379
" />
<path d="M2319 12312
L2319 12222
" />
<path d="M2240 12278
L2442 12278
L2465 12267
L2476 12244
L2476 12222
" />
<path d="M2476 12109
L2465 12132
L2454 12143
L2431 12154
L2364 12154
L2341 12143
L2330 12132
L2319 12109
L2319 12075
L2330 12053
L2341 12042
L2364 12030
L2431 12030
L2454 12042
L2465 12053
L2476 12075
L2476 12109
" />
<path d="M2476 11929
L2319 11929
" />
<path d="M2364 11929
L2341 11918
L2330 11907
L2319 11884
L2319 11862
" />
<path d="M2240 11637
L2476 11558
L2240 11479
" />
<path d="M2476 11277
L2476 11412
" />
<path d="M2476 11344
L2240 11344
L2274 11367
L2296 11389
L2307 11412
" />
<path d="M2454 11176
L2465 11164
L2476 11176
L2465 11187
L2454 11176
L2476 11176
" />
<path d="M2240 11018
L2240 10996
L2251 10973
L2262 10962
L2285 10951
L2330 10939
L2386 10939
L2431 10951
L2454 10962
L2465 10973
L2476 10996
L2476 11018
L2465 11041
L2454 11052
L2431 11063
L2386 11074
L2330 11074
L2285 11063
L2262 11052
L2251 11041
L2240 11018
" />
<path d="M2364 10512
L2352 10523
L2341 10546
L2341 10568
L2352 10591
L2364 10602
L2386 10613
L2409 10613
L2431 10602
L2442 10591
L2454 10568
L2454 10546
L2442 10523
L2431 10512
" />
<path d="M2341 10512
L2431 10512
L2442 10501
L2442 10489
L2431 10467
L2409 10456
L2352 10456
L2319 10478
L2296 10512
L2285 10557
L2296 10602
L2319 10636
L2352 10658
L2397 10669
L2442 10658
L2476 10636
L2499 10602
L2510 10557
L2499 10512
L2476 10478
" />
<path d="M2319 10388
L2319 10298
" />
<path d="M2476 10354
L2274 10354
L2251 10343
L2240 10321
L2240 10298
" />
<path d="M2476 10118
L2352 10118
L2330 10129
L2319 10152
L2319 10197
L2330 10219
" />
<path d="M2465 10118
L2476 10141
L2476 10197
L2465 10219
L2442 10231
L2420 10231
L2397 10219
L2386 10197
L2386 10141
L2375 10118
" />
<path d="M2476 10006
L2240 10006
" />
<path d="M2330 10006
L2319 9983
L2319 9938
L2330 9916
L2341 9904
L2364 9893
L2431 9893
L2454 9904
L2465 9916
L2476 9938
L2476 9983
L2465 10006
" />
<path d="M2465 9702
L2476 9725
L2476 9769
L2465 9792
L2442 9803
L2352 9803
L2330 9792
L2319 9769
L2319 9725
L2330 9702
L2352 9691
L2375 9691
L2397 9803
" />
<path d="M2476 9556
L2465 9578
L2442 9590
L2240 9590
" />
<path d="M2319 9500
L2319 9410
" />
<path d="M2240 9466
L2442 9466
L2465 9455
L2476 9432
L2476 9410
" />
<path d="M2476 9331
L2319 9331
" />
<path d="M2364 9331
L2341 9320
L2330 9308
L2319 9286
L2319 9263
" />
<path d="M2476 9083
L2352 9083
L2330 9095
L2319 9117
L2319 9162
L2330 9185
" />
<path d="M2465 9083
L2476 9106
L2476 9162
L2465 9185
L2442 9196
L2420 9196
L2397 9185
L2386 9162
L2386 9106
L2375 9083
" />
<path d="M2319 8971
L2476 8971
" />
<path d="M2341 8971
L2330 8960
L2319 8937
L2319 8903
L2330 8881
L2352 8870
L2476 8870
" />
<path d="M2476 8757
L2319 8757
" />
<path d="M2341 8757
L2330 8746
L2319 8723
L2319 8690
L2330 8667
L2352 8656
L2476 8656
" />
<path d="M2352 8656
L2330 8645
L2319 8622
L2319 8588
L2330 8566
L2352 8555
L2476 8555
" />
</g>
<g style="fill:#008484; fill-opacity:0.0; 
stroke:#008484; stroke-width:39.3701; stroke-opacity:1; 
stroke-linecap:round; stroke-linejoin:round;">
<path d="M10319 21021
L10319 22371
" />
<path d="M11669 8621
L11719 8621
" />
<path d="M11669 8271
L11669 8621
" />
<path d="M24169 8271
L24169 8171
" />
<path d="M24169 8621
L24169 8271
" />
<path d="M4669 13471
L4669 13821
" />
<path d="M10669 13521
L10669 13821
" />
<path d="M4669 20721
L4669 20021
" />
<path d="M15419 20721
L4669 20721
" />
<path d="M15419 20021
L15419 20721
" />
<path d="M6919 13321
L5919 13321
" />
<path d="M8919 13321
L9169 13321
" />
<path d="M6919 7771
L5919 7771
" />
<path d="M4669 13521
L4669 10271
" />
<path d="M5919 13321
L5669 13071
" />
<path d="M9669 13321
L9919 13071
" />
<path d="M9169 13321
L9669 13321
" />
<path d="M5919 9821
L5669 10071
" />
<path d="M6919 9821
L5919 9821
" />
<path d="M9669 9821
L9919 10071
" />
<path d="M8919 9821
L9669 9821
" />
<path d="M5919 7771
L5669 7521
" />
<path d="M9669 7771
L9919 7521
" />
<path d="M8919 7771
L9669 7771
" />
<path d="M5919 4521
L5669 4771
" />
<path d="M7419 4521
L5919 4521
" />
<path d="M9669 4521
L9919 4771
" />
<path d="M8419 4521
L9669 4521
" />
<path d="M4669 20021
L4669 18771
" />
<path d="M15419 14771
L15419 20021
" />
<path d="M4669 14771
L15419 14771
" />
<path d="M4669 16271
L4669 14771
" />
<path d="M10669 3521
L10419 3521
" />
<path d="M10669 13521
L10669 3521
" />
<path d="M4669 13821
L10669 13821
" />
<path d="M4669 3521
L4669 7021
" />
<path d="M10419 3521
L4669 3521
" />
<path d="M24169 20021
L24169 18021
" />
<path d="M23419 20771
L24169 20021
" />
<path d="M18419 20771
L23419 20771
" />
<path d="M18419 14021
L18419 20771
" />
<path d="M24169 14021
L18419 14021
" />
<path d="M24169 16271
L24169 14021
" />
<path d="M11669 13821
L11669 12571
" />
<path d="M15169 13821
L11669 13821
" />
<path d="M15169 9071
L15169 13821
" />
<path d="M11669 9071
L11669 10321
" />
<path d="M15169 9071
L11669 9071
" />
<path d="M24169 13821
L24169 12321
" />
<path d="M15419 13821
L24169 13821
" />
<path d="M15419 9071
L15419 13821
" />
<path d="M24169 9071
L15419 9071
" />
<path d="M24169 10571
L24169 9071
" />
<path d="M24169 8271
L24169 7271
" />
<path d="M11669 8621
L24169 8621
" />
<path d="M11669 7271
L11669 8271
" />
<path d="M11669 3521
L11669 4771
" />
<path d="M24169 3521
L11669 3521
" />
<path d="M24169 4771
L24169 3521
" />
</g>
<g style="fill:#008484; fill-opacity:0.0; 
stroke:#008484; stroke-width:118.11; stroke-opacity:1; 
stroke-linecap:round; stroke-linejoin:round;">
<path d="M4346 18463
L4346 18126
" />
<path d="M4936 18294
L4346 18294
" />
<path d="M4627 17929
L4627 17732
" />
<path d="M4936 17648
L4936 17929
L4346 17929
L4346 17648
" />
<path d="M4908 17423
L4936 17338
L4936 17198
L4908 17141
L4880 17113
L4824 17085
L4768 17085
L4711 17113
L4683 17141
L4655 17198
L4627 17310
L4599 17366
L4571 17395
L4515 17423
L4458 17423
L4402 17395
L4374 17366
L4346 17310
L4346 17170
L4374 17085
" />
<path d="M4346 16917
L4346 16579
" />
<path d="M4936 16748
L4346 16748
" />
<path d="M4936 9885
L4346 9885
L4346 9660
L4374 9604
L4402 9576
L4458 9548
L4543 9548
L4599 9576
L4627 9604
L4655 9660
L4655 9885
" />
<path d="M4346 9182
L4346 9069
L4374 9013
L4430 8957
L4543 8929
L4739 8929
L4852 8957
L4908 9013
L4936 9069
L4936 9182
L4908 9238
L4852 9294
L4739 9323
L4543 9323
L4430 9294
L4374 9238
L4346 9182
" />
<path d="M4346 8732
L4936 8591
L4515 8479
L4936 8366
L4346 8226
" />
<path d="M4627 8001
L4627 7804
" />
<path d="M4936 7720
L4936 8001
L4346 8001
L4346 7720
" />
<path d="M4936 7129
L4655 7326
" />
<path d="M4936 7467
L4346 7467
L4346 7242
L4374 7185
L4402 7157
L4458 7129
L4543 7129
L4599 7157
L4627 7185
L4655 7242
L4655 7467
" />
<path d="M11374 6612
L11346 6668
L11346 6752
L11374 6837
L11430 6893
L11486 6921
L11599 6949
L11683 6949
L11796 6921
L11852 6893
L11908 6837
L11936 6752
L11936 6696
L11908 6612
L11880 6584
L11683 6584
L11683 6696
" />
<path d="M11936 6330
L11346 6330
L11346 6105
L11374 6049
L11402 6021
L11458 5993
L11543 5993
L11599 6021
L11627 6049
L11655 6105
L11655 6330
" />
<path d="M11936 5740
L11346 5740
" />
<path d="M11346 5346
L11346 5234
L11374 5177
L11430 5121
L11543 5093
L11739 5093
L11852 5121
L11908 5177
L11936 5234
L11936 5346
L11908 5402
L11852 5459
L11739 5487
L11543 5487
L11430 5459
L11374 5402
L11346 5346
" />
</g>
<g style="fill:#008484; fill-opacity:0.0; 
stroke:#008484; stroke-width:59.0551; stroke-opacity:1; 
stroke-linecap:round; stroke-linejoin:round;">
<path d="M14342 10164
L14237 10014
" />
<path d="M14162 10164
L14162 9849
L14282 9849
L14312 9864
L14327 9879
L14342 9909
L14342 9954
L14327 9984
L14312 9999
L14282 10014
L14162 10014
" />
<path d="M14447 9849
L14657 10164
" />
<path d="M14657 9849
L14447 10164
" />
<path d="M14154 10849
L14334 10849
" />
<path d="M14244 11164
L14244 10849
" />
<path d="M14409 10849
L14619 11164
" />
<path d="M14619 10849
L14409 11164
" />
<path d="M13989 12044
L14229 12044
" />
<path d="M14109 12164
L14109 11924
" />
<path d="M14529 11849
L14379 11849
L14364 11999
L14379 11984
L14409 11969
L14484 11969
L14514 11984
L14529 11999
L14544 12029
L14544 12104
L14529 12134
L14514 12149
L14484 12164
L14409 12164
L14379 12149
L14364 12134
" />
<path d="M14634 11849
L14739 12164
L14844 11849
" />
<path d="M14154 12889
L14124 12874
L14079 12874
L14034 12889
L14004 12919
L13989 12949
L13974 13009
L13974 13054
L13989 13114
L14004 13144
L14034 13174
L14079 13189
L14109 13189
L14154 13174
L14169 13159
L14169 13054
L14109 13054
" />
<path d="M14304 13189
L14304 12874
L14484 13189
L14484 12874
" />
<path d="M14634 13189
L14634 12874
L14709 12874
L14754 12889
L14784 12919
L14799 12949
L14814 13009
L14814 13054
L14799 13114
L14784 13144
L14754 13174
L14709 13189
L14634 13189
" />
<path d="M19999 19894
L20239 19894
" />
<path d="M20554 19714
L20524 19699
L20479 19699
L20434 19714
L20404 19744
L20389 19774
L20374 19834
L20374 19879
L20389 19939
L20404 19969
L20434 19999
L20479 20014
L20509 20014
L20554 19999
L20569 19984
L20569 19879
L20509 19879
" />
<path d="M20704 20014
L20704 19699
L20884 20014
L20884 19699
" />
<path d="M21034 20014
L21034 19699
L21109 19699
L21154 19714
L21184 19744
L21199 19774
L21214 19834
L21214 19879
L21199 19939
L21184 19969
L21154 19999
L21109 20014
L21034 20014
" />
<path d="M21349 19894
L21589 19894
" />
<path d="M19999 18869
L20239 18869
" />
<path d="M20389 18869
L20629 18869
" />
<path d="M20509 18989
L20509 18749
" />
<path d="M20929 18674
L20779 18674
L20764 18824
L20779 18809
L20809 18794
L20884 18794
L20914 18809
L20929 18824
L20944 18854
L20944 18929
L20929 18959
L20914 18974
L20884 18989
L20809 18989
L20779 18974
L20764 18959
" />
<path d="M21034 18674
L21139 18989
L21244 18674
" />
<path d="M21349 18869
L21589 18869
" />
<path d="M20125 17970
L20112 17983
L20072 17996
L20046 17996
L20007 17983
L19981 17956
L19967 17930
L19954 17878
L19954 17838
L19967 17786
L19981 17760
L20007 17733
L20046 17720
L20072 17720
L20112 17733
L20125 17746
" />
<path d="M20243 17851
L20335 17851
" />
<path d="M20374 17996
L20243 17996
L20243 17720
L20374 17720
" />
<path d="M20545 17720
L20571 17720
L20597 17733
L20610 17746
L20624 17773
L20637 17825
L20637 17891
L20624 17943
L20610 17970
L20597 17983
L20571 17996
L20545 17996
L20519 17983
L20505 17970
L20492 17943
L20479 17891
L20479 17825
L20492 17773
L20505 17746
L20519 17733
L20545 17720
" />
<path d="M21122 17970
L21109 17983
L21070 17996
L21044 17996
L21004 17983
L20978 17956
L20965 17930
L20952 17878
L20952 17838
L20965 17786
L20978 17760
L21004 17733
L21044 17720
L21070 17720
L21109 17733
L21122 17746
" />
<path d="M21240 17851
L21332 17851
" />
<path d="M21372 17996
L21240 17996
L21240 17720
L21372 17720
" />
<path d="M21634 17996
L21477 17996
" />
<path d="M21555 17996
L21555 17720
L21529 17760
L21503 17786
L21477 17799
" />
<path d="M19887 16869
L20127 16869
" />
<path d="M20262 16974
L20307 16989
L20382 16989
L20412 16974
L20427 16959
L20442 16929
L20442 16899
L20427 16869
L20412 16854
L20382 16839
L20322 16824
L20292 16809
L20277 16794
L20262 16764
L20262 16734
L20277 16704
L20292 16689
L20322 16674
L20397 16674
L20442 16689
" />
<path d="M20757 16959
L20742 16974
L20697 16989
L20667 16989
L20622 16974
L20592 16944
L20577 16914
L20562 16854
L20562 16809
L20577 16749
L20592 16719
L20622 16689
L20667 16674
L20697 16674
L20742 16689
L20757 16704
" />
<path d="M21042 16989
L20892 16989
L20892 16674
" />
<path d="M21147 16989
L21147 16674
" />
<path d="M21327 16989
L21192 16809
" />
<path d="M21327 16674
L21147 16854
" />
<path d="M21462 16869
L21702 16869
" />
<path d="M19909 15869
L20149 15869
" />
<path d="M20299 15989
L20299 15674
L20404 15899
L20509 15674
L20509 15989
" />
<path d="M20659 15989
L20659 15674
" />
<path d="M20794 15974
L20839 15989
L20914 15989
L20944 15974
L20959 15959
L20974 15929
L20974 15899
L20959 15869
L20944 15854
L20914 15839
L20854 15824
L20824 15809
L20809 15794
L20794 15764
L20794 15734
L20809 15704
L20824 15689
L20854 15674
L20929 15674
L20974 15689
" />
<path d="M21169 15674
L21229 15674
L21259 15689
L21289 15719
L21304 15779
L21304 15884
L21289 15944
L21259 15974
L21229 15989
L21169 15989
L21139 15974
L21109 15944
L21094 15884
L21094 15779
L21109 15719
L21139 15689
L21169 15674
" />
<path d="M21439 15869
L21679 15869
" />
<path d="M19934 14869
L20174 14869
" />
<path d="M20324 14989
L20324 14674
L20429 14899
L20534 14674
L20534 14989
" />
<path d="M20744 14674
L20804 14674
L20834 14689
L20864 14719
L20879 14779
L20879 14884
L20864 14944
L20834 14974
L20804 14989
L20744 14989
L20714 14974
L20684 14944
L20669 14884
L20669 14779
L20684 14719
L20714 14689
L20744 14674
" />
<path d="M20999 14974
L21044 14989
L21119 14989
L21149 14974
L21164 14959
L21179 14929
L21179 14899
L21164 14869
L21149 14854
L21119 14839
L21059 14824
L21029 14809
L21014 14794
L20999 14764
L20999 14734
L21014 14704
L21029 14689
L21059 14674
L21134 14674
L21179 14689
" />
<path d="M21314 14989
L21314 14674
" />
<path d="M21464 14869
L21704 14869
" />
<path d="M17229 12889
L17199 12874
L17154 12874
L17109 12889
L17079 12919
L17064 12949
L17049 13009
L17049 13054
L17064 13114
L17079 13144
L17109 13174
L17154 13189
L17184 13189
L17229 13174
L17244 13159
L17244 13054
L17184 13054
" />
<path d="M17379 13189
L17379 12874
L17559 13189
L17559 12874
" />
<path d="M17709 13189
L17709 12874
L17784 12874
L17829 12889
L17859 12919
L17874 12949
L17889 13009
L17889 13054
L17874 13114
L17859 13144
L17829 13174
L17784 13189
L17709 13189
" />
<path d="M17039 12019
L17279 12019
" />
<path d="M17159 12139
L17159 11899
" />
<path d="M17579 11824
L17429 11824
L17414 11974
L17429 11959
L17459 11944
L17534 11944
L17564 11959
L17579 11974
L17594 12004
L17594 12079
L17579 12109
L17564 12124
L17534 12139
L17459 12139
L17429 12124
L17414 12109
" />
<path d="M17684 11824
L17789 12139
L17894 11824
" />
<path d="M17037 11149
L17082 11164
L17157 11164
L17187 11149
L17202 11134
L17217 11104
L17217 11074
L17202 11044
L17187 11029
L17157 11014
L17097 10999
L17067 10984
L17052 10969
L17037 10939
L17037 10909
L17052 10879
L17067 10864
L17097 10849
L17172 10849
L17217 10864
" />
<path d="M17352 11164
L17352 10849
L17427 10849
L17472 10864
L17502 10894
L17517 10924
L17532 10984
L17532 11029
L17517 11089
L17502 11119
L17472 11149
L17427 11164
L17352 11164
" />
<path d="M17652 11074
L17802 11074
" />
<path d="M17622 11164
L17727 10849
L17832 11164
" />
<path d="M17922 10879
L17937 10864
L17967 10849
L18042 10849
L18072 10864
L18087 10879
L18102 10909
L18102 10939
L18087 10984
L17907 11164
L18102 11164
" />
<path d="M17019 10149
L17064 10164
L17139 10164
L17169 10149
L17184 10134
L17199 10104
L17199 10074
L17184 10044
L17169 10029
L17139 10014
L17079 9999
L17049 9984
L17034 9969
L17019 9939
L17019 9909
L17034 9879
L17049 9864
L17079 9849
L17154 9849
L17199 9864
" />
<path d="M17514 10134
L17499 10149
L17454 10164
L17424 10164
L17379 10149
L17349 10119
L17334 10089
L17319 10029
L17319 9984
L17334 9924
L17349 9894
L17379 9864
L17424 9849
L17454 9849
L17499 9864
L17514 9879
" />
<path d="M17799 10164
L17649 10164
L17649 9849
" />
<path d="M17889 9879
L17904 9864
L17934 9849
L18009 9849
L18039 9864
L18054 9879
L18069 9909
L18069 9939
L18054 9984
L17874 10164
L18069 10164
" />
</g>
<g style="fill:#008484; fill-opacity:0.0; 
stroke:#008484; stroke-width:118.11; stroke-opacity:1; 
stroke-linecap:round; stroke-linejoin:round;">
<path d="M11346 12263
L11824 12263
L11880 12235
L11908 12207
L11936 12151
L11936 12038
L11908 11982
L11880 11954
L11824 11926
L11346 11926
" />
<path d="M11768 11673
L11768 11391
" />
<path d="M11936 11729
L11346 11532
L11936 11335
" />
<path d="M11936 10801
L11655 10998
" />
<path d="M11936 11138
L11346 11138
L11346 10913
L11374 10857
L11402 10829
L11458 10801
L11543 10801
L11599 10829
L11627 10857
L11655 10913
L11655 11138
" />
<path d="M11346 10632
L11346 10295
" />
<path d="M11936 10463
L11346 10463
" />
</g>
<g style="fill:#008484; fill-opacity:0.0; 
stroke:#008484; stroke-width:59.0551; stroke-opacity:1; 
stroke-linecap:round; stroke-linejoin:round;">
<path d="M19317 12316
L19317 12076
" />
<path d="M19137 11761
L19122 11791
L19122 11836
L19137 11881
L19167 11911
L19197 11926
L19257 11941
L19302 11941
L19362 11926
L19392 11911
L19422 11881
L19437 11836
L19437 11806
L19422 11761
L19407 11746
L19302 11746
L19302 11806
" />
<path d="M19437 11611
L19122 11611
L19437 11431
L19122 11431
" />
<path d="M19437 11281
L19122 11281
L19122 11206
L19137 11161
L19167 11131
L19197 11116
L19257 11101
L19302 11101
L19362 11116
L19392 11131
L19422 11161
L19437 11206
L19437 11281
" />
<path d="M19317 10966
L19317 10726
" />
<path d="M20267 12291
L20267 12051
" />
<path d="M20267 11901
L20267 11661
" />
<path d="M20387 11781
L20147 11781
" />
<path d="M20072 11361
L20072 11511
L20222 11526
L20207 11511
L20192 11481
L20192 11406
L20207 11376
L20222 11361
L20252 11346
L20327 11346
L20357 11361
L20372 11376
L20387 11406
L20387 11481
L20372 11511
L20357 11526
" />
<path d="M20072 11256
L20387 11151
L20072 11046
" />
<path d="M20267 10941
L20267 10701
" />
<path d="M21317 12279
L21317 12039
" />
<path d="M21422 11904
L21437 11859
L21437 11784
L21422 11754
L21407 11739
L21377 11724
L21347 11724
L21317 11739
L21302 11754
L21287 11784
L21272 11844
L21257 11874
L21242 11889
L21212 11904
L21182 11904
L21152 11889
L21137 11874
L21122 11844
L21122 11769
L21137 11724
" />
<path d="M21437 11589
L21122 11589
L21122 11514
L21137 11469
L21167 11439
L21197 11424
L21257 11409
L21302 11409
L21362 11424
L21392 11439
L21422 11469
L21437 11514
L21437 11589
" />
<path d="M21347 11289
L21347 11139
" />
<path d="M21437 11319
L21122 11214
L21437 11109
" />
<path d="M21317 11004
L21317 10764
" />
<path d="M22342 12221
L22342 11981
" />
<path d="M22447 11846
L22462 11801
L22462 11726
L22447 11696
L22432 11681
L22402 11666
L22372 11666
L22342 11681
L22327 11696
L22312 11726
L22297 11786
L22282 11816
L22267 11831
L22237 11846
L22207 11846
L22177 11831
L22162 11816
L22147 11786
L22147 11711
L22162 11666
" />
<path d="M22432 11351
L22447 11366
L22462 11411
L22462 11441
L22447 11486
L22417 11516
L22387 11531
L22327 11546
L22282 11546
L22222 11531
L22192 11516
L22162 11486
L22147 11441
L22147 11411
L22162 11366
L22177 11351
" />
<path d="M22462 11066
L22462 11216
L22147 11216
" />
<path d="M22342 10961
L22342 10721
" />
<path d="M22177 6661
L22162 6646
L22147 6616
L22147 6541
L22162 6511
L22177 6496
L22207 6481
L22237 6481
L22282 6496
L22462 6676
L22462 6481
" />
<path d="M22147 6211
L22147 6271
L22162 6301
L22177 6316
L22222 6346
L22282 6361
L22402 6361
L22432 6346
L22447 6331
L22462 6301
L22462 6241
L22447 6211
L22432 6196
L22402 6181
L22327 6181
L22297 6196
L22282 6211
L22267 6241
L22267 6301
L22282 6331
L22297 6346
L22327 6361
" />
<path d="M21177 6661
L21162 6646
L21147 6616
L21147 6541
L21162 6511
L21177 6496
L21207 6481
L21237 6481
L21282 6496
L21462 6676
L21462 6481
" />
<path d="M21147 6196
L21147 6346
L21297 6361
L21282 6346
L21267 6316
L21267 6241
L21282 6211
L21297 6196
L21327 6181
L21402 6181
L21432 6196
L21447 6211
L21462 6241
L21462 6316
L21447 6346
L21432 6361
" />
<path d="M20177 6661
L20162 6646
L20147 6616
L20147 6541
L20162 6511
L20177 6496
L20207 6481
L20237 6481
L20282 6496
L20462 6676
L20462 6481
" />
<path d="M20252 6211
L20462 6211
" />
<path d="M20132 6286
L20357 6361
L20357 6166
" />
<path d="M19177 6661
L19162 6646
L19147 6616
L19147 6541
L19162 6511
L19177 6496
L19207 6481
L19237 6481
L19282 6496
L19462 6676
L19462 6481
" />
<path d="M19147 6376
L19147 6181
L19267 6286
L19267 6241
L19282 6211
L19297 6196
L19327 6181
L19402 6181
L19432 6196
L19447 6211
L19462 6241
L19462 6331
L19447 6361
L19432 6376
" />
<path d="M16177 6661
L16162 6646
L16147 6616
L16147 6541
L16162 6511
L16177 6496
L16207 6481
L16237 6481
L16282 6496
L16462 6676
L16462 6481
" />
<path d="M16177 6361
L16162 6346
L16147 6316
L16147 6241
L16162 6211
L16177 6196
L16207 6181
L16237 6181
L16282 6196
L16462 6376
L16462 6181
" />
<path d="M15177 6661
L15162 6646
L15147 6616
L15147 6541
L15162 6511
L15177 6496
L15207 6481
L15237 6481
L15282 6496
L15462 6676
L15462 6481
" />
<path d="M15462 6181
L15462 6361
" />
<path d="M15462 6271
L15147 6271
L15192 6301
L15222 6331
L15237 6361
" />
<path d="M14177 6661
L14162 6646
L14147 6616
L14147 6541
L14162 6511
L14177 6496
L14207 6481
L14237 6481
L14282 6496
L14462 6676
L14462 6481
" />
<path d="M14147 6286
L14147 6256
L14162 6226
L14177 6211
L14207 6196
L14267 6181
L14342 6181
L14402 6196
L14432 6211
L14447 6226
L14462 6256
L14462 6286
L14447 6316
L14432 6331
L14402 6346
L14342 6361
L14267 6361
L14207 6346
L14177 6331
L14162 6316
L14147 6286
" />
<path d="M13462 6481
L13462 6661
" />
<path d="M13462 6571
L13147 6571
L13192 6601
L13222 6631
L13237 6661
" />
<path d="M13462 6331
L13462 6271
L13447 6241
L13432 6226
L13387 6196
L13327 6181
L13207 6181
L13177 6196
L13162 6211
L13147 6241
L13147 6301
L13162 6331
L13177 6346
L13207 6361
L13282 6361
L13312 6346
L13327 6331
L13342 6301
L13342 6241
L13327 6211
L13312 6196
L13282 6181
" />
<path d="M22462 4031
L22462 4211
" />
<path d="M22462 4121
L22147 4121
L22192 4151
L22222 4181
L22237 4211
" />
<path d="M22282 3851
L22267 3881
L22252 3896
L22222 3911
L22207 3911
L22177 3896
L22162 3881
L22147 3851
L22147 3791
L22162 3761
L22177 3746
L22207 3731
L22222 3731
L22252 3746
L22267 3761
L22282 3791
L22282 3851
L22297 3881
L22312 3896
L22342 3911
L22402 3911
L22432 3896
L22447 3881
L22462 3851
L22462 3791
L22447 3761
L22432 3746
L22402 3731
L22342 3731
L22312 3746
L22297 3761
L22282 3791
" />
<path d="M21462 4031
L21462 4211
" />
<path d="M21462 4121
L21147 4121
L21192 4151
L21222 4181
L21237 4211
" />
<path d="M21147 3926
L21147 3716
L21462 3851
" />
<path d="M20462 4031
L20462 4211
" />
<path d="M20462 4121
L20147 4121
L20192 4151
L20222 4181
L20237 4211
" />
<path d="M20147 3761
L20147 3821
L20162 3851
L20177 3866
L20222 3896
L20282 3911
L20402 3911
L20432 3896
L20447 3881
L20462 3851
L20462 3791
L20447 3761
L20432 3746
L20402 3731
L20327 3731
L20297 3746
L20282 3761
L20267 3791
L20267 3851
L20282 3881
L20297 3896
L20327 3911
" />
<path d="M19462 4031
L19462 4211
" />
<path d="M19462 4121
L19147 4121
L19192 4151
L19222 4181
L19237 4211
" />
<path d="M19147 3926
L19147 3731
L19267 3836
L19267 3791
L19282 3761
L19297 3746
L19327 3731
L19402 3731
L19432 3746
L19447 3761
L19462 3791
L19462 3881
L19447 3911
L19432 3926
" />
<path d="M16462 4031
L16462 4211
" />
<path d="M16462 4121
L16147 4121
L16192 4151
L16222 4181
L16237 4211
" />
<path d="M16177 3911
L16162 3896
L16147 3866
L16147 3791
L16162 3761
L16177 3746
L16207 3731
L16237 3731
L16282 3746
L16462 3926
L16462 3731
" />
<path d="M15147 4136
L15147 4106
L15162 4076
L15177 4061
L15207 4046
L15267 4031
L15342 4031
L15402 4046
L15432 4061
L15447 4076
L15462 4106
L15462 4136
L15447 4166
L15432 4181
L15402 4196
L15342 4211
L15267 4211
L15207 4196
L15177 4181
L15162 4166
L15147 4136
" />
<path d="M15147 3761
L15147 3821
L15162 3851
L15177 3866
L15222 3896
L15282 3911
L15402 3911
L15432 3896
L15447 3881
L15462 3851
L15462 3791
L15447 3761
L15432 3746
L15402 3731
L15327 3731
L15297 3746
L15282 3761
L15267 3791
L15267 3851
L15282 3881
L15297 3896
L15327 3911
" />
<path d="M14147 4136
L14147 4106
L14162 4076
L14177 4061
L14207 4046
L14267 4031
L14342 4031
L14402 4046
L14432 4061
L14447 4076
L14462 4106
L14462 4136
L14447 4166
L14432 4181
L14402 4196
L14342 4211
L14267 4211
L14207 4196
L14177 4181
L14162 4166
L14147 4136
" />
<path d="M14147 3746
L14147 3896
L14297 3911
L14282 3896
L14267 3866
L14267 3791
L14282 3761
L14297 3746
L14327 3731
L14402 3731
L14432 3746
L14447 3761
L14462 3791
L14462 3866
L14447 3896
L14432 3911
" />
<path d="M13147 4136
L13147 4106
L13162 4076
L13177 4061
L13207 4046
L13267 4031
L13342 4031
L13402 4046
L13432 4061
L13447 4076
L13462 4106
L13462 4136
L13447 4166
L13432 4181
L13402 4196
L13342 4211
L13267 4211
L13207 4196
L13177 4181
L13162 4166
L13147 4136
" />
<path d="M13252 3761
L13462 3761
" />
<path d="M13132 3836
L13357 3911
L13357 3716
" />
</g>
<g style="fill:#008484; fill-opacity:0.0; 
stroke:#008484; stroke-width:118.11; stroke-opacity:1; 
stroke-linecap:round; stroke-linejoin:round;">
<path d="M7469 13026
L7413 12998
L7329 12998
L7244 13026
L7188 13082
L7160 13138
L7132 13251
L7132 13335
L7160 13448
L7188 13504
L7244 13560
L7329 13588
L7385 13588
L7469 13560
L7497 13532
L7497 13335
L7385 13335
" />
<path d="M7750 13588
L7750 12998
L8088 13588
L8088 12998
" />
<path d="M8369 13588
L8369 12998
L8510 12998
L8594 13026
L8650 13082
L8678 13138
L8707 13251
L8707 13335
L8678 13448
L8650 13504
L8594 13560
L8510 13588
L8369 13588
" />
<path d="M7047 9498
L7413 9498
L7216 9723
L7301 9723
L7357 9751
L7385 9779
L7413 9835
L7413 9976
L7385 10032
L7357 10060
L7301 10088
L7132 10088
L7076 10060
L7047 10032
" />
<path d="M7666 10032
L7694 10060
L7666 10088
L7638 10060
L7666 10032
L7666 10088
" />
<path d="M7891 9498
L8257 9498
L8060 9723
L8144 9723
L8200 9751
L8229 9779
L8257 9835
L8257 9976
L8229 10032
L8200 10060
L8144 10088
L7975 10088
L7919 10060
L7891 10032
" />
<path d="M8425 9498
L8622 10088
L8819 9498
" />
<path d="M7469 7476
L7413 7448
L7329 7448
L7244 7476
L7188 7532
L7160 7588
L7132 7701
L7132 7785
L7160 7898
L7188 7954
L7244 8010
L7329 8038
L7385 8038
L7469 8010
L7497 7982
L7497 7785
L7385 7785
" />
<path d="M7750 8038
L7750 7448
L8088 8038
L8088 7448
" />
<path d="M8369 8038
L8369 7448
L8510 7448
L8594 7476
L8650 7532
L8678 7588
L8707 7701
L8707 7785
L8678 7898
L8650 7954
L8594 8010
L8510 8038
L8369 8038
" />
<path d="M7807 4198
L7525 4198
L7497 4479
L7525 4451
L7582 4423
L7722 4423
L7779 4451
L7807 4479
L7835 4535
L7835 4676
L7807 4732
L7779 4760
L7722 4788
L7582 4788
L7525 4760
L7497 4732
" />
<path d="M8004 4198
L8200 4788
L8397 4198
" />
<path d="M24408 17876
L24436 17791
L24436 17651
L24408 17595
L24380 17566
L24324 17538
L24268 17538
L24211 17566
L24183 17595
L24155 17651
L24127 17763
L24099 17819
L24071 17848
L24015 17876
L23958 17876
L23902 17848
L23874 17819
L23846 17763
L23846 17623
L23874 17538
" />
<path d="M24436 17285
L23846 17285
L23846 17060
L23874 17004
L23902 16976
L23958 16948
L24043 16948
L24099 16976
L24127 17004
L24155 17060
L24155 17285
" />
<path d="M24436 16695
L23846 16695
" />
<path d="M24436 11898
L23846 11898
" />
<path d="M23902 11645
L23874 11616
L23846 11560
L23846 11420
L23874 11363
L23902 11335
L23958 11307
L24015 11307
L24099 11335
L24436 11673
L24436 11307
" />
<path d="M24380 10717
L24408 10745
L24436 10829
L24436 10885
L24408 10970
L24352 11026
L24296 11054
L24183 11082
L24099 11082
L23986 11054
L23930 11026
L23874 10970
L23846 10885
L23846 10829
L23874 10745
L23902 10717
" />
<path d="M23874 6612
L23846 6668
L23846 6752
L23874 6837
L23930 6893
L23986 6921
L24099 6949
L24183 6949
L24296 6921
L24352 6893
L24408 6837
L24436 6752
L24436 6696
L24408 6612
L24380 6584
L24183 6584
L24183 6696
" />
<path d="M24436 6330
L23846 6330
L23846 6105
L23874 6049
L23902 6021
L23958 5993
L24043 5993
L24099 6021
L24127 6049
L24155 6105
L24155 6330
" />
<path d="M24436 5740
L23846 5740
" />
<path d="M23846 5346
L23846 5234
L23874 5177
L23930 5121
L24043 5093
L24239 5093
L24352 5121
L24408 5177
L24436 5234
L24436 5346
L24408 5402
L24352 5459
L24239 5487
L24043 5487
L23930 5459
L23874 5402
L23846 5346
" />
</g>
<g style="fill:#C2C200; fill-opacity:0.0; 
stroke:#C2C200; stroke-width:118.11; stroke-opacity:1; 
stroke-linecap:round; stroke-linejoin:round;">
</g>
<g style="fill:#C2C200; fill-opacity:0.0; 
stroke:#C2C200; stroke-width:39.3701; stroke-opacity:1; 
stroke-linecap:round; stroke-linejoin:round;">
<path d="M17342.5 21090.9 A393.701 393.701 0.0 0 0 18129.9 21090.9 " />
<path d="M18129.9 15185.4 A393.701 393.701 0.0 0 0 17342.5 15185.4 " />
<path d="M18129 15185
L18129 21090
" />
<path d="M17342 15185
L17342 21090
" />
<path d="M413.386 14988.6 A393.701 393.701 0.0 0 0 19.6854 15382.3 " />
<path d="M1594.49 14988.6 A393.701 393.701 0.0 0 0 1988.19 14594.9 " />
<path d="M1988.19 8689.34 A393.701 393.701 0.0 0 0 1594.49 8295.64 " />
<path d="M19.6854 7901.94 A393.701 393.701 0.0 0 0 413.386 8295.64 " />
<path d="M24429.1 22665.7 A1181.1 1181.1 0.0 0 0 25610.2 21484.6 " />
<path d="M19.6854 21484.6 A1181.1 1181.1 0.0 0 0 1200.79 22665.7 " />
<path d="M1200.79 421.628 A1181.1 1181.1 0.0 0 0 19.6854 1602.73 " />
<path d="M25610.2 1602.73 A1181.1 1181.1 0.0 0 0 24429.1 421.628 " />
<path d="M19 15382
L19 21484
" />
<path d="M19 1602
L19 7901
" />
<path d="M413 14988
L1594 14988
" />
<path d="M413 8295
L1594 8295
" />
<path d="M1988 8689
L1988 14594
" />
<path d="M1200 22665
L24429 22665
" />
<path d="M25610 1602
L25610 21484
" />
<path d="M1200 421
L24429 421
" />
</g>
<g style="fill:#C2C200; fill-opacity:0.0; 
stroke:#C2C200; stroke-width:12.5; stroke-opacity:1; 
stroke-linecap:round; stroke-linejoin:round;">
<path d="M19244 20441
L19251 20444
L19263 20444
L19268 20441
L19270 20439
L19273 20434
L19273 20429
L19270 20425
L19268 20422
L19263 20420
L19254 20418
L19249 20415
L19247 20413
L19244 20408
L19244 20403
L19247 20399
L19249 20396
L19254 20394
L19266 20394
L19273 20396
" />
<path d="M19294 20444
L19294 20394
L19313 20394
L19318 20396
L19320 20399
L19323 20403
L19323 20410
L19320 20415
L19318 20418
L19313 20420
L19294 20420
" />
<path d="M19344 20444
L19344 20394
" />
<path d="M19394 20444
L19366 20444
" />
<path d="M19380 20444
L19380 20394
L19375 20401
L19370 20406
L19366 20408
" />
<path d="M22244 20441
L22251 20444
L22263 20444
L22268 20441
L22270 20439
L22273 20434
L22273 20429
L22270 20425
L22268 20422
L22263 20420
L22254 20418
L22249 20415
L22247 20413
L22244 20408
L22244 20403
L22247 20399
L22249 20396
L22254 20394
L22266 20394
L22273 20396
" />
<path d="M22294 20444
L22294 20394
L22313 20394
L22318 20396
L22320 20399
L22323 20403
L22323 20410
L22320 20415
L22318 20418
L22313 20420
L22294 20420
" />
<path d="M22344 20444
L22344 20394
" />
<path d="M22366 20399
L22368 20396
L22373 20394
L22385 20394
L22389 20396
L22392 20399
L22394 20403
L22394 20408
L22392 20415
L22363 20444
L22394 20444
" />
<path d="M5737 15879
L5739 15882
L5742 15889
L5742 15894
L5739 15901
L5735 15906
L5730 15908
L5720 15910
L5713 15910
L5704 15908
L5699 15906
L5694 15901
L5692 15894
L5692 15889
L5694 15882
L5697 15879
" />
<path d="M5742 15832
L5742 15860
" />
<path d="M5742 15846
L5692 15846
L5699 15851
L5704 15856
L5706 15860
" />
<path d="M5737 16879
L5739 16882
L5742 16889
L5742 16894
L5739 16901
L5735 16906
L5730 16908
L5720 16910
L5713 16910
L5704 16908
L5699 16906
L5694 16901
L5692 16894
L5692 16889
L5694 16882
L5697 16879
" />
<path d="M5697 16860
L5694 16858
L5692 16853
L5692 16841
L5694 16837
L5697 16834
L5701 16832
L5706 16832
L5713 16834
L5742 16863
L5742 16832
" />
<path d="M5737 17879
L5739 17882
L5742 17889
L5742 17894
L5739 17901
L5735 17906
L5730 17908
L5720 17910
L5713 17910
L5704 17908
L5699 17906
L5694 17901
L5692 17894
L5692 17889
L5694 17882
L5697 17879
" />
<path d="M5692 17863
L5692 17832
L5711 17849
L5711 17841
L5713 17837
L5716 17834
L5720 17832
L5732 17832
L5737 17834
L5739 17837
L5742 17841
L5742 17856
L5739 17860
L5737 17863
" />
<path d="M5737 18879
L5739 18882
L5742 18889
L5742 18894
L5739 18901
L5735 18906
L5730 18908
L5720 18910
L5713 18910
L5704 18908
L5699 18906
L5694 18901
L5692 18894
L5692 18889
L5694 18882
L5697 18879
" />
<path d="M5708 18837
L5742 18837
" />
<path d="M5689 18849
L5725 18860
L5725 18829
" />
<path d="M5737 19903
L5739 19906
L5742 19913
L5742 19918
L5739 19925
L5735 19929
L5730 19932
L5720 19934
L5713 19934
L5704 19932
L5699 19929
L5694 19925
L5692 19918
L5692 19913
L5694 19906
L5697 19903
" />
<path d="M5742 19856
L5742 19884
" />
<path d="M5742 19870
L5692 19870
L5699 19875
L5704 19879
L5706 19884
" />
<path d="M5692 19825
L5692 19820
L5694 19815
L5697 19813
L5701 19810
L5711 19808
L5723 19808
L5732 19810
L5737 19813
L5739 19815
L5742 19820
L5742 19825
L5739 19829
L5737 19832
L5732 19834
L5723 19837
L5711 19837
L5701 19834
L5697 19832
L5694 19829
L5692 19825
" />
<path d="M14937 15879
L14939 15882
L14942 15889
L14942 15894
L14939 15901
L14935 15906
L14930 15908
L14920 15910
L14913 15910
L14904 15908
L14899 15906
L14894 15901
L14892 15894
L14892 15889
L14894 15882
L14897 15879
" />
<path d="M14892 15834
L14892 15858
L14916 15860
L14913 15858
L14911 15853
L14911 15841
L14913 15837
L14916 15834
L14920 15832
L14932 15832
L14937 15834
L14939 15837
L14942 15841
L14942 15853
L14939 15858
L14937 15860
" />
<path d="M14937 16879
L14939 16882
L14942 16889
L14942 16894
L14939 16901
L14935 16906
L14930 16908
L14920 16910
L14913 16910
L14904 16908
L14899 16906
L14894 16901
L14892 16894
L14892 16889
L14894 16882
L14897 16879
" />
<path d="M14892 16837
L14892 16846
L14894 16851
L14897 16853
L14904 16858
L14913 16860
L14932 16860
L14937 16858
L14939 16856
L14942 16851
L14942 16841
L14939 16837
L14937 16834
L14932 16832
L14920 16832
L14916 16834
L14913 16837
L14911 16841
L14911 16851
L14913 16856
L14916 16858
L14920 16860
" />
<path d="M14937 17879
L14939 17882
L14942 17889
L14942 17894
L14939 17901
L14935 17906
L14930 17908
L14920 17910
L14913 17910
L14904 17908
L14899 17906
L14894 17901
L14892 17894
L14892 17889
L14894 17882
L14897 17879
" />
<path d="M14892 17863
L14892 17829
L14942 17851
" />
<path d="M14937 18879
L14939 18882
L14942 18889
L14942 18894
L14939 18901
L14935 18906
L14930 18908
L14920 18910
L14913 18910
L14904 18908
L14899 18906
L14894 18901
L14892 18894
L14892 18889
L14894 18882
L14897 18879
" />
<path d="M14913 18851
L14911 18856
L14908 18858
L14904 18860
L14901 18860
L14897 18858
L14894 18856
L14892 18851
L14892 18841
L14894 18837
L14897 18834
L14901 18832
L14904 18832
L14908 18834
L14911 18837
L14913 18841
L14913 18851
L14916 18856
L14918 18858
L14923 18860
L14932 18860
L14937 18858
L14939 18856
L14942 18851
L14942 18841
L14939 18837
L14937 18834
L14932 18832
L14923 18832
L14918 18834
L14916 18837
L14913 18841
" />
<path d="M14937 19879
L14939 19882
L14942 19889
L14942 19894
L14939 19901
L14935 19906
L14930 19908
L14920 19910
L14913 19910
L14904 19908
L14899 19906
L14894 19901
L14892 19894
L14892 19889
L14894 19882
L14897 19879
" />
<path d="M14942 19856
L14942 19846
L14939 19841
L14937 19839
L14930 19834
L14920 19832
L14901 19832
L14897 19834
L14894 19837
L14892 19841
L14892 19851
L14894 19856
L14897 19858
L14901 19860
L14913 19860
L14918 19858
L14920 19856
L14923 19851
L14923 19841
L14920 19837
L14918 19834
L14913 19832
" />
<path d="M9411 4969
L9387 4969
L9385 4993
L9387 4990
L9392 4988
L9404 4988
L9408 4990
L9411 4993
L9413 4997
L9413 5009
L9411 5014
L9408 5016
L9404 5019
L9392 5019
L9387 5016
L9385 5014
" />
<path d="M9428 4969
L9444 5019
L9461 4969
" />
<path d="M9506 5014
L9504 5016
L9497 5019
L9492 5019
L9485 5016
L9480 5012
L9478 5007
L9475 4997
L9475 4990
L9478 4981
L9480 4976
L9485 4971
L9492 4969
L9497 4969
L9504 4971
L9506 4974
" />
<path d="M9556 5014
L9554 5016
L9547 5019
L9542 5019
L9535 5016
L9530 5012
L9528 5007
L9525 4997
L9525 4990
L9528 4981
L9530 4976
L9535 4971
L9542 4969
L9547 4969
L9554 4971
L9556 4974
" />
<path d="M9604 5019
L9575 5019
" />
<path d="M9589 5019
L9589 4969
L9585 4976
L9580 4981
L9575 4983
" />
<path d="M9432 5971
L9428 5969
L9420 5969
L9413 5971
L9408 5976
L9406 5981
L9404 5990
L9404 5997
L9406 6007
L9408 6012
L9413 6016
L9420 6019
L9425 6019
L9432 6016
L9435 6014
L9435 5997
L9425 5997
" />
<path d="M9456 6019
L9456 5969
L9485 6019
L9485 5969
" />
<path d="M9508 6019
L9508 5969
L9520 5969
L9528 5971
L9532 5976
L9535 5981
L9537 5990
L9537 5997
L9535 6007
L9532 6012
L9528 6016
L9520 6019
L9508 6019
" />
<path d="M9585 6019
L9556 6019
" />
<path d="M9570 6019
L9570 5969
L9566 5976
L9561 5981
L9556 5983
" />
<path d="M9382 10444
L9413 10444
L9397 10463
L9404 10463
L9408 10465
L9411 10468
L9413 10472
L9413 10484
L9411 10489
L9408 10491
L9404 10494
L9389 10494
L9385 10491
L9382 10489
" />
<path d="M9428 10444
L9444 10494
L9461 10444
" />
<path d="M9506 10489
L9504 10491
L9497 10494
L9492 10494
L9485 10491
L9480 10487
L9478 10482
L9475 10472
L9475 10465
L9478 10456
L9480 10451
L9485 10446
L9492 10444
L9497 10444
L9504 10446
L9506 10449
" />
<path d="M9556 10489
L9554 10491
L9547 10494
L9542 10494
L9535 10491
L9530 10487
L9528 10482
L9525 10472
L9525 10465
L9528 10456
L9530 10451
L9535 10446
L9542 10444
L9547 10444
L9554 10446
L9556 10449
" />
<path d="M9604 10494
L9575 10494
" />
<path d="M9589 10494
L9589 10444
L9585 10451
L9580 10456
L9575 10458
" />
<path d="M9432 11446
L9428 11444
L9420 11444
L9413 11446
L9408 11451
L9406 11456
L9404 11465
L9404 11472
L9406 11482
L9408 11487
L9413 11491
L9420 11494
L9425 11494
L9432 11491
L9435 11489
L9435 11472
L9425 11472
" />
<path d="M9456 11494
L9456 11444
L9485 11494
L9485 11444
" />
<path d="M9508 11494
L9508 11444
L9520 11444
L9528 11446
L9532 11451
L9535 11456
L9537 11465
L9537 11472
L9535 11482
L9532 11487
L9528 11491
L9520 11494
L9508 11494
" />
<path d="M9556 11449
L9558 11446
L9563 11444
L9575 11444
L9580 11446
L9582 11449
L9585 11453
L9585 11458
L9582 11465
L9554 11494
L9585 11494
" />
<path d="M12742 9925
L12782 9925
L12787 9922
L12789 9920
L12792 9915
L12792 9906
L12789 9901
L12787 9899
L12782 9896
L12742 9896
" />
<path d="M12778 9875
L12778 9851
" />
<path d="M12792 9879
L12742 9863
L12792 9846
" />
<path d="M12792 9801
L12768 9818
" />
<path d="M12792 9829
L12742 9829
L12742 9810
L12744 9806
L12747 9803
L12751 9801
L12758 9801
L12763 9803
L12766 9806
L12768 9810
L12768 9829
" />
<path d="M12742 9787
L12742 9758
" />
<path d="M12792 9772
L12742 9772
" />
<path d="M12792 9715
L12792 9744
" />
<path d="M12792 9729
L12742 9729
L12749 9734
L12754 9739
L12756 9744
" />
<path d="M16401 4346
L16397 4344
L16389 4344
L16382 4346
L16378 4351
L16375 4356
L16373 4365
L16373 4372
L16375 4382
L16378 4387
L16382 4391
L16389 4394
L16394 4394
L16401 4391
L16404 4389
L16404 4372
L16394 4372
" />
<path d="M16425 4394
L16425 4344
L16444 4344
L16449 4346
L16451 4349
L16454 4353
L16454 4360
L16451 4365
L16449 4368
L16444 4370
L16425 4370
" />
<path d="M16475 4394
L16475 4344
" />
<path d="M16508 4344
L16518 4344
L16523 4346
L16528 4351
L16530 4360
L16530 4377
L16528 4387
L16523 4391
L16518 4394
L16508 4394
L16504 4391
L16499 4387
L16497 4377
L16497 4360
L16499 4351
L16504 4346
L16508 4344
" />
<path d="M16539 4399
L16578 4399
" />
<path d="M16616 4346
L16611 4344
L16604 4344
L16597 4346
L16592 4351
L16589 4356
L16587 4365
L16587 4372
L16589 4382
L16592 4387
L16597 4391
L16604 4394
L16608 4394
L16616 4391
L16618 4389
L16618 4372
L16608 4372
" />
<path d="M16666 4394
L16637 4394
" />
<path d="M16651 4394
L16651 4344
L16647 4351
L16642 4356
L16637 4358
" />
<path d="M16401 6846
L16397 6844
L16389 6844
L16382 6846
L16378 6851
L16375 6856
L16373 6865
L16373 6872
L16375 6882
L16378 6887
L16382 6891
L16389 6894
L16394 6894
L16401 6891
L16404 6889
L16404 6872
L16394 6872
" />
<path d="M16425 6894
L16425 6844
L16444 6844
L16449 6846
L16451 6849
L16454 6853
L16454 6860
L16451 6865
L16449 6868
L16444 6870
L16425 6870
" />
<path d="M16475 6894
L16475 6844
" />
<path d="M16508 6844
L16518 6844
L16523 6846
L16528 6851
L16530 6860
L16530 6877
L16528 6887
L16523 6891
L16518 6894
L16508 6894
L16504 6891
L16499 6887
L16497 6877
L16497 6860
L16499 6851
L16504 6846
L16508 6844
" />
<path d="M16539 6899
L16578 6899
" />
<path d="M16616 6846
L16611 6844
L16604 6844
L16597 6846
L16592 6851
L16589 6856
L16587 6865
L16587 6872
L16589 6882
L16592 6887
L16597 6891
L16604 6894
L16608 6894
L16616 6891
L16618 6889
L16618 6872
L16608 6872
" />
<path d="M16635 6844
L16666 6844
L16649 6863
L16656 6863
L16661 6865
L16663 6868
L16666 6872
L16666 6884
L16663 6889
L16661 6891
L16656 6894
L16642 6894
L16637 6891
L16635 6889
" />
<path d="M22401 4346
L22397 4344
L22389 4344
L22382 4346
L22378 4351
L22375 4356
L22373 4365
L22373 4372
L22375 4382
L22378 4387
L22382 4391
L22389 4394
L22394 4394
L22401 4391
L22404 4389
L22404 4372
L22394 4372
" />
<path d="M22425 4394
L22425 4344
L22444 4344
L22449 4346
L22451 4349
L22454 4353
L22454 4360
L22451 4365
L22449 4368
L22444 4370
L22425 4370
" />
<path d="M22475 4394
L22475 4344
" />
<path d="M22508 4344
L22518 4344
L22523 4346
L22528 4351
L22530 4360
L22530 4377
L22528 4387
L22523 4391
L22518 4394
L22508 4394
L22504 4391
L22499 4387
L22497 4377
L22497 4360
L22499 4351
L22504 4346
L22508 4344
" />
<path d="M22539 4399
L22578 4399
" />
<path d="M22616 4346
L22611 4344
L22604 4344
L22597 4346
L22592 4351
L22589 4356
L22587 4365
L22587 4372
L22589 4382
L22592 4387
L22597 4391
L22604 4394
L22608 4394
L22616 4391
L22618 4389
L22618 4372
L22608 4372
" />
<path d="M22637 4349
L22639 4346
L22644 4344
L22656 4344
L22661 4346
L22663 4349
L22666 4353
L22666 4358
L22663 4365
L22635 4394
L22666 4394
" />
<path d="M22401 6846
L22397 6844
L22389 6844
L22382 6846
L22378 6851
L22375 6856
L22373 6865
L22373 6872
L22375 6882
L22378 6887
L22382 6891
L22389 6894
L22394 6894
L22401 6891
L22404 6889
L22404 6872
L22394 6872
" />
<path d="M22425 6894
L22425 6844
L22444 6844
L22449 6846
L22451 6849
L22454 6853
L22454 6860
L22451 6865
L22449 6868
L22444 6870
L22425 6870
" />
<path d="M22475 6894
L22475 6844
" />
<path d="M22508 6844
L22518 6844
L22523 6846
L22528 6851
L22530 6860
L22530 6877
L22528 6887
L22523 6891
L22518 6894
L22508 6894
L22504 6891
L22499 6887
L22497 6877
L22497 6860
L22499 6851
L22504 6846
L22508 6844
" />
<path d="M22539 6899
L22578 6899
" />
<path d="M22616 6846
L22611 6844
L22604 6844
L22597 6846
L22592 6851
L22589 6856
L22587 6865
L22587 6872
L22589 6882
L22592 6887
L22597 6891
L22604 6894
L22608 6894
L22616 6891
L22618 6889
L22618 6872
L22608 6872
" />
<path d="M22661 6860
L22661 6894
" />
<path d="M22649 6841
L22637 6877
L22668 6877
" />
<path d="M15792 9894
L15742 9894
" />
<path d="M15747 9872
L15744 9870
L15742 9865
L15742 9853
L15744 9849
L15747 9846
L15751 9844
L15756 9844
L15763 9846
L15792 9875
L15792 9844
" />
<path d="M15787 9794
L15789 9796
L15792 9803
L15792 9808
L15789 9815
L15785 9820
L15780 9822
L15770 9825
L15763 9825
L15754 9822
L15749 9820
L15744 9815
L15742 9808
L15742 9803
L15744 9796
L15747 9794
" />
<path d="M15792 9746
L15792 9775
" />
<path d="M15792 9760
L15742 9760
L15749 9765
L15754 9770
L15756 9775
" />
<path d="M22447 12494
L22447 12444
" />
<path d="M22468 12449
L22470 12446
L22475 12444
L22487 12444
L22492 12446
L22494 12449
L22497 12453
L22497 12458
L22494 12465
L22466 12494
L22497 12494
" />
<path d="M22547 12489
L22544 12491
L22537 12494
L22532 12494
L22525 12491
L22520 12487
L22518 12482
L22516 12472
L22516 12465
L22518 12456
L22520 12451
L22525 12446
L22532 12444
L22537 12444
L22544 12446
L22547 12449
" />
<path d="M22566 12449
L22568 12446
L22573 12444
L22585 12444
L22589 12446
L22592 12449
L22594 12453
L22594 12458
L22592 12465
L22563 12494
L22594 12494
" />
<path d="M22447 9494
L22447 9444
" />
<path d="M22468 9449
L22470 9446
L22475 9444
L22487 9444
L22492 9446
L22494 9449
L22497 9453
L22497 9458
L22494 9465
L22466 9494
L22497 9494
" />
<path d="M22547 9489
L22544 9491
L22537 9494
L22532 9494
L22525 9491
L22520 9487
L22518 9482
L22516 9472
L22516 9465
L22518 9456
L22520 9451
L22525 9446
L22532 9444
L22537 9444
L22544 9446
L22547 9449
" />
<path d="M22563 9444
L22594 9444
L22578 9463
L22585 9463
L22589 9465
L22592 9468
L22594 9472
L22594 9484
L22592 9489
L22589 9491
L22585 9494
L22570 9494
L22566 9491
L22563 9489
" />
</g>
<g style="fill:#008484; fill-opacity:0.0; 
stroke:#008484; stroke-width:12.5; stroke-opacity:1; 
stroke-linecap:round; stroke-linejoin:round;">
</g>
<g style="fill:#008484; fill-opacity:0.0; 
stroke:#008484; stroke-width:47.2441; stroke-opacity:1; 
stroke-linecap:round; stroke-linejoin:round;">
<path d="M18772 15371
L18772 20418
" />
<path d="M18772 20418
L19866 20418
" />
<path d="M19866 20418
L19866 15371
" />
<path d="M19866 15371
L18772 15371
" />
<path d="M18772 14871
L18772 14324
" />
<path d="M18772 14324
L19319 14324
" />
<path d="M21772 15371
L21772 20418
" />
<path d="M21772 20418
L22866 20418
" />
<path d="M22866 20418
L22866 15371
" />
<path d="M22866 15371
L21772 15371
" />
<path d="M21772 14871
L21772 14324
" />
<path d="M21772 14324
L22319 14324
" />
</g>
<g style="fill:#008484; fill-opacity:1.0; 
stroke:#008484; stroke-width:3.93701; stroke-opacity:1; 
stroke-linecap:round; stroke-linejoin:round;">
<polyline style="fill-rule:evenodd;"
points="2324,4246
2361,4246
2389,4247
2408,4248
2421,4249
2429,4251
2434,4254
2437,4257
2438,4260
2441,4270
2445,4291
2451,4319
2458,4355
2466,4394
2469,4415
2477,4455
2484,4492
2490,4523
2496,4547
2499,4561
2500,4564
2507,4569
2523,4577
2547,4588
2575,4601
2606,4614
2637,4627
2666,4639
2692,4649
2711,4656
2721,4659
2722,4659
2728,4655
2744,4646
2767,4631
2796,4612
2829,4590
2856,4571
2892,4547
2924,4525
2951,4507
2973,4494
2986,4486
2991,4484
2997,4488
3011,4500
3030,4518
3054,4541
3080,4566
3107,4594
3134,4621
3160,4648
3181,4671
3199,4690
3210,4703
3213,4709
3210,4717
3201,4733
3186,4756
3165,4789
3137,4831
3102,4882
3084,4907
3068,4931
3055,4951
3047,4967
3044,4973
3047,4981
3053,4998
3063,5023
3074,5051
3088,5083
3101,5114
3114,5144
3125,5170
3134,5189
3139,5199
3140,5200
3147,5202
3164,5206
3190,5212
3224,5218
3262,5226
3288,5231
3329,5238
3367,5246
3399,5252
3423,5257
3438,5260
3442,5261
3444,5264
3447,5272
3448,5285
3449,5306
3450,5336
3450,5375
3450,5424
3450,5473
3450,5510
3450,5539
3449,5559
3447,5572
3445,5580
3443,5584
3439,5586
3429,5589
3409,5593
3384,5597
3372,5599
3311,5610
3262,5620
3223,5627
3193,5634
3171,5639
3156,5644
3148,5648
3146,5650
3142,5658
3134,5676
3124,5700
3111,5730
3098,5762
3085,5794
3073,5825
3062,5851
3055,5871
3051,5883
3050,5885
3054,5892
3063,5907
3078,5929
3097,5957
3119,5989
3132,6008
3155,6043
3176,6074
3193,6101
3205,6122
3212,6135
3213,6138
3209,6146
3196,6161
3177,6183
3152,6210
3122,6240
3104,6258
3070,6292
3044,6317
3024,6336
3010,6349
2999,6356
2992,6360
2986,6360
2981,6358
2981,6358
2972,6353
2954,6341
2930,6325
2900,6305
2868,6282
2859,6277
2827,6254
2797,6235
2773,6219
2754,6208
2745,6203
2743,6202
2735,6205
2718,6212
2696,6223
2680,6231
2655,6243
2635,6252
2622,6255
2619,6254
2615,6247
2607,6230
2596,6205
2582,6172
2566,6133
2548,6091
2541,6074
2521,6026
2501,5977
2481,5931
2464,5889
2449,5853
2438,5827
2438,5825
2426,5797
2416,5772
2410,5753
2407,5744
2407,5743
2411,5736
2424,5724
2442,5709
2446,5707
2500,5662
2543,5613
2574,5560
2594,5502
2602,5440
2602,5424
2597,5362
2581,5304
2553,5251
2513,5201
2513,5200
2466,5159
2414,5128
2358,5108
2300,5098
2241,5099
2183,5111
2127,5133
2075,5167
2057,5181
2013,5228
1981,5281
1960,5338
1951,5400
1950,5420
1955,5483
1969,5539
1993,5590
2027,5637
2073,5681
2101,5702
2120,5718
2135,5732
2143,5741
2144,5744
2142,5751
2135,5769
2125,5796
2112,5830
2095,5869
2077,5914
2062,5951
2042,6000
2022,6048
2004,6092
1988,6131
1975,6163
1965,6187
1961,6196
1949,6225
1940,6243
1930,6252
1918,6253
1901,6246
1875,6233
1872,6231
1848,6219
1828,6209
1814,6203
1810,6202
1802,6206
1786,6215
1763,6230
1734,6249
1702,6271
1682,6284
1648,6307
1618,6327
1592,6344
1573,6357
1561,6364
1559,6365
1553,6361
1540,6349
1521,6330
1497,6307
1468,6279
1446,6257
1416,6227
1389,6199
1367,6175
1350,6156
1340,6143
1338,6139
1341,6131
1351,6114
1366,6090
1385,6061
1407,6028
1419,6010
1442,5976
1463,5946
1480,5920
1492,5900
1499,5888
1500,5885
1498,5876
1492,5858
1482,5833
1471,5803
1458,5771
1445,5738
1432,5707
1420,5681
1411,5660
1405,5649
1404,5647
1396,5644
1377,5639
1350,5632
1316,5625
1277,5618
1256,5614
1216,5606
1179,5599
1148,5592
1125,5587
1111,5583
1108,5582
1106,5574
1103,5555
1102,5529
1100,5496
1100,5459
1100,5421
1100,5382
1101,5345
1102,5313
1104,5287
1106,5269
1109,5261
1109,5261
1117,5259
1136,5255
1164,5250
1198,5243
1237,5236
1263,5231
1304,5223
1341,5216
1372,5209
1396,5204
1410,5200
1413,5198
1418,5190
1426,5173
1437,5148
1449,5119
1463,5088
1476,5056
1488,5027
1498,5002
1504,4984
1507,4975
1507,4974
1503,4966
1494,4950
1479,4926
1460,4897
1438,4863
1425,4844
1401,4809
1380,4778
1362,4750
1349,4729
1341,4716
1339,4713
1341,4706
1348,4696
1361,4679
1381,4657
1409,4628
1445,4592
1475,4562
1503,4535
1527,4513
1545,4496
1557,4486
1561,4484
1568,4487
1584,4497
1607,4511
1636,4530
1669,4553
1693,4569
1728,4593
1760,4615
1787,4633
1808,4646
1822,4655
1826,4657
1834,4655
1852,4650
1876,4641
1905,4630
1937,4618
1968,4605
1998,4593
2022,4583
2040,4574
2048,4569
2052,4561
2057,4543
2063,4515
2070,4481
2078,4442
2084,4410
2092,4368
2100,4329
2106,4297
2111,4272
2115,4257
2116,4252
2123,4250
2141,4249
2169,4248
2204,4247
2246,4246
2276,4246
2324,4246
" /> 
<polyline style="fill-rule:evenodd;"
points="5792,21845
5802,21852
5813,21857
5829,21861
5852,21864
5885,21866
5930,21866
5991,21867
6069,21867
6317,21867
6317,22409
6075,22408
5987,22408
5915,22406
5861,22404
5826,22400
5812,22397
5798,22388
5787,22379
5779,22366
5773,22347
5769,22319
5767,22280
5766,22227
5765,22157
5765,22120
5892,22120
5895,22173
5909,22223
5936,22266
5973,22296
6007,22307
6050,22314
6095,22315
6134,22310
6151,22304
6167,22286
6171,22269
6170,22254
6162,22249
6143,22252
6126,22255
6068,22261
6019,22250
5983,22225
5968,22206
5960,22182
5958,22147
5958,22136
5959,22100
5964,22076
5975,22059
5988,22047
6006,22034
6024,22026
6049,22024
6087,22025
6095,22025
6134,22027
6157,22026
6168,22021
6171,22012
6171,22006
6162,21986
6137,21972
6102,21965
6060,21964
6016,21970
5976,21983
5957,21992
5923,22025
5901,22069
5892,22120
5765,22120
5765,22088
5765,21824
5792,21845
" /> 
<polyline style="fill-rule:evenodd;"
points="6942,22409
6432,22409
6432,22315
6640,22315
6703,22315
6703,21959
6674,21963
6645,21966
6642,22140
6640,22315
6432,22315
6432,21867
6942,21867
6942,22409
" /> 
<polyline style="fill-rule:evenodd;"
points="8492,21372
8548,21379
8593,21388
8624,21401
8631,21406
8633,21419
8630,21446
8624,21482
8616,21519
8607,21552
8599,21576
8595,21582
8583,21582
8558,21577
8535,21571
8451,21555
8370,21557
8296,21576
8230,21611
8187,21650
8148,21704
8123,21763
8111,21833
8109,21883
8117,21973
8140,22049
8179,22111
8233,22160
8257,22174
8290,22191
8322,22200
8361,22206
8400,22208
8467,22208
8524,22202
8544,22197
8574,22190
8594,22185
8598,22185
8600,22196
8605,22222
8612,22259
8615,22273
8621,22313
8626,22344
8627,22362
8626,22364
8608,22372
8574,22381
8529,22389
8477,22396
8425,22401
8376,22404
8335,22403
8322,22402
8214,22380
8120,22344
8041,22293
7977,22228
7928,22149
7896,22059
7886,22003
7881,21935
7881,21863
7886,21794
7895,21738
7896,21737
7931,21641
7982,21558
8049,21487
8128,21432
8220,21393
8257,21383
8309,21374
8368,21369
8431,21369
8492,21372
" /> 
<polyline style="fill-rule:evenodd;"
points="9260,21369
9320,21374
9373,21381
9415,21391
9441,21404
9444,21406
9445,21419
9442,21446
9436,21482
9428,21519
9420,21552
9411,21576
9408,21582
9396,21582
9370,21577
9347,21571
9264,21555
9183,21557
9108,21576
9041,21612
9001,21647
8963,21697
8938,21754
8925,21822
8921,21890
8929,21977
8952,22051
8990,22112
9045,22160
9068,22174
9102,22190
9134,22200
9172,22206
9213,22208
9279,22208
9337,22202
9356,22197
9386,22189
9406,22184
9411,22184
9413,22194
9417,22219
9423,22256
9426,22272
9433,22313
9437,22344
9438,22362
9438,22364
9426,22369
9401,22376
9378,22382
9304,22396
9220,22402
9137,22401
9093,22397
9021,22381
8946,22352
8879,22315
8853,22297
8813,22257
8774,22204
8739,22143
8714,22082
8713,22078
8701,22024
8694,21956
8692,21884
8695,21814
8703,21753
8707,21735
8741,21644
8793,21562
8858,21491
8936,21435
9023,21395
9087,21378
9139,21371
9198,21368
9260,21369
" /> 
<polyline style="fill-rule:evenodd;"
points="7755,21564
7564,21567
7374,21570
7371,21672
7368,21773
7734,21773
7734,21960
7554,21963
7374,21966
7371,22083
7369,22200
7775,22200
7775,22388
7150,22388
7150,21377
7755,21377
7755,21564
" /> 
<polyline style="fill-rule:evenodd;"
points="9807,22388
9588,22388
9588,21377
9807,21377
9807,22388
" /> 
<polyline style="fill-rule:evenodd;"
points="5778,21182
5778,21182
5790,21194
5806,21204
5830,21210
5863,21215
5909,21219
5969,21220
6046,21221
6083,21221
6317,21221
6317,21752
6069,21752
5990,21752
5929,21752
5884,21751
5852,21749
5829,21747
5813,21743
5802,21738
5792,21731
5765,21709
5765,21679
5921,21679
6140,21679
6140,21653
6139,21640
6133,21632
6118,21629
6089,21627
6062,21627
5984,21627
5984,21534
6130,21534
6130,21471
5984,21471
5984,21389
6059,21386
6098,21384
6121,21381
6131,21375
6135,21364
6135,21357
6134,21345
6130,21337
6117,21333
6094,21330
6055,21328
6028,21328
5921,21325
5921,21679
5765,21679
5765,21437
5765,21353
5766,21288
5767,21240
5768,21208
5771,21188
5774,21180
5778,21182
" /> 
<polyline style="fill-rule:evenodd;"
points="6942,21752
6432,21752
6432,21500
6536,21500
6543,21563
6565,21614
6600,21651
6645,21672
6680,21677
6723,21678
6763,21675
6790,21669
6810,21654
6818,21633
6812,21615
6799,21614
6774,21617
6760,21620
6703,21625
6657,21614
6623,21587
6603,21545
6598,21503
6605,21451
6626,21413
6647,21397
6675,21389
6715,21385
6757,21386
6793,21392
6795,21392
6811,21395
6817,21382
6817,21374
6808,21351
6781,21336
6742,21328
6692,21329
6690,21329
6628,21344
6582,21372
6552,21414
6537,21470
6536,21500
6432,21500
6432,21221
6942,21221
6942,21752
" /> 
<polyline style="fill-rule:evenodd;"
points="5950,21173
5947,21178
5936,21179
5925,21176
5930,21172
5946,21171
5950,21173
" /> 
<polyline style="fill-rule:evenodd;"
points="7320,20954
7324,20967
7327,20994
7328,21038
7328,21042
7327,21087
7325,21117
7319,21136
7310,21150
7303,21157
7270,21176
7233,21179
7198,21167
7182,21152
7171,21134
7165,21112
7162,21080
7161,21037
7161,20995
7163,20969
7167,20956
7175,20951
7182,20950
7192,20952
7198,20960
7201,20978
7202,21010
7203,21038
7204,21090
7211,21124
7222,21142
7241,21148
7251,21146
7273,21132
7288,21098
7295,21047
7296,21021
7297,20982
7301,20960
7308,20951
7312,20950
7320,20954
" /> 
<polyline style="fill-rule:evenodd;"
points="7611,20954
7615,20966
7618,20990
7619,21029
7619,21065
7619,21115
7618,21148
7615,21168
7610,21177
7602,21179
7601,21179
7586,21170
7563,21142
7535,21096
7533,21093
7484,21008
7484,21094
7483,21137
7481,21163
7475,21176
7468,21179
7461,21176
7457,21164
7454,21140
7453,21101
7453,21065
7453,21015
7454,20982
7457,20962
7462,20953
7469,20950
7473,20950
7488,20957
7508,20979
7533,21018
7541,21031
7588,21111
7588,21031
7589,20989
7592,20964
7597,20952
7604,20950
7611,20954
" /> 
<polyline style="fill-rule:evenodd;"
points="7767,20954
7771,20966
7774,20990
7775,21029
7775,21065
7775,21116
7773,21150
7770,21169
7765,21178
7760,21179
7753,21176
7748,21164
7746,21140
7744,21101
7744,21065
7745,21014
7746,20980
7750,20960
7755,20952
7760,20950
7767,20954
" /> 
<polyline style="fill-rule:evenodd;"
points="8053,20955
8054,20963
8049,20978
8039,21008
8026,21048
8016,21078
8000,21124
7988,21154
7978,21171
7967,21178
7959,21179
7948,21177
7938,21169
7929,21150
7917,21118
7902,21071
7889,21027
7878,20990
7871,20965
7869,20957
7878,20951
7889,20950
7899,20953
7908,20962
7917,20981
7927,21012
7940,21059
7950,21096
7955,21113
7959,21119
7964,21112
7972,21091
7984,21052
7988,21041
8002,20997
8013,20970
8023,20955
8034,20950
8037,20950
8053,20955
" /> 
<polyline style="fill-rule:evenodd;"
points="8249,20951
8269,20956
8275,20964
8275,20966
8269,20977
8246,20981
8234,20982
8207,20983
8195,20989
8192,21006
8192,21013
8194,21033
8203,21042
8225,21044
8234,21044
8263,21047
8275,21055
8275,21060
8269,21071
8246,21075
8234,21075
8207,21076
8195,21083
8192,21101
8192,21112
8193,21134
8200,21145
8218,21148
8239,21148
8270,21150
8284,21157
8286,21164
8281,21173
8265,21177
8234,21179
8218,21179
8150,21179
8150,20950
8213,20950
8249,20951
" /> 
<polyline style="fill-rule:evenodd;"
points="8489,20953
8518,20963
8532,20982
8536,21007
8532,21034
8522,21053
8521,21054
8512,21066
8515,21083
8520,21094
8533,21126
8540,21151
8542,21172
8534,21179
8527,21179
8511,21172
8497,21149
8493,21135
8479,21104
8463,21090
8455,21088
8441,21088
8434,21096
8432,21119
8432,21132
8430,21161
8425,21176
8413,21179
8411,21179
8402,21178
8396,21172
8392,21157
8391,21130
8390,21086
8390,21065
8390,21041
8433,21041
8439,21052
8451,21054
8475,21047
8488,21038
8502,21014
8497,20994
8474,20981
8462,20979
8445,20980
8437,20991
8434,21015
8433,21041
8390,21041
8390,20950
8443,20950
8489,20953
" /> 
<polyline style="fill-rule:evenodd;"
points="8755,20953
8769,20958
8769,20959
8769,20973
8752,20983
8723,20987
8694,20991
8683,21003
8690,21020
8715,21040
8723,21044
8762,21070
8780,21099
8778,21129
8768,21146
8749,21165
8722,21175
8700,21177
8670,21177
8650,21173
8646,21170
8643,21153
8657,21144
8685,21145
8718,21144
8736,21131
8740,21112
8727,21091
8701,21075
8666,21053
8648,21024
8648,20992
8649,20990
8663,20967
8677,20957
8700,20952
8729,20951
8755,20953
" /> 
<polyline style="fill-rule:evenodd;"
points="8920,20952
8926,20958
8929,20973
8931,21000
8932,21043
8932,21065
8931,21115
8930,21148
8928,21167
8923,21176
8915,21179
8911,21179
8902,21178
8896,21172
8892,21157
8891,21130
8890,21086
8890,21065
8890,21015
8891,20982
8894,20963
8899,20953
8907,20950
8911,20950
8920,20952
" /> 
<polyline style="fill-rule:evenodd;"
points="9148,20952
9174,20959
9197,20973
9199,20975
9217,20993
9225,21013
9228,21042
9229,21059
9227,21095
9220,21119
9205,21140
9200,21145
9179,21162
9153,21172
9115,21177
9109,21177
9046,21182
9046,21148
9087,21148
9117,21148
9149,21140
9167,21126
9181,21100
9187,21064
9185,21029
9175,21002
9171,20998
9150,20986
9124,20980
9093,20976
9090,21062
9087,21148
9046,21148
9046,20950
9108,20950
9148,20952
" /> 
<polyline style="fill-rule:evenodd;"
points="9433,20952
9443,20959
9452,20974
9462,21002
9476,21046
9478,21052
9491,21096
9503,21133
9510,21159
9513,21166
9508,21177
9496,21179
9476,21170
9464,21148
9454,21127
9436,21118
9417,21117
9392,21119
9380,21130
9374,21148
9364,21173
9348,21179
9331,21176
9328,21172
9330,21160
9338,21132
9350,21093
9353,21083
9390,21083
9399,21085
9416,21086
9436,21083
9442,21078
9439,21064
9433,21038
9430,21028
9419,20987
9404,21034
9396,21062
9391,21080
9390,21083
9353,21083
9360,21057
9375,21010
9386,20979
9396,20961
9405,20953
9417,20950
9420,20950
9433,20952
" /> 
<polyline style="fill-rule:evenodd;"
points="9721,20952
9747,20959
9769,20973
9772,20975
9790,20993
9798,21013
9801,21042
9801,21059
9800,21095
9793,21119
9778,21140
9773,21145
9752,21162
9726,21172
9688,21177
9682,21177
9619,21182
9619,21148
9660,21148
9690,21148
9722,21140
9740,21126
9754,21100
9760,21064
9758,21029
9747,21002
9744,20998
9723,20986
9697,20980
9666,20976
9663,21062
9660,21148
9619,21148
9619,20950
9681,20950
9721,20952
" /> 
<polyline style="fill-rule:evenodd;"
points="6916,21060
6921,21078
6921,21091
6921,21115
6919,21127
6919,21128
6904,21129
6871,21131
6823,21133
6762,21136
6692,21140
6614,21143
6531,21147
6447,21151
6364,21155
6285,21158
6211,21161
6147,21164
6095,21166
6058,21167
6037,21168
6036,21168
6034,21166
6051,21163
6085,21157
6134,21150
6197,21141
6272,21131
6358,21120
6432,21111
6527,21099
6616,21089
6698,21079
6768,21070
6826,21063
6870,21058
6896,21056
6903,21055
6916,21060
" /> 
<polyline style="fill-rule:evenodd;"
points="5918,21152
5915,21157
5905,21158
5894,21155
5898,21152
5915,21150
5918,21152
" /> 
<polyline style="fill-rule:evenodd;"
points="6742,20970
6744,20992
6744,20997
6741,21024
6731,21034
6731,21034
6718,21035
6687,21039
6640,21046
6579,21055
6508,21066
6427,21078
6341,21091
6338,21091
6229,21107
6139,21121
6067,21131
6012,21139
5972,21144
5946,21146
5933,21147
5932,21145
5937,21143
5949,21139
5979,21132
6024,21122
6081,21109
6147,21093
6220,21077
6297,21059
6376,21041
6453,21024
6526,21007
6592,20992
6649,20980
6694,20970
6724,20963
6737,20961
6737,20961
6742,20970
" /> 
<polyline style="fill-rule:evenodd;"
points="5876,21131
5875,21137
5869,21138
5861,21134
5862,21131
5875,21130
5876,21131
" /> 
<polyline style="fill-rule:evenodd;"
points="6555,20932
6556,20956
6553,20968
6541,20972
6513,20980
6470,20991
6416,21004
6353,21020
6285,21037
6214,21054
6144,21071
6077,21086
6016,21101
5965,21112
5926,21121
5902,21126
5896,21127
5903,21123
5927,21114
5967,21100
6020,21081
6084,21059
6157,21034
6218,21014
6551,20902
6555,20932
" /> 
<polyline style="fill-rule:evenodd;"
points="5845,21110
5843,21116
5838,21117
5829,21113
5831,21110
5843,21109
5845,21110
" /> 
<polyline style="fill-rule:evenodd;"
points="6377,20875
6378,20895
6378,20899
6374,20933
6124,21019
6039,21048
5972,21071
5922,21088
5888,21098
5867,21104
5859,21105
5863,21101
5869,21097
5883,21090
5913,21076
5956,21057
6010,21033
6072,21005
6124,20982
6190,20952
6250,20926
6301,20903
6340,20885
6365,20874
6373,20870
6377,20875
" /> 
<polyline style="fill-rule:evenodd;"
points="11931,22246
11933,22248
11930,22256
11923,22272
11913,22296
11901,22323
11889,22352
11877,22379
11866,22402
11859,22418
11855,22424
11851,22420
11844,22407
11840,22397
11831,22378
11819,22351
11806,22321
11800,22308
11790,22282
11783,22262
11780,22249
11780,22245
11789,22245
11799,22252
11809,22267
11821,22294
11826,22304
11837,22327
11846,22345
11853,22355
11855,22356
11860,22349
11868,22333
11879,22311
11884,22299
11898,22271
11908,22253
11917,22245
11920,22244
11931,22246
" /> 
<polyline style="fill-rule:evenodd;"
points="10771,22170
10797,22176
10819,22186
10833,22197
10837,22207
10835,22216
10826,22217
10809,22209
10807,22209
10772,22197
10737,22196
10704,22205
10678,22224
10666,22239
10654,22269
10653,22302
10660,22334
10675,22361
10698,22380
10699,22381
10725,22389
10757,22391
10789,22386
10804,22381
10824,22373
10835,22372
10839,22377
10839,22381
10833,22393
10817,22403
10794,22411
10766,22415
10738,22416
10713,22413
10696,22407
10668,22389
10648,22366
10638,22350
10629,22318
10626,22283
10633,22249
10635,22242
10651,22217
10675,22194
10704,22177
10719,22171
10744,22168
10771,22170
" /> 
<polyline style="fill-rule:evenodd;"
points="10994,22247
11012,22252
11018,22261
11017,22267
11010,22274
10994,22274
10991,22273
10975,22273
10965,22277
10958,22289
10954,22309
10951,22341
10951,22351
10950,22381
10948,22400
10945,22411
10940,22416
10938,22417
10933,22416
10929,22412
10927,22403
10926,22385
10926,22357
10926,22332
10926,22246
10964,22245
10994,22247
" /> 
<polyline style="fill-rule:evenodd;"
points="11187,22245
11215,22255
11225,22262
11241,22280
11253,22305
11259,22330
11259,22333
11253,22335
11236,22336
11211,22337
11185,22338
11153,22338
11132,22338
11120,22340
11115,22343
11115,22348
11116,22353
11128,22374
11148,22387
11172,22391
11196,22385
11213,22374
11229,22363
11240,22362
11246,22371
11246,22374
11241,22384
11230,22397
11229,22398
11209,22410
11181,22416
11152,22416
11127,22409
11124,22408
11103,22389
11091,22363
11086,22334
11089,22304
11090,22302
11119,22302
11123,22307
11135,22310
11157,22311
11173,22311
11199,22310
11217,22308
11226,22305
11226,22304
11222,22295
11213,22284
11196,22274
11174,22271
11152,22273
11134,22281
11122,22293
11119,22302
11090,22302
11100,22278
11120,22258
11126,22255
11155,22245
11187,22245
" /> 
<polyline style="fill-rule:evenodd;"
points="11494,22247
11496,22255
11498,22271
11499,22297
11499,22331
11499,22368
11498,22393
11496,22408
11493,22416
11490,22418
11480,22412
11477,22407
11472,22401
11465,22402
11458,22407
11441,22414
11418,22418
11411,22418
11389,22416
11372,22410
11354,22395
11354,22395
11340,22381
11333,22370
11330,22354
11329,22335
11354,22335
11361,22361
11374,22378
11395,22389
11420,22391
11445,22385
11459,22375
11472,22352
11475,22325
11468,22300
11460,22288
11440,22275
11415,22270
11391,22274
11373,22284
11357,22308
11354,22335
11329,22335
11329,22331
11330,22308
11333,22293
11340,22281
11354,22267
11373,22253
11390,22246
11409,22244
11432,22246
11452,22251
11457,22253
11470,22258
11476,22255
11478,22253
11486,22245
11490,22244
11494,22247
" /> 
<polyline style="fill-rule:evenodd;"
points="11627,22173
11631,22180
11632,22195
11633,22208
11633,22229
11635,22240
11641,22244
11649,22244
11662,22248
11666,22258
11662,22268
11650,22271
11641,22272
11635,22278
11633,22291
11631,22309
11632,22345
11641,22371
11657,22386
11678,22391
11700,22386
11716,22383
11725,22387
11726,22388
11729,22396
11721,22403
11713,22407
11686,22417
11660,22414
11641,22405
11624,22392
11613,22376
11608,22355
11606,22325
11606,22321
11605,22297
11603,22283
11599,22276
11593,22273
11582,22265
11579,22257
11584,22246
11593,22244
11600,22243
11604,22236
11606,22221
11606,22208
11606,22187
11609,22176
11615,22172
11619,22171
11627,22173
" /> 
<polyline style="fill-rule:evenodd;"
points="12099,22247
12119,22251
12128,22258
12126,22267
12115,22272
12099,22273
12083,22272
12071,22276
12064,22287
12061,22308
12059,22339
12059,22352
12059,22382
12058,22401
12056,22412
12052,22417
12046,22418
12046,22418
12040,22417
12037,22413
12034,22405
12033,22389
12033,22364
12033,22332
12033,22246
12070,22245
12099,22247
" /> 
<polyline style="fill-rule:evenodd;"
points="12326,22249
12337,22253
12350,22258
12356,22255
12358,22253
12366,22246
12373,22244
12379,22245
12382,22249
12384,22258
12385,22274
12385,22299
12384,22329
12383,22365
12382,22389
12380,22404
12377,22412
12373,22416
12371,22417
12361,22414
12359,22408
12357,22399
12348,22401
12336,22408
12320,22415
12296,22417
12271,22416
12255,22411
12232,22395
12216,22372
12209,22343
12209,22338
12236,22338
12244,22363
12252,22374
12273,22388
12297,22392
12322,22387
12338,22376
12353,22351
12356,22323
12347,22297
12336,22282
12318,22273
12295,22271
12271,22276
12252,22288
12252,22288
12239,22311
12236,22338
12209,22338
12211,22313
12221,22285
12240,22261
12265,22248
12295,22244
12326,22249
" /> 
<polyline style="fill-rule:evenodd;"
points="11465,20916
11466,20919
11469,20929
11476,20947
11487,20971
11494,20985
11523,21042
11585,21050
11634,21058
11671,21069
11698,21084
11717,21102
11719,21105
11732,21122
11743,21132
11757,21136
11778,21138
11790,21138
11818,21139
11847,21140
11862,21142
11881,21146
11890,21151
11893,21160
11897,21173
11908,21188
11909,21188
11923,21207
11925,21226
11921,21258
11913,21281
11901,21293
11897,21294
11852,21305
11806,21314
11761,21323
11720,21330
11686,21335
11661,21337
11653,21338
11617,21334
11594,21324
11576,21315
11565,21312
11563,21315
11572,21325
11574,21328
11590,21340
11607,21349
11625,21354
11649,21355
11679,21352
11718,21346
11758,21338
11796,21331
11830,21324
11857,21319
11876,21315
11883,21313
11892,21312
11890,21316
11885,21321
11872,21329
11852,21337
11845,21339
11813,21349
11776,21365
11741,21384
11712,21404
11710,21406
11681,21437
11664,21474
11659,21509
11660,21528
11663,21556
11667,21590
11672,21628
11673,21638
11681,21710
11684,21773
11680,21827
11670,21877
11653,21922
11632,21961
11601,22003
11561,22044
11513,22084
11460,22118
11406,22146
11403,22148
11376,22159
11361,22164
11357,22163
11363,22155
11378,22141
11382,22137
11406,22114
11425,22091
11439,22067
11450,22039
11452,22032
11507,22032
11517,22029
11536,22020
11537,22019
11555,22006
11573,21985
11591,21954
11610,21914
11620,21890
11626,21868
11630,21845
11632,21815
11632,21803
11632,21773
11631,21748
11630,21730
11629,21724
11624,21712
11619,21713
11616,21727
11613,21753
11611,21793
11611,21796
11610,21833
11608,21861
11604,21881
11599,21899
11592,21917
11591,21919
11576,21945
11556,21972
11540,21991
11519,22013
11508,22026
11507,22032
11452,22032
11459,22005
11465,21964
11469,21914
11472,21852
11472,21848
11476,21784
11480,21731
11487,21688
11495,21652
11507,21621
11521,21595
11540,21569
11553,21554
11566,21539
11574,21527
11574,21522
11565,21524
11552,21535
11536,21552
11520,21573
11505,21596
11495,21612
11478,21657
11467,21713
11461,21781
11459,21829
11458,21899
11452,21958
11443,22008
11429,22049
11411,22083
11395,22104
11381,22119
11363,22135
11344,22150
11329,22160
11319,22164
11319,22159
11324,22145
11331,22132
11344,22094
11353,22045
11357,21990
11356,21931
11350,21871
11339,21812
11333,21788
11312,21729
11287,21676
11257,21631
11225,21595
11191,21569
11157,21554
11133,21551
11111,21551
11130,21529
11144,21510
11155,21489
11164,21463
11171,21429
11176,21402
11179,21382
11307,21382
11313,21432
11333,21485
11365,21542
11378,21559
11391,21576
11401,21588
11405,21591
11407,21585
11409,21568
11410,21545
11410,21533
11410,21500
11413,21477
11418,21459
11423,21448
11443,21422
11470,21403
11500,21394
11521,21394
11538,21396
11545,21393
11544,21390
11536,21382
11518,21379
11496,21380
11473,21385
11460,21391
11433,21409
11414,21432
11401,21463
11394,21505
11393,21511
11389,21554
11369,21521
11342,21471
11327,21423
11323,21381
11326,21348
11335,21320
11337,21316
11526,21316
11531,21328
11543,21341
11558,21350
11564,21351
11570,21350
11567,21344
11560,21336
11550,21321
11546,21308
11548,21301
11557,21299
11569,21301
11587,21302
11592,21297
11586,21287
11585,21286
11569,21279
11552,21281
11537,21291
11527,21307
11526,21316
11337,21316
11352,21292
11378,21263
11394,21244
11399,21234
11396,21231
11384,21237
11366,21253
11363,21255
11332,21294
11313,21336
11307,21382
11179,21382
11183,21361
11190,21330
11198,21306
11208,21287
11217,21273
11225,21259
11227,21249
11222,21247
11211,21256
11211,21256
11193,21284
11178,21323
11166,21373
11163,21391
11157,21424
11150,21455
11142,21480
11138,21490
11126,21508
11109,21527
11091,21542
11075,21550
11070,21551
11066,21545
11067,21529
11071,21505
11078,21474
11088,21440
11100,21403
11113,21367
11126,21333
11139,21304
11168,21253
11200,21205
11234,21162
11269,21127
11302,21101
11318,21092
11333,21086
11344,21087
11357,21095
11358,21096
11371,21109
11386,21129
11398,21146
11412,21169
11428,21188
11442,21201
11453,21207
11458,21205
11455,21196
11445,21183
11441,21179
11425,21161
11410,21139
11407,21133
11392,21111
11373,21090
11369,21086
11344,21066
11358,21041
11426,21041
11427,21063
11431,21087
11437,21111
11443,21130
11448,21142
11451,21144
11456,21139
11464,21124
11469,21113
11474,21102
11513,21102
11515,21115
11515,21115
11521,21122
11533,21123
11548,21122
11596,21116
11632,21113
11656,21113
11668,21116
11669,21117
11667,21122
11653,21124
11641,21124
11617,21127
11601,21132
11593,21139
11596,21147
11610,21153
11614,21154
11636,21159
11621,21169
11610,21179
11606,21185
11607,21190
11611,21190
11622,21187
11637,21180
11672,21172
11692,21173
11718,21175
11740,21173
11755,21169
11759,21164
11753,21159
11743,21158
11727,21152
11713,21135
11692,21113
11663,21100
11625,21097
11578,21102
11570,21104
11545,21108
11532,21106
11528,21098
11529,21091
11529,21079
11526,21075
11520,21077
11516,21087
11513,21102
11474,21102
11480,21090
11493,21071
11498,21065
11515,21048
11500,21025
11488,21003
11474,20979
11471,20973
11462,20956
11454,20946
11452,20944
11446,20950
11440,20966
11433,20988
11429,21012
11426,21034
11426,21041
11358,21041
11366,21026
11378,21005
11395,20981
11413,20957
11431,20936
11446,20920
11457,20912
11460,20911
11465,20916
" /> 
<polyline style="fill-rule:evenodd;"
points="11945,21146
11952,21154
11952,21169
11948,21183
11944,21194
11938,21195
11927,21187
11921,21180
11908,21163
11907,21151
11918,21145
11929,21144
11945,21146
" /> 
</g>
<g style="fill:#008484; fill-opacity:1.0; 
stroke:#008484; stroke-width:59.0551; stroke-opacity:1; 
stroke-linecap:round; stroke-linejoin:round;">
</g>
<g style="fill:#008484; fill-opacity:0.0; 
stroke:#008484; stroke-width:59.0551; stroke-opacity:1; 
stroke-linecap:round; stroke-linejoin:round;">
<path d="M9794 5046
L9794 6046
" />
<path d="M9794 6046
L5794 6046
" />
<path d="M5794 6046
L5794 5046
" />
<path d="M5794 5046
L9794 5046
" />
<path d="M9794 6046
L9794 7046
" />
<path d="M9794 7046
L5794 7046
" />
<path d="M5794 7046
L5794 6046
" />
<path d="M5794 6046
L9794 6046
" />
<path d="M9794 10521
L9794 11521
" />
<path d="M9794 11521
L5794 11521
" />
<path d="M5794 11521
L5794 10521
" />
<path d="M5794 10521
L9794 10521
" />
<path d="M9794 11521
L9794 12521
" />
<path d="M9794 12521
L5794 12521
" />
<path d="M5794 12521
L5794 11521
" />
<path d="M5794 11521
L9794 11521
" />
<path d="M12819 9521
L13819 9521
" />
<path d="M13819 9521
L13819 13521
" />
<path d="M13819 13521
L12819 13521
" />
<path d="M12819 13521
L12819 9521
" />
<path d="M16819 4421
L16819 5421
" />
<path d="M16819 5421
L12819 5421
" />
<path d="M12819 5421
L12819 4421
" />
<path d="M12819 4421
L16819 4421
" />
<path d="M16819 6921
L16819 7921
" />
<path d="M16819 7921
L12819 7921
" />
<path d="M12819 7921
L12819 6921
" />
<path d="M12819 6921
L16819 6921
" />
<path d="M22819 4421
L22819 5421
" />
<path d="M22819 5421
L18819 5421
" />
<path d="M18819 5421
L18819 4421
" />
<path d="M18819 4421
L22819 4421
" />
<path d="M22819 6921
L22819 7921
" />
<path d="M22819 7921
L18819 7921
" />
<path d="M18819 7921
L18819 6921
" />
<path d="M18819 6921
L22819 6921
" />
<path d="M15819 9521
L16819 9521
" />
<path d="M16819 9521
L16819 13521
" />
<path d="M16819 13521
L15819 13521
" />
<path d="M15819 13521
L15819 9521
" />
<path d="M22819 12521
L22819 13521
" />
<path d="M22819 13521
L18819 13521
" />
<path d="M18819 13521
L18819 12521
" />
<path d="M18819 12521
L22819 12521
" />
<path d="M22819 9521
L22819 10521
" />
<path d="M22819 10521
L18819 10521
" />
<path d="M18819 10521
L18819 9521
" />
<path d="M18819 9521
L22819 9521
" />
</g> 
</svg>
