G04 #@! TF.FileFunction,Other,User*
%FSLAX46Y46*%
G04 Gerber Fmt 4.6, Leading zero omitted, Abs format (unit mm)*
G04 Created by KiCad (PCBNEW 4.0.0-rc1-stable) date 02/05/2017 19:54:53*
%MOMM*%
G01*
G04 APERTURE LIST*
%ADD10C,0.100000*%
%ADD11C,0.050000*%
%ADD12C,0.150000*%
G04 APERTURE END LIST*
D10*
D11*
X115011000Y-79578400D02*
X104211000Y-79578400D01*
X104211000Y-79578400D02*
X104211000Y-82778400D01*
X104211000Y-82778400D02*
X115011000Y-82778400D01*
X115011000Y-82778400D02*
X115011000Y-79578400D01*
X123241000Y-102438400D02*
X123241000Y-118338400D01*
X123241000Y-118338400D02*
X126441000Y-118338400D01*
X126441000Y-118338400D02*
X126441000Y-102438400D01*
X126441000Y-102438400D02*
X123241000Y-102438400D01*
D12*
X155659000Y-69786000D02*
G75*
G03X155659000Y-69786000I-3100000J0D01*
G01*
X97659000Y-118786000D02*
G75*
G03X97659000Y-118786000I-3100000J0D01*
G01*
X97659000Y-69786000D02*
G75*
G03X97659000Y-69786000I-3100000J0D01*
G01*
D11*
X130861000Y-102438400D02*
X130861000Y-118338400D01*
X130861000Y-118338400D02*
X134061000Y-118338400D01*
X134061000Y-118338400D02*
X134061000Y-102438400D01*
X134061000Y-102438400D02*
X130861000Y-102438400D01*
X104191000Y-105638400D02*
X114991000Y-105638400D01*
X114991000Y-105638400D02*
X114991000Y-102438400D01*
X114991000Y-102438400D02*
X104191000Y-102438400D01*
X104191000Y-102438400D02*
X104191000Y-105638400D01*
X104191000Y-108178400D02*
X114991000Y-108178400D01*
X114991000Y-108178400D02*
X114991000Y-104978400D01*
X114991000Y-104978400D02*
X104191000Y-104978400D01*
X104191000Y-104978400D02*
X104191000Y-108178400D01*
X104191000Y-110718400D02*
X114991000Y-110718400D01*
X114991000Y-110718400D02*
X114991000Y-107518400D01*
X114991000Y-107518400D02*
X104191000Y-107518400D01*
X104191000Y-107518400D02*
X104191000Y-110718400D01*
X104191000Y-115798400D02*
X114991000Y-115798400D01*
X114991000Y-115798400D02*
X114991000Y-112598400D01*
X114991000Y-112598400D02*
X104191000Y-112598400D01*
X104191000Y-112598400D02*
X104191000Y-115798400D01*
X115011000Y-115138400D02*
X104211000Y-115138400D01*
X104211000Y-115138400D02*
X104211000Y-118338400D01*
X104211000Y-118338400D02*
X115011000Y-118338400D01*
X115011000Y-118338400D02*
X115011000Y-115138400D01*
X115011000Y-77038400D02*
X104211000Y-77038400D01*
X104211000Y-77038400D02*
X104211000Y-80238400D01*
X104211000Y-80238400D02*
X115011000Y-80238400D01*
X115011000Y-80238400D02*
X115011000Y-77038400D01*
X115011000Y-91008400D02*
X104211000Y-91008400D01*
X104211000Y-91008400D02*
X104211000Y-94208400D01*
X104211000Y-94208400D02*
X115011000Y-94208400D01*
X115011000Y-94208400D02*
X115011000Y-91008400D01*
X115011000Y-93548400D02*
X104211000Y-93548400D01*
X104211000Y-93548400D02*
X104211000Y-96748400D01*
X104211000Y-96748400D02*
X115011000Y-96748400D01*
X115011000Y-96748400D02*
X115011000Y-93548400D01*
X123241000Y-88468400D02*
X123241000Y-99268400D01*
X123241000Y-99268400D02*
X126441000Y-99268400D01*
X126441000Y-99268400D02*
X126441000Y-88468400D01*
X126441000Y-88468400D02*
X123241000Y-88468400D01*
X134061000Y-75768400D02*
X123261000Y-75768400D01*
X123261000Y-75768400D02*
X123261000Y-78968400D01*
X123261000Y-78968400D02*
X134061000Y-78968400D01*
X134061000Y-78968400D02*
X134061000Y-75768400D01*
X134061000Y-82118400D02*
X123261000Y-82118400D01*
X123261000Y-82118400D02*
X123261000Y-85318400D01*
X123261000Y-85318400D02*
X134061000Y-85318400D01*
X134061000Y-85318400D02*
X134061000Y-82118400D01*
X149301000Y-75768400D02*
X138501000Y-75768400D01*
X138501000Y-75768400D02*
X138501000Y-78968400D01*
X138501000Y-78968400D02*
X149301000Y-78968400D01*
X149301000Y-78968400D02*
X149301000Y-75768400D01*
X149301000Y-82118400D02*
X138501000Y-82118400D01*
X138501000Y-82118400D02*
X138501000Y-85318400D01*
X138501000Y-85318400D02*
X149301000Y-85318400D01*
X149301000Y-85318400D02*
X149301000Y-82118400D01*
X130861000Y-88468400D02*
X130861000Y-99268400D01*
X130861000Y-99268400D02*
X134061000Y-99268400D01*
X134061000Y-99268400D02*
X134061000Y-88468400D01*
X134061000Y-88468400D02*
X130861000Y-88468400D01*
X149301000Y-96088400D02*
X138501000Y-96088400D01*
X138501000Y-96088400D02*
X138501000Y-99288400D01*
X138501000Y-99288400D02*
X149301000Y-99288400D01*
X149301000Y-99288400D02*
X149301000Y-96088400D01*
X149301000Y-88468400D02*
X138501000Y-88468400D01*
X138501000Y-88468400D02*
X138501000Y-91668400D01*
X138501000Y-91668400D02*
X149301000Y-91668400D01*
X149301000Y-91668400D02*
X149301000Y-88468400D01*
M02*
