G04 #@! TF.FileFunction,Legend,Bot*
%FSLAX46Y46*%
G04 Gerber Fmt 4.6, Leading zero omitted, Abs format (unit mm)*
G04 Created by KiCad (PCBNEW 4.0.0-rc1-stable) date 02/05/2017 19:54:53*
%MOMM*%
G01*
G04 APERTURE LIST*
%ADD10C,0.100000*%
%ADD11C,0.120000*%
G04 APERTURE END LIST*
D10*
D11*
X100711000Y-67148400D02*
X149031000Y-67148400D01*
X149031000Y-67148400D02*
X149031000Y-72348400D01*
X149031000Y-72348400D02*
X98111000Y-72348400D01*
X98111000Y-72348400D02*
X98111000Y-69748400D01*
X98111000Y-69748400D02*
X100711000Y-69748400D01*
X100711000Y-69748400D02*
X100711000Y-67148400D01*
X99441000Y-67148400D02*
X98111000Y-67148400D01*
X98111000Y-67148400D02*
X98111000Y-68478400D01*
X99371000Y-77308400D02*
X99371000Y-79908400D01*
X99371000Y-79908400D02*
X96751000Y-79908400D01*
X96751000Y-79908400D02*
X96751000Y-77308400D01*
X96751000Y-77308400D02*
X99371000Y-77308400D01*
X96751000Y-78258400D02*
X96751000Y-79018400D01*
X96751000Y-79018400D02*
X90751000Y-79018400D01*
X90751000Y-79018400D02*
X90751000Y-78258400D01*
X90751000Y-78258400D02*
X96751000Y-78258400D01*
X99801000Y-78258400D02*
X99371000Y-78258400D01*
X99801000Y-79018400D02*
X99371000Y-79018400D01*
X96751000Y-78378400D02*
X90751000Y-78378400D01*
X96751000Y-78498400D02*
X90751000Y-78498400D01*
X96751000Y-78618400D02*
X90751000Y-78618400D01*
X96751000Y-78738400D02*
X90751000Y-78738400D01*
X96751000Y-78858400D02*
X90751000Y-78858400D01*
X96751000Y-78978400D02*
X90751000Y-78978400D01*
X99371000Y-79908400D02*
X99371000Y-82508400D01*
X99371000Y-82508400D02*
X96751000Y-82508400D01*
X96751000Y-82508400D02*
X96751000Y-79908400D01*
X96751000Y-79908400D02*
X99371000Y-79908400D01*
X96751000Y-80798400D02*
X96751000Y-81558400D01*
X96751000Y-81558400D02*
X90751000Y-81558400D01*
X90751000Y-81558400D02*
X90751000Y-80798400D01*
X90751000Y-80798400D02*
X96751000Y-80798400D01*
X99801000Y-80798400D02*
X99371000Y-80798400D01*
X99801000Y-81558400D02*
X99371000Y-81558400D01*
X101981000Y-78638400D02*
X101981000Y-77368400D01*
X101981000Y-77368400D02*
X100711000Y-77368400D01*
M02*
