M48
;DRILL file {KiCad 4.0.6-e0-6349~53~ubuntu14.04.1} date Thu May  4 07:53:02 2017
;FORMAT={-:-/ absolute / metric / decimal}
FMAT,2
METRIC,TZ
T1C1.000
T2C2.750
%
G90
G05
M71
T1
X99.441Y-68.478
X99.441Y-71.018
X100.711Y-78.638
X100.711Y-81.178
X101.981Y-68.478
X101.981Y-71.018
X104.521Y-68.478
X104.521Y-71.018
X105.791Y-78.638
X105.791Y-81.178
X105.791Y-92.608
X105.791Y-95.148
X105.791Y-104.038
X105.791Y-106.578
X105.791Y-109.118
X105.791Y-114.198
X105.791Y-116.738
X107.061Y-68.478
X107.061Y-71.018
X108.331Y-78.638
X108.331Y-81.178
X108.331Y-92.608
X108.331Y-95.148
X108.331Y-104.038
X108.331Y-106.578
X108.331Y-109.118
X108.331Y-114.198
X108.331Y-116.738
X109.601Y-68.478
X109.601Y-71.018
X110.871Y-78.638
X110.871Y-81.178
X110.871Y-92.608
X110.871Y-95.148
X110.871Y-104.038
X110.871Y-106.578
X110.871Y-109.118
X110.871Y-114.198
X110.871Y-116.738
X112.141Y-68.478
X112.141Y-71.018
X113.411Y-78.638
X113.411Y-81.178
X113.411Y-92.608
X113.411Y-95.148
X113.411Y-104.038
X113.411Y-106.578
X113.411Y-109.118
X113.411Y-114.198
X113.411Y-116.738
X114.681Y-68.478
X114.681Y-71.018
X117.221Y-68.478
X117.221Y-71.018
X119.761Y-68.478
X119.761Y-71.018
X122.301Y-68.478
X122.301Y-71.018
X124.841Y-68.478
X124.841Y-71.018
X124.841Y-77.368
X124.841Y-83.718
X124.841Y-90.068
X124.841Y-92.608
X124.841Y-95.148
X124.841Y-97.688
X124.841Y-104.038
X124.841Y-106.578
X124.841Y-109.118
X124.841Y-111.658
X124.841Y-114.198
X124.841Y-116.738
X127.381Y-68.478
X127.381Y-71.018
X127.381Y-77.368
X127.381Y-83.718
X129.921Y-68.478
X129.921Y-71.018
X129.921Y-77.368
X129.921Y-83.718
X132.461Y-68.478
X132.461Y-71.018
X132.461Y-77.368
X132.461Y-83.718
X132.461Y-90.068
X132.461Y-92.608
X132.461Y-95.148
X132.461Y-97.688
X132.461Y-104.038
X132.461Y-106.578
X132.461Y-109.118
X132.461Y-111.658
X132.461Y-114.198
X132.461Y-116.738
X135.001Y-68.478
X135.001Y-71.018
X137.541Y-68.478
X137.541Y-71.018
X140.081Y-68.478
X140.081Y-71.018
X140.081Y-77.368
X140.081Y-83.718
X140.081Y-90.068
X140.081Y-97.688
X142.621Y-68.478
X142.621Y-71.018
X142.621Y-77.368
X142.621Y-83.718
X142.621Y-90.068
X142.621Y-97.688
X145.161Y-68.478
X145.161Y-71.018
X145.161Y-77.368
X145.161Y-83.718
X145.161Y-90.068
X145.161Y-97.688
X147.701Y-68.478
X147.701Y-71.018
X147.701Y-77.368
X147.701Y-83.718
X147.701Y-90.068
X147.701Y-97.688
T2
X94.559Y-69.786
X94.559Y-118.786
X152.559Y-69.786
T0
M30
