G75*
%MOIN*%
%OFA0B0*%
%FSLAX25Y25*%
%IPPOS*%
%LPD*%
%AMOC8*
5,1,8,0,0,1.08239X$1,22.5*
%
%ADD10C,0.00800*%
%ADD11R,0.05000X0.12480*%
%ADD12C,0.02500*%
%ADD13C,0.03000*%
%ADD14R,0.06000X0.12000*%
%ADD15C,0.05600*%
%ADD16C,0.05000*%
D10*
X0078007Y0081517D02*
X0079358Y0080707D01*
X0080820Y0080118D01*
X0082368Y0079827D01*
X0083943Y0079781D01*
X0085506Y0079982D01*
X0087018Y0080424D01*
X0088442Y0081098D01*
X0089744Y0081987D01*
X0090890Y0083068D01*
X0091853Y0084315D01*
X0092609Y0085697D01*
X0093140Y0087181D01*
X0095292Y0102959D01*
X0094084Y0102139D01*
X0092761Y0101523D01*
X0091357Y0101125D01*
X0089907Y0100956D01*
X0088448Y0101021D01*
X0087019Y0101317D01*
X0085655Y0101838D01*
X0084392Y0102569D01*
X0083261Y0103492D01*
X0082292Y0104584D01*
X0081509Y0105816D01*
X0080933Y0107158D01*
X0074246Y0092706D01*
X0073894Y0091170D01*
X0073786Y0089598D01*
X0073925Y0088029D01*
X0074309Y0086500D01*
X0074926Y0085051D01*
X0075763Y0083716D01*
X0076798Y0082528D01*
X0078007Y0081517D01*
X0077781Y0081705D02*
X0089331Y0081705D01*
X0090292Y0082504D02*
X0076827Y0082504D01*
X0076123Y0083302D02*
X0091071Y0083302D01*
X0091688Y0084101D02*
X0075522Y0084101D01*
X0075021Y0084899D02*
X0092173Y0084899D01*
X0092609Y0085698D02*
X0074650Y0085698D01*
X0074310Y0086496D02*
X0092895Y0086496D01*
X0093155Y0087295D02*
X0074109Y0087295D01*
X0073920Y0088093D02*
X0093264Y0088093D01*
X0093373Y0088892D02*
X0073849Y0088892D01*
X0073792Y0089690D02*
X0093482Y0089690D01*
X0093591Y0090489D02*
X0073847Y0090489D01*
X0073921Y0091287D02*
X0093700Y0091287D01*
X0093809Y0092086D02*
X0074104Y0092086D01*
X0074329Y0092884D02*
X0093918Y0092884D01*
X0094027Y0093683D02*
X0074698Y0093683D01*
X0075068Y0094481D02*
X0094136Y0094481D01*
X0094245Y0095280D02*
X0075437Y0095280D01*
X0075807Y0096078D02*
X0094354Y0096078D01*
X0094463Y0096877D02*
X0076176Y0096877D01*
X0076546Y0097675D02*
X0094572Y0097675D01*
X0094681Y0098474D02*
X0076915Y0098474D01*
X0077285Y0099272D02*
X0094790Y0099272D01*
X0094898Y0100071D02*
X0077654Y0100071D01*
X0078023Y0100869D02*
X0095007Y0100869D01*
X0095116Y0101668D02*
X0093073Y0101668D01*
X0094567Y0102466D02*
X0095225Y0102466D01*
X0086100Y0101668D02*
X0078393Y0101668D01*
X0078762Y0102466D02*
X0084569Y0102466D01*
X0083539Y0103265D02*
X0079132Y0103265D01*
X0079501Y0104063D02*
X0082754Y0104063D01*
X0082115Y0104862D02*
X0079871Y0104862D01*
X0080240Y0105660D02*
X0081608Y0105660D01*
X0081233Y0106459D02*
X0080610Y0106459D01*
X0059234Y0122143D02*
X0048877Y0110047D01*
X0047627Y0109088D01*
X0046243Y0108335D01*
X0044758Y0107809D01*
X0043209Y0107521D01*
X0041634Y0107479D01*
X0040071Y0107684D01*
X0038560Y0108131D01*
X0037138Y0108809D01*
X0035839Y0109701D01*
X0034696Y0110785D01*
X0033786Y0112071D01*
X0033088Y0113484D01*
X0032620Y0114988D01*
X0032393Y0116548D01*
X0032413Y0118123D01*
X0032679Y0119676D01*
X0033185Y0121168D01*
X0033918Y0122563D01*
X0034860Y0123826D01*
X0035988Y0124926D01*
X0049438Y0133452D01*
X0049196Y0132012D01*
X0049186Y0130552D01*
X0049409Y0129110D01*
X0049859Y0127721D01*
X0050525Y0126422D01*
X0051390Y0125246D01*
X0052431Y0124222D01*
X0053622Y0123378D01*
X0054932Y0122734D01*
X0056328Y0122307D01*
X0057774Y0122109D01*
X0059234Y0122143D01*
X0058795Y0121631D02*
X0033428Y0121631D01*
X0033071Y0120832D02*
X0058111Y0120832D01*
X0057427Y0120034D02*
X0032801Y0120034D01*
X0032604Y0119235D02*
X0056744Y0119235D01*
X0056060Y0118437D02*
X0032467Y0118437D01*
X0032407Y0117638D02*
X0055376Y0117638D01*
X0054693Y0116840D02*
X0032397Y0116840D01*
X0032467Y0116041D02*
X0054009Y0116041D01*
X0053325Y0115243D02*
X0032583Y0115243D01*
X0032790Y0114444D02*
X0052642Y0114444D01*
X0051958Y0113646D02*
X0033038Y0113646D01*
X0033403Y0112847D02*
X0051274Y0112847D01*
X0050591Y0112049D02*
X0033802Y0112049D01*
X0034366Y0111250D02*
X0049907Y0111250D01*
X0049223Y0110452D02*
X0035047Y0110452D01*
X0035908Y0109653D02*
X0048364Y0109653D01*
X0047199Y0108855D02*
X0037071Y0108855D01*
X0038814Y0108056D02*
X0045455Y0108056D01*
X0053927Y0123228D02*
X0034414Y0123228D01*
X0033848Y0122429D02*
X0055929Y0122429D01*
X0052707Y0124026D02*
X0035066Y0124026D01*
X0035885Y0124825D02*
X0051818Y0124825D01*
X0051112Y0125623D02*
X0037088Y0125623D01*
X0038348Y0126422D02*
X0050525Y0126422D01*
X0050116Y0127220D02*
X0039608Y0127220D01*
X0040868Y0128019D02*
X0049763Y0128019D01*
X0049504Y0128817D02*
X0042127Y0128817D01*
X0043387Y0129616D02*
X0049331Y0129616D01*
X0049207Y0130414D02*
X0044647Y0130414D01*
X0045907Y0131213D02*
X0049191Y0131213D01*
X0049196Y0132011D02*
X0047166Y0132011D01*
X0048426Y0132810D02*
X0049330Y0132810D01*
X0038321Y0150377D02*
X0015952Y0150377D01*
X0015844Y0150502D02*
X0016874Y0149310D01*
X0018078Y0148294D01*
X0019426Y0147478D01*
X0020885Y0146883D01*
X0022419Y0146524D01*
X0023991Y0146409D01*
X0025561Y0146541D01*
X0040811Y0151126D01*
X0039564Y0151885D01*
X0038454Y0152833D01*
X0037510Y0153946D01*
X0036755Y0155196D01*
X0036209Y0156550D01*
X0035886Y0157973D01*
X0035794Y0159430D01*
X0035936Y0160883D01*
X0036307Y0162295D01*
X0036898Y0163630D01*
X0037695Y0164853D01*
X0038677Y0165933D01*
X0022753Y0166025D01*
X0021209Y0165709D01*
X0019734Y0165155D01*
X0018364Y0164377D01*
X0017132Y0163395D01*
X0016069Y0162232D01*
X0015201Y0160917D01*
X0014550Y0159482D01*
X0014131Y0157963D01*
X0013955Y0156397D01*
X0014025Y0154823D01*
X0014402Y0153293D01*
X0015013Y0151841D01*
X0015844Y0150502D01*
X0015426Y0151176D02*
X0040729Y0151176D01*
X0039460Y0151974D02*
X0014957Y0151974D01*
X0014621Y0152773D02*
X0038525Y0152773D01*
X0037828Y0153571D02*
X0014333Y0153571D01*
X0014137Y0154370D02*
X0037254Y0154370D01*
X0036772Y0155168D02*
X0014010Y0155168D01*
X0013974Y0155967D02*
X0036444Y0155967D01*
X0036160Y0156765D02*
X0013996Y0156765D01*
X0014086Y0157564D02*
X0035979Y0157564D01*
X0035862Y0158362D02*
X0014241Y0158362D01*
X0014461Y0159161D02*
X0035811Y0159161D01*
X0035846Y0159959D02*
X0014767Y0159959D01*
X0015129Y0160758D02*
X0035923Y0160758D01*
X0036113Y0161556D02*
X0015624Y0161556D01*
X0016182Y0162355D02*
X0036333Y0162355D01*
X0036687Y0163153D02*
X0016912Y0163153D01*
X0017831Y0163952D02*
X0037108Y0163952D01*
X0037629Y0164750D02*
X0019021Y0164750D01*
X0020783Y0165549D02*
X0038328Y0165549D01*
X0035665Y0149579D02*
X0016642Y0149579D01*
X0017502Y0148780D02*
X0033008Y0148780D01*
X0030352Y0147982D02*
X0018593Y0147982D01*
X0020149Y0147183D02*
X0027695Y0147183D01*
X0079025Y0080907D02*
X0088037Y0080907D01*
X0085938Y0080108D02*
X0080875Y0080108D01*
X0125240Y0087181D02*
X0123088Y0102959D01*
X0124295Y0102139D01*
X0125619Y0101523D01*
X0127023Y0101125D01*
X0128473Y0100956D01*
X0129932Y0101021D01*
X0131361Y0101317D01*
X0132725Y0101838D01*
X0133988Y0102569D01*
X0135119Y0103492D01*
X0136088Y0104584D01*
X0136871Y0105816D01*
X0137447Y0107158D01*
X0144134Y0092706D01*
X0144486Y0091170D01*
X0144594Y0089598D01*
X0144455Y0088029D01*
X0144071Y0086500D01*
X0143454Y0085051D01*
X0142617Y0083716D01*
X0141582Y0082528D01*
X0140373Y0081517D01*
X0139022Y0080707D01*
X0137560Y0080118D01*
X0136012Y0079827D01*
X0134437Y0079781D01*
X0132874Y0079981D01*
X0131362Y0080424D01*
X0129938Y0081098D01*
X0128636Y0081987D01*
X0127490Y0083068D01*
X0126527Y0084315D01*
X0125771Y0085697D01*
X0125240Y0087181D01*
X0125225Y0087295D02*
X0144270Y0087295D01*
X0144460Y0088093D02*
X0125116Y0088093D01*
X0125007Y0088892D02*
X0144531Y0088892D01*
X0144588Y0089690D02*
X0124898Y0089690D01*
X0124789Y0090489D02*
X0144533Y0090489D01*
X0144459Y0091287D02*
X0124680Y0091287D01*
X0124571Y0092086D02*
X0144276Y0092086D01*
X0144051Y0092884D02*
X0124462Y0092884D01*
X0124353Y0093683D02*
X0143682Y0093683D01*
X0143312Y0094481D02*
X0124244Y0094481D01*
X0124135Y0095280D02*
X0142943Y0095280D01*
X0142573Y0096078D02*
X0124026Y0096078D01*
X0123917Y0096877D02*
X0142204Y0096877D01*
X0141834Y0097675D02*
X0123808Y0097675D01*
X0123699Y0098474D02*
X0141465Y0098474D01*
X0141095Y0099272D02*
X0123590Y0099272D01*
X0123482Y0100071D02*
X0140726Y0100071D01*
X0140357Y0100869D02*
X0123373Y0100869D01*
X0123264Y0101668D02*
X0125307Y0101668D01*
X0123813Y0102466D02*
X0123155Y0102466D01*
X0132280Y0101668D02*
X0139987Y0101668D01*
X0139618Y0102466D02*
X0133811Y0102466D01*
X0134841Y0103265D02*
X0139248Y0103265D01*
X0138879Y0104063D02*
X0135626Y0104063D01*
X0136265Y0104862D02*
X0138509Y0104862D01*
X0138140Y0105660D02*
X0136772Y0105660D01*
X0137147Y0106459D02*
X0137770Y0106459D01*
X0144070Y0086496D02*
X0125485Y0086496D01*
X0125771Y0085698D02*
X0143729Y0085698D01*
X0143359Y0084899D02*
X0126207Y0084899D01*
X0126692Y0084101D02*
X0142858Y0084101D01*
X0142257Y0083302D02*
X0127309Y0083302D01*
X0128088Y0082504D02*
X0141553Y0082504D01*
X0140599Y0081705D02*
X0129049Y0081705D01*
X0130342Y0080907D02*
X0139355Y0080907D01*
X0137505Y0080108D02*
X0132441Y0080108D01*
X0168473Y0111250D02*
X0184014Y0111250D01*
X0183684Y0110785D02*
X0184594Y0112071D01*
X0185292Y0113484D01*
X0185760Y0114988D01*
X0185986Y0116548D01*
X0185966Y0118123D01*
X0185700Y0119676D01*
X0185195Y0121168D01*
X0184462Y0122563D01*
X0183520Y0123826D01*
X0182392Y0124926D01*
X0168942Y0133452D01*
X0169184Y0132012D01*
X0169194Y0130552D01*
X0168971Y0129110D01*
X0168520Y0127721D01*
X0167855Y0126422D01*
X0166990Y0125246D01*
X0165949Y0124222D01*
X0164758Y0123378D01*
X0163448Y0122734D01*
X0162052Y0122307D01*
X0160606Y0122109D01*
X0159146Y0122143D01*
X0169503Y0110047D01*
X0170753Y0109087D01*
X0172137Y0108335D01*
X0173622Y0107809D01*
X0175171Y0107521D01*
X0176746Y0107479D01*
X0178309Y0107684D01*
X0179820Y0108131D01*
X0181242Y0108809D01*
X0182541Y0109700D01*
X0183684Y0110785D01*
X0183333Y0110452D02*
X0169157Y0110452D01*
X0170016Y0109653D02*
X0182472Y0109653D01*
X0181309Y0108855D02*
X0171181Y0108855D01*
X0172924Y0108056D02*
X0179567Y0108056D01*
X0184578Y0112049D02*
X0167789Y0112049D01*
X0167106Y0112847D02*
X0184977Y0112847D01*
X0185342Y0113646D02*
X0166422Y0113646D01*
X0165738Y0114444D02*
X0185590Y0114444D01*
X0185797Y0115243D02*
X0165055Y0115243D01*
X0164371Y0116041D02*
X0185913Y0116041D01*
X0185983Y0116840D02*
X0163687Y0116840D01*
X0163004Y0117638D02*
X0185973Y0117638D01*
X0185913Y0118437D02*
X0162320Y0118437D01*
X0161636Y0119235D02*
X0185776Y0119235D01*
X0185579Y0120034D02*
X0160953Y0120034D01*
X0160269Y0120832D02*
X0185309Y0120832D01*
X0184952Y0121631D02*
X0159585Y0121631D01*
X0162451Y0122429D02*
X0184532Y0122429D01*
X0183966Y0123228D02*
X0164453Y0123228D01*
X0165673Y0124026D02*
X0183314Y0124026D01*
X0182495Y0124825D02*
X0166562Y0124825D01*
X0167268Y0125623D02*
X0181292Y0125623D01*
X0180032Y0126422D02*
X0167855Y0126422D01*
X0168264Y0127220D02*
X0178772Y0127220D01*
X0177512Y0128019D02*
X0168617Y0128019D01*
X0168876Y0128817D02*
X0176253Y0128817D01*
X0174993Y0129616D02*
X0169049Y0129616D01*
X0169173Y0130414D02*
X0173733Y0130414D01*
X0172473Y0131213D02*
X0169189Y0131213D01*
X0169184Y0132011D02*
X0171214Y0132011D01*
X0169954Y0132810D02*
X0169050Y0132810D01*
X0180282Y0150377D02*
X0202486Y0150377D01*
X0202629Y0150542D02*
X0203459Y0151880D01*
X0204071Y0153333D01*
X0204447Y0154863D01*
X0204518Y0156437D01*
X0204342Y0158002D01*
X0203922Y0159521D01*
X0203271Y0160956D01*
X0202403Y0162271D01*
X0201340Y0163434D01*
X0200108Y0164417D01*
X0198738Y0165194D01*
X0197263Y0165748D01*
X0195719Y0166065D01*
X0179796Y0165973D01*
X0180777Y0164892D01*
X0181574Y0163669D01*
X0182166Y0162334D01*
X0182537Y0160923D01*
X0182678Y0159470D01*
X0182586Y0158013D01*
X0182263Y0156589D01*
X0181717Y0155235D01*
X0180963Y0153986D01*
X0180018Y0152873D01*
X0178908Y0151924D01*
X0177662Y0151165D01*
X0192912Y0146581D01*
X0194482Y0146448D01*
X0196053Y0146563D01*
X0197587Y0146922D01*
X0199047Y0147517D01*
X0200395Y0148333D01*
X0201599Y0149349D01*
X0202629Y0150542D01*
X0203022Y0151176D02*
X0177679Y0151176D01*
X0178967Y0151974D02*
X0203499Y0151974D01*
X0203835Y0152773D02*
X0179901Y0152773D01*
X0180611Y0153571D02*
X0204129Y0153571D01*
X0204326Y0154370D02*
X0181194Y0154370D01*
X0181677Y0155168D02*
X0204461Y0155168D01*
X0204497Y0155967D02*
X0182012Y0155967D01*
X0182303Y0156765D02*
X0204481Y0156765D01*
X0204391Y0157564D02*
X0182485Y0157564D01*
X0182609Y0158362D02*
X0204242Y0158362D01*
X0204022Y0159161D02*
X0182659Y0159161D01*
X0182631Y0159959D02*
X0203724Y0159959D01*
X0203361Y0160758D02*
X0182553Y0160758D01*
X0182370Y0161556D02*
X0202875Y0161556D01*
X0202326Y0162355D02*
X0182157Y0162355D01*
X0181803Y0163153D02*
X0201597Y0163153D01*
X0200691Y0163952D02*
X0181390Y0163952D01*
X0180870Y0164750D02*
X0199520Y0164750D01*
X0197794Y0165549D02*
X0180180Y0165549D01*
X0182939Y0149579D02*
X0201797Y0149579D01*
X0200924Y0148780D02*
X0185595Y0148780D01*
X0188252Y0147982D02*
X0199814Y0147982D01*
X0198227Y0147183D02*
X0190908Y0147183D01*
X0195403Y0241445D02*
X0179479Y0241537D01*
X0180460Y0242618D01*
X0181257Y0243841D01*
X0181849Y0245175D01*
X0182220Y0246587D01*
X0182362Y0248040D01*
X0182270Y0249497D01*
X0181946Y0250921D01*
X0181400Y0252274D01*
X0180646Y0253524D01*
X0179701Y0254637D01*
X0178592Y0255586D01*
X0177345Y0256345D01*
X0192595Y0260929D01*
X0194165Y0261061D01*
X0195736Y0260947D01*
X0197270Y0260587D01*
X0198730Y0259993D01*
X0200078Y0259177D01*
X0201281Y0258160D01*
X0202312Y0256968D01*
X0203142Y0255629D01*
X0203754Y0254177D01*
X0204130Y0252647D01*
X0204201Y0251073D01*
X0204025Y0249507D01*
X0203606Y0247988D01*
X0202954Y0246554D01*
X0202086Y0245239D01*
X0201023Y0244076D01*
X0199792Y0243093D01*
X0198421Y0242315D01*
X0196946Y0241762D01*
X0195403Y0241445D01*
X0198130Y0242206D02*
X0180086Y0242206D01*
X0180712Y0243004D02*
X0199635Y0243004D01*
X0200681Y0243803D02*
X0181232Y0243803D01*
X0181594Y0244601D02*
X0201504Y0244601D01*
X0202193Y0245400D02*
X0181908Y0245400D01*
X0182118Y0246198D02*
X0202720Y0246198D01*
X0203155Y0246997D02*
X0182260Y0246997D01*
X0182338Y0247796D02*
X0203518Y0247796D01*
X0203773Y0248594D02*
X0182327Y0248594D01*
X0182276Y0249393D02*
X0203993Y0249393D01*
X0204102Y0250191D02*
X0182112Y0250191D01*
X0181919Y0250990D02*
X0204192Y0250990D01*
X0204169Y0251788D02*
X0181597Y0251788D01*
X0181212Y0252587D02*
X0204133Y0252587D01*
X0203949Y0253385D02*
X0180730Y0253385D01*
X0180086Y0254184D02*
X0203751Y0254184D01*
X0203415Y0254982D02*
X0179298Y0254982D01*
X0178271Y0255781D02*
X0203049Y0255781D01*
X0202553Y0256579D02*
X0178124Y0256579D01*
X0180780Y0257378D02*
X0201958Y0257378D01*
X0201263Y0258176D02*
X0183437Y0258176D01*
X0186093Y0258975D02*
X0200317Y0258975D01*
X0199092Y0259773D02*
X0188750Y0259773D01*
X0191406Y0260572D02*
X0197309Y0260572D01*
X0181408Y0282131D02*
X0166749Y0282131D01*
X0166673Y0282235D02*
X0167538Y0281058D01*
X0168204Y0279759D01*
X0168654Y0278371D01*
X0168877Y0276928D01*
X0168867Y0275468D01*
X0168625Y0274029D01*
X0182075Y0282554D01*
X0183203Y0283654D01*
X0184145Y0284917D01*
X0184878Y0286312D01*
X0185384Y0287804D01*
X0185650Y0289357D01*
X0185670Y0290933D01*
X0185443Y0292492D01*
X0184975Y0293997D01*
X0184277Y0295409D01*
X0183367Y0296696D01*
X0182224Y0297780D01*
X0180925Y0298672D01*
X0179503Y0299349D01*
X0177992Y0299796D01*
X0176429Y0300001D01*
X0174854Y0299959D01*
X0173305Y0299672D01*
X0171820Y0299145D01*
X0170436Y0298393D01*
X0169186Y0297433D01*
X0158829Y0285337D01*
X0160289Y0285371D01*
X0161735Y0285173D01*
X0163131Y0284746D01*
X0164441Y0284103D01*
X0165632Y0283258D01*
X0166673Y0282235D01*
X0165966Y0282930D02*
X0182460Y0282930D01*
X0183258Y0283729D02*
X0164969Y0283729D01*
X0163577Y0284527D02*
X0183854Y0284527D01*
X0184359Y0285326D02*
X0160623Y0285326D01*
X0159503Y0286124D02*
X0184779Y0286124D01*
X0185085Y0286923D02*
X0160187Y0286923D01*
X0160871Y0287721D02*
X0185355Y0287721D01*
X0185506Y0288520D02*
X0161554Y0288520D01*
X0162238Y0289318D02*
X0185643Y0289318D01*
X0185659Y0290117D02*
X0162922Y0290117D01*
X0163605Y0290915D02*
X0185669Y0290915D01*
X0185556Y0291714D02*
X0164289Y0291714D01*
X0164973Y0292512D02*
X0185436Y0292512D01*
X0185188Y0293311D02*
X0165656Y0293311D01*
X0166340Y0294109D02*
X0184919Y0294109D01*
X0184525Y0294908D02*
X0167024Y0294908D01*
X0167707Y0295706D02*
X0184067Y0295706D01*
X0183503Y0296505D02*
X0168391Y0296505D01*
X0169075Y0297303D02*
X0182727Y0297303D01*
X0181755Y0298102D02*
X0170057Y0298102D01*
X0171370Y0298900D02*
X0180445Y0298900D01*
X0178321Y0299699D02*
X0173451Y0299699D01*
X0167336Y0281333D02*
X0180148Y0281333D01*
X0178888Y0280534D02*
X0167806Y0280534D01*
X0168211Y0279736D02*
X0177629Y0279736D01*
X0176369Y0278937D02*
X0168470Y0278937D01*
X0168690Y0278139D02*
X0175109Y0278139D01*
X0173849Y0277340D02*
X0168813Y0277340D01*
X0168874Y0276542D02*
X0172590Y0276542D01*
X0171330Y0275743D02*
X0168869Y0275743D01*
X0168779Y0274945D02*
X0170070Y0274945D01*
X0168810Y0274146D02*
X0168645Y0274146D01*
X0137142Y0300260D02*
X0143829Y0314712D01*
X0144181Y0316247D01*
X0144289Y0317819D01*
X0144150Y0319389D01*
X0143766Y0320917D01*
X0143149Y0322367D01*
X0142312Y0323702D01*
X0141277Y0324890D01*
X0140068Y0325901D01*
X0138717Y0326711D01*
X0137255Y0327299D01*
X0135707Y0327591D01*
X0134132Y0327637D01*
X0132569Y0327436D01*
X0131057Y0326993D01*
X0129633Y0326319D01*
X0128331Y0325431D01*
X0127185Y0324350D01*
X0126222Y0323102D01*
X0125466Y0321720D01*
X0124935Y0320237D01*
X0122782Y0304459D01*
X0123990Y0305278D01*
X0125314Y0305895D01*
X0126718Y0306292D01*
X0128168Y0306461D01*
X0129627Y0306396D01*
X0131056Y0306100D01*
X0132420Y0305580D01*
X0133683Y0304848D01*
X0134814Y0303925D01*
X0135783Y0302833D01*
X0136566Y0301601D01*
X0137142Y0300260D01*
X0137040Y0300497D02*
X0137252Y0300497D01*
X0137621Y0301296D02*
X0136697Y0301296D01*
X0136252Y0302094D02*
X0137991Y0302094D01*
X0138360Y0302893D02*
X0135730Y0302893D01*
X0135021Y0303691D02*
X0138730Y0303691D01*
X0139099Y0304490D02*
X0134122Y0304490D01*
X0132923Y0305288D02*
X0139469Y0305288D01*
X0139838Y0306087D02*
X0131091Y0306087D01*
X0125992Y0306087D02*
X0123005Y0306087D01*
X0123114Y0306885D02*
X0140208Y0306885D01*
X0140577Y0307684D02*
X0123222Y0307684D01*
X0123331Y0308482D02*
X0140947Y0308482D01*
X0141316Y0309281D02*
X0123440Y0309281D01*
X0123549Y0310079D02*
X0141685Y0310079D01*
X0142055Y0310878D02*
X0123658Y0310878D01*
X0123767Y0311676D02*
X0142424Y0311676D01*
X0142794Y0312475D02*
X0123876Y0312475D01*
X0123985Y0313273D02*
X0143163Y0313273D01*
X0143533Y0314072D02*
X0124094Y0314072D01*
X0124203Y0314870D02*
X0143865Y0314870D01*
X0144049Y0315669D02*
X0124312Y0315669D01*
X0124421Y0316467D02*
X0144196Y0316467D01*
X0144251Y0317266D02*
X0124530Y0317266D01*
X0124639Y0318065D02*
X0144267Y0318065D01*
X0144196Y0318863D02*
X0124748Y0318863D01*
X0124857Y0319662D02*
X0144081Y0319662D01*
X0143881Y0320460D02*
X0125015Y0320460D01*
X0125301Y0321259D02*
X0143621Y0321259D01*
X0143281Y0322057D02*
X0125650Y0322057D01*
X0126087Y0322856D02*
X0142842Y0322856D01*
X0142342Y0323654D02*
X0126648Y0323654D01*
X0127294Y0324453D02*
X0141658Y0324453D01*
X0140845Y0325251D02*
X0128141Y0325251D01*
X0129238Y0326050D02*
X0139820Y0326050D01*
X0138375Y0326848D02*
X0130751Y0326848D01*
X0124012Y0305288D02*
X0122896Y0305288D01*
X0122828Y0304490D02*
X0122787Y0304490D01*
X0095098Y0304459D02*
X0092945Y0320237D01*
X0092414Y0321720D01*
X0091658Y0323103D01*
X0090695Y0324350D01*
X0089549Y0325431D01*
X0088248Y0326319D01*
X0086823Y0326993D01*
X0085311Y0327436D01*
X0083748Y0327637D01*
X0082173Y0327591D01*
X0080625Y0327299D01*
X0079163Y0326710D01*
X0077812Y0325901D01*
X0076603Y0324889D01*
X0075568Y0323702D01*
X0074731Y0322367D01*
X0074114Y0320917D01*
X0073731Y0319389D01*
X0073591Y0317819D01*
X0073699Y0316247D01*
X0074051Y0314712D01*
X0080738Y0300260D01*
X0081314Y0301601D01*
X0082097Y0302833D01*
X0083066Y0303925D01*
X0084197Y0304848D01*
X0085460Y0305580D01*
X0086824Y0306100D01*
X0088253Y0306396D01*
X0089712Y0306461D01*
X0091162Y0306292D01*
X0092566Y0305895D01*
X0093890Y0305278D01*
X0095098Y0304459D01*
X0095093Y0304490D02*
X0095051Y0304490D01*
X0094984Y0305288D02*
X0093868Y0305288D01*
X0094875Y0306087D02*
X0091888Y0306087D01*
X0094766Y0306885D02*
X0077672Y0306885D01*
X0078042Y0306087D02*
X0086789Y0306087D01*
X0084957Y0305288D02*
X0078411Y0305288D01*
X0078781Y0304490D02*
X0083758Y0304490D01*
X0082859Y0303691D02*
X0079150Y0303691D01*
X0079520Y0302893D02*
X0082150Y0302893D01*
X0081628Y0302094D02*
X0079889Y0302094D01*
X0080259Y0301296D02*
X0081183Y0301296D01*
X0080840Y0300497D02*
X0080628Y0300497D01*
X0077303Y0307684D02*
X0094658Y0307684D01*
X0094549Y0308482D02*
X0076933Y0308482D01*
X0076564Y0309281D02*
X0094440Y0309281D01*
X0094331Y0310079D02*
X0076195Y0310079D01*
X0075825Y0310878D02*
X0094222Y0310878D01*
X0094113Y0311676D02*
X0075456Y0311676D01*
X0075086Y0312475D02*
X0094004Y0312475D01*
X0093895Y0313273D02*
X0074717Y0313273D01*
X0074347Y0314072D02*
X0093786Y0314072D01*
X0093677Y0314870D02*
X0074015Y0314870D01*
X0073831Y0315669D02*
X0093568Y0315669D01*
X0093459Y0316467D02*
X0073684Y0316467D01*
X0073629Y0317266D02*
X0093350Y0317266D01*
X0093241Y0318065D02*
X0073613Y0318065D01*
X0073684Y0318863D02*
X0093132Y0318863D01*
X0093023Y0319662D02*
X0073799Y0319662D01*
X0073999Y0320460D02*
X0092865Y0320460D01*
X0092579Y0321259D02*
X0074259Y0321259D01*
X0074600Y0322057D02*
X0092230Y0322057D01*
X0091793Y0322856D02*
X0075038Y0322856D01*
X0075538Y0323654D02*
X0091232Y0323654D01*
X0090586Y0324453D02*
X0076223Y0324453D01*
X0077036Y0325251D02*
X0089739Y0325251D01*
X0088642Y0326050D02*
X0078060Y0326050D01*
X0079505Y0326848D02*
X0087130Y0326848D01*
X0050173Y0295706D02*
X0033813Y0295706D01*
X0033603Y0295409D02*
X0032905Y0293997D01*
X0032437Y0292492D01*
X0032211Y0290933D01*
X0032230Y0289357D01*
X0032497Y0287804D01*
X0033002Y0286312D01*
X0033735Y0284917D01*
X0034677Y0283654D01*
X0035805Y0282554D01*
X0049255Y0274029D01*
X0049013Y0275468D01*
X0049003Y0276928D01*
X0049226Y0278371D01*
X0049676Y0279759D01*
X0050342Y0281058D01*
X0051207Y0282235D01*
X0052248Y0283258D01*
X0053439Y0284103D01*
X0054749Y0284746D01*
X0056145Y0285173D01*
X0057591Y0285371D01*
X0059051Y0285337D01*
X0048694Y0297433D01*
X0047444Y0298393D01*
X0046060Y0299145D01*
X0044575Y0299672D01*
X0043026Y0299959D01*
X0041451Y0300001D01*
X0039888Y0299796D01*
X0038377Y0299349D01*
X0036955Y0298672D01*
X0035656Y0297780D01*
X0034513Y0296696D01*
X0033603Y0295409D01*
X0033355Y0294908D02*
X0050856Y0294908D01*
X0051540Y0294109D02*
X0032961Y0294109D01*
X0032692Y0293311D02*
X0052224Y0293311D01*
X0052907Y0292512D02*
X0032444Y0292512D01*
X0032324Y0291714D02*
X0053591Y0291714D01*
X0054275Y0290915D02*
X0032211Y0290915D01*
X0032221Y0290117D02*
X0054958Y0290117D01*
X0055642Y0289318D02*
X0032237Y0289318D01*
X0032374Y0288520D02*
X0056326Y0288520D01*
X0057009Y0287721D02*
X0032525Y0287721D01*
X0032795Y0286923D02*
X0057693Y0286923D01*
X0058377Y0286124D02*
X0033101Y0286124D01*
X0033521Y0285326D02*
X0057257Y0285326D01*
X0054303Y0284527D02*
X0034026Y0284527D01*
X0034622Y0283729D02*
X0052911Y0283729D01*
X0051914Y0282930D02*
X0035420Y0282930D01*
X0036472Y0282131D02*
X0051131Y0282131D01*
X0050544Y0281333D02*
X0037732Y0281333D01*
X0038992Y0280534D02*
X0050074Y0280534D01*
X0049669Y0279736D02*
X0040251Y0279736D01*
X0041511Y0278937D02*
X0049410Y0278937D01*
X0049190Y0278139D02*
X0042771Y0278139D01*
X0044031Y0277340D02*
X0049067Y0277340D01*
X0049006Y0276542D02*
X0045290Y0276542D01*
X0046550Y0275743D02*
X0049011Y0275743D01*
X0049101Y0274945D02*
X0047810Y0274945D01*
X0049070Y0274146D02*
X0049235Y0274146D01*
X0040535Y0256345D02*
X0025285Y0260929D01*
X0023715Y0261062D01*
X0022144Y0260947D01*
X0020609Y0260588D01*
X0019150Y0259993D01*
X0017802Y0259177D01*
X0016598Y0258161D01*
X0015568Y0256968D01*
X0014737Y0255629D01*
X0014126Y0254177D01*
X0013750Y0252647D01*
X0013679Y0251073D01*
X0013855Y0249507D01*
X0014274Y0247989D01*
X0014926Y0246554D01*
X0015794Y0245239D01*
X0016857Y0244076D01*
X0018089Y0243093D01*
X0019459Y0242315D01*
X0020934Y0241762D01*
X0022477Y0241445D01*
X0038401Y0241537D01*
X0037420Y0242618D01*
X0036623Y0243841D01*
X0036031Y0245175D01*
X0035660Y0246587D01*
X0035518Y0248040D01*
X0035610Y0249497D01*
X0035934Y0250921D01*
X0036480Y0252274D01*
X0037234Y0253524D01*
X0038179Y0254637D01*
X0039288Y0255586D01*
X0040535Y0256345D01*
X0039756Y0256579D02*
X0015327Y0256579D01*
X0014831Y0255781D02*
X0039609Y0255781D01*
X0038582Y0254982D02*
X0014465Y0254982D01*
X0014129Y0254184D02*
X0037794Y0254184D01*
X0037150Y0253385D02*
X0013931Y0253385D01*
X0013747Y0252587D02*
X0036668Y0252587D01*
X0036283Y0251788D02*
X0013711Y0251788D01*
X0013688Y0250990D02*
X0035961Y0250990D01*
X0035768Y0250191D02*
X0013778Y0250191D01*
X0013887Y0249393D02*
X0035604Y0249393D01*
X0035553Y0248594D02*
X0014107Y0248594D01*
X0014362Y0247796D02*
X0035542Y0247796D01*
X0035620Y0246997D02*
X0014725Y0246997D01*
X0015161Y0246198D02*
X0035762Y0246198D01*
X0035972Y0245400D02*
X0015688Y0245400D01*
X0016376Y0244601D02*
X0036286Y0244601D01*
X0036648Y0243803D02*
X0017199Y0243803D01*
X0018245Y0243004D02*
X0037168Y0243004D01*
X0037794Y0242206D02*
X0019751Y0242206D01*
X0015922Y0257378D02*
X0037100Y0257378D01*
X0034443Y0258176D02*
X0016617Y0258176D01*
X0017563Y0258975D02*
X0031787Y0258975D01*
X0029130Y0259773D02*
X0018787Y0259773D01*
X0020571Y0260572D02*
X0026474Y0260572D01*
X0034377Y0296505D02*
X0049489Y0296505D01*
X0048805Y0297303D02*
X0035153Y0297303D01*
X0036125Y0298102D02*
X0047823Y0298102D01*
X0046511Y0298900D02*
X0037434Y0298900D01*
X0039558Y0299699D02*
X0044429Y0299699D01*
D11*
X0253751Y0344148D03*
X0253751Y0226463D03*
X0253751Y0108278D03*
D12*
X0265001Y0113268D02*
X0265001Y0103288D01*
X0262501Y0103288D01*
X0262501Y0113268D01*
X0265001Y0113268D01*
X0265001Y0105787D02*
X0262501Y0105787D01*
X0262501Y0108286D02*
X0265001Y0108286D01*
X0265001Y0110785D02*
X0262501Y0110785D01*
X0275001Y0113268D02*
X0275001Y0103288D01*
X0272501Y0103288D01*
X0272501Y0113268D01*
X0275001Y0113268D01*
X0275001Y0105787D02*
X0272501Y0105787D01*
X0272501Y0108286D02*
X0275001Y0108286D01*
X0275001Y0110785D02*
X0272501Y0110785D01*
X0285001Y0113268D02*
X0285001Y0103288D01*
X0282501Y0103288D01*
X0282501Y0113268D01*
X0285001Y0113268D01*
X0285001Y0105787D02*
X0282501Y0105787D01*
X0282501Y0108286D02*
X0285001Y0108286D01*
X0285001Y0110785D02*
X0282501Y0110785D01*
X0295001Y0113268D02*
X0295001Y0103288D01*
X0292501Y0103288D01*
X0292501Y0113268D01*
X0295001Y0113268D01*
X0295001Y0105787D02*
X0292501Y0105787D01*
X0292501Y0108286D02*
X0295001Y0108286D01*
X0295001Y0110785D02*
X0292501Y0110785D01*
X0305001Y0113268D02*
X0305001Y0103288D01*
X0302501Y0103288D01*
X0302501Y0113268D01*
X0305001Y0113268D01*
X0305001Y0105787D02*
X0302501Y0105787D01*
X0302501Y0108286D02*
X0305001Y0108286D01*
X0305001Y0110785D02*
X0302501Y0110785D01*
X0305001Y0221473D02*
X0305001Y0231453D01*
X0305001Y0221473D02*
X0302501Y0221473D01*
X0302501Y0231453D01*
X0305001Y0231453D01*
X0305001Y0223972D02*
X0302501Y0223972D01*
X0302501Y0226471D02*
X0305001Y0226471D01*
X0305001Y0228970D02*
X0302501Y0228970D01*
X0295001Y0231453D02*
X0295001Y0221473D01*
X0292501Y0221473D01*
X0292501Y0231453D01*
X0295001Y0231453D01*
X0295001Y0223972D02*
X0292501Y0223972D01*
X0292501Y0226471D02*
X0295001Y0226471D01*
X0295001Y0228970D02*
X0292501Y0228970D01*
X0285001Y0231453D02*
X0285001Y0221473D01*
X0282501Y0221473D01*
X0282501Y0231453D01*
X0285001Y0231453D01*
X0285001Y0223972D02*
X0282501Y0223972D01*
X0282501Y0226471D02*
X0285001Y0226471D01*
X0285001Y0228970D02*
X0282501Y0228970D01*
X0275001Y0231453D02*
X0275001Y0221473D01*
X0272501Y0221473D01*
X0272501Y0231453D01*
X0275001Y0231453D01*
X0275001Y0223972D02*
X0272501Y0223972D01*
X0272501Y0226471D02*
X0275001Y0226471D01*
X0275001Y0228970D02*
X0272501Y0228970D01*
X0265001Y0231453D02*
X0265001Y0221473D01*
X0262501Y0221473D01*
X0262501Y0231453D01*
X0265001Y0231453D01*
X0265001Y0223972D02*
X0262501Y0223972D01*
X0262501Y0226471D02*
X0265001Y0226471D01*
X0265001Y0228970D02*
X0262501Y0228970D01*
X0265001Y0339158D02*
X0265001Y0349138D01*
X0265001Y0339158D02*
X0262501Y0339158D01*
X0262501Y0349138D01*
X0265001Y0349138D01*
X0265001Y0341657D02*
X0262501Y0341657D01*
X0262501Y0344156D02*
X0265001Y0344156D01*
X0265001Y0346655D02*
X0262501Y0346655D01*
X0275001Y0349138D02*
X0275001Y0339158D01*
X0272501Y0339158D01*
X0272501Y0349138D01*
X0275001Y0349138D01*
X0275001Y0341657D02*
X0272501Y0341657D01*
X0272501Y0344156D02*
X0275001Y0344156D01*
X0275001Y0346655D02*
X0272501Y0346655D01*
X0285001Y0349138D02*
X0285001Y0339158D01*
X0282501Y0339158D01*
X0282501Y0349138D01*
X0285001Y0349138D01*
X0285001Y0341657D02*
X0282501Y0341657D01*
X0282501Y0344156D02*
X0285001Y0344156D01*
X0285001Y0346655D02*
X0282501Y0346655D01*
X0295001Y0349138D02*
X0295001Y0339158D01*
X0292501Y0339158D01*
X0292501Y0349138D01*
X0295001Y0349138D01*
X0295001Y0341657D02*
X0292501Y0341657D01*
X0292501Y0344156D02*
X0295001Y0344156D01*
X0295001Y0346655D02*
X0292501Y0346655D01*
X0305001Y0349138D02*
X0305001Y0339158D01*
X0302501Y0339158D01*
X0302501Y0349138D01*
X0305001Y0349138D01*
X0305001Y0341657D02*
X0302501Y0341657D01*
X0302501Y0344156D02*
X0305001Y0344156D01*
X0305001Y0346655D02*
X0302501Y0346655D01*
D13*
X0325251Y0338648D02*
X0325251Y0329648D01*
X0322251Y0329648D01*
X0322251Y0338648D01*
X0325251Y0338648D01*
X0325251Y0332647D02*
X0322251Y0332647D01*
X0322251Y0335646D02*
X0325251Y0335646D01*
X0325251Y0338645D02*
X0322251Y0338645D01*
X0335251Y0339648D02*
X0335251Y0348648D01*
X0335251Y0339648D02*
X0332251Y0339648D01*
X0332251Y0348648D01*
X0335251Y0348648D01*
X0335251Y0342647D02*
X0332251Y0342647D01*
X0332251Y0345646D02*
X0335251Y0345646D01*
X0335251Y0348645D02*
X0332251Y0348645D01*
X0345251Y0338648D02*
X0345251Y0329648D01*
X0342251Y0329648D01*
X0342251Y0338648D01*
X0345251Y0338648D01*
X0345251Y0332647D02*
X0342251Y0332647D01*
X0342251Y0335646D02*
X0345251Y0335646D01*
X0345251Y0338645D02*
X0342251Y0338645D01*
X0355251Y0339648D02*
X0355251Y0348648D01*
X0355251Y0339648D02*
X0352251Y0339648D01*
X0352251Y0348648D01*
X0355251Y0348648D01*
X0355251Y0342647D02*
X0352251Y0342647D01*
X0352251Y0345646D02*
X0355251Y0345646D01*
X0355251Y0348645D02*
X0352251Y0348645D01*
X0365251Y0338648D02*
X0365251Y0329648D01*
X0362251Y0329648D01*
X0362251Y0338648D01*
X0365251Y0338648D01*
X0365251Y0332647D02*
X0362251Y0332647D01*
X0362251Y0335646D02*
X0365251Y0335646D01*
X0365251Y0338645D02*
X0362251Y0338645D01*
X0355251Y0230963D02*
X0355251Y0221963D01*
X0352251Y0221963D01*
X0352251Y0230963D01*
X0355251Y0230963D01*
X0355251Y0224962D02*
X0352251Y0224962D01*
X0352251Y0227961D02*
X0355251Y0227961D01*
X0355251Y0230960D02*
X0352251Y0230960D01*
X0345251Y0220963D02*
X0345251Y0211963D01*
X0342251Y0211963D01*
X0342251Y0220963D01*
X0345251Y0220963D01*
X0345251Y0214962D02*
X0342251Y0214962D01*
X0342251Y0217961D02*
X0345251Y0217961D01*
X0345251Y0220960D02*
X0342251Y0220960D01*
X0335251Y0221963D02*
X0335251Y0230963D01*
X0335251Y0221963D02*
X0332251Y0221963D01*
X0332251Y0230963D01*
X0335251Y0230963D01*
X0335251Y0224962D02*
X0332251Y0224962D01*
X0332251Y0227961D02*
X0335251Y0227961D01*
X0335251Y0230960D02*
X0332251Y0230960D01*
X0325251Y0220963D02*
X0325251Y0211963D01*
X0322251Y0211963D01*
X0322251Y0220963D01*
X0325251Y0220963D01*
X0325251Y0214962D02*
X0322251Y0214962D01*
X0322251Y0217961D02*
X0325251Y0217961D01*
X0325251Y0220960D02*
X0322251Y0220960D01*
X0365251Y0220963D02*
X0365251Y0211963D01*
X0362251Y0211963D01*
X0362251Y0220963D01*
X0365251Y0220963D01*
X0365251Y0214962D02*
X0362251Y0214962D01*
X0362251Y0217961D02*
X0365251Y0217961D01*
X0365251Y0220960D02*
X0362251Y0220960D01*
X0355251Y0112778D02*
X0355251Y0103778D01*
X0352251Y0103778D01*
X0352251Y0112778D01*
X0355251Y0112778D01*
X0355251Y0106777D02*
X0352251Y0106777D01*
X0352251Y0109776D02*
X0355251Y0109776D01*
X0355251Y0112775D02*
X0352251Y0112775D01*
X0345251Y0102778D02*
X0345251Y0093778D01*
X0342251Y0093778D01*
X0342251Y0102778D01*
X0345251Y0102778D01*
X0345251Y0096777D02*
X0342251Y0096777D01*
X0342251Y0099776D02*
X0345251Y0099776D01*
X0345251Y0102775D02*
X0342251Y0102775D01*
X0335251Y0103778D02*
X0335251Y0112778D01*
X0335251Y0103778D02*
X0332251Y0103778D01*
X0332251Y0112778D01*
X0335251Y0112778D01*
X0335251Y0106777D02*
X0332251Y0106777D01*
X0332251Y0109776D02*
X0335251Y0109776D01*
X0335251Y0112775D02*
X0332251Y0112775D01*
X0325251Y0102778D02*
X0325251Y0093778D01*
X0322251Y0093778D01*
X0322251Y0102778D01*
X0325251Y0102778D01*
X0325251Y0096777D02*
X0322251Y0096777D01*
X0322251Y0099776D02*
X0325251Y0099776D01*
X0325251Y0102775D02*
X0322251Y0102775D01*
X0365251Y0102778D02*
X0365251Y0093778D01*
X0362251Y0093778D01*
X0362251Y0102778D01*
X0365251Y0102778D01*
X0365251Y0096777D02*
X0362251Y0096777D01*
X0362251Y0099776D02*
X0365251Y0099776D01*
X0365251Y0102775D02*
X0362251Y0102775D01*
D14*
X0313751Y0108278D03*
X0313751Y0226463D03*
X0313751Y0344148D03*
D15*
X0192323Y0250946D02*
X0192090Y0250713D01*
X0164440Y0250713D01*
X0156600Y0242873D01*
X0133840Y0242873D01*
X0123840Y0242873D02*
X0123840Y0257113D01*
X0137440Y0270713D01*
X0156178Y0270713D01*
X0174351Y0288885D01*
X0133907Y0315849D02*
X0131240Y0313182D01*
X0131240Y0288613D01*
X0113840Y0271213D01*
X0113840Y0242873D01*
X0103840Y0242873D02*
X0103840Y0271513D01*
X0087040Y0288313D01*
X0087040Y0312782D01*
X0083973Y0315849D01*
X0043529Y0288885D02*
X0061702Y0270713D01*
X0079440Y0270713D01*
X0093840Y0256313D01*
X0093840Y0242873D01*
X0083840Y0242873D02*
X0061280Y0242873D01*
X0053440Y0250713D01*
X0025790Y0250713D01*
X0025557Y0250946D01*
X0065440Y0172213D02*
X0049752Y0156525D01*
X0025832Y0156525D01*
X0043712Y0118595D02*
X0063775Y0138657D01*
X0083440Y0138657D01*
X0094190Y0149407D01*
X0094190Y0172463D01*
X0084190Y0172463D02*
X0083940Y0172213D01*
X0065440Y0172213D01*
X0104190Y0172463D02*
X0104190Y0129998D01*
X0089227Y0115035D01*
X0089227Y0096627D01*
X0087690Y0095090D01*
X0086483Y0093883D01*
X0084168Y0091568D01*
X0114190Y0128459D02*
X0128991Y0113657D01*
X0128991Y0099327D01*
X0133401Y0094917D01*
X0133401Y0095941D01*
X0133283Y0096059D01*
X0133283Y0097161D01*
X0133243Y0097201D01*
X0133912Y0097201D01*
X0134306Y0096807D01*
X0128940Y0091713D02*
X0130940Y0089713D01*
X0114190Y0128459D02*
X0114190Y0172463D01*
X0124190Y0172463D02*
X0124190Y0148537D01*
X0134070Y0138657D01*
X0154605Y0138657D01*
X0174668Y0118595D01*
X0170690Y0157713D02*
X0156940Y0171463D01*
X0135190Y0171463D01*
X0134190Y0172463D01*
X0170690Y0157713D02*
X0191492Y0157713D01*
X0192640Y0156564D01*
D16*
X0253751Y0159278D02*
X0253751Y0226463D01*
X0263751Y0226463D02*
X0263751Y0159278D01*
X0273751Y0159278D02*
X0273751Y0226463D01*
X0283751Y0226463D02*
X0283751Y0159278D01*
X0293751Y0159278D02*
X0293751Y0226463D01*
X0303751Y0226463D02*
X0303751Y0159278D01*
X0313751Y0159278D02*
X0313751Y0226463D01*
X0323751Y0216463D02*
X0323751Y0159278D01*
X0333751Y0159278D02*
X0333751Y0226463D01*
X0343751Y0216463D02*
X0343751Y0159278D01*
X0353751Y0159278D02*
X0353751Y0226463D01*
X0363751Y0216463D02*
X0363751Y0159278D01*
X0353751Y0108278D02*
X0353751Y0041093D01*
X0343751Y0041093D02*
X0343751Y0098278D01*
X0333751Y0108278D02*
X0333751Y0041093D01*
X0323751Y0041093D02*
X0323751Y0098278D01*
X0313751Y0108278D02*
X0313751Y0041093D01*
X0303751Y0041093D02*
X0303751Y0108278D01*
X0293751Y0108278D02*
X0293751Y0041093D01*
X0283751Y0041093D02*
X0283751Y0108278D01*
X0273751Y0108278D02*
X0273751Y0041093D01*
X0263751Y0041093D02*
X0263751Y0108278D01*
X0253751Y0108278D02*
X0253751Y0041093D01*
X0363751Y0041093D02*
X0363751Y0098278D01*
X0363751Y0276963D02*
X0363751Y0334148D01*
X0353751Y0344148D02*
X0353751Y0276963D01*
X0343751Y0276963D02*
X0343751Y0334148D01*
X0333751Y0344148D02*
X0333751Y0276963D01*
X0323751Y0276963D02*
X0323751Y0334148D01*
X0313751Y0344148D02*
X0313751Y0276963D01*
X0303751Y0276963D02*
X0303751Y0344148D01*
X0293751Y0344148D02*
X0293751Y0276963D01*
X0283751Y0276963D02*
X0283751Y0344148D01*
X0273751Y0344148D02*
X0273751Y0276963D01*
X0263751Y0276963D02*
X0263751Y0344148D01*
X0253751Y0344148D02*
X0253751Y0276963D01*
X0088690Y0095590D02*
X0084168Y0091568D01*
M02*
