G75*
%MOIN*%
%OFA0B0*%
%FSLAX25Y25*%
%IPPOS*%
%LPD*%
%AMOC8*
5,1,8,0,0,1.08239X$1,22.5*
%
%ADD10C,0.01600*%
%ADD11C,0.00000*%
%ADD12C,0.00400*%
%ADD13C,0.00500*%
D10*
X0001800Y0025623D02*
X0001800Y0360793D01*
X0410177Y0360793D01*
X0410177Y0025623D01*
X0001800Y0025623D01*
X0009689Y0177463D02*
X0009592Y0175023D01*
X0009554Y0172581D01*
X0009575Y0170139D01*
X0009657Y0167698D01*
X0009799Y0165260D01*
X0010000Y0162826D01*
X0010261Y0160398D01*
X0010581Y0157977D01*
X0010961Y0155565D01*
X0011399Y0153162D01*
X0011896Y0150771D01*
X0012452Y0148393D01*
X0013066Y0146029D01*
X0013738Y0143681D01*
X0014467Y0141351D01*
X0015253Y0139038D01*
X0016095Y0136746D01*
X0016994Y0134475D01*
X0017947Y0132227D01*
X0018956Y0130003D01*
X0020019Y0127804D01*
X0021135Y0125632D01*
X0022304Y0123488D01*
X0023526Y0121373D01*
X0024799Y0119289D01*
X0026123Y0117237D01*
X0027496Y0115218D01*
X0028919Y0113233D01*
X0030390Y0111283D01*
X0031908Y0109370D01*
X0033473Y0107495D01*
X0035083Y0105659D01*
X0036738Y0103863D01*
X0038436Y0102108D01*
X0040177Y0100395D01*
X0041959Y0098726D01*
X0043782Y0097100D01*
X0045644Y0095520D01*
X0047544Y0093986D01*
X0049481Y0092499D01*
X0051454Y0091060D01*
X0053462Y0089669D01*
X0055503Y0088328D01*
X0057576Y0087038D01*
X0059681Y0085799D01*
X0061815Y0084612D01*
X0063977Y0083477D01*
X0066167Y0082396D01*
X0068383Y0081369D01*
X0070623Y0080397D01*
X0072886Y0079480D01*
X0075172Y0078618D01*
X0077477Y0077813D01*
X0079802Y0077064D01*
X0082144Y0076373D01*
X0084503Y0075740D01*
X0086876Y0075164D01*
X0089263Y0074647D01*
X0091661Y0074188D01*
X0094071Y0073788D01*
X0096489Y0073448D01*
X0098915Y0073167D01*
X0101347Y0072945D01*
X0103784Y0072784D01*
X0106224Y0072681D01*
X0108665Y0072639D01*
X0111108Y0072657D01*
X0113548Y0072734D01*
X0115987Y0072872D01*
X0118421Y0073069D01*
X0120850Y0073326D01*
X0123271Y0073642D01*
X0125684Y0074017D01*
X0128087Y0074452D01*
X0130479Y0074945D01*
X0132858Y0075497D01*
X0135223Y0076106D01*
X0137572Y0076774D01*
X0139904Y0077499D01*
X0142218Y0078281D01*
X0144511Y0079120D01*
X0146784Y0080014D01*
X0149034Y0080964D01*
X0151260Y0081969D01*
X0153460Y0083028D01*
X0155634Y0084140D01*
X0157780Y0085306D01*
X0159897Y0086524D01*
X0161983Y0087793D01*
X0164038Y0089114D01*
X0166059Y0090484D01*
X0168047Y0091903D01*
X0169999Y0093371D01*
X0171914Y0094885D01*
X0173792Y0096447D01*
X0175631Y0098054D01*
X0177430Y0099706D01*
X0179188Y0101401D01*
X0180903Y0103139D01*
X0182576Y0104918D01*
X0184205Y0106738D01*
X0185788Y0108597D01*
X0187325Y0110495D01*
X0188816Y0112429D01*
X0190258Y0114400D01*
X0191652Y0116405D01*
X0192997Y0118444D01*
X0194290Y0120515D01*
X0195533Y0122618D01*
X0196724Y0124750D01*
X0197862Y0126910D01*
X0198947Y0129098D01*
X0199978Y0131312D01*
X0200954Y0133551D01*
X0201875Y0135813D01*
X0202741Y0138096D01*
X0203550Y0140400D01*
X0204302Y0142724D01*
X0204997Y0145065D01*
X0205635Y0147422D01*
X0206215Y0149795D01*
X0206736Y0152181D01*
X0207199Y0154578D01*
X0207603Y0156987D01*
X0207947Y0159405D01*
X0208232Y0161830D01*
X0208458Y0164262D01*
X0208624Y0166698D01*
X0208730Y0169138D01*
X0208777Y0171580D01*
X0208763Y0174022D01*
X0208690Y0176463D01*
X0208690Y0174213D02*
X0208690Y0180213D01*
X0208440Y0180213D02*
X0112940Y0180213D01*
X0105440Y0180213D02*
X0009940Y0180213D01*
X0009690Y0180213D02*
X0009690Y0177463D01*
X0009440Y0233463D02*
X0104940Y0233463D01*
X0009440Y0233463D02*
X0009470Y0235886D01*
X0009558Y0238307D01*
X0009705Y0240726D01*
X0009912Y0243140D01*
X0010177Y0245549D01*
X0010500Y0247950D01*
X0010882Y0250343D01*
X0011322Y0252726D01*
X0011820Y0255097D01*
X0012376Y0257456D01*
X0012989Y0259800D01*
X0013659Y0262129D01*
X0014385Y0264441D01*
X0015167Y0266734D01*
X0016005Y0269007D01*
X0016898Y0271260D01*
X0017846Y0273490D01*
X0018848Y0275696D01*
X0019903Y0277878D01*
X0021011Y0280033D01*
X0022171Y0282160D01*
X0023383Y0284259D01*
X0024645Y0286327D01*
X0025957Y0288364D01*
X0027319Y0290368D01*
X0028729Y0292339D01*
X0030186Y0294275D01*
X0031690Y0296174D01*
X0033240Y0298037D01*
X0034835Y0299861D01*
X0036474Y0301646D01*
X0038156Y0303390D01*
X0039880Y0305093D01*
X0041644Y0306754D01*
X0043449Y0308371D01*
X0045293Y0309943D01*
X0047174Y0311471D01*
X0049092Y0312952D01*
X0051045Y0314385D01*
X0053033Y0315771D01*
X0055054Y0317108D01*
X0057106Y0318396D01*
X0059190Y0319633D01*
X0061303Y0320818D01*
X0063444Y0321953D01*
X0065613Y0323034D01*
X0067807Y0324063D01*
X0070025Y0325037D01*
X0072267Y0325958D01*
X0074530Y0326824D01*
X0076813Y0327634D01*
X0079116Y0328388D01*
X0081436Y0329086D01*
X0083773Y0329728D01*
X0086125Y0330312D01*
X0088490Y0330839D01*
X0090867Y0331308D01*
X0093255Y0331719D01*
X0095652Y0332072D01*
X0098058Y0332366D01*
X0100469Y0332602D01*
X0102886Y0332779D01*
X0105306Y0332897D01*
X0107728Y0332956D01*
X0110152Y0332956D01*
X0112574Y0332897D01*
X0114994Y0332779D01*
X0117411Y0332602D01*
X0119822Y0332366D01*
X0122228Y0332072D01*
X0124625Y0331719D01*
X0127013Y0331308D01*
X0129390Y0330839D01*
X0131755Y0330312D01*
X0134107Y0329728D01*
X0136444Y0329086D01*
X0138764Y0328388D01*
X0141067Y0327634D01*
X0143350Y0326824D01*
X0145613Y0325958D01*
X0147855Y0325037D01*
X0150073Y0324063D01*
X0152267Y0323034D01*
X0154436Y0321953D01*
X0156577Y0320818D01*
X0158690Y0319633D01*
X0160774Y0318396D01*
X0162826Y0317108D01*
X0164847Y0315771D01*
X0166835Y0314385D01*
X0168788Y0312952D01*
X0170706Y0311471D01*
X0172587Y0309943D01*
X0174431Y0308371D01*
X0176236Y0306754D01*
X0178000Y0305093D01*
X0179724Y0303390D01*
X0181406Y0301646D01*
X0183045Y0299861D01*
X0184640Y0298037D01*
X0186190Y0296174D01*
X0187694Y0294275D01*
X0189151Y0292339D01*
X0190561Y0290368D01*
X0191923Y0288364D01*
X0193235Y0286327D01*
X0194497Y0284259D01*
X0195709Y0282160D01*
X0196869Y0280033D01*
X0197977Y0277878D01*
X0199032Y0275696D01*
X0200034Y0273490D01*
X0200982Y0271260D01*
X0201875Y0269007D01*
X0202713Y0266734D01*
X0203495Y0264441D01*
X0204221Y0262129D01*
X0204891Y0259800D01*
X0205504Y0257456D01*
X0206060Y0255097D01*
X0206558Y0252726D01*
X0206998Y0250343D01*
X0207380Y0247950D01*
X0207703Y0245549D01*
X0207968Y0243140D01*
X0208175Y0240726D01*
X0208322Y0238307D01*
X0208410Y0235886D01*
X0208440Y0233463D01*
X0113190Y0233463D01*
X0213690Y0234713D02*
X0213690Y0151528D01*
X0305912Y0151528D01*
X0311594Y0151528D02*
X0402607Y0151528D01*
X0402607Y0234713D01*
X0213690Y0234713D01*
X0213690Y0269213D02*
X0305912Y0269213D01*
X0311594Y0269213D02*
X0402607Y0269213D01*
X0402607Y0352648D01*
X0213690Y0352648D01*
X0213690Y0269213D01*
X0214190Y0116778D02*
X0214190Y0033343D01*
X0305912Y0033343D01*
X0311594Y0033343D02*
X0402607Y0033343D01*
X0402607Y0116778D01*
X0214440Y0116778D01*
X0009440Y0233713D02*
X0009440Y0234713D01*
D11*
X0221007Y0193120D02*
X0221009Y0193268D01*
X0221015Y0193416D01*
X0221025Y0193564D01*
X0221039Y0193711D01*
X0221057Y0193858D01*
X0221078Y0194004D01*
X0221104Y0194150D01*
X0221134Y0194295D01*
X0221167Y0194439D01*
X0221205Y0194582D01*
X0221246Y0194724D01*
X0221291Y0194865D01*
X0221339Y0195005D01*
X0221392Y0195144D01*
X0221448Y0195281D01*
X0221508Y0195416D01*
X0221571Y0195550D01*
X0221638Y0195682D01*
X0221709Y0195812D01*
X0221783Y0195940D01*
X0221860Y0196066D01*
X0221941Y0196190D01*
X0222025Y0196312D01*
X0222112Y0196431D01*
X0222203Y0196548D01*
X0222297Y0196663D01*
X0222393Y0196775D01*
X0222493Y0196885D01*
X0222595Y0196991D01*
X0222701Y0197095D01*
X0222809Y0197196D01*
X0222920Y0197294D01*
X0223033Y0197390D01*
X0223149Y0197482D01*
X0223267Y0197571D01*
X0223388Y0197656D01*
X0223511Y0197739D01*
X0223636Y0197818D01*
X0223763Y0197894D01*
X0223892Y0197966D01*
X0224023Y0198035D01*
X0224156Y0198100D01*
X0224291Y0198161D01*
X0224427Y0198219D01*
X0224564Y0198274D01*
X0224703Y0198324D01*
X0224844Y0198371D01*
X0224985Y0198414D01*
X0225128Y0198454D01*
X0225272Y0198489D01*
X0225416Y0198521D01*
X0225562Y0198548D01*
X0225708Y0198572D01*
X0225855Y0198592D01*
X0226002Y0198608D01*
X0226149Y0198620D01*
X0226297Y0198628D01*
X0226445Y0198632D01*
X0226593Y0198632D01*
X0226741Y0198628D01*
X0226889Y0198620D01*
X0227036Y0198608D01*
X0227183Y0198592D01*
X0227330Y0198572D01*
X0227476Y0198548D01*
X0227622Y0198521D01*
X0227766Y0198489D01*
X0227910Y0198454D01*
X0228053Y0198414D01*
X0228194Y0198371D01*
X0228335Y0198324D01*
X0228474Y0198274D01*
X0228611Y0198219D01*
X0228747Y0198161D01*
X0228882Y0198100D01*
X0229015Y0198035D01*
X0229146Y0197966D01*
X0229275Y0197894D01*
X0229402Y0197818D01*
X0229527Y0197739D01*
X0229650Y0197656D01*
X0229771Y0197571D01*
X0229889Y0197482D01*
X0230005Y0197390D01*
X0230118Y0197294D01*
X0230229Y0197196D01*
X0230337Y0197095D01*
X0230443Y0196991D01*
X0230545Y0196885D01*
X0230645Y0196775D01*
X0230741Y0196663D01*
X0230835Y0196548D01*
X0230926Y0196431D01*
X0231013Y0196312D01*
X0231097Y0196190D01*
X0231178Y0196066D01*
X0231255Y0195940D01*
X0231329Y0195812D01*
X0231400Y0195682D01*
X0231467Y0195550D01*
X0231530Y0195416D01*
X0231590Y0195281D01*
X0231646Y0195144D01*
X0231699Y0195005D01*
X0231747Y0194865D01*
X0231792Y0194724D01*
X0231833Y0194582D01*
X0231871Y0194439D01*
X0231904Y0194295D01*
X0231934Y0194150D01*
X0231960Y0194004D01*
X0231981Y0193858D01*
X0231999Y0193711D01*
X0232013Y0193564D01*
X0232023Y0193416D01*
X0232029Y0193268D01*
X0232031Y0193120D01*
X0232029Y0192972D01*
X0232023Y0192824D01*
X0232013Y0192676D01*
X0231999Y0192529D01*
X0231981Y0192382D01*
X0231960Y0192236D01*
X0231934Y0192090D01*
X0231904Y0191945D01*
X0231871Y0191801D01*
X0231833Y0191658D01*
X0231792Y0191516D01*
X0231747Y0191375D01*
X0231699Y0191235D01*
X0231646Y0191096D01*
X0231590Y0190959D01*
X0231530Y0190824D01*
X0231467Y0190690D01*
X0231400Y0190558D01*
X0231329Y0190428D01*
X0231255Y0190300D01*
X0231178Y0190174D01*
X0231097Y0190050D01*
X0231013Y0189928D01*
X0230926Y0189809D01*
X0230835Y0189692D01*
X0230741Y0189577D01*
X0230645Y0189465D01*
X0230545Y0189355D01*
X0230443Y0189249D01*
X0230337Y0189145D01*
X0230229Y0189044D01*
X0230118Y0188946D01*
X0230005Y0188850D01*
X0229889Y0188758D01*
X0229771Y0188669D01*
X0229650Y0188584D01*
X0229527Y0188501D01*
X0229402Y0188422D01*
X0229275Y0188346D01*
X0229146Y0188274D01*
X0229015Y0188205D01*
X0228882Y0188140D01*
X0228747Y0188079D01*
X0228611Y0188021D01*
X0228474Y0187966D01*
X0228335Y0187916D01*
X0228194Y0187869D01*
X0228053Y0187826D01*
X0227910Y0187786D01*
X0227766Y0187751D01*
X0227622Y0187719D01*
X0227476Y0187692D01*
X0227330Y0187668D01*
X0227183Y0187648D01*
X0227036Y0187632D01*
X0226889Y0187620D01*
X0226741Y0187612D01*
X0226593Y0187608D01*
X0226445Y0187608D01*
X0226297Y0187612D01*
X0226149Y0187620D01*
X0226002Y0187632D01*
X0225855Y0187648D01*
X0225708Y0187668D01*
X0225562Y0187692D01*
X0225416Y0187719D01*
X0225272Y0187751D01*
X0225128Y0187786D01*
X0224985Y0187826D01*
X0224844Y0187869D01*
X0224703Y0187916D01*
X0224564Y0187966D01*
X0224427Y0188021D01*
X0224291Y0188079D01*
X0224156Y0188140D01*
X0224023Y0188205D01*
X0223892Y0188274D01*
X0223763Y0188346D01*
X0223636Y0188422D01*
X0223511Y0188501D01*
X0223388Y0188584D01*
X0223267Y0188669D01*
X0223149Y0188758D01*
X0223033Y0188850D01*
X0222920Y0188946D01*
X0222809Y0189044D01*
X0222701Y0189145D01*
X0222595Y0189249D01*
X0222493Y0189355D01*
X0222393Y0189465D01*
X0222297Y0189577D01*
X0222203Y0189692D01*
X0222112Y0189809D01*
X0222025Y0189928D01*
X0221941Y0190050D01*
X0221860Y0190174D01*
X0221783Y0190300D01*
X0221709Y0190428D01*
X0221638Y0190558D01*
X0221571Y0190690D01*
X0221508Y0190824D01*
X0221448Y0190959D01*
X0221392Y0191096D01*
X0221339Y0191235D01*
X0221291Y0191375D01*
X0221246Y0191516D01*
X0221205Y0191658D01*
X0221167Y0191801D01*
X0221134Y0191945D01*
X0221104Y0192090D01*
X0221078Y0192236D01*
X0221057Y0192382D01*
X0221039Y0192529D01*
X0221025Y0192676D01*
X0221015Y0192824D01*
X0221009Y0192972D01*
X0221007Y0193120D01*
X0220995Y0075060D02*
X0220997Y0075208D01*
X0221003Y0075356D01*
X0221013Y0075504D01*
X0221027Y0075651D01*
X0221045Y0075798D01*
X0221066Y0075944D01*
X0221092Y0076090D01*
X0221122Y0076235D01*
X0221155Y0076379D01*
X0221193Y0076522D01*
X0221234Y0076664D01*
X0221279Y0076805D01*
X0221327Y0076945D01*
X0221380Y0077084D01*
X0221436Y0077221D01*
X0221496Y0077356D01*
X0221559Y0077490D01*
X0221626Y0077622D01*
X0221697Y0077752D01*
X0221771Y0077880D01*
X0221848Y0078006D01*
X0221929Y0078130D01*
X0222013Y0078252D01*
X0222100Y0078371D01*
X0222191Y0078488D01*
X0222285Y0078603D01*
X0222381Y0078715D01*
X0222481Y0078825D01*
X0222583Y0078931D01*
X0222689Y0079035D01*
X0222797Y0079136D01*
X0222908Y0079234D01*
X0223021Y0079330D01*
X0223137Y0079422D01*
X0223255Y0079511D01*
X0223376Y0079596D01*
X0223499Y0079679D01*
X0223624Y0079758D01*
X0223751Y0079834D01*
X0223880Y0079906D01*
X0224011Y0079975D01*
X0224144Y0080040D01*
X0224279Y0080101D01*
X0224415Y0080159D01*
X0224552Y0080214D01*
X0224691Y0080264D01*
X0224832Y0080311D01*
X0224973Y0080354D01*
X0225116Y0080394D01*
X0225260Y0080429D01*
X0225404Y0080461D01*
X0225550Y0080488D01*
X0225696Y0080512D01*
X0225843Y0080532D01*
X0225990Y0080548D01*
X0226137Y0080560D01*
X0226285Y0080568D01*
X0226433Y0080572D01*
X0226581Y0080572D01*
X0226729Y0080568D01*
X0226877Y0080560D01*
X0227024Y0080548D01*
X0227171Y0080532D01*
X0227318Y0080512D01*
X0227464Y0080488D01*
X0227610Y0080461D01*
X0227754Y0080429D01*
X0227898Y0080394D01*
X0228041Y0080354D01*
X0228182Y0080311D01*
X0228323Y0080264D01*
X0228462Y0080214D01*
X0228599Y0080159D01*
X0228735Y0080101D01*
X0228870Y0080040D01*
X0229003Y0079975D01*
X0229134Y0079906D01*
X0229263Y0079834D01*
X0229390Y0079758D01*
X0229515Y0079679D01*
X0229638Y0079596D01*
X0229759Y0079511D01*
X0229877Y0079422D01*
X0229993Y0079330D01*
X0230106Y0079234D01*
X0230217Y0079136D01*
X0230325Y0079035D01*
X0230431Y0078931D01*
X0230533Y0078825D01*
X0230633Y0078715D01*
X0230729Y0078603D01*
X0230823Y0078488D01*
X0230914Y0078371D01*
X0231001Y0078252D01*
X0231085Y0078130D01*
X0231166Y0078006D01*
X0231243Y0077880D01*
X0231317Y0077752D01*
X0231388Y0077622D01*
X0231455Y0077490D01*
X0231518Y0077356D01*
X0231578Y0077221D01*
X0231634Y0077084D01*
X0231687Y0076945D01*
X0231735Y0076805D01*
X0231780Y0076664D01*
X0231821Y0076522D01*
X0231859Y0076379D01*
X0231892Y0076235D01*
X0231922Y0076090D01*
X0231948Y0075944D01*
X0231969Y0075798D01*
X0231987Y0075651D01*
X0232001Y0075504D01*
X0232011Y0075356D01*
X0232017Y0075208D01*
X0232019Y0075060D01*
X0232017Y0074912D01*
X0232011Y0074764D01*
X0232001Y0074616D01*
X0231987Y0074469D01*
X0231969Y0074322D01*
X0231948Y0074176D01*
X0231922Y0074030D01*
X0231892Y0073885D01*
X0231859Y0073741D01*
X0231821Y0073598D01*
X0231780Y0073456D01*
X0231735Y0073315D01*
X0231687Y0073175D01*
X0231634Y0073036D01*
X0231578Y0072899D01*
X0231518Y0072764D01*
X0231455Y0072630D01*
X0231388Y0072498D01*
X0231317Y0072368D01*
X0231243Y0072240D01*
X0231166Y0072114D01*
X0231085Y0071990D01*
X0231001Y0071868D01*
X0230914Y0071749D01*
X0230823Y0071632D01*
X0230729Y0071517D01*
X0230633Y0071405D01*
X0230533Y0071295D01*
X0230431Y0071189D01*
X0230325Y0071085D01*
X0230217Y0070984D01*
X0230106Y0070886D01*
X0229993Y0070790D01*
X0229877Y0070698D01*
X0229759Y0070609D01*
X0229638Y0070524D01*
X0229515Y0070441D01*
X0229390Y0070362D01*
X0229263Y0070286D01*
X0229134Y0070214D01*
X0229003Y0070145D01*
X0228870Y0070080D01*
X0228735Y0070019D01*
X0228599Y0069961D01*
X0228462Y0069906D01*
X0228323Y0069856D01*
X0228182Y0069809D01*
X0228041Y0069766D01*
X0227898Y0069726D01*
X0227754Y0069691D01*
X0227610Y0069659D01*
X0227464Y0069632D01*
X0227318Y0069608D01*
X0227171Y0069588D01*
X0227024Y0069572D01*
X0226877Y0069560D01*
X0226729Y0069552D01*
X0226581Y0069548D01*
X0226433Y0069548D01*
X0226285Y0069552D01*
X0226137Y0069560D01*
X0225990Y0069572D01*
X0225843Y0069588D01*
X0225696Y0069608D01*
X0225550Y0069632D01*
X0225404Y0069659D01*
X0225260Y0069691D01*
X0225116Y0069726D01*
X0224973Y0069766D01*
X0224832Y0069809D01*
X0224691Y0069856D01*
X0224552Y0069906D01*
X0224415Y0069961D01*
X0224279Y0070019D01*
X0224144Y0070080D01*
X0224011Y0070145D01*
X0223880Y0070214D01*
X0223751Y0070286D01*
X0223624Y0070362D01*
X0223499Y0070441D01*
X0223376Y0070524D01*
X0223255Y0070609D01*
X0223137Y0070698D01*
X0223021Y0070790D01*
X0222908Y0070886D01*
X0222797Y0070984D01*
X0222689Y0071085D01*
X0222583Y0071189D01*
X0222481Y0071295D01*
X0222381Y0071405D01*
X0222285Y0071517D01*
X0222191Y0071632D01*
X0222100Y0071749D01*
X0222013Y0071868D01*
X0221929Y0071990D01*
X0221848Y0072114D01*
X0221771Y0072240D01*
X0221697Y0072368D01*
X0221626Y0072498D01*
X0221559Y0072630D01*
X0221496Y0072764D01*
X0221436Y0072899D01*
X0221380Y0073036D01*
X0221327Y0073175D01*
X0221279Y0073315D01*
X0221234Y0073456D01*
X0221193Y0073598D01*
X0221155Y0073741D01*
X0221122Y0073885D01*
X0221092Y0074030D01*
X0221066Y0074176D01*
X0221045Y0074322D01*
X0221027Y0074469D01*
X0221013Y0074616D01*
X0221003Y0074764D01*
X0220997Y0074912D01*
X0220995Y0075060D01*
X0384267Y0075060D02*
X0384269Y0075208D01*
X0384275Y0075356D01*
X0384285Y0075504D01*
X0384299Y0075651D01*
X0384317Y0075798D01*
X0384338Y0075944D01*
X0384364Y0076090D01*
X0384394Y0076235D01*
X0384427Y0076379D01*
X0384465Y0076522D01*
X0384506Y0076664D01*
X0384551Y0076805D01*
X0384599Y0076945D01*
X0384652Y0077084D01*
X0384708Y0077221D01*
X0384768Y0077356D01*
X0384831Y0077490D01*
X0384898Y0077622D01*
X0384969Y0077752D01*
X0385043Y0077880D01*
X0385120Y0078006D01*
X0385201Y0078130D01*
X0385285Y0078252D01*
X0385372Y0078371D01*
X0385463Y0078488D01*
X0385557Y0078603D01*
X0385653Y0078715D01*
X0385753Y0078825D01*
X0385855Y0078931D01*
X0385961Y0079035D01*
X0386069Y0079136D01*
X0386180Y0079234D01*
X0386293Y0079330D01*
X0386409Y0079422D01*
X0386527Y0079511D01*
X0386648Y0079596D01*
X0386771Y0079679D01*
X0386896Y0079758D01*
X0387023Y0079834D01*
X0387152Y0079906D01*
X0387283Y0079975D01*
X0387416Y0080040D01*
X0387551Y0080101D01*
X0387687Y0080159D01*
X0387824Y0080214D01*
X0387963Y0080264D01*
X0388104Y0080311D01*
X0388245Y0080354D01*
X0388388Y0080394D01*
X0388532Y0080429D01*
X0388676Y0080461D01*
X0388822Y0080488D01*
X0388968Y0080512D01*
X0389115Y0080532D01*
X0389262Y0080548D01*
X0389409Y0080560D01*
X0389557Y0080568D01*
X0389705Y0080572D01*
X0389853Y0080572D01*
X0390001Y0080568D01*
X0390149Y0080560D01*
X0390296Y0080548D01*
X0390443Y0080532D01*
X0390590Y0080512D01*
X0390736Y0080488D01*
X0390882Y0080461D01*
X0391026Y0080429D01*
X0391170Y0080394D01*
X0391313Y0080354D01*
X0391454Y0080311D01*
X0391595Y0080264D01*
X0391734Y0080214D01*
X0391871Y0080159D01*
X0392007Y0080101D01*
X0392142Y0080040D01*
X0392275Y0079975D01*
X0392406Y0079906D01*
X0392535Y0079834D01*
X0392662Y0079758D01*
X0392787Y0079679D01*
X0392910Y0079596D01*
X0393031Y0079511D01*
X0393149Y0079422D01*
X0393265Y0079330D01*
X0393378Y0079234D01*
X0393489Y0079136D01*
X0393597Y0079035D01*
X0393703Y0078931D01*
X0393805Y0078825D01*
X0393905Y0078715D01*
X0394001Y0078603D01*
X0394095Y0078488D01*
X0394186Y0078371D01*
X0394273Y0078252D01*
X0394357Y0078130D01*
X0394438Y0078006D01*
X0394515Y0077880D01*
X0394589Y0077752D01*
X0394660Y0077622D01*
X0394727Y0077490D01*
X0394790Y0077356D01*
X0394850Y0077221D01*
X0394906Y0077084D01*
X0394959Y0076945D01*
X0395007Y0076805D01*
X0395052Y0076664D01*
X0395093Y0076522D01*
X0395131Y0076379D01*
X0395164Y0076235D01*
X0395194Y0076090D01*
X0395220Y0075944D01*
X0395241Y0075798D01*
X0395259Y0075651D01*
X0395273Y0075504D01*
X0395283Y0075356D01*
X0395289Y0075208D01*
X0395291Y0075060D01*
X0395289Y0074912D01*
X0395283Y0074764D01*
X0395273Y0074616D01*
X0395259Y0074469D01*
X0395241Y0074322D01*
X0395220Y0074176D01*
X0395194Y0074030D01*
X0395164Y0073885D01*
X0395131Y0073741D01*
X0395093Y0073598D01*
X0395052Y0073456D01*
X0395007Y0073315D01*
X0394959Y0073175D01*
X0394906Y0073036D01*
X0394850Y0072899D01*
X0394790Y0072764D01*
X0394727Y0072630D01*
X0394660Y0072498D01*
X0394589Y0072368D01*
X0394515Y0072240D01*
X0394438Y0072114D01*
X0394357Y0071990D01*
X0394273Y0071868D01*
X0394186Y0071749D01*
X0394095Y0071632D01*
X0394001Y0071517D01*
X0393905Y0071405D01*
X0393805Y0071295D01*
X0393703Y0071189D01*
X0393597Y0071085D01*
X0393489Y0070984D01*
X0393378Y0070886D01*
X0393265Y0070790D01*
X0393149Y0070698D01*
X0393031Y0070609D01*
X0392910Y0070524D01*
X0392787Y0070441D01*
X0392662Y0070362D01*
X0392535Y0070286D01*
X0392406Y0070214D01*
X0392275Y0070145D01*
X0392142Y0070080D01*
X0392007Y0070019D01*
X0391871Y0069961D01*
X0391734Y0069906D01*
X0391595Y0069856D01*
X0391454Y0069809D01*
X0391313Y0069766D01*
X0391170Y0069726D01*
X0391026Y0069691D01*
X0390882Y0069659D01*
X0390736Y0069632D01*
X0390590Y0069608D01*
X0390443Y0069588D01*
X0390296Y0069572D01*
X0390149Y0069560D01*
X0390001Y0069552D01*
X0389853Y0069548D01*
X0389705Y0069548D01*
X0389557Y0069552D01*
X0389409Y0069560D01*
X0389262Y0069572D01*
X0389115Y0069588D01*
X0388968Y0069608D01*
X0388822Y0069632D01*
X0388676Y0069659D01*
X0388532Y0069691D01*
X0388388Y0069726D01*
X0388245Y0069766D01*
X0388104Y0069809D01*
X0387963Y0069856D01*
X0387824Y0069906D01*
X0387687Y0069961D01*
X0387551Y0070019D01*
X0387416Y0070080D01*
X0387283Y0070145D01*
X0387152Y0070214D01*
X0387023Y0070286D01*
X0386896Y0070362D01*
X0386771Y0070441D01*
X0386648Y0070524D01*
X0386527Y0070609D01*
X0386409Y0070698D01*
X0386293Y0070790D01*
X0386180Y0070886D01*
X0386069Y0070984D01*
X0385961Y0071085D01*
X0385855Y0071189D01*
X0385753Y0071295D01*
X0385653Y0071405D01*
X0385557Y0071517D01*
X0385463Y0071632D01*
X0385372Y0071749D01*
X0385285Y0071868D01*
X0385201Y0071990D01*
X0385120Y0072114D01*
X0385043Y0072240D01*
X0384969Y0072368D01*
X0384898Y0072498D01*
X0384831Y0072630D01*
X0384768Y0072764D01*
X0384708Y0072899D01*
X0384652Y0073036D01*
X0384599Y0073175D01*
X0384551Y0073315D01*
X0384506Y0073456D01*
X0384465Y0073598D01*
X0384427Y0073741D01*
X0384394Y0073885D01*
X0384364Y0074030D01*
X0384338Y0074176D01*
X0384317Y0074322D01*
X0384299Y0074469D01*
X0384285Y0074616D01*
X0384275Y0074764D01*
X0384269Y0074912D01*
X0384267Y0075060D01*
X0384267Y0193120D02*
X0384269Y0193268D01*
X0384275Y0193416D01*
X0384285Y0193564D01*
X0384299Y0193711D01*
X0384317Y0193858D01*
X0384338Y0194004D01*
X0384364Y0194150D01*
X0384394Y0194295D01*
X0384427Y0194439D01*
X0384465Y0194582D01*
X0384506Y0194724D01*
X0384551Y0194865D01*
X0384599Y0195005D01*
X0384652Y0195144D01*
X0384708Y0195281D01*
X0384768Y0195416D01*
X0384831Y0195550D01*
X0384898Y0195682D01*
X0384969Y0195812D01*
X0385043Y0195940D01*
X0385120Y0196066D01*
X0385201Y0196190D01*
X0385285Y0196312D01*
X0385372Y0196431D01*
X0385463Y0196548D01*
X0385557Y0196663D01*
X0385653Y0196775D01*
X0385753Y0196885D01*
X0385855Y0196991D01*
X0385961Y0197095D01*
X0386069Y0197196D01*
X0386180Y0197294D01*
X0386293Y0197390D01*
X0386409Y0197482D01*
X0386527Y0197571D01*
X0386648Y0197656D01*
X0386771Y0197739D01*
X0386896Y0197818D01*
X0387023Y0197894D01*
X0387152Y0197966D01*
X0387283Y0198035D01*
X0387416Y0198100D01*
X0387551Y0198161D01*
X0387687Y0198219D01*
X0387824Y0198274D01*
X0387963Y0198324D01*
X0388104Y0198371D01*
X0388245Y0198414D01*
X0388388Y0198454D01*
X0388532Y0198489D01*
X0388676Y0198521D01*
X0388822Y0198548D01*
X0388968Y0198572D01*
X0389115Y0198592D01*
X0389262Y0198608D01*
X0389409Y0198620D01*
X0389557Y0198628D01*
X0389705Y0198632D01*
X0389853Y0198632D01*
X0390001Y0198628D01*
X0390149Y0198620D01*
X0390296Y0198608D01*
X0390443Y0198592D01*
X0390590Y0198572D01*
X0390736Y0198548D01*
X0390882Y0198521D01*
X0391026Y0198489D01*
X0391170Y0198454D01*
X0391313Y0198414D01*
X0391454Y0198371D01*
X0391595Y0198324D01*
X0391734Y0198274D01*
X0391871Y0198219D01*
X0392007Y0198161D01*
X0392142Y0198100D01*
X0392275Y0198035D01*
X0392406Y0197966D01*
X0392535Y0197894D01*
X0392662Y0197818D01*
X0392787Y0197739D01*
X0392910Y0197656D01*
X0393031Y0197571D01*
X0393149Y0197482D01*
X0393265Y0197390D01*
X0393378Y0197294D01*
X0393489Y0197196D01*
X0393597Y0197095D01*
X0393703Y0196991D01*
X0393805Y0196885D01*
X0393905Y0196775D01*
X0394001Y0196663D01*
X0394095Y0196548D01*
X0394186Y0196431D01*
X0394273Y0196312D01*
X0394357Y0196190D01*
X0394438Y0196066D01*
X0394515Y0195940D01*
X0394589Y0195812D01*
X0394660Y0195682D01*
X0394727Y0195550D01*
X0394790Y0195416D01*
X0394850Y0195281D01*
X0394906Y0195144D01*
X0394959Y0195005D01*
X0395007Y0194865D01*
X0395052Y0194724D01*
X0395093Y0194582D01*
X0395131Y0194439D01*
X0395164Y0194295D01*
X0395194Y0194150D01*
X0395220Y0194004D01*
X0395241Y0193858D01*
X0395259Y0193711D01*
X0395273Y0193564D01*
X0395283Y0193416D01*
X0395289Y0193268D01*
X0395291Y0193120D01*
X0395289Y0192972D01*
X0395283Y0192824D01*
X0395273Y0192676D01*
X0395259Y0192529D01*
X0395241Y0192382D01*
X0395220Y0192236D01*
X0395194Y0192090D01*
X0395164Y0191945D01*
X0395131Y0191801D01*
X0395093Y0191658D01*
X0395052Y0191516D01*
X0395007Y0191375D01*
X0394959Y0191235D01*
X0394906Y0191096D01*
X0394850Y0190959D01*
X0394790Y0190824D01*
X0394727Y0190690D01*
X0394660Y0190558D01*
X0394589Y0190428D01*
X0394515Y0190300D01*
X0394438Y0190174D01*
X0394357Y0190050D01*
X0394273Y0189928D01*
X0394186Y0189809D01*
X0394095Y0189692D01*
X0394001Y0189577D01*
X0393905Y0189465D01*
X0393805Y0189355D01*
X0393703Y0189249D01*
X0393597Y0189145D01*
X0393489Y0189044D01*
X0393378Y0188946D01*
X0393265Y0188850D01*
X0393149Y0188758D01*
X0393031Y0188669D01*
X0392910Y0188584D01*
X0392787Y0188501D01*
X0392662Y0188422D01*
X0392535Y0188346D01*
X0392406Y0188274D01*
X0392275Y0188205D01*
X0392142Y0188140D01*
X0392007Y0188079D01*
X0391871Y0188021D01*
X0391734Y0187966D01*
X0391595Y0187916D01*
X0391454Y0187869D01*
X0391313Y0187826D01*
X0391170Y0187786D01*
X0391026Y0187751D01*
X0390882Y0187719D01*
X0390736Y0187692D01*
X0390590Y0187668D01*
X0390443Y0187648D01*
X0390296Y0187632D01*
X0390149Y0187620D01*
X0390001Y0187612D01*
X0389853Y0187608D01*
X0389705Y0187608D01*
X0389557Y0187612D01*
X0389409Y0187620D01*
X0389262Y0187632D01*
X0389115Y0187648D01*
X0388968Y0187668D01*
X0388822Y0187692D01*
X0388676Y0187719D01*
X0388532Y0187751D01*
X0388388Y0187786D01*
X0388245Y0187826D01*
X0388104Y0187869D01*
X0387963Y0187916D01*
X0387824Y0187966D01*
X0387687Y0188021D01*
X0387551Y0188079D01*
X0387416Y0188140D01*
X0387283Y0188205D01*
X0387152Y0188274D01*
X0387023Y0188346D01*
X0386896Y0188422D01*
X0386771Y0188501D01*
X0386648Y0188584D01*
X0386527Y0188669D01*
X0386409Y0188758D01*
X0386293Y0188850D01*
X0386180Y0188946D01*
X0386069Y0189044D01*
X0385961Y0189145D01*
X0385855Y0189249D01*
X0385753Y0189355D01*
X0385653Y0189465D01*
X0385557Y0189577D01*
X0385463Y0189692D01*
X0385372Y0189809D01*
X0385285Y0189928D01*
X0385201Y0190050D01*
X0385120Y0190174D01*
X0385043Y0190300D01*
X0384969Y0190428D01*
X0384898Y0190558D01*
X0384831Y0190690D01*
X0384768Y0190824D01*
X0384708Y0190959D01*
X0384652Y0191096D01*
X0384599Y0191235D01*
X0384551Y0191375D01*
X0384506Y0191516D01*
X0384465Y0191658D01*
X0384427Y0191801D01*
X0384394Y0191945D01*
X0384364Y0192090D01*
X0384338Y0192236D01*
X0384317Y0192382D01*
X0384299Y0192529D01*
X0384285Y0192676D01*
X0384275Y0192824D01*
X0384269Y0192972D01*
X0384267Y0193120D01*
X0385291Y0310930D02*
X0385293Y0311064D01*
X0385299Y0311197D01*
X0385309Y0311330D01*
X0385323Y0311463D01*
X0385341Y0311596D01*
X0385362Y0311728D01*
X0385388Y0311859D01*
X0385418Y0311989D01*
X0385451Y0312118D01*
X0385489Y0312247D01*
X0385530Y0312374D01*
X0385575Y0312500D01*
X0385623Y0312624D01*
X0385675Y0312747D01*
X0385731Y0312869D01*
X0385791Y0312988D01*
X0385854Y0313106D01*
X0385920Y0313222D01*
X0385990Y0313336D01*
X0386064Y0313448D01*
X0386140Y0313557D01*
X0386220Y0313664D01*
X0386303Y0313769D01*
X0386389Y0313871D01*
X0386478Y0313971D01*
X0386570Y0314068D01*
X0386665Y0314162D01*
X0386763Y0314253D01*
X0386863Y0314342D01*
X0386966Y0314427D01*
X0387071Y0314509D01*
X0387179Y0314588D01*
X0387289Y0314664D01*
X0387401Y0314736D01*
X0387516Y0314806D01*
X0387632Y0314871D01*
X0387750Y0314933D01*
X0387871Y0314992D01*
X0387992Y0315047D01*
X0388116Y0315098D01*
X0388241Y0315146D01*
X0388367Y0315190D01*
X0388494Y0315230D01*
X0388623Y0315267D01*
X0388752Y0315299D01*
X0388883Y0315328D01*
X0389014Y0315352D01*
X0389146Y0315373D01*
X0389279Y0315390D01*
X0389412Y0315403D01*
X0389545Y0315412D01*
X0389679Y0315417D01*
X0389812Y0315418D01*
X0389946Y0315415D01*
X0390079Y0315408D01*
X0390213Y0315397D01*
X0390345Y0315382D01*
X0390478Y0315363D01*
X0390609Y0315340D01*
X0390740Y0315314D01*
X0390871Y0315283D01*
X0391000Y0315249D01*
X0391128Y0315211D01*
X0391255Y0315169D01*
X0391380Y0315123D01*
X0391504Y0315073D01*
X0391627Y0315020D01*
X0391748Y0314963D01*
X0391867Y0314903D01*
X0391984Y0314839D01*
X0392100Y0314771D01*
X0392213Y0314701D01*
X0392324Y0314626D01*
X0392433Y0314549D01*
X0392540Y0314468D01*
X0392644Y0314385D01*
X0392745Y0314298D01*
X0392844Y0314208D01*
X0392941Y0314115D01*
X0393034Y0314020D01*
X0393125Y0313921D01*
X0393212Y0313821D01*
X0393297Y0313717D01*
X0393378Y0313611D01*
X0393456Y0313503D01*
X0393531Y0313392D01*
X0393603Y0313279D01*
X0393671Y0313164D01*
X0393736Y0313047D01*
X0393797Y0312929D01*
X0393855Y0312808D01*
X0393909Y0312686D01*
X0393960Y0312562D01*
X0394006Y0312437D01*
X0394049Y0312311D01*
X0394089Y0312183D01*
X0394124Y0312054D01*
X0394156Y0311924D01*
X0394183Y0311793D01*
X0394207Y0311662D01*
X0394227Y0311530D01*
X0394243Y0311397D01*
X0394255Y0311264D01*
X0394263Y0311130D01*
X0394267Y0310997D01*
X0394267Y0310863D01*
X0394263Y0310730D01*
X0394255Y0310596D01*
X0394243Y0310463D01*
X0394227Y0310330D01*
X0394207Y0310198D01*
X0394183Y0310067D01*
X0394156Y0309936D01*
X0394124Y0309806D01*
X0394089Y0309677D01*
X0394049Y0309549D01*
X0394006Y0309423D01*
X0393960Y0309298D01*
X0393909Y0309174D01*
X0393855Y0309052D01*
X0393797Y0308931D01*
X0393736Y0308813D01*
X0393671Y0308696D01*
X0393603Y0308581D01*
X0393531Y0308468D01*
X0393456Y0308357D01*
X0393378Y0308249D01*
X0393297Y0308143D01*
X0393212Y0308039D01*
X0393125Y0307939D01*
X0393034Y0307840D01*
X0392941Y0307745D01*
X0392844Y0307652D01*
X0392745Y0307562D01*
X0392644Y0307475D01*
X0392540Y0307392D01*
X0392433Y0307311D01*
X0392324Y0307234D01*
X0392213Y0307159D01*
X0392100Y0307089D01*
X0391984Y0307021D01*
X0391867Y0306957D01*
X0391748Y0306897D01*
X0391627Y0306840D01*
X0391504Y0306787D01*
X0391380Y0306737D01*
X0391255Y0306691D01*
X0391128Y0306649D01*
X0391000Y0306611D01*
X0390871Y0306577D01*
X0390740Y0306546D01*
X0390609Y0306520D01*
X0390478Y0306497D01*
X0390345Y0306478D01*
X0390213Y0306463D01*
X0390079Y0306452D01*
X0389946Y0306445D01*
X0389812Y0306442D01*
X0389679Y0306443D01*
X0389545Y0306448D01*
X0389412Y0306457D01*
X0389279Y0306470D01*
X0389146Y0306487D01*
X0389014Y0306508D01*
X0388883Y0306532D01*
X0388752Y0306561D01*
X0388623Y0306593D01*
X0388494Y0306630D01*
X0388367Y0306670D01*
X0388241Y0306714D01*
X0388116Y0306762D01*
X0387992Y0306813D01*
X0387871Y0306868D01*
X0387750Y0306927D01*
X0387632Y0306989D01*
X0387516Y0307054D01*
X0387401Y0307124D01*
X0387289Y0307196D01*
X0387179Y0307272D01*
X0387071Y0307351D01*
X0386966Y0307433D01*
X0386863Y0307518D01*
X0386763Y0307607D01*
X0386665Y0307698D01*
X0386570Y0307792D01*
X0386478Y0307889D01*
X0386389Y0307989D01*
X0386303Y0308091D01*
X0386220Y0308196D01*
X0386140Y0308303D01*
X0386064Y0308412D01*
X0385990Y0308524D01*
X0385920Y0308638D01*
X0385854Y0308754D01*
X0385791Y0308872D01*
X0385731Y0308991D01*
X0385675Y0309113D01*
X0385623Y0309236D01*
X0385575Y0309360D01*
X0385530Y0309486D01*
X0385489Y0309613D01*
X0385451Y0309742D01*
X0385418Y0309871D01*
X0385388Y0310001D01*
X0385362Y0310132D01*
X0385341Y0310264D01*
X0385323Y0310397D01*
X0385309Y0310530D01*
X0385299Y0310663D01*
X0385293Y0310796D01*
X0385291Y0310930D01*
X0221007Y0310930D02*
X0221009Y0311078D01*
X0221015Y0311226D01*
X0221025Y0311374D01*
X0221039Y0311521D01*
X0221057Y0311668D01*
X0221078Y0311814D01*
X0221104Y0311960D01*
X0221134Y0312105D01*
X0221167Y0312249D01*
X0221205Y0312392D01*
X0221246Y0312534D01*
X0221291Y0312675D01*
X0221339Y0312815D01*
X0221392Y0312954D01*
X0221448Y0313091D01*
X0221508Y0313226D01*
X0221571Y0313360D01*
X0221638Y0313492D01*
X0221709Y0313622D01*
X0221783Y0313750D01*
X0221860Y0313876D01*
X0221941Y0314000D01*
X0222025Y0314122D01*
X0222112Y0314241D01*
X0222203Y0314358D01*
X0222297Y0314473D01*
X0222393Y0314585D01*
X0222493Y0314695D01*
X0222595Y0314801D01*
X0222701Y0314905D01*
X0222809Y0315006D01*
X0222920Y0315104D01*
X0223033Y0315200D01*
X0223149Y0315292D01*
X0223267Y0315381D01*
X0223388Y0315466D01*
X0223511Y0315549D01*
X0223636Y0315628D01*
X0223763Y0315704D01*
X0223892Y0315776D01*
X0224023Y0315845D01*
X0224156Y0315910D01*
X0224291Y0315971D01*
X0224427Y0316029D01*
X0224564Y0316084D01*
X0224703Y0316134D01*
X0224844Y0316181D01*
X0224985Y0316224D01*
X0225128Y0316264D01*
X0225272Y0316299D01*
X0225416Y0316331D01*
X0225562Y0316358D01*
X0225708Y0316382D01*
X0225855Y0316402D01*
X0226002Y0316418D01*
X0226149Y0316430D01*
X0226297Y0316438D01*
X0226445Y0316442D01*
X0226593Y0316442D01*
X0226741Y0316438D01*
X0226889Y0316430D01*
X0227036Y0316418D01*
X0227183Y0316402D01*
X0227330Y0316382D01*
X0227476Y0316358D01*
X0227622Y0316331D01*
X0227766Y0316299D01*
X0227910Y0316264D01*
X0228053Y0316224D01*
X0228194Y0316181D01*
X0228335Y0316134D01*
X0228474Y0316084D01*
X0228611Y0316029D01*
X0228747Y0315971D01*
X0228882Y0315910D01*
X0229015Y0315845D01*
X0229146Y0315776D01*
X0229275Y0315704D01*
X0229402Y0315628D01*
X0229527Y0315549D01*
X0229650Y0315466D01*
X0229771Y0315381D01*
X0229889Y0315292D01*
X0230005Y0315200D01*
X0230118Y0315104D01*
X0230229Y0315006D01*
X0230337Y0314905D01*
X0230443Y0314801D01*
X0230545Y0314695D01*
X0230645Y0314585D01*
X0230741Y0314473D01*
X0230835Y0314358D01*
X0230926Y0314241D01*
X0231013Y0314122D01*
X0231097Y0314000D01*
X0231178Y0313876D01*
X0231255Y0313750D01*
X0231329Y0313622D01*
X0231400Y0313492D01*
X0231467Y0313360D01*
X0231530Y0313226D01*
X0231590Y0313091D01*
X0231646Y0312954D01*
X0231699Y0312815D01*
X0231747Y0312675D01*
X0231792Y0312534D01*
X0231833Y0312392D01*
X0231871Y0312249D01*
X0231904Y0312105D01*
X0231934Y0311960D01*
X0231960Y0311814D01*
X0231981Y0311668D01*
X0231999Y0311521D01*
X0232013Y0311374D01*
X0232023Y0311226D01*
X0232029Y0311078D01*
X0232031Y0310930D01*
X0232029Y0310782D01*
X0232023Y0310634D01*
X0232013Y0310486D01*
X0231999Y0310339D01*
X0231981Y0310192D01*
X0231960Y0310046D01*
X0231934Y0309900D01*
X0231904Y0309755D01*
X0231871Y0309611D01*
X0231833Y0309468D01*
X0231792Y0309326D01*
X0231747Y0309185D01*
X0231699Y0309045D01*
X0231646Y0308906D01*
X0231590Y0308769D01*
X0231530Y0308634D01*
X0231467Y0308500D01*
X0231400Y0308368D01*
X0231329Y0308238D01*
X0231255Y0308110D01*
X0231178Y0307984D01*
X0231097Y0307860D01*
X0231013Y0307738D01*
X0230926Y0307619D01*
X0230835Y0307502D01*
X0230741Y0307387D01*
X0230645Y0307275D01*
X0230545Y0307165D01*
X0230443Y0307059D01*
X0230337Y0306955D01*
X0230229Y0306854D01*
X0230118Y0306756D01*
X0230005Y0306660D01*
X0229889Y0306568D01*
X0229771Y0306479D01*
X0229650Y0306394D01*
X0229527Y0306311D01*
X0229402Y0306232D01*
X0229275Y0306156D01*
X0229146Y0306084D01*
X0229015Y0306015D01*
X0228882Y0305950D01*
X0228747Y0305889D01*
X0228611Y0305831D01*
X0228474Y0305776D01*
X0228335Y0305726D01*
X0228194Y0305679D01*
X0228053Y0305636D01*
X0227910Y0305596D01*
X0227766Y0305561D01*
X0227622Y0305529D01*
X0227476Y0305502D01*
X0227330Y0305478D01*
X0227183Y0305458D01*
X0227036Y0305442D01*
X0226889Y0305430D01*
X0226741Y0305422D01*
X0226593Y0305418D01*
X0226445Y0305418D01*
X0226297Y0305422D01*
X0226149Y0305430D01*
X0226002Y0305442D01*
X0225855Y0305458D01*
X0225708Y0305478D01*
X0225562Y0305502D01*
X0225416Y0305529D01*
X0225272Y0305561D01*
X0225128Y0305596D01*
X0224985Y0305636D01*
X0224844Y0305679D01*
X0224703Y0305726D01*
X0224564Y0305776D01*
X0224427Y0305831D01*
X0224291Y0305889D01*
X0224156Y0305950D01*
X0224023Y0306015D01*
X0223892Y0306084D01*
X0223763Y0306156D01*
X0223636Y0306232D01*
X0223511Y0306311D01*
X0223388Y0306394D01*
X0223267Y0306479D01*
X0223149Y0306568D01*
X0223033Y0306660D01*
X0222920Y0306756D01*
X0222809Y0306854D01*
X0222701Y0306955D01*
X0222595Y0307059D01*
X0222493Y0307165D01*
X0222393Y0307275D01*
X0222297Y0307387D01*
X0222203Y0307502D01*
X0222112Y0307619D01*
X0222025Y0307738D01*
X0221941Y0307860D01*
X0221860Y0307984D01*
X0221783Y0308110D01*
X0221709Y0308238D01*
X0221638Y0308368D01*
X0221571Y0308500D01*
X0221508Y0308634D01*
X0221448Y0308769D01*
X0221392Y0308906D01*
X0221339Y0309045D01*
X0221291Y0309185D01*
X0221246Y0309326D01*
X0221205Y0309468D01*
X0221167Y0309611D01*
X0221134Y0309755D01*
X0221104Y0309900D01*
X0221078Y0310046D01*
X0221057Y0310192D01*
X0221039Y0310339D01*
X0221025Y0310486D01*
X0221015Y0310634D01*
X0221009Y0310782D01*
X0221007Y0310930D01*
D12*
X0242948Y0335382D02*
X0242948Y0336416D01*
X0242948Y0335899D02*
X0245534Y0335899D01*
X0246051Y0335382D01*
X0246051Y0334865D01*
X0245534Y0334348D01*
X0245534Y0337570D02*
X0246051Y0338087D01*
X0246051Y0339122D01*
X0245534Y0339639D01*
X0245017Y0339639D01*
X0244500Y0339122D01*
X0244500Y0338605D01*
X0244500Y0339122D02*
X0243983Y0339639D01*
X0243465Y0339639D01*
X0242948Y0339122D01*
X0242948Y0338087D01*
X0243465Y0337570D01*
X0340006Y0323865D02*
X0340523Y0323348D01*
X0341040Y0323348D01*
X0341557Y0323865D01*
X0341557Y0326450D01*
X0341040Y0326450D02*
X0342074Y0326450D01*
X0343228Y0324899D02*
X0344780Y0326450D01*
X0344780Y0323348D01*
X0345297Y0324899D02*
X0343228Y0324899D01*
X0243465Y0221954D02*
X0242948Y0221954D01*
X0242948Y0219885D01*
X0242948Y0218731D02*
X0242948Y0217697D01*
X0242948Y0218214D02*
X0245534Y0218214D01*
X0246051Y0217697D01*
X0246051Y0217180D01*
X0245534Y0216663D01*
X0245534Y0219885D02*
X0246051Y0219885D01*
X0245534Y0219885D02*
X0243465Y0221954D01*
X0336783Y0206180D02*
X0337300Y0205663D01*
X0337817Y0205663D01*
X0338334Y0206180D01*
X0338334Y0208765D01*
X0337817Y0208765D02*
X0338851Y0208765D01*
X0340006Y0207731D02*
X0341040Y0208765D01*
X0341040Y0205663D01*
X0340006Y0205663D02*
X0342074Y0205663D01*
X0343228Y0206180D02*
X0345297Y0208248D01*
X0345297Y0206180D01*
X0344780Y0205663D01*
X0343745Y0205663D01*
X0343228Y0206180D01*
X0343228Y0208248D01*
X0343745Y0208765D01*
X0344780Y0208765D01*
X0345297Y0208248D01*
X0246051Y0106991D02*
X0246051Y0104923D01*
X0246051Y0105957D02*
X0242948Y0105957D01*
X0243983Y0104923D01*
X0246051Y0103769D02*
X0246051Y0101700D01*
X0246051Y0102735D02*
X0242948Y0102735D01*
X0243983Y0101700D01*
X0242948Y0100546D02*
X0242948Y0099512D01*
X0242948Y0100029D02*
X0245534Y0100029D01*
X0246051Y0099512D01*
X0246051Y0098995D01*
X0245534Y0098478D01*
X0336783Y0087995D02*
X0337300Y0087478D01*
X0337817Y0087478D01*
X0338334Y0087995D01*
X0338334Y0090580D01*
X0337817Y0090580D02*
X0338851Y0090580D01*
X0340006Y0089546D02*
X0341040Y0090580D01*
X0341040Y0087478D01*
X0340006Y0087478D02*
X0342074Y0087478D01*
X0343228Y0089029D02*
X0345297Y0089029D01*
X0344780Y0090580D02*
X0343228Y0089029D01*
X0344780Y0087478D02*
X0344780Y0090580D01*
D13*
X0347806Y0098278D02*
X0360011Y0098278D01*
X0367491Y0098278D02*
X0368751Y0098278D01*
X0368751Y0108278D01*
X0357255Y0108278D01*
X0349775Y0108278D02*
X0337176Y0108278D01*
X0329696Y0108278D02*
X0317491Y0108278D01*
X0310011Y0108278D02*
X0308751Y0108278D01*
X0308751Y0098278D01*
X0319853Y0098278D01*
X0327727Y0098278D02*
X0340326Y0098278D01*
X0309263Y0116152D02*
X0309263Y0125994D01*
X0305011Y0125994D01*
X0305011Y0149616D01*
X0302491Y0149616D01*
X0302491Y0125994D01*
X0305011Y0125994D01*
X0302491Y0125994D02*
X0248239Y0125994D01*
X0248239Y0116152D01*
X0309263Y0116152D01*
X0295011Y0125994D02*
X0295011Y0149616D01*
X0292491Y0149616D01*
X0292491Y0125994D01*
X0285011Y0125994D02*
X0285011Y0149616D01*
X0282491Y0149616D01*
X0282491Y0125994D01*
X0275011Y0125994D02*
X0275011Y0149616D01*
X0272491Y0149616D01*
X0272491Y0125994D01*
X0265011Y0125994D02*
X0265011Y0149616D01*
X0262491Y0149616D01*
X0262491Y0125994D01*
X0255011Y0125994D02*
X0255011Y0149616D01*
X0252491Y0149616D01*
X0252491Y0125994D01*
X0308751Y0216463D02*
X0319853Y0216463D01*
X0327727Y0216463D02*
X0340326Y0216463D01*
X0347806Y0216463D02*
X0360011Y0216463D01*
X0367491Y0216463D02*
X0368751Y0216463D01*
X0368751Y0226463D01*
X0357255Y0226463D01*
X0349775Y0226463D02*
X0337176Y0226463D01*
X0329696Y0226463D02*
X0317491Y0226463D01*
X0310011Y0226463D02*
X0308751Y0226463D01*
X0308751Y0216463D01*
X0309263Y0234337D02*
X0248239Y0234337D01*
X0248239Y0244179D01*
X0302491Y0244179D01*
X0302491Y0267801D01*
X0305011Y0267801D01*
X0305011Y0244179D01*
X0309263Y0244179D01*
X0309263Y0234337D01*
X0305011Y0244179D02*
X0302491Y0244179D01*
X0295011Y0244179D02*
X0295011Y0267801D01*
X0292491Y0267801D01*
X0292491Y0244179D01*
X0285011Y0244179D02*
X0285011Y0267801D01*
X0282491Y0267801D01*
X0282491Y0244179D01*
X0275011Y0244179D02*
X0275011Y0267801D01*
X0272491Y0267801D01*
X0272491Y0244179D01*
X0265011Y0244179D02*
X0265011Y0267801D01*
X0262491Y0267801D01*
X0262491Y0244179D01*
X0255011Y0244179D02*
X0255011Y0267801D01*
X0252491Y0267801D01*
X0252491Y0244179D01*
X0308751Y0334148D02*
X0319853Y0334148D01*
X0327727Y0334148D02*
X0340326Y0334148D01*
X0347806Y0334148D02*
X0360011Y0334148D01*
X0367491Y0334148D02*
X0368751Y0334148D01*
X0368751Y0344148D01*
X0357255Y0344148D01*
X0349775Y0344148D02*
X0337176Y0344148D01*
X0329696Y0344148D02*
X0317491Y0344148D01*
X0310011Y0344148D02*
X0308751Y0344148D01*
X0308751Y0334148D01*
X0309263Y0352022D02*
X0248239Y0352022D01*
X0248239Y0361864D01*
X0302491Y0361864D01*
X0302491Y0385486D01*
X0305011Y0385486D01*
X0305011Y0361864D01*
X0309263Y0361864D01*
X0309263Y0352022D01*
X0305011Y0361864D02*
X0302491Y0361864D01*
X0295011Y0361864D02*
X0295011Y0385486D01*
X0292491Y0385486D01*
X0292491Y0361864D01*
X0285011Y0361864D02*
X0285011Y0385486D01*
X0282491Y0385486D01*
X0282491Y0361864D01*
X0275011Y0361864D02*
X0275011Y0385486D01*
X0272491Y0385486D01*
X0272491Y0361864D01*
X0265011Y0361864D02*
X0265011Y0385486D01*
X0262491Y0385486D01*
X0262491Y0361864D01*
X0255011Y0361864D02*
X0255011Y0385486D01*
X0252491Y0385486D01*
X0252491Y0361864D01*
M02*
