G75*
%MOIN*%
%OFA0B0*%
%FSLAX25Y25*%
%IPPOS*%
%LPD*%
%AMOC8*
5,1,8,0,0,1.08239X$1,22.5*
%
%ADD10C,0.11824*%
%ADD11C,0.09776*%
%ADD12C,0.07924*%
%ADD13R,0.07300X0.07300*%
%ADD14C,0.07300*%
%ADD15R,0.05800X0.13280*%
%ADD16C,0.02900*%
%ADD17C,0.03400*%
%ADD18R,0.06800X0.12800*%
%ADD19C,0.07200*%
D10*
X0226507Y0075060D03*
X0226519Y0193120D03*
X0226519Y0310930D03*
X0389779Y0193120D03*
X0389779Y0075060D03*
D11*
X0389779Y0310930D03*
D12*
X0084168Y0091568D03*
X0043712Y0118595D03*
X0025832Y0156525D03*
X0025557Y0250946D03*
X0043529Y0288885D03*
X0083973Y0315849D03*
X0133907Y0315849D03*
X0174351Y0288885D03*
X0192323Y0250946D03*
X0192640Y0156564D03*
X0174668Y0118595D03*
X0134212Y0091568D03*
D13*
X0134190Y0172463D03*
X0253751Y0159278D03*
X0313751Y0159278D03*
X0313751Y0276963D03*
X0253751Y0276963D03*
X0253751Y0041093D03*
X0313751Y0041093D03*
D14*
X0323751Y0041093D03*
X0333751Y0041093D03*
X0343751Y0041093D03*
X0353751Y0041093D03*
X0363751Y0041093D03*
X0303751Y0041093D03*
X0293751Y0041093D03*
X0283751Y0041093D03*
X0273751Y0041093D03*
X0263751Y0041093D03*
X0263751Y0159278D03*
X0273751Y0159278D03*
X0283751Y0159278D03*
X0293751Y0159278D03*
X0303751Y0159278D03*
X0323751Y0159278D03*
X0333751Y0159278D03*
X0343751Y0159278D03*
X0353751Y0159278D03*
X0363751Y0159278D03*
X0363751Y0276963D03*
X0353751Y0276963D03*
X0343751Y0276963D03*
X0333751Y0276963D03*
X0323751Y0276963D03*
X0303751Y0276963D03*
X0293751Y0276963D03*
X0283751Y0276963D03*
X0273751Y0276963D03*
X0263751Y0276963D03*
X0124190Y0172463D03*
X0114190Y0172463D03*
X0104190Y0172463D03*
X0094190Y0172463D03*
X0084190Y0172463D03*
D15*
X0253751Y0226463D03*
X0253751Y0344148D03*
X0253751Y0108278D03*
D16*
X0265201Y0113468D02*
X0265201Y0103088D01*
X0262301Y0103088D01*
X0262301Y0113468D01*
X0265201Y0113468D01*
X0265201Y0105987D02*
X0262301Y0105987D01*
X0262301Y0108886D02*
X0265201Y0108886D01*
X0265201Y0111785D02*
X0262301Y0111785D01*
X0275201Y0113468D02*
X0275201Y0103088D01*
X0272301Y0103088D01*
X0272301Y0113468D01*
X0275201Y0113468D01*
X0275201Y0105987D02*
X0272301Y0105987D01*
X0272301Y0108886D02*
X0275201Y0108886D01*
X0275201Y0111785D02*
X0272301Y0111785D01*
X0285201Y0113468D02*
X0285201Y0103088D01*
X0282301Y0103088D01*
X0282301Y0113468D01*
X0285201Y0113468D01*
X0285201Y0105987D02*
X0282301Y0105987D01*
X0282301Y0108886D02*
X0285201Y0108886D01*
X0285201Y0111785D02*
X0282301Y0111785D01*
X0295201Y0113468D02*
X0295201Y0103088D01*
X0292301Y0103088D01*
X0292301Y0113468D01*
X0295201Y0113468D01*
X0295201Y0105987D02*
X0292301Y0105987D01*
X0292301Y0108886D02*
X0295201Y0108886D01*
X0295201Y0111785D02*
X0292301Y0111785D01*
X0305201Y0113468D02*
X0305201Y0103088D01*
X0302301Y0103088D01*
X0302301Y0113468D01*
X0305201Y0113468D01*
X0305201Y0105987D02*
X0302301Y0105987D01*
X0302301Y0108886D02*
X0305201Y0108886D01*
X0305201Y0111785D02*
X0302301Y0111785D01*
X0305201Y0221273D02*
X0305201Y0231653D01*
X0305201Y0221273D02*
X0302301Y0221273D01*
X0302301Y0231653D01*
X0305201Y0231653D01*
X0305201Y0224172D02*
X0302301Y0224172D01*
X0302301Y0227071D02*
X0305201Y0227071D01*
X0305201Y0229970D02*
X0302301Y0229970D01*
X0295201Y0231653D02*
X0295201Y0221273D01*
X0292301Y0221273D01*
X0292301Y0231653D01*
X0295201Y0231653D01*
X0295201Y0224172D02*
X0292301Y0224172D01*
X0292301Y0227071D02*
X0295201Y0227071D01*
X0295201Y0229970D02*
X0292301Y0229970D01*
X0285201Y0231653D02*
X0285201Y0221273D01*
X0282301Y0221273D01*
X0282301Y0231653D01*
X0285201Y0231653D01*
X0285201Y0224172D02*
X0282301Y0224172D01*
X0282301Y0227071D02*
X0285201Y0227071D01*
X0285201Y0229970D02*
X0282301Y0229970D01*
X0275201Y0231653D02*
X0275201Y0221273D01*
X0272301Y0221273D01*
X0272301Y0231653D01*
X0275201Y0231653D01*
X0275201Y0224172D02*
X0272301Y0224172D01*
X0272301Y0227071D02*
X0275201Y0227071D01*
X0275201Y0229970D02*
X0272301Y0229970D01*
X0265201Y0231653D02*
X0265201Y0221273D01*
X0262301Y0221273D01*
X0262301Y0231653D01*
X0265201Y0231653D01*
X0265201Y0224172D02*
X0262301Y0224172D01*
X0262301Y0227071D02*
X0265201Y0227071D01*
X0265201Y0229970D02*
X0262301Y0229970D01*
X0265201Y0338958D02*
X0265201Y0349338D01*
X0265201Y0338958D02*
X0262301Y0338958D01*
X0262301Y0349338D01*
X0265201Y0349338D01*
X0265201Y0341857D02*
X0262301Y0341857D01*
X0262301Y0344756D02*
X0265201Y0344756D01*
X0265201Y0347655D02*
X0262301Y0347655D01*
X0275201Y0349338D02*
X0275201Y0338958D01*
X0272301Y0338958D01*
X0272301Y0349338D01*
X0275201Y0349338D01*
X0275201Y0341857D02*
X0272301Y0341857D01*
X0272301Y0344756D02*
X0275201Y0344756D01*
X0275201Y0347655D02*
X0272301Y0347655D01*
X0285201Y0349338D02*
X0285201Y0338958D01*
X0282301Y0338958D01*
X0282301Y0349338D01*
X0285201Y0349338D01*
X0285201Y0341857D02*
X0282301Y0341857D01*
X0282301Y0344756D02*
X0285201Y0344756D01*
X0285201Y0347655D02*
X0282301Y0347655D01*
X0295201Y0349338D02*
X0295201Y0338958D01*
X0292301Y0338958D01*
X0292301Y0349338D01*
X0295201Y0349338D01*
X0295201Y0341857D02*
X0292301Y0341857D01*
X0292301Y0344756D02*
X0295201Y0344756D01*
X0295201Y0347655D02*
X0292301Y0347655D01*
X0305201Y0349338D02*
X0305201Y0338958D01*
X0302301Y0338958D01*
X0302301Y0349338D01*
X0305201Y0349338D01*
X0305201Y0341857D02*
X0302301Y0341857D01*
X0302301Y0344756D02*
X0305201Y0344756D01*
X0305201Y0347655D02*
X0302301Y0347655D01*
D17*
X0325451Y0338848D02*
X0325451Y0329448D01*
X0322051Y0329448D01*
X0322051Y0338848D01*
X0325451Y0338848D01*
X0325451Y0332847D02*
X0322051Y0332847D01*
X0322051Y0336246D02*
X0325451Y0336246D01*
X0335451Y0339448D02*
X0335451Y0348848D01*
X0335451Y0339448D02*
X0332051Y0339448D01*
X0332051Y0348848D01*
X0335451Y0348848D01*
X0335451Y0342847D02*
X0332051Y0342847D01*
X0332051Y0346246D02*
X0335451Y0346246D01*
X0345451Y0338848D02*
X0345451Y0329448D01*
X0342051Y0329448D01*
X0342051Y0338848D01*
X0345451Y0338848D01*
X0345451Y0332847D02*
X0342051Y0332847D01*
X0342051Y0336246D02*
X0345451Y0336246D01*
X0355451Y0339448D02*
X0355451Y0348848D01*
X0355451Y0339448D02*
X0352051Y0339448D01*
X0352051Y0348848D01*
X0355451Y0348848D01*
X0355451Y0342847D02*
X0352051Y0342847D01*
X0352051Y0346246D02*
X0355451Y0346246D01*
X0365451Y0338848D02*
X0365451Y0329448D01*
X0362051Y0329448D01*
X0362051Y0338848D01*
X0365451Y0338848D01*
X0365451Y0332847D02*
X0362051Y0332847D01*
X0362051Y0336246D02*
X0365451Y0336246D01*
X0355451Y0231163D02*
X0355451Y0221763D01*
X0352051Y0221763D01*
X0352051Y0231163D01*
X0355451Y0231163D01*
X0355451Y0225162D02*
X0352051Y0225162D01*
X0352051Y0228561D02*
X0355451Y0228561D01*
X0365451Y0221163D02*
X0365451Y0211763D01*
X0362051Y0211763D01*
X0362051Y0221163D01*
X0365451Y0221163D01*
X0365451Y0215162D02*
X0362051Y0215162D01*
X0362051Y0218561D02*
X0365451Y0218561D01*
X0345451Y0221163D02*
X0345451Y0211763D01*
X0342051Y0211763D01*
X0342051Y0221163D01*
X0345451Y0221163D01*
X0345451Y0215162D02*
X0342051Y0215162D01*
X0342051Y0218561D02*
X0345451Y0218561D01*
X0335451Y0221763D02*
X0335451Y0231163D01*
X0335451Y0221763D02*
X0332051Y0221763D01*
X0332051Y0231163D01*
X0335451Y0231163D01*
X0335451Y0225162D02*
X0332051Y0225162D01*
X0332051Y0228561D02*
X0335451Y0228561D01*
X0325451Y0221163D02*
X0325451Y0211763D01*
X0322051Y0211763D01*
X0322051Y0221163D01*
X0325451Y0221163D01*
X0325451Y0215162D02*
X0322051Y0215162D01*
X0322051Y0218561D02*
X0325451Y0218561D01*
X0335451Y0112978D02*
X0335451Y0103578D01*
X0332051Y0103578D01*
X0332051Y0112978D01*
X0335451Y0112978D01*
X0335451Y0106977D02*
X0332051Y0106977D01*
X0332051Y0110376D02*
X0335451Y0110376D01*
X0345451Y0102978D02*
X0345451Y0093578D01*
X0342051Y0093578D01*
X0342051Y0102978D01*
X0345451Y0102978D01*
X0345451Y0096977D02*
X0342051Y0096977D01*
X0342051Y0100376D02*
X0345451Y0100376D01*
X0355451Y0103578D02*
X0355451Y0112978D01*
X0355451Y0103578D02*
X0352051Y0103578D01*
X0352051Y0112978D01*
X0355451Y0112978D01*
X0355451Y0106977D02*
X0352051Y0106977D01*
X0352051Y0110376D02*
X0355451Y0110376D01*
X0365451Y0102978D02*
X0365451Y0093578D01*
X0362051Y0093578D01*
X0362051Y0102978D01*
X0365451Y0102978D01*
X0365451Y0096977D02*
X0362051Y0096977D01*
X0362051Y0100376D02*
X0365451Y0100376D01*
X0325451Y0102978D02*
X0325451Y0093578D01*
X0322051Y0093578D01*
X0322051Y0102978D01*
X0325451Y0102978D01*
X0325451Y0096977D02*
X0322051Y0096977D01*
X0322051Y0100376D02*
X0325451Y0100376D01*
D18*
X0313751Y0108278D03*
X0313751Y0226463D03*
X0313751Y0344148D03*
D19*
X0133840Y0246073D02*
X0133840Y0239673D01*
X0123840Y0239673D02*
X0123840Y0246073D01*
X0113840Y0246073D02*
X0113840Y0239673D01*
X0103840Y0239673D02*
X0103840Y0246073D01*
X0093840Y0246073D02*
X0093840Y0239673D01*
X0083840Y0239673D02*
X0083840Y0246073D01*
M02*
