%
M48
M72
T01C0.03500
T02C0.04000
T03C0.04724
T04C0.08976
T05C0.11024
%
T01
X84190Y172463
X94190Y172463
X104190Y172463
X114190Y172463
X124190Y172463
X134190Y172463
X253751Y159278
X263751Y159278
X273751Y159278
X283751Y159278
X293751Y159278
X303751Y159278
X313751Y159278
X323751Y159278
X333751Y159278
X343751Y159278
X353751Y159278
X363751Y159278
X363751Y276963
X353751Y276963
X343751Y276963
X333751Y276963
X323751Y276963
X313751Y276963
X303751Y276963
X293751Y276963
X283751Y276963
X273751Y276963
X263751Y276963
X253751Y276963
X253751Y41093
X263751Y41093
X273751Y41093
X283751Y41093
X293751Y41093
X303751Y41093
X313751Y41093
X323751Y41093
X333751Y41093
X343751Y41093
X353751Y41093
X363751Y41093
T02
X133840Y242873
X123840Y242873
X113840Y242873
X103840Y242873
X93840Y242873
X83840Y242873
T03
X84168Y91568
X43712Y118595
X25832Y156525
X25557Y250946
X43529Y288885
X83973Y315849
X133907Y315849
X174351Y288885
X192323Y250946
X192640Y156564
X174668Y118595
X134212Y91568
T04
X389779Y310930
T05
X389779Y193120
X389779Y75060
X226507Y75060
X226519Y193120
X226519Y310930
M30
