G75*
%MOIN*%
%OFA0B0*%
%FSLAX25Y25*%
%IPPOS*%
%LPD*%
%AMOC8*
5,1,8,0,0,1.08239X$1,22.5*
%
%ADD10C,0.11824*%
%ADD11C,0.07924*%
%ADD12R,0.07300X0.07300*%
%ADD13C,0.07300*%
%ADD14C,0.07200*%
D10*
X0226507Y0065224D03*
X0226519Y0163500D03*
X0226519Y0261736D03*
X0367857Y0261697D03*
X0367857Y0163508D03*
X0367857Y0065240D03*
D11*
X0084168Y0052198D03*
X0043712Y0079225D03*
X0025832Y0117155D03*
X0134212Y0052198D03*
X0174668Y0079225D03*
X0192640Y0117194D03*
X0192323Y0211576D03*
X0174351Y0249515D03*
X0133907Y0276479D03*
X0083973Y0276479D03*
X0043529Y0249515D03*
X0025557Y0211576D03*
D12*
X0134190Y0133093D03*
X0241690Y0139593D03*
X0301690Y0139593D03*
X0301940Y0237593D03*
X0241940Y0237593D03*
X0242440Y0041093D03*
X0302440Y0041093D03*
D13*
X0312440Y0041093D03*
X0322440Y0041093D03*
X0332440Y0041093D03*
X0342440Y0041093D03*
X0352440Y0041093D03*
X0292440Y0041093D03*
X0282440Y0041093D03*
X0272440Y0041093D03*
X0262440Y0041093D03*
X0252440Y0041093D03*
X0251690Y0139593D03*
X0261690Y0139593D03*
X0271690Y0139593D03*
X0281690Y0139593D03*
X0291690Y0139593D03*
X0311690Y0139593D03*
X0321690Y0139593D03*
X0331690Y0139593D03*
X0341690Y0139593D03*
X0351690Y0139593D03*
X0351940Y0237593D03*
X0341940Y0237593D03*
X0331940Y0237593D03*
X0321940Y0237593D03*
X0311940Y0237593D03*
X0291940Y0237593D03*
X0281940Y0237593D03*
X0271940Y0237593D03*
X0261940Y0237593D03*
X0251940Y0237593D03*
X0124190Y0133093D03*
X0114190Y0133093D03*
X0104190Y0133093D03*
X0094190Y0133093D03*
X0084190Y0133093D03*
D14*
X0083840Y0200303D02*
X0083840Y0206703D01*
X0093840Y0206703D02*
X0093840Y0200303D01*
X0103840Y0200303D02*
X0103840Y0206703D01*
X0113840Y0206703D02*
X0113840Y0200303D01*
X0123840Y0200303D02*
X0123840Y0206703D01*
X0133840Y0206703D02*
X0133840Y0200303D01*
M02*
