G04 #@! TF.FileFunction,Other,Fab,Top*
%FSLAX46Y46*%
G04 Gerber Fmt 4.6, Leading zero omitted, Abs format (unit mm)*
G04 Created by KiCad (PCBNEW 4.0.0-rc1-stable) date 02/05/2017 19:37:09*
%MOMM*%
G01*
G04 APERTURE LIST*
%ADD10C,0.100000*%
%ADD11C,0.150000*%
G04 APERTURE END LIST*
D10*
X114681000Y-79908400D02*
X104521000Y-79908400D01*
X104521000Y-79908400D02*
X104521000Y-82448400D01*
X104521000Y-82448400D02*
X114681000Y-82448400D01*
X114681000Y-82448400D02*
X114681000Y-79908400D01*
X123571000Y-102768400D02*
X123571000Y-118008400D01*
X123571000Y-118008400D02*
X126111000Y-118008400D01*
X126111000Y-118008400D02*
X126111000Y-102768400D01*
X126111000Y-102768400D02*
X123571000Y-102768400D01*
D11*
X153934000Y-69786000D02*
G75*
G03X153934000Y-69786000I-1375000J0D01*
G01*
X155659000Y-69786000D02*
G75*
G03X155659000Y-69786000I-3100000J0D01*
G01*
X95934000Y-118786000D02*
G75*
G03X95934000Y-118786000I-1375000J0D01*
G01*
X97659000Y-118786000D02*
G75*
G03X97659000Y-118786000I-3100000J0D01*
G01*
X95934000Y-69786000D02*
G75*
G03X95934000Y-69786000I-1375000J0D01*
G01*
X97659000Y-69786000D02*
G75*
G03X97659000Y-69786000I-3100000J0D01*
G01*
D10*
X131191000Y-102768400D02*
X131191000Y-118008400D01*
X131191000Y-118008400D02*
X133731000Y-118008400D01*
X133731000Y-118008400D02*
X133731000Y-102768400D01*
X133731000Y-102768400D02*
X131191000Y-102768400D01*
X104521000Y-105308400D02*
X114681000Y-105308400D01*
X114681000Y-105308400D02*
X114681000Y-102768400D01*
X114681000Y-102768400D02*
X104521000Y-102768400D01*
X104521000Y-102768400D02*
X104521000Y-105308400D01*
X104521000Y-107848400D02*
X114681000Y-107848400D01*
X114681000Y-107848400D02*
X114681000Y-105308400D01*
X114681000Y-105308400D02*
X104521000Y-105308400D01*
X104521000Y-105308400D02*
X104521000Y-107848400D01*
X104521000Y-110388400D02*
X114681000Y-110388400D01*
X114681000Y-110388400D02*
X114681000Y-107848400D01*
X114681000Y-107848400D02*
X104521000Y-107848400D01*
X104521000Y-107848400D02*
X104521000Y-110388400D01*
X104521000Y-115468400D02*
X114681000Y-115468400D01*
X114681000Y-115468400D02*
X114681000Y-112928400D01*
X114681000Y-112928400D02*
X104521000Y-112928400D01*
X104521000Y-112928400D02*
X104521000Y-115468400D01*
X114681000Y-115468400D02*
X104521000Y-115468400D01*
X104521000Y-115468400D02*
X104521000Y-118008400D01*
X104521000Y-118008400D02*
X114681000Y-118008400D01*
X114681000Y-118008400D02*
X114681000Y-115468400D01*
X114681000Y-77368400D02*
X104521000Y-77368400D01*
X104521000Y-77368400D02*
X104521000Y-79908400D01*
X104521000Y-79908400D02*
X114681000Y-79908400D01*
X114681000Y-79908400D02*
X114681000Y-77368400D01*
X114681000Y-91338400D02*
X104521000Y-91338400D01*
X104521000Y-91338400D02*
X104521000Y-93878400D01*
X104521000Y-93878400D02*
X114681000Y-93878400D01*
X114681000Y-93878400D02*
X114681000Y-91338400D01*
X114681000Y-93878400D02*
X104521000Y-93878400D01*
X104521000Y-93878400D02*
X104521000Y-96418400D01*
X104521000Y-96418400D02*
X114681000Y-96418400D01*
X114681000Y-96418400D02*
X114681000Y-93878400D01*
X123571000Y-88798400D02*
X123571000Y-98958400D01*
X123571000Y-98958400D02*
X126111000Y-98958400D01*
X126111000Y-98958400D02*
X126111000Y-88798400D01*
X126111000Y-88798400D02*
X123571000Y-88798400D01*
X133731000Y-76098400D02*
X123571000Y-76098400D01*
X123571000Y-76098400D02*
X123571000Y-78638400D01*
X123571000Y-78638400D02*
X133731000Y-78638400D01*
X133731000Y-78638400D02*
X133731000Y-76098400D01*
X133731000Y-82448400D02*
X123571000Y-82448400D01*
X123571000Y-82448400D02*
X123571000Y-84988400D01*
X123571000Y-84988400D02*
X133731000Y-84988400D01*
X133731000Y-84988400D02*
X133731000Y-82448400D01*
X148971000Y-76098400D02*
X138811000Y-76098400D01*
X138811000Y-76098400D02*
X138811000Y-78638400D01*
X138811000Y-78638400D02*
X148971000Y-78638400D01*
X148971000Y-78638400D02*
X148971000Y-76098400D01*
X148971000Y-82448400D02*
X138811000Y-82448400D01*
X138811000Y-82448400D02*
X138811000Y-84988400D01*
X138811000Y-84988400D02*
X148971000Y-84988400D01*
X148971000Y-84988400D02*
X148971000Y-82448400D01*
X131191000Y-88798400D02*
X131191000Y-98958400D01*
X131191000Y-98958400D02*
X133731000Y-98958400D01*
X133731000Y-98958400D02*
X133731000Y-88798400D01*
X133731000Y-88798400D02*
X131191000Y-88798400D01*
X148971000Y-96418400D02*
X138811000Y-96418400D01*
X138811000Y-96418400D02*
X138811000Y-98958400D01*
X138811000Y-98958400D02*
X148971000Y-98958400D01*
X148971000Y-98958400D02*
X148971000Y-96418400D01*
X148971000Y-88798400D02*
X138811000Y-88798400D01*
X138811000Y-88798400D02*
X138811000Y-91338400D01*
X138811000Y-91338400D02*
X148971000Y-91338400D01*
X148971000Y-91338400D02*
X148971000Y-88798400D01*
M02*
