G04 #@! TF.FileFunction,Other,Fab,Bot*
%FSLAX46Y46*%
G04 Gerber Fmt 4.6, Leading zero omitted, Abs format (unit mm)*
G04 Created by KiCad (PCBNEW 4.0.0-rc1-stable) date 02/05/2017 19:37:09*
%MOMM*%
G01*
G04 APERTURE LIST*
%ADD10C,0.100000*%
%ADD11C,0.150000*%
G04 APERTURE END LIST*
D10*
X98171000Y-67208400D02*
X148971000Y-67208400D01*
X148971000Y-67208400D02*
X148971000Y-72288400D01*
X148971000Y-72288400D02*
X98171000Y-72288400D01*
X98171000Y-72288400D02*
X98171000Y-67208400D01*
D11*
X155659000Y-69786000D02*
G75*
G03X155659000Y-69786000I-3100000J0D01*
G01*
X153934000Y-69786000D02*
G75*
G03X153934000Y-69786000I-1375000J0D01*
G01*
X97659000Y-118786000D02*
G75*
G03X97659000Y-118786000I-3100000J0D01*
G01*
X95934000Y-118786000D02*
G75*
G03X95934000Y-118786000I-1375000J0D01*
G01*
X97659000Y-69786000D02*
G75*
G03X97659000Y-69786000I-3100000J0D01*
G01*
X95934000Y-69786000D02*
G75*
G03X95934000Y-69786000I-1375000J0D01*
G01*
D10*
X99311000Y-77368400D02*
X99311000Y-79908400D01*
X99311000Y-79908400D02*
X96811000Y-79908400D01*
X96811000Y-79908400D02*
X96811000Y-77368400D01*
X96811000Y-77368400D02*
X99311000Y-77368400D01*
X100711000Y-78318400D02*
X100711000Y-78958400D01*
X100711000Y-78958400D02*
X90811000Y-78958400D01*
X90811000Y-78958400D02*
X90811000Y-78318400D01*
X90811000Y-78318400D02*
X100711000Y-78318400D01*
X99311000Y-79908400D02*
X99311000Y-82448400D01*
X99311000Y-82448400D02*
X96811000Y-82448400D01*
X96811000Y-82448400D02*
X96811000Y-79908400D01*
X96811000Y-79908400D02*
X99311000Y-79908400D01*
X100711000Y-80858400D02*
X100711000Y-81498400D01*
X100711000Y-81498400D02*
X90811000Y-81498400D01*
X90811000Y-81498400D02*
X90811000Y-80858400D01*
X90811000Y-80858400D02*
X100711000Y-80858400D01*
D11*
X97563381Y-69010305D02*
X96563381Y-69010305D01*
X96563381Y-69391258D01*
X96611000Y-69486496D01*
X96658619Y-69534115D01*
X96753857Y-69581734D01*
X96896714Y-69581734D01*
X96991952Y-69534115D01*
X97039571Y-69486496D01*
X97087190Y-69391258D01*
X97087190Y-69010305D01*
X97563381Y-70534115D02*
X97563381Y-69962686D01*
X97563381Y-70248400D02*
X96563381Y-70248400D01*
X96706238Y-70153162D01*
X96801476Y-70057924D01*
X96849095Y-69962686D01*
X97134095Y-76820781D02*
X97134095Y-75820781D01*
X96753142Y-75820781D01*
X96657904Y-75868400D01*
X96610285Y-75916019D01*
X96562666Y-76011257D01*
X96562666Y-76154114D01*
X96610285Y-76249352D01*
X96657904Y-76296971D01*
X96753142Y-76344590D01*
X97134095Y-76344590D01*
X96181714Y-75916019D02*
X96134095Y-75868400D01*
X96038857Y-75820781D01*
X95800761Y-75820781D01*
X95705523Y-75868400D01*
X95657904Y-75916019D01*
X95610285Y-76011257D01*
X95610285Y-76106495D01*
X95657904Y-76249352D01*
X96229333Y-76820781D01*
X95610285Y-76820781D01*
M02*
