G04 #@! TF.FileFunction,Copper,L2,Bot,Signal*
%FSLAX46Y46*%
G04 Gerber Fmt 4.6, Leading zero omitted, Abs format (unit mm)*
G04 Created by KiCad (PCBNEW 4.0.0-rc1-stable) date 02/05/2017 19:37:09*
%MOMM*%
G01*
G04 APERTURE LIST*
%ADD10C,0.100000*%
%ADD11C,1.700000*%
%ADD12O,1.700000X1.700000*%
%ADD13R,1.700000X1.700000*%
%ADD14C,0.250000*%
%ADD15C,1.000000*%
G04 APERTURE END LIST*
D10*
D11*
X113411000Y-81178400D03*
D12*
X110871000Y-81178400D03*
X108331000Y-81178400D03*
X105791000Y-81178400D03*
D13*
X99441000Y-68478400D03*
D12*
X99441000Y-71018400D03*
X101981000Y-68478400D03*
X101981000Y-71018400D03*
X104521000Y-68478400D03*
X104521000Y-71018400D03*
X107061000Y-68478400D03*
X107061000Y-71018400D03*
X109601000Y-68478400D03*
X109601000Y-71018400D03*
X112141000Y-68478400D03*
X112141000Y-71018400D03*
X114681000Y-68478400D03*
X114681000Y-71018400D03*
X117221000Y-68478400D03*
X117221000Y-71018400D03*
X119761000Y-68478400D03*
X119761000Y-71018400D03*
X122301000Y-68478400D03*
X122301000Y-71018400D03*
X124841000Y-68478400D03*
X124841000Y-71018400D03*
X127381000Y-68478400D03*
X127381000Y-71018400D03*
X129921000Y-68478400D03*
X129921000Y-71018400D03*
X132461000Y-68478400D03*
X132461000Y-71018400D03*
X135001000Y-68478400D03*
X135001000Y-71018400D03*
X137541000Y-68478400D03*
X137541000Y-71018400D03*
X140081000Y-68478400D03*
X140081000Y-71018400D03*
X142621000Y-68478400D03*
X142621000Y-71018400D03*
X145161000Y-68478400D03*
X145161000Y-71018400D03*
X147701000Y-68478400D03*
X147701000Y-71018400D03*
D13*
X124841000Y-104038400D03*
D12*
X124841000Y-106578400D03*
X124841000Y-109118400D03*
X124841000Y-111658400D03*
X124841000Y-114198400D03*
X124841000Y-116738400D03*
D13*
X132461000Y-104038400D03*
D12*
X132461000Y-106578400D03*
X132461000Y-109118400D03*
X132461000Y-111658400D03*
X132461000Y-114198400D03*
X132461000Y-116738400D03*
D11*
X105791000Y-104038400D03*
D12*
X108331000Y-104038400D03*
X110871000Y-104038400D03*
X113411000Y-104038400D03*
D11*
X105791000Y-106578400D03*
D12*
X108331000Y-106578400D03*
X110871000Y-106578400D03*
X113411000Y-106578400D03*
D11*
X105791000Y-109118400D03*
D12*
X108331000Y-109118400D03*
X110871000Y-109118400D03*
X113411000Y-109118400D03*
D11*
X105791000Y-114198400D03*
D12*
X108331000Y-114198400D03*
X110871000Y-114198400D03*
X113411000Y-114198400D03*
D11*
X113411000Y-116738400D03*
D12*
X110871000Y-116738400D03*
X108331000Y-116738400D03*
X105791000Y-116738400D03*
D11*
X113411000Y-78638400D03*
D12*
X110871000Y-78638400D03*
X108331000Y-78638400D03*
X105791000Y-78638400D03*
D11*
X113411000Y-92608400D03*
D12*
X110871000Y-92608400D03*
X108331000Y-92608400D03*
X105791000Y-92608400D03*
D11*
X113411000Y-95148400D03*
D12*
X110871000Y-95148400D03*
X108331000Y-95148400D03*
X105791000Y-95148400D03*
D11*
X124841000Y-90068400D03*
D12*
X124841000Y-92608400D03*
X124841000Y-95148400D03*
X124841000Y-97688400D03*
D11*
X132461000Y-77368400D03*
D12*
X129921000Y-77368400D03*
X127381000Y-77368400D03*
X124841000Y-77368400D03*
D11*
X132461000Y-83718400D03*
D12*
X129921000Y-83718400D03*
X127381000Y-83718400D03*
X124841000Y-83718400D03*
D11*
X147701000Y-77368400D03*
D12*
X145161000Y-77368400D03*
X142621000Y-77368400D03*
X140081000Y-77368400D03*
D11*
X147701000Y-83718400D03*
D12*
X145161000Y-83718400D03*
X142621000Y-83718400D03*
X140081000Y-83718400D03*
D11*
X132461000Y-90068400D03*
D12*
X132461000Y-92608400D03*
X132461000Y-95148400D03*
X132461000Y-97688400D03*
D11*
X147701000Y-97688400D03*
D12*
X145161000Y-97688400D03*
X142621000Y-97688400D03*
X140081000Y-97688400D03*
D11*
X147701000Y-90068400D03*
D12*
X145161000Y-90068400D03*
X142621000Y-90068400D03*
X140081000Y-90068400D03*
D13*
X100711000Y-78638400D03*
D12*
X100711000Y-81178400D03*
D14*
X100711000Y-81178400D02*
X105791000Y-81178400D01*
X130556000Y-66573400D02*
X129286000Y-66573400D01*
X128651000Y-67208400D02*
X128651000Y-67843400D01*
X129286000Y-66573400D02*
X128651000Y-67208400D01*
X129921000Y-71018400D02*
X129921000Y-70993000D01*
X129921000Y-70993000D02*
X128651000Y-69723000D01*
X128651000Y-69723000D02*
X128651000Y-67843400D01*
X109601000Y-71018400D02*
X109601000Y-70383400D01*
X109601000Y-70383400D02*
X108331000Y-69113400D01*
X108331000Y-66573400D02*
X108966000Y-66573400D01*
X108331000Y-67208400D02*
X108331000Y-66573400D01*
X108331000Y-69113400D02*
X108331000Y-67208400D01*
X124841000Y-116738400D02*
X122301000Y-116738400D01*
X120396000Y-102133400D02*
X124841000Y-97688400D01*
X120396000Y-114833400D02*
X120396000Y-102133400D01*
X122301000Y-116738400D02*
X120396000Y-114833400D01*
X113411000Y-95148400D02*
X115316000Y-95148400D01*
X115316000Y-95148400D02*
X117856000Y-97688400D01*
X124841000Y-97688400D02*
X117856000Y-97688400D01*
X105791000Y-81178400D02*
X113411000Y-81178400D01*
X113411000Y-81178400D02*
X115951000Y-83718400D01*
X115951000Y-94513400D02*
X115316000Y-95148400D01*
X115951000Y-83718400D02*
X115951000Y-94513400D01*
X114681000Y-68478400D02*
X112776000Y-66573400D01*
X112776000Y-66573400D02*
X113411000Y-66573400D01*
X104521000Y-68478400D02*
X104521000Y-67208400D01*
X104521000Y-67208400D02*
X105156000Y-66573400D01*
X105791000Y-95148400D02*
X103251000Y-95148400D01*
X103251000Y-95148400D02*
X98171000Y-90068400D01*
X98171000Y-90068400D02*
X98171000Y-67208400D01*
X98171000Y-67208400D02*
X98806000Y-66573400D01*
X98806000Y-66573400D02*
X105156000Y-66573400D01*
X148336000Y-66573400D02*
X148336000Y-66548000D01*
X113411000Y-66573400D02*
X129921000Y-66573400D01*
X129921000Y-66573400D02*
X130556000Y-66573400D01*
X130556000Y-66573400D02*
X148336000Y-66573400D01*
X105156000Y-66573400D02*
X108966000Y-66573400D01*
X108966000Y-66573400D02*
X113411000Y-66573400D01*
X113411000Y-95148400D02*
X105791000Y-95148400D01*
X132461000Y-97688400D02*
X124841000Y-97688400D01*
X140081000Y-97688400D02*
X132461000Y-97688400D01*
X140081000Y-90068400D02*
X140081000Y-97688400D01*
X132461000Y-116738400D02*
X124841000Y-116738400D01*
X122301000Y-68478400D02*
X122301000Y-67056000D01*
X122301000Y-67056000D02*
X122809000Y-66548000D01*
X104521000Y-68478400D02*
X104521000Y-68326000D01*
X129921000Y-70993000D02*
X128651000Y-69723000D01*
X135001000Y-68478400D02*
X135001000Y-67056000D01*
X135001000Y-67056000D02*
X134620000Y-66675000D01*
X140081000Y-68478400D02*
X140081000Y-67183000D01*
X140081000Y-67183000D02*
X139446000Y-66548000D01*
X114681000Y-68478400D02*
X114681000Y-68326000D01*
X114681000Y-68326000D02*
X116459000Y-66548000D01*
X116459000Y-66548000D02*
X122809000Y-66548000D01*
X149098000Y-69621400D02*
X147701000Y-71018400D01*
X148336000Y-66548000D02*
X148590000Y-66548000D01*
X148590000Y-66548000D02*
X149098000Y-67056000D01*
X149098000Y-67056000D02*
X149098000Y-69621400D01*
X122809000Y-66548000D02*
X139446000Y-66548000D01*
X139446000Y-66548000D02*
X148336000Y-66548000D01*
X104521000Y-68478400D02*
X104521000Y-68072000D01*
X140081000Y-90170000D02*
X140081000Y-97790000D01*
X129921000Y-83718400D02*
X129921000Y-82448400D01*
X146431000Y-69748400D02*
X147701000Y-68478400D01*
X146431000Y-73558400D02*
X146431000Y-69748400D01*
X145796000Y-74193400D02*
X146431000Y-73558400D01*
X140716000Y-74193400D02*
X145796000Y-74193400D01*
X134366000Y-80543400D02*
X140716000Y-74193400D01*
X131826000Y-80543400D02*
X134366000Y-80543400D01*
X129921000Y-82448400D02*
X131826000Y-80543400D01*
X147701000Y-68478400D02*
X147675600Y-68478400D01*
X127381000Y-83718400D02*
X127381000Y-81813400D01*
X143891000Y-69748400D02*
X145161000Y-68478400D01*
X143891000Y-72288400D02*
X143891000Y-69748400D01*
X142621000Y-73558400D02*
X143891000Y-72288400D01*
X140081000Y-73558400D02*
X142621000Y-73558400D01*
X133731000Y-79908400D02*
X140081000Y-73558400D01*
X129286000Y-79908400D02*
X133731000Y-79908400D01*
X128651000Y-80543400D02*
X129286000Y-79908400D01*
X127381000Y-81813400D02*
X128651000Y-80543400D01*
X142621000Y-83718400D02*
X142621000Y-82448400D01*
X118491000Y-69748400D02*
X119761000Y-68478400D01*
X116586000Y-69748400D02*
X118491000Y-69748400D01*
X115951000Y-70383400D02*
X116586000Y-69748400D01*
X115951000Y-71653400D02*
X115951000Y-70383400D01*
X121666000Y-77368400D02*
X115951000Y-71653400D01*
X121666000Y-84988400D02*
X121666000Y-77368400D01*
X122936000Y-86258400D02*
X121666000Y-84988400D01*
X132461000Y-86258400D02*
X122936000Y-86258400D01*
X136906000Y-81813400D02*
X132461000Y-86258400D01*
X141986000Y-81813400D02*
X136906000Y-81813400D01*
X142621000Y-82448400D02*
X141986000Y-81813400D01*
X119761000Y-68478400D02*
X119913400Y-68478400D01*
X119761000Y-68478400D02*
X119761000Y-68580000D01*
X123571000Y-69723000D02*
X123571000Y-76098400D01*
X123571000Y-76098400D02*
X122936000Y-76733400D01*
X122936000Y-76733400D02*
X122936000Y-83718400D01*
X122936000Y-83718400D02*
X124206000Y-84988400D01*
X124206000Y-84988400D02*
X130784600Y-84988400D01*
X130784600Y-84988400D02*
X131191000Y-84582000D01*
X136271000Y-79908400D02*
X142900400Y-79908400D01*
X135001000Y-81178400D02*
X136271000Y-79908400D01*
X132461000Y-81178400D02*
X135001000Y-81178400D01*
X131191000Y-82448400D02*
X132461000Y-81178400D01*
X131191000Y-84582000D02*
X131191000Y-82448400D01*
X131191000Y-82448400D02*
X131191000Y-82448400D01*
X145161000Y-83566000D02*
X145161000Y-82169000D01*
X145161000Y-82169000D02*
X142900400Y-79908400D01*
X124841000Y-68478400D02*
X124815600Y-68478400D01*
X124815600Y-68478400D02*
X123571000Y-69723000D01*
X124815600Y-68478400D02*
X123571000Y-69723000D01*
X145161000Y-83566000D02*
X145161000Y-82804000D01*
X132461000Y-77368400D02*
X132461000Y-76098400D01*
X138811000Y-69748400D02*
X137541000Y-68478400D01*
X138811000Y-72288400D02*
X138811000Y-69748400D01*
X136271000Y-74828400D02*
X138811000Y-72288400D01*
X133731000Y-74828400D02*
X136271000Y-74828400D01*
X132461000Y-76098400D02*
X133731000Y-74828400D01*
X132461000Y-77368400D02*
X132461000Y-76733400D01*
X137541000Y-68478400D02*
X137693400Y-68478400D01*
X149606000Y-85623400D02*
X150241000Y-84988400D01*
X110871000Y-69748400D02*
X110871000Y-72923400D01*
X110871000Y-72923400D02*
X112776000Y-74828400D01*
X112776000Y-74828400D02*
X115316000Y-74828400D01*
X115316000Y-74828400D02*
X119761000Y-79273400D01*
X119761000Y-79273400D02*
X119761000Y-86893400D01*
X119761000Y-86893400D02*
X121031000Y-88163400D01*
X121031000Y-88163400D02*
X134366000Y-88163400D01*
X134366000Y-88163400D02*
X136906000Y-85623400D01*
X136906000Y-85623400D02*
X149606000Y-85623400D01*
X112141000Y-68478400D02*
X110871000Y-69748400D01*
X150241000Y-79908400D02*
X147701000Y-77368400D01*
X150241000Y-84988400D02*
X150241000Y-79908400D01*
X147701000Y-77216000D02*
X147828000Y-77216000D01*
X147701000Y-77216000D02*
X147701000Y-77216000D01*
X117221000Y-68478400D02*
X116586000Y-68478400D01*
X116586000Y-68478400D02*
X115316000Y-69748400D01*
X136271000Y-83718400D02*
X140081000Y-83718400D01*
X133096000Y-86893400D02*
X136271000Y-83718400D01*
X122301000Y-86893400D02*
X133096000Y-86893400D01*
X121031000Y-85623400D02*
X122301000Y-86893400D01*
X121031000Y-78003400D02*
X121031000Y-85623400D01*
X115951000Y-72923400D02*
X121031000Y-78003400D01*
X114046000Y-72923400D02*
X115951000Y-72923400D01*
X113411000Y-72288400D02*
X114046000Y-72923400D01*
X113411000Y-70383400D02*
X113411000Y-72288400D01*
X114046000Y-69748400D02*
X113411000Y-70383400D01*
X115316000Y-69748400D02*
X114046000Y-69748400D01*
X117221000Y-68478400D02*
X117195600Y-68478400D01*
X100711000Y-78638400D02*
X105791000Y-78638400D01*
X100711000Y-78638400D02*
X100711000Y-74828400D01*
X132461000Y-114198400D02*
X133731000Y-114198400D01*
X142621000Y-99593400D02*
X142621000Y-97688400D01*
X141986000Y-100228400D02*
X142621000Y-99593400D01*
X136271000Y-100228400D02*
X141986000Y-100228400D01*
X134366000Y-102133400D02*
X136271000Y-100228400D01*
X134366000Y-113563400D02*
X134366000Y-102133400D01*
X133731000Y-114198400D02*
X134366000Y-113563400D01*
X124841000Y-95148400D02*
X119761000Y-95148400D01*
X119761000Y-95148400D02*
X116586000Y-91973400D01*
X116586000Y-91973400D02*
X116586000Y-81813400D01*
X116586000Y-81813400D02*
X113411000Y-78638400D01*
X142621000Y-90068400D02*
X142621000Y-97688400D01*
X132461000Y-114198400D02*
X124841000Y-114198400D01*
X105791000Y-78638400D02*
X103886000Y-78638400D01*
X100711000Y-75463400D02*
X100711000Y-74828400D01*
X100711000Y-74828400D02*
X100711000Y-69748400D01*
X100711000Y-69748400D02*
X99441000Y-68478400D01*
X113411000Y-78638400D02*
X110871000Y-78638400D01*
X110871000Y-78638400D02*
X108331000Y-78638400D01*
X108331000Y-78638400D02*
X105791000Y-78638400D01*
X100711000Y-69748400D02*
X99441000Y-68478400D01*
X142621000Y-90170000D02*
X142621000Y-88900000D01*
X134899400Y-95250000D02*
X132461000Y-95250000D01*
X136144000Y-94005400D02*
X134899400Y-95250000D01*
X136144000Y-90195400D02*
X136144000Y-94005400D01*
X138074400Y-88265000D02*
X136144000Y-90195400D01*
X141986000Y-88265000D02*
X138074400Y-88265000D01*
X142621000Y-88900000D02*
X141986000Y-88265000D01*
X101981000Y-68478400D02*
X99441000Y-68478400D01*
X100711000Y-69748400D02*
X99441000Y-68478400D01*
X132461000Y-95250000D02*
X124841000Y-95250000D01*
X142621000Y-90170000D02*
X142621000Y-97790000D01*
X129921000Y-79273400D02*
X133096000Y-79273400D01*
X133096000Y-79273400D02*
X134366000Y-78003400D01*
X142621000Y-71018400D02*
X142621000Y-71653400D01*
X142621000Y-71653400D02*
X141351000Y-72923400D01*
X139446000Y-72923400D02*
X134366000Y-78003400D01*
X141351000Y-72923400D02*
X139446000Y-72923400D01*
X124841000Y-83718400D02*
X124841000Y-80543400D01*
X126111000Y-79273400D02*
X129921000Y-79273400D01*
X124841000Y-80543400D02*
X126111000Y-79273400D01*
X142621000Y-71018400D02*
X142621000Y-71120000D01*
X135001000Y-71018400D02*
X135001000Y-72288400D01*
X133731000Y-73558400D02*
X132461000Y-73558400D01*
X135001000Y-72288400D02*
X133731000Y-73558400D01*
X127381000Y-77368400D02*
X127381000Y-74828400D01*
X128651000Y-73558400D02*
X132461000Y-73558400D01*
X127381000Y-74828400D02*
X128651000Y-73558400D01*
X129921000Y-77368400D02*
X129921000Y-75463400D01*
X137541000Y-72288400D02*
X137541000Y-71018400D01*
X135636000Y-74193400D02*
X137541000Y-72288400D01*
X131191000Y-74193400D02*
X135636000Y-74193400D01*
X129921000Y-75463400D02*
X131191000Y-74193400D01*
X132461000Y-109118400D02*
X124841000Y-109118400D01*
X132461000Y-106578400D02*
X124841000Y-106578400D01*
X132461000Y-104038400D02*
X124841000Y-104038400D01*
X145161000Y-90068400D02*
X145161000Y-87528400D01*
X121031000Y-91338400D02*
X133731000Y-91338400D01*
X118491000Y-88798400D02*
X121031000Y-91338400D01*
X118491000Y-80543400D02*
X118491000Y-88798400D01*
X114046000Y-76098400D02*
X118491000Y-80543400D01*
X106426000Y-76098400D02*
X114046000Y-76098400D01*
X106426000Y-76098400D02*
X101981000Y-71653400D01*
X138176000Y-86893400D02*
X133731000Y-91338400D01*
X144526000Y-86893400D02*
X138176000Y-86893400D01*
X145161000Y-87528400D02*
X144526000Y-86893400D01*
X101981000Y-71018400D02*
X101981000Y-71653400D01*
X145161000Y-90068400D02*
X145161000Y-97688400D01*
X145161000Y-90170000D02*
X145161000Y-97790000D01*
X110871000Y-92608400D02*
X108331000Y-92608400D01*
X110871000Y-92608400D02*
X113411000Y-92608400D01*
X99441000Y-71018400D02*
X99441000Y-88163400D01*
X103886000Y-92608400D02*
X105791000Y-92608400D01*
X99441000Y-88163400D02*
X103886000Y-92608400D01*
X105791000Y-92608400D02*
X108331000Y-92608400D01*
X147701000Y-90068400D02*
X147701000Y-86893400D01*
X108966000Y-75463400D02*
X104521000Y-71018400D01*
X114681000Y-75463400D02*
X108966000Y-75463400D01*
X119126000Y-79908400D02*
X114681000Y-75463400D01*
X119126000Y-87528400D02*
X119126000Y-79908400D01*
X120396000Y-88798400D02*
X119126000Y-87528400D01*
X135001000Y-88798400D02*
X120396000Y-88798400D01*
X137541000Y-86258400D02*
X135001000Y-88798400D01*
X147066000Y-86258400D02*
X137541000Y-86258400D01*
X147701000Y-86893400D02*
X147066000Y-86258400D01*
X147701000Y-90068400D02*
X147701000Y-97688400D01*
X104521000Y-71120000D02*
X104521000Y-71018400D01*
X147701000Y-97790000D02*
X147701000Y-90170000D01*
X132461000Y-83718400D02*
X132461000Y-84988400D01*
X122301000Y-76733400D02*
X117221000Y-71653400D01*
X122301000Y-84353400D02*
X122301000Y-76733400D01*
X123571000Y-85623400D02*
X122301000Y-84353400D01*
X131826000Y-85623400D02*
X123571000Y-85623400D01*
X132461000Y-84988400D02*
X131826000Y-85623400D01*
X117221000Y-71653400D02*
X117221000Y-71247000D01*
X145161000Y-77368400D02*
X145161000Y-78638400D01*
X148971000Y-84988400D02*
X144526000Y-84988400D01*
X149606000Y-84353400D02*
X148971000Y-84988400D01*
X149606000Y-80543400D02*
X149606000Y-84353400D01*
X148336000Y-79273400D02*
X149606000Y-80543400D01*
X145796000Y-79273400D02*
X148336000Y-79273400D01*
X145161000Y-78638400D02*
X145796000Y-79273400D01*
X115316000Y-73558400D02*
X120396000Y-78638400D01*
X120396000Y-78638400D02*
X120396000Y-86258400D01*
X120396000Y-86258400D02*
X121031000Y-86893400D01*
X113411000Y-73558400D02*
X115316000Y-73558400D01*
X112141000Y-72288400D02*
X113411000Y-73558400D01*
X112141000Y-72288400D02*
X112141000Y-71018400D01*
X121666000Y-87528400D02*
X121031000Y-86893400D01*
X133731000Y-87528400D02*
X121666000Y-87528400D01*
X136271000Y-84988400D02*
X133731000Y-87528400D01*
X144526000Y-84988400D02*
X136271000Y-84988400D01*
D15*
X105791000Y-104038400D02*
X105791000Y-109118400D01*
X113411000Y-114198400D02*
X105791000Y-114198400D01*
X113411000Y-116738400D02*
X110871000Y-116738400D01*
X110871000Y-116738400D02*
X108331000Y-116738400D01*
X108331000Y-116738400D02*
X105791000Y-116738400D01*
X108331000Y-104038400D02*
X108331000Y-106578400D01*
X108331000Y-106578400D02*
X108331000Y-109118400D01*
X110871000Y-106578400D02*
X110871000Y-109118400D01*
X110871000Y-104038400D02*
X110871000Y-106578400D01*
X113411000Y-106578400D02*
X113411000Y-109118400D01*
X113411000Y-104038400D02*
X113411000Y-106578400D01*
M02*
